G04 #@! TF.GenerationSoftware,KiCad,Pcbnew,7.0.8*
G04 #@! TF.CreationDate,2024-05-07T21:46:37+03:00*
G04 #@! TF.ProjectId,Tangenta,54616e67-656e-4746-912e-6b696361645f,rev?*
G04 #@! TF.SameCoordinates,Original*
G04 #@! TF.FileFunction,Soldermask,Top*
G04 #@! TF.FilePolarity,Negative*
%FSLAX46Y46*%
G04 Gerber Fmt 4.6, Leading zero omitted, Abs format (unit mm)*
G04 Created by KiCad (PCBNEW 7.0.8) date 2024-05-07 21:46:37*
%MOMM*%
%LPD*%
G01*
G04 APERTURE LIST*
G04 Aperture macros list*
%AMRoundRect*
0 Rectangle with rounded corners*
0 $1 Rounding radius*
0 $2 $3 $4 $5 $6 $7 $8 $9 X,Y pos of 4 corners*
0 Add a 4 corners polygon primitive as box body*
4,1,4,$2,$3,$4,$5,$6,$7,$8,$9,$2,$3,0*
0 Add four circle primitives for the rounded corners*
1,1,$1+$1,$2,$3*
1,1,$1+$1,$4,$5*
1,1,$1+$1,$6,$7*
1,1,$1+$1,$8,$9*
0 Add four rect primitives between the rounded corners*
20,1,$1+$1,$2,$3,$4,$5,0*
20,1,$1+$1,$4,$5,$6,$7,0*
20,1,$1+$1,$6,$7,$8,$9,0*
20,1,$1+$1,$8,$9,$2,$3,0*%
G04 Aperture macros list end*
%ADD10RoundRect,0.135000X-0.135000X-0.185000X0.135000X-0.185000X0.135000X0.185000X-0.135000X0.185000X0*%
%ADD11RoundRect,0.140000X-0.140000X-0.170000X0.140000X-0.170000X0.140000X0.170000X-0.140000X0.170000X0*%
%ADD12RoundRect,0.140000X0.170000X-0.140000X0.170000X0.140000X-0.170000X0.140000X-0.170000X-0.140000X0*%
%ADD13RoundRect,0.225000X-0.225000X-0.250000X0.225000X-0.250000X0.225000X0.250000X-0.225000X0.250000X0*%
%ADD14RoundRect,0.135000X0.185000X-0.135000X0.185000X0.135000X-0.185000X0.135000X-0.185000X-0.135000X0*%
%ADD15RoundRect,0.140000X-0.170000X0.140000X-0.170000X-0.140000X0.170000X-0.140000X0.170000X0.140000X0*%
%ADD16R,1.700000X1.700000*%
%ADD17O,1.700000X1.700000*%
%ADD18RoundRect,0.135000X-0.185000X0.135000X-0.185000X-0.135000X0.185000X-0.135000X0.185000X0.135000X0*%
%ADD19RoundRect,0.225000X-0.250000X0.225000X-0.250000X-0.225000X0.250000X-0.225000X0.250000X0.225000X0*%
%ADD20RoundRect,0.225000X0.250000X-0.225000X0.250000X0.225000X-0.250000X0.225000X-0.250000X-0.225000X0*%
%ADD21R,0.916002X0.350013*%
%ADD22R,1.377013X1.132537*%
%ADD23RoundRect,0.140000X0.140000X0.170000X-0.140000X0.170000X-0.140000X-0.170000X0.140000X-0.170000X0*%
%ADD24RoundRect,0.200000X0.200000X0.275000X-0.200000X0.275000X-0.200000X-0.275000X0.200000X-0.275000X0*%
%ADD25R,1.132537X1.377013*%
%ADD26O,0.200000X1.500000*%
%ADD27O,1.500000X0.200000*%
%ADD28R,5.800000X5.800000*%
%ADD29R,2.800000X1.100000*%
%ADD30RoundRect,0.150000X-0.587500X-0.150000X0.587500X-0.150000X0.587500X0.150000X-0.587500X0.150000X0*%
%ADD31RoundRect,0.365853X-0.384147X0.384147X-0.384147X-0.384147X0.384147X-0.384147X0.384147X0.384147X0*%
%ADD32C,1.600000*%
%ADD33R,2.000000X0.500000*%
%ADD34R,1.500000X1.358903*%
%ADD35R,1.024994X0.280010*%
%ADD36R,0.280010X1.024994*%
%ADD37C,1.000000*%
%ADD38R,0.850000X0.850000*%
%ADD39R,3.700000X3.700000*%
%ADD40R,3.500000X1.200000*%
%ADD41C,1.100000*%
%ADD42R,1.550000X0.300000*%
%ADD43R,2.750000X1.200000*%
%ADD44RoundRect,0.135000X0.135000X0.185000X-0.135000X0.185000X-0.135000X-0.185000X0.135000X-0.185000X0*%
%ADD45R,1.600000X0.700000*%
%ADD46R,1.500000X1.200000*%
%ADD47R,2.200000X1.200000*%
%ADD48R,1.500000X1.600000*%
%ADD49R,1.200000X3.500000*%
%ADD50R,2.500000X1.100000*%
%ADD51R,2.340005X3.600000*%
%ADD52RoundRect,0.150000X0.875000X0.150000X-0.875000X0.150000X-0.875000X-0.150000X0.875000X-0.150000X0*%
%ADD53C,0.900000*%
%ADD54C,8.000000*%
%ADD55C,2.350000*%
%ADD56R,1.200000X1.200000*%
%ADD57C,1.200000*%
%ADD58C,3.249987*%
%ADD59C,1.549403*%
%ADD60C,2.580645*%
%ADD61RoundRect,0.200000X0.275000X-0.200000X0.275000X0.200000X-0.275000X0.200000X-0.275000X-0.200000X0*%
%ADD62RoundRect,0.150000X-0.150000X0.587500X-0.150000X-0.587500X0.150000X-0.587500X0.150000X0.587500X0*%
%ADD63R,1.400000X1.100000*%
%ADD64R,0.300000X0.500000*%
%ADD65RoundRect,0.225000X0.225000X0.250000X-0.225000X0.250000X-0.225000X-0.250000X0.225000X-0.250000X0*%
%ADD66R,0.700000X1.250013*%
%ADD67R,1.200000X1.400000*%
%ADD68R,1.000000X1.000000*%
%ADD69O,1.000000X1.000000*%
%ADD70R,3.200000X2.400000*%
%ADD71C,1.650000*%
%ADD72C,1.150000*%
%ADD73R,0.300000X1.750000*%
%ADD74R,3.500000X4.600000*%
%ADD75O,0.200000X0.700000*%
%ADD76O,0.700000X0.200000*%
%ADD77R,5.200000X5.200000*%
%ADD78R,1.358903X1.500000*%
%ADD79R,3.029997X3.820015*%
%ADD80O,2.400000X1.100000*%
%ADD81O,1.500000X2.100000*%
%ADD82RoundRect,0.200000X-0.200000X-0.275000X0.200000X-0.275000X0.200000X0.275000X-0.200000X0.275000X0*%
%ADD83RoundRect,0.140000X-0.219203X-0.021213X-0.021213X-0.219203X0.219203X0.021213X0.021213X0.219203X0*%
%ADD84RoundRect,0.150000X0.587500X0.150000X-0.587500X0.150000X-0.587500X-0.150000X0.587500X-0.150000X0*%
%ADD85O,0.602007X1.970993*%
%ADD86RoundRect,0.200000X-0.275000X0.200000X-0.275000X-0.200000X0.275000X-0.200000X0.275000X0.200000X0*%
%ADD87O,0.700000X1.800000*%
%ADD88C,2.900000*%
%ADD89RoundRect,0.140000X0.021213X-0.219203X0.219203X-0.021213X-0.021213X0.219203X-0.219203X0.021213X0*%
%ADD90R,1.070003X0.600000*%
%ADD91RoundRect,0.135000X-0.226274X-0.035355X-0.035355X-0.226274X0.226274X0.035355X0.035355X0.226274X0*%
%ADD92R,1.000000X1.500000*%
%ADD93R,1.600000X1.500000*%
%ADD94RoundRect,0.140000X-0.021213X0.219203X-0.219203X0.021213X0.021213X-0.219203X0.219203X-0.021213X0*%
%ADD95RoundRect,0.250000X-0.625000X0.312500X-0.625000X-0.312500X0.625000X-0.312500X0.625000X0.312500X0*%
%ADD96RoundRect,0.140000X0.219203X0.021213X0.021213X0.219203X-0.219203X-0.021213X-0.021213X-0.219203X0*%
%ADD97C,5.300000*%
%ADD98O,0.850000X0.850000*%
%ADD99O,1.950216X0.568402*%
%ADD100R,0.500000X0.900000*%
%ADD101C,6.400000*%
%ADD102R,1.400000X1.200000*%
%ADD103R,0.200000X0.505004*%
%ADD104R,0.505004X0.200000*%
%ADD105RoundRect,0.150000X0.150000X-0.587500X0.150000X0.587500X-0.150000X0.587500X-0.150000X-0.587500X0*%
%ADD106C,2.000000*%
%ADD107R,0.750013X1.000000*%
%ADD108C,4.400000*%
%ADD109O,2.400000X1.500000*%
%ADD110C,0.649987*%
%ADD111O,2.100000X1.000000*%
%ADD112O,1.800000X1.000000*%
%ADD113R,1.150013X0.600000*%
%ADD114R,1.150013X0.300000*%
%ADD115R,1.730000X2.030000*%
%ADD116O,1.730000X2.030000*%
%ADD117RoundRect,0.250000X0.650000X-0.325000X0.650000X0.325000X-0.650000X0.325000X-0.650000X-0.325000X0*%
%ADD118C,1.295403*%
%ADD119C,2.400000*%
%ADD120C,1.650013*%
%ADD121C,1.524003*%
%ADD122R,1.250013X0.700000*%
%ADD123R,2.600000X0.300000*%
%ADD124O,3.300000X1.500000*%
%ADD125O,2.300000X1.500000*%
%ADD126C,1.800000*%
%ADD127O,0.573990X2.037998*%
%ADD128R,1.459995X0.200000*%
%ADD129R,0.200000X1.459995*%
%ADD130R,2.030000X1.730000*%
%ADD131O,2.030000X1.730000*%
%ADD132RoundRect,0.135000X0.035355X-0.226274X0.226274X-0.035355X-0.035355X0.226274X-0.226274X0.035355X0*%
%ADD133R,0.500000X0.750013*%
%ADD134R,0.450013X0.250013*%
%ADD135R,1.500000X2.500000*%
G04 APERTURE END LIST*
D10*
X94204600Y-102920800D03*
X95224600Y-102920800D03*
D11*
X233454000Y-226009200D03*
X234414000Y-226009200D03*
D12*
X128324400Y-161056200D03*
X128324400Y-160096200D03*
D13*
X271992775Y-220245400D03*
X273542775Y-220245400D03*
D11*
X70944800Y-44246800D03*
X71904800Y-44246800D03*
D14*
X152677100Y-153661800D03*
X152677100Y-152641800D03*
D10*
X76327000Y-35687000D03*
X77347000Y-35687000D03*
D15*
X118287800Y-240390800D03*
X118287800Y-241350800D03*
D11*
X234927200Y-234696000D03*
X235887200Y-234696000D03*
D12*
X58191400Y-77670600D03*
X58191400Y-76710600D03*
D16*
X52552600Y-153116200D03*
D17*
X52552600Y-150576200D03*
D18*
X157960300Y-152718000D03*
X157960300Y-153738000D03*
D19*
X268599000Y-42887600D03*
X268599000Y-44437600D03*
D14*
X243611400Y-245670800D03*
X243611400Y-244650800D03*
D10*
X129604224Y-241350801D03*
X130624224Y-241350801D03*
D20*
X253486000Y-96662000D03*
X253486000Y-95112000D03*
D21*
X45700948Y-31862013D03*
X45700948Y-32512000D03*
X45700948Y-33161987D03*
X47517052Y-33161987D03*
X47517052Y-32512000D03*
X47517052Y-31862013D03*
D22*
X79629000Y-78410818D03*
X79629000Y-76478382D03*
D14*
X84836000Y-35433000D03*
X84836000Y-34413000D03*
D21*
X47478948Y-28052013D03*
X47478948Y-28702000D03*
X47478948Y-29351987D03*
X49295052Y-29351987D03*
X49295052Y-28702000D03*
X49295052Y-28052013D03*
D23*
X82550000Y-73025000D03*
X81590000Y-73025000D03*
D12*
X208991200Y-94002800D03*
X208991200Y-93042800D03*
D24*
X165284000Y-45466000D03*
X163634000Y-45466000D03*
D11*
X73939400Y-100253800D03*
X74899400Y-100253800D03*
D15*
X142797000Y-165864600D03*
X142797000Y-166824600D03*
D25*
X86437218Y-73886000D03*
X84504782Y-73886000D03*
D12*
X103249200Y-159560200D03*
X103249200Y-158600200D03*
D26*
X242022953Y-237386597D03*
X242423003Y-237386597D03*
X242823054Y-237386597D03*
X243223105Y-237386597D03*
X243623156Y-237386597D03*
X244023207Y-237386597D03*
X244423257Y-237386597D03*
X244823054Y-237386597D03*
X245223359Y-237386597D03*
X245623156Y-237386597D03*
X246023461Y-237386597D03*
X246423003Y-237386597D03*
X246823562Y-237386597D03*
X247223105Y-237386597D03*
X247623156Y-237386597D03*
X248023207Y-237386597D03*
X248423003Y-237386597D03*
X248823054Y-237386597D03*
X249223105Y-237386597D03*
X249622648Y-237386597D03*
X250023207Y-237386597D03*
X250422749Y-237386597D03*
X250823054Y-237386597D03*
X251222851Y-237386597D03*
X251623156Y-237386597D03*
X252022953Y-237386597D03*
X252423003Y-237386597D03*
X252823054Y-237386597D03*
X253223105Y-237386597D03*
X253623156Y-237386597D03*
X254023207Y-237386597D03*
X254423257Y-237386597D03*
D27*
X255822800Y-235987054D03*
X255822800Y-235587004D03*
X255822800Y-235186953D03*
X255822800Y-234786902D03*
X255822800Y-234386851D03*
X255822800Y-233986800D03*
X255822800Y-233586750D03*
X255822800Y-233186953D03*
X255822800Y-232786648D03*
X255822800Y-232386851D03*
X255822800Y-231986546D03*
X255822800Y-231587004D03*
X255822800Y-231186445D03*
X255822800Y-230786902D03*
X255822800Y-230386851D03*
X255822800Y-229986800D03*
X255822800Y-229587004D03*
X255822800Y-229186953D03*
X255822800Y-228786902D03*
X255822800Y-228387359D03*
X255822800Y-227986800D03*
X255822800Y-227587258D03*
X255822800Y-227186953D03*
X255822800Y-226787156D03*
X255822800Y-226386851D03*
X255822800Y-225987054D03*
X255822800Y-225587004D03*
X255822800Y-225186953D03*
X255822800Y-224786902D03*
X255822800Y-224386851D03*
X255822800Y-223986800D03*
X255822800Y-223586750D03*
D26*
X254423257Y-222187207D03*
X254023207Y-222187207D03*
X253623156Y-222187207D03*
X253223105Y-222187207D03*
X252823054Y-222187207D03*
X252423003Y-222187207D03*
X252022953Y-222187207D03*
X251623156Y-222187207D03*
X251222851Y-222187207D03*
X250823054Y-222187207D03*
X250422749Y-222187207D03*
X250023207Y-222187207D03*
X249622648Y-222187207D03*
X249223105Y-222187207D03*
X248823054Y-222187207D03*
X248423003Y-222187207D03*
X248023207Y-222187207D03*
X247623156Y-222187207D03*
X247223105Y-222187207D03*
X246823562Y-222187207D03*
X246423003Y-222187207D03*
X246023461Y-222187207D03*
X245623156Y-222187207D03*
X245223359Y-222187207D03*
X244823054Y-222187207D03*
X244423257Y-222187207D03*
X244023207Y-222187207D03*
X243623156Y-222187207D03*
X243223105Y-222187207D03*
X242823054Y-222187207D03*
X242423003Y-222187207D03*
X242022953Y-222187207D03*
D27*
X240623410Y-223586750D03*
X240623410Y-223986800D03*
X240623410Y-224386851D03*
X240623410Y-224786902D03*
X240623410Y-225186953D03*
X240623410Y-225587004D03*
X240623410Y-225987054D03*
X240623410Y-226386851D03*
X240623410Y-226787156D03*
X240623410Y-227186953D03*
X240623410Y-227587258D03*
X240623410Y-227986800D03*
X240623410Y-228387359D03*
X240623410Y-228786902D03*
X240623410Y-229186953D03*
X240623410Y-229587004D03*
X240623410Y-229986800D03*
X240623410Y-230386851D03*
X240623410Y-230786902D03*
X240623410Y-231186445D03*
X240623410Y-231587004D03*
X240623410Y-231986546D03*
X240623410Y-232386851D03*
X240623410Y-232786648D03*
X240623410Y-233186953D03*
X240623410Y-233586750D03*
X240623410Y-233986800D03*
X240623410Y-234386851D03*
X240623410Y-234786902D03*
X240623410Y-235186953D03*
X240623410Y-235587004D03*
X240623410Y-235987054D03*
D28*
X248223105Y-229786902D03*
D10*
X108760800Y-99339400D03*
X109780800Y-99339400D03*
D18*
X64262000Y-50673000D03*
X64262000Y-51693000D03*
D29*
X88383876Y-88214200D03*
X84183724Y-88214200D03*
D30*
X197662800Y-101636000D03*
X197662800Y-103536000D03*
X199537800Y-102586000D03*
D20*
X197479000Y-47003000D03*
X197479000Y-45453000D03*
D31*
X190113000Y-63200000D03*
X190113000Y-64830000D03*
D32*
X70637527Y-135814298D03*
X70637527Y-145414248D03*
D33*
X66537451Y-137214349D03*
X66537451Y-138014451D03*
X66537451Y-138814298D03*
X66537451Y-139614400D03*
X66537451Y-140414248D03*
X66537451Y-141214349D03*
X66537451Y-142014451D03*
X66537451Y-142814298D03*
X66537451Y-143614400D03*
X66537451Y-144414502D03*
X74737349Y-144014451D03*
X74737349Y-143214349D03*
X74737349Y-142414502D03*
X74737349Y-141614400D03*
X74737349Y-140814298D03*
X74737349Y-140014451D03*
X74737349Y-139214349D03*
X74737349Y-138414248D03*
X74737349Y-137614400D03*
X74737349Y-136814298D03*
D34*
X111994698Y-103784400D03*
X109594902Y-103784400D03*
D14*
X62349000Y-73916000D03*
X62349000Y-72896000D03*
D35*
X56001000Y-51333873D03*
X56001000Y-51834000D03*
X56001000Y-52333873D03*
X56001000Y-52834000D03*
X56001000Y-53333873D03*
X56001000Y-53834000D03*
X56001000Y-54333873D03*
X56001000Y-54834000D03*
X56001000Y-55333873D03*
D36*
X56863586Y-56196459D03*
X57363459Y-56196459D03*
X57863586Y-56196459D03*
X58363459Y-56196459D03*
X58863586Y-56196459D03*
X59363459Y-56196459D03*
X59863586Y-56196459D03*
X60363459Y-56196459D03*
X60863586Y-56196459D03*
D35*
X61726172Y-55333873D03*
X61726172Y-54834000D03*
X61726172Y-54333873D03*
X61726172Y-53834000D03*
X61726172Y-53333873D03*
X61726172Y-52834000D03*
X61726172Y-52333873D03*
X61726172Y-51834000D03*
X61726172Y-51333873D03*
D36*
X60863586Y-50471287D03*
X60363459Y-50471287D03*
X59863586Y-50471287D03*
X59363459Y-50471287D03*
X58863586Y-50471287D03*
X58363459Y-50471287D03*
X57863586Y-50471287D03*
X57363459Y-50471287D03*
X56863586Y-50471287D03*
D37*
X59863586Y-52333873D03*
D38*
X58863586Y-52333873D03*
D37*
X57863586Y-52333873D03*
D38*
X59863586Y-53333873D03*
X58863586Y-53333873D03*
D39*
X58863586Y-53333873D03*
D38*
X57863586Y-53333873D03*
D37*
X59863586Y-54333873D03*
D38*
X58863586Y-54333873D03*
D37*
X57863586Y-54333873D03*
D40*
X242313053Y-53949600D03*
X236972947Y-53949600D03*
D10*
X108762800Y-101828600D03*
X109782800Y-101828600D03*
X129604224Y-238785401D03*
X130624224Y-238785401D03*
D30*
X197662800Y-96048000D03*
X197662800Y-97948000D03*
X199537800Y-96998000D03*
D41*
X69453000Y-219653600D03*
D32*
X69453000Y-199653600D03*
D42*
X64179000Y-218903600D03*
X71729000Y-218653600D03*
X64179000Y-218403600D03*
X71729000Y-218153600D03*
X64179000Y-217903600D03*
X71729000Y-217653600D03*
X64179000Y-217403600D03*
X71729000Y-217153600D03*
X64179000Y-216903600D03*
X71729000Y-216653600D03*
X64179000Y-216403600D03*
X71729000Y-216153600D03*
X64179000Y-215903600D03*
X71729000Y-215653600D03*
X64179000Y-215403600D03*
X71729000Y-215153600D03*
X64179000Y-214903600D03*
X71729000Y-214653600D03*
X64179000Y-214403600D03*
X71729000Y-214153600D03*
X64179000Y-213903600D03*
X71729000Y-213653600D03*
X64179000Y-213403600D03*
X71729000Y-213153600D03*
X64179000Y-212903600D03*
X71729000Y-212653600D03*
X64179000Y-212403600D03*
X71729000Y-212153600D03*
X64179000Y-211903600D03*
X71729000Y-211653600D03*
X64179000Y-211403600D03*
X71729000Y-211153600D03*
X64179000Y-210903600D03*
X71729000Y-210653600D03*
X64179000Y-210403600D03*
X71729000Y-210153600D03*
X64179000Y-209903600D03*
X71729000Y-209653600D03*
X64179000Y-209403600D03*
X71729000Y-209153600D03*
X64179000Y-208903600D03*
X71729000Y-208653600D03*
X64179000Y-208403600D03*
X71729000Y-208153600D03*
X64179000Y-207903600D03*
X71729000Y-207653600D03*
X64179000Y-207403600D03*
X71729000Y-207153600D03*
X64179000Y-206903600D03*
X71729000Y-206653600D03*
X64179000Y-206403600D03*
X71729000Y-206153600D03*
X64179000Y-205903600D03*
X71729000Y-205653600D03*
X64179000Y-205403600D03*
X71729000Y-205153600D03*
X64179000Y-204903600D03*
X71729000Y-204653600D03*
X64179000Y-202403600D03*
X71729000Y-202153600D03*
X64179000Y-201903600D03*
X71729000Y-201653600D03*
X64179000Y-201403600D03*
X71729000Y-201153600D03*
X64179000Y-200903600D03*
X71729000Y-200653600D03*
X64179000Y-200403600D03*
D43*
X64953000Y-220003600D03*
X64953000Y-199303600D03*
D44*
X122834400Y-118668800D03*
X121814400Y-118668800D03*
D12*
X78994000Y-35941000D03*
X78994000Y-34981000D03*
D15*
X142802400Y-151513600D03*
X142802400Y-152473600D03*
D11*
X265229400Y-173812200D03*
X266189400Y-173812200D03*
D12*
X122096000Y-166522400D03*
X122096000Y-165562400D03*
D15*
X134102024Y-240383241D03*
X134102024Y-241343241D03*
D44*
X262511000Y-229666800D03*
X261491000Y-229666800D03*
D12*
X237007400Y-237970000D03*
X237007400Y-237010000D03*
D37*
X274143910Y-169541962D03*
X274143910Y-161541962D03*
D45*
X263143910Y-162342064D03*
X263143910Y-163441886D03*
X263143910Y-164541962D03*
X263143910Y-165642038D03*
X263143910Y-166742114D03*
X263143910Y-167841936D03*
X263143910Y-168942013D03*
X263143910Y-170042089D03*
X263143910Y-171141911D03*
D46*
X264143910Y-172342064D03*
D47*
X273744114Y-172342064D03*
D48*
X264143910Y-157742114D03*
D47*
X273744114Y-156841936D03*
D44*
X80418400Y-133096000D03*
X79398400Y-133096000D03*
D14*
X237642400Y-245670800D03*
X237642400Y-244650800D03*
D25*
X126038400Y-152704800D03*
X124105964Y-152704800D03*
D14*
X252069600Y-245668800D03*
X252069600Y-244648800D03*
D49*
X69844000Y-240282947D03*
X69844000Y-245623053D03*
D44*
X262511000Y-228574600D03*
X261491000Y-228574600D03*
D25*
X126034018Y-164797800D03*
X124101582Y-164797800D03*
D50*
X273576904Y-227371375D03*
X273576904Y-225071400D03*
X273576904Y-222771425D03*
D51*
X267636975Y-225071400D03*
D10*
X74668000Y-205615000D03*
X75688000Y-205615000D03*
D16*
X147218400Y-121666000D03*
D17*
X144678400Y-121666000D03*
X142138400Y-121666000D03*
X139598400Y-121666000D03*
X137058400Y-121666000D03*
D52*
X139627400Y-161366200D03*
X139627400Y-160096200D03*
X139627400Y-158826200D03*
X139627400Y-157556200D03*
X139627400Y-156286200D03*
X139627400Y-155016200D03*
X139627400Y-153746200D03*
X139627400Y-152476200D03*
X139627400Y-151206200D03*
X139627400Y-149936200D03*
X130327400Y-149936200D03*
X130327400Y-151206200D03*
X130327400Y-152476200D03*
X130327400Y-153746200D03*
X130327400Y-155016200D03*
X130327400Y-156286200D03*
X130327400Y-157556200D03*
X130327400Y-158826200D03*
X130327400Y-160096200D03*
X130327400Y-161366200D03*
D18*
X250514200Y-215898000D03*
X250514200Y-216918000D03*
D53*
X197400000Y-257050000D03*
X198278680Y-254928680D03*
X198278680Y-259171320D03*
X200400000Y-254050000D03*
D54*
X200400000Y-257050000D03*
D53*
X200400000Y-260050000D03*
X202521320Y-254928680D03*
X202521320Y-259171320D03*
X203400000Y-257050000D03*
D15*
X103124000Y-150015000D03*
X103124000Y-150975000D03*
D18*
X81356200Y-136521000D03*
X81356200Y-137541000D03*
D12*
X81584800Y-112367000D03*
X81584800Y-111407000D03*
D55*
X92400000Y-189344000D03*
X165550000Y-189344000D03*
D56*
X80750000Y-188094000D03*
D57*
X81750000Y-186094000D03*
X82750000Y-188094000D03*
X83750000Y-186094000D03*
X84750000Y-188094000D03*
X85750000Y-186094000D03*
X86750000Y-188094000D03*
X87750000Y-186094000D03*
X88750000Y-188094000D03*
X89750000Y-186094000D03*
X90750000Y-188094000D03*
X93750000Y-186094000D03*
X94750000Y-188094000D03*
X95750000Y-186094000D03*
X96750000Y-188094000D03*
X97750000Y-186094000D03*
X98750000Y-188094000D03*
X99750000Y-186094000D03*
X100750000Y-188094000D03*
X101750000Y-186094000D03*
X102750000Y-188094000D03*
X103750000Y-186094000D03*
X104750000Y-188094000D03*
X105750000Y-186094000D03*
X106750000Y-188094000D03*
X107750000Y-186094000D03*
X108750000Y-188094000D03*
X109750000Y-186094000D03*
X110750000Y-188094000D03*
X111750000Y-186094000D03*
X112750000Y-188094000D03*
X113750000Y-186094000D03*
X114750000Y-188094000D03*
X115750000Y-186094000D03*
X116750000Y-188094000D03*
X117750000Y-186094000D03*
X118750000Y-188094000D03*
X119750000Y-186094000D03*
X120750000Y-188094000D03*
X121750000Y-186094000D03*
X122750000Y-188094000D03*
X123750000Y-186094000D03*
X124750000Y-188094000D03*
X125750000Y-186094000D03*
X126750000Y-188094000D03*
X127750000Y-186094000D03*
X128750000Y-188094000D03*
X129750000Y-186094000D03*
X130750000Y-188094000D03*
X131750000Y-186094000D03*
X132750000Y-188094000D03*
X133750000Y-186094000D03*
X134750000Y-188094000D03*
X135750000Y-186094000D03*
X136750000Y-188094000D03*
X137750000Y-186094000D03*
X138750000Y-188094000D03*
X139750000Y-186094000D03*
X140750000Y-188094000D03*
X141750000Y-186094000D03*
X142750000Y-188094000D03*
X143750000Y-186094000D03*
X144750000Y-188094000D03*
X145750000Y-186094000D03*
X146750000Y-188094000D03*
X147750000Y-186094000D03*
X148750000Y-188094000D03*
X149750000Y-186094000D03*
X150750000Y-188094000D03*
X151750000Y-186094000D03*
X152750000Y-188094000D03*
X153750000Y-186094000D03*
X154750000Y-188094000D03*
X155750000Y-186094000D03*
X156750000Y-188094000D03*
X157750000Y-186094000D03*
X158750000Y-188094000D03*
X159750000Y-186094000D03*
X160750000Y-188094000D03*
X161750000Y-186094000D03*
X162750000Y-188094000D03*
X163750000Y-186094000D03*
X80750000Y-190594000D03*
X81750000Y-192594000D03*
X82750000Y-190594000D03*
X83750000Y-192594000D03*
X84750000Y-190594000D03*
X85750000Y-192594000D03*
X86750000Y-190594000D03*
X87750000Y-192594000D03*
X88750000Y-190594000D03*
X89750000Y-192594000D03*
X90750000Y-190594000D03*
X93750000Y-192594000D03*
X94750000Y-190594000D03*
X95750000Y-192594000D03*
X96750000Y-190594000D03*
X97750000Y-192594000D03*
X98750000Y-190594000D03*
X99750000Y-192594000D03*
X100750000Y-190594000D03*
X101750000Y-192594000D03*
X102750000Y-190594000D03*
X103750000Y-192594000D03*
X104750000Y-190594000D03*
X105750000Y-192594000D03*
X106750000Y-190594000D03*
X107750000Y-192594000D03*
X108750000Y-190594000D03*
X109750000Y-192594000D03*
X110750000Y-190594000D03*
X111750000Y-192594000D03*
X112750000Y-190594000D03*
X113750000Y-192594000D03*
X114750000Y-190594000D03*
X115750000Y-192594000D03*
X116750000Y-190594000D03*
X117750000Y-192594000D03*
X118750000Y-190594000D03*
X119750000Y-192594000D03*
X120750000Y-190594000D03*
X121750000Y-192594000D03*
X122750000Y-190594000D03*
X123750000Y-192594000D03*
X124750000Y-190594000D03*
X125750000Y-192594000D03*
X126750000Y-190594000D03*
X127750000Y-192594000D03*
X128750000Y-190594000D03*
X129750000Y-192594000D03*
X130750000Y-190594000D03*
X131750000Y-192594000D03*
X132750000Y-190594000D03*
X133750000Y-192594000D03*
X134750000Y-190594000D03*
X135750000Y-192594000D03*
X136750000Y-190594000D03*
X137750000Y-192594000D03*
X138750000Y-190594000D03*
X139750000Y-192594000D03*
X140750000Y-190594000D03*
X141750000Y-192594000D03*
X142750000Y-190594000D03*
X143750000Y-192594000D03*
X144750000Y-190594000D03*
X145750000Y-192594000D03*
X146750000Y-190594000D03*
X147750000Y-192594000D03*
X148750000Y-190594000D03*
X149750000Y-192594000D03*
X150750000Y-190594000D03*
X151750000Y-192594000D03*
X152750000Y-190594000D03*
X153750000Y-192594000D03*
X154750000Y-190594000D03*
X155750000Y-192594000D03*
X156750000Y-190594000D03*
X157750000Y-192594000D03*
X158750000Y-190594000D03*
X159750000Y-192594000D03*
X160750000Y-190594000D03*
X161750000Y-192594000D03*
X162750000Y-190594000D03*
X163750000Y-192594000D03*
D14*
X251053600Y-245670800D03*
X251053600Y-244650800D03*
D41*
X100066000Y-61562000D03*
D32*
X100066000Y-41562000D03*
D42*
X94792000Y-60812000D03*
X102342000Y-60562000D03*
X94792000Y-60312000D03*
X102342000Y-60062000D03*
X94792000Y-59812000D03*
X102342000Y-59562000D03*
X94792000Y-59312000D03*
X102342000Y-59062000D03*
X94792000Y-58812000D03*
X102342000Y-58562000D03*
X94792000Y-58312000D03*
X102342000Y-58062000D03*
X94792000Y-57812000D03*
X102342000Y-57562000D03*
X94792000Y-57312000D03*
X102342000Y-57062000D03*
X94792000Y-56812000D03*
X102342000Y-56562000D03*
X94792000Y-56312000D03*
X102342000Y-56062000D03*
X94792000Y-55812000D03*
X102342000Y-55562000D03*
X94792000Y-55312000D03*
X102342000Y-55062000D03*
X94792000Y-54812000D03*
X102342000Y-54562000D03*
X94792000Y-54312000D03*
X102342000Y-54062000D03*
X94792000Y-53812000D03*
X102342000Y-53562000D03*
X94792000Y-53312000D03*
X102342000Y-53062000D03*
X94792000Y-52812000D03*
X102342000Y-52562000D03*
X94792000Y-52312000D03*
X102342000Y-52062000D03*
X94792000Y-51812000D03*
X102342000Y-51562000D03*
X94792000Y-51312000D03*
X102342000Y-51062000D03*
X94792000Y-50812000D03*
X102342000Y-50562000D03*
X94792000Y-50312000D03*
X102342000Y-50062000D03*
X94792000Y-49812000D03*
X102342000Y-49562000D03*
X94792000Y-49312000D03*
X102342000Y-49062000D03*
X94792000Y-48812000D03*
X102342000Y-48562000D03*
X94792000Y-48312000D03*
X102342000Y-48062000D03*
X94792000Y-47812000D03*
X102342000Y-47562000D03*
X94792000Y-47312000D03*
X102342000Y-47062000D03*
X94792000Y-46812000D03*
X102342000Y-46562000D03*
X94792000Y-44312000D03*
X102342000Y-44062000D03*
X94792000Y-43812000D03*
X102342000Y-43562000D03*
X94792000Y-43312000D03*
X102342000Y-43062000D03*
X94792000Y-42812000D03*
X102342000Y-42562000D03*
X94792000Y-42312000D03*
D43*
X95566000Y-61912000D03*
X95566000Y-41212000D03*
D58*
X45533924Y-98405899D03*
X45533924Y-109835921D03*
D59*
X54423942Y-98401073D03*
X51883937Y-99671075D03*
X54423942Y-100941078D03*
X51883937Y-102211080D03*
X54423942Y-103481083D03*
X51883937Y-104751085D03*
X54423942Y-106021088D03*
X51883937Y-107291090D03*
X54423942Y-108561093D03*
X51883937Y-109831095D03*
X40634000Y-97496069D03*
X40634000Y-100036074D03*
X40634000Y-108206000D03*
X40634000Y-110746005D03*
D60*
X48583962Y-96375927D03*
X48583962Y-111865893D03*
D10*
X120546400Y-131673600D03*
X121566400Y-131673600D03*
D11*
X97919600Y-96520000D03*
X98879600Y-96520000D03*
D61*
X260423000Y-144593038D03*
X260423000Y-142943038D03*
D62*
X109992200Y-121896900D03*
X108092200Y-121896900D03*
X109042200Y-123771900D03*
D22*
X74506000Y-78421218D03*
X74506000Y-76488782D03*
D10*
X115263200Y-131673600D03*
X116283200Y-131673600D03*
D11*
X239550000Y-219710000D03*
X240510000Y-219710000D03*
D24*
X261360000Y-150497000D03*
X259710000Y-150497000D03*
D34*
X69279102Y-196090000D03*
X71678898Y-196090000D03*
D63*
X255498600Y-88440000D03*
X261998472Y-88440000D03*
X255498600Y-91440000D03*
X261998472Y-91440000D03*
D64*
X124909200Y-118630825D03*
X124409200Y-118630825D03*
X123909200Y-118630825D03*
X123909200Y-120230775D03*
X124409200Y-120230775D03*
X124909200Y-120230775D03*
D61*
X258391000Y-144593038D03*
X258391000Y-142943038D03*
D11*
X233454000Y-231698800D03*
X234414000Y-231698800D03*
D23*
X70033000Y-74837782D03*
X69073000Y-74837782D03*
X258848800Y-225602800D03*
X257888800Y-225602800D03*
D18*
X118618000Y-135255000D03*
X118618000Y-136275000D03*
D23*
X268170600Y-154330400D03*
X267210600Y-154330400D03*
D44*
X101723000Y-64391000D03*
X100703000Y-64391000D03*
X92000800Y-114858800D03*
X90980800Y-114858800D03*
D11*
X244551200Y-241376200D03*
X245511200Y-241376200D03*
X235886400Y-229491000D03*
X236846400Y-229491000D03*
X74407000Y-71613000D03*
X75367000Y-71613000D03*
D14*
X230149400Y-98655600D03*
X230149400Y-97635600D03*
D10*
X60831000Y-57658000D03*
X61851000Y-57658000D03*
D11*
X50828000Y-53340000D03*
X51788000Y-53340000D03*
X70944800Y-45262800D03*
X71904800Y-45262800D03*
D14*
X224231200Y-103915400D03*
X224231200Y-102895400D03*
D11*
X239550000Y-217703400D03*
X240510000Y-217703400D03*
D14*
X152681700Y-173230000D03*
X152681700Y-172210000D03*
D10*
X127252000Y-169367200D03*
X128272000Y-169367200D03*
D11*
X76975000Y-72805782D03*
X77935000Y-72805782D03*
D65*
X199397000Y-49758600D03*
X197847000Y-49758600D03*
D44*
X75688000Y-217934000D03*
X74668000Y-217934000D03*
D19*
X238119000Y-42887600D03*
X238119000Y-44437600D03*
D18*
X238861600Y-229739000D03*
X238861600Y-230759000D03*
X246323200Y-219555600D03*
X246323200Y-220575600D03*
D14*
X152679400Y-168393800D03*
X152679400Y-167373800D03*
D15*
X142797000Y-168404600D03*
X142797000Y-169364600D03*
D44*
X66669000Y-78742000D03*
X65649000Y-78742000D03*
D66*
X258457038Y-141212038D03*
X260356962Y-141212038D03*
X259407000Y-139212038D03*
D34*
X98755200Y-241048000D03*
X101154996Y-241048000D03*
D44*
X248357200Y-218543600D03*
X247337200Y-218543600D03*
D23*
X85443000Y-71854000D03*
X84483000Y-71854000D03*
D10*
X109954600Y-131673600D03*
X110974600Y-131673600D03*
D14*
X198748400Y-106095200D03*
X198748400Y-105075200D03*
D16*
X120142000Y-124226400D03*
D17*
X120142000Y-126766400D03*
D14*
X81356200Y-139498800D03*
X81356200Y-138478800D03*
D18*
X157964900Y-172288200D03*
X157964900Y-173308200D03*
D12*
X58928000Y-59789000D03*
X58928000Y-58829000D03*
D11*
X260555800Y-160705800D03*
X261515800Y-160705800D03*
D44*
X198960200Y-92458300D03*
X197940200Y-92458300D03*
D10*
X198016400Y-87124300D03*
X199036400Y-87124300D03*
D34*
X66471898Y-196090000D03*
X64072102Y-196090000D03*
D10*
X103579200Y-103428800D03*
X104599200Y-103428800D03*
D12*
X78359000Y-114904400D03*
X78359000Y-113944400D03*
D61*
X125196600Y-171513000D03*
X125196600Y-169863000D03*
D14*
X80416400Y-142320200D03*
X80416400Y-141300200D03*
D18*
X83058000Y-62482000D03*
X83058000Y-63502000D03*
X90754200Y-236474000D03*
X90754200Y-237494000D03*
D67*
X99683187Y-99890324D03*
X99683187Y-102090476D03*
X101383213Y-102090476D03*
X101383213Y-99890324D03*
D68*
X200853200Y-113390600D03*
D69*
X199583200Y-113390600D03*
X200853200Y-112120600D03*
X199583200Y-112120600D03*
X200853200Y-110850600D03*
X199583200Y-110850600D03*
D20*
X227959000Y-47003000D03*
X227959000Y-45453000D03*
D70*
X251073000Y-53949594D03*
X251073000Y-59791606D03*
D12*
X59944000Y-59789000D03*
X59944000Y-58829000D03*
D15*
X141659400Y-154053600D03*
X141659400Y-155013600D03*
X120462224Y-240390801D03*
X120462224Y-241350801D03*
D10*
X118311200Y-121818400D03*
X119331200Y-121818400D03*
D11*
X79177000Y-74753218D03*
X80137000Y-74753218D03*
D44*
X80418400Y-146583400D03*
X79398400Y-146583400D03*
D15*
X47244000Y-34572000D03*
X47244000Y-35532000D03*
D71*
X188173000Y-110554000D03*
D72*
X119373000Y-110554000D03*
D73*
X187148000Y-106454000D03*
X186898000Y-114654000D03*
X186648000Y-106454000D03*
X186398000Y-114654000D03*
X186148000Y-106454000D03*
X185898000Y-114654000D03*
X185648000Y-106454000D03*
X185398000Y-114654000D03*
X185148000Y-106454000D03*
X184898000Y-114654000D03*
X184648000Y-106454000D03*
X184398000Y-114654000D03*
X184148000Y-106454000D03*
X183898000Y-114654000D03*
X183648000Y-106454000D03*
X183398000Y-114654000D03*
X183148000Y-106454000D03*
X182898000Y-114654000D03*
X182648000Y-106454000D03*
X182398000Y-114654000D03*
X182148000Y-106454000D03*
X181898000Y-114654000D03*
X181648000Y-106454000D03*
X181398000Y-114654000D03*
X181148000Y-106454000D03*
X180898000Y-114654000D03*
X180648000Y-106454000D03*
X180398000Y-114654000D03*
X180148000Y-106454000D03*
X179898000Y-114654000D03*
X179648000Y-106454000D03*
X179398000Y-114654000D03*
X179148000Y-106454000D03*
X178898000Y-114654000D03*
X178648000Y-106454000D03*
X178398000Y-114654000D03*
X178148000Y-106454000D03*
X177898000Y-114654000D03*
X177648000Y-106454000D03*
X177398000Y-114654000D03*
X177148000Y-106454000D03*
X176898000Y-114654000D03*
X176648000Y-106454000D03*
X176398000Y-114654000D03*
X176148000Y-106454000D03*
X175898000Y-114654000D03*
X175648000Y-106454000D03*
X175398000Y-114654000D03*
X175148000Y-106454000D03*
X174898000Y-114654000D03*
X174648000Y-106454000D03*
X174398000Y-114654000D03*
X174148000Y-106454000D03*
X173898000Y-114654000D03*
X173648000Y-106454000D03*
X173398000Y-114654000D03*
X173148000Y-106454000D03*
X172898000Y-114654000D03*
X172648000Y-106454000D03*
X172398000Y-114654000D03*
X172148000Y-106454000D03*
X171898000Y-114654000D03*
X171648000Y-106454000D03*
X171398000Y-114654000D03*
X171148000Y-106454000D03*
X170898000Y-114654000D03*
X170648000Y-106454000D03*
X170398000Y-114654000D03*
X170148000Y-106454000D03*
X169898000Y-114654000D03*
X169648000Y-106454000D03*
X169398000Y-114654000D03*
X169148000Y-106454000D03*
X168898000Y-114654000D03*
X168648000Y-106454000D03*
X168398000Y-114654000D03*
X168148000Y-106454000D03*
X167898000Y-114654000D03*
X167648000Y-106454000D03*
X167398000Y-114654000D03*
X167148000Y-106454000D03*
X166898000Y-114654000D03*
X166648000Y-106454000D03*
X166398000Y-114654000D03*
X166148000Y-106454000D03*
X165898000Y-114654000D03*
X165648000Y-106454000D03*
X165398000Y-114654000D03*
X165148000Y-106454000D03*
X164898000Y-114654000D03*
X164648000Y-106454000D03*
X164398000Y-114654000D03*
X164148000Y-106454000D03*
X163898000Y-114654000D03*
X163648000Y-106454000D03*
X163398000Y-114654000D03*
X163148000Y-106454000D03*
X162898000Y-114654000D03*
X162648000Y-106454000D03*
X162398000Y-114654000D03*
X162148000Y-106454000D03*
X161898000Y-114654000D03*
X161648000Y-106454000D03*
X161398000Y-114654000D03*
X161148000Y-106454000D03*
X160898000Y-114654000D03*
X160648000Y-106454000D03*
X160398000Y-114654000D03*
X160148000Y-106454000D03*
X159898000Y-114654000D03*
X159648000Y-106454000D03*
X159398000Y-114654000D03*
X159148000Y-106454000D03*
X158898000Y-114654000D03*
X158648000Y-106454000D03*
X158398000Y-114654000D03*
X158148000Y-106454000D03*
X157898000Y-114654000D03*
X157648000Y-106454000D03*
X157398000Y-114654000D03*
X157148000Y-106454000D03*
X156898000Y-114654000D03*
X156648000Y-106454000D03*
X156398000Y-114654000D03*
X156148000Y-106454000D03*
X155898000Y-114654000D03*
X155648000Y-106454000D03*
X155398000Y-114654000D03*
X155148000Y-106454000D03*
X154898000Y-114654000D03*
X154648000Y-106454000D03*
X154398000Y-114654000D03*
X154148000Y-106454000D03*
X153898000Y-114654000D03*
X153648000Y-106454000D03*
X153398000Y-114654000D03*
X153148000Y-106454000D03*
X152898000Y-114654000D03*
X152648000Y-106454000D03*
X152398000Y-114654000D03*
X152148000Y-106454000D03*
X151898000Y-114654000D03*
X151648000Y-106454000D03*
X151398000Y-114654000D03*
X149148000Y-106454000D03*
X148898000Y-114654000D03*
X148648000Y-106454000D03*
X148398000Y-114654000D03*
X148148000Y-106454000D03*
X147898000Y-114654000D03*
X147648000Y-106454000D03*
X147398000Y-114654000D03*
X147148000Y-106454000D03*
X146898000Y-114654000D03*
X146648000Y-106454000D03*
X146398000Y-114654000D03*
X146148000Y-106454000D03*
X145898000Y-114654000D03*
X145648000Y-106454000D03*
X145398000Y-114654000D03*
X145148000Y-106454000D03*
X144898000Y-114654000D03*
X144648000Y-106454000D03*
X144398000Y-114654000D03*
X144148000Y-106454000D03*
X143898000Y-114654000D03*
X143648000Y-106454000D03*
X143398000Y-114654000D03*
X143148000Y-106454000D03*
X142898000Y-114654000D03*
X142648000Y-106454000D03*
X142398000Y-114654000D03*
X142148000Y-106454000D03*
X141898000Y-114654000D03*
X141648000Y-106454000D03*
X141398000Y-114654000D03*
X141148000Y-106454000D03*
X140898000Y-114654000D03*
X140648000Y-106454000D03*
X140398000Y-114654000D03*
X140148000Y-106454000D03*
X139898000Y-114654000D03*
X139648000Y-106454000D03*
X139398000Y-114654000D03*
X139148000Y-106454000D03*
X138898000Y-114654000D03*
X138648000Y-106454000D03*
X138398000Y-114654000D03*
X138148000Y-106454000D03*
X137898000Y-114654000D03*
X137648000Y-106454000D03*
X137398000Y-114654000D03*
X137148000Y-106454000D03*
X136898000Y-114654000D03*
X136648000Y-106454000D03*
X136398000Y-114654000D03*
X136148000Y-106454000D03*
X135898000Y-114654000D03*
X135648000Y-106454000D03*
X135398000Y-114654000D03*
X135148000Y-106454000D03*
X134898000Y-114654000D03*
X134648000Y-106454000D03*
X134398000Y-114654000D03*
X134148000Y-106454000D03*
X133898000Y-114654000D03*
X133648000Y-106454000D03*
X133398000Y-114654000D03*
X133148000Y-106454000D03*
X132898000Y-114654000D03*
X132648000Y-106454000D03*
X132398000Y-114654000D03*
X132148000Y-106454000D03*
X131898000Y-114654000D03*
X131648000Y-106454000D03*
X131398000Y-114654000D03*
X131148000Y-106454000D03*
X130898000Y-114654000D03*
X130648000Y-106454000D03*
X130398000Y-114654000D03*
X130148000Y-106454000D03*
X129898000Y-114654000D03*
X129648000Y-106454000D03*
X129398000Y-114654000D03*
X129148000Y-106454000D03*
X128898000Y-114654000D03*
X128648000Y-106454000D03*
X128398000Y-114654000D03*
X128148000Y-106454000D03*
X127898000Y-114654000D03*
X127648000Y-106454000D03*
X127398000Y-114654000D03*
X127148000Y-106454000D03*
X126898000Y-114654000D03*
X126648000Y-106454000D03*
X126398000Y-114654000D03*
X126148000Y-106454000D03*
X125898000Y-114654000D03*
X125648000Y-106454000D03*
X125398000Y-114654000D03*
X125148000Y-106454000D03*
X124898000Y-114654000D03*
X124648000Y-106454000D03*
X124398000Y-114654000D03*
X124148000Y-106454000D03*
X123898000Y-114654000D03*
X123648000Y-106454000D03*
X123398000Y-114654000D03*
X123148000Y-106454000D03*
X122898000Y-114654000D03*
X122648000Y-106454000D03*
X122398000Y-114654000D03*
X122148000Y-106454000D03*
X121898000Y-114654000D03*
X121648000Y-106454000D03*
X121398000Y-114654000D03*
X121148000Y-106454000D03*
X120898000Y-114654000D03*
X120648000Y-106454000D03*
X120398000Y-114654000D03*
D74*
X187573000Y-98554000D03*
X119973000Y-98554000D03*
D53*
X197400000Y-191010000D03*
X198278680Y-188888680D03*
X198278680Y-193131320D03*
X200400000Y-188010000D03*
D54*
X200400000Y-191010000D03*
D53*
X200400000Y-194010000D03*
X202521320Y-188888680D03*
X202521320Y-193131320D03*
X203400000Y-191010000D03*
D44*
X257860800Y-210921600D03*
X256840800Y-210921600D03*
D68*
X100406200Y-196344000D03*
D58*
X45533924Y-117201899D03*
X45533924Y-128631921D03*
D59*
X54423942Y-117197073D03*
X51883937Y-118467075D03*
X54423942Y-119737078D03*
X51883937Y-121007080D03*
X54423942Y-122277083D03*
X51883937Y-123547085D03*
X54423942Y-124817088D03*
X51883937Y-126087090D03*
X54423942Y-127357093D03*
X51883937Y-128627095D03*
X40634000Y-116292069D03*
X40634000Y-118832074D03*
X40634000Y-127002000D03*
X40634000Y-129542005D03*
D60*
X48583962Y-115171927D03*
X48583962Y-130661893D03*
D11*
X239550000Y-220726000D03*
X240510000Y-220726000D03*
D22*
X77216000Y-78410818D03*
X77216000Y-76478382D03*
D75*
X80464000Y-62723000D03*
X80064000Y-62723000D03*
X79664000Y-62723000D03*
X79264000Y-62723000D03*
X78864000Y-62723000D03*
X78464000Y-62723000D03*
X78064000Y-62723000D03*
X77664000Y-62723000D03*
X77264000Y-62723000D03*
X76864000Y-62723000D03*
X76464000Y-62723000D03*
X76064000Y-62723000D03*
X75664000Y-62723000D03*
X75264000Y-62723000D03*
X74864000Y-62723000D03*
X74464000Y-62723000D03*
D76*
X73764000Y-63423000D03*
X73764000Y-63823000D03*
X73764000Y-64223000D03*
X73764000Y-64623000D03*
X73764000Y-65023000D03*
X73764000Y-65423000D03*
X73764000Y-65823000D03*
X73764000Y-66223000D03*
X73764000Y-66623000D03*
X73764000Y-67023000D03*
X73764000Y-67423000D03*
X73764000Y-67823000D03*
X73764000Y-68223000D03*
X73764000Y-68623000D03*
X73764000Y-69023000D03*
X73764000Y-69423000D03*
D75*
X74464000Y-70123000D03*
X74864000Y-70123000D03*
X75264000Y-70123000D03*
X75664000Y-70123000D03*
X76064000Y-70123000D03*
X76464000Y-70123000D03*
X76864000Y-70123000D03*
X77264000Y-70123000D03*
X77664000Y-70123000D03*
X78064000Y-70123000D03*
X78464000Y-70123000D03*
X78864000Y-70123000D03*
X79264000Y-70123000D03*
X79664000Y-70123000D03*
X80064000Y-70123000D03*
X80464000Y-70123000D03*
D76*
X81164000Y-69423000D03*
X81164000Y-69023000D03*
X81164000Y-68623000D03*
X81164000Y-68223000D03*
X81164000Y-67823000D03*
X81164000Y-67423000D03*
X81164000Y-67023000D03*
X81164000Y-66623000D03*
X81164000Y-66223000D03*
X81164000Y-65823000D03*
X81164000Y-65423000D03*
X81164000Y-65023000D03*
X81164000Y-64623000D03*
X81164000Y-64223000D03*
X81164000Y-63823000D03*
X81164000Y-63423000D03*
D37*
X79364000Y-64523000D03*
X77464000Y-64523000D03*
X75564000Y-64523000D03*
X79364000Y-66423000D03*
X77464000Y-66423000D03*
D77*
X77464000Y-66423000D03*
D37*
X75564000Y-66423000D03*
X79364000Y-68323000D03*
X77464000Y-68323000D03*
X75564000Y-68323000D03*
D23*
X266316400Y-219811600D03*
X265356400Y-219811600D03*
D65*
X168917000Y-49758600D03*
X167367000Y-49758600D03*
D78*
X89783000Y-182557898D03*
X89783000Y-180158102D03*
D44*
X91998800Y-113842800D03*
X90978800Y-113842800D03*
D79*
X256528024Y-53949600D03*
X263397976Y-53949600D03*
D65*
X260357000Y-49758600D03*
X258807000Y-49758600D03*
D19*
X243128800Y-252717000D03*
X243128800Y-254267000D03*
D34*
X168466102Y-65963800D03*
X170865898Y-65963800D03*
D14*
X83693000Y-35433000D03*
X83693000Y-34413000D03*
D18*
X247339200Y-219555600D03*
X247339200Y-220575600D03*
D12*
X128319000Y-175409800D03*
X128319000Y-174449800D03*
D10*
X102561200Y-120190500D03*
X103581200Y-120190500D03*
D68*
X60700000Y-202412600D03*
D12*
X238988600Y-237970000D03*
X238988600Y-237010000D03*
D44*
X261518400Y-225094800D03*
X260498400Y-225094800D03*
D16*
X211201000Y-111353600D03*
D17*
X211201000Y-108813600D03*
X213741000Y-111353600D03*
X213741000Y-108813600D03*
X216281000Y-111353600D03*
X216281000Y-108813600D03*
X218821000Y-111353600D03*
X218821000Y-108813600D03*
X221361000Y-111353600D03*
X221361000Y-108813600D03*
D44*
X265228800Y-232843800D03*
X264208800Y-232843800D03*
D67*
X86078064Y-70203000D03*
X86078064Y-68002848D03*
X84328000Y-68002848D03*
X84328000Y-70203000D03*
D41*
X44328975Y-54479949D03*
X44328975Y-55880000D03*
X44328975Y-57280050D03*
X44328975Y-58680101D03*
D80*
X41729025Y-53880000D03*
D81*
X38729025Y-56580025D03*
D80*
X41729025Y-59280050D03*
D82*
X244832033Y-254262506D03*
X246482033Y-254262506D03*
D83*
X103186613Y-95927924D03*
X103865435Y-96606746D03*
D11*
X79177000Y-73737218D03*
X80137000Y-73737218D03*
D79*
X226048024Y-53949600D03*
X232917976Y-53949600D03*
D10*
X84933600Y-152908000D03*
X85953600Y-152908000D03*
D16*
X256407000Y-97919000D03*
D17*
X258947000Y-97919000D03*
X256407000Y-100459000D03*
X258947000Y-100459000D03*
D84*
X156258500Y-154620000D03*
X156258500Y-152720000D03*
X154383500Y-153670000D03*
D10*
X251764800Y-212877400D03*
X252784800Y-212877400D03*
D85*
X259582013Y-126293330D03*
X258312010Y-126293330D03*
X257042008Y-126293330D03*
X255772005Y-126293330D03*
X254502003Y-126293330D03*
X253232000Y-126293330D03*
X251961998Y-126293330D03*
X250691995Y-126293330D03*
X250691995Y-131764500D03*
X251961998Y-131764500D03*
X253232000Y-131764500D03*
X254502003Y-131764500D03*
X255772005Y-131764500D03*
X257042008Y-131764500D03*
X258312010Y-131764500D03*
X259582013Y-131764500D03*
D44*
X251536200Y-214934800D03*
X250516200Y-214934800D03*
D11*
X95074800Y-92100400D03*
X96034800Y-92100400D03*
D14*
X230161100Y-113311400D03*
X230161100Y-112291400D03*
D52*
X101170000Y-159867600D03*
X101170000Y-158597600D03*
X101170000Y-157327600D03*
X101170000Y-156057600D03*
X101170000Y-154787600D03*
X101170000Y-153517600D03*
X101170000Y-152247600D03*
X101170000Y-150977600D03*
X101170000Y-149707600D03*
X101170000Y-148437600D03*
X91870000Y-148437600D03*
X91870000Y-149707600D03*
X91870000Y-150977600D03*
X91870000Y-152247600D03*
X91870000Y-153517600D03*
X91870000Y-154787600D03*
X91870000Y-156057600D03*
X91870000Y-157327600D03*
X91870000Y-158597600D03*
X91870000Y-159867600D03*
D44*
X96141000Y-98602800D03*
X95121000Y-98602800D03*
D86*
X251961998Y-134675330D03*
X251961998Y-136325330D03*
D15*
X63754000Y-47526000D03*
X63754000Y-48486000D03*
D40*
X272793053Y-53949600D03*
X267452947Y-53949600D03*
D44*
X62931038Y-78742000D03*
X61911038Y-78742000D03*
D87*
X206603604Y-86842594D03*
X205333601Y-86842594D03*
X204063599Y-86842594D03*
X202793596Y-86842594D03*
X202793596Y-93040206D03*
X204063599Y-93040206D03*
X205333601Y-93040206D03*
X206603604Y-93040206D03*
D18*
X237814200Y-229491000D03*
X237814200Y-230511000D03*
D88*
X264400000Y-145520051D03*
X264400000Y-141319899D03*
X264400000Y-137120000D03*
X264400000Y-132919848D03*
X264400000Y-128719950D03*
X264400000Y-124520051D03*
X264400000Y-120319899D03*
X264400000Y-116120000D03*
X264400000Y-111919848D03*
X264400000Y-107719950D03*
X264400000Y-103520051D03*
X264400000Y-99319899D03*
X269900128Y-145520051D03*
X269900128Y-141319899D03*
X269900128Y-137120000D03*
X269900128Y-132919848D03*
X269900128Y-128719950D03*
X269900128Y-124520051D03*
X269900128Y-120319899D03*
X269900128Y-116120000D03*
X269900128Y-111919848D03*
X269900128Y-107719950D03*
X269900128Y-103520051D03*
X269900128Y-99319899D03*
D44*
X265226800Y-233959400D03*
X264206800Y-233959400D03*
D11*
X56289000Y-48006000D03*
X57249000Y-48006000D03*
D18*
X100380800Y-123769900D03*
X100380800Y-124789900D03*
D15*
X133009824Y-240383241D03*
X133009824Y-241343241D03*
X85090000Y-62484000D03*
X85090000Y-63444000D03*
D89*
X53127589Y-42122411D03*
X53806411Y-41443589D03*
D12*
X127181400Y-161056200D03*
X127181400Y-160096200D03*
D22*
X72093000Y-78421218D03*
X72093000Y-76488782D03*
D40*
X196840947Y-61137800D03*
X202181053Y-61137800D03*
D90*
X56031687Y-153609038D03*
X56031687Y-155508962D03*
X58501841Y-154559000D03*
D52*
X139623800Y-175717200D03*
X139623800Y-174447200D03*
X139623800Y-173177200D03*
X139623800Y-171907200D03*
X139623800Y-170637200D03*
X139623800Y-169367200D03*
X139623800Y-168097200D03*
X139623800Y-166827200D03*
X139623800Y-165557200D03*
X139623800Y-164287200D03*
X130323800Y-164287200D03*
X130323800Y-165557200D03*
X130323800Y-166827200D03*
X130323800Y-168097200D03*
X130323800Y-169367200D03*
X130323800Y-170637200D03*
X130323800Y-171907200D03*
X130323800Y-173177200D03*
X130323800Y-174447200D03*
X130323800Y-175717200D03*
D14*
X254609600Y-245668800D03*
X254609600Y-244648800D03*
D91*
X103114600Y-97405311D03*
X103835848Y-98126559D03*
D14*
X82372200Y-137541000D03*
X82372200Y-136521000D03*
D12*
X88493600Y-159557600D03*
X88493600Y-158597600D03*
D34*
X229426102Y-65963800D03*
X231825898Y-65963800D03*
D84*
X156258500Y-174178000D03*
X156258500Y-172278000D03*
X154383500Y-173228000D03*
D19*
X177159000Y-42887600D03*
X177159000Y-44437600D03*
D10*
X56259000Y-49149000D03*
X57279000Y-49149000D03*
D86*
X81026000Y-155867600D03*
X81026000Y-157517600D03*
D11*
X56289000Y-46992000D03*
X57249000Y-46992000D03*
X234927200Y-223215200D03*
X235887200Y-223215200D03*
D92*
X85518089Y-54689003D03*
X82978084Y-54689003D03*
X80438079Y-54689003D03*
X85518267Y-42086005D03*
X82978084Y-42086259D03*
X80438079Y-42086259D03*
D93*
X89068178Y-47591974D03*
X89068178Y-50292000D03*
X74168000Y-47591974D03*
X74168000Y-50292000D03*
D14*
X246049800Y-245670800D03*
X246049800Y-244650800D03*
X224242900Y-118543800D03*
X224242900Y-117523800D03*
D40*
X181353053Y-53949600D03*
X176012947Y-53949600D03*
D11*
X63020000Y-57023000D03*
X63980000Y-57023000D03*
D14*
X57912000Y-58803000D03*
X57912000Y-57783000D03*
D11*
X239550000Y-218694000D03*
X240510000Y-218694000D03*
D30*
X225947000Y-112354400D03*
X225947000Y-114254400D03*
X227822000Y-113304400D03*
D18*
X111455200Y-123769900D03*
X111455200Y-124789900D03*
D14*
X249301000Y-245670800D03*
X249301000Y-244650800D03*
D10*
X145542000Y-63500000D03*
X146562000Y-63500000D03*
D29*
X61409076Y-37084000D03*
X57208924Y-37084000D03*
D10*
X199535800Y-100300000D03*
X200555800Y-100300000D03*
D18*
X82372200Y-138476800D03*
X82372200Y-139496800D03*
X253796800Y-213838600D03*
X253796800Y-214858600D03*
D44*
X262511000Y-236778800D03*
X261491000Y-236778800D03*
D14*
X230161100Y-123041600D03*
X230161100Y-122021600D03*
D94*
X55330411Y-39919589D03*
X54651589Y-40598411D03*
D95*
X45466000Y-180909500D03*
X45466000Y-183834500D03*
D10*
X43176000Y-35179000D03*
X44196000Y-35179000D03*
D23*
X55598000Y-58801000D03*
X54638000Y-58801000D03*
D96*
X105338635Y-98054546D03*
X104659813Y-97375724D03*
D16*
X238099600Y-103761000D03*
D17*
X238099600Y-101221000D03*
X238099600Y-98681000D03*
D97*
X113780000Y-110560000D03*
D38*
X241154200Y-214630000D03*
D98*
X242154200Y-214630000D03*
X243154200Y-214630000D03*
X244154200Y-214630000D03*
X245154200Y-214630000D03*
X246154200Y-214630000D03*
D62*
X98917800Y-121896900D03*
X97017800Y-121896900D03*
X97967800Y-123771900D03*
D82*
X188960853Y-43688000D03*
X190610853Y-43688000D03*
D15*
X208991200Y-90604400D03*
X208991200Y-91564400D03*
D55*
X92400000Y-229984000D03*
X165550000Y-229984000D03*
D56*
X80750000Y-228734000D03*
D57*
X81750000Y-226734000D03*
X82750000Y-228734000D03*
X83750000Y-226734000D03*
X84750000Y-228734000D03*
X85750000Y-226734000D03*
X86750000Y-228734000D03*
X87750000Y-226734000D03*
X88750000Y-228734000D03*
X89750000Y-226734000D03*
X90750000Y-228734000D03*
X93750000Y-226734000D03*
X94750000Y-228734000D03*
X95750000Y-226734000D03*
X96750000Y-228734000D03*
X97750000Y-226734000D03*
X98750000Y-228734000D03*
X99750000Y-226734000D03*
X100750000Y-228734000D03*
X101750000Y-226734000D03*
X102750000Y-228734000D03*
X103750000Y-226734000D03*
X104750000Y-228734000D03*
X105750000Y-226734000D03*
X106750000Y-228734000D03*
X107750000Y-226734000D03*
X108750000Y-228734000D03*
X109750000Y-226734000D03*
X110750000Y-228734000D03*
X111750000Y-226734000D03*
X112750000Y-228734000D03*
X113750000Y-226734000D03*
X114750000Y-228734000D03*
X115750000Y-226734000D03*
X116750000Y-228734000D03*
X117750000Y-226734000D03*
X118750000Y-228734000D03*
X119750000Y-226734000D03*
X120750000Y-228734000D03*
X121750000Y-226734000D03*
X122750000Y-228734000D03*
X123750000Y-226734000D03*
X124750000Y-228734000D03*
X125750000Y-226734000D03*
X126750000Y-228734000D03*
X127750000Y-226734000D03*
X128750000Y-228734000D03*
X129750000Y-226734000D03*
X130750000Y-228734000D03*
X131750000Y-226734000D03*
X132750000Y-228734000D03*
X133750000Y-226734000D03*
X134750000Y-228734000D03*
X135750000Y-226734000D03*
X136750000Y-228734000D03*
X137750000Y-226734000D03*
X138750000Y-228734000D03*
X139750000Y-226734000D03*
X140750000Y-228734000D03*
X141750000Y-226734000D03*
X142750000Y-228734000D03*
X143750000Y-226734000D03*
X144750000Y-228734000D03*
X145750000Y-226734000D03*
X146750000Y-228734000D03*
X147750000Y-226734000D03*
X148750000Y-228734000D03*
X149750000Y-226734000D03*
X150750000Y-228734000D03*
X151750000Y-226734000D03*
X152750000Y-228734000D03*
X153750000Y-226734000D03*
X154750000Y-228734000D03*
X155750000Y-226734000D03*
X156750000Y-228734000D03*
X157750000Y-226734000D03*
X158750000Y-228734000D03*
X159750000Y-226734000D03*
X160750000Y-228734000D03*
X161750000Y-226734000D03*
X162750000Y-228734000D03*
X163750000Y-226734000D03*
X80750000Y-231234000D03*
X81750000Y-233234000D03*
X82750000Y-231234000D03*
X83750000Y-233234000D03*
X84750000Y-231234000D03*
X85750000Y-233234000D03*
X86750000Y-231234000D03*
X87750000Y-233234000D03*
X88750000Y-231234000D03*
X89750000Y-233234000D03*
X90750000Y-231234000D03*
X93750000Y-233234000D03*
X94750000Y-231234000D03*
X95750000Y-233234000D03*
X96750000Y-231234000D03*
X97750000Y-233234000D03*
X98750000Y-231234000D03*
X99750000Y-233234000D03*
X100750000Y-231234000D03*
X101750000Y-233234000D03*
X102750000Y-231234000D03*
X103750000Y-233234000D03*
X104750000Y-231234000D03*
X105750000Y-233234000D03*
X106750000Y-231234000D03*
X107750000Y-233234000D03*
X108750000Y-231234000D03*
X109750000Y-233234000D03*
X110750000Y-231234000D03*
X111750000Y-233234000D03*
X112750000Y-231234000D03*
X113750000Y-233234000D03*
X114750000Y-231234000D03*
X115750000Y-233234000D03*
X116750000Y-231234000D03*
X117750000Y-233234000D03*
X118750000Y-231234000D03*
X119750000Y-233234000D03*
X120750000Y-231234000D03*
X121750000Y-233234000D03*
X122750000Y-231234000D03*
X123750000Y-233234000D03*
X124750000Y-231234000D03*
X125750000Y-233234000D03*
X126750000Y-231234000D03*
X127750000Y-233234000D03*
X128750000Y-231234000D03*
X129750000Y-233234000D03*
X130750000Y-231234000D03*
X131750000Y-233234000D03*
X132750000Y-231234000D03*
X133750000Y-233234000D03*
X134750000Y-231234000D03*
X135750000Y-233234000D03*
X136750000Y-231234000D03*
X137750000Y-233234000D03*
X138750000Y-231234000D03*
X139750000Y-233234000D03*
X140750000Y-231234000D03*
X141750000Y-233234000D03*
X142750000Y-231234000D03*
X143750000Y-233234000D03*
X144750000Y-231234000D03*
X145750000Y-233234000D03*
X146750000Y-231234000D03*
X147750000Y-233234000D03*
X148750000Y-231234000D03*
X149750000Y-233234000D03*
X150750000Y-231234000D03*
X151750000Y-233234000D03*
X152750000Y-231234000D03*
X153750000Y-233234000D03*
X154750000Y-231234000D03*
X155750000Y-233234000D03*
X156750000Y-231234000D03*
X157750000Y-233234000D03*
X158750000Y-231234000D03*
X159750000Y-233234000D03*
X160750000Y-231234000D03*
X161750000Y-233234000D03*
X162750000Y-231234000D03*
X163750000Y-233234000D03*
D53*
X197400000Y-33530000D03*
X198278680Y-31408680D03*
X198278680Y-35651320D03*
X200400000Y-30530000D03*
D54*
X200400000Y-33530000D03*
D53*
X200400000Y-36530000D03*
X202521320Y-31408680D03*
X202521320Y-35651320D03*
X203400000Y-33530000D03*
D18*
X252780800Y-213838600D03*
X252780800Y-214858600D03*
D24*
X195764000Y-45466000D03*
X194114000Y-45466000D03*
D10*
X97026000Y-120190500D03*
X98046000Y-120190500D03*
D44*
X64010000Y-54991000D03*
X62990000Y-54991000D03*
D15*
X89560400Y-148745000D03*
X89560400Y-149705000D03*
D14*
X98755200Y-237494000D03*
X98755200Y-236474000D03*
D38*
X84815800Y-116814600D03*
D98*
X85815800Y-116814600D03*
X86815800Y-116814600D03*
X87815800Y-116814600D03*
X88815800Y-116814600D03*
X89815800Y-116814600D03*
X90815800Y-116814600D03*
X91815800Y-116814600D03*
D62*
X93380600Y-121896900D03*
X91480600Y-121896900D03*
X92430600Y-123771900D03*
D15*
X53975000Y-48542000D03*
X53975000Y-49502000D03*
D11*
X72976800Y-103403400D03*
X73936800Y-103403400D03*
D99*
X266224105Y-48361604D03*
X266224105Y-47091601D03*
X266224105Y-45821599D03*
X266224105Y-44551596D03*
X260813895Y-44551596D03*
X260813895Y-45821599D03*
X260813895Y-47091601D03*
X260813895Y-48361604D03*
D22*
X82042000Y-78410818D03*
X82042000Y-76478382D03*
D18*
X249504200Y-215898000D03*
X249504200Y-216918000D03*
D15*
X65532000Y-50701000D03*
X65532000Y-51661000D03*
D18*
X157962600Y-167452000D03*
X157962600Y-168472000D03*
D11*
X73942000Y-101346000D03*
X74902000Y-101346000D03*
D12*
X251053600Y-240309400D03*
X251053600Y-239349400D03*
D23*
X256816800Y-222808800D03*
X255856800Y-222808800D03*
D53*
X197400000Y-236730000D03*
X198278680Y-234608680D03*
X198278680Y-238851320D03*
X200400000Y-233730000D03*
D54*
X200400000Y-236730000D03*
D53*
X200400000Y-239730000D03*
X202521320Y-234608680D03*
X202521320Y-238851320D03*
X203400000Y-236730000D03*
D44*
X75688000Y-216918000D03*
X74668000Y-216918000D03*
D20*
X161919000Y-47003000D03*
X161919000Y-45453000D03*
D100*
X244832033Y-252687706D03*
X245781995Y-252687706D03*
X246731957Y-252687706D03*
X246731957Y-250087756D03*
X244832033Y-250087756D03*
D29*
X103903276Y-107061000D03*
X99703124Y-107061000D03*
D44*
X262511000Y-232308400D03*
X261491000Y-232308400D03*
D99*
X127713929Y-241345845D03*
X127713929Y-240075842D03*
X127713929Y-238805840D03*
X127713929Y-237535837D03*
X122303719Y-237535837D03*
X122303719Y-238805840D03*
X122303719Y-240075842D03*
X122303719Y-241345845D03*
D65*
X246393000Y-248412000D03*
X244843000Y-248412000D03*
D18*
X92069000Y-42797000D03*
X92069000Y-43817000D03*
D11*
X76975000Y-73821782D03*
X77935000Y-73821782D03*
D12*
X253085600Y-240309400D03*
X253085600Y-239349400D03*
D15*
X84074000Y-62484000D03*
X84074000Y-63444000D03*
D29*
X48572924Y-37084000D03*
X52773076Y-37084000D03*
D12*
X232791000Y-237972600D03*
X232791000Y-237012600D03*
D101*
X121180000Y-79560000D03*
D82*
X251899000Y-93474000D03*
X253549000Y-93474000D03*
D23*
X70033000Y-72805782D03*
X69073000Y-72805782D03*
D10*
X143244024Y-241345841D03*
X144264024Y-241345841D03*
D15*
X141654000Y-165864600D03*
X141654000Y-166824600D03*
D11*
X260555800Y-159308800D03*
X261515800Y-159308800D03*
D102*
X59012076Y-43472987D03*
X56811924Y-43472987D03*
X56811924Y-45173013D03*
X59012076Y-45173013D03*
D11*
X71740000Y-74837782D03*
X72700000Y-74837782D03*
D34*
X76764898Y-93345000D03*
X74365102Y-93345000D03*
D15*
X141654000Y-168404600D03*
X141654000Y-169364600D03*
D18*
X62611000Y-48512000D03*
X62611000Y-49532000D03*
D23*
X75367000Y-72805782D03*
X74407000Y-72805782D03*
D10*
X91488800Y-120190500D03*
X92508800Y-120190500D03*
D16*
X53208000Y-163601400D03*
D17*
X55748000Y-163601400D03*
D14*
X230149400Y-103864600D03*
X230149400Y-102844600D03*
D53*
X65320000Y-33530000D03*
X66198680Y-31408680D03*
X66198680Y-35651320D03*
X68320000Y-30530000D03*
D54*
X68320000Y-33530000D03*
D53*
X68320000Y-36530000D03*
X70441320Y-31408680D03*
X70441320Y-35651320D03*
X71320000Y-33530000D03*
D44*
X75688000Y-208409000D03*
X74668000Y-208409000D03*
D12*
X255168400Y-240837600D03*
X255168400Y-239877600D03*
D15*
X87757000Y-69342000D03*
X87757000Y-70302000D03*
D23*
X259864800Y-223570800D03*
X258904800Y-223570800D03*
D11*
X70944800Y-54660800D03*
X71904800Y-54660800D03*
D25*
X64720218Y-44450000D03*
X62787782Y-44450000D03*
D12*
X256159000Y-240837600D03*
X256159000Y-239877600D03*
D44*
X92000800Y-112826800D03*
X90980800Y-112826800D03*
D99*
X235744105Y-48361604D03*
X235744105Y-47091601D03*
X235744105Y-45821599D03*
X235744105Y-44551596D03*
X230333895Y-44551596D03*
X230333895Y-45821599D03*
X230333895Y-47091601D03*
X230333895Y-48361604D03*
D44*
X262509000Y-227380800D03*
X261489000Y-227380800D03*
D11*
X97919600Y-94335600D03*
X98879600Y-94335600D03*
X244553800Y-240360200D03*
X245513800Y-240360200D03*
D19*
X250183998Y-134713130D03*
X250183998Y-136263130D03*
D18*
X123901200Y-135255000D03*
X123901200Y-136275000D03*
D63*
X267944600Y-88440000D03*
X274444472Y-88440000D03*
X267944600Y-91440000D03*
X274444472Y-91440000D03*
D10*
X199535800Y-99284000D03*
X200555800Y-99284000D03*
D31*
X220593000Y-63200000D03*
X220593000Y-64830000D03*
D23*
X266316400Y-218795600D03*
X265356400Y-218795600D03*
D65*
X259595000Y-133923500D03*
X258045000Y-133923500D03*
D12*
X247484900Y-240792000D03*
X247484900Y-239832000D03*
D23*
X70033000Y-73821782D03*
X69073000Y-73821782D03*
D11*
X81661000Y-31877000D03*
X82621000Y-31877000D03*
X239550000Y-221742000D03*
X240510000Y-221742000D03*
D23*
X75367000Y-74837782D03*
X74407000Y-74837782D03*
D10*
X255445800Y-220548200D03*
X256465800Y-220548200D03*
D103*
X45665873Y-36460936D03*
X45266127Y-36460936D03*
D104*
X44715962Y-36611000D03*
X44715962Y-37011102D03*
X44715962Y-37410848D03*
X44715962Y-37810949D03*
D103*
X45266127Y-37961038D03*
X45665873Y-37961038D03*
D104*
X46216038Y-37810949D03*
X46216038Y-37410848D03*
X46216038Y-37011102D03*
X46216038Y-36611000D03*
D12*
X104419400Y-159560200D03*
X104419400Y-158600200D03*
D40*
X257800947Y-61137800D03*
X263141053Y-61137800D03*
D11*
X97919600Y-93319600D03*
X98879600Y-93319600D03*
D105*
X65209000Y-77250500D03*
X67109000Y-77250500D03*
X66159000Y-75375500D03*
D18*
X94843600Y-123769900D03*
X94843600Y-124789900D03*
D14*
X224231200Y-123989600D03*
X224231200Y-122969600D03*
D12*
X58191400Y-95958600D03*
X58191400Y-94998600D03*
D15*
X83693000Y-32131000D03*
X83693000Y-33091000D03*
D14*
X237814200Y-228475000D03*
X237814200Y-227455000D03*
D106*
X269488000Y-266702000D03*
D18*
X90754200Y-195834000D03*
X90754200Y-196854000D03*
D12*
X234772200Y-237972600D03*
X234772200Y-237012600D03*
D70*
X220593000Y-53949594D03*
X220593000Y-59791606D03*
D10*
X108098400Y-120190500D03*
X109118400Y-120190500D03*
D82*
X219440853Y-43688000D03*
X221090853Y-43688000D03*
D107*
X49276000Y-30450407D03*
X49276000Y-32795593D03*
D22*
X69680000Y-78421218D03*
X69680000Y-76488782D03*
D65*
X259976000Y-111635000D03*
X258426000Y-111635000D03*
D30*
X225935300Y-102912600D03*
X225935300Y-104812600D03*
X227810300Y-103862600D03*
D108*
X127706000Y-209619600D03*
D32*
X45935863Y-41838854D03*
X45935863Y-44338727D03*
X45935863Y-46338727D03*
X45935863Y-48838854D03*
X43735964Y-41838854D03*
X43735964Y-44338727D03*
X43735964Y-46338727D03*
X43735964Y-48838854D03*
D109*
X42186053Y-51738778D03*
X42186053Y-38938676D03*
D12*
X257403600Y-238732000D03*
X257403600Y-237772000D03*
D84*
X156260800Y-169352000D03*
X156260800Y-167452000D03*
X154385800Y-168402000D03*
D12*
X207949800Y-94000200D03*
X207949800Y-93040200D03*
D23*
X95704600Y-108026200D03*
X94744600Y-108026200D03*
D86*
X160141000Y-45403000D03*
X160141000Y-47053000D03*
D110*
X40855873Y-29866035D03*
X40866034Y-35665883D03*
D111*
X41356000Y-28445918D03*
D112*
X37205886Y-28445918D03*
D111*
X41356000Y-37086000D03*
D112*
X37205886Y-37086000D03*
D113*
X42026054Y-29565807D03*
X42026054Y-30365908D03*
D114*
X42026054Y-31516023D03*
X42026054Y-32516023D03*
X42026054Y-33015895D03*
X42026054Y-34015895D03*
D113*
X42026054Y-35965857D03*
X42026054Y-35166010D03*
D114*
X42026054Y-34516023D03*
X42026054Y-33516023D03*
X42026054Y-32015895D03*
X42026054Y-31015895D03*
D29*
X137312400Y-144043400D03*
X141512552Y-144043400D03*
D16*
X238111300Y-118389400D03*
D17*
X238111300Y-115849400D03*
X238111300Y-113309400D03*
D18*
X157960300Y-157537000D03*
X157960300Y-158557000D03*
D41*
X233959400Y-129693400D03*
D115*
X239039400Y-127533400D03*
D116*
X236499400Y-127533400D03*
X233959400Y-127533400D03*
X231419400Y-127533400D03*
D117*
X42926000Y-183848800D03*
X42926000Y-180898800D03*
D58*
X39744995Y-164800008D03*
X39744995Y-152200058D03*
D118*
X42285000Y-162070010D03*
X44064782Y-161049944D03*
X42285000Y-160030132D03*
X44064782Y-159010066D03*
X42285000Y-157990000D03*
X44064782Y-156969934D03*
X42285000Y-155950122D03*
X44064782Y-154930056D03*
D119*
X43174764Y-150449995D03*
X43174764Y-166550071D03*
D82*
X258376000Y-113286000D03*
X260026000Y-113286000D03*
D10*
X84935600Y-151638000D03*
X85955600Y-151638000D03*
D84*
X156258500Y-159446000D03*
X156258500Y-157546000D03*
X154383500Y-158496000D03*
D40*
X166360947Y-61137800D03*
X171701053Y-61137800D03*
D68*
X260096000Y-219811600D03*
D120*
X39778000Y-133479000D03*
X49778000Y-133479000D03*
X59778000Y-133479000D03*
D121*
X62577847Y-133479000D03*
X67277873Y-133479000D03*
X69778000Y-133479000D03*
X72277873Y-133479000D03*
X76877822Y-135808946D03*
X76877822Y-140609048D03*
X76877822Y-145409150D03*
D120*
X74778000Y-147728936D03*
D121*
X72277873Y-147728936D03*
X67277873Y-147728936D03*
D120*
X64778000Y-147728936D03*
D121*
X62577847Y-147728936D03*
D120*
X54778000Y-147728936D03*
X44778000Y-147728936D03*
X39778000Y-142059137D03*
X59778000Y-144559010D03*
X59778000Y-139158959D03*
D40*
X211833053Y-53949600D03*
X206492947Y-53949600D03*
D44*
X64010000Y-56007000D03*
X62990000Y-56007000D03*
D61*
X81026000Y-153098000D03*
X81026000Y-151448000D03*
D62*
X117155000Y-133380000D03*
X115255000Y-133380000D03*
X116205000Y-135255000D03*
D23*
X258848800Y-226618800D03*
X257888800Y-226618800D03*
D44*
X122836400Y-119735600D03*
X121816400Y-119735600D03*
D68*
X100406200Y-236984000D03*
D14*
X248285000Y-245668800D03*
X248285000Y-244648800D03*
D12*
X254076200Y-240309400D03*
X254076200Y-239349400D03*
D10*
X127252000Y-171907200D03*
X128272000Y-171907200D03*
D99*
X270789410Y-217195408D03*
X270789410Y-215925405D03*
X270789410Y-214655403D03*
X270789410Y-213385400D03*
X265379200Y-213385400D03*
X265379200Y-214655403D03*
X265379200Y-215925405D03*
X265379200Y-217195408D03*
D23*
X247495000Y-242290600D03*
X246535000Y-242290600D03*
D106*
X42920000Y-266702000D03*
D44*
X265230800Y-235051600D03*
X264210800Y-235051600D03*
D24*
X226244000Y-45466000D03*
X224594000Y-45466000D03*
D62*
X127721400Y-133377700D03*
X125821400Y-133377700D03*
X126771400Y-135252700D03*
D14*
X253339600Y-245668800D03*
X253339600Y-244648800D03*
D44*
X265228800Y-230428800D03*
X264208800Y-230428800D03*
D29*
X51874924Y-30480000D03*
X56075076Y-30480000D03*
D14*
X85719000Y-196854000D03*
X85719000Y-195834000D03*
D86*
X221101000Y-45403000D03*
X221101000Y-47053000D03*
D11*
X71740000Y-72805782D03*
X72700000Y-72805782D03*
D12*
X77368400Y-114904400D03*
X77368400Y-113944400D03*
D14*
X224242900Y-113362200D03*
X224242900Y-112342200D03*
D11*
X71740000Y-73821782D03*
X72700000Y-73821782D03*
D10*
X108762800Y-100812600D03*
X109782800Y-100812600D03*
D49*
X69844000Y-181107053D03*
X69844000Y-175766947D03*
D12*
X88392000Y-112849600D03*
X88392000Y-111889600D03*
D106*
X269488000Y-60200000D03*
D23*
X82550000Y-74041000D03*
X81590000Y-74041000D03*
D68*
X260096000Y-215646000D03*
D34*
X198946102Y-65963800D03*
X201345898Y-65963800D03*
D10*
X103579200Y-102362000D03*
X104599200Y-102362000D03*
D25*
X87834218Y-65151000D03*
X85901782Y-65151000D03*
D108*
X147706000Y-209619600D03*
D44*
X265228800Y-231597200D03*
X264208800Y-231597200D03*
D34*
X98755200Y-239143000D03*
X101154996Y-239143000D03*
D82*
X251905000Y-91440000D03*
X253555000Y-91440000D03*
D10*
X248484200Y-214934800D03*
X249504200Y-214934800D03*
D70*
X190113000Y-53949594D03*
X190113000Y-59791606D03*
D11*
X81407000Y-142316200D03*
X82367000Y-142316200D03*
D18*
X245307200Y-219555600D03*
X245307200Y-220575600D03*
D70*
X159633000Y-53949594D03*
X159633000Y-59791606D03*
D23*
X258848800Y-227634800D03*
X257888800Y-227634800D03*
D122*
X260344000Y-148973000D03*
X260344000Y-147073076D03*
X258344000Y-148023038D03*
D44*
X75688000Y-209425000D03*
X74668000Y-209425000D03*
D90*
X56031688Y-156911038D03*
X56031688Y-158810962D03*
X58501842Y-157861000D03*
D11*
X244553800Y-239344200D03*
X245513800Y-239344200D03*
X97919600Y-95478600D03*
X98879600Y-95478600D03*
D14*
X84576000Y-237494000D03*
X84576000Y-236474000D03*
D12*
X233781600Y-237970000D03*
X233781600Y-237010000D03*
D16*
X162407600Y-121666000D03*
D17*
X159867600Y-121666000D03*
X157327600Y-121666000D03*
X154787600Y-121666000D03*
X152247600Y-121666000D03*
D10*
X196104800Y-99284000D03*
X197124800Y-99284000D03*
D18*
X233984800Y-242263200D03*
X233984800Y-243283200D03*
D34*
X259909155Y-65963800D03*
X262308951Y-65963800D03*
D10*
X143242024Y-240075841D03*
X144262024Y-240075841D03*
X95224600Y-105333800D03*
X96244600Y-105333800D03*
D11*
X95074800Y-88950800D03*
X96034800Y-88950800D03*
D68*
X260096000Y-217728800D03*
D123*
X45726989Y-72585064D03*
X45726989Y-72084937D03*
X45726989Y-71585064D03*
X45726989Y-71084937D03*
X45726989Y-70585064D03*
X45726989Y-70084937D03*
X45726989Y-69585064D03*
X45726989Y-69084937D03*
X45726989Y-68585064D03*
X45726989Y-68084937D03*
X45726989Y-67585064D03*
X45726989Y-67084937D03*
X45726989Y-66585064D03*
X45726989Y-66084937D03*
X45726989Y-65585064D03*
X45726989Y-65084937D03*
X45726989Y-64585064D03*
X45726989Y-64084937D03*
X45726989Y-63585064D03*
D124*
X44967019Y-60835000D03*
D125*
X38967019Y-60835000D03*
D124*
X44967019Y-75335128D03*
D125*
X38967019Y-75335128D03*
D24*
X261360000Y-152275000D03*
X259710000Y-152275000D03*
D30*
X225937600Y-122087600D03*
X225937600Y-123987600D03*
X227812600Y-123037600D03*
D79*
X63615024Y-61724000D03*
X70484976Y-61724000D03*
D62*
X104455000Y-121896900D03*
X102555000Y-121896900D03*
X103505000Y-123771900D03*
D18*
X66548000Y-50671000D03*
X66548000Y-51691000D03*
D65*
X229877000Y-49758600D03*
X228327000Y-49758600D03*
D11*
X79177000Y-72721218D03*
X80137000Y-72721218D03*
D18*
X79400400Y-141298200D03*
X79400400Y-142318200D03*
D10*
X267508800Y-211988400D03*
X268528800Y-211988400D03*
D30*
X225937600Y-97705600D03*
X225937600Y-99605600D03*
X227812600Y-98655600D03*
D11*
X95074800Y-89966800D03*
X96034800Y-89966800D03*
D44*
X72087200Y-100253800D03*
X71067200Y-100253800D03*
D15*
X88900000Y-69342000D03*
X88900000Y-70302000D03*
D31*
X251073000Y-63200000D03*
X251073000Y-64830000D03*
D10*
X125829600Y-131673600D03*
X126849600Y-131673600D03*
D44*
X262513000Y-235661200D03*
X261493000Y-235661200D03*
X254814800Y-212877400D03*
X253794800Y-212877400D03*
D82*
X158480853Y-43688000D03*
X160130853Y-43688000D03*
D10*
X108760800Y-98323400D03*
X109780800Y-98323400D03*
D11*
X81409600Y-143306800D03*
X82369600Y-143306800D03*
D12*
X89560400Y-159557600D03*
X89560400Y-158597600D03*
D29*
X92125800Y-143230600D03*
X96325952Y-143230600D03*
D61*
X125171200Y-157162000D03*
X125171200Y-155512000D03*
D25*
X126034018Y-167210749D03*
X124101582Y-167210749D03*
D12*
X128065000Y-166519800D03*
X128065000Y-165559800D03*
D126*
X226611073Y-81102225D03*
X206611327Y-81102225D03*
D11*
X76177200Y-110388400D03*
X77137200Y-110388400D03*
D97*
X193780000Y-110560000D03*
D82*
X249931000Y-43675600D03*
X251581000Y-43675600D03*
D10*
X127252000Y-155016200D03*
X128272000Y-155016200D03*
D18*
X256844800Y-211884800D03*
X256844800Y-212904800D03*
D20*
X258439000Y-46990600D03*
X258439000Y-45440600D03*
D18*
X80416400Y-143304800D03*
X80416400Y-144324800D03*
D34*
X267425854Y-229795800D03*
X269825650Y-229795800D03*
D12*
X58191400Y-115237200D03*
X58191400Y-114277200D03*
D23*
X258848800Y-228650800D03*
X257888800Y-228650800D03*
D20*
X222879000Y-47003000D03*
X222879000Y-45453000D03*
D14*
X85719000Y-237494000D03*
X85719000Y-236474000D03*
D11*
X73942000Y-102336600D03*
X74902000Y-102336600D03*
D53*
X269790000Y-33530000D03*
X270668680Y-31408680D03*
X270668680Y-35651320D03*
X272790000Y-30530000D03*
D54*
X272790000Y-33530000D03*
D53*
X272790000Y-36530000D03*
X274911320Y-31408680D03*
X274911320Y-35651320D03*
X275790000Y-33530000D03*
D14*
X79400400Y-144324800D03*
X79400400Y-143304800D03*
D53*
X42460000Y-236730000D03*
X43338680Y-234608680D03*
X43338680Y-238851320D03*
X45460000Y-233730000D03*
D54*
X45460000Y-236730000D03*
D53*
X45460000Y-239730000D03*
X47581320Y-234608680D03*
X47581320Y-238851320D03*
X48460000Y-236730000D03*
D10*
X123391200Y-117602000D03*
X124411200Y-117602000D03*
D49*
X62605000Y-240282947D03*
X62605000Y-245623053D03*
D68*
X171805600Y-123063000D03*
D69*
X173075600Y-123063000D03*
X174345600Y-123063000D03*
X175615600Y-123063000D03*
X176885600Y-123063000D03*
X178155600Y-123063000D03*
X179425600Y-123063000D03*
X180695600Y-123063000D03*
X181965600Y-123063000D03*
D15*
X141659400Y-151513600D03*
X141659400Y-152473600D03*
X142802400Y-154053600D03*
X142802400Y-155013600D03*
X84836000Y-32131000D03*
X84836000Y-33091000D03*
D105*
X61407000Y-77282500D03*
X63307000Y-77282500D03*
X62357000Y-75407500D03*
D23*
X258848800Y-224586800D03*
X257888800Y-224586800D03*
D11*
X234927200Y-224231200D03*
X235887200Y-224231200D03*
D23*
X57757000Y-60452000D03*
X56797000Y-60452000D03*
X82550000Y-72009000D03*
X81590000Y-72009000D03*
D11*
X95074800Y-91084400D03*
X96034800Y-91084400D03*
D15*
X84988400Y-91976000D03*
X84988400Y-92936000D03*
D14*
X87020400Y-114532600D03*
X87020400Y-113512600D03*
D25*
X126038400Y-150291800D03*
X124105964Y-150291800D03*
D10*
X95220600Y-104140000D03*
X96240600Y-104140000D03*
X267514800Y-210972400D03*
X268534800Y-210972400D03*
D16*
X227609400Y-94921800D03*
D17*
X230149400Y-94921800D03*
X232689400Y-94921800D03*
D16*
X53208000Y-170484800D03*
D17*
X55748000Y-170484800D03*
D11*
X76975000Y-74837782D03*
X77935000Y-74837782D03*
D40*
X227320947Y-61137800D03*
X232661053Y-61137800D03*
D18*
X71932800Y-42085800D03*
X71932800Y-43105800D03*
D23*
X272387000Y-155448000D03*
X271427000Y-155448000D03*
D44*
X80418400Y-134391400D03*
X79398400Y-134391400D03*
D127*
X259582008Y-115596836D03*
X258312005Y-115596836D03*
X257042003Y-115596836D03*
X255772000Y-115596836D03*
X254501997Y-115596836D03*
X253231995Y-115596836D03*
X251961992Y-115596836D03*
X251961992Y-121135063D03*
X253231995Y-121135063D03*
X254501997Y-121135063D03*
X255772000Y-121135063D03*
X257042003Y-121135063D03*
X258312005Y-121135063D03*
X259582008Y-121135063D03*
D15*
X86106000Y-62484000D03*
X86106000Y-63444000D03*
D23*
X75367000Y-73821782D03*
X74407000Y-73821782D03*
D10*
X245307200Y-218543600D03*
X246327200Y-218543600D03*
X144526000Y-62357000D03*
X145546000Y-62357000D03*
D49*
X62605000Y-181107053D03*
X62605000Y-175766947D03*
D86*
X190621000Y-45403000D03*
X190621000Y-47053000D03*
D78*
X87497000Y-182557898D03*
X87497000Y-180158102D03*
D15*
X119370024Y-240385601D03*
X119370024Y-241345601D03*
D14*
X224231200Y-98708400D03*
X224231200Y-97688400D03*
D11*
X76357000Y-34556422D03*
X77317000Y-34556422D03*
D101*
X186380000Y-79560000D03*
D79*
X165088024Y-53949600D03*
X171957976Y-53949600D03*
D105*
X197068400Y-90751900D03*
X198968400Y-90751900D03*
X198018400Y-88876900D03*
D11*
X235886400Y-228475000D03*
X236846400Y-228475000D03*
D23*
X95704600Y-107010200D03*
X94744600Y-107010200D03*
D14*
X152677100Y-158482800D03*
X152677100Y-157462800D03*
X84988400Y-113436400D03*
X84988400Y-112416400D03*
D23*
X259864800Y-222554800D03*
X258904800Y-222554800D03*
D15*
X46228000Y-34572000D03*
X46228000Y-35532000D03*
D44*
X71932800Y-55676800D03*
X70912800Y-55676800D03*
D23*
X258848800Y-229666800D03*
X257888800Y-229666800D03*
D86*
X251581000Y-45390600D03*
X251581000Y-47040600D03*
D11*
X233454000Y-227025200D03*
X234414000Y-227025200D03*
D62*
X122438200Y-133377700D03*
X120538200Y-133377700D03*
X121488200Y-135252700D03*
D12*
X79603600Y-114907000D03*
X79603600Y-113947000D03*
D24*
X265823200Y-91440000D03*
X264173200Y-91440000D03*
D11*
X234927200Y-233680000D03*
X235887200Y-233680000D03*
D86*
X253739998Y-134675330D03*
X253739998Y-136325330D03*
D16*
X107213400Y-128549400D03*
D17*
X104673400Y-128549400D03*
X102133400Y-128549400D03*
X99593400Y-128549400D03*
X97053400Y-128549400D03*
X94513400Y-128549400D03*
D14*
X236626400Y-245670800D03*
X236626400Y-244650800D03*
D15*
X131927600Y-240388200D03*
X131927600Y-241348200D03*
D99*
X174784105Y-48361604D03*
X174784105Y-47091601D03*
X174784105Y-45821599D03*
X174784105Y-44551596D03*
X169373895Y-44551596D03*
X169373895Y-45821599D03*
X169373895Y-47091601D03*
X169373895Y-48361604D03*
D44*
X262513000Y-231190800D03*
X261493000Y-231190800D03*
D84*
X212771200Y-93990200D03*
X212771200Y-92090200D03*
X210896200Y-93040200D03*
D108*
X109706000Y-209619600D03*
D12*
X237998000Y-237970000D03*
X237998000Y-237010000D03*
D15*
X257911600Y-222633600D03*
X257911600Y-223593600D03*
D12*
X128070400Y-152168800D03*
X128070400Y-151208800D03*
D10*
X84935600Y-157327600D03*
X85955600Y-157327600D03*
D53*
X269790000Y-191010000D03*
X270668680Y-188888680D03*
X270668680Y-193131320D03*
X272790000Y-188010000D03*
D54*
X272790000Y-191010000D03*
D53*
X272790000Y-194010000D03*
X274911320Y-188888680D03*
X274911320Y-193131320D03*
X275790000Y-191010000D03*
D12*
X122101400Y-152168800D03*
X122101400Y-151208800D03*
X256387600Y-238732000D03*
X256387600Y-237772000D03*
D79*
X195568024Y-53949600D03*
X202437976Y-53949600D03*
D53*
X42460000Y-191010000D03*
X43338680Y-188888680D03*
X43338680Y-193131320D03*
X45460000Y-188010000D03*
D54*
X45460000Y-191010000D03*
D53*
X45460000Y-194010000D03*
X47581320Y-188888680D03*
X47581320Y-193131320D03*
X48460000Y-191010000D03*
D128*
X76555600Y-96133153D03*
X76555600Y-96532949D03*
X76555600Y-96933000D03*
X76555600Y-97333051D03*
X76555600Y-97733102D03*
X76555600Y-98133153D03*
X76555600Y-98532949D03*
X76555600Y-98933000D03*
X76555600Y-99333051D03*
X76555600Y-99733102D03*
X76555600Y-100133153D03*
X76555600Y-100532949D03*
X76555600Y-100933000D03*
X76555600Y-101333051D03*
X76555600Y-101733102D03*
X76555600Y-102133153D03*
X76555600Y-102532949D03*
X76555600Y-102933000D03*
X76555600Y-103333051D03*
X76555600Y-103733102D03*
X76555600Y-104133153D03*
X76555600Y-104532949D03*
X76555600Y-104933000D03*
X76555600Y-105333051D03*
X76555600Y-105733102D03*
X76555600Y-106133153D03*
X76555600Y-106532949D03*
X76555600Y-106933000D03*
X76555600Y-107333051D03*
X76555600Y-107733102D03*
X76555600Y-108133153D03*
X76555600Y-108532949D03*
D129*
X77985623Y-109962972D03*
X78385419Y-109962972D03*
X78785470Y-109962972D03*
X79185521Y-109962972D03*
X79585572Y-109962972D03*
X79985623Y-109962972D03*
X80385419Y-109962972D03*
X80785470Y-109962972D03*
X81185521Y-109962972D03*
X81585572Y-109962972D03*
X81985623Y-109962972D03*
X82385419Y-109962972D03*
X82785470Y-109962972D03*
X83185521Y-109962972D03*
X83585572Y-109962972D03*
X83985623Y-109962972D03*
X84385419Y-109962972D03*
X84785470Y-109962972D03*
X85185521Y-109962972D03*
X85585572Y-109962972D03*
X85985623Y-109962972D03*
X86385419Y-109962972D03*
X86785470Y-109962972D03*
X87185521Y-109962972D03*
X87585572Y-109962972D03*
X87985623Y-109962972D03*
X88385419Y-109962972D03*
X88785470Y-109962972D03*
X89185521Y-109962972D03*
X89585572Y-109962972D03*
X89985623Y-109962972D03*
X90385419Y-109962972D03*
D128*
X91815442Y-108532949D03*
X91815442Y-108133153D03*
X91815442Y-107733102D03*
X91815442Y-107333051D03*
X91815442Y-106933000D03*
X91815442Y-106532949D03*
X91815442Y-106133153D03*
X91815442Y-105733102D03*
X91815442Y-105333051D03*
X91815442Y-104933000D03*
X91815442Y-104532949D03*
X91815442Y-104133153D03*
X91815442Y-103733102D03*
X91815442Y-103333051D03*
X91815442Y-102933000D03*
X91815442Y-102532949D03*
X91815442Y-102133153D03*
X91815442Y-101733102D03*
X91815442Y-101333051D03*
X91815442Y-100933000D03*
X91815442Y-100532949D03*
X91815442Y-100133153D03*
X91815442Y-99733102D03*
X91815442Y-99333051D03*
X91815442Y-98933000D03*
X91815442Y-98532949D03*
X91815442Y-98133153D03*
X91815442Y-97733102D03*
X91815442Y-97333051D03*
X91815442Y-96933000D03*
X91815442Y-96532949D03*
X91815442Y-96133153D03*
D129*
X90385419Y-94703130D03*
X89985623Y-94703130D03*
X89585572Y-94703130D03*
X89185521Y-94703130D03*
X88785470Y-94703130D03*
X88385419Y-94703130D03*
X87985623Y-94703130D03*
X87585572Y-94703130D03*
X87185521Y-94703130D03*
X86785470Y-94703130D03*
X86385419Y-94703130D03*
X85985623Y-94703130D03*
X85585572Y-94703130D03*
X85185521Y-94703130D03*
X84785470Y-94703130D03*
X84385419Y-94703130D03*
X83985623Y-94703130D03*
X83585572Y-94703130D03*
X83185521Y-94703130D03*
X82785470Y-94703130D03*
X82385419Y-94703130D03*
X81985623Y-94703130D03*
X81585572Y-94703130D03*
X81185521Y-94703130D03*
X80785470Y-94703130D03*
X80385419Y-94703130D03*
X79985623Y-94703130D03*
X79585572Y-94703130D03*
X79185521Y-94703130D03*
X78785470Y-94703130D03*
X78385419Y-94703130D03*
X77985623Y-94703130D03*
D99*
X205264105Y-48361604D03*
X205264105Y-47091601D03*
X205264105Y-45821599D03*
X205264105Y-44551596D03*
X199853895Y-44551596D03*
X199853895Y-45821599D03*
X199853895Y-47091601D03*
X199853895Y-48361604D03*
D34*
X112000796Y-105740200D03*
X109601000Y-105740200D03*
D58*
X45533924Y-79609899D03*
X45533924Y-91039921D03*
D59*
X54423942Y-79605073D03*
X51883937Y-80875075D03*
X54423942Y-82145078D03*
X51883937Y-83415080D03*
X54423942Y-84685083D03*
X51883937Y-85955085D03*
X54423942Y-87225088D03*
X51883937Y-88495090D03*
X54423942Y-89765093D03*
X51883937Y-91035095D03*
X40634000Y-78700069D03*
X40634000Y-81240074D03*
X40634000Y-89410000D03*
X40634000Y-91950005D03*
D60*
X48583962Y-77579927D03*
X48583962Y-93069893D03*
D14*
X66159000Y-73916000D03*
X66159000Y-72896000D03*
D18*
X255828800Y-211884800D03*
X255828800Y-212904800D03*
D14*
X98755200Y-196854000D03*
X98755200Y-195834000D03*
D65*
X259595000Y-123319000D03*
X258045000Y-123319000D03*
D23*
X268170600Y-155448000D03*
X267210600Y-155448000D03*
D44*
X262513000Y-233426000D03*
X261493000Y-233426000D03*
D10*
X84935600Y-156057600D03*
X85955600Y-156057600D03*
X127252000Y-157556200D03*
X128272000Y-157556200D03*
D14*
X86004400Y-114530600D03*
X86004400Y-113510600D03*
D31*
X159633000Y-63200000D03*
X159633000Y-64830000D03*
D18*
X92069000Y-54739000D03*
X92069000Y-55759000D03*
D20*
X192399000Y-47003000D03*
X192399000Y-45453000D03*
D18*
X105918000Y-123769900D03*
X105918000Y-124789900D03*
D127*
X251961992Y-109197164D03*
X253231995Y-109197164D03*
X254501997Y-109197164D03*
X255772000Y-109197164D03*
X257042003Y-109197164D03*
X258312005Y-109197164D03*
X259582008Y-109197164D03*
X259582008Y-103658937D03*
X258312005Y-103658937D03*
X257042003Y-103658937D03*
X255772000Y-103658937D03*
X254501997Y-103658937D03*
X253231995Y-103658937D03*
X251961992Y-103658937D03*
D23*
X97099000Y-97586800D03*
X96139000Y-97586800D03*
D108*
X140320000Y-51564000D03*
D78*
X97485200Y-110058200D03*
X97485200Y-112457996D03*
D20*
X166999000Y-47003000D03*
X166999000Y-45453000D03*
D18*
X129184400Y-135253000D03*
X129184400Y-136273000D03*
D41*
X200178400Y-81407000D03*
D130*
X198018400Y-76327000D03*
D131*
X198018400Y-78867000D03*
X198018400Y-81407000D03*
X198018400Y-83947000D03*
D11*
X233454000Y-230682800D03*
X234414000Y-230682800D03*
D18*
X113309400Y-135255000D03*
X113309400Y-136275000D03*
D11*
X76357000Y-33528000D03*
X77317000Y-33528000D03*
D19*
X207639000Y-42887600D03*
X207639000Y-44437600D03*
D82*
X257757000Y-137672038D03*
X259407000Y-137672038D03*
D30*
X225947000Y-117541000D03*
X225947000Y-119441000D03*
X227822000Y-118491000D03*
D24*
X256724000Y-45453600D03*
X255074000Y-45453600D03*
D10*
X73150000Y-60071000D03*
X74170000Y-60071000D03*
D82*
X251899000Y-101475000D03*
X253549000Y-101475000D03*
D108*
X128320000Y-51564000D03*
D10*
X196104800Y-100300000D03*
X197124800Y-100300000D03*
D16*
X227621100Y-109575600D03*
D17*
X230161100Y-109575600D03*
X232701100Y-109575600D03*
D14*
X230161100Y-118493000D03*
X230161100Y-117473000D03*
D99*
X141350942Y-241350726D03*
X141350942Y-240080723D03*
X141350942Y-238810721D03*
X141350942Y-237540718D03*
X135940732Y-237540718D03*
X135940732Y-238810721D03*
X135940732Y-240080723D03*
X135940732Y-241350726D03*
D14*
X84576000Y-196854000D03*
X84576000Y-195834000D03*
D44*
X262513000Y-234543600D03*
X261493000Y-234543600D03*
D132*
X54630376Y-42143624D03*
X55351624Y-41422376D03*
D133*
X80036918Y-33177984D03*
D134*
X80036918Y-33933127D03*
X80036918Y-34433000D03*
X80036918Y-34933127D03*
X80036918Y-35433000D03*
X82677000Y-35433000D03*
X82677000Y-34933127D03*
X82677000Y-34433000D03*
X82677000Y-33933127D03*
D133*
X82677000Y-33177984D03*
D135*
X81356959Y-34183064D03*
D62*
X111846400Y-133380000D03*
X109946400Y-133380000D03*
X110896400Y-135255000D03*
D20*
X253359000Y-46990600D03*
X253359000Y-45440600D03*
D10*
X254812800Y-210921600D03*
X255832800Y-210921600D03*
D12*
X127176000Y-175409800D03*
X127176000Y-174449800D03*
D15*
X83997800Y-91976000D03*
X83997800Y-92936000D03*
D19*
X253486000Y-98287000D03*
X253486000Y-99837000D03*
M02*
