G04 #@! TF.GenerationSoftware,KiCad,Pcbnew,7.0.8*
G04 #@! TF.CreationDate,2024-05-07T21:46:37+03:00*
G04 #@! TF.ProjectId,Tangenta,54616e67-656e-4746-912e-6b696361645f,rev?*
G04 #@! TF.SameCoordinates,Original*
G04 #@! TF.FileFunction,Paste,Top*
G04 #@! TF.FilePolarity,Positive*
%FSLAX46Y46*%
G04 Gerber Fmt 4.6, Leading zero omitted, Abs format (unit mm)*
G04 Created by KiCad (PCBNEW 7.0.8) date 2024-05-07 21:46:37*
%MOMM*%
%LPD*%
G01*
G04 APERTURE LIST*
G04 Aperture macros list*
%AMRoundRect*
0 Rectangle with rounded corners*
0 $1 Rounding radius*
0 $2 $3 $4 $5 $6 $7 $8 $9 X,Y pos of 4 corners*
0 Add a 4 corners polygon primitive as box body*
4,1,4,$2,$3,$4,$5,$6,$7,$8,$9,$2,$3,0*
0 Add four circle primitives for the rounded corners*
1,1,$1+$1,$2,$3*
1,1,$1+$1,$4,$5*
1,1,$1+$1,$6,$7*
1,1,$1+$1,$8,$9*
0 Add four rect primitives between the rounded corners*
20,1,$1+$1,$2,$3,$4,$5,0*
20,1,$1+$1,$4,$5,$6,$7,0*
20,1,$1+$1,$6,$7,$8,$9,0*
20,1,$1+$1,$8,$9,$2,$3,0*%
G04 Aperture macros list end*
%ADD10C,0.100000*%
%ADD11RoundRect,0.135000X-0.135000X-0.185000X0.135000X-0.185000X0.135000X0.185000X-0.135000X0.185000X0*%
%ADD12RoundRect,0.140000X-0.140000X-0.170000X0.140000X-0.170000X0.140000X0.170000X-0.140000X0.170000X0*%
%ADD13RoundRect,0.140000X0.170000X-0.140000X0.170000X0.140000X-0.170000X0.140000X-0.170000X-0.140000X0*%
%ADD14RoundRect,0.225000X-0.225000X-0.250000X0.225000X-0.250000X0.225000X0.250000X-0.225000X0.250000X0*%
%ADD15RoundRect,0.135000X0.185000X-0.135000X0.185000X0.135000X-0.185000X0.135000X-0.185000X-0.135000X0*%
%ADD16RoundRect,0.140000X-0.170000X0.140000X-0.170000X-0.140000X0.170000X-0.140000X0.170000X0.140000X0*%
%ADD17RoundRect,0.135000X-0.185000X0.135000X-0.185000X-0.135000X0.185000X-0.135000X0.185000X0.135000X0*%
%ADD18RoundRect,0.225000X-0.250000X0.225000X-0.250000X-0.225000X0.250000X-0.225000X0.250000X0.225000X0*%
%ADD19RoundRect,0.225000X0.250000X-0.225000X0.250000X0.225000X-0.250000X0.225000X-0.250000X-0.225000X0*%
%ADD20R,0.916002X0.350013*%
%ADD21R,1.377013X1.132537*%
%ADD22RoundRect,0.140000X0.140000X0.170000X-0.140000X0.170000X-0.140000X-0.170000X0.140000X-0.170000X0*%
%ADD23RoundRect,0.200000X0.200000X0.275000X-0.200000X0.275000X-0.200000X-0.275000X0.200000X-0.275000X0*%
%ADD24R,1.132537X1.377013*%
%ADD25O,0.200000X1.500000*%
%ADD26O,1.500000X0.200000*%
%ADD27R,5.800000X5.800000*%
%ADD28R,2.800000X1.100000*%
%ADD29RoundRect,0.150000X-0.587500X-0.150000X0.587500X-0.150000X0.587500X0.150000X-0.587500X0.150000X0*%
%ADD30RoundRect,0.365853X-0.384147X0.384147X-0.384147X-0.384147X0.384147X-0.384147X0.384147X0.384147X0*%
%ADD31R,2.000000X0.500000*%
%ADD32R,1.500000X1.358903*%
%ADD33R,1.024994X0.280010*%
%ADD34R,0.280010X1.024994*%
%ADD35R,0.850000X0.850000*%
%ADD36R,3.500000X1.200000*%
%ADD37R,1.550000X0.300000*%
%ADD38R,2.750000X1.200000*%
%ADD39RoundRect,0.135000X0.135000X0.185000X-0.135000X0.185000X-0.135000X-0.185000X0.135000X-0.185000X0*%
%ADD40R,1.600000X0.700000*%
%ADD41R,1.500000X1.200000*%
%ADD42R,2.200000X1.200000*%
%ADD43R,1.500000X1.600000*%
%ADD44R,1.200000X3.500000*%
%ADD45R,2.500000X1.100000*%
%ADD46R,2.340005X3.600000*%
%ADD47RoundRect,0.150000X0.875000X0.150000X-0.875000X0.150000X-0.875000X-0.150000X0.875000X-0.150000X0*%
%ADD48RoundRect,0.200000X0.275000X-0.200000X0.275000X0.200000X-0.275000X0.200000X-0.275000X-0.200000X0*%
%ADD49RoundRect,0.150000X-0.150000X0.587500X-0.150000X-0.587500X0.150000X-0.587500X0.150000X0.587500X0*%
%ADD50R,1.400000X1.100000*%
%ADD51R,0.300000X0.500000*%
%ADD52RoundRect,0.225000X0.225000X0.250000X-0.225000X0.250000X-0.225000X-0.250000X0.225000X-0.250000X0*%
%ADD53R,0.700000X1.250013*%
%ADD54R,1.200000X1.400000*%
%ADD55R,3.200000X2.400000*%
%ADD56R,0.300000X1.750000*%
%ADD57R,3.500000X4.600000*%
%ADD58O,0.200000X0.700000*%
%ADD59O,0.700000X0.200000*%
%ADD60R,1.358903X1.500000*%
%ADD61R,3.029997X3.820015*%
%ADD62RoundRect,0.200000X-0.200000X-0.275000X0.200000X-0.275000X0.200000X0.275000X-0.200000X0.275000X0*%
%ADD63RoundRect,0.140000X-0.219203X-0.021213X-0.021213X-0.219203X0.219203X0.021213X0.021213X0.219203X0*%
%ADD64RoundRect,0.150000X0.587500X0.150000X-0.587500X0.150000X-0.587500X-0.150000X0.587500X-0.150000X0*%
%ADD65O,0.602007X1.970993*%
%ADD66RoundRect,0.200000X-0.275000X0.200000X-0.275000X-0.200000X0.275000X-0.200000X0.275000X0.200000X0*%
%ADD67O,0.700000X1.800000*%
%ADD68RoundRect,0.140000X0.021213X-0.219203X0.219203X-0.021213X-0.021213X0.219203X-0.219203X0.021213X0*%
%ADD69R,1.070003X0.600000*%
%ADD70RoundRect,0.135000X-0.226274X-0.035355X-0.035355X-0.226274X0.226274X0.035355X0.035355X0.226274X0*%
%ADD71R,1.000000X1.500000*%
%ADD72R,1.600000X1.500000*%
%ADD73RoundRect,0.140000X-0.021213X0.219203X-0.219203X0.021213X0.021213X-0.219203X0.219203X-0.021213X0*%
%ADD74RoundRect,0.250000X-0.625000X0.312500X-0.625000X-0.312500X0.625000X-0.312500X0.625000X0.312500X0*%
%ADD75RoundRect,0.140000X0.219203X0.021213X0.021213X0.219203X-0.219203X-0.021213X-0.021213X-0.219203X0*%
%ADD76O,1.950216X0.568402*%
%ADD77R,0.500000X0.900000*%
%ADD78R,1.400000X1.200000*%
%ADD79R,0.200000X0.505004*%
%ADD80R,0.505004X0.200000*%
%ADD81RoundRect,0.150000X0.150000X-0.587500X0.150000X0.587500X-0.150000X0.587500X-0.150000X-0.587500X0*%
%ADD82R,0.750013X1.000000*%
%ADD83R,1.150013X0.600000*%
%ADD84R,1.150013X0.300000*%
%ADD85RoundRect,0.250000X0.650000X-0.325000X0.650000X0.325000X-0.650000X0.325000X-0.650000X-0.325000X0*%
%ADD86R,1.250013X0.700000*%
%ADD87R,2.600000X0.300000*%
%ADD88O,0.573990X2.037998*%
%ADD89R,1.459995X0.200000*%
%ADD90R,0.200000X1.459995*%
%ADD91RoundRect,0.135000X0.035355X-0.226274X0.226274X-0.035355X-0.035355X0.226274X-0.226274X0.035355X0*%
%ADD92R,0.500000X0.750013*%
%ADD93R,0.450013X0.250013*%
%ADD94R,1.500000X2.500000*%
G04 APERTURE END LIST*
D10*
X78714000Y-64823000D02*
X78114000Y-64823000D01*
X78114000Y-64223000D01*
X78714000Y-64223000D01*
X78714000Y-64823000D01*
G36*
X78714000Y-64823000D02*
G01*
X78114000Y-64823000D01*
X78114000Y-64223000D01*
X78714000Y-64223000D01*
X78714000Y-64823000D01*
G37*
X76814000Y-64823000D02*
X76214000Y-64823000D01*
X76214000Y-64223000D01*
X76814000Y-64223000D01*
X76814000Y-64823000D01*
G36*
X76814000Y-64823000D02*
G01*
X76214000Y-64823000D01*
X76214000Y-64223000D01*
X76814000Y-64223000D01*
X76814000Y-64823000D01*
G37*
X79664000Y-65773000D02*
X79064000Y-65773000D01*
X79064000Y-65173000D01*
X79664000Y-65173000D01*
X79664000Y-65773000D01*
G36*
X79664000Y-65773000D02*
G01*
X79064000Y-65773000D01*
X79064000Y-65173000D01*
X79664000Y-65173000D01*
X79664000Y-65773000D01*
G37*
X78714000Y-65773000D02*
X78114000Y-65773000D01*
X78114000Y-65173000D01*
X78714000Y-65173000D01*
X78714000Y-65773000D01*
G36*
X78714000Y-65773000D02*
G01*
X78114000Y-65773000D01*
X78114000Y-65173000D01*
X78714000Y-65173000D01*
X78714000Y-65773000D01*
G37*
X77764000Y-65773000D02*
X77164000Y-65773000D01*
X77164000Y-65173000D01*
X77764000Y-65173000D01*
X77764000Y-65773000D01*
G36*
X77764000Y-65773000D02*
G01*
X77164000Y-65773000D01*
X77164000Y-65173000D01*
X77764000Y-65173000D01*
X77764000Y-65773000D01*
G37*
X76814000Y-65773000D02*
X76214000Y-65773000D01*
X76214000Y-65173000D01*
X76814000Y-65173000D01*
X76814000Y-65773000D01*
G36*
X76814000Y-65773000D02*
G01*
X76214000Y-65773000D01*
X76214000Y-65173000D01*
X76814000Y-65173000D01*
X76814000Y-65773000D01*
G37*
X75864000Y-65773000D02*
X75264000Y-65773000D01*
X75264000Y-65173000D01*
X75864000Y-65173000D01*
X75864000Y-65773000D01*
G36*
X75864000Y-65773000D02*
G01*
X75264000Y-65773000D01*
X75264000Y-65173000D01*
X75864000Y-65173000D01*
X75864000Y-65773000D01*
G37*
X78714000Y-66723000D02*
X78114000Y-66723000D01*
X78114000Y-66123000D01*
X78714000Y-66123000D01*
X78714000Y-66723000D01*
G36*
X78714000Y-66723000D02*
G01*
X78114000Y-66723000D01*
X78114000Y-66123000D01*
X78714000Y-66123000D01*
X78714000Y-66723000D01*
G37*
X76814000Y-66723000D02*
X76214000Y-66723000D01*
X76214000Y-66123000D01*
X76814000Y-66123000D01*
X76814000Y-66723000D01*
G36*
X76814000Y-66723000D02*
G01*
X76214000Y-66723000D01*
X76214000Y-66123000D01*
X76814000Y-66123000D01*
X76814000Y-66723000D01*
G37*
X79664000Y-67673000D02*
X79064000Y-67673000D01*
X79064000Y-67073000D01*
X79664000Y-67073000D01*
X79664000Y-67673000D01*
G36*
X79664000Y-67673000D02*
G01*
X79064000Y-67673000D01*
X79064000Y-67073000D01*
X79664000Y-67073000D01*
X79664000Y-67673000D01*
G37*
X78714000Y-67673000D02*
X78114000Y-67673000D01*
X78114000Y-67073000D01*
X78714000Y-67073000D01*
X78714000Y-67673000D01*
G36*
X78714000Y-67673000D02*
G01*
X78114000Y-67673000D01*
X78114000Y-67073000D01*
X78714000Y-67073000D01*
X78714000Y-67673000D01*
G37*
X77764000Y-67673000D02*
X77164000Y-67673000D01*
X77164000Y-67073000D01*
X77764000Y-67073000D01*
X77764000Y-67673000D01*
G36*
X77764000Y-67673000D02*
G01*
X77164000Y-67673000D01*
X77164000Y-67073000D01*
X77764000Y-67073000D01*
X77764000Y-67673000D01*
G37*
X76814000Y-67673000D02*
X76214000Y-67673000D01*
X76214000Y-67073000D01*
X76814000Y-67073000D01*
X76814000Y-67673000D01*
G36*
X76814000Y-67673000D02*
G01*
X76214000Y-67673000D01*
X76214000Y-67073000D01*
X76814000Y-67073000D01*
X76814000Y-67673000D01*
G37*
X75864000Y-67673000D02*
X75264000Y-67673000D01*
X75264000Y-67073000D01*
X75864000Y-67073000D01*
X75864000Y-67673000D01*
G36*
X75864000Y-67673000D02*
G01*
X75264000Y-67673000D01*
X75264000Y-67073000D01*
X75864000Y-67073000D01*
X75864000Y-67673000D01*
G37*
X78714000Y-68623000D02*
X78114000Y-68623000D01*
X78114000Y-68023000D01*
X78714000Y-68023000D01*
X78714000Y-68623000D01*
G36*
X78714000Y-68623000D02*
G01*
X78114000Y-68623000D01*
X78114000Y-68023000D01*
X78714000Y-68023000D01*
X78714000Y-68623000D01*
G37*
X76814000Y-68623000D02*
X76214000Y-68623000D01*
X76214000Y-68023000D01*
X76814000Y-68023000D01*
X76814000Y-68623000D01*
G36*
X76814000Y-68623000D02*
G01*
X76214000Y-68623000D01*
X76214000Y-68023000D01*
X76814000Y-68023000D01*
X76814000Y-68623000D01*
G37*
D11*
X94204600Y-102920800D03*
X95224600Y-102920800D03*
D12*
X233454000Y-226009200D03*
X234414000Y-226009200D03*
D13*
X128324400Y-161056200D03*
X128324400Y-160096200D03*
D14*
X271992775Y-220245400D03*
X273542775Y-220245400D03*
D12*
X70944800Y-44246800D03*
X71904800Y-44246800D03*
D15*
X152677100Y-153661800D03*
X152677100Y-152641800D03*
D11*
X76327000Y-35687000D03*
X77347000Y-35687000D03*
D16*
X118287800Y-240390800D03*
X118287800Y-241350800D03*
D12*
X234927200Y-234696000D03*
X235887200Y-234696000D03*
D13*
X58191400Y-77670600D03*
X58191400Y-76710600D03*
D17*
X157960300Y-152718000D03*
X157960300Y-153738000D03*
D18*
X268599000Y-42887600D03*
X268599000Y-44437600D03*
D15*
X243611400Y-245670800D03*
X243611400Y-244650800D03*
D11*
X129604224Y-241350801D03*
X130624224Y-241350801D03*
D19*
X253486000Y-96662000D03*
X253486000Y-95112000D03*
D20*
X45700948Y-31862013D03*
X45700948Y-32512000D03*
X45700948Y-33161987D03*
X47517052Y-33161987D03*
X47517052Y-32512000D03*
X47517052Y-31862013D03*
D21*
X79629000Y-78410818D03*
X79629000Y-76478382D03*
D15*
X84836000Y-35433000D03*
X84836000Y-34413000D03*
D20*
X47478948Y-28052013D03*
X47478948Y-28702000D03*
X47478948Y-29351987D03*
X49295052Y-29351987D03*
X49295052Y-28702000D03*
X49295052Y-28052013D03*
D22*
X82550000Y-73025000D03*
X81590000Y-73025000D03*
D13*
X208991200Y-94002800D03*
X208991200Y-93042800D03*
D23*
X165284000Y-45466000D03*
X163634000Y-45466000D03*
D12*
X73939400Y-100253800D03*
X74899400Y-100253800D03*
D16*
X142797000Y-165864600D03*
X142797000Y-166824600D03*
D24*
X86437218Y-73886000D03*
X84504782Y-73886000D03*
D13*
X103249200Y-159560200D03*
X103249200Y-158600200D03*
D25*
X242022953Y-237386597D03*
X242423003Y-237386597D03*
X242823054Y-237386597D03*
X243223105Y-237386597D03*
X243623156Y-237386597D03*
X244023207Y-237386597D03*
X244423257Y-237386597D03*
X244823054Y-237386597D03*
X245223359Y-237386597D03*
X245623156Y-237386597D03*
X246023461Y-237386597D03*
X246423003Y-237386597D03*
X246823562Y-237386597D03*
X247223105Y-237386597D03*
X247623156Y-237386597D03*
X248023207Y-237386597D03*
X248423003Y-237386597D03*
X248823054Y-237386597D03*
X249223105Y-237386597D03*
X249622648Y-237386597D03*
X250023207Y-237386597D03*
X250422749Y-237386597D03*
X250823054Y-237386597D03*
X251222851Y-237386597D03*
X251623156Y-237386597D03*
X252022953Y-237386597D03*
X252423003Y-237386597D03*
X252823054Y-237386597D03*
X253223105Y-237386597D03*
X253623156Y-237386597D03*
X254023207Y-237386597D03*
X254423257Y-237386597D03*
D26*
X255822800Y-235987054D03*
X255822800Y-235587004D03*
X255822800Y-235186953D03*
X255822800Y-234786902D03*
X255822800Y-234386851D03*
X255822800Y-233986800D03*
X255822800Y-233586750D03*
X255822800Y-233186953D03*
X255822800Y-232786648D03*
X255822800Y-232386851D03*
X255822800Y-231986546D03*
X255822800Y-231587004D03*
X255822800Y-231186445D03*
X255822800Y-230786902D03*
X255822800Y-230386851D03*
X255822800Y-229986800D03*
X255822800Y-229587004D03*
X255822800Y-229186953D03*
X255822800Y-228786902D03*
X255822800Y-228387359D03*
X255822800Y-227986800D03*
X255822800Y-227587258D03*
X255822800Y-227186953D03*
X255822800Y-226787156D03*
X255822800Y-226386851D03*
X255822800Y-225987054D03*
X255822800Y-225587004D03*
X255822800Y-225186953D03*
X255822800Y-224786902D03*
X255822800Y-224386851D03*
X255822800Y-223986800D03*
X255822800Y-223586750D03*
D25*
X254423257Y-222187207D03*
X254023207Y-222187207D03*
X253623156Y-222187207D03*
X253223105Y-222187207D03*
X252823054Y-222187207D03*
X252423003Y-222187207D03*
X252022953Y-222187207D03*
X251623156Y-222187207D03*
X251222851Y-222187207D03*
X250823054Y-222187207D03*
X250422749Y-222187207D03*
X250023207Y-222187207D03*
X249622648Y-222187207D03*
X249223105Y-222187207D03*
X248823054Y-222187207D03*
X248423003Y-222187207D03*
X248023207Y-222187207D03*
X247623156Y-222187207D03*
X247223105Y-222187207D03*
X246823562Y-222187207D03*
X246423003Y-222187207D03*
X246023461Y-222187207D03*
X245623156Y-222187207D03*
X245223359Y-222187207D03*
X244823054Y-222187207D03*
X244423257Y-222187207D03*
X244023207Y-222187207D03*
X243623156Y-222187207D03*
X243223105Y-222187207D03*
X242823054Y-222187207D03*
X242423003Y-222187207D03*
X242022953Y-222187207D03*
D26*
X240623410Y-223586750D03*
X240623410Y-223986800D03*
X240623410Y-224386851D03*
X240623410Y-224786902D03*
X240623410Y-225186953D03*
X240623410Y-225587004D03*
X240623410Y-225987054D03*
X240623410Y-226386851D03*
X240623410Y-226787156D03*
X240623410Y-227186953D03*
X240623410Y-227587258D03*
X240623410Y-227986800D03*
X240623410Y-228387359D03*
X240623410Y-228786902D03*
X240623410Y-229186953D03*
X240623410Y-229587004D03*
X240623410Y-229986800D03*
X240623410Y-230386851D03*
X240623410Y-230786902D03*
X240623410Y-231186445D03*
X240623410Y-231587004D03*
X240623410Y-231986546D03*
X240623410Y-232386851D03*
X240623410Y-232786648D03*
X240623410Y-233186953D03*
X240623410Y-233586750D03*
X240623410Y-233986800D03*
X240623410Y-234386851D03*
X240623410Y-234786902D03*
X240623410Y-235186953D03*
X240623410Y-235587004D03*
X240623410Y-235987054D03*
D27*
X248223105Y-229786902D03*
D11*
X108760800Y-99339400D03*
X109780800Y-99339400D03*
D17*
X64262000Y-50673000D03*
X64262000Y-51693000D03*
D28*
X88383876Y-88214200D03*
X84183724Y-88214200D03*
D29*
X197662800Y-101636000D03*
X197662800Y-103536000D03*
X199537800Y-102586000D03*
D19*
X197479000Y-47003000D03*
X197479000Y-45453000D03*
D30*
X190113000Y-63200000D03*
X190113000Y-64830000D03*
D31*
X66537451Y-137214349D03*
X66537451Y-138014451D03*
X66537451Y-138814298D03*
X66537451Y-139614400D03*
X66537451Y-140414248D03*
X66537451Y-141214349D03*
X66537451Y-142014451D03*
X66537451Y-142814298D03*
X66537451Y-143614400D03*
X66537451Y-144414502D03*
X74737349Y-144014451D03*
X74737349Y-143214349D03*
X74737349Y-142414502D03*
X74737349Y-141614400D03*
X74737349Y-140814298D03*
X74737349Y-140014451D03*
X74737349Y-139214349D03*
X74737349Y-138414248D03*
X74737349Y-137614400D03*
X74737349Y-136814298D03*
D32*
X111994698Y-103784400D03*
X109594902Y-103784400D03*
D15*
X62349000Y-73916000D03*
X62349000Y-72896000D03*
D33*
X56001000Y-51333873D03*
X56001000Y-51834000D03*
X56001000Y-52333873D03*
X56001000Y-52834000D03*
X56001000Y-53333873D03*
X56001000Y-53834000D03*
X56001000Y-54333873D03*
X56001000Y-54834000D03*
X56001000Y-55333873D03*
D34*
X56863586Y-56196459D03*
X57363459Y-56196459D03*
X57863586Y-56196459D03*
X58363459Y-56196459D03*
X58863586Y-56196459D03*
X59363459Y-56196459D03*
X59863586Y-56196459D03*
X60363459Y-56196459D03*
X60863586Y-56196459D03*
D33*
X61726172Y-55333873D03*
X61726172Y-54834000D03*
X61726172Y-54333873D03*
X61726172Y-53834000D03*
X61726172Y-53333873D03*
X61726172Y-52834000D03*
X61726172Y-52333873D03*
X61726172Y-51834000D03*
X61726172Y-51333873D03*
D34*
X60863586Y-50471287D03*
X60363459Y-50471287D03*
X59863586Y-50471287D03*
X59363459Y-50471287D03*
X58863586Y-50471287D03*
X58363459Y-50471287D03*
X57863586Y-50471287D03*
X57363459Y-50471287D03*
X56863586Y-50471287D03*
D35*
X58863586Y-52333873D03*
X59863586Y-53333873D03*
X58863586Y-53333873D03*
X57863586Y-53333873D03*
X58863586Y-54333873D03*
D36*
X242313053Y-53949600D03*
X236972947Y-53949600D03*
D11*
X108762800Y-101828600D03*
X109782800Y-101828600D03*
X129604224Y-238785401D03*
X130624224Y-238785401D03*
D29*
X197662800Y-96048000D03*
X197662800Y-97948000D03*
X199537800Y-96998000D03*
D37*
X64179000Y-218903600D03*
X71729000Y-218653600D03*
X64179000Y-218403600D03*
X71729000Y-218153600D03*
X64179000Y-217903600D03*
X71729000Y-217653600D03*
X64179000Y-217403600D03*
X71729000Y-217153600D03*
X64179000Y-216903600D03*
X71729000Y-216653600D03*
X64179000Y-216403600D03*
X71729000Y-216153600D03*
X64179000Y-215903600D03*
X71729000Y-215653600D03*
X64179000Y-215403600D03*
X71729000Y-215153600D03*
X64179000Y-214903600D03*
X71729000Y-214653600D03*
X64179000Y-214403600D03*
X71729000Y-214153600D03*
X64179000Y-213903600D03*
X71729000Y-213653600D03*
X64179000Y-213403600D03*
X71729000Y-213153600D03*
X64179000Y-212903600D03*
X71729000Y-212653600D03*
X64179000Y-212403600D03*
X71729000Y-212153600D03*
X64179000Y-211903600D03*
X71729000Y-211653600D03*
X64179000Y-211403600D03*
X71729000Y-211153600D03*
X64179000Y-210903600D03*
X71729000Y-210653600D03*
X64179000Y-210403600D03*
X71729000Y-210153600D03*
X64179000Y-209903600D03*
X71729000Y-209653600D03*
X64179000Y-209403600D03*
X71729000Y-209153600D03*
X64179000Y-208903600D03*
X71729000Y-208653600D03*
X64179000Y-208403600D03*
X71729000Y-208153600D03*
X64179000Y-207903600D03*
X71729000Y-207653600D03*
X64179000Y-207403600D03*
X71729000Y-207153600D03*
X64179000Y-206903600D03*
X71729000Y-206653600D03*
X64179000Y-206403600D03*
X71729000Y-206153600D03*
X64179000Y-205903600D03*
X71729000Y-205653600D03*
X64179000Y-205403600D03*
X71729000Y-205153600D03*
X64179000Y-204903600D03*
X71729000Y-204653600D03*
X64179000Y-202403600D03*
X71729000Y-202153600D03*
X64179000Y-201903600D03*
X71729000Y-201653600D03*
X64179000Y-201403600D03*
X71729000Y-201153600D03*
X64179000Y-200903600D03*
X71729000Y-200653600D03*
X64179000Y-200403600D03*
D38*
X64953000Y-220003600D03*
X64953000Y-199303600D03*
D39*
X122834400Y-118668800D03*
X121814400Y-118668800D03*
D13*
X78994000Y-35941000D03*
X78994000Y-34981000D03*
D16*
X142802400Y-151513600D03*
X142802400Y-152473600D03*
D12*
X265229400Y-173812200D03*
X266189400Y-173812200D03*
D13*
X122096000Y-166522400D03*
X122096000Y-165562400D03*
D16*
X134102024Y-240383241D03*
X134102024Y-241343241D03*
D39*
X262511000Y-229666800D03*
X261491000Y-229666800D03*
D13*
X237007400Y-237970000D03*
X237007400Y-237010000D03*
D40*
X263143910Y-162342064D03*
X263143910Y-163441886D03*
X263143910Y-164541962D03*
X263143910Y-165642038D03*
X263143910Y-166742114D03*
X263143910Y-167841936D03*
X263143910Y-168942013D03*
X263143910Y-170042089D03*
X263143910Y-171141911D03*
D41*
X264143910Y-172342064D03*
D42*
X273744114Y-172342064D03*
D43*
X264143910Y-157742114D03*
D42*
X273744114Y-156841936D03*
D39*
X80418400Y-133096000D03*
X79398400Y-133096000D03*
D15*
X237642400Y-245670800D03*
X237642400Y-244650800D03*
D24*
X126038400Y-152704800D03*
X124105964Y-152704800D03*
D15*
X252069600Y-245668800D03*
X252069600Y-244648800D03*
D44*
X69844000Y-240282947D03*
X69844000Y-245623053D03*
D39*
X262511000Y-228574600D03*
X261491000Y-228574600D03*
D24*
X126034018Y-164797800D03*
X124101582Y-164797800D03*
D45*
X273576904Y-227371375D03*
X273576904Y-225071400D03*
X273576904Y-222771425D03*
D46*
X267636975Y-225071400D03*
D11*
X74668000Y-205615000D03*
X75688000Y-205615000D03*
D47*
X139627400Y-161366200D03*
X139627400Y-160096200D03*
X139627400Y-158826200D03*
X139627400Y-157556200D03*
X139627400Y-156286200D03*
X139627400Y-155016200D03*
X139627400Y-153746200D03*
X139627400Y-152476200D03*
X139627400Y-151206200D03*
X139627400Y-149936200D03*
X130327400Y-149936200D03*
X130327400Y-151206200D03*
X130327400Y-152476200D03*
X130327400Y-153746200D03*
X130327400Y-155016200D03*
X130327400Y-156286200D03*
X130327400Y-157556200D03*
X130327400Y-158826200D03*
X130327400Y-160096200D03*
X130327400Y-161366200D03*
D17*
X250514200Y-215898000D03*
X250514200Y-216918000D03*
D16*
X103124000Y-150015000D03*
X103124000Y-150975000D03*
D17*
X81356200Y-136521000D03*
X81356200Y-137541000D03*
D13*
X81584800Y-112367000D03*
X81584800Y-111407000D03*
D15*
X251053600Y-245670800D03*
X251053600Y-244650800D03*
D37*
X94792000Y-60812000D03*
X102342000Y-60562000D03*
X94792000Y-60312000D03*
X102342000Y-60062000D03*
X94792000Y-59812000D03*
X102342000Y-59562000D03*
X94792000Y-59312000D03*
X102342000Y-59062000D03*
X94792000Y-58812000D03*
X102342000Y-58562000D03*
X94792000Y-58312000D03*
X102342000Y-58062000D03*
X94792000Y-57812000D03*
X102342000Y-57562000D03*
X94792000Y-57312000D03*
X102342000Y-57062000D03*
X94792000Y-56812000D03*
X102342000Y-56562000D03*
X94792000Y-56312000D03*
X102342000Y-56062000D03*
X94792000Y-55812000D03*
X102342000Y-55562000D03*
X94792000Y-55312000D03*
X102342000Y-55062000D03*
X94792000Y-54812000D03*
X102342000Y-54562000D03*
X94792000Y-54312000D03*
X102342000Y-54062000D03*
X94792000Y-53812000D03*
X102342000Y-53562000D03*
X94792000Y-53312000D03*
X102342000Y-53062000D03*
X94792000Y-52812000D03*
X102342000Y-52562000D03*
X94792000Y-52312000D03*
X102342000Y-52062000D03*
X94792000Y-51812000D03*
X102342000Y-51562000D03*
X94792000Y-51312000D03*
X102342000Y-51062000D03*
X94792000Y-50812000D03*
X102342000Y-50562000D03*
X94792000Y-50312000D03*
X102342000Y-50062000D03*
X94792000Y-49812000D03*
X102342000Y-49562000D03*
X94792000Y-49312000D03*
X102342000Y-49062000D03*
X94792000Y-48812000D03*
X102342000Y-48562000D03*
X94792000Y-48312000D03*
X102342000Y-48062000D03*
X94792000Y-47812000D03*
X102342000Y-47562000D03*
X94792000Y-47312000D03*
X102342000Y-47062000D03*
X94792000Y-46812000D03*
X102342000Y-46562000D03*
X94792000Y-44312000D03*
X102342000Y-44062000D03*
X94792000Y-43812000D03*
X102342000Y-43562000D03*
X94792000Y-43312000D03*
X102342000Y-43062000D03*
X94792000Y-42812000D03*
X102342000Y-42562000D03*
X94792000Y-42312000D03*
D38*
X95566000Y-61912000D03*
X95566000Y-41212000D03*
D11*
X120546400Y-131673600D03*
X121566400Y-131673600D03*
D12*
X97919600Y-96520000D03*
X98879600Y-96520000D03*
D48*
X260423000Y-144593038D03*
X260423000Y-142943038D03*
D49*
X109992200Y-121896900D03*
X108092200Y-121896900D03*
X109042200Y-123771900D03*
D21*
X74506000Y-78421218D03*
X74506000Y-76488782D03*
D11*
X115263200Y-131673600D03*
X116283200Y-131673600D03*
D12*
X239550000Y-219710000D03*
X240510000Y-219710000D03*
D23*
X261360000Y-150497000D03*
X259710000Y-150497000D03*
D32*
X69279102Y-196090000D03*
X71678898Y-196090000D03*
D50*
X255498600Y-88440000D03*
X261998472Y-88440000D03*
X255498600Y-91440000D03*
X261998472Y-91440000D03*
D51*
X124909200Y-118630825D03*
X124409200Y-118630825D03*
X123909200Y-118630825D03*
X123909200Y-120230775D03*
X124409200Y-120230775D03*
X124909200Y-120230775D03*
D48*
X258391000Y-144593038D03*
X258391000Y-142943038D03*
D12*
X233454000Y-231698800D03*
X234414000Y-231698800D03*
D22*
X70033000Y-74837782D03*
X69073000Y-74837782D03*
X258848800Y-225602800D03*
X257888800Y-225602800D03*
D17*
X118618000Y-135255000D03*
X118618000Y-136275000D03*
D22*
X268170600Y-154330400D03*
X267210600Y-154330400D03*
D39*
X101723000Y-64391000D03*
X100703000Y-64391000D03*
X92000800Y-114858800D03*
X90980800Y-114858800D03*
D12*
X244551200Y-241376200D03*
X245511200Y-241376200D03*
X235886400Y-229491000D03*
X236846400Y-229491000D03*
X74407000Y-71613000D03*
X75367000Y-71613000D03*
D15*
X230149400Y-98655600D03*
X230149400Y-97635600D03*
D11*
X60831000Y-57658000D03*
X61851000Y-57658000D03*
D12*
X50828000Y-53340000D03*
X51788000Y-53340000D03*
X70944800Y-45262800D03*
X71904800Y-45262800D03*
D15*
X224231200Y-103915400D03*
X224231200Y-102895400D03*
D12*
X239550000Y-217703400D03*
X240510000Y-217703400D03*
D15*
X152681700Y-173230000D03*
X152681700Y-172210000D03*
D11*
X127252000Y-169367200D03*
X128272000Y-169367200D03*
D12*
X76975000Y-72805782D03*
X77935000Y-72805782D03*
D52*
X199397000Y-49758600D03*
X197847000Y-49758600D03*
D39*
X75688000Y-217934000D03*
X74668000Y-217934000D03*
D18*
X238119000Y-42887600D03*
X238119000Y-44437600D03*
D17*
X238861600Y-229739000D03*
X238861600Y-230759000D03*
X246323200Y-219555600D03*
X246323200Y-220575600D03*
D15*
X152679400Y-168393800D03*
X152679400Y-167373800D03*
D16*
X142797000Y-168404600D03*
X142797000Y-169364600D03*
D39*
X66669000Y-78742000D03*
X65649000Y-78742000D03*
D53*
X258457038Y-141212038D03*
X260356962Y-141212038D03*
X259407000Y-139212038D03*
D32*
X98755200Y-241048000D03*
X101154996Y-241048000D03*
D39*
X248357200Y-218543600D03*
X247337200Y-218543600D03*
D22*
X85443000Y-71854000D03*
X84483000Y-71854000D03*
D11*
X109954600Y-131673600D03*
X110974600Y-131673600D03*
D15*
X198748400Y-106095200D03*
X198748400Y-105075200D03*
X81356200Y-139498800D03*
X81356200Y-138478800D03*
D17*
X157964900Y-172288200D03*
X157964900Y-173308200D03*
D13*
X58928000Y-59789000D03*
X58928000Y-58829000D03*
D12*
X260555800Y-160705800D03*
X261515800Y-160705800D03*
D39*
X198960200Y-92458300D03*
X197940200Y-92458300D03*
D11*
X198016400Y-87124300D03*
X199036400Y-87124300D03*
D32*
X66471898Y-196090000D03*
X64072102Y-196090000D03*
D11*
X103579200Y-103428800D03*
X104599200Y-103428800D03*
D13*
X78359000Y-114904400D03*
X78359000Y-113944400D03*
D48*
X125196600Y-171513000D03*
X125196600Y-169863000D03*
D15*
X80416400Y-142320200D03*
X80416400Y-141300200D03*
D17*
X83058000Y-62482000D03*
X83058000Y-63502000D03*
X90754200Y-236474000D03*
X90754200Y-237494000D03*
D54*
X99683187Y-99890324D03*
X99683187Y-102090476D03*
X101383213Y-102090476D03*
X101383213Y-99890324D03*
D19*
X227959000Y-47003000D03*
X227959000Y-45453000D03*
D55*
X251073000Y-53949594D03*
X251073000Y-59791606D03*
D13*
X59944000Y-59789000D03*
X59944000Y-58829000D03*
D16*
X141659400Y-154053600D03*
X141659400Y-155013600D03*
X120462224Y-240390801D03*
X120462224Y-241350801D03*
D11*
X118311200Y-121818400D03*
X119331200Y-121818400D03*
D12*
X79177000Y-74753218D03*
X80137000Y-74753218D03*
D39*
X80418400Y-146583400D03*
X79398400Y-146583400D03*
D16*
X47244000Y-34572000D03*
X47244000Y-35532000D03*
D56*
X187148000Y-106454000D03*
X186898000Y-114654000D03*
X186648000Y-106454000D03*
X186398000Y-114654000D03*
X186148000Y-106454000D03*
X185898000Y-114654000D03*
X185648000Y-106454000D03*
X185398000Y-114654000D03*
X185148000Y-106454000D03*
X184898000Y-114654000D03*
X184648000Y-106454000D03*
X184398000Y-114654000D03*
X184148000Y-106454000D03*
X183898000Y-114654000D03*
X183648000Y-106454000D03*
X183398000Y-114654000D03*
X183148000Y-106454000D03*
X182898000Y-114654000D03*
X182648000Y-106454000D03*
X182398000Y-114654000D03*
X182148000Y-106454000D03*
X181898000Y-114654000D03*
X181648000Y-106454000D03*
X181398000Y-114654000D03*
X181148000Y-106454000D03*
X180898000Y-114654000D03*
X180648000Y-106454000D03*
X180398000Y-114654000D03*
X180148000Y-106454000D03*
X179898000Y-114654000D03*
X179648000Y-106454000D03*
X179398000Y-114654000D03*
X179148000Y-106454000D03*
X178898000Y-114654000D03*
X178648000Y-106454000D03*
X178398000Y-114654000D03*
X178148000Y-106454000D03*
X177898000Y-114654000D03*
X177648000Y-106454000D03*
X177398000Y-114654000D03*
X177148000Y-106454000D03*
X176898000Y-114654000D03*
X176648000Y-106454000D03*
X176398000Y-114654000D03*
X176148000Y-106454000D03*
X175898000Y-114654000D03*
X175648000Y-106454000D03*
X175398000Y-114654000D03*
X175148000Y-106454000D03*
X174898000Y-114654000D03*
X174648000Y-106454000D03*
X174398000Y-114654000D03*
X174148000Y-106454000D03*
X173898000Y-114654000D03*
X173648000Y-106454000D03*
X173398000Y-114654000D03*
X173148000Y-106454000D03*
X172898000Y-114654000D03*
X172648000Y-106454000D03*
X172398000Y-114654000D03*
X172148000Y-106454000D03*
X171898000Y-114654000D03*
X171648000Y-106454000D03*
X171398000Y-114654000D03*
X171148000Y-106454000D03*
X170898000Y-114654000D03*
X170648000Y-106454000D03*
X170398000Y-114654000D03*
X170148000Y-106454000D03*
X169898000Y-114654000D03*
X169648000Y-106454000D03*
X169398000Y-114654000D03*
X169148000Y-106454000D03*
X168898000Y-114654000D03*
X168648000Y-106454000D03*
X168398000Y-114654000D03*
X168148000Y-106454000D03*
X167898000Y-114654000D03*
X167648000Y-106454000D03*
X167398000Y-114654000D03*
X167148000Y-106454000D03*
X166898000Y-114654000D03*
X166648000Y-106454000D03*
X166398000Y-114654000D03*
X166148000Y-106454000D03*
X165898000Y-114654000D03*
X165648000Y-106454000D03*
X165398000Y-114654000D03*
X165148000Y-106454000D03*
X164898000Y-114654000D03*
X164648000Y-106454000D03*
X164398000Y-114654000D03*
X164148000Y-106454000D03*
X163898000Y-114654000D03*
X163648000Y-106454000D03*
X163398000Y-114654000D03*
X163148000Y-106454000D03*
X162898000Y-114654000D03*
X162648000Y-106454000D03*
X162398000Y-114654000D03*
X162148000Y-106454000D03*
X161898000Y-114654000D03*
X161648000Y-106454000D03*
X161398000Y-114654000D03*
X161148000Y-106454000D03*
X160898000Y-114654000D03*
X160648000Y-106454000D03*
X160398000Y-114654000D03*
X160148000Y-106454000D03*
X159898000Y-114654000D03*
X159648000Y-106454000D03*
X159398000Y-114654000D03*
X159148000Y-106454000D03*
X158898000Y-114654000D03*
X158648000Y-106454000D03*
X158398000Y-114654000D03*
X158148000Y-106454000D03*
X157898000Y-114654000D03*
X157648000Y-106454000D03*
X157398000Y-114654000D03*
X157148000Y-106454000D03*
X156898000Y-114654000D03*
X156648000Y-106454000D03*
X156398000Y-114654000D03*
X156148000Y-106454000D03*
X155898000Y-114654000D03*
X155648000Y-106454000D03*
X155398000Y-114654000D03*
X155148000Y-106454000D03*
X154898000Y-114654000D03*
X154648000Y-106454000D03*
X154398000Y-114654000D03*
X154148000Y-106454000D03*
X153898000Y-114654000D03*
X153648000Y-106454000D03*
X153398000Y-114654000D03*
X153148000Y-106454000D03*
X152898000Y-114654000D03*
X152648000Y-106454000D03*
X152398000Y-114654000D03*
X152148000Y-106454000D03*
X151898000Y-114654000D03*
X151648000Y-106454000D03*
X151398000Y-114654000D03*
X149148000Y-106454000D03*
X148898000Y-114654000D03*
X148648000Y-106454000D03*
X148398000Y-114654000D03*
X148148000Y-106454000D03*
X147898000Y-114654000D03*
X147648000Y-106454000D03*
X147398000Y-114654000D03*
X147148000Y-106454000D03*
X146898000Y-114654000D03*
X146648000Y-106454000D03*
X146398000Y-114654000D03*
X146148000Y-106454000D03*
X145898000Y-114654000D03*
X145648000Y-106454000D03*
X145398000Y-114654000D03*
X145148000Y-106454000D03*
X144898000Y-114654000D03*
X144648000Y-106454000D03*
X144398000Y-114654000D03*
X144148000Y-106454000D03*
X143898000Y-114654000D03*
X143648000Y-106454000D03*
X143398000Y-114654000D03*
X143148000Y-106454000D03*
X142898000Y-114654000D03*
X142648000Y-106454000D03*
X142398000Y-114654000D03*
X142148000Y-106454000D03*
X141898000Y-114654000D03*
X141648000Y-106454000D03*
X141398000Y-114654000D03*
X141148000Y-106454000D03*
X140898000Y-114654000D03*
X140648000Y-106454000D03*
X140398000Y-114654000D03*
X140148000Y-106454000D03*
X139898000Y-114654000D03*
X139648000Y-106454000D03*
X139398000Y-114654000D03*
X139148000Y-106454000D03*
X138898000Y-114654000D03*
X138648000Y-106454000D03*
X138398000Y-114654000D03*
X138148000Y-106454000D03*
X137898000Y-114654000D03*
X137648000Y-106454000D03*
X137398000Y-114654000D03*
X137148000Y-106454000D03*
X136898000Y-114654000D03*
X136648000Y-106454000D03*
X136398000Y-114654000D03*
X136148000Y-106454000D03*
X135898000Y-114654000D03*
X135648000Y-106454000D03*
X135398000Y-114654000D03*
X135148000Y-106454000D03*
X134898000Y-114654000D03*
X134648000Y-106454000D03*
X134398000Y-114654000D03*
X134148000Y-106454000D03*
X133898000Y-114654000D03*
X133648000Y-106454000D03*
X133398000Y-114654000D03*
X133148000Y-106454000D03*
X132898000Y-114654000D03*
X132648000Y-106454000D03*
X132398000Y-114654000D03*
X132148000Y-106454000D03*
X131898000Y-114654000D03*
X131648000Y-106454000D03*
X131398000Y-114654000D03*
X131148000Y-106454000D03*
X130898000Y-114654000D03*
X130648000Y-106454000D03*
X130398000Y-114654000D03*
X130148000Y-106454000D03*
X129898000Y-114654000D03*
X129648000Y-106454000D03*
X129398000Y-114654000D03*
X129148000Y-106454000D03*
X128898000Y-114654000D03*
X128648000Y-106454000D03*
X128398000Y-114654000D03*
X128148000Y-106454000D03*
X127898000Y-114654000D03*
X127648000Y-106454000D03*
X127398000Y-114654000D03*
X127148000Y-106454000D03*
X126898000Y-114654000D03*
X126648000Y-106454000D03*
X126398000Y-114654000D03*
X126148000Y-106454000D03*
X125898000Y-114654000D03*
X125648000Y-106454000D03*
X125398000Y-114654000D03*
X125148000Y-106454000D03*
X124898000Y-114654000D03*
X124648000Y-106454000D03*
X124398000Y-114654000D03*
X124148000Y-106454000D03*
X123898000Y-114654000D03*
X123648000Y-106454000D03*
X123398000Y-114654000D03*
X123148000Y-106454000D03*
X122898000Y-114654000D03*
X122648000Y-106454000D03*
X122398000Y-114654000D03*
X122148000Y-106454000D03*
X121898000Y-114654000D03*
X121648000Y-106454000D03*
X121398000Y-114654000D03*
X121148000Y-106454000D03*
X120898000Y-114654000D03*
X120648000Y-106454000D03*
X120398000Y-114654000D03*
D57*
X187573000Y-98554000D03*
X119973000Y-98554000D03*
D39*
X257860800Y-210921600D03*
X256840800Y-210921600D03*
D12*
X239550000Y-220726000D03*
X240510000Y-220726000D03*
D21*
X77216000Y-78410818D03*
X77216000Y-76478382D03*
D58*
X80464000Y-62723000D03*
X80064000Y-62723000D03*
X79664000Y-62723000D03*
X79264000Y-62723000D03*
X78864000Y-62723000D03*
X78464000Y-62723000D03*
X78064000Y-62723000D03*
X77664000Y-62723000D03*
X77264000Y-62723000D03*
X76864000Y-62723000D03*
X76464000Y-62723000D03*
X76064000Y-62723000D03*
X75664000Y-62723000D03*
X75264000Y-62723000D03*
X74864000Y-62723000D03*
X74464000Y-62723000D03*
D59*
X73764000Y-63423000D03*
X73764000Y-63823000D03*
X73764000Y-64223000D03*
X73764000Y-64623000D03*
X73764000Y-65023000D03*
X73764000Y-65423000D03*
X73764000Y-65823000D03*
X73764000Y-66223000D03*
X73764000Y-66623000D03*
X73764000Y-67023000D03*
X73764000Y-67423000D03*
X73764000Y-67823000D03*
X73764000Y-68223000D03*
X73764000Y-68623000D03*
X73764000Y-69023000D03*
X73764000Y-69423000D03*
D58*
X74464000Y-70123000D03*
X74864000Y-70123000D03*
X75264000Y-70123000D03*
X75664000Y-70123000D03*
X76064000Y-70123000D03*
X76464000Y-70123000D03*
X76864000Y-70123000D03*
X77264000Y-70123000D03*
X77664000Y-70123000D03*
X78064000Y-70123000D03*
X78464000Y-70123000D03*
X78864000Y-70123000D03*
X79264000Y-70123000D03*
X79664000Y-70123000D03*
X80064000Y-70123000D03*
X80464000Y-70123000D03*
D59*
X81164000Y-69423000D03*
X81164000Y-69023000D03*
X81164000Y-68623000D03*
X81164000Y-68223000D03*
X81164000Y-67823000D03*
X81164000Y-67423000D03*
X81164000Y-67023000D03*
X81164000Y-66623000D03*
X81164000Y-66223000D03*
X81164000Y-65823000D03*
X81164000Y-65423000D03*
X81164000Y-65023000D03*
X81164000Y-64623000D03*
X81164000Y-64223000D03*
X81164000Y-63823000D03*
X81164000Y-63423000D03*
D22*
X266316400Y-219811600D03*
X265356400Y-219811600D03*
D52*
X168917000Y-49758600D03*
X167367000Y-49758600D03*
D60*
X89783000Y-182557898D03*
X89783000Y-180158102D03*
D39*
X91998800Y-113842800D03*
X90978800Y-113842800D03*
D61*
X256528024Y-53949600D03*
X263397976Y-53949600D03*
D52*
X260357000Y-49758600D03*
X258807000Y-49758600D03*
D18*
X243128800Y-252717000D03*
X243128800Y-254267000D03*
D32*
X168466102Y-65963800D03*
X170865898Y-65963800D03*
D15*
X83693000Y-35433000D03*
X83693000Y-34413000D03*
D17*
X247339200Y-219555600D03*
X247339200Y-220575600D03*
D13*
X128319000Y-175409800D03*
X128319000Y-174449800D03*
D11*
X102561200Y-120190500D03*
X103581200Y-120190500D03*
D13*
X238988600Y-237970000D03*
X238988600Y-237010000D03*
D39*
X261518400Y-225094800D03*
X260498400Y-225094800D03*
X265228800Y-232843800D03*
X264208800Y-232843800D03*
D54*
X86078064Y-70203000D03*
X86078064Y-68002848D03*
X84328000Y-68002848D03*
X84328000Y-70203000D03*
D62*
X244832033Y-254262506D03*
X246482033Y-254262506D03*
D63*
X103186613Y-95927924D03*
X103865435Y-96606746D03*
D12*
X79177000Y-73737218D03*
X80137000Y-73737218D03*
D61*
X226048024Y-53949600D03*
X232917976Y-53949600D03*
D11*
X84933600Y-152908000D03*
X85953600Y-152908000D03*
D64*
X156258500Y-154620000D03*
X156258500Y-152720000D03*
X154383500Y-153670000D03*
D11*
X251764800Y-212877400D03*
X252784800Y-212877400D03*
D65*
X259582013Y-126293330D03*
X258312010Y-126293330D03*
X257042008Y-126293330D03*
X255772005Y-126293330D03*
X254502003Y-126293330D03*
X253232000Y-126293330D03*
X251961998Y-126293330D03*
X250691995Y-126293330D03*
X250691995Y-131764500D03*
X251961998Y-131764500D03*
X253232000Y-131764500D03*
X254502003Y-131764500D03*
X255772005Y-131764500D03*
X257042008Y-131764500D03*
X258312010Y-131764500D03*
X259582013Y-131764500D03*
D39*
X251536200Y-214934800D03*
X250516200Y-214934800D03*
D12*
X95074800Y-92100400D03*
X96034800Y-92100400D03*
D15*
X230161100Y-113311400D03*
X230161100Y-112291400D03*
D47*
X101170000Y-159867600D03*
X101170000Y-158597600D03*
X101170000Y-157327600D03*
X101170000Y-156057600D03*
X101170000Y-154787600D03*
X101170000Y-153517600D03*
X101170000Y-152247600D03*
X101170000Y-150977600D03*
X101170000Y-149707600D03*
X101170000Y-148437600D03*
X91870000Y-148437600D03*
X91870000Y-149707600D03*
X91870000Y-150977600D03*
X91870000Y-152247600D03*
X91870000Y-153517600D03*
X91870000Y-154787600D03*
X91870000Y-156057600D03*
X91870000Y-157327600D03*
X91870000Y-158597600D03*
X91870000Y-159867600D03*
D39*
X96141000Y-98602800D03*
X95121000Y-98602800D03*
D66*
X251961998Y-134675330D03*
X251961998Y-136325330D03*
D16*
X63754000Y-47526000D03*
X63754000Y-48486000D03*
D36*
X272793053Y-53949600D03*
X267452947Y-53949600D03*
D39*
X62931038Y-78742000D03*
X61911038Y-78742000D03*
D67*
X206603604Y-86842594D03*
X205333601Y-86842594D03*
X204063599Y-86842594D03*
X202793596Y-86842594D03*
X202793596Y-93040206D03*
X204063599Y-93040206D03*
X205333601Y-93040206D03*
X206603604Y-93040206D03*
D17*
X237814200Y-229491000D03*
X237814200Y-230511000D03*
D39*
X265226800Y-233959400D03*
X264206800Y-233959400D03*
D12*
X56289000Y-48006000D03*
X57249000Y-48006000D03*
D17*
X100380800Y-123769900D03*
X100380800Y-124789900D03*
D16*
X133009824Y-240383241D03*
X133009824Y-241343241D03*
X85090000Y-62484000D03*
X85090000Y-63444000D03*
D68*
X53127589Y-42122411D03*
X53806411Y-41443589D03*
D13*
X127181400Y-161056200D03*
X127181400Y-160096200D03*
D21*
X72093000Y-78421218D03*
X72093000Y-76488782D03*
D36*
X196840947Y-61137800D03*
X202181053Y-61137800D03*
D69*
X56031687Y-153609038D03*
X56031687Y-155508962D03*
X58501841Y-154559000D03*
D47*
X139623800Y-175717200D03*
X139623800Y-174447200D03*
X139623800Y-173177200D03*
X139623800Y-171907200D03*
X139623800Y-170637200D03*
X139623800Y-169367200D03*
X139623800Y-168097200D03*
X139623800Y-166827200D03*
X139623800Y-165557200D03*
X139623800Y-164287200D03*
X130323800Y-164287200D03*
X130323800Y-165557200D03*
X130323800Y-166827200D03*
X130323800Y-168097200D03*
X130323800Y-169367200D03*
X130323800Y-170637200D03*
X130323800Y-171907200D03*
X130323800Y-173177200D03*
X130323800Y-174447200D03*
X130323800Y-175717200D03*
D15*
X254609600Y-245668800D03*
X254609600Y-244648800D03*
D70*
X103114600Y-97405311D03*
X103835848Y-98126559D03*
D15*
X82372200Y-137541000D03*
X82372200Y-136521000D03*
D13*
X88493600Y-159557600D03*
X88493600Y-158597600D03*
D32*
X229426102Y-65963800D03*
X231825898Y-65963800D03*
D64*
X156258500Y-174178000D03*
X156258500Y-172278000D03*
X154383500Y-173228000D03*
D18*
X177159000Y-42887600D03*
X177159000Y-44437600D03*
D11*
X56259000Y-49149000D03*
X57279000Y-49149000D03*
D66*
X81026000Y-155867600D03*
X81026000Y-157517600D03*
D12*
X56289000Y-46992000D03*
X57249000Y-46992000D03*
X234927200Y-223215200D03*
X235887200Y-223215200D03*
D71*
X85518089Y-54689003D03*
X82978084Y-54689003D03*
X80438079Y-54689003D03*
X85518267Y-42086005D03*
X82978084Y-42086259D03*
X80438079Y-42086259D03*
D72*
X89068178Y-47591974D03*
X89068178Y-50292000D03*
X74168000Y-47591974D03*
X74168000Y-50292000D03*
D15*
X246049800Y-245670800D03*
X246049800Y-244650800D03*
X224242900Y-118543800D03*
X224242900Y-117523800D03*
D36*
X181353053Y-53949600D03*
X176012947Y-53949600D03*
D12*
X63020000Y-57023000D03*
X63980000Y-57023000D03*
D15*
X57912000Y-58803000D03*
X57912000Y-57783000D03*
D12*
X239550000Y-218694000D03*
X240510000Y-218694000D03*
D29*
X225947000Y-112354400D03*
X225947000Y-114254400D03*
X227822000Y-113304400D03*
D17*
X111455200Y-123769900D03*
X111455200Y-124789900D03*
D15*
X249301000Y-245670800D03*
X249301000Y-244650800D03*
D11*
X145542000Y-63500000D03*
X146562000Y-63500000D03*
D28*
X61409076Y-37084000D03*
X57208924Y-37084000D03*
D11*
X199535800Y-100300000D03*
X200555800Y-100300000D03*
D17*
X82372200Y-138476800D03*
X82372200Y-139496800D03*
X253796800Y-213838600D03*
X253796800Y-214858600D03*
D39*
X262511000Y-236778800D03*
X261491000Y-236778800D03*
D15*
X230161100Y-123041600D03*
X230161100Y-122021600D03*
D73*
X55330411Y-39919589D03*
X54651589Y-40598411D03*
D74*
X45466000Y-180909500D03*
X45466000Y-183834500D03*
D11*
X43176000Y-35179000D03*
X44196000Y-35179000D03*
D22*
X55598000Y-58801000D03*
X54638000Y-58801000D03*
D75*
X105338635Y-98054546D03*
X104659813Y-97375724D03*
D49*
X98917800Y-121896900D03*
X97017800Y-121896900D03*
X97967800Y-123771900D03*
D62*
X188960853Y-43688000D03*
X190610853Y-43688000D03*
D16*
X208991200Y-90604400D03*
X208991200Y-91564400D03*
D17*
X252780800Y-213838600D03*
X252780800Y-214858600D03*
D23*
X195764000Y-45466000D03*
X194114000Y-45466000D03*
D11*
X97026000Y-120190500D03*
X98046000Y-120190500D03*
D39*
X64010000Y-54991000D03*
X62990000Y-54991000D03*
D16*
X89560400Y-148745000D03*
X89560400Y-149705000D03*
D15*
X98755200Y-237494000D03*
X98755200Y-236474000D03*
D49*
X93380600Y-121896900D03*
X91480600Y-121896900D03*
X92430600Y-123771900D03*
D16*
X53975000Y-48542000D03*
X53975000Y-49502000D03*
D12*
X72976800Y-103403400D03*
X73936800Y-103403400D03*
D76*
X266224105Y-48361604D03*
X266224105Y-47091601D03*
X266224105Y-45821599D03*
X266224105Y-44551596D03*
X260813895Y-44551596D03*
X260813895Y-45821599D03*
X260813895Y-47091601D03*
X260813895Y-48361604D03*
D21*
X82042000Y-78410818D03*
X82042000Y-76478382D03*
D17*
X249504200Y-215898000D03*
X249504200Y-216918000D03*
D16*
X65532000Y-50701000D03*
X65532000Y-51661000D03*
D17*
X157962600Y-167452000D03*
X157962600Y-168472000D03*
D12*
X73942000Y-101346000D03*
X74902000Y-101346000D03*
D13*
X251053600Y-240309400D03*
X251053600Y-239349400D03*
D22*
X256816800Y-222808800D03*
X255856800Y-222808800D03*
D39*
X75688000Y-216918000D03*
X74668000Y-216918000D03*
D19*
X161919000Y-47003000D03*
X161919000Y-45453000D03*
D77*
X244832033Y-252687706D03*
X245781995Y-252687706D03*
X246731957Y-252687706D03*
X246731957Y-250087756D03*
X244832033Y-250087756D03*
D28*
X103903276Y-107061000D03*
X99703124Y-107061000D03*
D39*
X262511000Y-232308400D03*
X261491000Y-232308400D03*
D76*
X127713929Y-241345845D03*
X127713929Y-240075842D03*
X127713929Y-238805840D03*
X127713929Y-237535837D03*
X122303719Y-237535837D03*
X122303719Y-238805840D03*
X122303719Y-240075842D03*
X122303719Y-241345845D03*
D52*
X246393000Y-248412000D03*
X244843000Y-248412000D03*
D17*
X92069000Y-42797000D03*
X92069000Y-43817000D03*
D12*
X76975000Y-73821782D03*
X77935000Y-73821782D03*
D13*
X253085600Y-240309400D03*
X253085600Y-239349400D03*
D16*
X84074000Y-62484000D03*
X84074000Y-63444000D03*
D28*
X48572924Y-37084000D03*
X52773076Y-37084000D03*
D13*
X232791000Y-237972600D03*
X232791000Y-237012600D03*
D62*
X251899000Y-93474000D03*
X253549000Y-93474000D03*
D22*
X70033000Y-72805782D03*
X69073000Y-72805782D03*
D11*
X143244024Y-241345841D03*
X144264024Y-241345841D03*
D16*
X141654000Y-165864600D03*
X141654000Y-166824600D03*
D12*
X260555800Y-159308800D03*
X261515800Y-159308800D03*
D78*
X59012076Y-43472987D03*
X56811924Y-43472987D03*
X56811924Y-45173013D03*
X59012076Y-45173013D03*
D12*
X71740000Y-74837782D03*
X72700000Y-74837782D03*
D32*
X76764898Y-93345000D03*
X74365102Y-93345000D03*
D16*
X141654000Y-168404600D03*
X141654000Y-169364600D03*
D17*
X62611000Y-48512000D03*
X62611000Y-49532000D03*
D22*
X75367000Y-72805782D03*
X74407000Y-72805782D03*
D11*
X91488800Y-120190500D03*
X92508800Y-120190500D03*
D15*
X230149400Y-103864600D03*
X230149400Y-102844600D03*
D39*
X75688000Y-208409000D03*
X74668000Y-208409000D03*
D13*
X255168400Y-240837600D03*
X255168400Y-239877600D03*
D16*
X87757000Y-69342000D03*
X87757000Y-70302000D03*
D22*
X259864800Y-223570800D03*
X258904800Y-223570800D03*
D12*
X70944800Y-54660800D03*
X71904800Y-54660800D03*
D24*
X64720218Y-44450000D03*
X62787782Y-44450000D03*
D13*
X256159000Y-240837600D03*
X256159000Y-239877600D03*
D39*
X92000800Y-112826800D03*
X90980800Y-112826800D03*
D76*
X235744105Y-48361604D03*
X235744105Y-47091601D03*
X235744105Y-45821599D03*
X235744105Y-44551596D03*
X230333895Y-44551596D03*
X230333895Y-45821599D03*
X230333895Y-47091601D03*
X230333895Y-48361604D03*
D39*
X262509000Y-227380800D03*
X261489000Y-227380800D03*
D12*
X97919600Y-94335600D03*
X98879600Y-94335600D03*
X244553800Y-240360200D03*
X245513800Y-240360200D03*
D18*
X250183998Y-134713130D03*
X250183998Y-136263130D03*
D17*
X123901200Y-135255000D03*
X123901200Y-136275000D03*
D50*
X267944600Y-88440000D03*
X274444472Y-88440000D03*
X267944600Y-91440000D03*
X274444472Y-91440000D03*
D11*
X199535800Y-99284000D03*
X200555800Y-99284000D03*
D30*
X220593000Y-63200000D03*
X220593000Y-64830000D03*
D22*
X266316400Y-218795600D03*
X265356400Y-218795600D03*
D52*
X259595000Y-133923500D03*
X258045000Y-133923500D03*
D13*
X247484900Y-240792000D03*
X247484900Y-239832000D03*
D22*
X70033000Y-73821782D03*
X69073000Y-73821782D03*
D12*
X81661000Y-31877000D03*
X82621000Y-31877000D03*
X239550000Y-221742000D03*
X240510000Y-221742000D03*
D22*
X75367000Y-74837782D03*
X74407000Y-74837782D03*
D11*
X255445800Y-220548200D03*
X256465800Y-220548200D03*
D79*
X45665873Y-36460936D03*
X45266127Y-36460936D03*
D80*
X44715962Y-36611000D03*
X44715962Y-37011102D03*
X44715962Y-37410848D03*
X44715962Y-37810949D03*
D79*
X45266127Y-37961038D03*
X45665873Y-37961038D03*
D80*
X46216038Y-37810949D03*
X46216038Y-37410848D03*
X46216038Y-37011102D03*
X46216038Y-36611000D03*
D13*
X104419400Y-159560200D03*
X104419400Y-158600200D03*
D36*
X257800947Y-61137800D03*
X263141053Y-61137800D03*
D12*
X97919600Y-93319600D03*
X98879600Y-93319600D03*
D81*
X65209000Y-77250500D03*
X67109000Y-77250500D03*
X66159000Y-75375500D03*
D17*
X94843600Y-123769900D03*
X94843600Y-124789900D03*
D15*
X224231200Y-123989600D03*
X224231200Y-122969600D03*
D13*
X58191400Y-95958600D03*
X58191400Y-94998600D03*
D16*
X83693000Y-32131000D03*
X83693000Y-33091000D03*
D15*
X237814200Y-228475000D03*
X237814200Y-227455000D03*
D17*
X90754200Y-195834000D03*
X90754200Y-196854000D03*
D13*
X234772200Y-237972600D03*
X234772200Y-237012600D03*
D55*
X220593000Y-53949594D03*
X220593000Y-59791606D03*
D11*
X108098400Y-120190500D03*
X109118400Y-120190500D03*
D62*
X219440853Y-43688000D03*
X221090853Y-43688000D03*
D82*
X49276000Y-30450407D03*
X49276000Y-32795593D03*
D21*
X69680000Y-78421218D03*
X69680000Y-76488782D03*
D52*
X259976000Y-111635000D03*
X258426000Y-111635000D03*
D29*
X225935300Y-102912600D03*
X225935300Y-104812600D03*
X227810300Y-103862600D03*
D13*
X257403600Y-238732000D03*
X257403600Y-237772000D03*
D64*
X156260800Y-169352000D03*
X156260800Y-167452000D03*
X154385800Y-168402000D03*
D13*
X207949800Y-94000200D03*
X207949800Y-93040200D03*
D22*
X95704600Y-108026200D03*
X94744600Y-108026200D03*
D66*
X160141000Y-45403000D03*
X160141000Y-47053000D03*
D83*
X42026054Y-29565807D03*
X42026054Y-30365908D03*
D84*
X42026054Y-31516023D03*
X42026054Y-32516023D03*
X42026054Y-33015895D03*
X42026054Y-34015895D03*
D83*
X42026054Y-35965857D03*
X42026054Y-35166010D03*
D84*
X42026054Y-34516023D03*
X42026054Y-33516023D03*
X42026054Y-32015895D03*
X42026054Y-31015895D03*
D28*
X137312400Y-144043400D03*
X141512552Y-144043400D03*
D17*
X157960300Y-157537000D03*
X157960300Y-158557000D03*
D85*
X42926000Y-183848800D03*
X42926000Y-180898800D03*
D62*
X258376000Y-113286000D03*
X260026000Y-113286000D03*
D11*
X84935600Y-151638000D03*
X85955600Y-151638000D03*
D64*
X156258500Y-159446000D03*
X156258500Y-157546000D03*
X154383500Y-158496000D03*
D36*
X166360947Y-61137800D03*
X171701053Y-61137800D03*
X211833053Y-53949600D03*
X206492947Y-53949600D03*
D39*
X64010000Y-56007000D03*
X62990000Y-56007000D03*
D48*
X81026000Y-153098000D03*
X81026000Y-151448000D03*
D49*
X117155000Y-133380000D03*
X115255000Y-133380000D03*
X116205000Y-135255000D03*
D22*
X258848800Y-226618800D03*
X257888800Y-226618800D03*
D39*
X122836400Y-119735600D03*
X121816400Y-119735600D03*
D15*
X248285000Y-245668800D03*
X248285000Y-244648800D03*
D13*
X254076200Y-240309400D03*
X254076200Y-239349400D03*
D11*
X127252000Y-171907200D03*
X128272000Y-171907200D03*
D76*
X270789410Y-217195408D03*
X270789410Y-215925405D03*
X270789410Y-214655403D03*
X270789410Y-213385400D03*
X265379200Y-213385400D03*
X265379200Y-214655403D03*
X265379200Y-215925405D03*
X265379200Y-217195408D03*
D22*
X247495000Y-242290600D03*
X246535000Y-242290600D03*
D39*
X265230800Y-235051600D03*
X264210800Y-235051600D03*
D23*
X226244000Y-45466000D03*
X224594000Y-45466000D03*
D49*
X127721400Y-133377700D03*
X125821400Y-133377700D03*
X126771400Y-135252700D03*
D15*
X253339600Y-245668800D03*
X253339600Y-244648800D03*
D39*
X265228800Y-230428800D03*
X264208800Y-230428800D03*
D28*
X51874924Y-30480000D03*
X56075076Y-30480000D03*
D15*
X85719000Y-196854000D03*
X85719000Y-195834000D03*
D66*
X221101000Y-45403000D03*
X221101000Y-47053000D03*
D12*
X71740000Y-72805782D03*
X72700000Y-72805782D03*
D13*
X77368400Y-114904400D03*
X77368400Y-113944400D03*
D15*
X224242900Y-113362200D03*
X224242900Y-112342200D03*
D12*
X71740000Y-73821782D03*
X72700000Y-73821782D03*
D11*
X108762800Y-100812600D03*
X109782800Y-100812600D03*
D44*
X69844000Y-181107053D03*
X69844000Y-175766947D03*
D13*
X88392000Y-112849600D03*
X88392000Y-111889600D03*
D22*
X82550000Y-74041000D03*
X81590000Y-74041000D03*
D32*
X198946102Y-65963800D03*
X201345898Y-65963800D03*
D11*
X103579200Y-102362000D03*
X104599200Y-102362000D03*
D24*
X87834218Y-65151000D03*
X85901782Y-65151000D03*
D39*
X265228800Y-231597200D03*
X264208800Y-231597200D03*
D32*
X98755200Y-239143000D03*
X101154996Y-239143000D03*
D62*
X251905000Y-91440000D03*
X253555000Y-91440000D03*
D11*
X248484200Y-214934800D03*
X249504200Y-214934800D03*
D55*
X190113000Y-53949594D03*
X190113000Y-59791606D03*
D12*
X81407000Y-142316200D03*
X82367000Y-142316200D03*
D17*
X245307200Y-219555600D03*
X245307200Y-220575600D03*
D55*
X159633000Y-53949594D03*
X159633000Y-59791606D03*
D22*
X258848800Y-227634800D03*
X257888800Y-227634800D03*
D86*
X260344000Y-148973000D03*
X260344000Y-147073076D03*
X258344000Y-148023038D03*
D39*
X75688000Y-209425000D03*
X74668000Y-209425000D03*
D69*
X56031688Y-156911038D03*
X56031688Y-158810962D03*
X58501842Y-157861000D03*
D12*
X244553800Y-239344200D03*
X245513800Y-239344200D03*
X97919600Y-95478600D03*
X98879600Y-95478600D03*
D15*
X84576000Y-237494000D03*
X84576000Y-236474000D03*
D13*
X233781600Y-237970000D03*
X233781600Y-237010000D03*
D11*
X196104800Y-99284000D03*
X197124800Y-99284000D03*
D17*
X233984800Y-242263200D03*
X233984800Y-243283200D03*
D32*
X259909155Y-65963800D03*
X262308951Y-65963800D03*
D11*
X143242024Y-240075841D03*
X144262024Y-240075841D03*
X95224600Y-105333800D03*
X96244600Y-105333800D03*
D12*
X95074800Y-88950800D03*
X96034800Y-88950800D03*
D87*
X45726989Y-72585064D03*
X45726989Y-72084937D03*
X45726989Y-71585064D03*
X45726989Y-71084937D03*
X45726989Y-70585064D03*
X45726989Y-70084937D03*
X45726989Y-69585064D03*
X45726989Y-69084937D03*
X45726989Y-68585064D03*
X45726989Y-68084937D03*
X45726989Y-67585064D03*
X45726989Y-67084937D03*
X45726989Y-66585064D03*
X45726989Y-66084937D03*
X45726989Y-65585064D03*
X45726989Y-65084937D03*
X45726989Y-64585064D03*
X45726989Y-64084937D03*
X45726989Y-63585064D03*
D23*
X261360000Y-152275000D03*
X259710000Y-152275000D03*
D29*
X225937600Y-122087600D03*
X225937600Y-123987600D03*
X227812600Y-123037600D03*
D61*
X63615024Y-61724000D03*
X70484976Y-61724000D03*
D49*
X104455000Y-121896900D03*
X102555000Y-121896900D03*
X103505000Y-123771900D03*
D17*
X66548000Y-50671000D03*
X66548000Y-51691000D03*
D52*
X229877000Y-49758600D03*
X228327000Y-49758600D03*
D12*
X79177000Y-72721218D03*
X80137000Y-72721218D03*
D17*
X79400400Y-141298200D03*
X79400400Y-142318200D03*
D11*
X267508800Y-211988400D03*
X268528800Y-211988400D03*
D29*
X225937600Y-97705600D03*
X225937600Y-99605600D03*
X227812600Y-98655600D03*
D12*
X95074800Y-89966800D03*
X96034800Y-89966800D03*
D39*
X72087200Y-100253800D03*
X71067200Y-100253800D03*
D16*
X88900000Y-69342000D03*
X88900000Y-70302000D03*
D30*
X251073000Y-63200000D03*
X251073000Y-64830000D03*
D11*
X125829600Y-131673600D03*
X126849600Y-131673600D03*
D39*
X262513000Y-235661200D03*
X261493000Y-235661200D03*
X254814800Y-212877400D03*
X253794800Y-212877400D03*
D62*
X158480853Y-43688000D03*
X160130853Y-43688000D03*
D11*
X108760800Y-98323400D03*
X109780800Y-98323400D03*
D12*
X81409600Y-143306800D03*
X82369600Y-143306800D03*
D13*
X89560400Y-159557600D03*
X89560400Y-158597600D03*
D28*
X92125800Y-143230600D03*
X96325952Y-143230600D03*
D48*
X125171200Y-157162000D03*
X125171200Y-155512000D03*
D24*
X126034018Y-167210749D03*
X124101582Y-167210749D03*
D13*
X128065000Y-166519800D03*
X128065000Y-165559800D03*
D12*
X76177200Y-110388400D03*
X77137200Y-110388400D03*
D62*
X249931000Y-43675600D03*
X251581000Y-43675600D03*
D11*
X127252000Y-155016200D03*
X128272000Y-155016200D03*
D17*
X256844800Y-211884800D03*
X256844800Y-212904800D03*
D19*
X258439000Y-46990600D03*
X258439000Y-45440600D03*
D17*
X80416400Y-143304800D03*
X80416400Y-144324800D03*
D32*
X267425854Y-229795800D03*
X269825650Y-229795800D03*
D13*
X58191400Y-115237200D03*
X58191400Y-114277200D03*
D22*
X258848800Y-228650800D03*
X257888800Y-228650800D03*
D19*
X222879000Y-47003000D03*
X222879000Y-45453000D03*
D15*
X85719000Y-237494000D03*
X85719000Y-236474000D03*
D12*
X73942000Y-102336600D03*
X74902000Y-102336600D03*
D15*
X79400400Y-144324800D03*
X79400400Y-143304800D03*
D11*
X123391200Y-117602000D03*
X124411200Y-117602000D03*
D44*
X62605000Y-240282947D03*
X62605000Y-245623053D03*
D16*
X141659400Y-151513600D03*
X141659400Y-152473600D03*
X142802400Y-154053600D03*
X142802400Y-155013600D03*
X84836000Y-32131000D03*
X84836000Y-33091000D03*
D81*
X61407000Y-77282500D03*
X63307000Y-77282500D03*
X62357000Y-75407500D03*
D22*
X258848800Y-224586800D03*
X257888800Y-224586800D03*
D12*
X234927200Y-224231200D03*
X235887200Y-224231200D03*
D22*
X57757000Y-60452000D03*
X56797000Y-60452000D03*
X82550000Y-72009000D03*
X81590000Y-72009000D03*
D12*
X95074800Y-91084400D03*
X96034800Y-91084400D03*
D16*
X84988400Y-91976000D03*
X84988400Y-92936000D03*
D15*
X87020400Y-114532600D03*
X87020400Y-113512600D03*
D24*
X126038400Y-150291800D03*
X124105964Y-150291800D03*
D11*
X95220600Y-104140000D03*
X96240600Y-104140000D03*
X267514800Y-210972400D03*
X268534800Y-210972400D03*
D12*
X76975000Y-74837782D03*
X77935000Y-74837782D03*
D36*
X227320947Y-61137800D03*
X232661053Y-61137800D03*
D17*
X71932800Y-42085800D03*
X71932800Y-43105800D03*
D22*
X272387000Y-155448000D03*
X271427000Y-155448000D03*
D39*
X80418400Y-134391400D03*
X79398400Y-134391400D03*
D88*
X259582008Y-115596836D03*
X258312005Y-115596836D03*
X257042003Y-115596836D03*
X255772000Y-115596836D03*
X254501997Y-115596836D03*
X253231995Y-115596836D03*
X251961992Y-115596836D03*
X251961992Y-121135063D03*
X253231995Y-121135063D03*
X254501997Y-121135063D03*
X255772000Y-121135063D03*
X257042003Y-121135063D03*
X258312005Y-121135063D03*
X259582008Y-121135063D03*
D16*
X86106000Y-62484000D03*
X86106000Y-63444000D03*
D22*
X75367000Y-73821782D03*
X74407000Y-73821782D03*
D11*
X245307200Y-218543600D03*
X246327200Y-218543600D03*
X144526000Y-62357000D03*
X145546000Y-62357000D03*
D44*
X62605000Y-181107053D03*
X62605000Y-175766947D03*
D66*
X190621000Y-45403000D03*
X190621000Y-47053000D03*
D60*
X87497000Y-182557898D03*
X87497000Y-180158102D03*
D16*
X119370024Y-240385601D03*
X119370024Y-241345601D03*
D15*
X224231200Y-98708400D03*
X224231200Y-97688400D03*
D12*
X76357000Y-34556422D03*
X77317000Y-34556422D03*
D61*
X165088024Y-53949600D03*
X171957976Y-53949600D03*
D81*
X197068400Y-90751900D03*
X198968400Y-90751900D03*
X198018400Y-88876900D03*
D12*
X235886400Y-228475000D03*
X236846400Y-228475000D03*
D22*
X95704600Y-107010200D03*
X94744600Y-107010200D03*
D15*
X152677100Y-158482800D03*
X152677100Y-157462800D03*
X84988400Y-113436400D03*
X84988400Y-112416400D03*
D22*
X259864800Y-222554800D03*
X258904800Y-222554800D03*
D16*
X46228000Y-34572000D03*
X46228000Y-35532000D03*
D39*
X71932800Y-55676800D03*
X70912800Y-55676800D03*
D22*
X258848800Y-229666800D03*
X257888800Y-229666800D03*
D66*
X251581000Y-45390600D03*
X251581000Y-47040600D03*
D12*
X233454000Y-227025200D03*
X234414000Y-227025200D03*
D49*
X122438200Y-133377700D03*
X120538200Y-133377700D03*
X121488200Y-135252700D03*
D13*
X79603600Y-114907000D03*
X79603600Y-113947000D03*
D23*
X265823200Y-91440000D03*
X264173200Y-91440000D03*
D12*
X234927200Y-233680000D03*
X235887200Y-233680000D03*
D66*
X253739998Y-134675330D03*
X253739998Y-136325330D03*
D15*
X236626400Y-245670800D03*
X236626400Y-244650800D03*
D16*
X131927600Y-240388200D03*
X131927600Y-241348200D03*
D76*
X174784105Y-48361604D03*
X174784105Y-47091601D03*
X174784105Y-45821599D03*
X174784105Y-44551596D03*
X169373895Y-44551596D03*
X169373895Y-45821599D03*
X169373895Y-47091601D03*
X169373895Y-48361604D03*
D39*
X262513000Y-231190800D03*
X261493000Y-231190800D03*
D64*
X212771200Y-93990200D03*
X212771200Y-92090200D03*
X210896200Y-93040200D03*
D13*
X237998000Y-237970000D03*
X237998000Y-237010000D03*
D16*
X257911600Y-222633600D03*
X257911600Y-223593600D03*
D13*
X128070400Y-152168800D03*
X128070400Y-151208800D03*
D11*
X84935600Y-157327600D03*
X85955600Y-157327600D03*
D13*
X122101400Y-152168800D03*
X122101400Y-151208800D03*
X256387600Y-238732000D03*
X256387600Y-237772000D03*
D61*
X195568024Y-53949600D03*
X202437976Y-53949600D03*
D89*
X76555600Y-96133153D03*
X76555600Y-96532949D03*
X76555600Y-96933000D03*
X76555600Y-97333051D03*
X76555600Y-97733102D03*
X76555600Y-98133153D03*
X76555600Y-98532949D03*
X76555600Y-98933000D03*
X76555600Y-99333051D03*
X76555600Y-99733102D03*
X76555600Y-100133153D03*
X76555600Y-100532949D03*
X76555600Y-100933000D03*
X76555600Y-101333051D03*
X76555600Y-101733102D03*
X76555600Y-102133153D03*
X76555600Y-102532949D03*
X76555600Y-102933000D03*
X76555600Y-103333051D03*
X76555600Y-103733102D03*
X76555600Y-104133153D03*
X76555600Y-104532949D03*
X76555600Y-104933000D03*
X76555600Y-105333051D03*
X76555600Y-105733102D03*
X76555600Y-106133153D03*
X76555600Y-106532949D03*
X76555600Y-106933000D03*
X76555600Y-107333051D03*
X76555600Y-107733102D03*
X76555600Y-108133153D03*
X76555600Y-108532949D03*
D90*
X77985623Y-109962972D03*
X78385419Y-109962972D03*
X78785470Y-109962972D03*
X79185521Y-109962972D03*
X79585572Y-109962972D03*
X79985623Y-109962972D03*
X80385419Y-109962972D03*
X80785470Y-109962972D03*
X81185521Y-109962972D03*
X81585572Y-109962972D03*
X81985623Y-109962972D03*
X82385419Y-109962972D03*
X82785470Y-109962972D03*
X83185521Y-109962972D03*
X83585572Y-109962972D03*
X83985623Y-109962972D03*
X84385419Y-109962972D03*
X84785470Y-109962972D03*
X85185521Y-109962972D03*
X85585572Y-109962972D03*
X85985623Y-109962972D03*
X86385419Y-109962972D03*
X86785470Y-109962972D03*
X87185521Y-109962972D03*
X87585572Y-109962972D03*
X87985623Y-109962972D03*
X88385419Y-109962972D03*
X88785470Y-109962972D03*
X89185521Y-109962972D03*
X89585572Y-109962972D03*
X89985623Y-109962972D03*
X90385419Y-109962972D03*
D89*
X91815442Y-108532949D03*
X91815442Y-108133153D03*
X91815442Y-107733102D03*
X91815442Y-107333051D03*
X91815442Y-106933000D03*
X91815442Y-106532949D03*
X91815442Y-106133153D03*
X91815442Y-105733102D03*
X91815442Y-105333051D03*
X91815442Y-104933000D03*
X91815442Y-104532949D03*
X91815442Y-104133153D03*
X91815442Y-103733102D03*
X91815442Y-103333051D03*
X91815442Y-102933000D03*
X91815442Y-102532949D03*
X91815442Y-102133153D03*
X91815442Y-101733102D03*
X91815442Y-101333051D03*
X91815442Y-100933000D03*
X91815442Y-100532949D03*
X91815442Y-100133153D03*
X91815442Y-99733102D03*
X91815442Y-99333051D03*
X91815442Y-98933000D03*
X91815442Y-98532949D03*
X91815442Y-98133153D03*
X91815442Y-97733102D03*
X91815442Y-97333051D03*
X91815442Y-96933000D03*
X91815442Y-96532949D03*
X91815442Y-96133153D03*
D90*
X90385419Y-94703130D03*
X89985623Y-94703130D03*
X89585572Y-94703130D03*
X89185521Y-94703130D03*
X88785470Y-94703130D03*
X88385419Y-94703130D03*
X87985623Y-94703130D03*
X87585572Y-94703130D03*
X87185521Y-94703130D03*
X86785470Y-94703130D03*
X86385419Y-94703130D03*
X85985623Y-94703130D03*
X85585572Y-94703130D03*
X85185521Y-94703130D03*
X84785470Y-94703130D03*
X84385419Y-94703130D03*
X83985623Y-94703130D03*
X83585572Y-94703130D03*
X83185521Y-94703130D03*
X82785470Y-94703130D03*
X82385419Y-94703130D03*
X81985623Y-94703130D03*
X81585572Y-94703130D03*
X81185521Y-94703130D03*
X80785470Y-94703130D03*
X80385419Y-94703130D03*
X79985623Y-94703130D03*
X79585572Y-94703130D03*
X79185521Y-94703130D03*
X78785470Y-94703130D03*
X78385419Y-94703130D03*
X77985623Y-94703130D03*
D76*
X205264105Y-48361604D03*
X205264105Y-47091601D03*
X205264105Y-45821599D03*
X205264105Y-44551596D03*
X199853895Y-44551596D03*
X199853895Y-45821599D03*
X199853895Y-47091601D03*
X199853895Y-48361604D03*
D32*
X112000796Y-105740200D03*
X109601000Y-105740200D03*
D15*
X66159000Y-73916000D03*
X66159000Y-72896000D03*
D17*
X255828800Y-211884800D03*
X255828800Y-212904800D03*
D15*
X98755200Y-196854000D03*
X98755200Y-195834000D03*
D52*
X259595000Y-123319000D03*
X258045000Y-123319000D03*
D22*
X268170600Y-155448000D03*
X267210600Y-155448000D03*
D39*
X262513000Y-233426000D03*
X261493000Y-233426000D03*
D11*
X84935600Y-156057600D03*
X85955600Y-156057600D03*
X127252000Y-157556200D03*
X128272000Y-157556200D03*
D15*
X86004400Y-114530600D03*
X86004400Y-113510600D03*
D30*
X159633000Y-63200000D03*
X159633000Y-64830000D03*
D17*
X92069000Y-54739000D03*
X92069000Y-55759000D03*
D19*
X192399000Y-47003000D03*
X192399000Y-45453000D03*
D17*
X105918000Y-123769900D03*
X105918000Y-124789900D03*
D88*
X251961992Y-109197164D03*
X253231995Y-109197164D03*
X254501997Y-109197164D03*
X255772000Y-109197164D03*
X257042003Y-109197164D03*
X258312005Y-109197164D03*
X259582008Y-109197164D03*
X259582008Y-103658937D03*
X258312005Y-103658937D03*
X257042003Y-103658937D03*
X255772000Y-103658937D03*
X254501997Y-103658937D03*
X253231995Y-103658937D03*
X251961992Y-103658937D03*
D22*
X97099000Y-97586800D03*
X96139000Y-97586800D03*
D60*
X97485200Y-110058200D03*
X97485200Y-112457996D03*
D19*
X166999000Y-47003000D03*
X166999000Y-45453000D03*
D17*
X129184400Y-135253000D03*
X129184400Y-136273000D03*
D12*
X233454000Y-230682800D03*
X234414000Y-230682800D03*
D17*
X113309400Y-135255000D03*
X113309400Y-136275000D03*
D12*
X76357000Y-33528000D03*
X77317000Y-33528000D03*
D18*
X207639000Y-42887600D03*
X207639000Y-44437600D03*
D62*
X257757000Y-137672038D03*
X259407000Y-137672038D03*
D29*
X225947000Y-117541000D03*
X225947000Y-119441000D03*
X227822000Y-118491000D03*
D23*
X256724000Y-45453600D03*
X255074000Y-45453600D03*
D11*
X73150000Y-60071000D03*
X74170000Y-60071000D03*
D62*
X251899000Y-101475000D03*
X253549000Y-101475000D03*
D11*
X196104800Y-100300000D03*
X197124800Y-100300000D03*
D15*
X230161100Y-118493000D03*
X230161100Y-117473000D03*
D76*
X141350942Y-241350726D03*
X141350942Y-240080723D03*
X141350942Y-238810721D03*
X141350942Y-237540718D03*
X135940732Y-237540718D03*
X135940732Y-238810721D03*
X135940732Y-240080723D03*
X135940732Y-241350726D03*
D15*
X84576000Y-196854000D03*
X84576000Y-195834000D03*
D39*
X262513000Y-234543600D03*
X261493000Y-234543600D03*
D91*
X54630376Y-42143624D03*
X55351624Y-41422376D03*
D92*
X80036918Y-33177984D03*
D93*
X80036918Y-33933127D03*
X80036918Y-34433000D03*
X80036918Y-34933127D03*
X80036918Y-35433000D03*
X82677000Y-35433000D03*
X82677000Y-34933127D03*
X82677000Y-34433000D03*
X82677000Y-33933127D03*
D92*
X82677000Y-33177984D03*
D94*
X81356959Y-34183064D03*
D49*
X111846400Y-133380000D03*
X109946400Y-133380000D03*
X110896400Y-135255000D03*
D19*
X253359000Y-46990600D03*
X253359000Y-45440600D03*
D11*
X254812800Y-210921600D03*
X255832800Y-210921600D03*
D13*
X127176000Y-175409800D03*
X127176000Y-174449800D03*
D16*
X83997800Y-91976000D03*
X83997800Y-92936000D03*
D18*
X253486000Y-98287000D03*
X253486000Y-99837000D03*
M02*
