G04 #@! TF.GenerationSoftware,KiCad,Pcbnew,7.0.8*
G04 #@! TF.CreationDate,2024-05-07T21:46:37+03:00*
G04 #@! TF.ProjectId,Tangenta,54616e67-656e-4746-912e-6b696361645f,rev?*
G04 #@! TF.SameCoordinates,Original*
G04 #@! TF.FileFunction,Copper,L4,Bot*
G04 #@! TF.FilePolarity,Positive*
%FSLAX46Y46*%
G04 Gerber Fmt 4.6, Leading zero omitted, Abs format (unit mm)*
G04 Created by KiCad (PCBNEW 7.0.8) date 2024-05-07 21:46:37*
%MOMM*%
%LPD*%
G01*
G04 APERTURE LIST*
G04 Aperture macros list*
%AMRoundRect*
0 Rectangle with rounded corners*
0 $1 Rounding radius*
0 $2 $3 $4 $5 $6 $7 $8 $9 X,Y pos of 4 corners*
0 Add a 4 corners polygon primitive as box body*
4,1,4,$2,$3,$4,$5,$6,$7,$8,$9,$2,$3,0*
0 Add four circle primitives for the rounded corners*
1,1,$1+$1,$2,$3*
1,1,$1+$1,$4,$5*
1,1,$1+$1,$6,$7*
1,1,$1+$1,$8,$9*
0 Add four rect primitives between the rounded corners*
20,1,$1+$1,$2,$3,$4,$5,0*
20,1,$1+$1,$4,$5,$6,$7,0*
20,1,$1+$1,$6,$7,$8,$9,0*
20,1,$1+$1,$8,$9,$2,$3,0*%
G04 Aperture macros list end*
G04 #@! TA.AperFunction,ComponentPad*
%ADD10R,1.700000X1.700000*%
G04 #@! TD*
G04 #@! TA.AperFunction,ComponentPad*
%ADD11O,1.700000X1.700000*%
G04 #@! TD*
G04 #@! TA.AperFunction,ComponentPad*
%ADD12C,1.000000*%
G04 #@! TD*
G04 #@! TA.AperFunction,ComponentPad*
%ADD13C,0.900000*%
G04 #@! TD*
G04 #@! TA.AperFunction,ComponentPad*
%ADD14C,8.000000*%
G04 #@! TD*
G04 #@! TA.AperFunction,ComponentPad*
%ADD15R,1.200000X1.200000*%
G04 #@! TD*
G04 #@! TA.AperFunction,ComponentPad*
%ADD16C,1.200000*%
G04 #@! TD*
G04 #@! TA.AperFunction,ComponentPad*
%ADD17C,1.549403*%
G04 #@! TD*
G04 #@! TA.AperFunction,ComponentPad*
%ADD18C,2.580645*%
G04 #@! TD*
G04 #@! TA.AperFunction,ComponentPad*
%ADD19R,1.000000X1.000000*%
G04 #@! TD*
G04 #@! TA.AperFunction,ComponentPad*
%ADD20O,1.000000X1.000000*%
G04 #@! TD*
G04 #@! TA.AperFunction,ComponentPad*
%ADD21C,1.100000*%
G04 #@! TD*
G04 #@! TA.AperFunction,ComponentPad*
%ADD22O,2.400000X1.100000*%
G04 #@! TD*
G04 #@! TA.AperFunction,ComponentPad*
%ADD23O,1.500000X2.100000*%
G04 #@! TD*
G04 #@! TA.AperFunction,ComponentPad*
%ADD24C,2.900000*%
G04 #@! TD*
G04 #@! TA.AperFunction,ComponentPad*
%ADD25C,5.300000*%
G04 #@! TD*
G04 #@! TA.AperFunction,ComponentPad*
%ADD26R,0.850000X0.850000*%
G04 #@! TD*
G04 #@! TA.AperFunction,ComponentPad*
%ADD27O,0.850000X0.850000*%
G04 #@! TD*
G04 #@! TA.AperFunction,ComponentPad*
%ADD28C,6.400000*%
G04 #@! TD*
G04 #@! TA.AperFunction,ComponentPad*
%ADD29C,4.400000*%
G04 #@! TD*
G04 #@! TA.AperFunction,ComponentPad*
%ADD30C,1.600000*%
G04 #@! TD*
G04 #@! TA.AperFunction,ComponentPad*
%ADD31O,2.400000X1.500000*%
G04 #@! TD*
G04 #@! TA.AperFunction,ComponentPad*
%ADD32O,2.100000X1.000000*%
G04 #@! TD*
G04 #@! TA.AperFunction,ComponentPad*
%ADD33O,1.800000X1.000000*%
G04 #@! TD*
G04 #@! TA.AperFunction,ComponentPad*
%ADD34R,1.730000X2.030000*%
G04 #@! TD*
G04 #@! TA.AperFunction,ComponentPad*
%ADD35O,1.730000X2.030000*%
G04 #@! TD*
G04 #@! TA.AperFunction,ComponentPad*
%ADD36C,1.295403*%
G04 #@! TD*
G04 #@! TA.AperFunction,ComponentPad*
%ADD37C,2.400000*%
G04 #@! TD*
G04 #@! TA.AperFunction,ComponentPad*
%ADD38C,1.650013*%
G04 #@! TD*
G04 #@! TA.AperFunction,ComponentPad*
%ADD39C,1.524003*%
G04 #@! TD*
G04 #@! TA.AperFunction,ComponentPad*
%ADD40O,3.300000X1.500000*%
G04 #@! TD*
G04 #@! TA.AperFunction,ComponentPad*
%ADD41O,2.300000X1.500000*%
G04 #@! TD*
G04 #@! TA.AperFunction,ComponentPad*
%ADD42C,1.800000*%
G04 #@! TD*
G04 #@! TA.AperFunction,ComponentPad*
%ADD43R,2.030000X1.730000*%
G04 #@! TD*
G04 #@! TA.AperFunction,ComponentPad*
%ADD44O,2.030000X1.730000*%
G04 #@! TD*
G04 #@! TA.AperFunction,SMDPad,CuDef*
%ADD45RoundRect,0.200000X-0.200000X-0.275000X0.200000X-0.275000X0.200000X0.275000X-0.200000X0.275000X0*%
G04 #@! TD*
G04 #@! TA.AperFunction,ViaPad*
%ADD46C,1.000000*%
G04 #@! TD*
G04 #@! TA.AperFunction,ViaPad*
%ADD47C,0.500000*%
G04 #@! TD*
G04 #@! TA.AperFunction,Conductor*
%ADD48C,0.508000*%
G04 #@! TD*
G04 #@! TA.AperFunction,Conductor*
%ADD49C,0.254000*%
G04 #@! TD*
G04 #@! TA.AperFunction,Conductor*
%ADD50C,0.250000*%
G04 #@! TD*
G04 #@! TA.AperFunction,Conductor*
%ADD51C,0.101600*%
G04 #@! TD*
G04 #@! TA.AperFunction,Conductor*
%ADD52C,0.381000*%
G04 #@! TD*
G04 #@! TA.AperFunction,Conductor*
%ADD53C,0.127000*%
G04 #@! TD*
G04 #@! TA.AperFunction,Conductor*
%ADD54C,0.177800*%
G04 #@! TD*
G04 #@! TA.AperFunction,Conductor*
%ADD55C,0.762000*%
G04 #@! TD*
G04 #@! TA.AperFunction,Conductor*
%ADD56C,0.152400*%
G04 #@! TD*
G04 #@! TA.AperFunction,Conductor*
%ADD57C,0.109220*%
G04 #@! TD*
G04 APERTURE END LIST*
D10*
X52552600Y-153116200D03*
D11*
X52552600Y-150576200D03*
D12*
X59863586Y-52333873D03*
X57863586Y-52333873D03*
X59863586Y-54333873D03*
X57863586Y-54333873D03*
D10*
X147218400Y-121666000D03*
D11*
X144678400Y-121666000D03*
X142138400Y-121666000D03*
X139598400Y-121666000D03*
X137058400Y-121666000D03*
D13*
X197400000Y-257050000D03*
X198278680Y-254928680D03*
X198278680Y-259171320D03*
X200400000Y-254050000D03*
D14*
X200400000Y-257050000D03*
D13*
X200400000Y-260050000D03*
X202521320Y-254928680D03*
X202521320Y-259171320D03*
X203400000Y-257050000D03*
D15*
X80750000Y-188094000D03*
D16*
X81750000Y-186094000D03*
X82750000Y-188094000D03*
X83750000Y-186094000D03*
X84750000Y-188094000D03*
X85750000Y-186094000D03*
X86750000Y-188094000D03*
X87750000Y-186094000D03*
X88750000Y-188094000D03*
X89750000Y-186094000D03*
X90750000Y-188094000D03*
X93750000Y-186094000D03*
X94750000Y-188094000D03*
X95750000Y-186094000D03*
X96750000Y-188094000D03*
X97750000Y-186094000D03*
X98750000Y-188094000D03*
X99750000Y-186094000D03*
X100750000Y-188094000D03*
X101750000Y-186094000D03*
X102750000Y-188094000D03*
X103750000Y-186094000D03*
X104750000Y-188094000D03*
X105750000Y-186094000D03*
X106750000Y-188094000D03*
X107750000Y-186094000D03*
X108750000Y-188094000D03*
X109750000Y-186094000D03*
X110750000Y-188094000D03*
X111750000Y-186094000D03*
X112750000Y-188094000D03*
X113750000Y-186094000D03*
X114750000Y-188094000D03*
X115750000Y-186094000D03*
X116750000Y-188094000D03*
X117750000Y-186094000D03*
X118750000Y-188094000D03*
X119750000Y-186094000D03*
X120750000Y-188094000D03*
X121750000Y-186094000D03*
X122750000Y-188094000D03*
X123750000Y-186094000D03*
X124750000Y-188094000D03*
X125750000Y-186094000D03*
X126750000Y-188094000D03*
X127750000Y-186094000D03*
X128750000Y-188094000D03*
X129750000Y-186094000D03*
X130750000Y-188094000D03*
X131750000Y-186094000D03*
X132750000Y-188094000D03*
X133750000Y-186094000D03*
X134750000Y-188094000D03*
X135750000Y-186094000D03*
X136750000Y-188094000D03*
X137750000Y-186094000D03*
X138750000Y-188094000D03*
X139750000Y-186094000D03*
X140750000Y-188094000D03*
X141750000Y-186094000D03*
X142750000Y-188094000D03*
X143750000Y-186094000D03*
X144750000Y-188094000D03*
X145750000Y-186094000D03*
X146750000Y-188094000D03*
X147750000Y-186094000D03*
X148750000Y-188094000D03*
X149750000Y-186094000D03*
X150750000Y-188094000D03*
X151750000Y-186094000D03*
X152750000Y-188094000D03*
X153750000Y-186094000D03*
X154750000Y-188094000D03*
X155750000Y-186094000D03*
X156750000Y-188094000D03*
X157750000Y-186094000D03*
X158750000Y-188094000D03*
X159750000Y-186094000D03*
X160750000Y-188094000D03*
X161750000Y-186094000D03*
X162750000Y-188094000D03*
X163750000Y-186094000D03*
X80750000Y-190594000D03*
X81750000Y-192594000D03*
X82750000Y-190594000D03*
X83750000Y-192594000D03*
X84750000Y-190594000D03*
X85750000Y-192594000D03*
X86750000Y-190594000D03*
X87750000Y-192594000D03*
X88750000Y-190594000D03*
X89750000Y-192594000D03*
X90750000Y-190594000D03*
X93750000Y-192594000D03*
X94750000Y-190594000D03*
X95750000Y-192594000D03*
X96750000Y-190594000D03*
X97750000Y-192594000D03*
X98750000Y-190594000D03*
X99750000Y-192594000D03*
X100750000Y-190594000D03*
X101750000Y-192594000D03*
X102750000Y-190594000D03*
X103750000Y-192594000D03*
X104750000Y-190594000D03*
X105750000Y-192594000D03*
X106750000Y-190594000D03*
X107750000Y-192594000D03*
X108750000Y-190594000D03*
X109750000Y-192594000D03*
X110750000Y-190594000D03*
X111750000Y-192594000D03*
X112750000Y-190594000D03*
X113750000Y-192594000D03*
X114750000Y-190594000D03*
X115750000Y-192594000D03*
X116750000Y-190594000D03*
X117750000Y-192594000D03*
X118750000Y-190594000D03*
X119750000Y-192594000D03*
X120750000Y-190594000D03*
X121750000Y-192594000D03*
X122750000Y-190594000D03*
X123750000Y-192594000D03*
X124750000Y-190594000D03*
X125750000Y-192594000D03*
X126750000Y-190594000D03*
X127750000Y-192594000D03*
X128750000Y-190594000D03*
X129750000Y-192594000D03*
X130750000Y-190594000D03*
X131750000Y-192594000D03*
X132750000Y-190594000D03*
X133750000Y-192594000D03*
X134750000Y-190594000D03*
X135750000Y-192594000D03*
X136750000Y-190594000D03*
X137750000Y-192594000D03*
X138750000Y-190594000D03*
X139750000Y-192594000D03*
X140750000Y-190594000D03*
X141750000Y-192594000D03*
X142750000Y-190594000D03*
X143750000Y-192594000D03*
X144750000Y-190594000D03*
X145750000Y-192594000D03*
X146750000Y-190594000D03*
X147750000Y-192594000D03*
X148750000Y-190594000D03*
X149750000Y-192594000D03*
X150750000Y-190594000D03*
X151750000Y-192594000D03*
X152750000Y-190594000D03*
X153750000Y-192594000D03*
X154750000Y-190594000D03*
X155750000Y-192594000D03*
X156750000Y-190594000D03*
X157750000Y-192594000D03*
X158750000Y-190594000D03*
X159750000Y-192594000D03*
X160750000Y-190594000D03*
X161750000Y-192594000D03*
X162750000Y-190594000D03*
X163750000Y-192594000D03*
D17*
X54423942Y-98401073D03*
X51883937Y-99671075D03*
X54423942Y-100941078D03*
X51883937Y-102211080D03*
X54423942Y-103481083D03*
X51883937Y-104751085D03*
X54423942Y-106021088D03*
X51883937Y-107291090D03*
X54423942Y-108561093D03*
X51883937Y-109831095D03*
X40634000Y-97496069D03*
X40634000Y-100036074D03*
X40634000Y-108206000D03*
X40634000Y-110746005D03*
D18*
X48583962Y-96375927D03*
X48583962Y-111865893D03*
D10*
X120142000Y-124226400D03*
D11*
X120142000Y-126766400D03*
D19*
X200853200Y-113390600D03*
D20*
X199583200Y-113390600D03*
X200853200Y-112120600D03*
X199583200Y-112120600D03*
X200853200Y-110850600D03*
X199583200Y-110850600D03*
D13*
X197400000Y-191010000D03*
X198278680Y-188888680D03*
X198278680Y-193131320D03*
X200400000Y-188010000D03*
D14*
X200400000Y-191010000D03*
D13*
X200400000Y-194010000D03*
X202521320Y-188888680D03*
X202521320Y-193131320D03*
X203400000Y-191010000D03*
D17*
X54423942Y-117197073D03*
X51883937Y-118467075D03*
X54423942Y-119737078D03*
X51883937Y-121007080D03*
X54423942Y-122277083D03*
X51883937Y-123547085D03*
X54423942Y-124817088D03*
X51883937Y-126087090D03*
X54423942Y-127357093D03*
X51883937Y-128627095D03*
X40634000Y-116292069D03*
X40634000Y-118832074D03*
X40634000Y-127002000D03*
X40634000Y-129542005D03*
D18*
X48583962Y-115171927D03*
X48583962Y-130661893D03*
D12*
X79364000Y-64523000D03*
X77464000Y-64523000D03*
X75564000Y-64523000D03*
X79364000Y-66423000D03*
X77464000Y-66423000D03*
X75564000Y-66423000D03*
X79364000Y-68323000D03*
X77464000Y-68323000D03*
X75564000Y-68323000D03*
D10*
X211201000Y-111353600D03*
D11*
X211201000Y-108813600D03*
X213741000Y-111353600D03*
X213741000Y-108813600D03*
X216281000Y-111353600D03*
X216281000Y-108813600D03*
X218821000Y-111353600D03*
X218821000Y-108813600D03*
X221361000Y-111353600D03*
X221361000Y-108813600D03*
D21*
X44328975Y-54479949D03*
X44328975Y-55880000D03*
X44328975Y-57280050D03*
X44328975Y-58680101D03*
D22*
X41729025Y-53880000D03*
D23*
X38729025Y-56580025D03*
D22*
X41729025Y-59280050D03*
D10*
X256407000Y-97919000D03*
D11*
X258947000Y-97919000D03*
X256407000Y-100459000D03*
X258947000Y-100459000D03*
D24*
X264400000Y-145520051D03*
X264400000Y-141319899D03*
X264400000Y-137120000D03*
X264400000Y-132919848D03*
X264400000Y-128719950D03*
X264400000Y-124520051D03*
X264400000Y-120319899D03*
X264400000Y-116120000D03*
X264400000Y-111919848D03*
X264400000Y-107719950D03*
X264400000Y-103520051D03*
X264400000Y-99319899D03*
X269900128Y-145520051D03*
X269900128Y-141319899D03*
X269900128Y-137120000D03*
X269900128Y-132919848D03*
X269900128Y-128719950D03*
X269900128Y-124520051D03*
X269900128Y-120319899D03*
X269900128Y-116120000D03*
X269900128Y-111919848D03*
X269900128Y-107719950D03*
X269900128Y-103520051D03*
X269900128Y-99319899D03*
D10*
X238099600Y-103761000D03*
D11*
X238099600Y-101221000D03*
X238099600Y-98681000D03*
D25*
X113780000Y-110560000D03*
D26*
X241154200Y-214630000D03*
D27*
X242154200Y-214630000D03*
X243154200Y-214630000D03*
X244154200Y-214630000D03*
X245154200Y-214630000D03*
X246154200Y-214630000D03*
D15*
X80750000Y-228734000D03*
D16*
X81750000Y-226734000D03*
X82750000Y-228734000D03*
X83750000Y-226734000D03*
X84750000Y-228734000D03*
X85750000Y-226734000D03*
X86750000Y-228734000D03*
X87750000Y-226734000D03*
X88750000Y-228734000D03*
X89750000Y-226734000D03*
X90750000Y-228734000D03*
X93750000Y-226734000D03*
X94750000Y-228734000D03*
X95750000Y-226734000D03*
X96750000Y-228734000D03*
X97750000Y-226734000D03*
X98750000Y-228734000D03*
X99750000Y-226734000D03*
X100750000Y-228734000D03*
X101750000Y-226734000D03*
X102750000Y-228734000D03*
X103750000Y-226734000D03*
X104750000Y-228734000D03*
X105750000Y-226734000D03*
X106750000Y-228734000D03*
X107750000Y-226734000D03*
X108750000Y-228734000D03*
X109750000Y-226734000D03*
X110750000Y-228734000D03*
X111750000Y-226734000D03*
X112750000Y-228734000D03*
X113750000Y-226734000D03*
X114750000Y-228734000D03*
X115750000Y-226734000D03*
X116750000Y-228734000D03*
X117750000Y-226734000D03*
X118750000Y-228734000D03*
X119750000Y-226734000D03*
X120750000Y-228734000D03*
X121750000Y-226734000D03*
X122750000Y-228734000D03*
X123750000Y-226734000D03*
X124750000Y-228734000D03*
X125750000Y-226734000D03*
X126750000Y-228734000D03*
X127750000Y-226734000D03*
X128750000Y-228734000D03*
X129750000Y-226734000D03*
X130750000Y-228734000D03*
X131750000Y-226734000D03*
X132750000Y-228734000D03*
X133750000Y-226734000D03*
X134750000Y-228734000D03*
X135750000Y-226734000D03*
X136750000Y-228734000D03*
X137750000Y-226734000D03*
X138750000Y-228734000D03*
X139750000Y-226734000D03*
X140750000Y-228734000D03*
X141750000Y-226734000D03*
X142750000Y-228734000D03*
X143750000Y-226734000D03*
X144750000Y-228734000D03*
X145750000Y-226734000D03*
X146750000Y-228734000D03*
X147750000Y-226734000D03*
X148750000Y-228734000D03*
X149750000Y-226734000D03*
X150750000Y-228734000D03*
X151750000Y-226734000D03*
X152750000Y-228734000D03*
X153750000Y-226734000D03*
X154750000Y-228734000D03*
X155750000Y-226734000D03*
X156750000Y-228734000D03*
X157750000Y-226734000D03*
X158750000Y-228734000D03*
X159750000Y-226734000D03*
X160750000Y-228734000D03*
X161750000Y-226734000D03*
X162750000Y-228734000D03*
X163750000Y-226734000D03*
X80750000Y-231234000D03*
X81750000Y-233234000D03*
X82750000Y-231234000D03*
X83750000Y-233234000D03*
X84750000Y-231234000D03*
X85750000Y-233234000D03*
X86750000Y-231234000D03*
X87750000Y-233234000D03*
X88750000Y-231234000D03*
X89750000Y-233234000D03*
X90750000Y-231234000D03*
X93750000Y-233234000D03*
X94750000Y-231234000D03*
X95750000Y-233234000D03*
X96750000Y-231234000D03*
X97750000Y-233234000D03*
X98750000Y-231234000D03*
X99750000Y-233234000D03*
X100750000Y-231234000D03*
X101750000Y-233234000D03*
X102750000Y-231234000D03*
X103750000Y-233234000D03*
X104750000Y-231234000D03*
X105750000Y-233234000D03*
X106750000Y-231234000D03*
X107750000Y-233234000D03*
X108750000Y-231234000D03*
X109750000Y-233234000D03*
X110750000Y-231234000D03*
X111750000Y-233234000D03*
X112750000Y-231234000D03*
X113750000Y-233234000D03*
X114750000Y-231234000D03*
X115750000Y-233234000D03*
X116750000Y-231234000D03*
X117750000Y-233234000D03*
X118750000Y-231234000D03*
X119750000Y-233234000D03*
X120750000Y-231234000D03*
X121750000Y-233234000D03*
X122750000Y-231234000D03*
X123750000Y-233234000D03*
X124750000Y-231234000D03*
X125750000Y-233234000D03*
X126750000Y-231234000D03*
X127750000Y-233234000D03*
X128750000Y-231234000D03*
X129750000Y-233234000D03*
X130750000Y-231234000D03*
X131750000Y-233234000D03*
X132750000Y-231234000D03*
X133750000Y-233234000D03*
X134750000Y-231234000D03*
X135750000Y-233234000D03*
X136750000Y-231234000D03*
X137750000Y-233234000D03*
X138750000Y-231234000D03*
X139750000Y-233234000D03*
X140750000Y-231234000D03*
X141750000Y-233234000D03*
X142750000Y-231234000D03*
X143750000Y-233234000D03*
X144750000Y-231234000D03*
X145750000Y-233234000D03*
X146750000Y-231234000D03*
X147750000Y-233234000D03*
X148750000Y-231234000D03*
X149750000Y-233234000D03*
X150750000Y-231234000D03*
X151750000Y-233234000D03*
X152750000Y-231234000D03*
X153750000Y-233234000D03*
X154750000Y-231234000D03*
X155750000Y-233234000D03*
X156750000Y-231234000D03*
X157750000Y-233234000D03*
X158750000Y-231234000D03*
X159750000Y-233234000D03*
X160750000Y-231234000D03*
X161750000Y-233234000D03*
X162750000Y-231234000D03*
X163750000Y-233234000D03*
D13*
X197400000Y-33530000D03*
X198278680Y-31408680D03*
X198278680Y-35651320D03*
X200400000Y-30530000D03*
D14*
X200400000Y-33530000D03*
D13*
X200400000Y-36530000D03*
X202521320Y-31408680D03*
X202521320Y-35651320D03*
X203400000Y-33530000D03*
D26*
X84815800Y-116814600D03*
D27*
X85815800Y-116814600D03*
X86815800Y-116814600D03*
X87815800Y-116814600D03*
X88815800Y-116814600D03*
X89815800Y-116814600D03*
X90815800Y-116814600D03*
X91815800Y-116814600D03*
D13*
X197400000Y-236730000D03*
X198278680Y-234608680D03*
X198278680Y-238851320D03*
X200400000Y-233730000D03*
D14*
X200400000Y-236730000D03*
D13*
X200400000Y-239730000D03*
X202521320Y-234608680D03*
X202521320Y-238851320D03*
X203400000Y-236730000D03*
D28*
X121180000Y-79560000D03*
D10*
X53208000Y-163601400D03*
D11*
X55748000Y-163601400D03*
D13*
X65320000Y-33530000D03*
X66198680Y-31408680D03*
X66198680Y-35651320D03*
X68320000Y-30530000D03*
D14*
X68320000Y-33530000D03*
D13*
X68320000Y-36530000D03*
X70441320Y-31408680D03*
X70441320Y-35651320D03*
X71320000Y-33530000D03*
D29*
X127706000Y-209619600D03*
D30*
X45935863Y-41838854D03*
X45935863Y-44338727D03*
X45935863Y-46338727D03*
X45935863Y-48838854D03*
X43735964Y-41838854D03*
X43735964Y-44338727D03*
X43735964Y-46338727D03*
X43735964Y-48838854D03*
D31*
X42186053Y-51738778D03*
X42186053Y-38938676D03*
D32*
X41356000Y-28445918D03*
D33*
X37205886Y-28445918D03*
D32*
X41356000Y-37086000D03*
D33*
X37205886Y-37086000D03*
D10*
X238111300Y-118389400D03*
D11*
X238111300Y-115849400D03*
X238111300Y-113309400D03*
D34*
X239039400Y-127533400D03*
D35*
X236499400Y-127533400D03*
X233959400Y-127533400D03*
X231419400Y-127533400D03*
D36*
X42285000Y-162070010D03*
X44064782Y-161049944D03*
X42285000Y-160030132D03*
X44064782Y-159010066D03*
X42285000Y-157990000D03*
X44064782Y-156969934D03*
X42285000Y-155950122D03*
X44064782Y-154930056D03*
D37*
X43174764Y-150449995D03*
X43174764Y-166550071D03*
D38*
X39778000Y-133479000D03*
X49778000Y-133479000D03*
X59778000Y-133479000D03*
D39*
X62577847Y-133479000D03*
X67277873Y-133479000D03*
X69778000Y-133479000D03*
X72277873Y-133479000D03*
X76877822Y-135808946D03*
X76877822Y-140609048D03*
X76877822Y-145409150D03*
D38*
X74778000Y-147728936D03*
D39*
X72277873Y-147728936D03*
X67277873Y-147728936D03*
D38*
X64778000Y-147728936D03*
D39*
X62577847Y-147728936D03*
D38*
X54778000Y-147728936D03*
X44778000Y-147728936D03*
X39778000Y-142059137D03*
X59778000Y-144559010D03*
X59778000Y-139158959D03*
D29*
X147706000Y-209619600D03*
D10*
X162407600Y-121666000D03*
D11*
X159867600Y-121666000D03*
X157327600Y-121666000D03*
X154787600Y-121666000D03*
X152247600Y-121666000D03*
D40*
X44967019Y-60835000D03*
D41*
X38967019Y-60835000D03*
D40*
X44967019Y-75335128D03*
D41*
X38967019Y-75335128D03*
D42*
X226611073Y-81102225D03*
X206611327Y-81102225D03*
D25*
X193780000Y-110560000D03*
D13*
X269790000Y-33530000D03*
X270668680Y-31408680D03*
X270668680Y-35651320D03*
X272790000Y-30530000D03*
D14*
X272790000Y-33530000D03*
D13*
X272790000Y-36530000D03*
X274911320Y-31408680D03*
X274911320Y-35651320D03*
X275790000Y-33530000D03*
X42460000Y-236730000D03*
X43338680Y-234608680D03*
X43338680Y-238851320D03*
X45460000Y-233730000D03*
D14*
X45460000Y-236730000D03*
D13*
X45460000Y-239730000D03*
X47581320Y-234608680D03*
X47581320Y-238851320D03*
X48460000Y-236730000D03*
D19*
X171805600Y-123063000D03*
D20*
X173075600Y-123063000D03*
X174345600Y-123063000D03*
X175615600Y-123063000D03*
X176885600Y-123063000D03*
X178155600Y-123063000D03*
X179425600Y-123063000D03*
X180695600Y-123063000D03*
X181965600Y-123063000D03*
D10*
X227609400Y-94921800D03*
D11*
X230149400Y-94921800D03*
X232689400Y-94921800D03*
D10*
X53208000Y-170484800D03*
D11*
X55748000Y-170484800D03*
D28*
X186380000Y-79560000D03*
D10*
X107213400Y-128549400D03*
D11*
X104673400Y-128549400D03*
X102133400Y-128549400D03*
X99593400Y-128549400D03*
X97053400Y-128549400D03*
X94513400Y-128549400D03*
D29*
X109706000Y-209619600D03*
D13*
X269790000Y-191010000D03*
X270668680Y-188888680D03*
X270668680Y-193131320D03*
X272790000Y-188010000D03*
D14*
X272790000Y-191010000D03*
D13*
X272790000Y-194010000D03*
X274911320Y-188888680D03*
X274911320Y-193131320D03*
X275790000Y-191010000D03*
X42460000Y-191010000D03*
X43338680Y-188888680D03*
X43338680Y-193131320D03*
X45460000Y-188010000D03*
D14*
X45460000Y-191010000D03*
D13*
X45460000Y-194010000D03*
X47581320Y-188888680D03*
X47581320Y-193131320D03*
X48460000Y-191010000D03*
D17*
X54423942Y-79605073D03*
X51883937Y-80875075D03*
X54423942Y-82145078D03*
X51883937Y-83415080D03*
X54423942Y-84685083D03*
X51883937Y-85955085D03*
X54423942Y-87225088D03*
X51883937Y-88495090D03*
X54423942Y-89765093D03*
X51883937Y-91035095D03*
X40634000Y-78700069D03*
X40634000Y-81240074D03*
X40634000Y-89410000D03*
X40634000Y-91950005D03*
D18*
X48583962Y-77579927D03*
X48583962Y-93069893D03*
D29*
X140320000Y-51564000D03*
D43*
X198018400Y-76327000D03*
D44*
X198018400Y-78867000D03*
X198018400Y-81407000D03*
X198018400Y-83947000D03*
D29*
X128320000Y-51564000D03*
D10*
X227621100Y-109575600D03*
D11*
X230161100Y-109575600D03*
X232701100Y-109575600D03*
D45*
X39142400Y-156972000D03*
X40792400Y-156972000D03*
X39154600Y-154940000D03*
X40804600Y-154940000D03*
X39154600Y-158521400D03*
X40804600Y-158521400D03*
D46*
X268091000Y-49504600D03*
X261741000Y-49758600D03*
X75184000Y-110388400D03*
X64033400Y-245618000D03*
X52197000Y-41275000D03*
D47*
X244729000Y-223393000D03*
X242417600Y-228219000D03*
D46*
X78384400Y-141300200D03*
X248223105Y-231319800D03*
D47*
X219608400Y-170611800D03*
D46*
X234563000Y-42646600D03*
X257042000Y-111635000D03*
X199765000Y-42646600D03*
X81407000Y-34798000D03*
X170408600Y-112877600D03*
X62433200Y-207924400D03*
X143941800Y-168402000D03*
X133146800Y-108102400D03*
X122936000Y-120853200D03*
X97332800Y-105333800D03*
X245307200Y-217527600D03*
X43180000Y-70612000D03*
X68453000Y-175768000D03*
X61163200Y-175768000D03*
X58191400Y-75615800D03*
X173603000Y-42646600D03*
D47*
X263296400Y-235661200D03*
D46*
X202559000Y-44678600D03*
X62433200Y-209397600D03*
X139750800Y-237540800D03*
X172288200Y-112852200D03*
X127889000Y-111815000D03*
X57048400Y-94996000D03*
X59334400Y-76708000D03*
X91821000Y-95300800D03*
X77749400Y-138963400D03*
X89408000Y-112849600D03*
X84175600Y-86893400D03*
X139623800Y-148869400D03*
X70866000Y-46355000D03*
X267944600Y-89814400D03*
X143446500Y-108115100D03*
X119370024Y-239395000D03*
X233039000Y-44678600D03*
X142951200Y-237540718D03*
X260296000Y-145864038D03*
X134391400Y-111815000D03*
X103124000Y-157327600D03*
X74726800Y-135813800D03*
X108204000Y-103784400D03*
X105257600Y-96393000D03*
X96334076Y-141909800D03*
X89687400Y-100533200D03*
X160147000Y-48361600D03*
X178358800Y-108102400D03*
X71882000Y-59055000D03*
X96393000Y-49911000D03*
X68326000Y-144780000D03*
X98425000Y-143230600D03*
X62433200Y-206705200D03*
X62433200Y-219964000D03*
X79011132Y-71590181D03*
X72745600Y-93345000D03*
X255498600Y-89789000D03*
X104089200Y-95123000D03*
X249853800Y-229795800D03*
X80238600Y-139496800D03*
X263519000Y-45948600D03*
X80238600Y-136525000D03*
D47*
X239395000Y-232786648D03*
D46*
X96393000Y-48387000D03*
X172079000Y-44678600D03*
X143941800Y-165862000D03*
X99720400Y-108381800D03*
X76555600Y-95351600D03*
X81792350Y-113352908D03*
D47*
X247497600Y-243052600D03*
D46*
X221132400Y-48361600D03*
X64770000Y-144424400D03*
X73304400Y-196088000D03*
X64770000Y-137210800D03*
X90347800Y-111633000D03*
X104241600Y-150012400D03*
X62433200Y-217881200D03*
X264134600Y-173812200D03*
X141579600Y-164287200D03*
X165150800Y-104648000D03*
X251587000Y-48361600D03*
X93649800Y-108000800D03*
X262640000Y-225092800D03*
X125882400Y-118618000D03*
D47*
X79197200Y-93014800D03*
D46*
X139903200Y-111815000D03*
X96393000Y-51873000D03*
X43180000Y-64897000D03*
X89712800Y-108407200D03*
X233039000Y-45948600D03*
X142951200Y-238810800D03*
X256159000Y-241884200D03*
X254609600Y-46990000D03*
X75107800Y-103352600D03*
X126390400Y-111815000D03*
X251764800Y-213893400D03*
D47*
X263296400Y-234543600D03*
D46*
X129870200Y-104673400D03*
D47*
X256971800Y-235609900D03*
D46*
X54483000Y-39116000D03*
X208991200Y-95097600D03*
X91160600Y-90500200D03*
X142148000Y-104902000D03*
X245772433Y-251366906D03*
X157149800Y-108102400D03*
X72974200Y-144018000D03*
X80416400Y-108331000D03*
X253339600Y-246657400D03*
X140639800Y-108127800D03*
X263658000Y-228572600D03*
X98425000Y-43307000D03*
X96520000Y-58293000D03*
X243992400Y-242493800D03*
X143459200Y-104546400D03*
X202559000Y-47218600D03*
X249224800Y-247269000D03*
X266244800Y-232843800D03*
X141605000Y-40640000D03*
X256794000Y-221742000D03*
X141503400Y-142722600D03*
X105562400Y-159562800D03*
X196240400Y-46990000D03*
X83820000Y-36703000D03*
D47*
X246430800Y-236245400D03*
D46*
X141579600Y-161366200D03*
X127584200Y-104673400D03*
X160147000Y-108102400D03*
X143941800Y-151511000D03*
X126111000Y-237535837D03*
X65963800Y-49707800D03*
X266242800Y-235052195D03*
X43434000Y-36830000D03*
D47*
X83185000Y-93014800D03*
D46*
X106426000Y-95123000D03*
X49530000Y-53340000D03*
D47*
X239191800Y-226568000D03*
D46*
X58191400Y-93878400D03*
D47*
X257057649Y-229353800D03*
D46*
X68326000Y-143611600D03*
D47*
X243611400Y-236245400D03*
X76200000Y-74828400D03*
D46*
X202793600Y-88646000D03*
D47*
X219608400Y-171653200D03*
X76200000Y-72796400D03*
D46*
X99593400Y-149733000D03*
X184720454Y-116226200D03*
X106426000Y-96393000D03*
X96824800Y-108026200D03*
X256661000Y-133923500D03*
X44450000Y-32385000D03*
X76555600Y-109321600D03*
X141605000Y-48260000D03*
X226720400Y-46990000D03*
D47*
X70866000Y-74828400D03*
D46*
X87172800Y-108305600D03*
X103124000Y-148437600D03*
X259892800Y-226618800D03*
X143687800Y-144043400D03*
X73146000Y-61343000D03*
D47*
X83312000Y-72771000D03*
D46*
X71297800Y-245618000D03*
X76975000Y-71564200D03*
X141605000Y-44450000D03*
X165150800Y-108102400D03*
X62433200Y-210870800D03*
X92964000Y-47498000D03*
X93065600Y-114858800D03*
X56769000Y-57674497D03*
X87909400Y-92938600D03*
X254812800Y-211886800D03*
X172079000Y-45948600D03*
X257860800Y-211937600D03*
D47*
X242697000Y-235712000D03*
D46*
X87630000Y-71882000D03*
X71882000Y-69951600D03*
X250692000Y-128208500D03*
X96520000Y-59436000D03*
X263519000Y-43154600D03*
X71323200Y-71577200D03*
X272434400Y-214655403D03*
X84201000Y-89535000D03*
X254076200Y-241274600D03*
X233039000Y-43154600D03*
X205353000Y-42646600D03*
X85991700Y-91478100D03*
X233039000Y-47218600D03*
X163144200Y-108102400D03*
X259892800Y-228650800D03*
X60528200Y-114274600D03*
X126111000Y-240075842D03*
X141503400Y-145338800D03*
X269844952Y-231421400D03*
X87884000Y-62484000D03*
X157149800Y-104648000D03*
X55118000Y-48006000D03*
X259461000Y-159308800D03*
X141579600Y-149936200D03*
X82677000Y-36703000D03*
X158648400Y-104648000D03*
X129692400Y-116306600D03*
X169285000Y-42646600D03*
X141605000Y-42545000D03*
X202559000Y-43154600D03*
X180009800Y-116509800D03*
X202559000Y-45948600D03*
X181381400Y-112268000D03*
X257175000Y-240837600D03*
X96393000Y-53594000D03*
X248355200Y-217527600D03*
X75336400Y-35687000D03*
X55245000Y-32131000D03*
X261569200Y-167843200D03*
X139750800Y-238810800D03*
X263601200Y-215950800D03*
X96520000Y-60579000D03*
X142138400Y-108127800D03*
X139623800Y-176834800D03*
X56769000Y-41656000D03*
X62992000Y-58293000D03*
D47*
X78638400Y-100867651D03*
D46*
X248223105Y-229786902D03*
X246551800Y-229795800D03*
X66548000Y-136194800D03*
X90805000Y-42799000D03*
X73000431Y-100344996D03*
X131927600Y-239420400D03*
D47*
X257403600Y-233019600D03*
D46*
X267512800Y-218795600D03*
X231667400Y-237974600D03*
X65938400Y-200914000D03*
X141605000Y-38735000D03*
X129311400Y-237535837D03*
X147574000Y-112877600D03*
X263519000Y-47218600D03*
D47*
X242722400Y-223393000D03*
D46*
X251536200Y-215950800D03*
X260858000Y-222554800D03*
X62433200Y-216408000D03*
X235858400Y-238838200D03*
X162890200Y-116281200D03*
X102463600Y-96621600D03*
X273735800Y-155448000D03*
X255320800Y-238732000D03*
X258312000Y-150497000D03*
X184658000Y-108102400D03*
X65887600Y-218541600D03*
X264134600Y-156159200D03*
X149529800Y-112877600D03*
X252101000Y-246657400D03*
X246551800Y-231319800D03*
X270505352Y-220245400D03*
X254609600Y-246657400D03*
X236798200Y-227459000D03*
X182905400Y-112268000D03*
X230245000Y-42646600D03*
X72974200Y-141605000D03*
X264718800Y-167843200D03*
X260858000Y-223621600D03*
X59436000Y-46736000D03*
X105257600Y-95123000D03*
X180975000Y-108102400D03*
X137820400Y-161366200D03*
X63855600Y-143611600D03*
X78384400Y-144348200D03*
X95707200Y-109194600D03*
X257200400Y-46990000D03*
X254812800Y-213893400D03*
D47*
X76200000Y-73812400D03*
D46*
X202793600Y-85166200D03*
X104419400Y-160655000D03*
X80518000Y-31623000D03*
X79603600Y-115900200D03*
X90805000Y-54737000D03*
X139623800Y-163220400D03*
X87630000Y-67945000D03*
X201035000Y-42646600D03*
X136906000Y-111815000D03*
X83413600Y-108331000D03*
D47*
X263296400Y-232308400D03*
X70866000Y-73812400D03*
X254584200Y-224993200D03*
X257048000Y-224026750D03*
D46*
X104597200Y-98755200D03*
X54991000Y-43434000D03*
D47*
X242824000Y-238607600D03*
D46*
X266313000Y-42646600D03*
X251962000Y-242673600D03*
X141579600Y-175717200D03*
X168148000Y-108102400D03*
X256661000Y-123319000D03*
X80010000Y-36703000D03*
X102717600Y-98450400D03*
D47*
X77927200Y-100736400D03*
D46*
X87909400Y-91490800D03*
X92964000Y-60706000D03*
X62433200Y-212394800D03*
X260598000Y-138813000D03*
D47*
X219608400Y-165125400D03*
D46*
X265043000Y-42646600D03*
X246551800Y-228144800D03*
D47*
X257048000Y-226517200D03*
D46*
X156895800Y-116281200D03*
X82804000Y-70866000D03*
X98196400Y-97586800D03*
X172079000Y-47218600D03*
X261995000Y-42646600D03*
X259582000Y-107063000D03*
D47*
X259562600Y-229895400D03*
D46*
X72948800Y-55676800D03*
X159893000Y-116281200D03*
X92964000Y-57531000D03*
X141579600Y-173177200D03*
X169646600Y-104648000D03*
X61163200Y-245618000D03*
X70053200Y-71577200D03*
X136652000Y-104673400D03*
X72974200Y-102336600D03*
X57785000Y-38481000D03*
X43180000Y-72136000D03*
X62611000Y-47244000D03*
X255137000Y-95125000D03*
X141579600Y-158826200D03*
D47*
X239386647Y-235186953D03*
X263296400Y-233426000D03*
D46*
X75412600Y-95351600D03*
X204083000Y-42646600D03*
X43180000Y-67564000D03*
X162890200Y-112877600D03*
X193649600Y-47015400D03*
X169646600Y-108102400D03*
D47*
X247497600Y-241528600D03*
D46*
X85521800Y-40538400D03*
X86106000Y-32131000D03*
X179654200Y-108102400D03*
X165912800Y-112877600D03*
X104597200Y-101295200D03*
X88900000Y-67945000D03*
X248285000Y-248412000D03*
X141605000Y-55245000D03*
X249853800Y-231319800D03*
X48514000Y-34163000D03*
X260725000Y-42646600D03*
D47*
X219608400Y-166166800D03*
D46*
X166649400Y-104648000D03*
X143941800Y-154051000D03*
X93065600Y-113842800D03*
X65430400Y-221589600D03*
D47*
X245618000Y-223393000D03*
D46*
X49149000Y-35687000D03*
X141605000Y-46355000D03*
X172079000Y-43154600D03*
X97536000Y-42291000D03*
X253923800Y-88442800D03*
D47*
X83312000Y-72009000D03*
D46*
X248488200Y-215950800D03*
X170555000Y-42646600D03*
X174421800Y-102285800D03*
X85852000Y-180136800D03*
X149606000Y-103657400D03*
X156895800Y-112877600D03*
X159893000Y-112877600D03*
X43434000Y-28727400D03*
X166649400Y-108102400D03*
X59334400Y-114274600D03*
X171145200Y-104648000D03*
X99593400Y-148437600D03*
X258445000Y-238734600D03*
X273735800Y-170967400D03*
X158648400Y-108102400D03*
X231515000Y-42646600D03*
X177977800Y-116509800D03*
X55118000Y-49149000D03*
X136652000Y-108102400D03*
X43180000Y-69088000D03*
X108204000Y-105765600D03*
X72974200Y-139217400D03*
X224104200Y-47040800D03*
X272434400Y-213385400D03*
X78308200Y-105714800D03*
X61208000Y-59184000D03*
X101168200Y-161467800D03*
X201676000Y-86842600D03*
X140868400Y-104546400D03*
X124358400Y-104775000D03*
X238455200Y-218694000D03*
X124891800Y-111815000D03*
D47*
X70866000Y-72796400D03*
D46*
X45212000Y-28702000D03*
X259461000Y-160705800D03*
D47*
X84785200Y-95910400D03*
D46*
X102717600Y-239115600D03*
X142900400Y-111815000D03*
X243128800Y-251358400D03*
X238455200Y-220726000D03*
X88163400Y-114909600D03*
X174650400Y-108102400D03*
X248223105Y-228144800D03*
X273735800Y-158216600D03*
X190627000Y-48361600D03*
X163144200Y-104648000D03*
X161645600Y-104648000D03*
X91338400Y-180136800D03*
X208991200Y-89611200D03*
D47*
X81584800Y-95910400D03*
D46*
X98094800Y-102108000D03*
X71247000Y-175768000D03*
X122428000Y-117602000D03*
X168148000Y-104648000D03*
X68376800Y-245618000D03*
X268173200Y-153187400D03*
X271572152Y-229795800D03*
X74726800Y-145034000D03*
X99720400Y-105333800D03*
X155651200Y-104648000D03*
X95986600Y-112471200D03*
X174873000Y-42646600D03*
X271216552Y-227357400D03*
X263519000Y-44678600D03*
X70866000Y-43180000D03*
X165695300Y-116204200D03*
X235833000Y-42646600D03*
X249853800Y-228144800D03*
X237540800Y-219710000D03*
X171145200Y-108102400D03*
X62484000Y-196088000D03*
X101168200Y-146837400D03*
X268173200Y-157149800D03*
X272434400Y-215925405D03*
X102717600Y-240995200D03*
X264134600Y-159308800D03*
X251962000Y-117477000D03*
X207949800Y-95097600D03*
X163144200Y-47015400D03*
X81407000Y-33655000D03*
X161645600Y-108102400D03*
X63754000Y-46482000D03*
X72974200Y-136804400D03*
X236798200Y-230507000D03*
X266369800Y-88442800D03*
X78841600Y-108331000D03*
X165760400Y-46990000D03*
X154990800Y-113004600D03*
X133146800Y-104673400D03*
X64033400Y-175768000D03*
X52197000Y-38481000D03*
X160147000Y-104648000D03*
X253359000Y-106936000D03*
X135229600Y-144043400D03*
X58210800Y-40642000D03*
X114046000Y-103784400D03*
X105918000Y-137363200D03*
X115493800Y-105333800D03*
X137566400Y-166827200D03*
X272796000Y-52578000D03*
X114046000Y-105333800D03*
X243484400Y-124383800D03*
X214350600Y-53949600D03*
X100380800Y-125882400D03*
X211836000Y-52578000D03*
X92252800Y-145669000D03*
X135229600Y-137388600D03*
X267944600Y-47091600D03*
X89966800Y-145669000D03*
X244602000Y-124383800D03*
X94843600Y-125882400D03*
X138658600Y-147421600D03*
X89966800Y-143230600D03*
X115493800Y-103784400D03*
X105918000Y-125882400D03*
X49473200Y-38711600D03*
X113309400Y-137363200D03*
X135229600Y-147421600D03*
X122301000Y-103759000D03*
X272796000Y-55321200D03*
X93395800Y-145669000D03*
X84963000Y-37693600D03*
X242366800Y-124383800D03*
X242316000Y-52578000D03*
X105918000Y-136118600D03*
X152679400Y-166283600D03*
X135229600Y-145846800D03*
X235204000Y-95834200D03*
X117525800Y-103784400D03*
X275310600Y-53949600D03*
X183870600Y-53949600D03*
X92125800Y-141986000D03*
X230149400Y-120929400D03*
X118618000Y-137363200D03*
X85242400Y-134975600D03*
X121107200Y-103784400D03*
X243484400Y-125603000D03*
X208127600Y-47091600D03*
X137312400Y-152476200D03*
X181356000Y-55321200D03*
X152679400Y-171119800D03*
X75946000Y-38125400D03*
X242366800Y-125603000D03*
X59557000Y-40642000D03*
X129184400Y-137363200D03*
X88722200Y-33092000D03*
X118719600Y-103784400D03*
X111455200Y-125882400D03*
X206984600Y-47091600D03*
X211836000Y-55321200D03*
X176504600Y-47091600D03*
X123901200Y-137363200D03*
X238607600Y-47091600D03*
X50139600Y-34899600D03*
X137312400Y-145567400D03*
X137312400Y-155016200D03*
X98780600Y-158318200D03*
X235204000Y-94615000D03*
X202355800Y-78869000D03*
X92125800Y-136271000D03*
X244830600Y-53949600D03*
X98780600Y-151612600D03*
X119913400Y-103784400D03*
X177647600Y-47091600D03*
X237464600Y-47091600D03*
X269087600Y-47091600D03*
X152677100Y-151551600D03*
X91109800Y-145669000D03*
X92125800Y-134975600D03*
X242316000Y-55321200D03*
X66167000Y-71628000D03*
X77343000Y-38125400D03*
X181356000Y-52578000D03*
X137566400Y-169367200D03*
X86004400Y-37693600D03*
X152677100Y-156372600D03*
X244602000Y-125603000D03*
X118719600Y-104927400D03*
X199034400Y-86055200D03*
X67360800Y-63906400D03*
X137312400Y-147421600D03*
X231261000Y-49758600D03*
X237611000Y-49504600D03*
X265201400Y-237896400D03*
X69279102Y-194474498D03*
X79349600Y-100126800D03*
X203835000Y-100304600D03*
X70764400Y-141554200D03*
X65379600Y-229971600D03*
X263601200Y-217195400D03*
X88341200Y-101752400D03*
X67868800Y-194487800D03*
X266160899Y-160705800D03*
X57759600Y-229971600D03*
X82753200Y-96570800D03*
X101828600Y-105562400D03*
X263753600Y-236778800D03*
D47*
X252907800Y-229590600D03*
X248107200Y-224409000D03*
D46*
X73380600Y-117703600D03*
X238252000Y-240893600D03*
X56769000Y-59309000D03*
D47*
X257048000Y-227431600D03*
D46*
X75463400Y-91516200D03*
X72059800Y-140411200D03*
X262001000Y-241274600D03*
X103505000Y-61798200D03*
X130632200Y-242697000D03*
X79349600Y-102532949D03*
D47*
X242951000Y-224434400D03*
D46*
X81381600Y-107543600D03*
X88341200Y-99314000D03*
D47*
X257041630Y-224746953D03*
D46*
X81584800Y-105003600D03*
X210896200Y-95529400D03*
X102362000Y-41402000D03*
X265201400Y-239014000D03*
X81584800Y-102532949D03*
X64262000Y-49657000D03*
X240665000Y-238480600D03*
X82448400Y-107543600D03*
X118287800Y-242697000D03*
D47*
X263296400Y-229692200D03*
D46*
X100838000Y-43053000D03*
X88900000Y-107543600D03*
X266160899Y-155448000D03*
X82372200Y-140817600D03*
X101422200Y-114782600D03*
X104013000Y-43561000D03*
X65024000Y-54991000D03*
D47*
X248818400Y-224409000D03*
D46*
X267334992Y-217195408D03*
X264617200Y-221335600D03*
D47*
X257048000Y-225806000D03*
D46*
X59817000Y-57658000D03*
X100431600Y-197993000D03*
X206121000Y-100304600D03*
D47*
X257048000Y-228346000D03*
X244830600Y-234569000D03*
D46*
X87625074Y-96564818D03*
X78994000Y-96570800D03*
X269900128Y-160705800D03*
X104902000Y-42545000D03*
X104851200Y-61798200D03*
D47*
X242189000Y-229971600D03*
D46*
X98755200Y-242697000D03*
X80416400Y-145415000D03*
X61417200Y-38201600D03*
X265023600Y-165633400D03*
X77978000Y-107543600D03*
X144272000Y-242697000D03*
X70916800Y-117703600D03*
X72085200Y-117703600D03*
X70764400Y-140411200D03*
X83540600Y-136525000D03*
X265201400Y-236778800D03*
X66497200Y-44450000D03*
X66471800Y-194462400D03*
X270459200Y-210972400D03*
X269900128Y-155448000D03*
X61417200Y-35991800D03*
X131927600Y-242697000D03*
X263017000Y-240258600D03*
X103505000Y-64389000D03*
D47*
X263296400Y-231190800D03*
D46*
X81584800Y-100126800D03*
X100177600Y-242697000D03*
X83947000Y-105003600D03*
X103911400Y-108458000D03*
X69469000Y-141554200D03*
X100177600Y-245922800D03*
X98755200Y-245922800D03*
X79349600Y-105003600D03*
X85242400Y-105003600D03*
D47*
X252907800Y-224409000D03*
D46*
X239522000Y-245668800D03*
X69621400Y-117703600D03*
X207131000Y-49504600D03*
X200781000Y-49758600D03*
X263702800Y-242773200D03*
X89750000Y-241630200D03*
X89750000Y-246202200D03*
X246532400Y-243484400D03*
X170301000Y-49758600D03*
X176651000Y-49504600D03*
X244830600Y-244271800D03*
D47*
X247243600Y-236016800D03*
D46*
X244830600Y-245863500D03*
D47*
X243713000Y-226796600D03*
X242112800Y-226796600D03*
X242900200Y-233730800D03*
X243713000Y-223914200D03*
X242112800Y-224383600D03*
X245541800Y-235508800D03*
D46*
X235889800Y-237007400D03*
D47*
X242900200Y-232384600D03*
X239420400Y-206425800D03*
D46*
X251079000Y-66344800D03*
X240665000Y-237007400D03*
D47*
X236855000Y-206425800D03*
X242112800Y-227584000D03*
X238125000Y-206425800D03*
D46*
X252679200Y-64820800D03*
D47*
X254076200Y-227177600D03*
X237490000Y-205994000D03*
D46*
X249453400Y-64820800D03*
D47*
X254076200Y-233197400D03*
X235585000Y-206425800D03*
D46*
X240512600Y-222758000D03*
D47*
X238760000Y-205994000D03*
X236220000Y-205994000D03*
X234950000Y-205994000D03*
X250825000Y-235508800D03*
X240055400Y-205994000D03*
X254076200Y-223342200D03*
X254076200Y-224383600D03*
X243636800Y-235508800D03*
X253212600Y-235508800D03*
X234385200Y-229333000D03*
X247182200Y-217527600D03*
X234385200Y-228633000D03*
X246482200Y-217527600D03*
X233476800Y-234538000D03*
X220503000Y-186893200D03*
X233476800Y-233838000D03*
X221203000Y-186893200D03*
X66040000Y-207503600D03*
X213772912Y-222345088D03*
X66040000Y-206803600D03*
X214267888Y-221850112D03*
D46*
X76009500Y-236435900D03*
X80314800Y-240741200D03*
D47*
X224276400Y-194665600D03*
X239064800Y-223436775D03*
X223576400Y-194665600D03*
X239064800Y-224136775D03*
D46*
X203860400Y-248843800D03*
D47*
X240792000Y-246684800D03*
X249580400Y-242316000D03*
D46*
X207365600Y-248843800D03*
X90068400Y-248843800D03*
D47*
X239674400Y-241249200D03*
X242417600Y-241249200D03*
X255986800Y-209423000D03*
X256686800Y-209423000D03*
X222199200Y-233064800D03*
X222199200Y-232364800D03*
X250545600Y-241274600D03*
D46*
X102717600Y-236982000D03*
D47*
X244449600Y-203281800D03*
X253639800Y-211257620D03*
X63855600Y-203281800D03*
X194106800Y-203281800D03*
X194106800Y-203981800D03*
X63855600Y-203981800D03*
X244449600Y-203981800D03*
X252939800Y-211257620D03*
D46*
X73939400Y-236448600D03*
X69799200Y-206654400D03*
X56743600Y-204673200D03*
X78232000Y-240741200D03*
X248716800Y-59791600D03*
X218236800Y-59791600D03*
X187756800Y-59791600D03*
X157276800Y-59791600D03*
X129819400Y-99796600D03*
X80365600Y-106527600D03*
X123063000Y-101447600D03*
X124155200Y-102590600D03*
X136779000Y-97231200D03*
X80365600Y-101346000D03*
X134493000Y-98679000D03*
X80365600Y-103733600D03*
X222326200Y-64820800D03*
X88696800Y-97434400D03*
X124155200Y-101447600D03*
X129819400Y-100939600D03*
X91719400Y-88214200D03*
X80365600Y-97434400D03*
X83566000Y-97434400D03*
X92862400Y-88214200D03*
X92862400Y-86766400D03*
X90576400Y-86766400D03*
X220599000Y-66395600D03*
X88392000Y-86842600D03*
X94284800Y-109220000D03*
X87985600Y-105232200D03*
X96012000Y-110515400D03*
X87985600Y-106527600D03*
X135636000Y-98679000D03*
X136779000Y-98679000D03*
X147878800Y-89585800D03*
X91719400Y-86766400D03*
X146710400Y-89585800D03*
X134493000Y-97231200D03*
X90576400Y-88214200D03*
X218871800Y-64820800D03*
X148437600Y-90601800D03*
X99263200Y-110058200D03*
X86004400Y-97434400D03*
X123063000Y-102590600D03*
X135636000Y-97231200D03*
X88747600Y-63347600D03*
X159435800Y-153720800D03*
X224231200Y-107823000D03*
X145542000Y-60960000D03*
X85267800Y-76733400D03*
X197662800Y-94589600D03*
X224231200Y-105638600D03*
X91084400Y-65913000D03*
X65659000Y-79756000D03*
X91922600Y-66776600D03*
X159435800Y-168468000D03*
X110210600Y-120192800D03*
X48768000Y-83210400D03*
X127939800Y-131673600D03*
X86436200Y-76733400D03*
X159435800Y-173304200D03*
X199999600Y-105054400D03*
X191770000Y-64820800D03*
X61911038Y-79756000D03*
X107467400Y-63347600D03*
X122656600Y-131673600D03*
X117373400Y-131673600D03*
X100050600Y-120192800D03*
X224242900Y-111252000D03*
X108737400Y-63347600D03*
X143154400Y-61569600D03*
X224231200Y-96598200D03*
X224231200Y-121869200D03*
X159435800Y-158546800D03*
X224231200Y-116433600D03*
X112064800Y-131673600D03*
X104673400Y-120192800D03*
X93599000Y-120192800D03*
X190119000Y-66395600D03*
X143154400Y-63068200D03*
X188315600Y-64820800D03*
X86436200Y-75590400D03*
X68122800Y-79756000D03*
X86004400Y-134112000D03*
X92786200Y-67640200D03*
X224231200Y-101805200D03*
X98044000Y-118745000D03*
X82423000Y-130530600D03*
X144780000Y-108458000D03*
X78232000Y-32512000D03*
X48768000Y-173786800D03*
X46482000Y-175260000D03*
X46482000Y-173786800D03*
X41173400Y-144729200D03*
X38887400Y-144729200D03*
X97764600Y-40589200D03*
X48768000Y-175260000D03*
X43459400Y-144729200D03*
X36601400Y-144729200D03*
D47*
X44611261Y-31321715D03*
X143135512Y-91687488D03*
X40507000Y-32514000D03*
X40513000Y-33528000D03*
D46*
X54864000Y-50419000D03*
X52959000Y-53340000D03*
X53035200Y-46964600D03*
X53035200Y-44500800D03*
X55499000Y-57658000D03*
X60960000Y-49149000D03*
D47*
X53714488Y-51822512D03*
X53219512Y-52317488D03*
X140248000Y-103807799D03*
X59963523Y-49191499D03*
X143630488Y-91192512D03*
X44116285Y-30826739D03*
X45466000Y-34036000D03*
X40132000Y-31496000D03*
X146812000Y-104267000D03*
X86741000Y-33782000D03*
X146913600Y-91135200D03*
X146562000Y-68634800D03*
X144526000Y-68605400D03*
X146151600Y-91135200D03*
X87579200Y-39827200D03*
X47117000Y-38354000D03*
X187807600Y-106451400D03*
X187350488Y-105206175D03*
X188468000Y-104749600D03*
D46*
X197358000Y-113660800D03*
D47*
X186105800Y-104673400D03*
X186309000Y-103759000D03*
X185225000Y-104216200D03*
D46*
X198958200Y-93497400D03*
D47*
X183413400Y-104394000D03*
D46*
X177800000Y-110744000D03*
X95233503Y-79883000D03*
X148971000Y-82931000D03*
X95233503Y-82423000D03*
X94107000Y-79883000D03*
X147955000Y-83820000D03*
X176657000Y-110744000D03*
X94107000Y-82423000D03*
D47*
X182398000Y-115925600D03*
X202946000Y-125476000D03*
X230251000Y-159766000D03*
X219608400Y-169468800D03*
D46*
X92964000Y-79883000D03*
X148971000Y-84709000D03*
X92964000Y-82423000D03*
X175530497Y-110744000D03*
D47*
X216458800Y-168757600D03*
X175031400Y-171069000D03*
X202946000Y-126212600D03*
X229692200Y-159283400D03*
X219608400Y-168757600D03*
X182321200Y-116738400D03*
X158851600Y-152704800D03*
X229133400Y-158800800D03*
X219608400Y-168046400D03*
X181398000Y-116586000D03*
X175031400Y-168046400D03*
X202946000Y-126949200D03*
X180898000Y-117119400D03*
X219608400Y-167309800D03*
X202946000Y-127685800D03*
X228600000Y-158318200D03*
X177088800Y-117017800D03*
X176174400Y-117017800D03*
X175310800Y-117017800D03*
X172897800Y-115874800D03*
X173786800Y-117017800D03*
X172796200Y-117017800D03*
X172034200Y-117017800D03*
X171272200Y-117017800D03*
X155448000Y-108280200D03*
X125831600Y-130784600D03*
X155448000Y-111429800D03*
X155448000Y-110337600D03*
X154736800Y-110337600D03*
X112039400Y-130530600D03*
X154736800Y-108280200D03*
X154736800Y-111429800D03*
X154000200Y-111429800D03*
X154000200Y-108280200D03*
X116306600Y-118999000D03*
X116306600Y-120319800D03*
X120548400Y-130784600D03*
X154000200Y-110337600D03*
X153289000Y-111429800D03*
X153644600Y-105029000D03*
X115265200Y-130784600D03*
X153289000Y-110337600D03*
X115265200Y-120065800D03*
X115265200Y-121361200D03*
X152984200Y-108280200D03*
X147828000Y-109939400D03*
X108102400Y-119227600D03*
X147828000Y-111633000D03*
X147116800Y-111633000D03*
X147116800Y-109939400D03*
X102565200Y-119227600D03*
X152273000Y-108280200D03*
X151663400Y-107772200D03*
X146405600Y-109939400D03*
X102565200Y-117932200D03*
X146405600Y-111633000D03*
X145694400Y-111633000D03*
X102565200Y-117221000D03*
X151638000Y-105029000D03*
X145694400Y-109939400D03*
X148894800Y-105029000D03*
X206806800Y-109245400D03*
X148894800Y-104292400D03*
X207746600Y-109245400D03*
X148158200Y-103759000D03*
X208280000Y-113385600D03*
X147421600Y-103759000D03*
X209804000Y-115341400D03*
X59263523Y-49191499D03*
X139548000Y-103807799D03*
X91573512Y-58667488D03*
X53927548Y-56295428D03*
D46*
X120827800Y-116611400D03*
X119507000Y-119634000D03*
D47*
X123398000Y-112082000D03*
D46*
X264185400Y-92862400D03*
D47*
X121793000Y-111429800D03*
D46*
X250571000Y-91440000D03*
D47*
X53432572Y-55800452D03*
X92068488Y-58172512D03*
D46*
X81686400Y-54660800D03*
D47*
X101092000Y-53086000D03*
X99009200Y-54305200D03*
X101092000Y-52070000D03*
X98996500Y-53149500D03*
D46*
X87376000Y-55270400D03*
D47*
X83756500Y-48704500D03*
X101092000Y-45212000D03*
X105156000Y-45847000D03*
X82978084Y-49482916D03*
X90246200Y-113842800D03*
X86995000Y-111302800D03*
X87598227Y-111766373D03*
X90246200Y-114858800D03*
D46*
X80137000Y-71628000D03*
X82804000Y-68580000D03*
X69032292Y-71101012D03*
D47*
X72771000Y-67056000D03*
D46*
X72384000Y-64264000D03*
X72771000Y-71501000D03*
X82397600Y-66751200D03*
X87122000Y-63444000D03*
D47*
X78613000Y-61722000D03*
X130048000Y-87757000D03*
X94894400Y-71958200D03*
X130556000Y-87249000D03*
X48006000Y-63246000D03*
X74549000Y-61849000D03*
X130048000Y-86741000D03*
X81407000Y-62484000D03*
X84201000Y-65151000D03*
D46*
X123952000Y-67437000D03*
X186105800Y-108331000D03*
X101981000Y-67437000D03*
X186105800Y-109474000D03*
X125095000Y-68326000D03*
X98298000Y-65532000D03*
X183896000Y-109469800D03*
D47*
X83693000Y-64516000D03*
D46*
X49022000Y-65024000D03*
X64389000Y-73914000D03*
X60452000Y-73914000D03*
X49022000Y-66421000D03*
D47*
X45085000Y-35560000D03*
X40132000Y-34544000D03*
X46609000Y-30988000D03*
X251623156Y-223316800D03*
X257276600Y-220548200D03*
X250113800Y-241833400D03*
X241579400Y-247192800D03*
X127730088Y-116617912D03*
X233476800Y-235437029D03*
X233476800Y-236137029D03*
X127235112Y-117112888D03*
X219608400Y-158597600D03*
X246075200Y-238531400D03*
X251612400Y-208534000D03*
X221996000Y-160985200D03*
X202946000Y-124460000D03*
X122428000Y-112064800D03*
X219303600Y-181152800D03*
X198755000Y-107467400D03*
X230860600Y-160528000D03*
X197815200Y-106121200D03*
X75692000Y-206502000D03*
X60858400Y-205790800D03*
X128161888Y-108058112D03*
X125939712Y-95218088D03*
X127666912Y-108553088D03*
X126434688Y-94723112D03*
X99069677Y-91942400D03*
X123805200Y-97942400D03*
X124505200Y-97942400D03*
X99069677Y-91242400D03*
X127717712Y-94811688D03*
X124555088Y-108058112D03*
X128212688Y-94316712D03*
X124060112Y-108553088D03*
X83489800Y-134518400D03*
D46*
X205003400Y-107696000D03*
X120446800Y-249809000D03*
X243205000Y-169773600D03*
X142494000Y-64770000D03*
D47*
X55854600Y-193167000D03*
D46*
X89027000Y-53721000D03*
D47*
X85750400Y-198018400D03*
X251129800Y-225602800D03*
D46*
X185877200Y-92354400D03*
X120446800Y-237540800D03*
D47*
X259283200Y-235864400D03*
X84226400Y-135255000D03*
X265582400Y-242747800D03*
X63881000Y-54102000D03*
X249986800Y-225602800D03*
D46*
X182778400Y-92354400D03*
X134086600Y-249809000D03*
D47*
X257886200Y-235889800D03*
D46*
X89027000Y-51943000D03*
X205003400Y-130962400D03*
D47*
X55854600Y-203479400D03*
D46*
X148336000Y-64770000D03*
D47*
X85725000Y-238252000D03*
X252423003Y-236042200D03*
D46*
X79197200Y-56186800D03*
D47*
X81813400Y-204343000D03*
X85725000Y-242366800D03*
X83185000Y-202971400D03*
D46*
X201313800Y-96998000D03*
D47*
X85725000Y-246151400D03*
X110591600Y-99339400D03*
X77724000Y-208432400D03*
D46*
X161417000Y-70993000D03*
X134086600Y-237540800D03*
D47*
X68046600Y-139623800D03*
D46*
X203428600Y-130962400D03*
D47*
X84582000Y-246151400D03*
X83515200Y-135255000D03*
X110591600Y-100787200D03*
D46*
X148336000Y-66040000D03*
X204063600Y-95402400D03*
X124155200Y-250571000D03*
X137718800Y-250571000D03*
X137718800Y-238810800D03*
X142494000Y-66040000D03*
D47*
X68046600Y-140411200D03*
X251536200Y-236042200D03*
X79756000Y-204622400D03*
D46*
X185877200Y-101879400D03*
X87934800Y-52781200D03*
D47*
X54965600Y-193852800D03*
X76860400Y-209448400D03*
X84582000Y-197561200D03*
X84582000Y-242366800D03*
X84582000Y-238252000D03*
X54965600Y-202996800D03*
D46*
X69189600Y-52171600D03*
X159893000Y-70612000D03*
X182778400Y-102565200D03*
X241884200Y-169773600D03*
D47*
X259283200Y-236804200D03*
X249986800Y-226441000D03*
X264947400Y-244475000D03*
D46*
X203428600Y-107696000D03*
X124155200Y-238810800D03*
X201168000Y-102565200D03*
D47*
X257886200Y-236804200D03*
X251129800Y-226441000D03*
X108002800Y-99337400D03*
X93446600Y-99060000D03*
X110591600Y-98323400D03*
X123037600Y-110312200D03*
X108002800Y-100812600D03*
X93751400Y-99693153D03*
X122428000Y-110718600D03*
X110591600Y-101828600D03*
X59290112Y-98507712D03*
X59785088Y-99002688D03*
X64979712Y-114458912D03*
X65474688Y-114953888D03*
X93091000Y-106527600D03*
X93675200Y-105892600D03*
X90525600Y-105740200D03*
X90525600Y-104927400D03*
X90246200Y-103962200D03*
X90220800Y-103174800D03*
X60452000Y-84282800D03*
X60452000Y-84982800D03*
D46*
X47320200Y-156895800D03*
X87274400Y-159562800D03*
X60147200Y-157861000D03*
X47320200Y-158826200D03*
X89814400Y-154482800D03*
X88595200Y-154482800D03*
X87274400Y-148742400D03*
X60147200Y-154482800D03*
X89814400Y-152247600D03*
X133883400Y-173177200D03*
X133883400Y-170637200D03*
X133883400Y-166827200D03*
X132588000Y-165557200D03*
X132588000Y-174447200D03*
X133883400Y-158826200D03*
X133883400Y-156286200D03*
X133883400Y-152476200D03*
X132588000Y-151206200D03*
X132588000Y-160096200D03*
X231292400Y-102844600D03*
X231292400Y-97637600D03*
X231292400Y-117475000D03*
X231292400Y-112293400D03*
D48*
X268091000Y-49504600D02*
X261995000Y-49504600D01*
X261995000Y-49504600D02*
X261741000Y-49758600D01*
D49*
X263296400Y-232308400D02*
X263296400Y-233426000D01*
X263296400Y-233426000D02*
X263296400Y-234543600D01*
X219100400Y-166674800D02*
X219100400Y-170103800D01*
X264540405Y-235052195D02*
X263931400Y-235661200D01*
X219100400Y-170103800D02*
X219608400Y-170611800D01*
X263296400Y-234543600D02*
X263296400Y-235661200D01*
X263931400Y-235661200D02*
X263296400Y-235661200D01*
X266242800Y-235052195D02*
X264540405Y-235052195D01*
X219608400Y-166166800D02*
X219100400Y-166674800D01*
D50*
X256407000Y-100459000D02*
X256407000Y-105666000D01*
X256407000Y-105666000D02*
X255137000Y-106936000D01*
X255137000Y-106936000D02*
X253359000Y-106936000D01*
D49*
X123901200Y-137363200D02*
X129184400Y-137363200D01*
X85242400Y-134975600D02*
X92125800Y-134975600D01*
X118618000Y-137363200D02*
X123901200Y-137363200D01*
X152679400Y-166283600D02*
X152679400Y-171119800D01*
X152679400Y-156374900D02*
X152679400Y-166283600D01*
X111455200Y-125882400D02*
X105918000Y-125882400D01*
D51*
X152677100Y-156372600D02*
X152679400Y-156374900D01*
D49*
X105918000Y-125882400D02*
X100380800Y-125882400D01*
X113309400Y-137363200D02*
X118618000Y-137363200D01*
X66167000Y-65100200D02*
X67360800Y-63906400D01*
X109296200Y-137363200D02*
X113309400Y-137363200D01*
X109296200Y-137363200D02*
X105918000Y-137363200D01*
X100380800Y-125882400D02*
X94843600Y-125882400D01*
X152677100Y-151551600D02*
X152677100Y-156372600D01*
X66167000Y-71628000D02*
X66167000Y-65100200D01*
D48*
X237611000Y-49504600D02*
X231515000Y-49504600D01*
X231515000Y-49504600D02*
X231261000Y-49758600D01*
D49*
X81584800Y-102532949D02*
X79349600Y-102532949D01*
X78994000Y-97205800D02*
X79349600Y-97561400D01*
X77978000Y-107543600D02*
X81381600Y-107543600D01*
D48*
X239522000Y-245668800D02*
X239522000Y-244246400D01*
D49*
X78994000Y-96570800D02*
X82753200Y-96570800D01*
D48*
X88750000Y-228734000D02*
X87512400Y-229971600D01*
D49*
X263296400Y-231190800D02*
X266192000Y-231190800D01*
D52*
X93149000Y-197993000D02*
X87750000Y-192594000D01*
X266160899Y-155448000D02*
X269900128Y-155448000D01*
D53*
X80416400Y-145415000D02*
X80416400Y-145403685D01*
D49*
X267131800Y-232130600D02*
X267131800Y-235864400D01*
D54*
X80416400Y-145415000D02*
X80416400Y-142773400D01*
D49*
X79138400Y-144111600D02*
X79138400Y-143324200D01*
D53*
X257048000Y-224753323D02*
X257041630Y-224746953D01*
D49*
X88750000Y-228734000D02*
X89789000Y-229773000D01*
X79349600Y-97561400D02*
X79349600Y-100126800D01*
X87619092Y-98591892D02*
X88341200Y-99314000D01*
X80416400Y-145403685D02*
X80416400Y-145389600D01*
D54*
X82372200Y-140817600D02*
X83540600Y-139649200D01*
D52*
X266160899Y-164496101D02*
X266160899Y-160705800D01*
D48*
X239522000Y-244246400D02*
X238252000Y-242976400D01*
D49*
X263821800Y-236847000D02*
X263753600Y-236778800D01*
D54*
X80416400Y-142773400D02*
X82372200Y-140817600D01*
D49*
X82448400Y-107543600D02*
X82448400Y-105867200D01*
X82448400Y-107543600D02*
X88900000Y-107543600D01*
X72999600Y-142773400D02*
X72059800Y-141833600D01*
X267131800Y-235864400D02*
X266149200Y-236847000D01*
X263296400Y-231190800D02*
X263296400Y-229692200D01*
D52*
X266160899Y-160705800D02*
X266160899Y-155448000D01*
D49*
X266192000Y-231190800D02*
X267131800Y-232130600D01*
X79349600Y-105003600D02*
X81584800Y-105003600D01*
D48*
X69279102Y-194474498D02*
X85869502Y-194474498D01*
D52*
X203835000Y-100304600D02*
X206121000Y-100304600D01*
D48*
X85869502Y-194474498D02*
X87750000Y-192594000D01*
D53*
X87619092Y-96570800D02*
X87625074Y-96564818D01*
D49*
X89789000Y-229773000D02*
X89789000Y-231724200D01*
X82448400Y-105867200D02*
X81584800Y-105003600D01*
X257048000Y-228346000D02*
X257048000Y-227431600D01*
X88675600Y-232308400D02*
X87750000Y-233234000D01*
X81584800Y-100126800D02*
X79349600Y-100126800D01*
X89750000Y-226734000D02*
X88750000Y-227734000D01*
X89789000Y-231724200D02*
X89204800Y-232308400D01*
X78587600Y-142773400D02*
X72999600Y-142773400D01*
X78994000Y-96570800D02*
X78994000Y-97205800D01*
D52*
X265023600Y-165633400D02*
X266160899Y-164496101D01*
D48*
X83362800Y-229971600D02*
X65379600Y-229971600D01*
D49*
X266149200Y-236847000D02*
X263821800Y-236847000D01*
X82753200Y-96570800D02*
X87619092Y-96570800D01*
X79138400Y-143324200D02*
X78587600Y-142773400D01*
X87619092Y-96570800D02*
X87619092Y-98591892D01*
X89204800Y-232308400D02*
X88675600Y-232308400D01*
D54*
X83540600Y-139649200D02*
X83540600Y-136525000D01*
D49*
X88750000Y-227734000D02*
X88750000Y-228734000D01*
D48*
X87512400Y-229971600D02*
X83362800Y-229971600D01*
D49*
X80416400Y-145389600D02*
X79138400Y-144111600D01*
X257048000Y-225806000D02*
X257048000Y-224753323D01*
X72059800Y-141833600D02*
X72059800Y-140411200D01*
D52*
X100431600Y-197993000D02*
X93149000Y-197993000D01*
D48*
X238252000Y-242976400D02*
X238252000Y-240893600D01*
X201035000Y-49504600D02*
X200781000Y-49758600D01*
X207131000Y-49504600D02*
X201035000Y-49504600D01*
D49*
X246532400Y-242824000D02*
X246532400Y-243484400D01*
X247040400Y-242316000D02*
X246532400Y-242824000D01*
D48*
X57505600Y-241630200D02*
X89750000Y-241630200D01*
X89750000Y-192594000D02*
X88748200Y-191592200D01*
X52857400Y-236982000D02*
X57505600Y-241630200D01*
X52857400Y-199796400D02*
X52857400Y-236982000D01*
D49*
X247904000Y-242316000D02*
X247040400Y-242316000D01*
D48*
X89750000Y-241630200D02*
X89750000Y-246202200D01*
X88748200Y-191592200D02*
X61061600Y-191592200D01*
D55*
X89750000Y-233234000D02*
X89750000Y-241630200D01*
D49*
X249580400Y-240639600D02*
X247904000Y-242316000D01*
X251460000Y-240639600D02*
X249580400Y-240639600D01*
D48*
X61061600Y-191592200D02*
X52857400Y-199796400D01*
D49*
X263702800Y-242773200D02*
X253593600Y-242773200D01*
X253593600Y-242773200D02*
X251460000Y-240639600D01*
D48*
X176651000Y-49504600D02*
X170555000Y-49504600D01*
X170555000Y-49504600D02*
X170301000Y-49758600D01*
D49*
X244830600Y-244271800D02*
X244830600Y-245863500D01*
X254085553Y-227186953D02*
X254085553Y-233188047D01*
X243306600Y-222758000D02*
X243713000Y-223164400D01*
X243107400Y-236036636D02*
X243107400Y-236038200D01*
X243713000Y-223914200D02*
X243713000Y-226796600D01*
X243713000Y-223164400D02*
X243713000Y-223914200D01*
X239623600Y-237007400D02*
X242900200Y-233730800D01*
X235889800Y-237007400D02*
X239623600Y-237007400D01*
X245541800Y-235508800D02*
X243636800Y-235508800D01*
X254076200Y-223342200D02*
X254076200Y-224383600D01*
X241376200Y-224383600D02*
X240512600Y-223520000D01*
X243636800Y-235508800D02*
X243635236Y-235508800D01*
X242138200Y-237007400D02*
X240665000Y-237007400D01*
X243107400Y-236038200D02*
X242138200Y-237007400D01*
X243635236Y-235508800D02*
X243107400Y-236036636D01*
X240512600Y-222758000D02*
X243306600Y-222758000D01*
X240512600Y-223520000D02*
X240512600Y-222758000D01*
X242112800Y-224383600D02*
X241376200Y-224383600D01*
X242112800Y-226796600D02*
X243713000Y-226796600D01*
D56*
X242926666Y-229122700D02*
X234595500Y-229122700D01*
X247182200Y-217527600D02*
X246971900Y-217737900D01*
X234595500Y-229122700D02*
X234385200Y-229333000D01*
X246971900Y-225077466D02*
X242926666Y-229122700D01*
X246971900Y-217737900D02*
X246971900Y-225077466D01*
X234595500Y-228843300D02*
X234385200Y-228633000D01*
X246692500Y-224961734D02*
X242810934Y-228843300D01*
X246692500Y-217737900D02*
X246692500Y-224961734D01*
X242810934Y-228843300D02*
X234595500Y-228843300D01*
X246482200Y-217527600D02*
X246692500Y-217737900D01*
X230955134Y-234327700D02*
X233266500Y-234327700D01*
X220713300Y-224085866D02*
X220713300Y-187103500D01*
X233266500Y-234327700D02*
X233476800Y-234538000D01*
X220713300Y-187103500D02*
X220503000Y-186893200D01*
X230955134Y-234327700D02*
X220713300Y-224085866D01*
X220992700Y-187103500D02*
X221203000Y-186893200D01*
X231070866Y-234048300D02*
X233266500Y-234048300D01*
X231070866Y-234048300D02*
X220992700Y-223970134D01*
X220992700Y-223970134D02*
X220992700Y-187103500D01*
X233266500Y-234048300D02*
X233476800Y-233838000D01*
X134647495Y-220232795D02*
X134647495Y-220093094D01*
X142756399Y-219936997D02*
X141172401Y-219936997D01*
X155250668Y-222059865D02*
X153678132Y-222059865D01*
X134166990Y-219612589D02*
X133752605Y-219612589D01*
X160854100Y-220713300D02*
X160854100Y-221456441D01*
X67475100Y-207956866D02*
X66811534Y-207293300D01*
X212717934Y-220992700D02*
X178714400Y-220992700D01*
X133272100Y-220232795D02*
X133272100Y-221613555D01*
X148074700Y-221456433D02*
X148074700Y-220992700D01*
X66811534Y-207293300D02*
X66250300Y-207293300D01*
X158074700Y-220992700D02*
X158074700Y-220249559D01*
X143074700Y-220992700D02*
X143074700Y-220255298D01*
X129972100Y-220093094D02*
X129972100Y-220232795D01*
X158074700Y-221456441D02*
X158074700Y-220992700D01*
X157750659Y-219925518D02*
X156178141Y-219925518D01*
X148074700Y-220992700D02*
X148074700Y-220249567D01*
X170854100Y-220249559D02*
X170854100Y-220713300D01*
X140256399Y-220992700D02*
X138714400Y-220992700D01*
X163074700Y-221456441D02*
X163074700Y-220992700D01*
X165854100Y-220249559D02*
X165854100Y-220713300D01*
X162750659Y-219925518D02*
X161178141Y-219925518D01*
X160250659Y-222059882D02*
X158678141Y-222059882D01*
X177798398Y-219936997D02*
X176172401Y-219936997D01*
X66250300Y-207293300D02*
X66040000Y-207503600D01*
X172750659Y-219925518D02*
X171178141Y-219925518D01*
X145250668Y-222059865D02*
X143678132Y-222059865D01*
X128807400Y-220992700D02*
X68826934Y-220992700D01*
X175854100Y-220255298D02*
X175854100Y-220394999D01*
X155854100Y-220249559D02*
X155854100Y-220713300D01*
X168074700Y-221456441D02*
X168074700Y-220992700D01*
X152750659Y-219925518D02*
X151178141Y-219925518D01*
X130862195Y-219612589D02*
X130452605Y-219612589D01*
X129212195Y-220992700D02*
X128807400Y-220992700D01*
X173074700Y-221456441D02*
X173074700Y-220992700D01*
X131342700Y-221613555D02*
X131342700Y-220992700D01*
X150250668Y-222059865D02*
X148678132Y-222059865D01*
X143074700Y-221456433D02*
X143074700Y-220992700D01*
X213772912Y-222047678D02*
X212717934Y-220992700D01*
X150854100Y-220713300D02*
X150854100Y-221456433D01*
X213772912Y-222345088D02*
X213772912Y-222047678D01*
X132511546Y-222374109D02*
X132103254Y-222374109D01*
X145854100Y-220249567D02*
X145854100Y-220713300D01*
X175854100Y-220394999D02*
X175854100Y-221456441D01*
X133272100Y-220093094D02*
X133272100Y-220232795D01*
X150854100Y-220249559D02*
X150854100Y-220713300D01*
X163074700Y-220992700D02*
X163074700Y-220249559D01*
X165854100Y-220713300D02*
X165854100Y-221456441D01*
X131342700Y-220992700D02*
X131342700Y-220093094D01*
X175250659Y-222059882D02*
X173678141Y-222059882D01*
X145854100Y-220713300D02*
X145854100Y-221456433D01*
X138714400Y-220992700D02*
X135407400Y-220992700D01*
X68826934Y-220992700D02*
X67475100Y-219640866D01*
X170250659Y-222059882D02*
X168678141Y-222059882D01*
X170854100Y-220713300D02*
X170854100Y-221456441D01*
X147750668Y-219925535D02*
X146178132Y-219925535D01*
X155854100Y-220713300D02*
X155854100Y-221456433D01*
X178116699Y-220394999D02*
X178116699Y-220255298D01*
X140854100Y-220255298D02*
X140854100Y-220394999D01*
X160854100Y-220249559D02*
X160854100Y-220713300D01*
X167750659Y-219925518D02*
X166178141Y-219925518D01*
X173074700Y-220992700D02*
X173074700Y-220249559D01*
X165250659Y-222059882D02*
X163678141Y-222059882D01*
X67475100Y-219640866D02*
X67475100Y-207956866D01*
X168074700Y-220992700D02*
X168074700Y-220249559D01*
X153074700Y-220992700D02*
X153074700Y-220249559D01*
X153074700Y-221456433D02*
X153074700Y-220992700D01*
X141172401Y-219937000D02*
G75*
G03*
X140854100Y-220255298I-1J-318300D01*
G01*
X133752605Y-219612600D02*
G75*
G03*
X133272100Y-220093094I-5J-480500D01*
G01*
X148074635Y-221456433D02*
G75*
G03*
X148678132Y-222059865I603465J33D01*
G01*
X160250659Y-222059800D02*
G75*
G03*
X160854100Y-221456441I41J603400D01*
G01*
X134647500Y-220232795D02*
G75*
G03*
X135407400Y-220992700I759900J-5D01*
G01*
X130452605Y-219612600D02*
G75*
G03*
X129972100Y-220093094I-5J-480500D01*
G01*
X178116703Y-220255298D02*
G75*
G03*
X177798398Y-219936997I-318303J-2D01*
G01*
X163074782Y-220249559D02*
G75*
G03*
X162750659Y-219925518I-324082J-41D01*
G01*
X131342711Y-220093094D02*
G75*
G03*
X130862195Y-219612589I-480511J-6D01*
G01*
X143074703Y-220255298D02*
G75*
G03*
X142756399Y-219936997I-318303J-2D01*
G01*
X165250659Y-222059800D02*
G75*
G03*
X165854100Y-221456441I41J603400D01*
G01*
X171178141Y-219925600D02*
G75*
G03*
X170854100Y-220249559I-41J-324000D01*
G01*
X148074765Y-220249567D02*
G75*
G03*
X147750668Y-219925535I-324065J-33D01*
G01*
X129212195Y-220992700D02*
G75*
G03*
X129972100Y-220232795I5J759900D01*
G01*
X153074782Y-220249559D02*
G75*
G03*
X152750659Y-219925518I-324082J-41D01*
G01*
X150250668Y-222059800D02*
G75*
G03*
X150854100Y-221456433I32J603400D01*
G01*
X170250659Y-222059800D02*
G75*
G03*
X170854100Y-221456441I41J603400D01*
G01*
X158074782Y-220249559D02*
G75*
G03*
X157750659Y-219925518I-324082J-41D01*
G01*
X178116700Y-220394999D02*
G75*
G03*
X178714400Y-220992700I597700J-1D01*
G01*
X134647511Y-220093094D02*
G75*
G03*
X134166990Y-219612589I-480511J-6D01*
G01*
X163074618Y-221456441D02*
G75*
G03*
X163678141Y-222059882I603482J41D01*
G01*
X173074782Y-220249559D02*
G75*
G03*
X172750659Y-219925518I-324082J-41D01*
G01*
X175250659Y-222059800D02*
G75*
G03*
X175854100Y-221456441I41J603400D01*
G01*
X158074618Y-221456441D02*
G75*
G03*
X158678141Y-222059882I603482J41D01*
G01*
X131342791Y-221613555D02*
G75*
G03*
X132103254Y-222374109I760509J-45D01*
G01*
X173074618Y-221456441D02*
G75*
G03*
X173678141Y-222059882I603482J41D01*
G01*
X140256399Y-220992700D02*
G75*
G03*
X140854100Y-220394999I1J597700D01*
G01*
X151178141Y-219925600D02*
G75*
G03*
X150854100Y-220249559I-41J-324000D01*
G01*
X143074635Y-221456433D02*
G75*
G03*
X143678132Y-222059865I603465J33D01*
G01*
X168074618Y-221456441D02*
G75*
G03*
X168678141Y-222059882I603482J41D01*
G01*
X155250668Y-222059800D02*
G75*
G03*
X155854100Y-221456433I32J603400D01*
G01*
X146178132Y-219925600D02*
G75*
G03*
X145854100Y-220249567I-32J-324000D01*
G01*
X166178141Y-219925600D02*
G75*
G03*
X165854100Y-220249559I-41J-324000D01*
G01*
X145250668Y-222059800D02*
G75*
G03*
X145854100Y-221456433I32J603400D01*
G01*
X153074635Y-221456433D02*
G75*
G03*
X153678132Y-222059865I603465J33D01*
G01*
X156178141Y-219925600D02*
G75*
G03*
X155854100Y-220249559I-41J-324000D01*
G01*
X161178141Y-219925600D02*
G75*
G03*
X160854100Y-220249559I-41J-324000D01*
G01*
X176172401Y-219937000D02*
G75*
G03*
X175854100Y-220255298I-1J-318300D01*
G01*
X132511546Y-222374200D02*
G75*
G03*
X133272100Y-221613555I-46J760600D01*
G01*
X168074782Y-220249559D02*
G75*
G03*
X167750659Y-219925518I-324082J-41D01*
G01*
X167750659Y-219646118D02*
X166178141Y-219646118D01*
X175574700Y-220255298D02*
X175574700Y-220394999D01*
X130862195Y-219333189D02*
X130452605Y-219333189D01*
X145574700Y-220713300D02*
X145574700Y-221456433D01*
X138714400Y-220713300D02*
X135407400Y-220713300D01*
X155250668Y-221780465D02*
X153678132Y-221780465D01*
X158354100Y-220992700D02*
X158354100Y-220249559D01*
X145250668Y-221780465D02*
X143678132Y-221780465D01*
X163354100Y-220992700D02*
X163354100Y-220249559D01*
X173354100Y-220992700D02*
X173354100Y-220249559D01*
X160574700Y-220249559D02*
X160574700Y-220713300D01*
X162750659Y-219646118D02*
X161178141Y-219646118D01*
X140256399Y-220713300D02*
X138714400Y-220713300D01*
X129692700Y-220093094D02*
X129692700Y-220232795D01*
X170574700Y-220249559D02*
X170574700Y-220713300D01*
X148354100Y-220992700D02*
X148354100Y-220249567D01*
X68942666Y-220713300D02*
X67754500Y-219525134D01*
X153354100Y-221456433D02*
X153354100Y-220992700D01*
X140574700Y-220255298D02*
X140574700Y-220394999D01*
X129212195Y-220713300D02*
X128807400Y-220713300D01*
X214267888Y-221850112D02*
X213970478Y-221850112D01*
X142756399Y-219657597D02*
X141172401Y-219657597D01*
X128807400Y-220713300D02*
X68942666Y-220713300D01*
X153354100Y-220992700D02*
X153354100Y-220249559D01*
X175574700Y-220394999D02*
X175574700Y-221456441D01*
X213970478Y-221850112D02*
X212833666Y-220713300D01*
X165574700Y-220713300D02*
X165574700Y-221456441D01*
X131622100Y-220992700D02*
X131622100Y-220093094D01*
X150574700Y-220249559D02*
X150574700Y-220713300D01*
X178396099Y-220394999D02*
X178396099Y-220255298D01*
X150250668Y-221780465D02*
X148678132Y-221780465D01*
X165574700Y-220249559D02*
X165574700Y-220713300D01*
X177798398Y-219657597D02*
X176172401Y-219657597D01*
X170250659Y-221780482D02*
X168678141Y-221780482D01*
X132992700Y-220232795D02*
X132992700Y-221613555D01*
X152750659Y-219646118D02*
X151178141Y-219646118D01*
X155574700Y-220249559D02*
X155574700Y-220713300D01*
X145574700Y-220249567D02*
X145574700Y-220713300D01*
X155574700Y-220713300D02*
X155574700Y-221456433D01*
X148354100Y-221456433D02*
X148354100Y-220992700D01*
X165250659Y-221780482D02*
X163678141Y-221780482D01*
X175250659Y-221780482D02*
X173678141Y-221780482D01*
X143354100Y-220992700D02*
X143354100Y-220255298D01*
X134926895Y-220232795D02*
X134926895Y-220093094D01*
X158354100Y-221456441D02*
X158354100Y-220992700D01*
X163354100Y-221456441D02*
X163354100Y-220992700D01*
X132992700Y-220093094D02*
X132992700Y-220232795D01*
X66250300Y-207013900D02*
X66040000Y-206803600D01*
X173354100Y-221456441D02*
X173354100Y-220992700D01*
X172750659Y-219646118D02*
X171178141Y-219646118D01*
X67754500Y-219525134D02*
X67754500Y-207841134D01*
X157750659Y-219646118D02*
X156178141Y-219646118D01*
X147750668Y-219646135D02*
X146178132Y-219646135D01*
X132511546Y-222094709D02*
X132103254Y-222094709D01*
X212833666Y-220713300D02*
X178714400Y-220713300D01*
X66927266Y-207013900D02*
X66250300Y-207013900D01*
X168354100Y-220992700D02*
X168354100Y-220249559D01*
X131622100Y-221613555D02*
X131622100Y-220992700D01*
X160574700Y-220713300D02*
X160574700Y-221456441D01*
X67754500Y-207841134D02*
X66927266Y-207013900D01*
X150574700Y-220713300D02*
X150574700Y-221456433D01*
X168354100Y-221456441D02*
X168354100Y-220992700D01*
X160250659Y-221780482D02*
X158678141Y-221780482D01*
X170574700Y-220713300D02*
X170574700Y-221456441D01*
X134166990Y-219333189D02*
X133752605Y-219333189D01*
X143354100Y-221456433D02*
X143354100Y-220992700D01*
X130452605Y-219333200D02*
G75*
G03*
X129692700Y-220093094I-5J-759900D01*
G01*
X156178141Y-219646200D02*
G75*
G03*
X155574700Y-220249559I-41J-603400D01*
G01*
X151178141Y-219646200D02*
G75*
G03*
X150574700Y-220249559I-41J-603400D01*
G01*
X171178141Y-219646200D02*
G75*
G03*
X170574700Y-220249559I-41J-603400D01*
G01*
X134926900Y-220232795D02*
G75*
G03*
X135407400Y-220713300I480500J-5D01*
G01*
X155250668Y-221780400D02*
G75*
G03*
X155574700Y-221456433I32J324000D01*
G01*
X153354182Y-220249559D02*
G75*
G03*
X152750659Y-219646118I-603482J-41D01*
G01*
X178396103Y-220255298D02*
G75*
G03*
X177798398Y-219657597I-597703J-2D01*
G01*
X132511546Y-222094800D02*
G75*
G03*
X132992700Y-221613555I-46J481200D01*
G01*
X133752605Y-219333200D02*
G75*
G03*
X132992700Y-220093094I-5J-759900D01*
G01*
X168354018Y-221456441D02*
G75*
G03*
X168678141Y-221780482I324082J41D01*
G01*
X148354035Y-221456433D02*
G75*
G03*
X148678132Y-221780465I324065J33D01*
G01*
X176172401Y-219657600D02*
G75*
G03*
X175574700Y-220255298I-1J-597700D01*
G01*
X131622111Y-220093094D02*
G75*
G03*
X130862195Y-219333189I-759911J-6D01*
G01*
X143354103Y-220255298D02*
G75*
G03*
X142756399Y-219657597I-597703J-2D01*
G01*
X173354182Y-220249559D02*
G75*
G03*
X172750659Y-219646118I-603482J-41D01*
G01*
X153354035Y-221456433D02*
G75*
G03*
X153678132Y-221780465I324065J33D01*
G01*
X141172401Y-219657600D02*
G75*
G03*
X140574700Y-220255298I-1J-597700D01*
G01*
X161178141Y-219646200D02*
G75*
G03*
X160574700Y-220249559I-41J-603400D01*
G01*
X166178141Y-219646200D02*
G75*
G03*
X165574700Y-220249559I-41J-603400D01*
G01*
X146178132Y-219646200D02*
G75*
G03*
X145574700Y-220249567I-32J-603400D01*
G01*
X175250659Y-221780400D02*
G75*
G03*
X175574700Y-221456441I41J324000D01*
G01*
X129212195Y-220713300D02*
G75*
G03*
X129692700Y-220232795I5J480500D01*
G01*
X163354182Y-220249559D02*
G75*
G03*
X162750659Y-219646118I-603482J-41D01*
G01*
X158354182Y-220249559D02*
G75*
G03*
X157750659Y-219646118I-603482J-41D01*
G01*
X143354035Y-221456433D02*
G75*
G03*
X143678132Y-221780465I324065J33D01*
G01*
X173354018Y-221456441D02*
G75*
G03*
X173678141Y-221780482I324082J41D01*
G01*
X134926911Y-220093094D02*
G75*
G03*
X134166990Y-219333189I-759911J-6D01*
G01*
X160250659Y-221780400D02*
G75*
G03*
X160574700Y-221456441I41J324000D01*
G01*
X150250668Y-221780400D02*
G75*
G03*
X150574700Y-221456433I32J324000D01*
G01*
X148354165Y-220249567D02*
G75*
G03*
X147750668Y-219646135I-603465J-33D01*
G01*
X131622191Y-221613555D02*
G75*
G03*
X132103254Y-222094709I481109J-45D01*
G01*
X163354018Y-221456441D02*
G75*
G03*
X163678141Y-221780482I324082J41D01*
G01*
X145250668Y-221780400D02*
G75*
G03*
X145574700Y-221456433I32J324000D01*
G01*
X168354182Y-220249559D02*
G75*
G03*
X167750659Y-219646118I-603482J-41D01*
G01*
X170250659Y-221780400D02*
G75*
G03*
X170574700Y-221456441I41J324000D01*
G01*
X140256399Y-220713300D02*
G75*
G03*
X140574700Y-220394999I1J318300D01*
G01*
X178396100Y-220394999D02*
G75*
G03*
X178714400Y-220713300I318300J-1D01*
G01*
X158354018Y-221456441D02*
G75*
G03*
X158678141Y-221780482I324082J41D01*
G01*
X165250659Y-221780400D02*
G75*
G03*
X165574700Y-221456441I41J324000D01*
G01*
D53*
X80314800Y-240741200D02*
X76009500Y-236435900D01*
D56*
X238854500Y-223647075D02*
X238602041Y-223647075D01*
X231655066Y-221856300D02*
X224066100Y-214267334D01*
X224066100Y-194875900D02*
X224276400Y-194665600D01*
X238602041Y-223647075D02*
X236811266Y-221856300D01*
X224066100Y-214267334D02*
X224066100Y-194875900D01*
X239064800Y-223436775D02*
X238854500Y-223647075D01*
X236811266Y-221856300D02*
X231655066Y-221856300D01*
X238486309Y-223926475D02*
X236695534Y-222135700D01*
X239064800Y-224136775D02*
X238854500Y-223926475D01*
X238854500Y-223926475D02*
X238486309Y-223926475D01*
X223786700Y-214383066D02*
X223786700Y-194875900D01*
X223786700Y-194875900D02*
X223576400Y-194665600D01*
X231539334Y-222135700D02*
X223786700Y-214383066D01*
X236695534Y-222135700D02*
X231539334Y-222135700D01*
D53*
X97790000Y-189634000D02*
X98750000Y-190594000D01*
X63601600Y-187071000D02*
X97155000Y-187071000D01*
X249580400Y-242316000D02*
X249580400Y-243281200D01*
X62560200Y-248843800D02*
X51485800Y-237769400D01*
X249580400Y-243281200D02*
X246176800Y-246684800D01*
X246176800Y-246684800D02*
X240792000Y-246684800D01*
X207365600Y-248843800D02*
X203860400Y-248843800D01*
X97155000Y-187071000D02*
X97790000Y-187706000D01*
X51485800Y-237769400D02*
X51485800Y-199186800D01*
X51485800Y-199186800D02*
X63601600Y-187071000D01*
X97790000Y-187706000D02*
X97790000Y-189634000D01*
X90068400Y-248843800D02*
X62560200Y-248843800D01*
X239674400Y-241249200D02*
X242417600Y-241249200D01*
D56*
X204999226Y-224675700D02*
X204254400Y-224675700D01*
X258508500Y-236873334D02*
X255643934Y-239737900D01*
X210243104Y-223563408D02*
X209465696Y-223563408D01*
X206749226Y-223575652D02*
X205959574Y-223575652D01*
X208493104Y-225787992D02*
X207715696Y-225787992D01*
X231680466Y-239737900D02*
X216618266Y-224675700D01*
X207369100Y-224955100D02*
X207369100Y-224195526D01*
X95598534Y-224675700D02*
X94750000Y-225524234D01*
X208839700Y-224189404D02*
X208839700Y-224675700D01*
X205339700Y-224195526D02*
X205339700Y-224335226D01*
X204254400Y-224675700D02*
X95598534Y-224675700D01*
X94750000Y-225524234D02*
X94750000Y-228734000D01*
X258508500Y-219640866D02*
X258508500Y-236873334D01*
X216618266Y-224675700D02*
X213004400Y-224675700D01*
X208839700Y-224675700D02*
X208839700Y-225441396D01*
X212384526Y-225295574D02*
X212384526Y-225435274D01*
X255986800Y-209423000D02*
X256197100Y-209633300D01*
X256197100Y-217329466D02*
X258508500Y-219640866D01*
X210869100Y-225435274D02*
X210869100Y-225295574D01*
X255643934Y-239737900D02*
X231680466Y-239737900D01*
X207369100Y-225441396D02*
X207369100Y-224955100D01*
X256197100Y-209633300D02*
X256197100Y-217329466D01*
X210869100Y-225295574D02*
X210869100Y-224189404D01*
X212044052Y-225775748D02*
X211209574Y-225775748D01*
X212044052Y-225775726D02*
G75*
G03*
X212384526Y-225435274I48J340426D01*
G01*
X213004400Y-224675726D02*
G75*
G03*
X212384526Y-225295574I0J-619874D01*
G01*
X208493104Y-225788000D02*
G75*
G03*
X208839700Y-225441396I-4J346600D01*
G01*
X205959574Y-223575600D02*
G75*
G03*
X205339700Y-224195526I26J-619900D01*
G01*
X207369108Y-225441396D02*
G75*
G03*
X207715696Y-225787992I346592J-4D01*
G01*
X207369048Y-224195526D02*
G75*
G03*
X206749226Y-223575652I-619848J26D01*
G01*
X204999226Y-224675700D02*
G75*
G03*
X205339700Y-224335226I-26J340500D01*
G01*
X210869092Y-224189404D02*
G75*
G03*
X210243104Y-223563408I-625992J4D01*
G01*
X210869152Y-225435274D02*
G75*
G03*
X211209574Y-225775748I340448J-26D01*
G01*
X209465696Y-223563400D02*
G75*
G03*
X208839700Y-224189404I4J-626000D01*
G01*
X205959574Y-223855052D02*
X206749226Y-223855052D01*
X207089700Y-224955100D02*
X207089700Y-225441396D01*
X258787900Y-236989066D02*
X258787900Y-219525134D01*
X98564400Y-224955100D02*
X99214400Y-224955100D01*
X210589700Y-225295574D02*
X210589700Y-225435274D01*
X212663926Y-225435274D02*
X212663926Y-225295574D01*
X258787900Y-219525134D02*
X256476500Y-217213734D01*
X96464400Y-225255100D02*
X96464400Y-225337507D01*
X99214400Y-224955100D02*
X204999226Y-224955100D01*
X231564734Y-240017300D02*
X255759666Y-240017300D01*
X216502534Y-224955100D02*
X231564734Y-240017300D01*
X98264400Y-225337481D02*
X98264400Y-225255100D01*
X211209574Y-226055148D02*
X212044052Y-226055148D01*
X209465696Y-223842808D02*
X210243104Y-223842808D01*
X207715696Y-226067392D02*
X208493104Y-226067392D01*
X97664400Y-225255100D02*
X97664400Y-225337481D01*
X207089700Y-224195526D02*
X207089700Y-224955100D01*
X256476500Y-217213734D02*
X256476500Y-209633300D01*
X95029401Y-226013401D02*
X95029401Y-225639965D01*
X255759666Y-240017300D02*
X258787900Y-236989066D01*
X95714266Y-224955100D02*
X96164400Y-224955100D01*
X209119100Y-225441396D02*
X209119100Y-224675700D01*
X209119100Y-224675700D02*
X209119100Y-224189404D01*
X205619100Y-224335226D02*
X205619100Y-224195526D01*
X95029401Y-225639965D02*
X95714266Y-224955100D01*
X256476500Y-209633300D02*
X256686800Y-209423000D01*
X97064400Y-225337507D02*
X97064400Y-225255100D01*
X213004400Y-224955100D02*
X216502534Y-224955100D01*
X95750000Y-226734000D02*
X95029401Y-226013401D01*
X210589700Y-224189404D02*
X210589700Y-225295574D01*
X209465696Y-223842800D02*
G75*
G03*
X209119100Y-224189404I4J-346600D01*
G01*
X98564400Y-224955100D02*
G75*
G03*
X98264400Y-225255100I0J-300000D01*
G01*
X210589752Y-225435274D02*
G75*
G03*
X211209574Y-226055148I619848J-26D01*
G01*
X97664400Y-225255100D02*
G75*
G03*
X97364400Y-224955100I-300000J0D01*
G01*
X207089648Y-224195526D02*
G75*
G03*
X206749226Y-223855052I-340448J26D01*
G01*
X207089708Y-225441396D02*
G75*
G03*
X207715696Y-226067392I625992J-4D01*
G01*
X204999226Y-224955100D02*
G75*
G03*
X205619100Y-224335226I-26J619900D01*
G01*
X210589692Y-224189404D02*
G75*
G03*
X210243104Y-223842808I-346592J4D01*
G01*
X96464400Y-225255100D02*
G75*
G03*
X96164400Y-224955100I-300000J0D01*
G01*
X205959574Y-223855000D02*
G75*
G03*
X205619100Y-224195526I26J-340500D01*
G01*
X213004400Y-224955126D02*
G75*
G03*
X212663926Y-225295574I0J-340474D01*
G01*
X97664419Y-225337481D02*
G75*
G03*
X97964400Y-225637481I299981J-19D01*
G01*
X96464393Y-225337507D02*
G75*
G03*
X96764400Y-225637507I300007J7D01*
G01*
X96764400Y-225637500D02*
G75*
G03*
X97064400Y-225337507I0J300000D01*
G01*
X97964400Y-225637500D02*
G75*
G03*
X98264400Y-225337481I0J300000D01*
G01*
X97364400Y-224955100D02*
G75*
G03*
X97064400Y-225255100I0J-300000D01*
G01*
X212044052Y-226055126D02*
G75*
G03*
X212663926Y-225435274I48J619826D01*
G01*
X208493104Y-226067400D02*
G75*
G03*
X209119100Y-225441396I-4J626000D01*
G01*
X190265600Y-228920800D02*
X190115600Y-228920800D01*
X95669100Y-231666334D02*
X95669100Y-230548734D01*
X204425900Y-230560500D02*
X204425900Y-230060500D01*
X181820266Y-230060500D02*
X181251582Y-230629182D01*
X189755300Y-229281100D02*
X189755300Y-229781100D01*
X188325900Y-230560500D02*
X188325900Y-230060500D01*
X192925900Y-230060500D02*
X192925900Y-229281100D01*
X163876000Y-235267500D02*
X95700134Y-235267500D01*
X96436734Y-229781100D02*
X97605134Y-229781100D01*
X215432500Y-232854500D02*
X215432500Y-232050100D01*
X184515600Y-231200200D02*
X184365600Y-231200200D01*
X201255300Y-229781100D02*
X201255300Y-230560500D01*
X214761900Y-232575100D02*
X214761900Y-233379500D01*
X177687973Y-233090552D02*
X177786755Y-233189334D01*
X216661900Y-232575100D02*
X216661900Y-233379500D01*
X97605134Y-229781100D02*
X97750000Y-229636234D01*
X185665600Y-228920800D02*
X185515600Y-228920800D01*
X211099400Y-230919586D02*
X211099399Y-230919586D01*
X165930208Y-236448784D02*
X165421792Y-236448784D01*
X196655300Y-229281100D02*
X196655300Y-229781100D01*
X212476577Y-232854500D02*
X211422534Y-232854500D01*
X177786755Y-234094007D02*
X176613266Y-235267500D01*
X187965600Y-228920800D02*
X187815600Y-228920800D01*
X179738586Y-230530399D02*
X179526453Y-230742531D01*
X192565600Y-228920800D02*
X192415600Y-228920800D01*
X201765600Y-228920800D02*
X201615600Y-228920800D01*
X191415600Y-231200200D02*
X191265600Y-231200200D01*
X203555300Y-229281100D02*
X203555300Y-229781100D01*
X167861300Y-235788878D02*
X167861300Y-235267500D01*
X166590700Y-234466732D02*
X166590700Y-234988100D01*
X175234416Y-236448784D02*
X174721792Y-236448784D01*
X194865600Y-228920800D02*
X194715600Y-228920800D01*
X205855300Y-229420800D02*
X205855300Y-230560500D01*
X204065600Y-228920800D02*
X203915600Y-228920800D01*
X194355300Y-229281100D02*
X194355300Y-229781100D01*
X192055300Y-229281100D02*
X192055300Y-229781100D01*
X208628534Y-230060500D02*
X207365600Y-230060500D01*
X183215600Y-230060500D02*
X181820266Y-230060500D01*
X196655300Y-229781100D02*
X196655300Y-230560500D01*
X172129632Y-236449936D02*
X171622368Y-236449936D01*
X203555300Y-229781100D02*
X203555300Y-230560500D01*
X183725900Y-230560500D02*
X183725900Y-230420800D01*
X94627700Y-234195066D02*
X94627700Y-232707734D01*
X199825900Y-230560500D02*
X199825900Y-230060500D01*
X198315600Y-231200200D02*
X198165600Y-231200200D01*
X180431126Y-233061420D02*
X180431127Y-233061419D01*
X202125900Y-230560500D02*
X202125900Y-230060500D01*
X183365600Y-230060500D02*
X183215600Y-230060500D01*
X213532500Y-233379500D02*
X213532500Y-233189800D01*
X176613266Y-235267500D02*
X176276000Y-235267500D01*
X202915600Y-231200200D02*
X202765600Y-231200200D01*
X170579632Y-234085064D02*
X170072368Y-234085064D01*
X186815600Y-231200200D02*
X186665600Y-231200200D01*
X194355300Y-229781100D02*
X194355300Y-230560500D01*
X95669100Y-230548734D02*
X96436734Y-229781100D01*
X199465600Y-228920800D02*
X199315600Y-228920800D01*
X167861300Y-235267500D02*
X167861300Y-234466732D01*
X179314321Y-233273552D02*
X179314322Y-233273553D01*
X186025900Y-230560500D02*
X186025900Y-230060500D01*
X192055300Y-229781100D02*
X192055300Y-230560500D01*
X210448436Y-230778165D02*
X210448436Y-230778164D01*
X172790700Y-234988100D02*
X172790700Y-235788868D01*
X213197200Y-232854500D02*
X212476577Y-232854500D01*
X169029623Y-236449955D02*
X168522377Y-236449955D01*
X166590700Y-234988100D02*
X166590700Y-235788292D01*
X170961300Y-235267500D02*
X170961300Y-234466732D01*
X187455300Y-229281100D02*
X187455300Y-229781100D01*
X217332500Y-233379500D02*
X217332500Y-233189800D01*
X94627700Y-232707734D02*
X95669100Y-231666334D01*
X201255300Y-229281100D02*
X201255300Y-229781100D01*
X197165600Y-228920800D02*
X197015600Y-228920800D01*
X197525900Y-230060500D02*
X197525900Y-229281100D01*
X218561900Y-233189800D02*
X218561900Y-233379500D01*
X179738586Y-230530398D02*
X179738586Y-230530399D01*
X189115600Y-231200200D02*
X188965600Y-231200200D01*
X177687974Y-233090552D02*
X177687973Y-233090552D01*
X209444980Y-230876946D02*
X208628534Y-230060500D01*
X197525900Y-230560500D02*
X197525900Y-230060500D01*
X187455300Y-229781100D02*
X187455300Y-230560500D01*
X174061300Y-235648592D02*
X174061300Y-234466732D01*
X198955300Y-229281100D02*
X198955300Y-229781100D01*
X177900106Y-232368879D02*
X177687973Y-232581011D01*
X196015600Y-231200200D02*
X195865600Y-231200200D01*
X200615600Y-231200200D02*
X200465600Y-231200200D01*
X190625900Y-230560500D02*
X190625900Y-230060500D01*
X195225900Y-230060500D02*
X195225900Y-229281100D01*
X211422534Y-232854500D02*
X211000617Y-232432582D01*
X174061300Y-235788292D02*
X174061300Y-235648592D01*
X189755300Y-229781100D02*
X189755300Y-230560500D01*
X172790700Y-234466732D02*
X172790700Y-234988100D01*
X185155300Y-229281100D02*
X185155300Y-229781100D01*
X179314322Y-233273553D02*
X178409647Y-232368879D01*
X180346910Y-230629182D02*
X180248127Y-230530399D01*
X205215600Y-231200200D02*
X205065600Y-231200200D01*
X216661900Y-232050100D02*
X216661900Y-232575100D01*
X199825900Y-230060500D02*
X199825900Y-229281100D01*
X170961300Y-235788868D02*
X170961300Y-235267500D01*
X211099399Y-230919586D02*
X210957977Y-230778164D01*
X97750000Y-229636234D02*
X97750000Y-226734000D01*
X198955300Y-229781100D02*
X198955300Y-230560500D01*
X205855300Y-229281100D02*
X205855300Y-229420800D01*
X180431127Y-233061419D02*
X180218994Y-233273553D01*
X192925900Y-230560500D02*
X192925900Y-230060500D01*
X186025900Y-230060500D02*
X186025900Y-229281100D01*
X177786756Y-234094007D02*
X177786755Y-234094007D01*
X164761300Y-235788292D02*
X164761300Y-235648592D01*
X95700134Y-235267500D02*
X94627700Y-234195066D01*
X195225900Y-230560500D02*
X195225900Y-230060500D01*
X202125900Y-230060500D02*
X202125900Y-229281100D01*
X185155300Y-229781100D02*
X185155300Y-230560500D01*
X193715600Y-231200200D02*
X193565600Y-231200200D01*
X188325900Y-230060500D02*
X188325900Y-229281100D01*
X169690700Y-234988100D02*
X169690700Y-235788878D01*
X211000617Y-231527910D02*
X211099399Y-231429127D01*
X173679632Y-234085064D02*
X173172368Y-234085064D01*
X221988900Y-232854500D02*
X218897200Y-232854500D01*
X217332500Y-233189800D02*
X217332500Y-232050100D01*
X206365600Y-228920800D02*
X206215600Y-228920800D01*
X204425900Y-230060500D02*
X204425900Y-229281100D01*
X167479632Y-234085064D02*
X166972368Y-234085064D01*
X177900106Y-232368880D02*
X177900106Y-232368879D01*
X175894908Y-235648592D02*
X175894908Y-235788292D01*
X179526454Y-231252072D02*
X179526453Y-231252072D01*
X206725900Y-229420800D02*
X206725900Y-229281100D01*
X169690700Y-234466732D02*
X169690700Y-234988100D01*
X215432500Y-233379500D02*
X215432500Y-232854500D01*
X210448436Y-230778164D02*
X210349653Y-230876946D01*
X222199200Y-233064800D02*
X221988900Y-232854500D01*
X164380208Y-235267500D02*
X163876000Y-235267500D01*
X179526453Y-231252072D02*
X180431127Y-232156747D01*
X214761900Y-232050100D02*
X214761900Y-232575100D01*
X209444980Y-230876947D02*
X209444980Y-230876946D01*
X190625900Y-230060500D02*
X190625900Y-229281100D01*
X192925900Y-230560500D02*
G75*
G03*
X193565600Y-231200200I639700J0D01*
G01*
X192925900Y-229281100D02*
G75*
G03*
X192565600Y-228920800I-360300J0D01*
G01*
X199825900Y-230560500D02*
G75*
G03*
X200465600Y-231200200I639700J0D01*
G01*
X217947200Y-233994200D02*
G75*
G03*
X218561900Y-233379500I0J614700D01*
G01*
X180346911Y-230629181D02*
G75*
G03*
X181251581Y-230629181I452335J452334D01*
G01*
X184515600Y-231200200D02*
G75*
G03*
X185155300Y-230560500I0J639700D01*
G01*
X218897200Y-232854500D02*
G75*
G03*
X218561900Y-233189800I0J-335300D01*
G01*
X188325900Y-230560500D02*
G75*
G03*
X188965600Y-231200200I639700J0D01*
G01*
X216997200Y-231714800D02*
G75*
G03*
X216661900Y-232050100I0J-335300D01*
G01*
X173172368Y-234085000D02*
G75*
G03*
X172790700Y-234466732I32J-381700D01*
G01*
X177687992Y-232581030D02*
G75*
G03*
X177687974Y-233090552I254708J-254770D01*
G01*
X176276000Y-235267508D02*
G75*
G03*
X175894908Y-235648592I0J-381092D01*
G01*
X185515600Y-228920800D02*
G75*
G03*
X185155300Y-229281100I0J-360300D01*
G01*
X197525900Y-230560500D02*
G75*
G03*
X198165600Y-231200200I639700J0D01*
G01*
X175234416Y-236448808D02*
G75*
G03*
X175894908Y-235788292I-16J660508D01*
G01*
X164761300Y-235648592D02*
G75*
G03*
X164380208Y-235267500I-381100J-8D01*
G01*
X199825900Y-229281100D02*
G75*
G03*
X199465600Y-228920800I-360300J0D01*
G01*
X178409669Y-232368857D02*
G75*
G03*
X177900107Y-232368881I-254769J-254743D01*
G01*
X172129632Y-236450000D02*
G75*
G03*
X172790700Y-235788868I-32J661100D01*
G01*
X180431143Y-233061437D02*
G75*
G03*
X180431127Y-232156747I-452343J452337D01*
G01*
X215097200Y-231714800D02*
G75*
G03*
X214761900Y-232050100I0J-335300D01*
G01*
X205215600Y-231200200D02*
G75*
G03*
X205855300Y-230560500I0J639700D01*
G01*
X179526452Y-230742530D02*
G75*
G03*
X179526454Y-231252072I254748J-254770D01*
G01*
X217332500Y-232050100D02*
G75*
G03*
X216997200Y-231714800I-335300J0D01*
G01*
X166972368Y-234085000D02*
G75*
G03*
X166590700Y-234466732I32J-381700D01*
G01*
X189115600Y-231200200D02*
G75*
G03*
X189755300Y-230560500I0J639700D01*
G01*
X186025900Y-230560500D02*
G75*
G03*
X186665600Y-231200200I639700J0D01*
G01*
X165930208Y-236448800D02*
G75*
G03*
X166590700Y-235788292I-8J660500D01*
G01*
X206725900Y-229281100D02*
G75*
G03*
X206365600Y-228920800I-360300J0D01*
G01*
X213532500Y-233379500D02*
G75*
G03*
X214147200Y-233994200I614700J0D01*
G01*
X199315600Y-228920800D02*
G75*
G03*
X198955300Y-229281100I0J-360300D01*
G01*
X216047200Y-233994200D02*
G75*
G03*
X216661900Y-233379500I0J614700D01*
G01*
X202125900Y-229281100D02*
G75*
G03*
X201765600Y-228920800I-360300J0D01*
G01*
X174061316Y-235788292D02*
G75*
G03*
X174721792Y-236448784I660484J-8D01*
G01*
X198315600Y-231200200D02*
G75*
G03*
X198955300Y-230560500I0J639700D01*
G01*
X209444965Y-230876962D02*
G75*
G03*
X210349652Y-230876945I452335J452362D01*
G01*
X197525900Y-229281100D02*
G75*
G03*
X197165600Y-228920800I-360300J0D01*
G01*
X202915600Y-231200200D02*
G75*
G03*
X203555300Y-230560500I0J639700D01*
G01*
X167861345Y-235788878D02*
G75*
G03*
X168522377Y-236449955I661055J-22D01*
G01*
X215432500Y-233379500D02*
G75*
G03*
X216047200Y-233994200I614700J0D01*
G01*
X188325900Y-229281100D02*
G75*
G03*
X187965600Y-228920800I-360300J0D01*
G01*
X195225900Y-229281100D02*
G75*
G03*
X194865600Y-228920800I-360300J0D01*
G01*
X167861236Y-234466732D02*
G75*
G03*
X167479632Y-234085064I-381636J32D01*
G01*
X192415600Y-228920800D02*
G75*
G03*
X192055300Y-229281100I0J-360300D01*
G01*
X203915600Y-228920800D02*
G75*
G03*
X203555300Y-229281100I0J-360300D01*
G01*
X193715600Y-231200200D02*
G75*
G03*
X194355300Y-230560500I0J639700D01*
G01*
X204425900Y-229281100D02*
G75*
G03*
X204065600Y-228920800I-360300J0D01*
G01*
X211000571Y-231527864D02*
G75*
G03*
X211000617Y-232432582I452429J-452336D01*
G01*
X179314363Y-233273510D02*
G75*
G03*
X180218994Y-233273553I452337J452310D01*
G01*
X211099443Y-231429171D02*
G75*
G03*
X211099400Y-230919586I-254843J254771D01*
G01*
X183725900Y-230420800D02*
G75*
G03*
X183365600Y-230060500I-360300J0D01*
G01*
X170961364Y-235788868D02*
G75*
G03*
X171622368Y-236449936I661036J-32D01*
G01*
X190625900Y-229281100D02*
G75*
G03*
X190265600Y-228920800I-360300J0D01*
G01*
X200615600Y-231200200D02*
G75*
G03*
X201255300Y-230560500I0J639700D01*
G01*
X186815600Y-231200200D02*
G75*
G03*
X187455300Y-230560500I0J639700D01*
G01*
X201615600Y-228920800D02*
G75*
G03*
X201255300Y-229281100I0J-360300D01*
G01*
X164761316Y-235788292D02*
G75*
G03*
X165421792Y-236448784I660484J-8D01*
G01*
X206725900Y-229420800D02*
G75*
G03*
X207365600Y-230060500I639700J0D01*
G01*
X206215600Y-228920800D02*
G75*
G03*
X205855300Y-229281100I0J-360300D01*
G01*
X214147200Y-233994200D02*
G75*
G03*
X214761900Y-233379500I0J614700D01*
G01*
X174061236Y-234466732D02*
G75*
G03*
X173679632Y-234085064I-381636J32D01*
G01*
X210957970Y-230778171D02*
G75*
G03*
X210448436Y-230778165I-254770J-254729D01*
G01*
X213532500Y-233189800D02*
G75*
G03*
X213197200Y-232854500I-335300J0D01*
G01*
X191415600Y-231200200D02*
G75*
G03*
X192055300Y-230560500I0J639700D01*
G01*
X202125900Y-230560500D02*
G75*
G03*
X202765600Y-231200200I639700J0D01*
G01*
X169029623Y-236450000D02*
G75*
G03*
X169690700Y-235788878I-23J661100D01*
G01*
X170961236Y-234466732D02*
G75*
G03*
X170579632Y-234085064I-381636J32D01*
G01*
X180248170Y-230530356D02*
G75*
G03*
X179738587Y-230530399I-254770J-254844D01*
G01*
X190115600Y-228920800D02*
G75*
G03*
X189755300Y-229281100I0J-360300D01*
G01*
X196015600Y-231200200D02*
G75*
G03*
X196655300Y-230560500I0J639700D01*
G01*
X194715600Y-228920800D02*
G75*
G03*
X194355300Y-229281100I0J-360300D01*
G01*
X204425900Y-230560500D02*
G75*
G03*
X205065600Y-231200200I639700J0D01*
G01*
X187815600Y-228920800D02*
G75*
G03*
X187455300Y-229281100I0J-360300D01*
G01*
X170072368Y-234085000D02*
G75*
G03*
X169690700Y-234466732I32J-381700D01*
G01*
X217332500Y-233379500D02*
G75*
G03*
X217947200Y-233994200I614700J0D01*
G01*
X215432500Y-232050100D02*
G75*
G03*
X215097200Y-231714800I-335300J0D01*
G01*
X195225900Y-230560500D02*
G75*
G03*
X195865600Y-231200200I639700J0D01*
G01*
X197015600Y-228920800D02*
G75*
G03*
X196655300Y-229281100I0J-360300D01*
G01*
X186025900Y-229281100D02*
G75*
G03*
X185665600Y-228920800I-360300J0D01*
G01*
X177786785Y-234094036D02*
G75*
G03*
X177786755Y-233189334I-452385J452336D01*
G01*
X183725900Y-230560500D02*
G75*
G03*
X184365600Y-231200200I639700J0D01*
G01*
X190625900Y-230560500D02*
G75*
G03*
X191265600Y-231200200I639700J0D01*
G01*
X179511887Y-233075988D02*
X179511888Y-233075986D01*
X217611900Y-233189800D02*
X217611900Y-233379500D01*
X194075900Y-229781100D02*
X194075900Y-229281100D01*
X197805300Y-230060500D02*
X197805300Y-230560500D01*
X169411300Y-234988100D02*
X169411300Y-234466732D01*
X189475900Y-229781100D02*
X189475900Y-229281100D01*
X216382500Y-233379500D02*
X216382500Y-232575100D01*
X202405300Y-229281100D02*
X202405300Y-230060500D01*
X179328887Y-230544966D02*
X179541020Y-230332834D01*
X200105300Y-229281100D02*
X200105300Y-230060500D01*
X214482500Y-232575100D02*
X214482500Y-232050100D01*
X188605300Y-229281100D02*
X188605300Y-230060500D01*
X168140700Y-235267500D02*
X168140700Y-235788878D01*
X97547000Y-234489450D02*
X97547000Y-234688100D01*
X205575900Y-230560500D02*
X205575900Y-229420800D01*
X166311300Y-235788292D02*
X166311300Y-234988100D01*
X187175900Y-230560500D02*
X187175900Y-229781100D01*
X202405300Y-230060500D02*
X202405300Y-230560500D01*
X184365600Y-230920800D02*
X184515600Y-230920800D01*
X166311300Y-234988100D02*
X166311300Y-234466732D01*
X190115600Y-228641400D02*
X190265600Y-228641400D01*
X178607213Y-232171313D02*
X179511887Y-233075988D01*
X193205300Y-230060500D02*
X193205300Y-230560500D01*
X96552466Y-230060500D02*
X95948500Y-230664466D01*
X175615508Y-235788292D02*
X175615508Y-235648592D01*
X191775900Y-230560500D02*
X191775900Y-229781100D01*
X190905300Y-230060500D02*
X190905300Y-230560500D01*
X96947000Y-234688100D02*
X96947000Y-234489450D01*
X207005300Y-229281100D02*
X207005300Y-229420800D01*
X196375900Y-230560500D02*
X196375900Y-229781100D01*
X214482500Y-233379500D02*
X214482500Y-232575100D01*
X192415600Y-228641400D02*
X192565600Y-228641400D01*
X204705300Y-230060500D02*
X204705300Y-230560500D01*
X195505300Y-230060500D02*
X195505300Y-230560500D01*
X94907100Y-232823466D02*
X94907100Y-234079334D01*
X168522377Y-236170555D02*
X169029623Y-236170555D01*
X180544476Y-230431617D02*
X180544475Y-230431617D01*
X181054017Y-230431617D02*
X181704534Y-229781100D01*
X201615600Y-228641400D02*
X201765600Y-228641400D01*
X197015600Y-228641400D02*
X197165600Y-228641400D01*
X95948500Y-231782066D02*
X94907100Y-232823466D01*
X203915600Y-228641400D02*
X204065600Y-228641400D01*
X94907100Y-234079334D02*
X95815866Y-234988100D01*
X211198182Y-231725476D02*
X211198182Y-231725475D01*
X211296964Y-230722020D02*
X211296965Y-230722020D01*
X180233560Y-232863855D02*
X180233560Y-232863854D01*
X217611900Y-232050100D02*
X217611900Y-233189800D01*
X98029401Y-229454599D02*
X98029401Y-229751965D01*
X186305300Y-229281100D02*
X186305300Y-230060500D01*
X216382500Y-232575100D02*
X216382500Y-232050100D01*
X169411300Y-235788878D02*
X169411300Y-234988100D01*
X218897200Y-232575100D02*
X221988900Y-232575100D01*
X172511300Y-234988100D02*
X172511300Y-234466732D01*
X186665600Y-230920800D02*
X186815600Y-230920800D01*
X186305300Y-230060500D02*
X186305300Y-230560500D01*
X194715600Y-228641400D02*
X194865600Y-228641400D01*
X187175900Y-229781100D02*
X187175900Y-229281100D01*
X211296964Y-231626693D02*
X211198182Y-231725476D01*
X188965600Y-230920800D02*
X189115600Y-230920800D01*
X177702541Y-232171313D02*
X177702540Y-232171314D01*
X98747000Y-234489448D02*
X98747000Y-234688100D01*
X197805300Y-229281100D02*
X197805300Y-230060500D01*
X95815866Y-234988100D02*
X96647000Y-234988100D01*
X171240700Y-234466732D02*
X171240700Y-235267500D01*
X165421792Y-236169384D02*
X165930208Y-236169384D01*
X207365600Y-229781100D02*
X208744266Y-229781100D01*
X180233561Y-232354313D02*
X179328887Y-231449638D01*
X174721792Y-236169384D02*
X175234416Y-236169384D01*
X213811900Y-233189800D02*
X213811900Y-233379500D01*
X177490408Y-233288117D02*
X177490409Y-233288118D01*
X188605300Y-230060500D02*
X188605300Y-230560500D01*
X203275900Y-229781100D02*
X203275900Y-229281100D01*
X177589190Y-233386899D02*
X177490408Y-233288117D01*
X203275900Y-230560500D02*
X203275900Y-229781100D01*
X215711900Y-232854500D02*
X215711900Y-233379500D01*
X189475900Y-230560500D02*
X189475900Y-229781100D01*
X185515600Y-228641400D02*
X185665600Y-228641400D01*
X191265600Y-230920800D02*
X191415600Y-230920800D01*
X173172368Y-233805664D02*
X173679632Y-233805664D01*
X205065600Y-230920800D02*
X205215600Y-230920800D01*
X98029401Y-229751965D02*
X97720866Y-230060500D01*
X205575900Y-229420800D02*
X205575900Y-229281100D01*
X194075900Y-230560500D02*
X194075900Y-229781100D01*
X200975900Y-229781100D02*
X200975900Y-229281100D01*
X206215600Y-228641400D02*
X206365600Y-228641400D01*
X180445693Y-230332834D02*
X180544476Y-230431617D01*
X180021429Y-233075987D02*
X180233560Y-232863855D01*
X211198182Y-232235017D02*
X211538266Y-232575100D01*
X218282500Y-233379500D02*
X218282500Y-233189800D01*
X95948500Y-230664466D02*
X95948500Y-231782066D01*
X171622368Y-236170536D02*
X172129632Y-236170536D01*
X195865600Y-230920800D02*
X196015600Y-230920800D01*
X196375900Y-229781100D02*
X196375900Y-229281100D01*
X179328887Y-231449638D02*
X179328888Y-231449639D01*
X99047000Y-234988100D02*
X101996113Y-234988100D01*
X181704534Y-229781100D02*
X183365600Y-229781100D01*
X184005300Y-230420800D02*
X184005300Y-230560500D01*
X208744266Y-229781100D02*
X209642546Y-230679381D01*
X200975900Y-230560500D02*
X200975900Y-229781100D01*
X184875900Y-229781100D02*
X184875900Y-229281100D01*
X210152087Y-230679380D02*
X210250870Y-230580598D01*
X215711900Y-232050100D02*
X215711900Y-232854500D01*
X193205300Y-229281100D02*
X193205300Y-230060500D01*
X187815600Y-228641400D02*
X187965600Y-228641400D01*
X168140700Y-234466732D02*
X168140700Y-235267500D01*
X98147000Y-234688100D02*
X98147000Y-234489448D01*
X184875900Y-230560500D02*
X184875900Y-229781100D01*
X165040700Y-235648592D02*
X165040700Y-235788292D01*
X202765600Y-230920800D02*
X202915600Y-230920800D01*
X204705300Y-229281100D02*
X204705300Y-230060500D01*
X195505300Y-229281100D02*
X195505300Y-230060500D01*
X190905300Y-229281100D02*
X190905300Y-230060500D01*
X221988900Y-232575100D02*
X222199200Y-232364800D01*
X174340700Y-235648592D02*
X174340700Y-235788292D01*
X170072368Y-233805664D02*
X170579632Y-233805664D01*
X101996113Y-234988100D02*
X164380208Y-234988100D01*
X179541020Y-230332834D02*
X179541020Y-230332833D01*
X191775900Y-229781100D02*
X191775900Y-229281100D01*
X176276000Y-234988100D02*
X176497534Y-234988100D01*
X198675900Y-230560500D02*
X198675900Y-229781100D01*
X174340700Y-234466732D02*
X174340700Y-235648592D01*
X98750000Y-228734000D02*
X98029401Y-229454599D01*
X200465600Y-230920800D02*
X200615600Y-230920800D01*
X171240700Y-235267500D02*
X171240700Y-235788868D01*
X200105300Y-230060500D02*
X200105300Y-230560500D01*
X97720866Y-230060500D02*
X96552466Y-230060500D01*
X193565600Y-230920800D02*
X193715600Y-230920800D01*
X176497534Y-234988100D02*
X177589191Y-233896440D01*
X172511300Y-235788868D02*
X172511300Y-234988100D01*
X211538266Y-232575100D02*
X213197200Y-232575100D01*
X166972368Y-233805664D02*
X167479632Y-233805664D01*
X211155542Y-230580598D02*
X211296964Y-230722020D01*
X199315600Y-228641400D02*
X199465600Y-228641400D01*
X177490408Y-232383445D02*
X177702541Y-232171313D01*
X198165600Y-230920800D02*
X198315600Y-230920800D01*
X198675900Y-229781100D02*
X198675900Y-229281100D01*
X205215600Y-230920800D02*
G75*
G03*
X205575900Y-230560500I0J360300D01*
G01*
X211297008Y-231626737D02*
G75*
G03*
X211296965Y-230722020I-452408J452337D01*
G01*
X190905300Y-230560500D02*
G75*
G03*
X191265600Y-230920800I360300J0D01*
G01*
X179328886Y-230544965D02*
G75*
G03*
X179328889Y-231449638I452314J-452335D01*
G01*
X203915600Y-228641400D02*
G75*
G03*
X203275900Y-229281100I0J-639700D01*
G01*
X184005300Y-230420800D02*
G75*
G03*
X183365600Y-229781100I-639700J0D01*
G01*
X180445736Y-230332791D02*
G75*
G03*
X179541021Y-230332834I-452336J-452409D01*
G01*
X200105300Y-230560500D02*
G75*
G03*
X200465600Y-230920800I360300J0D01*
G01*
X179511929Y-233075945D02*
G75*
G03*
X180021429Y-233075987I254771J254745D01*
G01*
X188605300Y-230560500D02*
G75*
G03*
X188965600Y-230920800I360300J0D01*
G01*
X195505300Y-229281100D02*
G75*
G03*
X194865600Y-228641400I-639700J0D01*
G01*
X199315600Y-228641400D02*
G75*
G03*
X198675900Y-229281100I0J-639700D01*
G01*
X197805300Y-229281100D02*
G75*
G03*
X197165600Y-228641400I-639700J0D01*
G01*
X191415600Y-230920800D02*
G75*
G03*
X191775900Y-230560500I0J360300D01*
G01*
X187815600Y-228641400D02*
G75*
G03*
X187175900Y-229281100I0J-639700D01*
G01*
X171240636Y-234466732D02*
G75*
G03*
X170579632Y-233805664I-661036J32D01*
G01*
X98447000Y-234189400D02*
G75*
G03*
X98147000Y-234489448I0J-300000D01*
G01*
X215711900Y-233379500D02*
G75*
G03*
X216047200Y-233714800I335300J0D01*
G01*
X196015600Y-230920800D02*
G75*
G03*
X196375900Y-230560500I0J360300D01*
G01*
X97247000Y-234189500D02*
G75*
G03*
X96947000Y-234489450I0J-300000D01*
G01*
X186815600Y-230920800D02*
G75*
G03*
X187175900Y-230560500I0J360300D01*
G01*
X185515600Y-228641400D02*
G75*
G03*
X184875900Y-229281100I0J-639700D01*
G01*
X211155541Y-230580599D02*
G75*
G03*
X210250871Y-230580599I-452335J-452334D01*
G01*
X215711900Y-232050100D02*
G75*
G03*
X215097200Y-231435400I-614700J0D01*
G01*
X201615600Y-228641400D02*
G75*
G03*
X200975900Y-229281100I0J-639700D01*
G01*
X170072368Y-233805600D02*
G75*
G03*
X169411300Y-234466732I32J-661100D01*
G01*
X165040700Y-235648592D02*
G75*
G03*
X164380208Y-234988100I-660500J-8D01*
G01*
X168140636Y-234466732D02*
G75*
G03*
X167479632Y-233805664I-661036J32D01*
G01*
X166972368Y-233805600D02*
G75*
G03*
X166311300Y-234466732I32J-661100D01*
G01*
X165930208Y-236169400D02*
G75*
G03*
X166311300Y-235788292I-8J381100D01*
G01*
X216997200Y-231435400D02*
G75*
G03*
X216382500Y-232050100I0J-614700D01*
G01*
X202405300Y-230560500D02*
G75*
G03*
X202765600Y-230920800I360300J0D01*
G01*
X97547050Y-234489450D02*
G75*
G03*
X97247000Y-234189450I-300050J-50D01*
G01*
X202405300Y-229281100D02*
G75*
G03*
X201765600Y-228641400I-639700J0D01*
G01*
X176276000Y-234988108D02*
G75*
G03*
X175615508Y-235648592I0J-660492D01*
G01*
X177490427Y-232383464D02*
G75*
G03*
X177490409Y-233288118I452273J-452336D01*
G01*
X200615600Y-230920800D02*
G75*
G03*
X200975900Y-230560500I0J360300D01*
G01*
X207005300Y-229281100D02*
G75*
G03*
X206365600Y-228641400I-639700J0D01*
G01*
X213811900Y-233189800D02*
G75*
G03*
X213197200Y-232575100I-614700J0D01*
G01*
X204705300Y-230560500D02*
G75*
G03*
X205065600Y-230920800I360300J0D01*
G01*
X217947200Y-233714800D02*
G75*
G03*
X218282500Y-233379500I0J335300D01*
G01*
X180233576Y-232863870D02*
G75*
G03*
X180233560Y-232354314I-254776J254770D01*
G01*
X186305300Y-229281100D02*
G75*
G03*
X185665600Y-228641400I-639700J0D01*
G01*
X188605300Y-229281100D02*
G75*
G03*
X187965600Y-228641400I-639700J0D01*
G01*
X173172368Y-233805600D02*
G75*
G03*
X172511300Y-234466732I32J-661100D01*
G01*
X96647000Y-234988100D02*
G75*
G03*
X96947000Y-234688100I0J300000D01*
G01*
X178607236Y-232171290D02*
G75*
G03*
X177702540Y-232171314I-452336J-452410D01*
G01*
X211198136Y-231725429D02*
G75*
G03*
X211198182Y-232235017I254864J-254771D01*
G01*
X184005300Y-230560500D02*
G75*
G03*
X184365600Y-230920800I360300J0D01*
G01*
X193715600Y-230920800D02*
G75*
G03*
X194075900Y-230560500I0J360300D01*
G01*
X193205300Y-230560500D02*
G75*
G03*
X193565600Y-230920800I360300J0D01*
G01*
X174340716Y-235788292D02*
G75*
G03*
X174721792Y-236169384I381084J-8D01*
G01*
X217611900Y-232050100D02*
G75*
G03*
X216997200Y-231435400I-614700J0D01*
G01*
X180544476Y-230431616D02*
G75*
G03*
X181054016Y-230431616I254770J254769D01*
G01*
X207005300Y-229420800D02*
G75*
G03*
X207365600Y-229781100I360300J0D01*
G01*
X197805300Y-230560500D02*
G75*
G03*
X198165600Y-230920800I360300J0D01*
G01*
X216047200Y-233714800D02*
G75*
G03*
X216382500Y-233379500I0J335300D01*
G01*
X168140745Y-235788878D02*
G75*
G03*
X168522377Y-236170555I381655J-22D01*
G01*
X204705300Y-229281100D02*
G75*
G03*
X204065600Y-228641400I-639700J0D01*
G01*
X215097200Y-231435400D02*
G75*
G03*
X214482500Y-232050100I0J-614700D01*
G01*
X184515600Y-230920800D02*
G75*
G03*
X184875900Y-230560500I0J360300D01*
G01*
X200105300Y-229281100D02*
G75*
G03*
X199465600Y-228641400I-639700J0D01*
G01*
X190905300Y-229281100D02*
G75*
G03*
X190265600Y-228641400I-639700J0D01*
G01*
X165040716Y-235788292D02*
G75*
G03*
X165421792Y-236169384I381084J-8D01*
G01*
X98747000Y-234688100D02*
G75*
G03*
X99047000Y-234988100I300000J0D01*
G01*
X214147200Y-233714800D02*
G75*
G03*
X214482500Y-233379500I0J335300D01*
G01*
X172129632Y-236170600D02*
G75*
G03*
X172511300Y-235788868I-32J381700D01*
G01*
X217611900Y-233379500D02*
G75*
G03*
X217947200Y-233714800I335300J0D01*
G01*
X195505300Y-230560500D02*
G75*
G03*
X195865600Y-230920800I360300J0D01*
G01*
X206215600Y-228641400D02*
G75*
G03*
X205575900Y-229281100I0J-639700D01*
G01*
X98746952Y-234489448D02*
G75*
G03*
X98447000Y-234189448I-299952J48D01*
G01*
X198315600Y-230920800D02*
G75*
G03*
X198675900Y-230560500I0J360300D01*
G01*
X169029623Y-236170600D02*
G75*
G03*
X169411300Y-235788878I-23J381700D01*
G01*
X194715600Y-228641400D02*
G75*
G03*
X194075900Y-229281100I0J-639700D01*
G01*
X171240764Y-235788868D02*
G75*
G03*
X171622368Y-236170536I381636J-32D01*
G01*
X177589221Y-233896470D02*
G75*
G03*
X177589190Y-233386899I-254821J254770D01*
G01*
X202915600Y-230920800D02*
G75*
G03*
X203275900Y-230560500I0J360300D01*
G01*
X189115600Y-230920800D02*
G75*
G03*
X189475900Y-230560500I0J360300D01*
G01*
X213811900Y-233379500D02*
G75*
G03*
X214147200Y-233714800I335300J0D01*
G01*
X197015600Y-228641400D02*
G75*
G03*
X196375900Y-229281100I0J-639700D01*
G01*
X218897200Y-232575100D02*
G75*
G03*
X218282500Y-233189800I0J-614700D01*
G01*
X193205300Y-229281100D02*
G75*
G03*
X192565600Y-228641400I-639700J0D01*
G01*
X190115600Y-228641400D02*
G75*
G03*
X189475900Y-229281100I0J-639700D01*
G01*
X186305300Y-230560500D02*
G75*
G03*
X186665600Y-230920800I360300J0D01*
G01*
X97547000Y-234688100D02*
G75*
G03*
X97847000Y-234988100I300000J0D01*
G01*
X174340636Y-234466732D02*
G75*
G03*
X173679632Y-233805664I-661036J32D01*
G01*
X209642530Y-230679397D02*
G75*
G03*
X210152087Y-230679380I254770J254797D01*
G01*
X192415600Y-228641400D02*
G75*
G03*
X191775900Y-229281100I0J-639700D01*
G01*
X175234416Y-236169408D02*
G75*
G03*
X175615508Y-235788292I-16J381108D01*
G01*
X97847000Y-234988100D02*
G75*
G03*
X98147000Y-234688100I0J300000D01*
G01*
D53*
X162229800Y-247751600D02*
X246354600Y-247751600D01*
X246354600Y-247751600D02*
X250554300Y-243551900D01*
X150749000Y-236270800D02*
X162229800Y-247751600D01*
X102717600Y-236982000D02*
X104978200Y-236982000D01*
X105689400Y-236270800D02*
X150749000Y-236270800D01*
X250554300Y-243551900D02*
X250554300Y-241283300D01*
X104978200Y-236982000D02*
X105689400Y-236270800D01*
X250554300Y-241283300D02*
X250545600Y-241274600D01*
D56*
X182246100Y-204258529D02*
X182246100Y-203771500D01*
X178831074Y-203146826D02*
X178831074Y-203007125D01*
X182872837Y-202378326D02*
X183598763Y-202378326D01*
X253429500Y-207562734D02*
X249358866Y-203492100D01*
X180825500Y-203146826D02*
X180825500Y-204258529D01*
X253429500Y-211047320D02*
X253429500Y-207562734D01*
X185646100Y-204256483D02*
X185646100Y-204116782D01*
X249358866Y-203492100D02*
X244659900Y-203492100D01*
X193896500Y-203492100D02*
X194106800Y-203281800D01*
X179455748Y-202382451D02*
X180200826Y-202382451D01*
X181172828Y-204605857D02*
X181898772Y-204605857D01*
X253639800Y-211257620D02*
X253429500Y-211047320D01*
X186985800Y-203492100D02*
X193896500Y-203492100D01*
X184570782Y-204601765D02*
X185300818Y-204601765D01*
X244659900Y-203492100D02*
X244449600Y-203281800D01*
X186270782Y-203492100D02*
X186985800Y-203492100D01*
X184225500Y-203005063D02*
X184225500Y-203492100D01*
X63855600Y-203281800D02*
X64065900Y-203492100D01*
X184225500Y-203492100D02*
X184225500Y-204256483D01*
X180825500Y-203007125D02*
X180825500Y-203146826D01*
X64065900Y-203492100D02*
X178485800Y-203492100D01*
X182246100Y-203771500D02*
X182246100Y-203005063D01*
X179455748Y-202382474D02*
G75*
G03*
X178831074Y-203007125I-48J-624626D01*
G01*
X182872837Y-202378400D02*
G75*
G03*
X182246100Y-203005063I-37J-626700D01*
G01*
X180825443Y-204258529D02*
G75*
G03*
X181172828Y-204605857I347357J29D01*
G01*
X186270782Y-203492100D02*
G75*
G03*
X185646100Y-204116782I18J-624700D01*
G01*
X184225574Y-203005063D02*
G75*
G03*
X183598763Y-202378326I-626774J-37D01*
G01*
X185300818Y-204601800D02*
G75*
G03*
X185646100Y-204256483I-18J345300D01*
G01*
X180825449Y-203007125D02*
G75*
G03*
X180200826Y-202382451I-624649J25D01*
G01*
X181898772Y-204605800D02*
G75*
G03*
X182246100Y-204258529I28J347300D01*
G01*
X184225535Y-204256483D02*
G75*
G03*
X184570782Y-204601765I345265J-17D01*
G01*
X178485800Y-203492074D02*
G75*
G03*
X178831074Y-203146826I0J345274D01*
G01*
X253150100Y-207678466D02*
X249243134Y-203771500D01*
X180546100Y-203007125D02*
X180546100Y-203146826D01*
X186985800Y-203771500D02*
X193896500Y-203771500D01*
X183946100Y-203492100D02*
X183946100Y-204256483D01*
X182525500Y-204258529D02*
X182525500Y-203771500D01*
X186270782Y-203771500D02*
X186985800Y-203771500D01*
X183946100Y-203005063D02*
X183946100Y-203492100D01*
X180546100Y-203146826D02*
X180546100Y-204258529D01*
X249243134Y-203771500D02*
X244659900Y-203771500D01*
X182525500Y-203771500D02*
X182525500Y-203005063D01*
X184570782Y-204881165D02*
X185300818Y-204881165D01*
X244659900Y-203771500D02*
X244449600Y-203981800D01*
X185925500Y-204256483D02*
X185925500Y-204116782D01*
X252939800Y-211257620D02*
X253150100Y-211047320D01*
X63855600Y-203981800D02*
X64065900Y-203771500D01*
X182872837Y-202657726D02*
X183598763Y-202657726D01*
X253150100Y-211047320D02*
X253150100Y-207678466D01*
X64065900Y-203771500D02*
X178485800Y-203771500D01*
X179455748Y-202661851D02*
X180200826Y-202661851D01*
X193896500Y-203771500D02*
X194106800Y-203981800D01*
X181172828Y-204885257D02*
X181898772Y-204885257D01*
X179110474Y-203146826D02*
X179110474Y-203007125D01*
X183946174Y-203005063D02*
G75*
G03*
X183598763Y-202657726I-347374J-37D01*
G01*
X180546049Y-203007125D02*
G75*
G03*
X180200826Y-202661851I-345249J25D01*
G01*
X180546043Y-204258529D02*
G75*
G03*
X181172828Y-204885257I626757J29D01*
G01*
X178485800Y-203771474D02*
G75*
G03*
X179110474Y-203146826I0J624674D01*
G01*
X182872837Y-202657800D02*
G75*
G03*
X182525500Y-203005063I-37J-347300D01*
G01*
X185300818Y-204881200D02*
G75*
G03*
X185925500Y-204256483I-18J624700D01*
G01*
X183946135Y-204256483D02*
G75*
G03*
X184570782Y-204881165I624665J-17D01*
G01*
X181898772Y-204885200D02*
G75*
G03*
X182525500Y-204258529I28J626700D01*
G01*
X186270782Y-203771500D02*
G75*
G03*
X185925500Y-204116782I18J-345300D01*
G01*
X179455748Y-202661874D02*
G75*
G03*
X179110474Y-203007125I-48J-345226D01*
G01*
D53*
X56743600Y-204673200D02*
X67818000Y-204673200D01*
X67818000Y-204673200D02*
X69799200Y-206654400D01*
X78232000Y-240741200D02*
X73939400Y-236448600D01*
D52*
X110210600Y-120192800D02*
X104673400Y-120192800D01*
D49*
X52578000Y-77673200D02*
X50698400Y-79552800D01*
D53*
X224242900Y-107834700D02*
X224231200Y-107823000D01*
D52*
X98044000Y-118745000D02*
X95046800Y-118745000D01*
D49*
X48768000Y-81483200D02*
X48768000Y-83210400D01*
X106883200Y-134112000D02*
X109321600Y-131673600D01*
X61911038Y-79756000D02*
X59944000Y-79756000D01*
X159435800Y-158546800D02*
X159435800Y-153720800D01*
X109321600Y-131673600D02*
X112064800Y-131673600D01*
X159435800Y-168468000D02*
X159435800Y-173304200D01*
X50698400Y-79552800D02*
X48768000Y-81483200D01*
X65659000Y-79756000D02*
X68122800Y-79756000D01*
X59944000Y-79756000D02*
X59029600Y-78841600D01*
X159435800Y-158546800D02*
X159435800Y-168468000D01*
X86004400Y-134112000D02*
X106883200Y-134112000D01*
D52*
X82423000Y-130530600D02*
X82423000Y-130505200D01*
D49*
X61911038Y-79756000D02*
X65659000Y-79756000D01*
X112064800Y-131673600D02*
X117373400Y-131673600D01*
X122656600Y-131673600D02*
X127939800Y-131673600D01*
D52*
X92735400Y-120192800D02*
X93599000Y-120192800D01*
X104673400Y-120192800D02*
X100050600Y-120192800D01*
D53*
X224231200Y-111263700D02*
X224242900Y-111252000D01*
D49*
X59029600Y-78841600D02*
X57861200Y-77673200D01*
X54102000Y-77673200D02*
X52578000Y-77673200D01*
X57861200Y-77673200D02*
X54102000Y-77673200D01*
X117373400Y-131673600D02*
X122656600Y-131673600D01*
D52*
X82423000Y-130505200D02*
X92735400Y-120192800D01*
X95046800Y-118745000D02*
X93599000Y-120192800D01*
D49*
X144780000Y-94742000D02*
X85090000Y-35052000D01*
X144780000Y-108458000D02*
X144780000Y-94742000D01*
X83185000Y-33147000D02*
X82550000Y-32512000D01*
X85090000Y-35052000D02*
X83185000Y-33147000D01*
X78740000Y-32512000D02*
X78232000Y-32512000D01*
X82550000Y-32512000D02*
X78740000Y-32512000D01*
D52*
X84886800Y-27711400D02*
X43293880Y-27711400D01*
X43293880Y-27711400D02*
X42559362Y-28445918D01*
X42559362Y-28445918D02*
X41356000Y-28445918D01*
X97764600Y-40589200D02*
X84886800Y-27711400D01*
D53*
X47169606Y-28448000D02*
X44611261Y-31006345D01*
X44611261Y-31006345D02*
X44611261Y-31321715D01*
D51*
X40507000Y-32514000D02*
X40507000Y-33522000D01*
D53*
X80211394Y-28448000D02*
X47169606Y-28448000D01*
X143135512Y-91372118D02*
X80211394Y-28448000D01*
X143135512Y-91687488D02*
X143135512Y-91372118D01*
D51*
X40507000Y-33522000D02*
X40513000Y-33528000D01*
D49*
X54991000Y-44500800D02*
X53035200Y-44500800D01*
X60960000Y-49149000D02*
X59766200Y-47955200D01*
X52928572Y-56865572D02*
X52928572Y-55591688D01*
X52933600Y-53365400D02*
X52959000Y-53340000D01*
X55499000Y-57658000D02*
X53721000Y-57658000D01*
X59766200Y-47955200D02*
X58445400Y-47955200D01*
X52928572Y-55591688D02*
X52933600Y-55586660D01*
X52451000Y-51409600D02*
X53441600Y-50419000D01*
X52959000Y-53340000D02*
X52451000Y-52832000D01*
X53721000Y-57658000D02*
X52928572Y-56865572D01*
X52451000Y-52832000D02*
X52451000Y-51409600D01*
X52933600Y-55586660D02*
X52933600Y-53365400D01*
X58445400Y-47955200D02*
X54991000Y-44500800D01*
X53441600Y-50419000D02*
X54864000Y-50419000D01*
D53*
X43101606Y-40386000D02*
X41015000Y-42472606D01*
X47572394Y-40386000D02*
X43101606Y-40386000D01*
X41700332Y-45211726D02*
X42862965Y-45211726D01*
X42862965Y-45211726D02*
X43735964Y-44338727D01*
X55700394Y-52451000D02*
X56642000Y-51509394D01*
X41015000Y-44526394D02*
X41700332Y-45211726D01*
X48895000Y-41708606D02*
X47572394Y-40386000D01*
X53714488Y-51822512D02*
X53714488Y-52137882D01*
X56642000Y-51509394D02*
X56642000Y-48185606D01*
X56642000Y-48185606D02*
X54430394Y-45974000D01*
X48895000Y-43613606D02*
X48895000Y-41708606D01*
X54027606Y-52451000D02*
X55700394Y-52451000D01*
X41015000Y-42472606D02*
X41015000Y-44526394D01*
X53714488Y-52137882D02*
X54027606Y-52451000D01*
X54430394Y-45974000D02*
X51255394Y-45974000D01*
X51255394Y-45974000D02*
X48895000Y-43613606D01*
X55805606Y-52705000D02*
X56896000Y-51614606D01*
X41595122Y-45465728D02*
X42862965Y-45465728D01*
X42996394Y-40132000D02*
X40761000Y-42367394D01*
X53922394Y-52705000D02*
X55805606Y-52705000D01*
X42862965Y-45465728D02*
X43735964Y-46338727D01*
X47677606Y-40132000D02*
X42996394Y-40132000D01*
X49149000Y-43508394D02*
X49149000Y-41603394D01*
X49149000Y-41603394D02*
X47677606Y-40132000D01*
X51360606Y-45720000D02*
X49149000Y-43508394D01*
X56896000Y-48080394D02*
X54535606Y-45720000D01*
X53534882Y-52317488D02*
X53922394Y-52705000D01*
X54535606Y-45720000D02*
X51360606Y-45720000D01*
X53219512Y-52317488D02*
X53534882Y-52317488D01*
X56896000Y-51614606D02*
X56896000Y-48080394D01*
X40761000Y-42367394D02*
X40761000Y-44631606D01*
X40761000Y-44631606D02*
X41595122Y-45465728D01*
X60117606Y-50929000D02*
X98225606Y-50929000D01*
X59740523Y-50551917D02*
X60117606Y-50929000D01*
X140025001Y-92728395D02*
X140025001Y-103584800D01*
X98225606Y-50929000D02*
X140025001Y-92728395D01*
X140025001Y-103584800D02*
X140248000Y-103807799D01*
X59963523Y-49191499D02*
X59740523Y-49414499D01*
X59740523Y-49414499D02*
X59740523Y-50551917D01*
D55*
X53208000Y-163601400D02*
X53208000Y-170484800D01*
D53*
X143315118Y-91192512D02*
X80316606Y-28194000D01*
X44431655Y-30826739D02*
X44116285Y-30826739D01*
X80316606Y-28194000D02*
X47064394Y-28194000D01*
X47064394Y-28194000D02*
X44431655Y-30826739D01*
X143630488Y-91192512D02*
X143315118Y-91192512D01*
X39624000Y-33401000D02*
X39624000Y-32004000D01*
X40259000Y-34036000D02*
X39624000Y-33401000D01*
X45466000Y-34036000D02*
X40259000Y-34036000D01*
X39624000Y-32004000D02*
X40132000Y-31496000D01*
X146812000Y-92964000D02*
X146812000Y-104267000D01*
X86741000Y-33782000D02*
X87630000Y-33782000D01*
X87630000Y-33782000D02*
X146812000Y-92964000D01*
D56*
X146562000Y-68634800D02*
X145745200Y-69451600D01*
X145745200Y-89966800D02*
X146913600Y-91135200D01*
X145745200Y-69451600D02*
X145745200Y-89966800D01*
D53*
X144526000Y-68605400D02*
X144526000Y-89509600D01*
D56*
X48590200Y-39827200D02*
X47117000Y-38354000D01*
D53*
X144526000Y-89509600D02*
X146151600Y-91135200D01*
D56*
X87579200Y-39827200D02*
X48590200Y-39827200D01*
D53*
X200853200Y-112120600D02*
X201401600Y-112120600D01*
X198098800Y-114401600D02*
X197358000Y-113660800D01*
X201345800Y-114401600D02*
X198098800Y-114401600D01*
X201853800Y-113893600D02*
X201345800Y-114401600D01*
X201401600Y-112120600D02*
X201853800Y-112572800D01*
X201853800Y-112572800D02*
X201853800Y-113893600D01*
X177546000Y-109677200D02*
X177546000Y-96520000D01*
X163957000Y-82931000D02*
X148971000Y-82931000D01*
X177546000Y-96520000D02*
X163957000Y-82931000D01*
X177800000Y-110744000D02*
X177800000Y-109931200D01*
X177800000Y-109931200D02*
X177546000Y-109677200D01*
X95233503Y-82423000D02*
X95233503Y-79883000D01*
X147955000Y-83820000D02*
X163576000Y-83820000D01*
X176657000Y-96901000D02*
X176657000Y-110744000D01*
X94107000Y-82423000D02*
X94107000Y-79883000D01*
X163576000Y-83820000D02*
X176657000Y-96901000D01*
X202946000Y-125476000D02*
X201398600Y-123928600D01*
X190401000Y-123928600D02*
X182398000Y-115925600D01*
X230251000Y-159766000D02*
X220548200Y-169468800D01*
X220548200Y-169468800D02*
X219608400Y-169468800D01*
X201398600Y-123928600D02*
X190401000Y-123928600D01*
X92964000Y-79883000D02*
X92964000Y-82423000D01*
X175895000Y-109601000D02*
X175895000Y-97409000D01*
X175530497Y-109965503D02*
X175895000Y-109601000D01*
X175895000Y-97409000D02*
X163195000Y-84709000D01*
X175530497Y-110744000D02*
X175530497Y-109965503D01*
X163195000Y-84709000D02*
X148971000Y-84709000D01*
X177342800Y-168757600D02*
X216458800Y-168757600D01*
X229692200Y-159283400D02*
X220218000Y-168757600D01*
X220218000Y-168757600D02*
X219608400Y-168757600D01*
X201220800Y-124487400D02*
X190070200Y-124487400D01*
X175031400Y-171069000D02*
X177342800Y-168757600D01*
X202946000Y-126212600D02*
X201220800Y-124487400D01*
X190070200Y-124487400D02*
X182321200Y-116738400D01*
X202946000Y-126949200D02*
X201017600Y-125020800D01*
X201017600Y-125020800D02*
X189832800Y-125020800D01*
X158851600Y-152704800D02*
X159689800Y-152704800D01*
X219887800Y-168046400D02*
X219608400Y-168046400D01*
X189832800Y-125020800D02*
X181398000Y-116586000D01*
X229133400Y-158800800D02*
X219887800Y-168046400D01*
X159689800Y-152704800D02*
X175031400Y-168046400D01*
X202946000Y-127685800D02*
X200941400Y-125681200D01*
X189459800Y-125681200D02*
X180898000Y-117119400D01*
X200941400Y-125681200D02*
X189459800Y-125681200D01*
X228600000Y-158318200D02*
X219608400Y-167309800D01*
D56*
X181965600Y-121894600D02*
X181965600Y-123063000D01*
X177088800Y-117017800D02*
X181965600Y-121894600D01*
X176174400Y-117017800D02*
X180695600Y-121539000D01*
X180695600Y-121539000D02*
X180695600Y-123063000D01*
X179425600Y-121132600D02*
X179425600Y-123063000D01*
X175310800Y-117017800D02*
X179425600Y-121132600D01*
X172897800Y-115874800D02*
X173583600Y-116560600D01*
X178155600Y-120650000D02*
X178155600Y-123063000D01*
X173583600Y-116560600D02*
X174066200Y-116560600D01*
X174066200Y-116560600D02*
X178155600Y-120650000D01*
X176885600Y-123058000D02*
X176890600Y-123063000D01*
X173786800Y-117017800D02*
X176885600Y-120116600D01*
X176885600Y-120116600D02*
X176885600Y-123058000D01*
X175620600Y-119842200D02*
X175620600Y-123058000D01*
X175620600Y-123058000D02*
X175615600Y-123063000D01*
X172796200Y-117017800D02*
X175620600Y-119842200D01*
X174350600Y-119334200D02*
X174350600Y-123058000D01*
X172034200Y-117017800D02*
X174350600Y-119334200D01*
X174350600Y-123058000D02*
X174345600Y-123063000D01*
X171272200Y-117017800D02*
X173080600Y-118826200D01*
X173080600Y-123058000D02*
X173075600Y-123063000D01*
X173080600Y-118826200D02*
X173080600Y-123058000D01*
D53*
X125831600Y-130784600D02*
X125831600Y-127000000D01*
X121666000Y-122834400D02*
X121666000Y-116535200D01*
X155448000Y-108280200D02*
X155448000Y-110337600D01*
X152298400Y-114579400D02*
X155448000Y-111429800D01*
X123621800Y-114579400D02*
X152298400Y-114579400D01*
X121666000Y-116535200D02*
X123621800Y-114579400D01*
X125831600Y-127000000D02*
X121666000Y-122834400D01*
X112039400Y-128701800D02*
X114223800Y-126517400D01*
X114223800Y-126517400D02*
X114223800Y-121767600D01*
X114223800Y-121767600D02*
X121666000Y-114325400D01*
X112039400Y-130530600D02*
X112039400Y-128701800D01*
X154736800Y-108280200D02*
X154736800Y-110337600D01*
X151841200Y-114325400D02*
X154736800Y-111429800D01*
X121666000Y-114325400D02*
X151841200Y-114325400D01*
X154000200Y-110337600D02*
X154000200Y-108280200D01*
X151358600Y-114071400D02*
X154000200Y-111429800D01*
X119964200Y-114071400D02*
X151358600Y-114071400D01*
X116306600Y-120319800D02*
X116306600Y-126542800D01*
X116306600Y-118999000D02*
X116306600Y-117729000D01*
X116306600Y-126542800D02*
X120548400Y-130784600D01*
X116306600Y-117729000D02*
X119964200Y-114071400D01*
X115265200Y-118008400D02*
X119456200Y-113817400D01*
X115265200Y-130784600D02*
X115265200Y-121361200D01*
X150901400Y-113817400D02*
X153289000Y-111429800D01*
X115265200Y-120065800D02*
X115265200Y-118008400D01*
X153466800Y-107975400D02*
X153644600Y-107797600D01*
X153289000Y-108788200D02*
X153466800Y-108610400D01*
X153644600Y-107797600D02*
X153644600Y-105029000D01*
X153289000Y-110337600D02*
X153289000Y-108788200D01*
X153466800Y-108610400D02*
X153466800Y-107975400D01*
X119456200Y-113817400D02*
X150901400Y-113817400D01*
X151739600Y-108762800D02*
X148209000Y-108762800D01*
X115316000Y-116713000D02*
X112801400Y-119227600D01*
X112801400Y-119227600D02*
X108102400Y-119227600D01*
X147828000Y-111633000D02*
X146177000Y-113284000D01*
X152984200Y-108610400D02*
X152831800Y-108762800D01*
X122787210Y-113284000D02*
X118745000Y-113284000D01*
X118745000Y-113284000D02*
X115316000Y-116713000D01*
X152831800Y-108762800D02*
X151739600Y-108762800D01*
X152984200Y-108280200D02*
X152984200Y-108610400D01*
X148209000Y-108762800D02*
X147955000Y-109016800D01*
X147955000Y-109016800D02*
X147828000Y-109143800D01*
X146177000Y-113284000D02*
X122787210Y-113284000D01*
X147828000Y-109143800D02*
X147828000Y-109939400D01*
X147116800Y-111633000D02*
X145719800Y-113030000D01*
X118639790Y-113030000D02*
X113269495Y-118400295D01*
X122682000Y-113030000D02*
X118639790Y-113030000D01*
X107619800Y-118541800D02*
X107035600Y-119126000D01*
X107848400Y-118541800D02*
X107619800Y-118541800D01*
X147116800Y-108991400D02*
X147828000Y-108280200D01*
X145719800Y-113030000D02*
X122682000Y-113030000D01*
X107035600Y-119126000D02*
X106934000Y-119227600D01*
X147116800Y-109939400D02*
X147116800Y-108991400D01*
X113127990Y-118541800D02*
X107848400Y-118541800D01*
X106273600Y-119227600D02*
X102565200Y-119227600D01*
X113269495Y-118400295D02*
X113127990Y-118541800D01*
X147828000Y-108280200D02*
X152273000Y-108280200D01*
X106934000Y-119227600D02*
X106273600Y-119227600D01*
X118534580Y-112776000D02*
X113378380Y-117932200D01*
X146405600Y-111633000D02*
X145262600Y-112776000D01*
X113378380Y-117932200D02*
X102590600Y-117932200D01*
X146405600Y-108864400D02*
X146405600Y-109939400D01*
X151663400Y-107772200D02*
X147497800Y-107772200D01*
X147497800Y-107772200D02*
X146405600Y-108864400D01*
X145262600Y-112776000D02*
X118534580Y-112776000D01*
X145694400Y-108737400D02*
X147167600Y-107264200D01*
X147167600Y-107264200D02*
X150901400Y-107264200D01*
X145694400Y-111633000D02*
X144805400Y-112522000D01*
X113730370Y-117221000D02*
X102565200Y-117221000D01*
X117367985Y-113583385D02*
X113730370Y-117221000D01*
X122047000Y-112522000D02*
X118429370Y-112522000D01*
X145694400Y-109939400D02*
X145694400Y-108737400D01*
X144805400Y-112522000D02*
X122047000Y-112522000D01*
X118429370Y-112522000D02*
X117367985Y-113583385D01*
X151638000Y-106527600D02*
X151638000Y-105029000D01*
X150901400Y-107264200D02*
X151638000Y-106527600D01*
X60012394Y-51183000D02*
X98120394Y-51183000D01*
X98120394Y-51183000D02*
X139770999Y-92833605D01*
X59486523Y-50657129D02*
X60012394Y-51183000D01*
X59486523Y-49414499D02*
X59486523Y-50657129D01*
X139770999Y-103584800D02*
X139548000Y-103807799D01*
X139770999Y-92833605D02*
X139770999Y-103584800D01*
X59263523Y-49191499D02*
X59486523Y-49414499D01*
X56440606Y-53467000D02*
X53927548Y-55980058D01*
X53927548Y-55980058D02*
X53927548Y-56295428D01*
X91573512Y-58667488D02*
X91573512Y-58352118D01*
X91573512Y-58352118D02*
X86688394Y-53467000D01*
X86688394Y-53467000D02*
X56440606Y-53467000D01*
X119507000Y-119634000D02*
X119507000Y-117932200D01*
X119507000Y-117932200D02*
X120827800Y-116611400D01*
X56335394Y-53213000D02*
X53747942Y-55800452D01*
X86793606Y-53213000D02*
X56335394Y-53213000D01*
X92068488Y-58172512D02*
X91753118Y-58172512D01*
X53747942Y-55800452D02*
X53432572Y-55800452D01*
X91753118Y-58172512D02*
X86793606Y-53213000D01*
X93421200Y-59893200D02*
X86918800Y-59893200D01*
X99009200Y-54305200D02*
X93421200Y-59893200D01*
X86918800Y-59893200D02*
X81686400Y-54660800D01*
D49*
X92760800Y-59385200D02*
X91516200Y-59385200D01*
X87401400Y-55270400D02*
X87376000Y-55270400D01*
X98996500Y-53149500D02*
X92760800Y-59385200D01*
X91516200Y-59385200D02*
X87401400Y-55270400D01*
D53*
X105156000Y-45847000D02*
X104521000Y-45212000D01*
X104521000Y-45212000D02*
X101092000Y-45212000D01*
X82978084Y-49482916D02*
X83756500Y-48704500D01*
X39154600Y-154940000D02*
X38277800Y-155816800D01*
X38277800Y-157644600D02*
X39154600Y-158521400D01*
X38277800Y-155816800D02*
X38277800Y-157644600D01*
X88925400Y-113842800D02*
X90246200Y-113842800D01*
X87757616Y-111302800D02*
X88671400Y-112216584D01*
X88671400Y-112216584D02*
X88671400Y-113588800D01*
X86995000Y-111302800D02*
X87757616Y-111302800D01*
X88671400Y-113588800D02*
X88925400Y-113842800D01*
X87598227Y-111766373D02*
X88341200Y-112509346D01*
X88341200Y-113766600D02*
X89433400Y-114858800D01*
X89433400Y-114858800D02*
X90246200Y-114858800D01*
X88341200Y-112509346D02*
X88341200Y-113766600D01*
D49*
X82804000Y-68961000D02*
X82804000Y-68580000D01*
X80137000Y-71628000D02*
X82804000Y-68961000D01*
X69032292Y-71101012D02*
X69032292Y-70286708D01*
X69032292Y-70286708D02*
X72263000Y-67056000D01*
X72263000Y-67056000D02*
X72771000Y-67056000D01*
X72771000Y-70434200D02*
X74422000Y-68783200D01*
X74422000Y-68783200D02*
X74422000Y-64820800D01*
X82397600Y-66751200D02*
X82397600Y-67564000D01*
X72771000Y-71501000D02*
X72771000Y-70434200D01*
X82397600Y-67564000D02*
X79857600Y-70104000D01*
X74422000Y-64820800D02*
X73865200Y-64264000D01*
X73865200Y-64264000D02*
X72384000Y-64264000D01*
X75438000Y-70104000D02*
X74041000Y-71501000D01*
X74041000Y-71501000D02*
X72771000Y-71501000D01*
X79857600Y-70104000D02*
X75438000Y-70104000D01*
X87122000Y-63444000D02*
X87122000Y-62738000D01*
X86106000Y-61722000D02*
X78613000Y-61722000D01*
X87122000Y-62738000D02*
X86106000Y-61722000D01*
D56*
X110693200Y-87757000D02*
X130048000Y-87757000D01*
X94894400Y-71958200D02*
X110693200Y-87757000D01*
X74168000Y-61849000D02*
X74549000Y-61849000D01*
X113661390Y-87249000D02*
X91487190Y-65074800D01*
X75184000Y-62484000D02*
X74549000Y-61849000D01*
X130556000Y-87249000D02*
X113661390Y-87249000D01*
X80162400Y-62484000D02*
X75184000Y-62484000D01*
X91487190Y-65074800D02*
X85699600Y-65074800D01*
X84810600Y-65963800D02*
X83642200Y-65963800D01*
X73660000Y-62357000D02*
X74168000Y-61849000D01*
X83642200Y-65963800D02*
X80162400Y-62484000D01*
X48006000Y-63246000D02*
X48895000Y-62357000D01*
X48895000Y-62357000D02*
X73660000Y-62357000D01*
X85699600Y-65074800D02*
X84810600Y-65963800D01*
X82042000Y-62484000D02*
X82804000Y-63246000D01*
X82804000Y-64643000D02*
X83765200Y-65604200D01*
X83765200Y-65604200D02*
X84611400Y-65604200D01*
X85445600Y-64770000D02*
X91541600Y-64770000D01*
X81407000Y-62484000D02*
X82042000Y-62484000D01*
X113512600Y-86741000D02*
X130048000Y-86741000D01*
X84611400Y-65604200D02*
X85445600Y-64770000D01*
X82804000Y-63246000D02*
X82804000Y-64643000D01*
X91541600Y-64770000D02*
X113512600Y-86741000D01*
D53*
X91588790Y-64439800D02*
X84912200Y-64439800D01*
X186105800Y-108331000D02*
X184785000Y-107010200D01*
X184785000Y-89027000D02*
X163195000Y-67437000D01*
X94585990Y-67437000D02*
X91588790Y-64439800D01*
X101981000Y-67437000D02*
X94585990Y-67437000D01*
X84912200Y-64439800D02*
X84201000Y-65151000D01*
X184785000Y-107010200D02*
X184785000Y-89027000D01*
X163195000Y-67437000D02*
X123952000Y-67437000D01*
X183900200Y-109474000D02*
X183896000Y-109469800D01*
X91668600Y-64160400D02*
X84048600Y-64160400D01*
X183896000Y-109469800D02*
X183896000Y-89281000D01*
X84048600Y-64160400D02*
X83693000Y-64516000D01*
X98298000Y-65532000D02*
X93040200Y-65532000D01*
X183896000Y-89281000D02*
X162687000Y-68072000D01*
X93040200Y-65532000D02*
X91668600Y-64160400D01*
X126111000Y-68072000D02*
X125857000Y-68326000D01*
X186105800Y-109474000D02*
X183900200Y-109474000D01*
X162687000Y-68072000D02*
X126111000Y-68072000D01*
X125857000Y-68326000D02*
X125095000Y-68326000D01*
X55499000Y-65024000D02*
X49022000Y-65024000D01*
X64389000Y-73914000D02*
X55499000Y-65024000D01*
X49022000Y-66421000D02*
X52959000Y-66421000D01*
X52959000Y-66421000D02*
X60452000Y-73914000D01*
D56*
X44069000Y-34544000D02*
X45085000Y-35560000D01*
X45085000Y-35560000D02*
X46609000Y-34036000D01*
X46609000Y-34036000D02*
X46609000Y-30988000D01*
X40132000Y-34544000D02*
X44069000Y-34544000D01*
D51*
X251623156Y-223316800D02*
X251623156Y-221401044D01*
X251623156Y-221401044D02*
X252476000Y-220548200D01*
X252476000Y-220548200D02*
X257276600Y-220548200D01*
D53*
X250113800Y-243408200D02*
X246329200Y-247192800D01*
X250113800Y-241833400D02*
X250113800Y-243408200D01*
X246329200Y-247192800D02*
X241579400Y-247192800D01*
D56*
X127730088Y-116915322D02*
X127949683Y-117134917D01*
X128662480Y-117847715D02*
X128798211Y-117983445D01*
X233266500Y-235647329D02*
X233476800Y-235437029D01*
X218401900Y-152799334D02*
X218401900Y-223843134D01*
X128526750Y-117134916D02*
X128662480Y-117270646D01*
X127730088Y-116617912D02*
X127730088Y-116915322D01*
X128238216Y-117134916D02*
X128238217Y-117134918D01*
X192158066Y-126555500D02*
X218401900Y-152799334D01*
X218401900Y-223843134D02*
X230206095Y-235647329D01*
X230206095Y-235647329D02*
X233266500Y-235647329D01*
X128798211Y-117983445D02*
X137370266Y-126555500D01*
X128662480Y-117559180D02*
X128662480Y-117559181D01*
X137370266Y-126555500D02*
X192158066Y-126555500D01*
X127949635Y-117134965D02*
G75*
G03*
X128238215Y-117134915I144265J144265D01*
G01*
X128662432Y-117559133D02*
G75*
G03*
X128662480Y-117847715I144268J-144267D01*
G01*
X128526750Y-117134916D02*
G75*
G03*
X128238216Y-117134916I-144267J-144268D01*
G01*
X128662467Y-117559167D02*
G75*
G03*
X128662480Y-117270646I-144267J144267D01*
G01*
X137254534Y-126834900D02*
X192042334Y-126834900D01*
X218122500Y-152915066D02*
X218122500Y-223958866D01*
X233266500Y-235926729D02*
X233476800Y-236137029D01*
X192042334Y-126834900D02*
X218122500Y-152915066D01*
X230090363Y-235926729D02*
X233266500Y-235926729D01*
X127532522Y-117112888D02*
X137254534Y-126834900D01*
X127235112Y-117112888D02*
X127532522Y-117112888D01*
X218122500Y-223958866D02*
X230090363Y-235926729D01*
X250557000Y-234379800D02*
X250557000Y-212942200D01*
X251612400Y-211886800D02*
X251612400Y-208534000D01*
X246075200Y-238531400D02*
X246405400Y-238531400D01*
X221996000Y-160985200D02*
X219608400Y-158597600D01*
X250557000Y-212942200D02*
X251612400Y-211886800D01*
X246405400Y-238531400D02*
X250557000Y-234379800D01*
X230860600Y-169595800D02*
X219303600Y-181152800D01*
X202946000Y-124460000D02*
X202946000Y-111658400D01*
X75692000Y-206502000D02*
X74676000Y-207518000D01*
X179501800Y-110210600D02*
X186461400Y-110210600D01*
X67716400Y-205790800D02*
X60858400Y-205790800D01*
X174845600Y-111447200D02*
X178265200Y-111447200D01*
X230860600Y-160528000D02*
X230860600Y-169595800D01*
X74676000Y-207518000D02*
X69443600Y-207518000D01*
X174244000Y-110845600D02*
X174845600Y-111447200D01*
X69443600Y-207518000D02*
X67716400Y-205790800D01*
X178265200Y-111447200D02*
X179501800Y-110210600D01*
X190550800Y-106121200D02*
X197815200Y-106121200D01*
X186461400Y-110210600D02*
X190550800Y-106121200D01*
X122428000Y-112064800D02*
X123647200Y-110845600D01*
X202946000Y-111658400D02*
X198755000Y-107467400D01*
X123647200Y-110845600D02*
X174244000Y-110845600D01*
D57*
X126602702Y-95973804D02*
X126602703Y-95973804D01*
X128511891Y-97883009D02*
X128511891Y-97883008D01*
X127641806Y-96610199D02*
X127875495Y-96843889D01*
X128400384Y-108606590D02*
X128161888Y-108368094D01*
X129435016Y-108606590D02*
X128400384Y-108606590D01*
X127875495Y-97649337D02*
X128109166Y-97883008D01*
X128914615Y-97883008D02*
X129148287Y-98116681D01*
X128161888Y-108368094D02*
X128161888Y-108058112D01*
X127239098Y-96610200D02*
X127239099Y-96610199D01*
X130602990Y-99571384D02*
X130602990Y-107438616D01*
X129148287Y-98116681D02*
X130602990Y-99571384D01*
X127641805Y-96610199D02*
X127641806Y-96610199D01*
X126602703Y-96376511D02*
X126836391Y-96610199D01*
X130602990Y-107438616D02*
X129435016Y-108606590D01*
X126602703Y-96376510D02*
X126602703Y-96376511D01*
X127875494Y-97246614D02*
X127875495Y-97246613D01*
X126249694Y-95218088D02*
X126602703Y-95571097D01*
X125939712Y-95218088D02*
X126249694Y-95218088D01*
X126602751Y-95973853D02*
G75*
G03*
X126602702Y-95571098I-201451J201353D01*
G01*
X126602747Y-95973848D02*
G75*
G03*
X126602704Y-96376509I201353J-201352D01*
G01*
X127875520Y-97246638D02*
G75*
G03*
X127875495Y-97649337I201380J-201362D01*
G01*
X126836346Y-96610244D02*
G75*
G03*
X127239098Y-96610200I201354J201444D01*
G01*
X128109137Y-97883037D02*
G75*
G03*
X128511891Y-97883009I201363J201437D01*
G01*
X127875542Y-97246662D02*
G75*
G03*
X127875494Y-96843890I-201442J201362D01*
G01*
X128914614Y-97883009D02*
G75*
G03*
X128511892Y-97883009I-201361J-201361D01*
G01*
X127641805Y-96610199D02*
G75*
G03*
X127239099Y-96610199I-201353J-201353D01*
G01*
X129543384Y-108868210D02*
X130864610Y-107546984D01*
X128292016Y-108868210D02*
X129543384Y-108868210D01*
X130864610Y-99463016D02*
X126434688Y-95033094D01*
X127666912Y-108553088D02*
X127976894Y-108553088D01*
X126434688Y-95033094D02*
X126434688Y-94723112D01*
X127976894Y-108553088D02*
X128292016Y-108868210D01*
X130864610Y-107546984D02*
X130864610Y-99463016D01*
X114092589Y-91107857D02*
X114092589Y-91461589D01*
X107704211Y-91723211D02*
X107704211Y-91107868D01*
X110292589Y-91107857D02*
X110292589Y-91461589D01*
X111504211Y-92076932D02*
X111504211Y-91723211D01*
X104592589Y-91107857D02*
X104592589Y-91461589D01*
X110292589Y-91461589D02*
X110292589Y-92076932D01*
X115304211Y-92076932D02*
X115304211Y-91723211D01*
X109604211Y-92076932D02*
X109604211Y-91723211D01*
X108877120Y-92561463D02*
X109119680Y-92561463D01*
X115527132Y-90884936D02*
X115769668Y-90884936D01*
X107927120Y-90884959D02*
X108169680Y-90884959D01*
X116473764Y-92554750D02*
X116723036Y-92554750D01*
X104592589Y-91461589D02*
X104592589Y-92076932D01*
X111727132Y-90884936D02*
X111969668Y-90884936D01*
X115304211Y-91723211D02*
X115304211Y-91107857D01*
X108392589Y-91107868D02*
X108392589Y-91461589D01*
X102692589Y-91111225D02*
X102692589Y-91242036D01*
X109827132Y-90884936D02*
X110069668Y-90884936D01*
X115992589Y-91461589D02*
X115992589Y-92073575D01*
X112677120Y-92561463D02*
X112919680Y-92561463D01*
X114577120Y-92561463D02*
X114819680Y-92561463D01*
X121916617Y-91723211D02*
X124024389Y-93830983D01*
X109604211Y-91723211D02*
X109604211Y-91107857D01*
X106492589Y-91461589D02*
X106492589Y-92076943D01*
X117204211Y-92073575D02*
X117204211Y-91942764D01*
X105804211Y-92076932D02*
X105804211Y-91723211D01*
X99069677Y-91942400D02*
X99288866Y-91723211D01*
X110777120Y-92561463D02*
X111019680Y-92561463D01*
X106027120Y-90884959D02*
X106269680Y-90884959D01*
X112192589Y-91107857D02*
X112192589Y-91461589D01*
X117423764Y-91723211D02*
X117648400Y-91723211D01*
X113404211Y-91723211D02*
X113404211Y-91107857D01*
X113404211Y-92076932D02*
X113404211Y-91723211D01*
X107704211Y-92076943D02*
X107704211Y-91723211D01*
X111504211Y-91723211D02*
X111504211Y-91107857D01*
X124024389Y-97723211D02*
X123805200Y-97942400D01*
X106977132Y-92561486D02*
X107219668Y-92561486D01*
X105804211Y-91723211D02*
X105804211Y-91107868D01*
X103904211Y-92076932D02*
X103904211Y-91723211D01*
X103177120Y-92561463D02*
X103419680Y-92561463D01*
X113627132Y-90884936D02*
X113869668Y-90884936D01*
X99288866Y-91723211D02*
X101498400Y-91723211D01*
X124024389Y-93830983D02*
X124024389Y-97723211D01*
X108392589Y-91461589D02*
X108392589Y-92076932D01*
X112192589Y-91461589D02*
X112192589Y-92076932D01*
X104127132Y-90884936D02*
X104369668Y-90884936D01*
X114092589Y-91461589D02*
X114092589Y-92076932D01*
X106492589Y-91107868D02*
X106492589Y-91461589D01*
X117648400Y-91723211D02*
X121916617Y-91723211D01*
X102199128Y-90891672D02*
X102473036Y-90891672D01*
X115992589Y-91107857D02*
X115992589Y-91461589D01*
X101979575Y-91242036D02*
X101979575Y-91111225D01*
X103904211Y-91723211D02*
X103904211Y-91107857D01*
X102692589Y-91242036D02*
X102692589Y-92076932D01*
X105077120Y-92561463D02*
X105319680Y-92561463D01*
X114092537Y-92076932D02*
G75*
G03*
X114577120Y-92561463I484563J32D01*
G01*
X111019680Y-92561411D02*
G75*
G03*
X111504211Y-92076932I20J484511D01*
G01*
X113627132Y-90885011D02*
G75*
G03*
X113404211Y-91107857I-32J-222889D01*
G01*
X114092664Y-91107857D02*
G75*
G03*
X113869668Y-90884936I-222964J-43D01*
G01*
X115992650Y-92073575D02*
G75*
G03*
X116473764Y-92554750I481150J-25D01*
G01*
X107927120Y-90885011D02*
G75*
G03*
X107704211Y-91107868I-20J-222889D01*
G01*
X110292537Y-92076932D02*
G75*
G03*
X110777120Y-92561463I484563J32D01*
G01*
X103419680Y-92561411D02*
G75*
G03*
X103904211Y-92076932I20J484511D01*
G01*
X116723036Y-92554811D02*
G75*
G03*
X117204211Y-92073575I-36J481211D01*
G01*
X101498400Y-91723175D02*
G75*
G03*
X101979575Y-91242036I0J481175D01*
G01*
X109119680Y-92561411D02*
G75*
G03*
X109604211Y-92076932I20J484511D01*
G01*
X115527132Y-90885011D02*
G75*
G03*
X115304211Y-91107857I-32J-222889D01*
G01*
X108392537Y-92076932D02*
G75*
G03*
X108877120Y-92561463I484563J32D01*
G01*
X104127132Y-90885011D02*
G75*
G03*
X103904211Y-91107857I-32J-222889D01*
G01*
X102199128Y-90891675D02*
G75*
G03*
X101979575Y-91111225I-28J-219525D01*
G01*
X105319680Y-92561411D02*
G75*
G03*
X105804211Y-92076932I20J484511D01*
G01*
X114819680Y-92561411D02*
G75*
G03*
X115304211Y-92076932I20J484511D01*
G01*
X106492514Y-92076943D02*
G75*
G03*
X106977132Y-92561486I484586J43D01*
G01*
X104592537Y-92076932D02*
G75*
G03*
X105077120Y-92561463I484563J32D01*
G01*
X102692537Y-92076932D02*
G75*
G03*
X103177120Y-92561463I484563J32D01*
G01*
X109827132Y-90885011D02*
G75*
G03*
X109604211Y-91107857I-32J-222889D01*
G01*
X112192664Y-91107857D02*
G75*
G03*
X111969668Y-90884936I-222964J-43D01*
G01*
X117423764Y-91723211D02*
G75*
G03*
X117204211Y-91942764I36J-219589D01*
G01*
X106492641Y-91107868D02*
G75*
G03*
X106269680Y-90884959I-222941J-32D01*
G01*
X107219668Y-92561411D02*
G75*
G03*
X107704211Y-92076943I32J484511D01*
G01*
X115992664Y-91107857D02*
G75*
G03*
X115769668Y-90884936I-222964J-43D01*
G01*
X112919680Y-92561411D02*
G75*
G03*
X113404211Y-92076932I20J484511D01*
G01*
X112192537Y-92076932D02*
G75*
G03*
X112677120Y-92561463I484563J32D01*
G01*
X104592664Y-91107857D02*
G75*
G03*
X104369668Y-90884936I-222964J-43D01*
G01*
X106027120Y-90885011D02*
G75*
G03*
X105804211Y-91107868I-20J-222889D01*
G01*
X108392641Y-91107868D02*
G75*
G03*
X108169680Y-90884959I-222941J-32D01*
G01*
X102692528Y-91111225D02*
G75*
G03*
X102473036Y-90891672I-219528J25D01*
G01*
X111727132Y-90885011D02*
G75*
G03*
X111504211Y-91107857I-32J-222889D01*
G01*
X110292664Y-91107857D02*
G75*
G03*
X110069668Y-90884936I-222964J-43D01*
G01*
X116254211Y-91107857D02*
X116254211Y-91461589D01*
X105542589Y-91723211D02*
X105542589Y-91107868D01*
X99069677Y-91242400D02*
X99288866Y-91461589D01*
X115527132Y-90623314D02*
X115769668Y-90623314D01*
X114354211Y-91461589D02*
X114354211Y-92076932D01*
X110554211Y-91107857D02*
X110554211Y-91461589D01*
X109827132Y-90623314D02*
X110069668Y-90623314D01*
X112677120Y-92299841D02*
X112919680Y-92299841D01*
X103642589Y-91723211D02*
X103642589Y-91107857D01*
X108654211Y-91107868D02*
X108654211Y-91461589D01*
X113142589Y-92076932D02*
X113142589Y-91723211D01*
X113142589Y-91723211D02*
X113142589Y-91107857D01*
X112454211Y-91461589D02*
X112454211Y-92076932D01*
X116473764Y-92293128D02*
X116723036Y-92293128D01*
X104854211Y-91461589D02*
X104854211Y-92076932D01*
X114577120Y-92299841D02*
X114819680Y-92299841D01*
X111242589Y-91723211D02*
X111242589Y-91107857D01*
X108654211Y-91461589D02*
X108654211Y-92076932D01*
X103642589Y-92076932D02*
X103642589Y-91723211D01*
X116254211Y-91461589D02*
X116254211Y-92073575D01*
X124286011Y-97723211D02*
X124505200Y-97942400D01*
X106027120Y-90623337D02*
X106269680Y-90623337D01*
X105542589Y-92076932D02*
X105542589Y-91723211D01*
X106754211Y-91107868D02*
X106754211Y-91461589D01*
X109342589Y-91723211D02*
X109342589Y-91107857D01*
X111727132Y-90623314D02*
X111969668Y-90623314D01*
X112454211Y-91107857D02*
X112454211Y-91461589D01*
X99288866Y-91461589D02*
X101498400Y-91461589D01*
X110554211Y-91461589D02*
X110554211Y-92076932D01*
X108877120Y-92299841D02*
X109119680Y-92299841D01*
X110777120Y-92299841D02*
X111019680Y-92299841D01*
X101717953Y-91242036D02*
X101717953Y-91111225D01*
X107442589Y-92076943D02*
X107442589Y-91723211D01*
X103177120Y-92299841D02*
X103419680Y-92299841D01*
X124286011Y-93722617D02*
X124286011Y-97723211D01*
X102954211Y-91242036D02*
X102954211Y-92076932D01*
X115042589Y-92076932D02*
X115042589Y-91723211D01*
X109342589Y-92076932D02*
X109342589Y-91723211D01*
X105077120Y-92299841D02*
X105319680Y-92299841D01*
X102199128Y-90630050D02*
X102473036Y-90630050D01*
X104854211Y-91107857D02*
X104854211Y-91461589D01*
X114354211Y-91107857D02*
X114354211Y-91461589D01*
X111242589Y-92076932D02*
X111242589Y-91723211D01*
X115042589Y-91723211D02*
X115042589Y-91107857D01*
X113627132Y-90623314D02*
X113869668Y-90623314D01*
X106977132Y-92299864D02*
X107219668Y-92299864D01*
X106754211Y-91461589D02*
X106754211Y-92076943D01*
X117648400Y-91461589D02*
X122024983Y-91461589D01*
X104127132Y-90623314D02*
X104369668Y-90623314D01*
X102954211Y-91111225D02*
X102954211Y-91242036D01*
X107927120Y-90623337D02*
X108169680Y-90623337D01*
X107442589Y-91723211D02*
X107442589Y-91107868D01*
X122024983Y-91461589D02*
X124286011Y-93722617D01*
X116942589Y-92073575D02*
X116942589Y-91942764D01*
X117423764Y-91461589D02*
X117648400Y-91461589D01*
X102954159Y-92076932D02*
G75*
G03*
X103177120Y-92299841I222941J32D01*
G01*
X117423764Y-91461589D02*
G75*
G03*
X116942589Y-91942764I36J-481211D01*
G01*
X102199128Y-90630053D02*
G75*
G03*
X101717953Y-91111225I-28J-481147D01*
G01*
X107927120Y-90623389D02*
G75*
G03*
X107442589Y-91107868I-20J-484511D01*
G01*
X112919680Y-92299789D02*
G75*
G03*
X113142589Y-92076932I20J222889D01*
G01*
X108654159Y-92076932D02*
G75*
G03*
X108877120Y-92299841I222941J32D01*
G01*
X106754263Y-91107868D02*
G75*
G03*
X106269680Y-90623337I-484563J-32D01*
G01*
X109119680Y-92299789D02*
G75*
G03*
X109342589Y-92076932I20J222889D01*
G01*
X104127132Y-90623389D02*
G75*
G03*
X103642589Y-91107857I-32J-484511D01*
G01*
X109827132Y-90623389D02*
G75*
G03*
X109342589Y-91107857I-32J-484511D01*
G01*
X104854286Y-91107857D02*
G75*
G03*
X104369668Y-90623314I-484586J-43D01*
G01*
X103419680Y-92299789D02*
G75*
G03*
X103642589Y-92076932I20J222889D01*
G01*
X110554286Y-91107857D02*
G75*
G03*
X110069668Y-90623314I-484586J-43D01*
G01*
X112454286Y-91107857D02*
G75*
G03*
X111969668Y-90623314I-484586J-43D01*
G01*
X102954150Y-91111225D02*
G75*
G03*
X102473036Y-90630050I-481150J25D01*
G01*
X116254286Y-91107857D02*
G75*
G03*
X115769668Y-90623314I-484586J-43D01*
G01*
X116254272Y-92073575D02*
G75*
G03*
X116473764Y-92293128I219528J-25D01*
G01*
X106754136Y-92076943D02*
G75*
G03*
X106977132Y-92299864I222964J43D01*
G01*
X108654263Y-91107868D02*
G75*
G03*
X108169680Y-90623337I-484563J-32D01*
G01*
X113627132Y-90623389D02*
G75*
G03*
X113142589Y-91107857I-32J-484511D01*
G01*
X112454159Y-92076932D02*
G75*
G03*
X112677120Y-92299841I222941J32D01*
G01*
X106027120Y-90623389D02*
G75*
G03*
X105542589Y-91107868I-20J-484511D01*
G01*
X111727132Y-90623389D02*
G75*
G03*
X111242589Y-91107857I-32J-484511D01*
G01*
X105319680Y-92299789D02*
G75*
G03*
X105542589Y-92076932I20J222889D01*
G01*
X110554159Y-92076932D02*
G75*
G03*
X110777120Y-92299841I222941J32D01*
G01*
X115527132Y-90623389D02*
G75*
G03*
X115042589Y-91107857I-32J-484511D01*
G01*
X116723036Y-92293189D02*
G75*
G03*
X116942589Y-92073575I-36J219589D01*
G01*
X107219668Y-92299789D02*
G75*
G03*
X107442589Y-92076943I32J222889D01*
G01*
X101498400Y-91461553D02*
G75*
G03*
X101717953Y-91242036I0J219553D01*
G01*
X114819680Y-92299789D02*
G75*
G03*
X115042589Y-92076932I20J222889D01*
G01*
X114354286Y-91107857D02*
G75*
G03*
X113869668Y-90623314I-484586J-43D01*
G01*
X111019680Y-92299789D02*
G75*
G03*
X111242589Y-92076932I20J222889D01*
G01*
X104854159Y-92076932D02*
G75*
G03*
X105077120Y-92299841I222941J32D01*
G01*
X114354159Y-92076932D02*
G75*
G03*
X114577120Y-92299841I222941J32D01*
G01*
X131999990Y-98783984D02*
X128027694Y-94811688D01*
X124555088Y-108058112D02*
X124555088Y-108368094D01*
X130705016Y-109622590D02*
X131999990Y-108327616D01*
X124555088Y-108368094D02*
X125809584Y-109622590D01*
X128027694Y-94811688D02*
X127717712Y-94811688D01*
X125809584Y-109622590D02*
X130705016Y-109622590D01*
X131999990Y-108327616D02*
X131999990Y-98783984D01*
X124370094Y-108553088D02*
X125701216Y-109884210D01*
X124060112Y-108553088D02*
X124370094Y-108553088D01*
X132261610Y-98675616D02*
X128212688Y-94626694D01*
X125701216Y-109884210D02*
X130813384Y-109884210D01*
X128212688Y-94626694D02*
X128212688Y-94316712D01*
X130813384Y-109884210D02*
X132261610Y-108435984D01*
X132261610Y-108435984D02*
X132261610Y-98675616D01*
D53*
X109423200Y-108610400D02*
X80594200Y-137439400D01*
X243205000Y-169773600D02*
X243205000Y-207797400D01*
X75285600Y-137439400D02*
X74803000Y-137922000D01*
X143103600Y-182524400D02*
X146126200Y-179501800D01*
X252425200Y-236016800D02*
X252425200Y-226212400D01*
X80594200Y-137439400D02*
X75285600Y-137439400D01*
X120446800Y-237540800D02*
X120446800Y-249809000D01*
X259283200Y-235864400D02*
X260781800Y-235864400D01*
X201313800Y-96998000D02*
X201313800Y-97006000D01*
X148336000Y-64770000D02*
X142494000Y-64770000D01*
X110591600Y-99339400D02*
X109423200Y-100507800D01*
X77724000Y-208432400D02*
X81813400Y-204343000D01*
X69748400Y-137922000D02*
X68046600Y-139623800D01*
X82778600Y-235305600D02*
X85725000Y-238252000D01*
X89027000Y-51943000D02*
X89027000Y-53721000D01*
X265582400Y-240665000D02*
X265582400Y-242747800D01*
X257886200Y-235889800D02*
X257429000Y-236347000D01*
X252727803Y-236347000D02*
X252423003Y-236042200D01*
X134112000Y-139801600D02*
X88773000Y-139801600D01*
X85725000Y-242366800D02*
X85725000Y-246151400D01*
X55854600Y-193167000D02*
X55854600Y-192532000D01*
X55854600Y-224053400D02*
X67106800Y-235305600D01*
X251815600Y-225602800D02*
X251129800Y-225602800D01*
X65862200Y-182524400D02*
X143103600Y-182524400D01*
X109423200Y-100507800D02*
X109423200Y-108610400D01*
X243205000Y-207797400D02*
X249986800Y-214579200D01*
X146126200Y-151815800D02*
X134112000Y-139801600D01*
X61315600Y-198018400D02*
X55854600Y-203479400D01*
X182118000Y-91694000D02*
X161417000Y-70993000D01*
X55854600Y-203479400D02*
X55854600Y-224053400D01*
X201313800Y-96998000D02*
X190520800Y-96998000D01*
X85750400Y-198018400D02*
X61315600Y-198018400D01*
X182118000Y-91694000D02*
X182778400Y-92354400D01*
X83185000Y-202971400D02*
X85750400Y-200406000D01*
X67106800Y-235305600D02*
X82778600Y-235305600D01*
X77112400Y-54102000D02*
X63881000Y-54102000D01*
X85750400Y-200406000D02*
X85750400Y-198018400D01*
X260781800Y-235864400D02*
X265582400Y-240665000D01*
X252425200Y-226212400D02*
X251815600Y-225602800D01*
X88773000Y-139801600D02*
X84226400Y-135255000D01*
X55854600Y-192532000D02*
X65862200Y-182524400D01*
X74803000Y-137922000D02*
X69748400Y-137922000D01*
X252423003Y-236018997D02*
X252425200Y-236016800D01*
X249986800Y-214579200D02*
X249986800Y-225602800D01*
X257429000Y-236347000D02*
X252727803Y-236347000D01*
X79197200Y-56186800D02*
X77112400Y-54102000D01*
X205003400Y-130962400D02*
X205003400Y-107696000D01*
X190520800Y-96998000D02*
X185877200Y-92354400D01*
X134086600Y-237540800D02*
X134086600Y-249809000D01*
X146126200Y-179501800D02*
X146126200Y-151815800D01*
X249326400Y-226085400D02*
X249682000Y-226441000D01*
X75488800Y-137947400D02*
X75031600Y-138404600D01*
X145719800Y-179374800D02*
X145719800Y-152069800D01*
X70053200Y-138404600D02*
X68046600Y-140411200D01*
X241884200Y-207594200D02*
X249326400Y-215036400D01*
X182778400Y-102565200D02*
X182778400Y-93497400D01*
X110591600Y-100787200D02*
X109880400Y-101498400D01*
X79756000Y-204622400D02*
X76860400Y-207518000D01*
X76860400Y-207518000D02*
X76860400Y-209448400D01*
X84582000Y-242366800D02*
X84582000Y-246151400D01*
X204063600Y-98450400D02*
X201168000Y-101346000D01*
X54965600Y-223824800D02*
X66878200Y-235737400D01*
X80822800Y-137947400D02*
X75488800Y-137947400D01*
X84582000Y-197561200D02*
X60401200Y-197561200D01*
X201168000Y-101346000D02*
X201168000Y-102565200D01*
X182778400Y-93497400D02*
X159893000Y-70612000D01*
X54965600Y-193852800D02*
X54965600Y-192811400D01*
X264947400Y-244475000D02*
X264947400Y-240969800D01*
X54965600Y-192811400D02*
X65659000Y-182118000D01*
X87325200Y-52171600D02*
X87934800Y-52781200D01*
X251536200Y-236042200D02*
X252298200Y-236804200D01*
X54965600Y-202996800D02*
X54965600Y-223824800D01*
X142976600Y-182118000D02*
X145719800Y-179374800D01*
X251536200Y-236042200D02*
X251536200Y-235000800D01*
X88519000Y-140258800D02*
X83515200Y-135255000D01*
X124155200Y-238810800D02*
X124155200Y-250571000D01*
X241884200Y-169773600D02*
X241884200Y-207594200D01*
X142494000Y-66040000D02*
X148336000Y-66040000D01*
X186563000Y-102565200D02*
X201168000Y-102565200D01*
X185877200Y-101879400D02*
X186563000Y-102565200D01*
X251599700Y-226441000D02*
X251129800Y-226441000D01*
X251891800Y-226733100D02*
X251599700Y-226441000D01*
X75031600Y-138404600D02*
X70053200Y-138404600D01*
X251536200Y-235000800D02*
X251891800Y-234645200D01*
X65659000Y-182118000D02*
X142976600Y-182118000D01*
X69189600Y-52171600D02*
X87325200Y-52171600D01*
X249682000Y-226441000D02*
X249986800Y-226441000D01*
X203428600Y-107696000D02*
X203428600Y-130962400D01*
X204063600Y-95402400D02*
X204063600Y-98450400D01*
X66878200Y-235737400D02*
X82067400Y-235737400D01*
X109880400Y-108889800D02*
X80822800Y-137947400D01*
X109880400Y-101498400D02*
X109880400Y-108889800D01*
X249326400Y-215036400D02*
X249326400Y-226085400D01*
X260781800Y-236804200D02*
X259283200Y-236804200D01*
X137718800Y-238810800D02*
X137718800Y-250571000D01*
X252298200Y-236804200D02*
X257886200Y-236804200D01*
X145719800Y-152069800D02*
X133908800Y-140258800D01*
X264947400Y-240969800D02*
X260781800Y-236804200D01*
X82067400Y-235737400D02*
X84582000Y-238252000D01*
X60401200Y-197561200D02*
X54965600Y-202996800D01*
X133908800Y-140258800D02*
X88519000Y-140258800D01*
X251891800Y-234645200D02*
X251891800Y-226733100D01*
X108002800Y-99337400D02*
X107416600Y-99923600D01*
X107416600Y-99923600D02*
X95250000Y-99923600D01*
X95250000Y-99923600D02*
X94386400Y-99060000D01*
X94386400Y-99060000D02*
X93446600Y-99060000D01*
X110591600Y-98323400D02*
X112369600Y-98323400D01*
X116687600Y-102641400D02*
X116687600Y-103962200D01*
X112369600Y-98323400D02*
X116687600Y-102641400D01*
X116687600Y-103962200D02*
X123037600Y-110312200D01*
X94562353Y-99693153D02*
X95097600Y-100228400D01*
X107418600Y-100228400D02*
X108002800Y-100812600D01*
X93751400Y-99693153D02*
X94562353Y-99693153D01*
X95097600Y-100228400D02*
X107418600Y-100228400D01*
X116306600Y-104597200D02*
X116306600Y-102717600D01*
X115417600Y-101828600D02*
X110591600Y-101828600D01*
X122428000Y-110718600D02*
X116306600Y-104597200D01*
X116306600Y-102717600D02*
X115417600Y-101828600D01*
D57*
X59290112Y-98817694D02*
X59290112Y-98507712D01*
X51883937Y-102211080D02*
X55896726Y-102211080D01*
X55896726Y-102211080D02*
X59290112Y-98817694D01*
X59475106Y-99002688D02*
X59785088Y-99002688D01*
X56083200Y-102394594D02*
X59475106Y-99002688D01*
X54423942Y-106021088D02*
X56083200Y-104361830D01*
X56083200Y-104361830D02*
X56083200Y-102394594D01*
X64979712Y-114768894D02*
X57934016Y-121814590D01*
X64979712Y-114458912D02*
X64979712Y-114768894D01*
X51883937Y-121007080D02*
X56114206Y-121007080D01*
X57934016Y-121814590D02*
X56921716Y-121814590D01*
X56114206Y-121007080D02*
X56921716Y-121814590D01*
X56921716Y-122076210D02*
X58042384Y-122076210D01*
X56181417Y-123920424D02*
X55841590Y-123580597D01*
X65164706Y-114953888D02*
X65474688Y-114953888D01*
X56181417Y-123920423D02*
X56181417Y-123920424D01*
X58042384Y-122076210D02*
X65164706Y-114953888D01*
X55417327Y-124004863D02*
X55757153Y-124344689D01*
X55841590Y-123156333D02*
X55841591Y-123156334D01*
X54423942Y-124573984D02*
X54993063Y-124004863D01*
X54423942Y-124817088D02*
X54423942Y-124573984D01*
X55841591Y-123156334D02*
X56921716Y-122076210D01*
X56181461Y-124344733D02*
G75*
G03*
X56181417Y-123920423I-212161J212133D01*
G01*
X55417326Y-124004864D02*
G75*
G03*
X54993064Y-124004864I-212131J-212131D01*
G01*
X55841625Y-123156368D02*
G75*
G03*
X55841590Y-123580597I212075J-212132D01*
G01*
X55757154Y-124344688D02*
G75*
G03*
X56181416Y-124344688I212131J212131D01*
G01*
D53*
X40634000Y-116292069D02*
X43544131Y-119202200D01*
X47701200Y-119202200D02*
X54457600Y-112445800D01*
X93091000Y-107010200D02*
X93091000Y-106527600D01*
X90322400Y-109778800D02*
X93091000Y-107010200D01*
X43544131Y-119202200D02*
X47701200Y-119202200D01*
X77876400Y-109778800D02*
X90322400Y-109778800D01*
X54457600Y-112445800D02*
X75209400Y-112445800D01*
X75209400Y-112445800D02*
X77876400Y-109778800D01*
X90474800Y-110058200D02*
X78003400Y-110058200D01*
X43078400Y-127097605D02*
X40634000Y-129542005D01*
X75336400Y-112725200D02*
X54584600Y-112725200D01*
X54584600Y-112725200D02*
X43078400Y-124231400D01*
X93675200Y-105892600D02*
X93675200Y-106857800D01*
X43078400Y-124231400D02*
X43078400Y-127097605D01*
X78003400Y-110058200D02*
X75336400Y-112725200D01*
X93675200Y-106857800D02*
X90474800Y-110058200D01*
X80822800Y-104495600D02*
X81254600Y-104063800D01*
X79476600Y-104063800D02*
X79908400Y-104495600D01*
X81254600Y-104063800D02*
X88849200Y-104063800D01*
X71196200Y-111506000D02*
X78638400Y-104063800D01*
X47695427Y-107893427D02*
X51308000Y-111506000D01*
X43486578Y-107893427D02*
X47695427Y-107893427D01*
X78638400Y-104063800D02*
X79476600Y-104063800D01*
X79908400Y-104495600D02*
X80822800Y-104495600D01*
X40634000Y-110746005D02*
X43486578Y-107893427D01*
X51308000Y-111506000D02*
X71196200Y-111506000D01*
X88849200Y-104063800D02*
X90525600Y-105740200D01*
X47421800Y-100380800D02*
X50546000Y-97256600D01*
X43518731Y-100380800D02*
X47421800Y-100380800D01*
X88823800Y-103225600D02*
X90525600Y-104927400D01*
X81000600Y-103225600D02*
X88823800Y-103225600D01*
X40634000Y-97496069D02*
X43518731Y-100380800D01*
X79730600Y-103225600D02*
X79913100Y-103043100D01*
X78638400Y-103225600D02*
X79730600Y-103225600D01*
X50546000Y-97256600D02*
X72669400Y-97256600D01*
X80818100Y-103043100D02*
X81000600Y-103225600D01*
X79913100Y-103043100D02*
X80818100Y-103043100D01*
X72669400Y-97256600D02*
X78638400Y-103225600D01*
X54051200Y-74625200D02*
X58902600Y-74625200D01*
X40634000Y-78700069D02*
X43747331Y-81813400D01*
X90855800Y-91171915D02*
X90855800Y-103352600D01*
X58902600Y-74625200D02*
X59563000Y-75285600D01*
X59563000Y-75285600D02*
X74969485Y-75285600D01*
X90855800Y-103352600D02*
X90246200Y-103962200D01*
X46863000Y-81813400D02*
X54051200Y-74625200D01*
X43747331Y-81813400D02*
X46863000Y-81813400D01*
X74969485Y-75285600D02*
X90855800Y-91171915D01*
X43912605Y-88671400D02*
X47244000Y-88671400D01*
X90474800Y-97917000D02*
X90474800Y-102920800D01*
X90474800Y-102920800D02*
X90220800Y-103174800D01*
X50876200Y-92303600D02*
X84861400Y-92303600D01*
X47244000Y-88671400D02*
X50876200Y-92303600D01*
X40634000Y-91950005D02*
X43912605Y-88671400D01*
X84861400Y-92303600D02*
X90474800Y-97917000D01*
D57*
X51883937Y-83415080D02*
X55830680Y-83415080D01*
X60446400Y-84277200D02*
X60452000Y-84282800D01*
X56917589Y-84501989D02*
X60232811Y-84501989D01*
X55830680Y-83415080D02*
X56917589Y-84501989D01*
X60232811Y-84501989D02*
X60452000Y-84282800D01*
X56885419Y-84763611D02*
X57735419Y-84763611D01*
X59764566Y-84763611D02*
X60232811Y-84763611D01*
X60232811Y-84763611D02*
X60452000Y-84982800D01*
X59335419Y-84763611D02*
X59764566Y-84763611D01*
X54423942Y-87225088D02*
X55343215Y-86305815D01*
X55908899Y-86305815D02*
X55908900Y-86305815D01*
X58935419Y-85310002D02*
X58935419Y-85163611D01*
X58135419Y-85163611D02*
X58135419Y-85310002D01*
X56474584Y-85174442D02*
X56474584Y-85174443D01*
X55908900Y-86305815D02*
X56012408Y-86409323D01*
X56578094Y-86409323D02*
X56578093Y-86409323D01*
X56578093Y-85843637D02*
X56474584Y-85740128D01*
X56474584Y-85174443D02*
X56885419Y-84763611D01*
X60446400Y-84988400D02*
X60452000Y-84982800D01*
X56474600Y-85174458D02*
G75*
G03*
X56474585Y-85740127I282800J-282842D01*
G01*
X58135398Y-85310002D02*
G75*
G03*
X58535419Y-85710002I400002J2D01*
G01*
X56578112Y-86409342D02*
G75*
G03*
X56578092Y-85843638I-282912J282842D01*
G01*
X55908898Y-86305816D02*
G75*
G03*
X55343216Y-86305816I-282841J-282841D01*
G01*
X58535419Y-85710019D02*
G75*
G03*
X58935419Y-85310002I-19J400019D01*
G01*
X59335419Y-84763619D02*
G75*
G03*
X58935419Y-85163611I-19J-399981D01*
G01*
X56012408Y-86409323D02*
G75*
G03*
X56578094Y-86409323I282843J282844D01*
G01*
X58135389Y-85163611D02*
G75*
G03*
X57735419Y-84763611I-399989J11D01*
G01*
D53*
X40804600Y-158521400D02*
X41336000Y-157990000D01*
X41336000Y-157990000D02*
X42285000Y-157990000D01*
X40792400Y-156972000D02*
X40794466Y-156969934D01*
X40794466Y-156969934D02*
X44064782Y-156969934D01*
X40164278Y-155950122D02*
X39142400Y-156972000D01*
X42285000Y-155950122D02*
X40164278Y-155950122D01*
X40814544Y-154930056D02*
X44064782Y-154930056D01*
X40804600Y-154940000D02*
X40814544Y-154930056D01*
D52*
X87274400Y-148742400D02*
X89128600Y-148742400D01*
X89814400Y-158851600D02*
X89814400Y-154482800D01*
X89814400Y-152247600D02*
X89814400Y-154482800D01*
X89814400Y-149428200D02*
X89814400Y-152247600D01*
X89103200Y-159562800D02*
X89814400Y-158851600D01*
X89128600Y-148742400D02*
X89814400Y-149428200D01*
X87274400Y-159562800D02*
X89103200Y-159562800D01*
X132588000Y-165557200D02*
X132588000Y-174447200D01*
X132588000Y-151206200D02*
X132588000Y-160096200D01*
D53*
X231292400Y-102844600D02*
X231292400Y-97637600D01*
X231292400Y-112293400D02*
X231292400Y-117475000D01*
G04 #@! TA.AperFunction,Conductor*
G36*
X236093000Y-109423200D02*
G01*
X245062200Y-109423200D01*
X245129239Y-109442885D01*
X245174994Y-109495689D01*
X245186200Y-109547200D01*
X245186200Y-126368000D01*
X245166515Y-126435039D01*
X245113711Y-126480794D01*
X245062200Y-126492000D01*
X241805000Y-126492000D01*
X241737961Y-126472315D01*
X241692206Y-126419511D01*
X241681000Y-126368000D01*
X241681000Y-110896400D01*
X234213400Y-110896400D01*
X234213400Y-103759000D01*
X232333800Y-103759000D01*
X232333800Y-99009200D01*
X236093000Y-99009200D01*
X236093000Y-109423200D01*
G37*
G04 #@! TD.AperFunction*
G04 #@! TA.AperFunction,Conductor*
G36*
X209670839Y-46222285D02*
G01*
X209716594Y-46275089D01*
X209727800Y-46326600D01*
X209727800Y-51739800D01*
X209727800Y-52070000D01*
X208610200Y-52070000D01*
X208610200Y-47980600D01*
X206372000Y-47980600D01*
X206304961Y-47960915D01*
X206259206Y-47908111D01*
X206248000Y-47856600D01*
X206248000Y-46326600D01*
X206267685Y-46259561D01*
X206320489Y-46213806D01*
X206372000Y-46202600D01*
X209603800Y-46202600D01*
X209670839Y-46222285D01*
G37*
G04 #@! TD.AperFunction*
G04 #@! TA.AperFunction,Conductor*
G36*
X240176239Y-46222285D02*
G01*
X240221994Y-46275089D01*
X240233200Y-46326600D01*
X240233200Y-51739800D01*
X240233200Y-52070000D01*
X239115600Y-52070000D01*
X239115600Y-47980600D01*
X236877400Y-47980600D01*
X236810361Y-47960915D01*
X236764606Y-47908111D01*
X236753400Y-47856600D01*
X236753400Y-46326600D01*
X236773085Y-46259561D01*
X236825889Y-46213806D01*
X236877400Y-46202600D01*
X240109200Y-46202600D01*
X240176239Y-46222285D01*
G37*
G04 #@! TD.AperFunction*
G04 #@! TA.AperFunction,Conductor*
G36*
X85996258Y-36849685D02*
G01*
X86016900Y-36866319D01*
X86501481Y-37350900D01*
X86534966Y-37412223D01*
X86537800Y-37438581D01*
X86537800Y-38915800D01*
X86518115Y-38982839D01*
X86465311Y-39028594D01*
X86413800Y-39039800D01*
X78232000Y-39039800D01*
X75333400Y-39039800D01*
X75266361Y-39020115D01*
X75220606Y-38967311D01*
X75209400Y-38915800D01*
X75209400Y-37360400D01*
X75229085Y-37293361D01*
X75281889Y-37247606D01*
X75333400Y-37236400D01*
X79094813Y-37236400D01*
X79161852Y-37256085D01*
X79190660Y-37281729D01*
X79297755Y-37412223D01*
X79299119Y-37413885D01*
X79451460Y-37538909D01*
X79451467Y-37538913D01*
X79625266Y-37631811D01*
X79625269Y-37631811D01*
X79625273Y-37631814D01*
X79813868Y-37689024D01*
X80010000Y-37708341D01*
X80206132Y-37689024D01*
X80394727Y-37631814D01*
X80568538Y-37538910D01*
X80720883Y-37413883D01*
X80829336Y-37281732D01*
X80887079Y-37242401D01*
X80925187Y-37236400D01*
X81761813Y-37236400D01*
X81828852Y-37256085D01*
X81857660Y-37281729D01*
X81964755Y-37412223D01*
X81966119Y-37413885D01*
X82118460Y-37538909D01*
X82118467Y-37538913D01*
X82292266Y-37631811D01*
X82292269Y-37631811D01*
X82292273Y-37631814D01*
X82480868Y-37689024D01*
X82677000Y-37708341D01*
X82873132Y-37689024D01*
X83061727Y-37631814D01*
X83190049Y-37563224D01*
X83258449Y-37548983D01*
X83306949Y-37563223D01*
X83435273Y-37631814D01*
X83623868Y-37689024D01*
X83820000Y-37708341D01*
X84016132Y-37689024D01*
X84204727Y-37631814D01*
X84378538Y-37538910D01*
X84530883Y-37413883D01*
X84655910Y-37261538D01*
X84748814Y-37087727D01*
X84772909Y-37008293D01*
X84800300Y-36918004D01*
X84838597Y-36859566D01*
X84902410Y-36831109D01*
X84918960Y-36830000D01*
X85929219Y-36830000D01*
X85996258Y-36849685D01*
G37*
G04 #@! TD.AperFunction*
G04 #@! TA.AperFunction,Conductor*
G36*
X208610200Y-52070000D02*
G01*
X209727800Y-52070000D01*
X209727800Y-51739800D01*
X209727800Y-51562000D01*
X239115600Y-51562000D01*
X239115600Y-52070000D01*
X240233200Y-52070000D01*
X240233200Y-51739800D01*
X240233200Y-51562000D01*
X269671800Y-51562000D01*
X269671800Y-52070000D01*
X270789400Y-52070000D01*
X270789400Y-51739800D01*
X270789400Y-51562000D01*
X271602200Y-51562000D01*
X271602200Y-56388000D01*
X178254200Y-56388000D01*
X178187161Y-56368315D01*
X178141406Y-56315511D01*
X178130200Y-56264000D01*
X178130200Y-52070000D01*
X179247800Y-52070000D01*
X179247800Y-51739800D01*
X179247800Y-51562000D01*
X208610200Y-51562000D01*
X208610200Y-52070000D01*
G37*
G04 #@! TD.AperFunction*
G04 #@! TA.AperFunction,Conductor*
G36*
X270732439Y-46222285D02*
G01*
X270778194Y-46275089D01*
X270789400Y-46326600D01*
X270789400Y-51739800D01*
X270789400Y-52070000D01*
X269671800Y-52070000D01*
X269671800Y-47980600D01*
X267433600Y-47980600D01*
X267366561Y-47960915D01*
X267320806Y-47908111D01*
X267309600Y-47856600D01*
X267309600Y-46326600D01*
X267329285Y-46259561D01*
X267382089Y-46213806D01*
X267433600Y-46202600D01*
X270665400Y-46202600D01*
X270732439Y-46222285D01*
G37*
G04 #@! TD.AperFunction*
G04 #@! TA.AperFunction,Conductor*
G36*
X277793639Y-51581685D02*
G01*
X277839394Y-51634489D01*
X277850600Y-51686000D01*
X277850600Y-114150600D01*
X277830915Y-114217639D01*
X277778111Y-114263394D01*
X277726600Y-114274600D01*
X270556192Y-114274600D01*
X270512860Y-114266782D01*
X270451049Y-114243728D01*
X270451045Y-114243727D01*
X270178427Y-114184422D01*
X269900129Y-114164518D01*
X269900127Y-114164518D01*
X269621828Y-114184422D01*
X269349210Y-114243727D01*
X269349206Y-114243728D01*
X269287396Y-114266782D01*
X269244064Y-114274600D01*
X267205000Y-114274600D01*
X267137961Y-114254915D01*
X267092206Y-114202111D01*
X267081000Y-114150600D01*
X267081000Y-111919849D01*
X267945147Y-111919849D01*
X267965046Y-112198071D01*
X267965047Y-112198078D01*
X268024335Y-112470622D01*
X268121817Y-112731982D01*
X268255489Y-112976786D01*
X268255494Y-112976793D01*
X268355729Y-113110691D01*
X268355730Y-113110692D01*
X269222922Y-112243500D01*
X269246176Y-112297407D01*
X269350874Y-112438042D01*
X269485183Y-112550741D01*
X269576783Y-112596744D01*
X268709282Y-113464244D01*
X268709283Y-113464245D01*
X268843182Y-113564481D01*
X268843189Y-113564486D01*
X269087993Y-113698158D01*
X269349353Y-113795640D01*
X269621897Y-113854928D01*
X269621904Y-113854929D01*
X269900127Y-113874829D01*
X269900129Y-113874829D01*
X270178351Y-113854929D01*
X270178358Y-113854928D01*
X270450902Y-113795640D01*
X270712262Y-113698158D01*
X270957066Y-113564486D01*
X270957066Y-113564485D01*
X271090972Y-113464244D01*
X270226084Y-112599357D01*
X270239025Y-112594647D01*
X270385509Y-112498303D01*
X270505826Y-112370774D01*
X270578584Y-112244752D01*
X271444524Y-113110692D01*
X271544765Y-112976786D01*
X271544766Y-112976786D01*
X271678438Y-112731982D01*
X271775920Y-112470622D01*
X271835208Y-112198078D01*
X271835209Y-112198071D01*
X271855109Y-111919849D01*
X271855109Y-111919846D01*
X271835209Y-111641624D01*
X271835208Y-111641617D01*
X271775920Y-111369073D01*
X271678438Y-111107713D01*
X271544766Y-110862909D01*
X271544761Y-110862902D01*
X271444525Y-110729003D01*
X271444524Y-110729002D01*
X270577332Y-111596194D01*
X270554080Y-111542289D01*
X270449382Y-111401654D01*
X270315073Y-111288955D01*
X270223472Y-111242951D01*
X271090972Y-110375450D01*
X271090971Y-110375449D01*
X270957073Y-110275214D01*
X270957066Y-110275209D01*
X270712262Y-110141537D01*
X270450902Y-110044055D01*
X270178358Y-109984767D01*
X270178351Y-109984766D01*
X269900129Y-109964867D01*
X269900127Y-109964867D01*
X269621904Y-109984766D01*
X269621897Y-109984767D01*
X269349353Y-110044055D01*
X269087993Y-110141537D01*
X268843183Y-110275214D01*
X268709282Y-110375449D01*
X269574171Y-111240338D01*
X269561231Y-111245049D01*
X269414747Y-111341393D01*
X269294430Y-111468922D01*
X269221671Y-111594944D01*
X268355729Y-110729002D01*
X268255494Y-110862903D01*
X268121817Y-111107713D01*
X268024335Y-111369073D01*
X267965047Y-111641617D01*
X267965046Y-111641624D01*
X267945147Y-111919846D01*
X267945147Y-111919849D01*
X267081000Y-111919849D01*
X267081000Y-107719951D01*
X267945147Y-107719951D01*
X267965046Y-107998173D01*
X267965047Y-107998180D01*
X268024335Y-108270724D01*
X268121817Y-108532084D01*
X268255489Y-108776888D01*
X268255494Y-108776895D01*
X268355729Y-108910793D01*
X268355730Y-108910794D01*
X269222922Y-108043602D01*
X269246176Y-108097509D01*
X269350874Y-108238144D01*
X269485183Y-108350843D01*
X269576783Y-108396846D01*
X268709282Y-109264346D01*
X268709283Y-109264347D01*
X268843182Y-109364583D01*
X268843189Y-109364588D01*
X269087993Y-109498260D01*
X269349353Y-109595742D01*
X269621897Y-109655030D01*
X269621904Y-109655031D01*
X269900127Y-109674931D01*
X269900129Y-109674931D01*
X270178351Y-109655031D01*
X270178358Y-109655030D01*
X270450902Y-109595742D01*
X270712262Y-109498260D01*
X270957066Y-109364588D01*
X270957066Y-109364587D01*
X271090972Y-109264346D01*
X270226084Y-108399459D01*
X270239025Y-108394749D01*
X270385509Y-108298405D01*
X270505826Y-108170876D01*
X270578584Y-108044854D01*
X271444524Y-108910794D01*
X271544765Y-108776888D01*
X271544766Y-108776888D01*
X271678438Y-108532084D01*
X271775920Y-108270724D01*
X271835208Y-107998180D01*
X271835209Y-107998173D01*
X271855109Y-107719951D01*
X271855109Y-107719948D01*
X271835209Y-107441726D01*
X271835208Y-107441719D01*
X271775920Y-107169175D01*
X271678438Y-106907815D01*
X271544766Y-106663011D01*
X271544761Y-106663004D01*
X271444525Y-106529105D01*
X271444524Y-106529104D01*
X270577332Y-107396296D01*
X270554080Y-107342391D01*
X270449382Y-107201756D01*
X270315073Y-107089057D01*
X270223472Y-107043053D01*
X271090972Y-106175552D01*
X271090971Y-106175551D01*
X270957073Y-106075316D01*
X270957066Y-106075311D01*
X270712262Y-105941639D01*
X270450902Y-105844157D01*
X270178358Y-105784869D01*
X270178351Y-105784868D01*
X269900129Y-105764969D01*
X269900127Y-105764969D01*
X269621904Y-105784868D01*
X269621897Y-105784869D01*
X269349353Y-105844157D01*
X269087993Y-105941639D01*
X268843183Y-106075316D01*
X268709282Y-106175551D01*
X269574171Y-107040440D01*
X269561231Y-107045151D01*
X269414747Y-107141495D01*
X269294430Y-107269024D01*
X269221671Y-107395046D01*
X268355729Y-106529104D01*
X268255494Y-106663005D01*
X268121817Y-106907815D01*
X268024335Y-107169175D01*
X267965047Y-107441719D01*
X267965046Y-107441726D01*
X267945147Y-107719948D01*
X267945147Y-107719951D01*
X267081000Y-107719951D01*
X267081000Y-103520052D01*
X267945147Y-103520052D01*
X267965046Y-103798274D01*
X267965047Y-103798281D01*
X268024335Y-104070825D01*
X268121817Y-104332185D01*
X268255489Y-104576989D01*
X268255494Y-104576996D01*
X268355729Y-104710894D01*
X268355730Y-104710895D01*
X269222922Y-103843703D01*
X269246176Y-103897610D01*
X269350874Y-104038245D01*
X269485183Y-104150944D01*
X269576783Y-104196947D01*
X268709282Y-105064447D01*
X268709283Y-105064448D01*
X268843182Y-105164684D01*
X268843189Y-105164689D01*
X269087993Y-105298361D01*
X269349353Y-105395843D01*
X269621897Y-105455131D01*
X269621904Y-105455132D01*
X269900127Y-105475032D01*
X269900129Y-105475032D01*
X270178351Y-105455132D01*
X270178358Y-105455131D01*
X270450902Y-105395843D01*
X270712262Y-105298361D01*
X270957066Y-105164689D01*
X270957066Y-105164688D01*
X271090972Y-105064447D01*
X270226084Y-104199560D01*
X270239025Y-104194850D01*
X270385509Y-104098506D01*
X270505826Y-103970977D01*
X270578584Y-103844955D01*
X271444524Y-104710895D01*
X271544765Y-104576989D01*
X271544766Y-104576989D01*
X271678438Y-104332185D01*
X271775920Y-104070825D01*
X271835208Y-103798281D01*
X271835209Y-103798274D01*
X271855109Y-103520052D01*
X271855109Y-103520049D01*
X271835209Y-103241827D01*
X271835208Y-103241820D01*
X271775920Y-102969276D01*
X271678438Y-102707916D01*
X271544766Y-102463112D01*
X271544761Y-102463105D01*
X271444525Y-102329206D01*
X271444524Y-102329205D01*
X270577332Y-103196397D01*
X270554080Y-103142492D01*
X270449382Y-103001857D01*
X270315073Y-102889158D01*
X270223472Y-102843154D01*
X271090972Y-101975653D01*
X271090971Y-101975652D01*
X270957073Y-101875417D01*
X270957066Y-101875412D01*
X270712262Y-101741740D01*
X270450902Y-101644258D01*
X270178358Y-101584970D01*
X270178351Y-101584969D01*
X269900129Y-101565070D01*
X269900127Y-101565070D01*
X269621904Y-101584969D01*
X269621897Y-101584970D01*
X269349353Y-101644258D01*
X269087993Y-101741740D01*
X268843183Y-101875417D01*
X268709282Y-101975652D01*
X269574171Y-102840541D01*
X269561231Y-102845252D01*
X269414747Y-102941596D01*
X269294430Y-103069125D01*
X269221671Y-103195147D01*
X268355729Y-102329205D01*
X268255494Y-102463106D01*
X268121817Y-102707916D01*
X268024335Y-102969276D01*
X267965047Y-103241820D01*
X267965046Y-103241827D01*
X267945147Y-103520049D01*
X267945147Y-103520052D01*
X267081000Y-103520052D01*
X267081000Y-101368400D01*
X267100685Y-101301361D01*
X267153489Y-101255606D01*
X267205000Y-101244400D01*
X269557583Y-101244400D01*
X269583940Y-101247233D01*
X269621834Y-101255477D01*
X269876900Y-101273719D01*
X269900127Y-101275381D01*
X269900128Y-101275381D01*
X269900129Y-101275381D01*
X269921566Y-101273847D01*
X270178422Y-101255477D01*
X270216315Y-101247233D01*
X270242673Y-101244400D01*
X271602200Y-101244400D01*
X271602200Y-100304344D01*
X271617367Y-100244918D01*
X271678897Y-100132236D01*
X271776399Y-99870822D01*
X271835706Y-99598193D01*
X271855610Y-99319899D01*
X271835706Y-99041605D01*
X271776399Y-98768976D01*
X271678897Y-98507562D01*
X271678894Y-98507556D01*
X271617368Y-98394879D01*
X271602200Y-98335452D01*
X271602200Y-56388000D01*
X271602200Y-51562000D01*
X277726600Y-51562000D01*
X277793639Y-51581685D01*
G37*
G04 #@! TD.AperFunction*
G04 #@! TA.AperFunction,Conductor*
G36*
X264332161Y-122346085D02*
G01*
X264377916Y-122398889D01*
X264387860Y-122468047D01*
X264358835Y-122531603D01*
X264300057Y-122569377D01*
X264273968Y-122574084D01*
X264121776Y-122584969D01*
X264121769Y-122584970D01*
X263849225Y-122644258D01*
X263587865Y-122741740D01*
X263343055Y-122875417D01*
X263209154Y-122975652D01*
X264074043Y-123840541D01*
X264061103Y-123845252D01*
X263914619Y-123941596D01*
X263794302Y-124069125D01*
X263721543Y-124195146D01*
X262855601Y-123329205D01*
X262755366Y-123463106D01*
X262621689Y-123707916D01*
X262524207Y-123969276D01*
X262464919Y-124241820D01*
X262464918Y-124241827D01*
X262445019Y-124520049D01*
X262445019Y-124520052D01*
X262464918Y-124798274D01*
X262464919Y-124798281D01*
X262524207Y-125070825D01*
X262621689Y-125332185D01*
X262755361Y-125576989D01*
X262755366Y-125576996D01*
X262855601Y-125710894D01*
X262855602Y-125710895D01*
X263722794Y-124843703D01*
X263746048Y-124897610D01*
X263850746Y-125038245D01*
X263985055Y-125150944D01*
X264076655Y-125196947D01*
X263209154Y-126064447D01*
X263209155Y-126064448D01*
X263343054Y-126164684D01*
X263343061Y-126164689D01*
X263587865Y-126298361D01*
X263849225Y-126395843D01*
X264121769Y-126455131D01*
X264121776Y-126455132D01*
X264399999Y-126475032D01*
X264400001Y-126475032D01*
X264678223Y-126455132D01*
X264678230Y-126455131D01*
X264950774Y-126395843D01*
X265212134Y-126298361D01*
X265456938Y-126164689D01*
X265456938Y-126164688D01*
X265590844Y-126064447D01*
X264725956Y-125199560D01*
X264738897Y-125194850D01*
X264885381Y-125098506D01*
X265005698Y-124970977D01*
X265078456Y-124844955D01*
X265944396Y-125710895D01*
X266044637Y-125576989D01*
X266044641Y-125576983D01*
X266162368Y-125361382D01*
X266211773Y-125311976D01*
X266280046Y-125297124D01*
X266345510Y-125321541D01*
X266387382Y-125377474D01*
X266395200Y-125420808D01*
X266395200Y-126774400D01*
X266375515Y-126841439D01*
X266322711Y-126887194D01*
X266271200Y-126898400D01*
X265120008Y-126898400D01*
X265076675Y-126890582D01*
X264950923Y-126843679D01*
X264950919Y-126843678D01*
X264950916Y-126843677D01*
X264678299Y-126784372D01*
X264400001Y-126764468D01*
X264399999Y-126764468D01*
X264121700Y-126784372D01*
X263849083Y-126843677D01*
X263849078Y-126843678D01*
X263849077Y-126843679D01*
X263723325Y-126890582D01*
X263679992Y-126898400D01*
X262559800Y-126898400D01*
X262559800Y-128049943D01*
X262551982Y-128093276D01*
X262523729Y-128169025D01*
X262523728Y-128169028D01*
X262464422Y-128441650D01*
X262444518Y-128719948D01*
X262444518Y-128719951D01*
X262464422Y-128998249D01*
X262523727Y-129270866D01*
X262523729Y-129270873D01*
X262551982Y-129346622D01*
X262559800Y-129389955D01*
X262559800Y-130530600D01*
X263650768Y-130530600D01*
X263694100Y-130538417D01*
X263849077Y-130596221D01*
X263985391Y-130625874D01*
X264121700Y-130655527D01*
X264121702Y-130655527D01*
X264121706Y-130655528D01*
X264369014Y-130673215D01*
X264399999Y-130675432D01*
X264400000Y-130675432D01*
X264400001Y-130675432D01*
X264427881Y-130673437D01*
X264678294Y-130655528D01*
X264950923Y-130596221D01*
X265105899Y-130538417D01*
X265149232Y-130530600D01*
X266271200Y-130530600D01*
X266338239Y-130550285D01*
X266383994Y-130603089D01*
X266395200Y-130654600D01*
X266395200Y-132019090D01*
X266375515Y-132086129D01*
X266322711Y-132131884D01*
X266253553Y-132141828D01*
X266189997Y-132112803D01*
X266162368Y-132078517D01*
X266044638Y-131862910D01*
X266044633Y-131862902D01*
X265944397Y-131729003D01*
X265944396Y-131729002D01*
X265077204Y-132596194D01*
X265053952Y-132542289D01*
X264949254Y-132401654D01*
X264814945Y-132288955D01*
X264723344Y-132242951D01*
X265590844Y-131375450D01*
X265590843Y-131375449D01*
X265456945Y-131275214D01*
X265456938Y-131275209D01*
X265212134Y-131141537D01*
X264950774Y-131044055D01*
X264678230Y-130984767D01*
X264678223Y-130984766D01*
X264400001Y-130964867D01*
X264399999Y-130964867D01*
X264121776Y-130984766D01*
X264121769Y-130984767D01*
X263849225Y-131044055D01*
X263587865Y-131141537D01*
X263343055Y-131275214D01*
X263209154Y-131375449D01*
X264074043Y-132240338D01*
X264061103Y-132245049D01*
X263914619Y-132341393D01*
X263794302Y-132468922D01*
X263721543Y-132594943D01*
X262855601Y-131729002D01*
X262755366Y-131862903D01*
X262621689Y-132107713D01*
X262524207Y-132369073D01*
X262464919Y-132641617D01*
X262464918Y-132641624D01*
X262445019Y-132919846D01*
X262445019Y-132919849D01*
X262464918Y-133198071D01*
X262464919Y-133198078D01*
X262524207Y-133470622D01*
X262621689Y-133731982D01*
X262755361Y-133976786D01*
X262755366Y-133976793D01*
X262855601Y-134110691D01*
X262855602Y-134110692D01*
X263722794Y-133243500D01*
X263746048Y-133297407D01*
X263850746Y-133438042D01*
X263985055Y-133550741D01*
X264076655Y-133596744D01*
X263209154Y-134464244D01*
X263209155Y-134464245D01*
X263343054Y-134564481D01*
X263343061Y-134564486D01*
X263587865Y-134698158D01*
X263849225Y-134795640D01*
X264121769Y-134854928D01*
X264121776Y-134854929D01*
X264399999Y-134874829D01*
X264400001Y-134874829D01*
X264678223Y-134854929D01*
X264678230Y-134854928D01*
X264950774Y-134795640D01*
X265212134Y-134698158D01*
X265456938Y-134564486D01*
X265456938Y-134564485D01*
X265590844Y-134464244D01*
X264725956Y-133599357D01*
X264738897Y-133594647D01*
X264885381Y-133498303D01*
X265005698Y-133370774D01*
X265078456Y-133244752D01*
X265944396Y-134110692D01*
X266044637Y-133976786D01*
X266044641Y-133976780D01*
X266162368Y-133761179D01*
X266211773Y-133711773D01*
X266280046Y-133696921D01*
X266345510Y-133721338D01*
X266387382Y-133777271D01*
X266395200Y-133820605D01*
X266395200Y-135004000D01*
X266375515Y-135071039D01*
X266322711Y-135116794D01*
X266271200Y-135128000D01*
X260931200Y-135128000D01*
X260864161Y-135108315D01*
X260818406Y-135055511D01*
X260807200Y-135004000D01*
X260807200Y-122450400D01*
X260826885Y-122383361D01*
X260879689Y-122337606D01*
X260931200Y-122326400D01*
X264265122Y-122326400D01*
X264332161Y-122346085D01*
G37*
G04 #@! TD.AperFunction*
G04 #@! TA.AperFunction,Conductor*
G36*
X266338239Y-122346085D02*
G01*
X266383994Y-122398889D01*
X266395200Y-122450400D01*
X266395200Y-123619293D01*
X266375515Y-123686332D01*
X266322711Y-123732087D01*
X266253553Y-123742031D01*
X266189997Y-123713006D01*
X266162368Y-123678720D01*
X266044638Y-123463113D01*
X266044633Y-123463105D01*
X265944397Y-123329206D01*
X265944396Y-123329205D01*
X265077204Y-124196397D01*
X265053952Y-124142492D01*
X264949254Y-124001857D01*
X264814945Y-123889158D01*
X264723344Y-123843154D01*
X265590844Y-122975653D01*
X265590843Y-122975652D01*
X265456945Y-122875417D01*
X265456938Y-122875412D01*
X265212134Y-122741740D01*
X264950774Y-122644258D01*
X264678230Y-122584970D01*
X264678223Y-122584969D01*
X264526032Y-122574084D01*
X264460567Y-122549667D01*
X264418696Y-122493733D01*
X264413712Y-122424042D01*
X264447197Y-122362719D01*
X264508520Y-122329234D01*
X264534878Y-122326400D01*
X266271200Y-122326400D01*
X266338239Y-122346085D01*
G37*
G04 #@! TD.AperFunction*
G04 #@! TA.AperFunction,Conductor*
G36*
X45593000Y-145618200D02*
G01*
X35684000Y-145618200D01*
X35616961Y-145598515D01*
X35571206Y-145545711D01*
X35560000Y-145494200D01*
X35560000Y-142059137D01*
X38447933Y-142059137D01*
X38468139Y-142290096D01*
X38468141Y-142290106D01*
X38528143Y-142514039D01*
X38528147Y-142514048D01*
X38626128Y-142724170D01*
X38681019Y-142802563D01*
X39273216Y-142210366D01*
X39278668Y-142236600D01*
X39345063Y-142364737D01*
X39443568Y-142470210D01*
X39566875Y-142545195D01*
X39628287Y-142562401D01*
X39034572Y-143156116D01*
X39112966Y-143211008D01*
X39323088Y-143308989D01*
X39323097Y-143308993D01*
X39547030Y-143368995D01*
X39547040Y-143368997D01*
X39777999Y-143389204D01*
X39778001Y-143389204D01*
X40008959Y-143368997D01*
X40008969Y-143368995D01*
X40232902Y-143308993D01*
X40232916Y-143308988D01*
X40443029Y-143211011D01*
X40443031Y-143211010D01*
X40521426Y-143156116D01*
X39930561Y-142565250D01*
X40053343Y-142511919D01*
X40165292Y-142420842D01*
X40248517Y-142302939D01*
X40281775Y-142209359D01*
X40874979Y-142802562D01*
X40929873Y-142724168D01*
X40929874Y-142724166D01*
X41027851Y-142514053D01*
X41027856Y-142514039D01*
X41087858Y-142290106D01*
X41087860Y-142290096D01*
X41108067Y-142059137D01*
X41108067Y-142059136D01*
X41087860Y-141828177D01*
X41087858Y-141828167D01*
X41027856Y-141604234D01*
X41027852Y-141604225D01*
X40929871Y-141394104D01*
X40874978Y-141315709D01*
X40282783Y-141907905D01*
X40277332Y-141881674D01*
X40210937Y-141753537D01*
X40112432Y-141648064D01*
X39989125Y-141573079D01*
X39927711Y-141555871D01*
X40521426Y-140962156D01*
X40443033Y-140907265D01*
X40232911Y-140809284D01*
X40232902Y-140809280D01*
X40008969Y-140749278D01*
X40008959Y-140749276D01*
X39778001Y-140729070D01*
X39777999Y-140729070D01*
X39547040Y-140749276D01*
X39547030Y-140749278D01*
X39323097Y-140809280D01*
X39323088Y-140809284D01*
X39112963Y-140907267D01*
X39034573Y-140962155D01*
X39034572Y-140962156D01*
X39625439Y-141553022D01*
X39502657Y-141606355D01*
X39390708Y-141697432D01*
X39307483Y-141815335D01*
X39274224Y-141908914D01*
X38681019Y-141315709D01*
X38681018Y-141315710D01*
X38626130Y-141394100D01*
X38528147Y-141604225D01*
X38528143Y-141604234D01*
X38468141Y-141828167D01*
X38468139Y-141828177D01*
X38447933Y-142059136D01*
X38447933Y-142059137D01*
X35560000Y-142059137D01*
X35560000Y-139824000D01*
X35579685Y-139756961D01*
X35632489Y-139711206D01*
X35684000Y-139700000D01*
X45593000Y-139700000D01*
X45593000Y-145618200D01*
G37*
G04 #@! TD.AperFunction*
G04 #@! TA.AperFunction,Conductor*
G36*
X152568077Y-60217685D02*
G01*
X152588719Y-60234319D01*
X158140400Y-65786000D01*
X165353438Y-65786000D01*
X165420477Y-65805685D01*
X165441119Y-65822319D01*
X167259000Y-67640200D01*
X187223400Y-67640200D01*
X187223400Y-64309800D01*
X187243085Y-64242761D01*
X187295889Y-64197006D01*
X187347400Y-64185800D01*
X192712800Y-64185800D01*
X192779839Y-64205485D01*
X192825594Y-64258289D01*
X192836800Y-64309800D01*
X192836800Y-68903638D01*
X192830800Y-68924071D01*
X192830800Y-68961000D01*
X166548362Y-68961000D01*
X166481323Y-68941315D01*
X166460681Y-68924681D01*
X164287200Y-66751200D01*
X157582162Y-66751200D01*
X157515123Y-66731515D01*
X157494481Y-66714881D01*
X154711400Y-63931800D01*
X148921314Y-63931800D01*
X148862861Y-63917158D01*
X148720732Y-63841188D01*
X148720729Y-63841187D01*
X148720727Y-63841186D01*
X148532132Y-63783976D01*
X148532129Y-63783975D01*
X148336000Y-63764659D01*
X148139870Y-63783975D01*
X147951266Y-63841188D01*
X147777467Y-63934086D01*
X147777460Y-63934090D01*
X147625116Y-64059116D01*
X147541778Y-64160665D01*
X147484032Y-64199999D01*
X147445925Y-64206000D01*
X143384075Y-64206000D01*
X143317036Y-64186315D01*
X143288222Y-64160665D01*
X143204883Y-64059116D01*
X143052539Y-63934090D01*
X143052532Y-63934086D01*
X142878733Y-63841188D01*
X142878727Y-63841186D01*
X142690132Y-63783976D01*
X142690129Y-63783975D01*
X142682042Y-63783179D01*
X142617256Y-63757016D01*
X142576899Y-63699980D01*
X142570200Y-63659776D01*
X142570200Y-60322000D01*
X142589885Y-60254961D01*
X142642689Y-60209206D01*
X142694200Y-60198000D01*
X152501038Y-60198000D01*
X152568077Y-60217685D01*
G37*
G04 #@! TD.AperFunction*
G04 #@! TA.AperFunction,Conductor*
G36*
X253943039Y-64027685D02*
G01*
X253988794Y-64080489D01*
X254000000Y-64132000D01*
X254000000Y-67871800D01*
X253980315Y-67938839D01*
X253927511Y-67984594D01*
X253876000Y-67995800D01*
X248666000Y-67995800D01*
X248666000Y-137036000D01*
X248646315Y-137103039D01*
X248593511Y-137148794D01*
X248542000Y-137160000D01*
X240411000Y-137160000D01*
X240411000Y-206606600D01*
X240391315Y-206673639D01*
X240338511Y-206719394D01*
X240287000Y-206730600D01*
X234616800Y-206730600D01*
X234549761Y-206710915D01*
X234504006Y-206658111D01*
X234492800Y-206606600D01*
X234492800Y-133626400D01*
X234512485Y-133559361D01*
X234565289Y-133513606D01*
X234616800Y-133502400D01*
X245795800Y-133502400D01*
X245795800Y-64132000D01*
X245815485Y-64064961D01*
X245868289Y-64019206D01*
X245919800Y-64008000D01*
X253876000Y-64008000D01*
X253943039Y-64027685D01*
G37*
G04 #@! TD.AperFunction*
G04 #@! TA.AperFunction,Conductor*
G36*
X91263990Y-65671185D02*
G01*
X91284632Y-65687819D01*
X93791281Y-68194468D01*
X93824766Y-68255791D01*
X93827600Y-68282149D01*
X93827600Y-77193600D01*
X93807915Y-77260639D01*
X93755111Y-77306394D01*
X93703600Y-77317600D01*
X83613800Y-77317600D01*
X83546761Y-77297915D01*
X83501006Y-77245111D01*
X83489800Y-77193600D01*
X83489800Y-74241200D01*
X83509485Y-74174161D01*
X83562289Y-74128406D01*
X83613800Y-74117200D01*
X90424000Y-74117200D01*
X90424000Y-65775500D01*
X90443685Y-65708461D01*
X90496489Y-65662706D01*
X90548000Y-65651500D01*
X91196951Y-65651500D01*
X91263990Y-65671185D01*
G37*
G04 #@! TD.AperFunction*
G04 #@! TA.AperFunction,Conductor*
G36*
X129093639Y-98851085D02*
G01*
X129114281Y-98867719D01*
X130011561Y-99764999D01*
X130045046Y-99826322D01*
X130047880Y-99852680D01*
X130047880Y-101323600D01*
X130028195Y-101390639D01*
X129975391Y-101436394D01*
X129923880Y-101447600D01*
X128066799Y-101447600D01*
X126452119Y-103062281D01*
X126390796Y-103095766D01*
X126364438Y-103098600D01*
X123111961Y-103098600D01*
X123044922Y-103078915D01*
X123016110Y-103053268D01*
X123011883Y-103048117D01*
X123011880Y-103048115D01*
X123011879Y-103048113D01*
X122859539Y-102923090D01*
X122859532Y-102923086D01*
X122685729Y-102830186D01*
X122617603Y-102809520D01*
X122559165Y-102771222D01*
X122530709Y-102707410D01*
X122529600Y-102690860D01*
X122529600Y-101038200D01*
X122549285Y-100971161D01*
X122602089Y-100925406D01*
X122653600Y-100914200D01*
X125653800Y-100914200D01*
X127700281Y-98867719D01*
X127761604Y-98834234D01*
X127787962Y-98831400D01*
X129026600Y-98831400D01*
X129093639Y-98851085D01*
G37*
G04 #@! TD.AperFunction*
G04 #@! TA.AperFunction,Conductor*
G36*
X234213400Y-110896400D02*
G01*
X233561732Y-110896400D01*
X233494693Y-110876715D01*
X233448938Y-110823911D01*
X233438994Y-110754753D01*
X233468019Y-110691197D01*
X233490608Y-110670825D01*
X233572182Y-110613705D01*
X233739205Y-110446682D01*
X233874700Y-110253178D01*
X233974529Y-110039092D01*
X233974532Y-110039086D01*
X234031736Y-109825600D01*
X233134786Y-109825600D01*
X233160593Y-109785444D01*
X233201100Y-109647489D01*
X233201100Y-109503711D01*
X233160593Y-109365756D01*
X233134786Y-109325600D01*
X234031736Y-109325600D01*
X234031735Y-109325599D01*
X233974532Y-109112113D01*
X233974529Y-109112107D01*
X233874700Y-108898022D01*
X233874699Y-108898020D01*
X233739213Y-108704526D01*
X233739208Y-108704520D01*
X233572182Y-108537494D01*
X233378678Y-108401999D01*
X233164592Y-108302170D01*
X233164586Y-108302167D01*
X232951100Y-108244964D01*
X232951100Y-109140098D01*
X232843415Y-109090920D01*
X232736863Y-109075600D01*
X232665337Y-109075600D01*
X232558785Y-109090920D01*
X232451100Y-109140098D01*
X232451100Y-108244964D01*
X232451099Y-108244964D01*
X232237613Y-108302167D01*
X232237607Y-108302170D01*
X232023522Y-108401999D01*
X232023520Y-108402000D01*
X231830026Y-108537486D01*
X231830020Y-108537491D01*
X231662991Y-108704520D01*
X231662990Y-108704522D01*
X231619575Y-108766525D01*
X231564998Y-108810150D01*
X231495499Y-108817342D01*
X231433145Y-108785820D01*
X231397731Y-108725590D01*
X231394000Y-108695401D01*
X231394000Y-105207362D01*
X231413685Y-105140323D01*
X231430319Y-105119681D01*
X232333800Y-104216200D01*
X232333800Y-103759000D01*
X234213400Y-103759000D01*
X234213400Y-110896400D01*
G37*
G04 #@! TD.AperFunction*
G04 #@! TA.AperFunction,Conductor*
G36*
X236036039Y-93796485D02*
G01*
X236081794Y-93849289D01*
X236093000Y-93900800D01*
X236093000Y-99009200D01*
X232333800Y-99009200D01*
X232333800Y-97078800D01*
X231481119Y-96226119D01*
X231447634Y-96164796D01*
X231444800Y-96138438D01*
X231444800Y-95885750D01*
X231464485Y-95818711D01*
X231517289Y-95772956D01*
X231586447Y-95763012D01*
X231650003Y-95792037D01*
X231656481Y-95798069D01*
X231818317Y-95959905D01*
X232011821Y-96095400D01*
X232225907Y-96195229D01*
X232225916Y-96195233D01*
X232439400Y-96252434D01*
X232439400Y-95357301D01*
X232547085Y-95406480D01*
X232653637Y-95421800D01*
X232725163Y-95421800D01*
X232831715Y-95406480D01*
X232939400Y-95357301D01*
X232939400Y-96252433D01*
X233152883Y-96195233D01*
X233152892Y-96195229D01*
X233366978Y-96095400D01*
X233560482Y-95959905D01*
X233727505Y-95792882D01*
X233863000Y-95599378D01*
X233962829Y-95385292D01*
X233962832Y-95385286D01*
X234020036Y-95171800D01*
X233123086Y-95171800D01*
X233148893Y-95131644D01*
X233189400Y-94993689D01*
X233189400Y-94849911D01*
X233148893Y-94711956D01*
X233123086Y-94671800D01*
X234020036Y-94671800D01*
X234020035Y-94671799D01*
X233962832Y-94458313D01*
X233962829Y-94458307D01*
X233863000Y-94244222D01*
X233862999Y-94244220D01*
X233727513Y-94050726D01*
X233727508Y-94050720D01*
X233665269Y-93988481D01*
X233631784Y-93927158D01*
X233636768Y-93857466D01*
X233678640Y-93801533D01*
X233744104Y-93777116D01*
X233752950Y-93776800D01*
X235969000Y-93776800D01*
X236036039Y-93796485D01*
G37*
G04 #@! TD.AperFunction*
G04 #@! TA.AperFunction,Conductor*
G36*
X198606717Y-94021602D02*
G01*
X198734051Y-94088432D01*
X198882008Y-94124900D01*
X199034392Y-94124900D01*
X199182349Y-94088432D01*
X199309682Y-94021602D01*
X199367307Y-94007400D01*
X206245000Y-94007400D01*
X206312039Y-94027085D01*
X206357794Y-94079889D01*
X206369000Y-94131400D01*
X206369000Y-95963200D01*
X210392551Y-95963200D01*
X210459590Y-95982885D01*
X210474778Y-95994385D01*
X210537119Y-96049615D01*
X210537121Y-96049616D01*
X210672051Y-96120432D01*
X210820008Y-96156900D01*
X210972392Y-96156900D01*
X211120349Y-96120432D01*
X211255279Y-96049616D01*
X211270999Y-96035689D01*
X211317622Y-95994385D01*
X211380854Y-95964663D01*
X211399849Y-95963200D01*
X224787000Y-95963200D01*
X224854039Y-95982885D01*
X224899794Y-96035689D01*
X224911000Y-96087200D01*
X224911000Y-122458400D01*
X224891315Y-122525439D01*
X224838511Y-122571194D01*
X224787000Y-122582400D01*
X223638000Y-122582400D01*
X223570961Y-122562715D01*
X223525206Y-122509911D01*
X223514000Y-122458400D01*
X223514000Y-97030000D01*
X205654800Y-97030000D01*
X205587761Y-97010315D01*
X205542006Y-96957511D01*
X205530800Y-96906000D01*
X205530800Y-94591600D01*
X202940000Y-94591600D01*
X202940000Y-95585200D01*
X202920315Y-95652239D01*
X202867511Y-95697994D01*
X202816000Y-95709200D01*
X192830800Y-95709200D01*
X191126000Y-95709200D01*
X191058961Y-95689515D01*
X191013206Y-95636711D01*
X191002000Y-95585200D01*
X191002000Y-94007400D01*
X192830800Y-94007400D01*
X198549093Y-94007400D01*
X198606717Y-94021602D01*
G37*
G04 #@! TD.AperFunction*
G04 #@! TA.AperFunction,Conductor*
G36*
X192779839Y-64205485D02*
G01*
X192825594Y-64258289D01*
X192830800Y-64282219D01*
X192830800Y-94007400D01*
X191002000Y-94007400D01*
X191002000Y-68961000D01*
X191002000Y-68632800D01*
X191002000Y-64187800D01*
X192719611Y-64187800D01*
X192779839Y-64205485D01*
G37*
G04 #@! TD.AperFunction*
G04 #@! TA.AperFunction,Conductor*
G36*
X179190839Y-46222285D02*
G01*
X179236594Y-46275089D01*
X179247800Y-46326600D01*
X179247800Y-51739800D01*
X179247800Y-52070000D01*
X178130200Y-52070000D01*
X178130200Y-47980600D01*
X175892000Y-47980600D01*
X175824961Y-47960915D01*
X175779206Y-47908111D01*
X175768000Y-47856600D01*
X175768000Y-46326600D01*
X175787685Y-46259561D01*
X175840489Y-46213806D01*
X175892000Y-46202600D01*
X179123800Y-46202600D01*
X179190839Y-46222285D01*
G37*
G04 #@! TD.AperFunction*
G04 #@! TA.AperFunction,Conductor*
G36*
X103025659Y-62676441D02*
G01*
X103120273Y-62727014D01*
X103308868Y-62784224D01*
X103505000Y-62803541D01*
X103701132Y-62784224D01*
X103889727Y-62727014D01*
X103984340Y-62676441D01*
X104042794Y-62661800D01*
X104313406Y-62661800D01*
X104371859Y-62676441D01*
X104466473Y-62727014D01*
X104655068Y-62784224D01*
X104851200Y-62803541D01*
X105047332Y-62784224D01*
X105235927Y-62727014D01*
X105330540Y-62676441D01*
X105388994Y-62661800D01*
X108750215Y-62661800D01*
X108817254Y-62681485D01*
X108837896Y-62698119D01*
X110393296Y-64253519D01*
X110426781Y-64314842D01*
X110421797Y-64384534D01*
X110379925Y-64440467D01*
X110314461Y-64464884D01*
X110305615Y-64465200D01*
X105076800Y-64465200D01*
X105009761Y-64445515D01*
X104964006Y-64392711D01*
X104952800Y-64341200D01*
X104952800Y-63576200D01*
X104179622Y-63576200D01*
X104135739Y-63576200D01*
X104068700Y-63556515D01*
X104066848Y-63555302D01*
X104063539Y-63553091D01*
X104063538Y-63553090D01*
X103987856Y-63512637D01*
X103889730Y-63460187D01*
X103701129Y-63402975D01*
X103505000Y-63383659D01*
X103308870Y-63402975D01*
X103120269Y-63460187D01*
X102946460Y-63553091D01*
X102943152Y-63555302D01*
X102941154Y-63555927D01*
X102941090Y-63555962D01*
X102941083Y-63555949D01*
X102876474Y-63576180D01*
X102874261Y-63576200D01*
X102615999Y-63576200D01*
X102220519Y-63971681D01*
X102159196Y-64005166D01*
X102132838Y-64008000D01*
X92365179Y-64008000D01*
X92298140Y-63988315D01*
X92277498Y-63971681D01*
X92256045Y-63950228D01*
X92096417Y-63790600D01*
X92091077Y-63784510D01*
X92070850Y-63758150D01*
X92070848Y-63758149D01*
X92070848Y-63758148D01*
X92006201Y-63708544D01*
X91953032Y-63667746D01*
X91872663Y-63634456D01*
X91815834Y-63610917D01*
X91742217Y-63601225D01*
X91668601Y-63591533D01*
X91668600Y-63591533D01*
X91635663Y-63595869D01*
X91627566Y-63596400D01*
X88420298Y-63596400D01*
X88353259Y-63576715D01*
X88307504Y-63523911D01*
X88297560Y-63454753D01*
X88326585Y-63391197D01*
X88361845Y-63363042D01*
X88442532Y-63319913D01*
X88442538Y-63319910D01*
X88594883Y-63194883D01*
X88719910Y-63042538D01*
X88812814Y-62868727D01*
X88832588Y-62803541D01*
X88848890Y-62749804D01*
X88887187Y-62691366D01*
X88951000Y-62662909D01*
X88967550Y-62661800D01*
X102967206Y-62661800D01*
X103025659Y-62676441D01*
G37*
G04 #@! TD.AperFunction*
G04 #@! TA.AperFunction,Conductor*
G36*
X49600039Y-139719685D02*
G01*
X49645794Y-139772489D01*
X49657000Y-139824000D01*
X49657000Y-175898000D01*
X49637315Y-175965039D01*
X49584511Y-176010794D01*
X49533000Y-176022000D01*
X45717000Y-176022000D01*
X45649961Y-176002315D01*
X45604206Y-175949511D01*
X45593000Y-175898000D01*
X45593000Y-158826200D01*
X46688091Y-158826200D01*
X46706458Y-158977474D01*
X46760495Y-159119956D01*
X46760495Y-159119957D01*
X46839008Y-159233701D01*
X46847060Y-159245366D01*
X46961121Y-159346416D01*
X47096051Y-159417232D01*
X47244008Y-159453700D01*
X47396392Y-159453700D01*
X47544349Y-159417232D01*
X47679279Y-159346416D01*
X47793340Y-159245366D01*
X47879905Y-159119956D01*
X47933941Y-158977474D01*
X47952309Y-158826200D01*
X47933941Y-158674926D01*
X47879905Y-158532444D01*
X47793340Y-158407034D01*
X47679279Y-158305984D01*
X47544349Y-158235168D01*
X47544348Y-158235167D01*
X47544347Y-158235167D01*
X47396392Y-158198700D01*
X47244008Y-158198700D01*
X47096052Y-158235167D01*
X46961122Y-158305983D01*
X46847060Y-158407033D01*
X46847058Y-158407036D01*
X46760495Y-158532442D01*
X46760495Y-158532443D01*
X46706458Y-158674925D01*
X46688091Y-158826199D01*
X46688091Y-158826200D01*
X45593000Y-158826200D01*
X45593000Y-156895800D01*
X46688091Y-156895800D01*
X46706458Y-157047074D01*
X46760495Y-157189556D01*
X46760495Y-157189557D01*
X46839008Y-157303301D01*
X46847060Y-157314966D01*
X46961121Y-157416016D01*
X47096051Y-157486832D01*
X47244008Y-157523300D01*
X47396392Y-157523300D01*
X47544349Y-157486832D01*
X47679279Y-157416016D01*
X47793340Y-157314966D01*
X47879905Y-157189556D01*
X47933941Y-157047074D01*
X47952309Y-156895800D01*
X47933941Y-156744526D01*
X47879905Y-156602044D01*
X47793340Y-156476634D01*
X47679279Y-156375584D01*
X47544349Y-156304768D01*
X47544348Y-156304767D01*
X47544347Y-156304767D01*
X47396392Y-156268300D01*
X47244008Y-156268300D01*
X47096052Y-156304767D01*
X46961122Y-156375583D01*
X46847060Y-156476633D01*
X46847058Y-156476636D01*
X46760495Y-156602042D01*
X46760495Y-156602043D01*
X46706458Y-156744525D01*
X46688091Y-156895799D01*
X46688091Y-156895800D01*
X45593000Y-156895800D01*
X45593000Y-148844346D01*
X45593000Y-148190382D01*
X45874979Y-148472361D01*
X45929873Y-148393967D01*
X45929874Y-148393965D01*
X46027851Y-148183852D01*
X46027856Y-148183838D01*
X46087858Y-147959905D01*
X46087860Y-147959895D01*
X46108067Y-147728936D01*
X46108067Y-147728935D01*
X46087860Y-147497976D01*
X46087858Y-147497966D01*
X46027856Y-147274033D01*
X46027852Y-147274024D01*
X45929871Y-147063903D01*
X45874978Y-146985508D01*
X45593000Y-147267486D01*
X45593000Y-139700000D01*
X45948600Y-139700000D01*
X49533000Y-139700000D01*
X49600039Y-139719685D01*
G37*
G04 #@! TD.AperFunction*
M02*
