%TF.GenerationSoftware,KiCad,Pcbnew,7.0.8*%
%TF.CreationDate,2024-05-07T21:48:11+03:00*%
%TF.ProjectId,Tangenta,54616e67-656e-4746-912e-6b696361645f,rev?*%
%TF.SameCoordinates,Original*%
%TF.FileFunction,Drillmap*%
%TF.FilePolarity,Positive*%
%FSLAX45Y45*%
G04 Gerber Fmt 4.5, Leading zero omitted, Abs format (unit mm)*
G04 Created by KiCad (PCBNEW 7.0.8) date 2024-05-07 21:48:11*
%MOMM*%
%LPD*%
G01*
G04 APERTURE LIST*
%ADD10C,0.100000*%
%ADD11C,0.200000*%
%ADD12C,0.064998*%
%ADD13C,0.110000*%
%ADD14C,0.115000*%
%ADD15C,0.160000*%
%ADD16C,0.165000*%
%ADD17C,0.235000*%
%ADD18C,0.324998*%
G04 APERTURE END LIST*
D10*
X27914000Y-27102000D02*
X3530000Y-27102000D01*
X3530000Y-27102000D02*
X3530000Y-2718000D01*
X27914000Y-2718000D02*
X27914000Y-27102000D01*
X3530000Y-2718000D02*
X27914000Y-2718000D01*
D11*
D12*
X4053088Y-2954104D02*
X4118087Y-3019103D01*
X4118087Y-2954104D02*
X4053088Y-3019103D01*
X4054104Y-3534089D02*
X4119103Y-3599088D01*
X4119103Y-3534089D02*
X4054104Y-3599088D01*
D10*
X27464391Y-16154196D02*
G75*
G03*
X27464391Y-16154196I-50000J0D01*
G01*
X27464391Y-16954196D02*
G75*
G03*
X27464391Y-16954196I-50000J0D01*
G01*
D13*
X6945300Y-21910360D02*
X6945300Y-22020360D01*
X6890300Y-21965360D02*
X7000300Y-21965360D01*
X10006600Y-6101200D02*
X10006600Y-6211200D01*
X9951600Y-6156200D02*
X10061600Y-6156200D01*
X20017840Y-8085700D02*
X20017840Y-8195700D01*
X19962840Y-8140700D02*
X20072840Y-8140700D01*
X23395940Y-12914340D02*
X23395940Y-13024340D01*
X23340940Y-12969340D02*
X23450940Y-12969340D01*
D14*
X11977959Y-11096059D02*
X11977959Y-11014741D01*
X11896641Y-11014741D01*
X11896641Y-11096059D01*
X11977959Y-11096059D01*
D15*
X6945300Y-20045360D02*
X7025300Y-19965360D01*
X6945300Y-19885360D01*
X6865300Y-19965360D01*
X6945300Y-20045360D01*
X7063753Y-13661430D02*
X7143753Y-13581430D01*
X7063753Y-13501430D01*
X6983753Y-13581430D01*
X7063753Y-13661430D01*
X7063753Y-14621425D02*
X7143753Y-14541425D01*
X7063753Y-14461425D01*
X6983753Y-14541425D01*
X7063753Y-14621425D01*
X10006600Y-4236200D02*
X10086600Y-4156200D01*
X10006600Y-4076200D01*
X9926600Y-4156200D01*
X10006600Y-4236200D01*
D16*
X18734800Y-10972900D02*
X18899800Y-11137900D01*
X18899800Y-10972900D02*
X18734800Y-11137900D01*
X18899800Y-11055400D02*
G75*
G03*
X18899800Y-11055400I-82500J0D01*
G01*
D17*
X9122500Y-18816900D02*
X9357500Y-19051900D01*
X9357500Y-18816900D02*
X9122500Y-19051900D01*
X9240000Y-18816900D02*
X9240000Y-19051900D01*
X9122500Y-18934400D02*
X9357500Y-18934400D01*
X9122500Y-22880900D02*
X9357500Y-23115900D01*
X9357500Y-22880900D02*
X9122500Y-23115900D01*
X9240000Y-22880900D02*
X9240000Y-23115900D01*
X9122500Y-22998400D02*
X9357500Y-22998400D01*
X16437500Y-18816900D02*
X16672500Y-19051900D01*
X16672500Y-18816900D02*
X16437500Y-19051900D01*
X16555000Y-18816900D02*
X16555000Y-19051900D01*
X16437500Y-18934400D02*
X16672500Y-18934400D01*
X16437500Y-22880900D02*
X16672500Y-23115900D01*
X16672500Y-22880900D02*
X16437500Y-23115900D01*
X16555000Y-22880900D02*
X16555000Y-23115900D01*
X16437500Y-22998400D02*
X16672500Y-22998400D01*
D18*
X3812000Y-15057506D02*
X4136999Y-15382505D01*
X4136999Y-15057506D02*
X3812000Y-15382505D01*
X4089405Y-15334911D02*
X4089405Y-15105100D01*
X3859594Y-15105100D01*
X3859594Y-15334911D01*
X4089405Y-15334911D01*
X3812000Y-16317501D02*
X4136999Y-16642500D01*
X4136999Y-16317501D02*
X3812000Y-16642500D01*
X4089405Y-16594906D02*
X4089405Y-16365095D01*
X3859594Y-16365095D01*
X3859594Y-16594906D01*
X4089405Y-16594906D01*
X4390893Y-7798491D02*
X4715892Y-8123489D01*
X4715892Y-7798491D02*
X4390893Y-8123489D01*
X4668298Y-8075895D02*
X4668298Y-7846084D01*
X4438487Y-7846084D01*
X4438487Y-8075895D01*
X4668298Y-8075895D01*
X4390893Y-8941493D02*
X4715892Y-9266491D01*
X4715892Y-8941493D02*
X4390893Y-9266491D01*
X4668298Y-9218898D02*
X4668298Y-8989087D01*
X4438487Y-8989087D01*
X4438487Y-9218898D01*
X4668298Y-9218898D01*
X4390893Y-9678091D02*
X4715892Y-10003089D01*
X4715892Y-9678091D02*
X4390893Y-10003089D01*
X4668298Y-9955495D02*
X4668298Y-9725684D01*
X4438487Y-9725684D01*
X4438487Y-9955495D01*
X4668298Y-9955495D01*
X4390893Y-10821093D02*
X4715892Y-11146091D01*
X4715892Y-10821093D02*
X4390893Y-11146091D01*
X4668298Y-11098498D02*
X4668298Y-10868687D01*
X4438487Y-10868687D01*
X4438487Y-11098498D01*
X4668298Y-11098498D01*
X4390893Y-11557691D02*
X4715892Y-11882689D01*
X4715892Y-11557691D02*
X4390893Y-11882689D01*
X4668298Y-11835095D02*
X4668298Y-11605284D01*
X4438487Y-11605284D01*
X4438487Y-11835095D01*
X4668298Y-11835095D01*
X4390893Y-12700693D02*
X4715892Y-13025691D01*
X4715892Y-12700693D02*
X4390893Y-13025691D01*
X4668298Y-12978098D02*
X4668298Y-12748287D01*
X4438487Y-12748287D01*
X4438487Y-12978098D01*
X4668298Y-12978098D01*
D11*
X3785777Y-27418484D02*
X3785777Y-27218484D01*
X3785777Y-27218484D02*
X3833396Y-27218484D01*
X3833396Y-27218484D02*
X3861967Y-27228008D01*
X3861967Y-27228008D02*
X3881015Y-27247055D01*
X3881015Y-27247055D02*
X3890539Y-27266103D01*
X3890539Y-27266103D02*
X3900062Y-27304198D01*
X3900062Y-27304198D02*
X3900062Y-27332769D01*
X3900062Y-27332769D02*
X3890539Y-27370865D01*
X3890539Y-27370865D02*
X3881015Y-27389912D01*
X3881015Y-27389912D02*
X3861967Y-27408960D01*
X3861967Y-27408960D02*
X3833396Y-27418484D01*
X3833396Y-27418484D02*
X3785777Y-27418484D01*
X3985777Y-27418484D02*
X3985777Y-27285150D01*
X3985777Y-27323246D02*
X3995301Y-27304198D01*
X3995301Y-27304198D02*
X4004824Y-27294674D01*
X4004824Y-27294674D02*
X4023872Y-27285150D01*
X4023872Y-27285150D02*
X4042920Y-27285150D01*
X4109586Y-27418484D02*
X4109586Y-27285150D01*
X4109586Y-27218484D02*
X4100062Y-27228008D01*
X4100062Y-27228008D02*
X4109586Y-27237531D01*
X4109586Y-27237531D02*
X4119110Y-27228008D01*
X4119110Y-27228008D02*
X4109586Y-27218484D01*
X4109586Y-27218484D02*
X4109586Y-27237531D01*
X4233396Y-27418484D02*
X4214348Y-27408960D01*
X4214348Y-27408960D02*
X4204824Y-27389912D01*
X4204824Y-27389912D02*
X4204824Y-27218484D01*
X4338158Y-27418484D02*
X4319110Y-27408960D01*
X4319110Y-27408960D02*
X4309586Y-27389912D01*
X4309586Y-27389912D02*
X4309586Y-27218484D01*
X4566729Y-27418484D02*
X4566729Y-27218484D01*
X4566729Y-27218484D02*
X4633396Y-27361341D01*
X4633396Y-27361341D02*
X4700063Y-27218484D01*
X4700063Y-27218484D02*
X4700063Y-27418484D01*
X4881015Y-27418484D02*
X4881015Y-27313722D01*
X4881015Y-27313722D02*
X4871491Y-27294674D01*
X4871491Y-27294674D02*
X4852444Y-27285150D01*
X4852444Y-27285150D02*
X4814348Y-27285150D01*
X4814348Y-27285150D02*
X4795301Y-27294674D01*
X4881015Y-27408960D02*
X4861967Y-27418484D01*
X4861967Y-27418484D02*
X4814348Y-27418484D01*
X4814348Y-27418484D02*
X4795301Y-27408960D01*
X4795301Y-27408960D02*
X4785777Y-27389912D01*
X4785777Y-27389912D02*
X4785777Y-27370865D01*
X4785777Y-27370865D02*
X4795301Y-27351817D01*
X4795301Y-27351817D02*
X4814348Y-27342293D01*
X4814348Y-27342293D02*
X4861967Y-27342293D01*
X4861967Y-27342293D02*
X4881015Y-27332769D01*
X4976253Y-27285150D02*
X4976253Y-27485150D01*
X4976253Y-27294674D02*
X4995301Y-27285150D01*
X4995301Y-27285150D02*
X5033396Y-27285150D01*
X5033396Y-27285150D02*
X5052444Y-27294674D01*
X5052444Y-27294674D02*
X5061967Y-27304198D01*
X5061967Y-27304198D02*
X5071491Y-27323246D01*
X5071491Y-27323246D02*
X5071491Y-27380388D01*
X5071491Y-27380388D02*
X5061967Y-27399436D01*
X5061967Y-27399436D02*
X5052444Y-27408960D01*
X5052444Y-27408960D02*
X5033396Y-27418484D01*
X5033396Y-27418484D02*
X4995301Y-27418484D01*
X4995301Y-27418484D02*
X4976253Y-27408960D01*
X5157205Y-27399436D02*
X5166729Y-27408960D01*
X5166729Y-27408960D02*
X5157205Y-27418484D01*
X5157205Y-27418484D02*
X5147682Y-27408960D01*
X5147682Y-27408960D02*
X5157205Y-27399436D01*
X5157205Y-27399436D02*
X5157205Y-27418484D01*
X5157205Y-27294674D02*
X5166729Y-27304198D01*
X5166729Y-27304198D02*
X5157205Y-27313722D01*
X5157205Y-27313722D02*
X5147682Y-27304198D01*
X5147682Y-27304198D02*
X5157205Y-27294674D01*
X5157205Y-27294674D02*
X5157205Y-27313722D01*
D12*
X3460001Y-27714501D02*
X3525000Y-27779499D01*
X3525000Y-27714501D02*
X3460001Y-27779499D01*
D11*
X3823872Y-27638484D02*
X3842920Y-27638484D01*
X3842920Y-27638484D02*
X3861967Y-27648008D01*
X3861967Y-27648008D02*
X3871491Y-27657531D01*
X3871491Y-27657531D02*
X3881015Y-27676579D01*
X3881015Y-27676579D02*
X3890539Y-27714674D01*
X3890539Y-27714674D02*
X3890539Y-27762293D01*
X3890539Y-27762293D02*
X3881015Y-27800388D01*
X3881015Y-27800388D02*
X3871491Y-27819436D01*
X3871491Y-27819436D02*
X3861967Y-27828960D01*
X3861967Y-27828960D02*
X3842920Y-27838484D01*
X3842920Y-27838484D02*
X3823872Y-27838484D01*
X3823872Y-27838484D02*
X3804824Y-27828960D01*
X3804824Y-27828960D02*
X3795301Y-27819436D01*
X3795301Y-27819436D02*
X3785777Y-27800388D01*
X3785777Y-27800388D02*
X3776253Y-27762293D01*
X3776253Y-27762293D02*
X3776253Y-27714674D01*
X3776253Y-27714674D02*
X3785777Y-27676579D01*
X3785777Y-27676579D02*
X3795301Y-27657531D01*
X3795301Y-27657531D02*
X3804824Y-27648008D01*
X3804824Y-27648008D02*
X3823872Y-27638484D01*
X3976253Y-27819436D02*
X3985777Y-27828960D01*
X3985777Y-27828960D02*
X3976253Y-27838484D01*
X3976253Y-27838484D02*
X3966729Y-27828960D01*
X3966729Y-27828960D02*
X3976253Y-27819436D01*
X3976253Y-27819436D02*
X3976253Y-27838484D01*
X4157205Y-27638484D02*
X4119110Y-27638484D01*
X4119110Y-27638484D02*
X4100062Y-27648008D01*
X4100062Y-27648008D02*
X4090539Y-27657531D01*
X4090539Y-27657531D02*
X4071491Y-27686103D01*
X4071491Y-27686103D02*
X4061967Y-27724198D01*
X4061967Y-27724198D02*
X4061967Y-27800388D01*
X4061967Y-27800388D02*
X4071491Y-27819436D01*
X4071491Y-27819436D02*
X4081015Y-27828960D01*
X4081015Y-27828960D02*
X4100062Y-27838484D01*
X4100062Y-27838484D02*
X4138158Y-27838484D01*
X4138158Y-27838484D02*
X4157205Y-27828960D01*
X4157205Y-27828960D02*
X4166729Y-27819436D01*
X4166729Y-27819436D02*
X4176253Y-27800388D01*
X4176253Y-27800388D02*
X4176253Y-27752769D01*
X4176253Y-27752769D02*
X4166729Y-27733722D01*
X4166729Y-27733722D02*
X4157205Y-27724198D01*
X4157205Y-27724198D02*
X4138158Y-27714674D01*
X4138158Y-27714674D02*
X4100062Y-27714674D01*
X4100062Y-27714674D02*
X4081015Y-27724198D01*
X4081015Y-27724198D02*
X4071491Y-27733722D01*
X4071491Y-27733722D02*
X4061967Y-27752769D01*
X4357205Y-27638484D02*
X4261967Y-27638484D01*
X4261967Y-27638484D02*
X4252444Y-27733722D01*
X4252444Y-27733722D02*
X4261967Y-27724198D01*
X4261967Y-27724198D02*
X4281015Y-27714674D01*
X4281015Y-27714674D02*
X4328634Y-27714674D01*
X4328634Y-27714674D02*
X4347682Y-27724198D01*
X4347682Y-27724198D02*
X4357205Y-27733722D01*
X4357205Y-27733722D02*
X4366729Y-27752769D01*
X4366729Y-27752769D02*
X4366729Y-27800388D01*
X4366729Y-27800388D02*
X4357205Y-27819436D01*
X4357205Y-27819436D02*
X4347682Y-27828960D01*
X4347682Y-27828960D02*
X4328634Y-27838484D01*
X4328634Y-27838484D02*
X4281015Y-27838484D01*
X4281015Y-27838484D02*
X4261967Y-27828960D01*
X4261967Y-27828960D02*
X4252444Y-27819436D01*
X4490539Y-27638484D02*
X4509586Y-27638484D01*
X4509586Y-27638484D02*
X4528634Y-27648008D01*
X4528634Y-27648008D02*
X4538158Y-27657531D01*
X4538158Y-27657531D02*
X4547682Y-27676579D01*
X4547682Y-27676579D02*
X4557205Y-27714674D01*
X4557205Y-27714674D02*
X4557205Y-27762293D01*
X4557205Y-27762293D02*
X4547682Y-27800388D01*
X4547682Y-27800388D02*
X4538158Y-27819436D01*
X4538158Y-27819436D02*
X4528634Y-27828960D01*
X4528634Y-27828960D02*
X4509586Y-27838484D01*
X4509586Y-27838484D02*
X4490539Y-27838484D01*
X4490539Y-27838484D02*
X4471491Y-27828960D01*
X4471491Y-27828960D02*
X4461967Y-27819436D01*
X4461967Y-27819436D02*
X4452444Y-27800388D01*
X4452444Y-27800388D02*
X4442920Y-27762293D01*
X4442920Y-27762293D02*
X4442920Y-27714674D01*
X4442920Y-27714674D02*
X4452444Y-27676579D01*
X4452444Y-27676579D02*
X4461967Y-27657531D01*
X4461967Y-27657531D02*
X4471491Y-27648008D01*
X4471491Y-27648008D02*
X4490539Y-27638484D01*
X4642920Y-27838484D02*
X4642920Y-27705150D01*
X4642920Y-27724198D02*
X4652444Y-27714674D01*
X4652444Y-27714674D02*
X4671491Y-27705150D01*
X4671491Y-27705150D02*
X4700063Y-27705150D01*
X4700063Y-27705150D02*
X4719110Y-27714674D01*
X4719110Y-27714674D02*
X4728634Y-27733722D01*
X4728634Y-27733722D02*
X4728634Y-27838484D01*
X4728634Y-27733722D02*
X4738158Y-27714674D01*
X4738158Y-27714674D02*
X4757205Y-27705150D01*
X4757205Y-27705150D02*
X4785777Y-27705150D01*
X4785777Y-27705150D02*
X4804825Y-27714674D01*
X4804825Y-27714674D02*
X4814348Y-27733722D01*
X4814348Y-27733722D02*
X4814348Y-27838484D01*
X4909586Y-27838484D02*
X4909586Y-27705150D01*
X4909586Y-27724198D02*
X4919110Y-27714674D01*
X4919110Y-27714674D02*
X4938158Y-27705150D01*
X4938158Y-27705150D02*
X4966729Y-27705150D01*
X4966729Y-27705150D02*
X4985777Y-27714674D01*
X4985777Y-27714674D02*
X4995301Y-27733722D01*
X4995301Y-27733722D02*
X4995301Y-27838484D01*
X4995301Y-27733722D02*
X5004825Y-27714674D01*
X5004825Y-27714674D02*
X5023872Y-27705150D01*
X5023872Y-27705150D02*
X5052444Y-27705150D01*
X5052444Y-27705150D02*
X5071491Y-27714674D01*
X5071491Y-27714674D02*
X5081015Y-27733722D01*
X5081015Y-27733722D02*
X5081015Y-27838484D01*
X5471491Y-27628960D02*
X5300063Y-27886103D01*
X5728634Y-27638484D02*
X5747682Y-27638484D01*
X5747682Y-27638484D02*
X5766729Y-27648008D01*
X5766729Y-27648008D02*
X5776253Y-27657531D01*
X5776253Y-27657531D02*
X5785777Y-27676579D01*
X5785777Y-27676579D02*
X5795301Y-27714674D01*
X5795301Y-27714674D02*
X5795301Y-27762293D01*
X5795301Y-27762293D02*
X5785777Y-27800388D01*
X5785777Y-27800388D02*
X5776253Y-27819436D01*
X5776253Y-27819436D02*
X5766729Y-27828960D01*
X5766729Y-27828960D02*
X5747682Y-27838484D01*
X5747682Y-27838484D02*
X5728634Y-27838484D01*
X5728634Y-27838484D02*
X5709586Y-27828960D01*
X5709586Y-27828960D02*
X5700063Y-27819436D01*
X5700063Y-27819436D02*
X5690539Y-27800388D01*
X5690539Y-27800388D02*
X5681015Y-27762293D01*
X5681015Y-27762293D02*
X5681015Y-27714674D01*
X5681015Y-27714674D02*
X5690539Y-27676579D01*
X5690539Y-27676579D02*
X5700063Y-27657531D01*
X5700063Y-27657531D02*
X5709586Y-27648008D01*
X5709586Y-27648008D02*
X5728634Y-27638484D01*
X5881015Y-27819436D02*
X5890539Y-27828960D01*
X5890539Y-27828960D02*
X5881015Y-27838484D01*
X5881015Y-27838484D02*
X5871491Y-27828960D01*
X5871491Y-27828960D02*
X5881015Y-27819436D01*
X5881015Y-27819436D02*
X5881015Y-27838484D01*
X6014348Y-27638484D02*
X6033396Y-27638484D01*
X6033396Y-27638484D02*
X6052444Y-27648008D01*
X6052444Y-27648008D02*
X6061967Y-27657531D01*
X6061967Y-27657531D02*
X6071491Y-27676579D01*
X6071491Y-27676579D02*
X6081015Y-27714674D01*
X6081015Y-27714674D02*
X6081015Y-27762293D01*
X6081015Y-27762293D02*
X6071491Y-27800388D01*
X6071491Y-27800388D02*
X6061967Y-27819436D01*
X6061967Y-27819436D02*
X6052444Y-27828960D01*
X6052444Y-27828960D02*
X6033396Y-27838484D01*
X6033396Y-27838484D02*
X6014348Y-27838484D01*
X6014348Y-27838484D02*
X5995301Y-27828960D01*
X5995301Y-27828960D02*
X5985777Y-27819436D01*
X5985777Y-27819436D02*
X5976253Y-27800388D01*
X5976253Y-27800388D02*
X5966729Y-27762293D01*
X5966729Y-27762293D02*
X5966729Y-27714674D01*
X5966729Y-27714674D02*
X5976253Y-27676579D01*
X5976253Y-27676579D02*
X5985777Y-27657531D01*
X5985777Y-27657531D02*
X5995301Y-27648008D01*
X5995301Y-27648008D02*
X6014348Y-27638484D01*
X6157206Y-27657531D02*
X6166729Y-27648008D01*
X6166729Y-27648008D02*
X6185777Y-27638484D01*
X6185777Y-27638484D02*
X6233396Y-27638484D01*
X6233396Y-27638484D02*
X6252444Y-27648008D01*
X6252444Y-27648008D02*
X6261967Y-27657531D01*
X6261967Y-27657531D02*
X6271491Y-27676579D01*
X6271491Y-27676579D02*
X6271491Y-27695627D01*
X6271491Y-27695627D02*
X6261967Y-27724198D01*
X6261967Y-27724198D02*
X6147682Y-27838484D01*
X6147682Y-27838484D02*
X6271491Y-27838484D01*
X6452444Y-27638484D02*
X6357206Y-27638484D01*
X6357206Y-27638484D02*
X6347682Y-27733722D01*
X6347682Y-27733722D02*
X6357206Y-27724198D01*
X6357206Y-27724198D02*
X6376253Y-27714674D01*
X6376253Y-27714674D02*
X6423872Y-27714674D01*
X6423872Y-27714674D02*
X6442920Y-27724198D01*
X6442920Y-27724198D02*
X6452444Y-27733722D01*
X6452444Y-27733722D02*
X6461967Y-27752769D01*
X6461967Y-27752769D02*
X6461967Y-27800388D01*
X6461967Y-27800388D02*
X6452444Y-27819436D01*
X6452444Y-27819436D02*
X6442920Y-27828960D01*
X6442920Y-27828960D02*
X6423872Y-27838484D01*
X6423872Y-27838484D02*
X6376253Y-27838484D01*
X6376253Y-27838484D02*
X6357206Y-27828960D01*
X6357206Y-27828960D02*
X6347682Y-27819436D01*
X6633396Y-27638484D02*
X6595301Y-27638484D01*
X6595301Y-27638484D02*
X6576253Y-27648008D01*
X6576253Y-27648008D02*
X6566729Y-27657531D01*
X6566729Y-27657531D02*
X6547682Y-27686103D01*
X6547682Y-27686103D02*
X6538158Y-27724198D01*
X6538158Y-27724198D02*
X6538158Y-27800388D01*
X6538158Y-27800388D02*
X6547682Y-27819436D01*
X6547682Y-27819436D02*
X6557206Y-27828960D01*
X6557206Y-27828960D02*
X6576253Y-27838484D01*
X6576253Y-27838484D02*
X6614348Y-27838484D01*
X6614348Y-27838484D02*
X6633396Y-27828960D01*
X6633396Y-27828960D02*
X6642920Y-27819436D01*
X6642920Y-27819436D02*
X6652444Y-27800388D01*
X6652444Y-27800388D02*
X6652444Y-27752769D01*
X6652444Y-27752769D02*
X6642920Y-27733722D01*
X6642920Y-27733722D02*
X6633396Y-27724198D01*
X6633396Y-27724198D02*
X6614348Y-27714674D01*
X6614348Y-27714674D02*
X6576253Y-27714674D01*
X6576253Y-27714674D02*
X6557206Y-27724198D01*
X6557206Y-27724198D02*
X6547682Y-27733722D01*
X6547682Y-27733722D02*
X6538158Y-27752769D01*
X6728634Y-27638484D02*
X6728634Y-27676579D01*
X6804825Y-27638484D02*
X6804825Y-27676579D01*
X7100063Y-27914674D02*
X7090539Y-27905150D01*
X7090539Y-27905150D02*
X7071491Y-27876579D01*
X7071491Y-27876579D02*
X7061968Y-27857531D01*
X7061968Y-27857531D02*
X7052444Y-27828960D01*
X7052444Y-27828960D02*
X7042920Y-27781341D01*
X7042920Y-27781341D02*
X7042920Y-27743246D01*
X7042920Y-27743246D02*
X7052444Y-27695627D01*
X7052444Y-27695627D02*
X7061968Y-27667055D01*
X7061968Y-27667055D02*
X7071491Y-27648008D01*
X7071491Y-27648008D02*
X7090539Y-27619436D01*
X7090539Y-27619436D02*
X7100063Y-27609912D01*
X7166729Y-27657531D02*
X7176253Y-27648008D01*
X7176253Y-27648008D02*
X7195301Y-27638484D01*
X7195301Y-27638484D02*
X7242920Y-27638484D01*
X7242920Y-27638484D02*
X7261968Y-27648008D01*
X7261968Y-27648008D02*
X7271491Y-27657531D01*
X7271491Y-27657531D02*
X7281015Y-27676579D01*
X7281015Y-27676579D02*
X7281015Y-27695627D01*
X7281015Y-27695627D02*
X7271491Y-27724198D01*
X7271491Y-27724198D02*
X7157206Y-27838484D01*
X7157206Y-27838484D02*
X7281015Y-27838484D01*
X7519110Y-27838484D02*
X7519110Y-27638484D01*
X7604825Y-27838484D02*
X7604825Y-27733722D01*
X7604825Y-27733722D02*
X7595301Y-27714674D01*
X7595301Y-27714674D02*
X7576253Y-27705150D01*
X7576253Y-27705150D02*
X7547682Y-27705150D01*
X7547682Y-27705150D02*
X7528634Y-27714674D01*
X7528634Y-27714674D02*
X7519110Y-27724198D01*
X7728634Y-27838484D02*
X7709587Y-27828960D01*
X7709587Y-27828960D02*
X7700063Y-27819436D01*
X7700063Y-27819436D02*
X7690539Y-27800388D01*
X7690539Y-27800388D02*
X7690539Y-27743246D01*
X7690539Y-27743246D02*
X7700063Y-27724198D01*
X7700063Y-27724198D02*
X7709587Y-27714674D01*
X7709587Y-27714674D02*
X7728634Y-27705150D01*
X7728634Y-27705150D02*
X7757206Y-27705150D01*
X7757206Y-27705150D02*
X7776253Y-27714674D01*
X7776253Y-27714674D02*
X7785777Y-27724198D01*
X7785777Y-27724198D02*
X7795301Y-27743246D01*
X7795301Y-27743246D02*
X7795301Y-27800388D01*
X7795301Y-27800388D02*
X7785777Y-27819436D01*
X7785777Y-27819436D02*
X7776253Y-27828960D01*
X7776253Y-27828960D02*
X7757206Y-27838484D01*
X7757206Y-27838484D02*
X7728634Y-27838484D01*
X7909587Y-27838484D02*
X7890539Y-27828960D01*
X7890539Y-27828960D02*
X7881015Y-27809912D01*
X7881015Y-27809912D02*
X7881015Y-27638484D01*
X8061968Y-27828960D02*
X8042920Y-27838484D01*
X8042920Y-27838484D02*
X8004825Y-27838484D01*
X8004825Y-27838484D02*
X7985777Y-27828960D01*
X7985777Y-27828960D02*
X7976253Y-27809912D01*
X7976253Y-27809912D02*
X7976253Y-27733722D01*
X7976253Y-27733722D02*
X7985777Y-27714674D01*
X7985777Y-27714674D02*
X8004825Y-27705150D01*
X8004825Y-27705150D02*
X8042920Y-27705150D01*
X8042920Y-27705150D02*
X8061968Y-27714674D01*
X8061968Y-27714674D02*
X8071491Y-27733722D01*
X8071491Y-27733722D02*
X8071491Y-27752769D01*
X8071491Y-27752769D02*
X7976253Y-27771817D01*
X8147682Y-27828960D02*
X8166730Y-27838484D01*
X8166730Y-27838484D02*
X8204825Y-27838484D01*
X8204825Y-27838484D02*
X8223872Y-27828960D01*
X8223872Y-27828960D02*
X8233396Y-27809912D01*
X8233396Y-27809912D02*
X8233396Y-27800388D01*
X8233396Y-27800388D02*
X8223872Y-27781341D01*
X8223872Y-27781341D02*
X8204825Y-27771817D01*
X8204825Y-27771817D02*
X8176253Y-27771817D01*
X8176253Y-27771817D02*
X8157206Y-27762293D01*
X8157206Y-27762293D02*
X8147682Y-27743246D01*
X8147682Y-27743246D02*
X8147682Y-27733722D01*
X8147682Y-27733722D02*
X8157206Y-27714674D01*
X8157206Y-27714674D02*
X8176253Y-27705150D01*
X8176253Y-27705150D02*
X8204825Y-27705150D01*
X8204825Y-27705150D02*
X8223872Y-27714674D01*
X8300063Y-27914674D02*
X8309587Y-27905150D01*
X8309587Y-27905150D02*
X8328634Y-27876579D01*
X8328634Y-27876579D02*
X8338158Y-27857531D01*
X8338158Y-27857531D02*
X8347682Y-27828960D01*
X8347682Y-27828960D02*
X8357206Y-27781341D01*
X8357206Y-27781341D02*
X8357206Y-27743246D01*
X8357206Y-27743246D02*
X8347682Y-27695627D01*
X8347682Y-27695627D02*
X8338158Y-27667055D01*
X8338158Y-27667055D02*
X8328634Y-27648008D01*
X8328634Y-27648008D02*
X8309587Y-27619436D01*
X8309587Y-27619436D02*
X8300063Y-27609912D01*
X8661968Y-27914674D02*
X8652444Y-27905150D01*
X8652444Y-27905150D02*
X8633396Y-27876579D01*
X8633396Y-27876579D02*
X8623873Y-27857531D01*
X8623873Y-27857531D02*
X8614349Y-27828960D01*
X8614349Y-27828960D02*
X8604825Y-27781341D01*
X8604825Y-27781341D02*
X8604825Y-27743246D01*
X8604825Y-27743246D02*
X8614349Y-27695627D01*
X8614349Y-27695627D02*
X8623873Y-27667055D01*
X8623873Y-27667055D02*
X8633396Y-27648008D01*
X8633396Y-27648008D02*
X8652444Y-27619436D01*
X8652444Y-27619436D02*
X8661968Y-27609912D01*
X8738158Y-27705150D02*
X8738158Y-27838484D01*
X8738158Y-27724198D02*
X8747682Y-27714674D01*
X8747682Y-27714674D02*
X8766730Y-27705150D01*
X8766730Y-27705150D02*
X8795301Y-27705150D01*
X8795301Y-27705150D02*
X8814349Y-27714674D01*
X8814349Y-27714674D02*
X8823873Y-27733722D01*
X8823873Y-27733722D02*
X8823873Y-27838484D01*
X8947682Y-27838484D02*
X8928634Y-27828960D01*
X8928634Y-27828960D02*
X8919111Y-27819436D01*
X8919111Y-27819436D02*
X8909587Y-27800388D01*
X8909587Y-27800388D02*
X8909587Y-27743246D01*
X8909587Y-27743246D02*
X8919111Y-27724198D01*
X8919111Y-27724198D02*
X8928634Y-27714674D01*
X8928634Y-27714674D02*
X8947682Y-27705150D01*
X8947682Y-27705150D02*
X8976254Y-27705150D01*
X8976254Y-27705150D02*
X8995301Y-27714674D01*
X8995301Y-27714674D02*
X9004825Y-27724198D01*
X9004825Y-27724198D02*
X9014349Y-27743246D01*
X9014349Y-27743246D02*
X9014349Y-27800388D01*
X9014349Y-27800388D02*
X9004825Y-27819436D01*
X9004825Y-27819436D02*
X8995301Y-27828960D01*
X8995301Y-27828960D02*
X8976254Y-27838484D01*
X8976254Y-27838484D02*
X8947682Y-27838484D01*
X9071492Y-27705150D02*
X9147682Y-27705150D01*
X9100063Y-27638484D02*
X9100063Y-27809912D01*
X9100063Y-27809912D02*
X9109587Y-27828960D01*
X9109587Y-27828960D02*
X9128634Y-27838484D01*
X9128634Y-27838484D02*
X9147682Y-27838484D01*
X9366730Y-27705150D02*
X9366730Y-27905150D01*
X9366730Y-27714674D02*
X9385777Y-27705150D01*
X9385777Y-27705150D02*
X9423873Y-27705150D01*
X9423873Y-27705150D02*
X9442920Y-27714674D01*
X9442920Y-27714674D02*
X9452444Y-27724198D01*
X9452444Y-27724198D02*
X9461968Y-27743246D01*
X9461968Y-27743246D02*
X9461968Y-27800388D01*
X9461968Y-27800388D02*
X9452444Y-27819436D01*
X9452444Y-27819436D02*
X9442920Y-27828960D01*
X9442920Y-27828960D02*
X9423873Y-27838484D01*
X9423873Y-27838484D02*
X9385777Y-27838484D01*
X9385777Y-27838484D02*
X9366730Y-27828960D01*
X9576254Y-27838484D02*
X9557206Y-27828960D01*
X9557206Y-27828960D02*
X9547682Y-27809912D01*
X9547682Y-27809912D02*
X9547682Y-27638484D01*
X9738158Y-27838484D02*
X9738158Y-27733722D01*
X9738158Y-27733722D02*
X9728635Y-27714674D01*
X9728635Y-27714674D02*
X9709587Y-27705150D01*
X9709587Y-27705150D02*
X9671492Y-27705150D01*
X9671492Y-27705150D02*
X9652444Y-27714674D01*
X9738158Y-27828960D02*
X9719111Y-27838484D01*
X9719111Y-27838484D02*
X9671492Y-27838484D01*
X9671492Y-27838484D02*
X9652444Y-27828960D01*
X9652444Y-27828960D02*
X9642920Y-27809912D01*
X9642920Y-27809912D02*
X9642920Y-27790865D01*
X9642920Y-27790865D02*
X9652444Y-27771817D01*
X9652444Y-27771817D02*
X9671492Y-27762293D01*
X9671492Y-27762293D02*
X9719111Y-27762293D01*
X9719111Y-27762293D02*
X9738158Y-27752769D01*
X9804825Y-27705150D02*
X9881015Y-27705150D01*
X9833396Y-27638484D02*
X9833396Y-27809912D01*
X9833396Y-27809912D02*
X9842920Y-27828960D01*
X9842920Y-27828960D02*
X9861968Y-27838484D01*
X9861968Y-27838484D02*
X9881015Y-27838484D01*
X10023873Y-27828960D02*
X10004825Y-27838484D01*
X10004825Y-27838484D02*
X9966730Y-27838484D01*
X9966730Y-27838484D02*
X9947682Y-27828960D01*
X9947682Y-27828960D02*
X9938158Y-27809912D01*
X9938158Y-27809912D02*
X9938158Y-27733722D01*
X9938158Y-27733722D02*
X9947682Y-27714674D01*
X9947682Y-27714674D02*
X9966730Y-27705150D01*
X9966730Y-27705150D02*
X10004825Y-27705150D01*
X10004825Y-27705150D02*
X10023873Y-27714674D01*
X10023873Y-27714674D02*
X10033396Y-27733722D01*
X10033396Y-27733722D02*
X10033396Y-27752769D01*
X10033396Y-27752769D02*
X9938158Y-27771817D01*
X10204825Y-27838484D02*
X10204825Y-27638484D01*
X10204825Y-27828960D02*
X10185777Y-27838484D01*
X10185777Y-27838484D02*
X10147682Y-27838484D01*
X10147682Y-27838484D02*
X10128635Y-27828960D01*
X10128635Y-27828960D02*
X10119111Y-27819436D01*
X10119111Y-27819436D02*
X10109587Y-27800388D01*
X10109587Y-27800388D02*
X10109587Y-27743246D01*
X10109587Y-27743246D02*
X10119111Y-27724198D01*
X10119111Y-27724198D02*
X10128635Y-27714674D01*
X10128635Y-27714674D02*
X10147682Y-27705150D01*
X10147682Y-27705150D02*
X10185777Y-27705150D01*
X10185777Y-27705150D02*
X10204825Y-27714674D01*
X10281016Y-27914674D02*
X10290539Y-27905150D01*
X10290539Y-27905150D02*
X10309587Y-27876579D01*
X10309587Y-27876579D02*
X10319111Y-27857531D01*
X10319111Y-27857531D02*
X10328635Y-27828960D01*
X10328635Y-27828960D02*
X10338158Y-27781341D01*
X10338158Y-27781341D02*
X10338158Y-27743246D01*
X10338158Y-27743246D02*
X10328635Y-27695627D01*
X10328635Y-27695627D02*
X10319111Y-27667055D01*
X10319111Y-27667055D02*
X10309587Y-27648008D01*
X10309587Y-27648008D02*
X10290539Y-27619436D01*
X10290539Y-27619436D02*
X10281016Y-27609912D01*
D10*
X3525000Y-28011000D02*
G75*
G03*
X3525000Y-28011000I-50000J0D01*
G01*
D11*
X3890539Y-28102484D02*
X3776253Y-28102484D01*
X3833396Y-28102484D02*
X3833396Y-27902484D01*
X3833396Y-27902484D02*
X3814348Y-27931055D01*
X3814348Y-27931055D02*
X3795301Y-27950103D01*
X3795301Y-27950103D02*
X3776253Y-27959627D01*
X3976253Y-28083436D02*
X3985777Y-28092960D01*
X3985777Y-28092960D02*
X3976253Y-28102484D01*
X3976253Y-28102484D02*
X3966729Y-28092960D01*
X3966729Y-28092960D02*
X3976253Y-28083436D01*
X3976253Y-28083436D02*
X3976253Y-28102484D01*
X4109586Y-27902484D02*
X4128634Y-27902484D01*
X4128634Y-27902484D02*
X4147682Y-27912008D01*
X4147682Y-27912008D02*
X4157205Y-27921531D01*
X4157205Y-27921531D02*
X4166729Y-27940579D01*
X4166729Y-27940579D02*
X4176253Y-27978674D01*
X4176253Y-27978674D02*
X4176253Y-28026293D01*
X4176253Y-28026293D02*
X4166729Y-28064388D01*
X4166729Y-28064388D02*
X4157205Y-28083436D01*
X4157205Y-28083436D02*
X4147682Y-28092960D01*
X4147682Y-28092960D02*
X4128634Y-28102484D01*
X4128634Y-28102484D02*
X4109586Y-28102484D01*
X4109586Y-28102484D02*
X4090539Y-28092960D01*
X4090539Y-28092960D02*
X4081015Y-28083436D01*
X4081015Y-28083436D02*
X4071491Y-28064388D01*
X4071491Y-28064388D02*
X4061967Y-28026293D01*
X4061967Y-28026293D02*
X4061967Y-27978674D01*
X4061967Y-27978674D02*
X4071491Y-27940579D01*
X4071491Y-27940579D02*
X4081015Y-27921531D01*
X4081015Y-27921531D02*
X4090539Y-27912008D01*
X4090539Y-27912008D02*
X4109586Y-27902484D01*
X4300063Y-27902484D02*
X4319110Y-27902484D01*
X4319110Y-27902484D02*
X4338158Y-27912008D01*
X4338158Y-27912008D02*
X4347682Y-27921531D01*
X4347682Y-27921531D02*
X4357205Y-27940579D01*
X4357205Y-27940579D02*
X4366729Y-27978674D01*
X4366729Y-27978674D02*
X4366729Y-28026293D01*
X4366729Y-28026293D02*
X4357205Y-28064388D01*
X4357205Y-28064388D02*
X4347682Y-28083436D01*
X4347682Y-28083436D02*
X4338158Y-28092960D01*
X4338158Y-28092960D02*
X4319110Y-28102484D01*
X4319110Y-28102484D02*
X4300063Y-28102484D01*
X4300063Y-28102484D02*
X4281015Y-28092960D01*
X4281015Y-28092960D02*
X4271491Y-28083436D01*
X4271491Y-28083436D02*
X4261967Y-28064388D01*
X4261967Y-28064388D02*
X4252444Y-28026293D01*
X4252444Y-28026293D02*
X4252444Y-27978674D01*
X4252444Y-27978674D02*
X4261967Y-27940579D01*
X4261967Y-27940579D02*
X4271491Y-27921531D01*
X4271491Y-27921531D02*
X4281015Y-27912008D01*
X4281015Y-27912008D02*
X4300063Y-27902484D01*
X4490539Y-27902484D02*
X4509586Y-27902484D01*
X4509586Y-27902484D02*
X4528634Y-27912008D01*
X4528634Y-27912008D02*
X4538158Y-27921531D01*
X4538158Y-27921531D02*
X4547682Y-27940579D01*
X4547682Y-27940579D02*
X4557205Y-27978674D01*
X4557205Y-27978674D02*
X4557205Y-28026293D01*
X4557205Y-28026293D02*
X4547682Y-28064388D01*
X4547682Y-28064388D02*
X4538158Y-28083436D01*
X4538158Y-28083436D02*
X4528634Y-28092960D01*
X4528634Y-28092960D02*
X4509586Y-28102484D01*
X4509586Y-28102484D02*
X4490539Y-28102484D01*
X4490539Y-28102484D02*
X4471491Y-28092960D01*
X4471491Y-28092960D02*
X4461967Y-28083436D01*
X4461967Y-28083436D02*
X4452444Y-28064388D01*
X4452444Y-28064388D02*
X4442920Y-28026293D01*
X4442920Y-28026293D02*
X4442920Y-27978674D01*
X4442920Y-27978674D02*
X4452444Y-27940579D01*
X4452444Y-27940579D02*
X4461967Y-27921531D01*
X4461967Y-27921531D02*
X4471491Y-27912008D01*
X4471491Y-27912008D02*
X4490539Y-27902484D01*
X4642920Y-28102484D02*
X4642920Y-27969150D01*
X4642920Y-27988198D02*
X4652444Y-27978674D01*
X4652444Y-27978674D02*
X4671491Y-27969150D01*
X4671491Y-27969150D02*
X4700063Y-27969150D01*
X4700063Y-27969150D02*
X4719110Y-27978674D01*
X4719110Y-27978674D02*
X4728634Y-27997722D01*
X4728634Y-27997722D02*
X4728634Y-28102484D01*
X4728634Y-27997722D02*
X4738158Y-27978674D01*
X4738158Y-27978674D02*
X4757205Y-27969150D01*
X4757205Y-27969150D02*
X4785777Y-27969150D01*
X4785777Y-27969150D02*
X4804825Y-27978674D01*
X4804825Y-27978674D02*
X4814348Y-27997722D01*
X4814348Y-27997722D02*
X4814348Y-28102484D01*
X4909586Y-28102484D02*
X4909586Y-27969150D01*
X4909586Y-27988198D02*
X4919110Y-27978674D01*
X4919110Y-27978674D02*
X4938158Y-27969150D01*
X4938158Y-27969150D02*
X4966729Y-27969150D01*
X4966729Y-27969150D02*
X4985777Y-27978674D01*
X4985777Y-27978674D02*
X4995301Y-27997722D01*
X4995301Y-27997722D02*
X4995301Y-28102484D01*
X4995301Y-27997722D02*
X5004825Y-27978674D01*
X5004825Y-27978674D02*
X5023872Y-27969150D01*
X5023872Y-27969150D02*
X5052444Y-27969150D01*
X5052444Y-27969150D02*
X5071491Y-27978674D01*
X5071491Y-27978674D02*
X5081015Y-27997722D01*
X5081015Y-27997722D02*
X5081015Y-28102484D01*
X5471491Y-27892960D02*
X5300063Y-28150103D01*
X5728634Y-27902484D02*
X5747682Y-27902484D01*
X5747682Y-27902484D02*
X5766729Y-27912008D01*
X5766729Y-27912008D02*
X5776253Y-27921531D01*
X5776253Y-27921531D02*
X5785777Y-27940579D01*
X5785777Y-27940579D02*
X5795301Y-27978674D01*
X5795301Y-27978674D02*
X5795301Y-28026293D01*
X5795301Y-28026293D02*
X5785777Y-28064388D01*
X5785777Y-28064388D02*
X5776253Y-28083436D01*
X5776253Y-28083436D02*
X5766729Y-28092960D01*
X5766729Y-28092960D02*
X5747682Y-28102484D01*
X5747682Y-28102484D02*
X5728634Y-28102484D01*
X5728634Y-28102484D02*
X5709586Y-28092960D01*
X5709586Y-28092960D02*
X5700063Y-28083436D01*
X5700063Y-28083436D02*
X5690539Y-28064388D01*
X5690539Y-28064388D02*
X5681015Y-28026293D01*
X5681015Y-28026293D02*
X5681015Y-27978674D01*
X5681015Y-27978674D02*
X5690539Y-27940579D01*
X5690539Y-27940579D02*
X5700063Y-27921531D01*
X5700063Y-27921531D02*
X5709586Y-27912008D01*
X5709586Y-27912008D02*
X5728634Y-27902484D01*
X5881015Y-28083436D02*
X5890539Y-28092960D01*
X5890539Y-28092960D02*
X5881015Y-28102484D01*
X5881015Y-28102484D02*
X5871491Y-28092960D01*
X5871491Y-28092960D02*
X5881015Y-28083436D01*
X5881015Y-28083436D02*
X5881015Y-28102484D01*
X6014348Y-27902484D02*
X6033396Y-27902484D01*
X6033396Y-27902484D02*
X6052444Y-27912008D01*
X6052444Y-27912008D02*
X6061967Y-27921531D01*
X6061967Y-27921531D02*
X6071491Y-27940579D01*
X6071491Y-27940579D02*
X6081015Y-27978674D01*
X6081015Y-27978674D02*
X6081015Y-28026293D01*
X6081015Y-28026293D02*
X6071491Y-28064388D01*
X6071491Y-28064388D02*
X6061967Y-28083436D01*
X6061967Y-28083436D02*
X6052444Y-28092960D01*
X6052444Y-28092960D02*
X6033396Y-28102484D01*
X6033396Y-28102484D02*
X6014348Y-28102484D01*
X6014348Y-28102484D02*
X5995301Y-28092960D01*
X5995301Y-28092960D02*
X5985777Y-28083436D01*
X5985777Y-28083436D02*
X5976253Y-28064388D01*
X5976253Y-28064388D02*
X5966729Y-28026293D01*
X5966729Y-28026293D02*
X5966729Y-27978674D01*
X5966729Y-27978674D02*
X5976253Y-27940579D01*
X5976253Y-27940579D02*
X5985777Y-27921531D01*
X5985777Y-27921531D02*
X5995301Y-27912008D01*
X5995301Y-27912008D02*
X6014348Y-27902484D01*
X6147682Y-27902484D02*
X6271491Y-27902484D01*
X6271491Y-27902484D02*
X6204825Y-27978674D01*
X6204825Y-27978674D02*
X6233396Y-27978674D01*
X6233396Y-27978674D02*
X6252444Y-27988198D01*
X6252444Y-27988198D02*
X6261967Y-27997722D01*
X6261967Y-27997722D02*
X6271491Y-28016769D01*
X6271491Y-28016769D02*
X6271491Y-28064388D01*
X6271491Y-28064388D02*
X6261967Y-28083436D01*
X6261967Y-28083436D02*
X6252444Y-28092960D01*
X6252444Y-28092960D02*
X6233396Y-28102484D01*
X6233396Y-28102484D02*
X6176253Y-28102484D01*
X6176253Y-28102484D02*
X6157206Y-28092960D01*
X6157206Y-28092960D02*
X6147682Y-28083436D01*
X6366729Y-28102484D02*
X6404825Y-28102484D01*
X6404825Y-28102484D02*
X6423872Y-28092960D01*
X6423872Y-28092960D02*
X6433396Y-28083436D01*
X6433396Y-28083436D02*
X6452444Y-28054865D01*
X6452444Y-28054865D02*
X6461967Y-28016769D01*
X6461967Y-28016769D02*
X6461967Y-27940579D01*
X6461967Y-27940579D02*
X6452444Y-27921531D01*
X6452444Y-27921531D02*
X6442920Y-27912008D01*
X6442920Y-27912008D02*
X6423872Y-27902484D01*
X6423872Y-27902484D02*
X6385777Y-27902484D01*
X6385777Y-27902484D02*
X6366729Y-27912008D01*
X6366729Y-27912008D02*
X6357206Y-27921531D01*
X6357206Y-27921531D02*
X6347682Y-27940579D01*
X6347682Y-27940579D02*
X6347682Y-27988198D01*
X6347682Y-27988198D02*
X6357206Y-28007246D01*
X6357206Y-28007246D02*
X6366729Y-28016769D01*
X6366729Y-28016769D02*
X6385777Y-28026293D01*
X6385777Y-28026293D02*
X6423872Y-28026293D01*
X6423872Y-28026293D02*
X6442920Y-28016769D01*
X6442920Y-28016769D02*
X6452444Y-28007246D01*
X6452444Y-28007246D02*
X6461967Y-27988198D01*
X6633396Y-27969150D02*
X6633396Y-28102484D01*
X6585777Y-27892960D02*
X6538158Y-28035817D01*
X6538158Y-28035817D02*
X6661967Y-28035817D01*
X6728634Y-27902484D02*
X6728634Y-27940579D01*
X6804825Y-27902484D02*
X6804825Y-27940579D01*
X7100063Y-28178674D02*
X7090539Y-28169150D01*
X7090539Y-28169150D02*
X7071491Y-28140579D01*
X7071491Y-28140579D02*
X7061968Y-28121531D01*
X7061968Y-28121531D02*
X7052444Y-28092960D01*
X7052444Y-28092960D02*
X7042920Y-28045341D01*
X7042920Y-28045341D02*
X7042920Y-28007246D01*
X7042920Y-28007246D02*
X7052444Y-27959627D01*
X7052444Y-27959627D02*
X7061968Y-27931055D01*
X7061968Y-27931055D02*
X7071491Y-27912008D01*
X7071491Y-27912008D02*
X7090539Y-27883436D01*
X7090539Y-27883436D02*
X7100063Y-27873912D01*
X7166729Y-27921531D02*
X7176253Y-27912008D01*
X7176253Y-27912008D02*
X7195301Y-27902484D01*
X7195301Y-27902484D02*
X7242920Y-27902484D01*
X7242920Y-27902484D02*
X7261968Y-27912008D01*
X7261968Y-27912008D02*
X7271491Y-27921531D01*
X7271491Y-27921531D02*
X7281015Y-27940579D01*
X7281015Y-27940579D02*
X7281015Y-27959627D01*
X7281015Y-27959627D02*
X7271491Y-27988198D01*
X7271491Y-27988198D02*
X7157206Y-28102484D01*
X7157206Y-28102484D02*
X7281015Y-28102484D01*
X7519110Y-28102484D02*
X7519110Y-27902484D01*
X7604825Y-28102484D02*
X7604825Y-27997722D01*
X7604825Y-27997722D02*
X7595301Y-27978674D01*
X7595301Y-27978674D02*
X7576253Y-27969150D01*
X7576253Y-27969150D02*
X7547682Y-27969150D01*
X7547682Y-27969150D02*
X7528634Y-27978674D01*
X7528634Y-27978674D02*
X7519110Y-27988198D01*
X7728634Y-28102484D02*
X7709587Y-28092960D01*
X7709587Y-28092960D02*
X7700063Y-28083436D01*
X7700063Y-28083436D02*
X7690539Y-28064388D01*
X7690539Y-28064388D02*
X7690539Y-28007246D01*
X7690539Y-28007246D02*
X7700063Y-27988198D01*
X7700063Y-27988198D02*
X7709587Y-27978674D01*
X7709587Y-27978674D02*
X7728634Y-27969150D01*
X7728634Y-27969150D02*
X7757206Y-27969150D01*
X7757206Y-27969150D02*
X7776253Y-27978674D01*
X7776253Y-27978674D02*
X7785777Y-27988198D01*
X7785777Y-27988198D02*
X7795301Y-28007246D01*
X7795301Y-28007246D02*
X7795301Y-28064388D01*
X7795301Y-28064388D02*
X7785777Y-28083436D01*
X7785777Y-28083436D02*
X7776253Y-28092960D01*
X7776253Y-28092960D02*
X7757206Y-28102484D01*
X7757206Y-28102484D02*
X7728634Y-28102484D01*
X7909587Y-28102484D02*
X7890539Y-28092960D01*
X7890539Y-28092960D02*
X7881015Y-28073912D01*
X7881015Y-28073912D02*
X7881015Y-27902484D01*
X8061968Y-28092960D02*
X8042920Y-28102484D01*
X8042920Y-28102484D02*
X8004825Y-28102484D01*
X8004825Y-28102484D02*
X7985777Y-28092960D01*
X7985777Y-28092960D02*
X7976253Y-28073912D01*
X7976253Y-28073912D02*
X7976253Y-27997722D01*
X7976253Y-27997722D02*
X7985777Y-27978674D01*
X7985777Y-27978674D02*
X8004825Y-27969150D01*
X8004825Y-27969150D02*
X8042920Y-27969150D01*
X8042920Y-27969150D02*
X8061968Y-27978674D01*
X8061968Y-27978674D02*
X8071491Y-27997722D01*
X8071491Y-27997722D02*
X8071491Y-28016769D01*
X8071491Y-28016769D02*
X7976253Y-28035817D01*
X8147682Y-28092960D02*
X8166730Y-28102484D01*
X8166730Y-28102484D02*
X8204825Y-28102484D01*
X8204825Y-28102484D02*
X8223872Y-28092960D01*
X8223872Y-28092960D02*
X8233396Y-28073912D01*
X8233396Y-28073912D02*
X8233396Y-28064388D01*
X8233396Y-28064388D02*
X8223872Y-28045341D01*
X8223872Y-28045341D02*
X8204825Y-28035817D01*
X8204825Y-28035817D02*
X8176253Y-28035817D01*
X8176253Y-28035817D02*
X8157206Y-28026293D01*
X8157206Y-28026293D02*
X8147682Y-28007246D01*
X8147682Y-28007246D02*
X8147682Y-27997722D01*
X8147682Y-27997722D02*
X8157206Y-27978674D01*
X8157206Y-27978674D02*
X8176253Y-27969150D01*
X8176253Y-27969150D02*
X8204825Y-27969150D01*
X8204825Y-27969150D02*
X8223872Y-27978674D01*
X8300063Y-28178674D02*
X8309587Y-28169150D01*
X8309587Y-28169150D02*
X8328634Y-28140579D01*
X8328634Y-28140579D02*
X8338158Y-28121531D01*
X8338158Y-28121531D02*
X8347682Y-28092960D01*
X8347682Y-28092960D02*
X8357206Y-28045341D01*
X8357206Y-28045341D02*
X8357206Y-28007246D01*
X8357206Y-28007246D02*
X8347682Y-27959627D01*
X8347682Y-27959627D02*
X8338158Y-27931055D01*
X8338158Y-27931055D02*
X8328634Y-27912008D01*
X8328634Y-27912008D02*
X8309587Y-27883436D01*
X8309587Y-27883436D02*
X8300063Y-27873912D01*
X8661968Y-28178674D02*
X8652444Y-28169150D01*
X8652444Y-28169150D02*
X8633396Y-28140579D01*
X8633396Y-28140579D02*
X8623873Y-28121531D01*
X8623873Y-28121531D02*
X8614349Y-28092960D01*
X8614349Y-28092960D02*
X8604825Y-28045341D01*
X8604825Y-28045341D02*
X8604825Y-28007246D01*
X8604825Y-28007246D02*
X8614349Y-27959627D01*
X8614349Y-27959627D02*
X8623873Y-27931055D01*
X8623873Y-27931055D02*
X8633396Y-27912008D01*
X8633396Y-27912008D02*
X8652444Y-27883436D01*
X8652444Y-27883436D02*
X8661968Y-27873912D01*
X8738158Y-27969150D02*
X8738158Y-28102484D01*
X8738158Y-27988198D02*
X8747682Y-27978674D01*
X8747682Y-27978674D02*
X8766730Y-27969150D01*
X8766730Y-27969150D02*
X8795301Y-27969150D01*
X8795301Y-27969150D02*
X8814349Y-27978674D01*
X8814349Y-27978674D02*
X8823873Y-27997722D01*
X8823873Y-27997722D02*
X8823873Y-28102484D01*
X8947682Y-28102484D02*
X8928634Y-28092960D01*
X8928634Y-28092960D02*
X8919111Y-28083436D01*
X8919111Y-28083436D02*
X8909587Y-28064388D01*
X8909587Y-28064388D02*
X8909587Y-28007246D01*
X8909587Y-28007246D02*
X8919111Y-27988198D01*
X8919111Y-27988198D02*
X8928634Y-27978674D01*
X8928634Y-27978674D02*
X8947682Y-27969150D01*
X8947682Y-27969150D02*
X8976254Y-27969150D01*
X8976254Y-27969150D02*
X8995301Y-27978674D01*
X8995301Y-27978674D02*
X9004825Y-27988198D01*
X9004825Y-27988198D02*
X9014349Y-28007246D01*
X9014349Y-28007246D02*
X9014349Y-28064388D01*
X9014349Y-28064388D02*
X9004825Y-28083436D01*
X9004825Y-28083436D02*
X8995301Y-28092960D01*
X8995301Y-28092960D02*
X8976254Y-28102484D01*
X8976254Y-28102484D02*
X8947682Y-28102484D01*
X9071492Y-27969150D02*
X9147682Y-27969150D01*
X9100063Y-27902484D02*
X9100063Y-28073912D01*
X9100063Y-28073912D02*
X9109587Y-28092960D01*
X9109587Y-28092960D02*
X9128634Y-28102484D01*
X9128634Y-28102484D02*
X9147682Y-28102484D01*
X9366730Y-27969150D02*
X9366730Y-28169150D01*
X9366730Y-27978674D02*
X9385777Y-27969150D01*
X9385777Y-27969150D02*
X9423873Y-27969150D01*
X9423873Y-27969150D02*
X9442920Y-27978674D01*
X9442920Y-27978674D02*
X9452444Y-27988198D01*
X9452444Y-27988198D02*
X9461968Y-28007246D01*
X9461968Y-28007246D02*
X9461968Y-28064388D01*
X9461968Y-28064388D02*
X9452444Y-28083436D01*
X9452444Y-28083436D02*
X9442920Y-28092960D01*
X9442920Y-28092960D02*
X9423873Y-28102484D01*
X9423873Y-28102484D02*
X9385777Y-28102484D01*
X9385777Y-28102484D02*
X9366730Y-28092960D01*
X9576254Y-28102484D02*
X9557206Y-28092960D01*
X9557206Y-28092960D02*
X9547682Y-28073912D01*
X9547682Y-28073912D02*
X9547682Y-27902484D01*
X9738158Y-28102484D02*
X9738158Y-27997722D01*
X9738158Y-27997722D02*
X9728635Y-27978674D01*
X9728635Y-27978674D02*
X9709587Y-27969150D01*
X9709587Y-27969150D02*
X9671492Y-27969150D01*
X9671492Y-27969150D02*
X9652444Y-27978674D01*
X9738158Y-28092960D02*
X9719111Y-28102484D01*
X9719111Y-28102484D02*
X9671492Y-28102484D01*
X9671492Y-28102484D02*
X9652444Y-28092960D01*
X9652444Y-28092960D02*
X9642920Y-28073912D01*
X9642920Y-28073912D02*
X9642920Y-28054865D01*
X9642920Y-28054865D02*
X9652444Y-28035817D01*
X9652444Y-28035817D02*
X9671492Y-28026293D01*
X9671492Y-28026293D02*
X9719111Y-28026293D01*
X9719111Y-28026293D02*
X9738158Y-28016769D01*
X9804825Y-27969150D02*
X9881015Y-27969150D01*
X9833396Y-27902484D02*
X9833396Y-28073912D01*
X9833396Y-28073912D02*
X9842920Y-28092960D01*
X9842920Y-28092960D02*
X9861968Y-28102484D01*
X9861968Y-28102484D02*
X9881015Y-28102484D01*
X10023873Y-28092960D02*
X10004825Y-28102484D01*
X10004825Y-28102484D02*
X9966730Y-28102484D01*
X9966730Y-28102484D02*
X9947682Y-28092960D01*
X9947682Y-28092960D02*
X9938158Y-28073912D01*
X9938158Y-28073912D02*
X9938158Y-27997722D01*
X9938158Y-27997722D02*
X9947682Y-27978674D01*
X9947682Y-27978674D02*
X9966730Y-27969150D01*
X9966730Y-27969150D02*
X10004825Y-27969150D01*
X10004825Y-27969150D02*
X10023873Y-27978674D01*
X10023873Y-27978674D02*
X10033396Y-27997722D01*
X10033396Y-27997722D02*
X10033396Y-28016769D01*
X10033396Y-28016769D02*
X9938158Y-28035817D01*
X10204825Y-28102484D02*
X10204825Y-27902484D01*
X10204825Y-28092960D02*
X10185777Y-28102484D01*
X10185777Y-28102484D02*
X10147682Y-28102484D01*
X10147682Y-28102484D02*
X10128635Y-28092960D01*
X10128635Y-28092960D02*
X10119111Y-28083436D01*
X10119111Y-28083436D02*
X10109587Y-28064388D01*
X10109587Y-28064388D02*
X10109587Y-28007246D01*
X10109587Y-28007246D02*
X10119111Y-27988198D01*
X10119111Y-27988198D02*
X10128635Y-27978674D01*
X10128635Y-27978674D02*
X10147682Y-27969150D01*
X10147682Y-27969150D02*
X10185777Y-27969150D01*
X10185777Y-27969150D02*
X10204825Y-27978674D01*
X10281016Y-28178674D02*
X10290539Y-28169150D01*
X10290539Y-28169150D02*
X10309587Y-28140579D01*
X10309587Y-28140579D02*
X10319111Y-28121531D01*
X10319111Y-28121531D02*
X10328635Y-28092960D01*
X10328635Y-28092960D02*
X10338158Y-28045341D01*
X10338158Y-28045341D02*
X10338158Y-28007246D01*
X10338158Y-28007246D02*
X10328635Y-27959627D01*
X10328635Y-27959627D02*
X10319111Y-27931055D01*
X10319111Y-27931055D02*
X10309587Y-27912008D01*
X10309587Y-27912008D02*
X10290539Y-27883436D01*
X10290539Y-27883436D02*
X10281016Y-27873912D01*
D13*
X3470000Y-28220000D02*
X3470000Y-28330000D01*
X3415000Y-28275000D02*
X3525000Y-28275000D01*
D11*
X3890539Y-28366484D02*
X3776253Y-28366484D01*
X3833396Y-28366484D02*
X3833396Y-28166484D01*
X3833396Y-28166484D02*
X3814348Y-28195055D01*
X3814348Y-28195055D02*
X3795301Y-28214103D01*
X3795301Y-28214103D02*
X3776253Y-28223627D01*
X3976253Y-28347436D02*
X3985777Y-28356960D01*
X3985777Y-28356960D02*
X3976253Y-28366484D01*
X3976253Y-28366484D02*
X3966729Y-28356960D01*
X3966729Y-28356960D02*
X3976253Y-28347436D01*
X3976253Y-28347436D02*
X3976253Y-28366484D01*
X4176253Y-28366484D02*
X4061967Y-28366484D01*
X4119110Y-28366484D02*
X4119110Y-28166484D01*
X4119110Y-28166484D02*
X4100062Y-28195055D01*
X4100062Y-28195055D02*
X4081015Y-28214103D01*
X4081015Y-28214103D02*
X4061967Y-28223627D01*
X4300063Y-28166484D02*
X4319110Y-28166484D01*
X4319110Y-28166484D02*
X4338158Y-28176008D01*
X4338158Y-28176008D02*
X4347682Y-28185531D01*
X4347682Y-28185531D02*
X4357205Y-28204579D01*
X4357205Y-28204579D02*
X4366729Y-28242674D01*
X4366729Y-28242674D02*
X4366729Y-28290293D01*
X4366729Y-28290293D02*
X4357205Y-28328388D01*
X4357205Y-28328388D02*
X4347682Y-28347436D01*
X4347682Y-28347436D02*
X4338158Y-28356960D01*
X4338158Y-28356960D02*
X4319110Y-28366484D01*
X4319110Y-28366484D02*
X4300063Y-28366484D01*
X4300063Y-28366484D02*
X4281015Y-28356960D01*
X4281015Y-28356960D02*
X4271491Y-28347436D01*
X4271491Y-28347436D02*
X4261967Y-28328388D01*
X4261967Y-28328388D02*
X4252444Y-28290293D01*
X4252444Y-28290293D02*
X4252444Y-28242674D01*
X4252444Y-28242674D02*
X4261967Y-28204579D01*
X4261967Y-28204579D02*
X4271491Y-28185531D01*
X4271491Y-28185531D02*
X4281015Y-28176008D01*
X4281015Y-28176008D02*
X4300063Y-28166484D01*
X4490539Y-28166484D02*
X4509586Y-28166484D01*
X4509586Y-28166484D02*
X4528634Y-28176008D01*
X4528634Y-28176008D02*
X4538158Y-28185531D01*
X4538158Y-28185531D02*
X4547682Y-28204579D01*
X4547682Y-28204579D02*
X4557205Y-28242674D01*
X4557205Y-28242674D02*
X4557205Y-28290293D01*
X4557205Y-28290293D02*
X4547682Y-28328388D01*
X4547682Y-28328388D02*
X4538158Y-28347436D01*
X4538158Y-28347436D02*
X4528634Y-28356960D01*
X4528634Y-28356960D02*
X4509586Y-28366484D01*
X4509586Y-28366484D02*
X4490539Y-28366484D01*
X4490539Y-28366484D02*
X4471491Y-28356960D01*
X4471491Y-28356960D02*
X4461967Y-28347436D01*
X4461967Y-28347436D02*
X4452444Y-28328388D01*
X4452444Y-28328388D02*
X4442920Y-28290293D01*
X4442920Y-28290293D02*
X4442920Y-28242674D01*
X4442920Y-28242674D02*
X4452444Y-28204579D01*
X4452444Y-28204579D02*
X4461967Y-28185531D01*
X4461967Y-28185531D02*
X4471491Y-28176008D01*
X4471491Y-28176008D02*
X4490539Y-28166484D01*
X4642920Y-28366484D02*
X4642920Y-28233150D01*
X4642920Y-28252198D02*
X4652444Y-28242674D01*
X4652444Y-28242674D02*
X4671491Y-28233150D01*
X4671491Y-28233150D02*
X4700063Y-28233150D01*
X4700063Y-28233150D02*
X4719110Y-28242674D01*
X4719110Y-28242674D02*
X4728634Y-28261722D01*
X4728634Y-28261722D02*
X4728634Y-28366484D01*
X4728634Y-28261722D02*
X4738158Y-28242674D01*
X4738158Y-28242674D02*
X4757205Y-28233150D01*
X4757205Y-28233150D02*
X4785777Y-28233150D01*
X4785777Y-28233150D02*
X4804825Y-28242674D01*
X4804825Y-28242674D02*
X4814348Y-28261722D01*
X4814348Y-28261722D02*
X4814348Y-28366484D01*
X4909586Y-28366484D02*
X4909586Y-28233150D01*
X4909586Y-28252198D02*
X4919110Y-28242674D01*
X4919110Y-28242674D02*
X4938158Y-28233150D01*
X4938158Y-28233150D02*
X4966729Y-28233150D01*
X4966729Y-28233150D02*
X4985777Y-28242674D01*
X4985777Y-28242674D02*
X4995301Y-28261722D01*
X4995301Y-28261722D02*
X4995301Y-28366484D01*
X4995301Y-28261722D02*
X5004825Y-28242674D01*
X5004825Y-28242674D02*
X5023872Y-28233150D01*
X5023872Y-28233150D02*
X5052444Y-28233150D01*
X5052444Y-28233150D02*
X5071491Y-28242674D01*
X5071491Y-28242674D02*
X5081015Y-28261722D01*
X5081015Y-28261722D02*
X5081015Y-28366484D01*
X5471491Y-28156960D02*
X5300063Y-28414103D01*
X5728634Y-28166484D02*
X5747682Y-28166484D01*
X5747682Y-28166484D02*
X5766729Y-28176008D01*
X5766729Y-28176008D02*
X5776253Y-28185531D01*
X5776253Y-28185531D02*
X5785777Y-28204579D01*
X5785777Y-28204579D02*
X5795301Y-28242674D01*
X5795301Y-28242674D02*
X5795301Y-28290293D01*
X5795301Y-28290293D02*
X5785777Y-28328388D01*
X5785777Y-28328388D02*
X5776253Y-28347436D01*
X5776253Y-28347436D02*
X5766729Y-28356960D01*
X5766729Y-28356960D02*
X5747682Y-28366484D01*
X5747682Y-28366484D02*
X5728634Y-28366484D01*
X5728634Y-28366484D02*
X5709586Y-28356960D01*
X5709586Y-28356960D02*
X5700063Y-28347436D01*
X5700063Y-28347436D02*
X5690539Y-28328388D01*
X5690539Y-28328388D02*
X5681015Y-28290293D01*
X5681015Y-28290293D02*
X5681015Y-28242674D01*
X5681015Y-28242674D02*
X5690539Y-28204579D01*
X5690539Y-28204579D02*
X5700063Y-28185531D01*
X5700063Y-28185531D02*
X5709586Y-28176008D01*
X5709586Y-28176008D02*
X5728634Y-28166484D01*
X5881015Y-28347436D02*
X5890539Y-28356960D01*
X5890539Y-28356960D02*
X5881015Y-28366484D01*
X5881015Y-28366484D02*
X5871491Y-28356960D01*
X5871491Y-28356960D02*
X5881015Y-28347436D01*
X5881015Y-28347436D02*
X5881015Y-28366484D01*
X6014348Y-28166484D02*
X6033396Y-28166484D01*
X6033396Y-28166484D02*
X6052444Y-28176008D01*
X6052444Y-28176008D02*
X6061967Y-28185531D01*
X6061967Y-28185531D02*
X6071491Y-28204579D01*
X6071491Y-28204579D02*
X6081015Y-28242674D01*
X6081015Y-28242674D02*
X6081015Y-28290293D01*
X6081015Y-28290293D02*
X6071491Y-28328388D01*
X6071491Y-28328388D02*
X6061967Y-28347436D01*
X6061967Y-28347436D02*
X6052444Y-28356960D01*
X6052444Y-28356960D02*
X6033396Y-28366484D01*
X6033396Y-28366484D02*
X6014348Y-28366484D01*
X6014348Y-28366484D02*
X5995301Y-28356960D01*
X5995301Y-28356960D02*
X5985777Y-28347436D01*
X5985777Y-28347436D02*
X5976253Y-28328388D01*
X5976253Y-28328388D02*
X5966729Y-28290293D01*
X5966729Y-28290293D02*
X5966729Y-28242674D01*
X5966729Y-28242674D02*
X5976253Y-28204579D01*
X5976253Y-28204579D02*
X5985777Y-28185531D01*
X5985777Y-28185531D02*
X5995301Y-28176008D01*
X5995301Y-28176008D02*
X6014348Y-28166484D01*
X6252444Y-28233150D02*
X6252444Y-28366484D01*
X6204825Y-28156960D02*
X6157206Y-28299817D01*
X6157206Y-28299817D02*
X6281015Y-28299817D01*
X6338158Y-28166484D02*
X6461967Y-28166484D01*
X6461967Y-28166484D02*
X6395301Y-28242674D01*
X6395301Y-28242674D02*
X6423872Y-28242674D01*
X6423872Y-28242674D02*
X6442920Y-28252198D01*
X6442920Y-28252198D02*
X6452444Y-28261722D01*
X6452444Y-28261722D02*
X6461967Y-28280769D01*
X6461967Y-28280769D02*
X6461967Y-28328388D01*
X6461967Y-28328388D02*
X6452444Y-28347436D01*
X6452444Y-28347436D02*
X6442920Y-28356960D01*
X6442920Y-28356960D02*
X6423872Y-28366484D01*
X6423872Y-28366484D02*
X6366729Y-28366484D01*
X6366729Y-28366484D02*
X6347682Y-28356960D01*
X6347682Y-28356960D02*
X6338158Y-28347436D01*
X6528634Y-28166484D02*
X6652444Y-28166484D01*
X6652444Y-28166484D02*
X6585777Y-28242674D01*
X6585777Y-28242674D02*
X6614348Y-28242674D01*
X6614348Y-28242674D02*
X6633396Y-28252198D01*
X6633396Y-28252198D02*
X6642920Y-28261722D01*
X6642920Y-28261722D02*
X6652444Y-28280769D01*
X6652444Y-28280769D02*
X6652444Y-28328388D01*
X6652444Y-28328388D02*
X6642920Y-28347436D01*
X6642920Y-28347436D02*
X6633396Y-28356960D01*
X6633396Y-28356960D02*
X6614348Y-28366484D01*
X6614348Y-28366484D02*
X6557206Y-28366484D01*
X6557206Y-28366484D02*
X6538158Y-28356960D01*
X6538158Y-28356960D02*
X6528634Y-28347436D01*
X6728634Y-28166484D02*
X6728634Y-28204579D01*
X6804825Y-28166484D02*
X6804825Y-28204579D01*
X7100063Y-28442674D02*
X7090539Y-28433150D01*
X7090539Y-28433150D02*
X7071491Y-28404579D01*
X7071491Y-28404579D02*
X7061968Y-28385531D01*
X7061968Y-28385531D02*
X7052444Y-28356960D01*
X7052444Y-28356960D02*
X7042920Y-28309341D01*
X7042920Y-28309341D02*
X7042920Y-28271246D01*
X7042920Y-28271246D02*
X7052444Y-28223627D01*
X7052444Y-28223627D02*
X7061968Y-28195055D01*
X7061968Y-28195055D02*
X7071491Y-28176008D01*
X7071491Y-28176008D02*
X7090539Y-28147436D01*
X7090539Y-28147436D02*
X7100063Y-28137912D01*
X7261968Y-28233150D02*
X7261968Y-28366484D01*
X7214348Y-28156960D02*
X7166729Y-28299817D01*
X7166729Y-28299817D02*
X7290539Y-28299817D01*
X7519110Y-28366484D02*
X7519110Y-28166484D01*
X7604825Y-28366484D02*
X7604825Y-28261722D01*
X7604825Y-28261722D02*
X7595301Y-28242674D01*
X7595301Y-28242674D02*
X7576253Y-28233150D01*
X7576253Y-28233150D02*
X7547682Y-28233150D01*
X7547682Y-28233150D02*
X7528634Y-28242674D01*
X7528634Y-28242674D02*
X7519110Y-28252198D01*
X7728634Y-28366484D02*
X7709587Y-28356960D01*
X7709587Y-28356960D02*
X7700063Y-28347436D01*
X7700063Y-28347436D02*
X7690539Y-28328388D01*
X7690539Y-28328388D02*
X7690539Y-28271246D01*
X7690539Y-28271246D02*
X7700063Y-28252198D01*
X7700063Y-28252198D02*
X7709587Y-28242674D01*
X7709587Y-28242674D02*
X7728634Y-28233150D01*
X7728634Y-28233150D02*
X7757206Y-28233150D01*
X7757206Y-28233150D02*
X7776253Y-28242674D01*
X7776253Y-28242674D02*
X7785777Y-28252198D01*
X7785777Y-28252198D02*
X7795301Y-28271246D01*
X7795301Y-28271246D02*
X7795301Y-28328388D01*
X7795301Y-28328388D02*
X7785777Y-28347436D01*
X7785777Y-28347436D02*
X7776253Y-28356960D01*
X7776253Y-28356960D02*
X7757206Y-28366484D01*
X7757206Y-28366484D02*
X7728634Y-28366484D01*
X7909587Y-28366484D02*
X7890539Y-28356960D01*
X7890539Y-28356960D02*
X7881015Y-28337912D01*
X7881015Y-28337912D02*
X7881015Y-28166484D01*
X8061968Y-28356960D02*
X8042920Y-28366484D01*
X8042920Y-28366484D02*
X8004825Y-28366484D01*
X8004825Y-28366484D02*
X7985777Y-28356960D01*
X7985777Y-28356960D02*
X7976253Y-28337912D01*
X7976253Y-28337912D02*
X7976253Y-28261722D01*
X7976253Y-28261722D02*
X7985777Y-28242674D01*
X7985777Y-28242674D02*
X8004825Y-28233150D01*
X8004825Y-28233150D02*
X8042920Y-28233150D01*
X8042920Y-28233150D02*
X8061968Y-28242674D01*
X8061968Y-28242674D02*
X8071491Y-28261722D01*
X8071491Y-28261722D02*
X8071491Y-28280769D01*
X8071491Y-28280769D02*
X7976253Y-28299817D01*
X8147682Y-28356960D02*
X8166730Y-28366484D01*
X8166730Y-28366484D02*
X8204825Y-28366484D01*
X8204825Y-28366484D02*
X8223872Y-28356960D01*
X8223872Y-28356960D02*
X8233396Y-28337912D01*
X8233396Y-28337912D02*
X8233396Y-28328388D01*
X8233396Y-28328388D02*
X8223872Y-28309341D01*
X8223872Y-28309341D02*
X8204825Y-28299817D01*
X8204825Y-28299817D02*
X8176253Y-28299817D01*
X8176253Y-28299817D02*
X8157206Y-28290293D01*
X8157206Y-28290293D02*
X8147682Y-28271246D01*
X8147682Y-28271246D02*
X8147682Y-28261722D01*
X8147682Y-28261722D02*
X8157206Y-28242674D01*
X8157206Y-28242674D02*
X8176253Y-28233150D01*
X8176253Y-28233150D02*
X8204825Y-28233150D01*
X8204825Y-28233150D02*
X8223872Y-28242674D01*
X8300063Y-28442674D02*
X8309587Y-28433150D01*
X8309587Y-28433150D02*
X8328634Y-28404579D01*
X8328634Y-28404579D02*
X8338158Y-28385531D01*
X8338158Y-28385531D02*
X8347682Y-28356960D01*
X8347682Y-28356960D02*
X8357206Y-28309341D01*
X8357206Y-28309341D02*
X8357206Y-28271246D01*
X8357206Y-28271246D02*
X8347682Y-28223627D01*
X8347682Y-28223627D02*
X8338158Y-28195055D01*
X8338158Y-28195055D02*
X8328634Y-28176008D01*
X8328634Y-28176008D02*
X8309587Y-28147436D01*
X8309587Y-28147436D02*
X8300063Y-28137912D01*
X8661968Y-28442674D02*
X8652444Y-28433150D01*
X8652444Y-28433150D02*
X8633396Y-28404579D01*
X8633396Y-28404579D02*
X8623873Y-28385531D01*
X8623873Y-28385531D02*
X8614349Y-28356960D01*
X8614349Y-28356960D02*
X8604825Y-28309341D01*
X8604825Y-28309341D02*
X8604825Y-28271246D01*
X8604825Y-28271246D02*
X8614349Y-28223627D01*
X8614349Y-28223627D02*
X8623873Y-28195055D01*
X8623873Y-28195055D02*
X8633396Y-28176008D01*
X8633396Y-28176008D02*
X8652444Y-28147436D01*
X8652444Y-28147436D02*
X8661968Y-28137912D01*
X8738158Y-28233150D02*
X8738158Y-28366484D01*
X8738158Y-28252198D02*
X8747682Y-28242674D01*
X8747682Y-28242674D02*
X8766730Y-28233150D01*
X8766730Y-28233150D02*
X8795301Y-28233150D01*
X8795301Y-28233150D02*
X8814349Y-28242674D01*
X8814349Y-28242674D02*
X8823873Y-28261722D01*
X8823873Y-28261722D02*
X8823873Y-28366484D01*
X8947682Y-28366484D02*
X8928634Y-28356960D01*
X8928634Y-28356960D02*
X8919111Y-28347436D01*
X8919111Y-28347436D02*
X8909587Y-28328388D01*
X8909587Y-28328388D02*
X8909587Y-28271246D01*
X8909587Y-28271246D02*
X8919111Y-28252198D01*
X8919111Y-28252198D02*
X8928634Y-28242674D01*
X8928634Y-28242674D02*
X8947682Y-28233150D01*
X8947682Y-28233150D02*
X8976254Y-28233150D01*
X8976254Y-28233150D02*
X8995301Y-28242674D01*
X8995301Y-28242674D02*
X9004825Y-28252198D01*
X9004825Y-28252198D02*
X9014349Y-28271246D01*
X9014349Y-28271246D02*
X9014349Y-28328388D01*
X9014349Y-28328388D02*
X9004825Y-28347436D01*
X9004825Y-28347436D02*
X8995301Y-28356960D01*
X8995301Y-28356960D02*
X8976254Y-28366484D01*
X8976254Y-28366484D02*
X8947682Y-28366484D01*
X9071492Y-28233150D02*
X9147682Y-28233150D01*
X9100063Y-28166484D02*
X9100063Y-28337912D01*
X9100063Y-28337912D02*
X9109587Y-28356960D01*
X9109587Y-28356960D02*
X9128634Y-28366484D01*
X9128634Y-28366484D02*
X9147682Y-28366484D01*
X9366730Y-28233150D02*
X9366730Y-28433150D01*
X9366730Y-28242674D02*
X9385777Y-28233150D01*
X9385777Y-28233150D02*
X9423873Y-28233150D01*
X9423873Y-28233150D02*
X9442920Y-28242674D01*
X9442920Y-28242674D02*
X9452444Y-28252198D01*
X9452444Y-28252198D02*
X9461968Y-28271246D01*
X9461968Y-28271246D02*
X9461968Y-28328388D01*
X9461968Y-28328388D02*
X9452444Y-28347436D01*
X9452444Y-28347436D02*
X9442920Y-28356960D01*
X9442920Y-28356960D02*
X9423873Y-28366484D01*
X9423873Y-28366484D02*
X9385777Y-28366484D01*
X9385777Y-28366484D02*
X9366730Y-28356960D01*
X9576254Y-28366484D02*
X9557206Y-28356960D01*
X9557206Y-28356960D02*
X9547682Y-28337912D01*
X9547682Y-28337912D02*
X9547682Y-28166484D01*
X9738158Y-28366484D02*
X9738158Y-28261722D01*
X9738158Y-28261722D02*
X9728635Y-28242674D01*
X9728635Y-28242674D02*
X9709587Y-28233150D01*
X9709587Y-28233150D02*
X9671492Y-28233150D01*
X9671492Y-28233150D02*
X9652444Y-28242674D01*
X9738158Y-28356960D02*
X9719111Y-28366484D01*
X9719111Y-28366484D02*
X9671492Y-28366484D01*
X9671492Y-28366484D02*
X9652444Y-28356960D01*
X9652444Y-28356960D02*
X9642920Y-28337912D01*
X9642920Y-28337912D02*
X9642920Y-28318865D01*
X9642920Y-28318865D02*
X9652444Y-28299817D01*
X9652444Y-28299817D02*
X9671492Y-28290293D01*
X9671492Y-28290293D02*
X9719111Y-28290293D01*
X9719111Y-28290293D02*
X9738158Y-28280769D01*
X9804825Y-28233150D02*
X9881015Y-28233150D01*
X9833396Y-28166484D02*
X9833396Y-28337912D01*
X9833396Y-28337912D02*
X9842920Y-28356960D01*
X9842920Y-28356960D02*
X9861968Y-28366484D01*
X9861968Y-28366484D02*
X9881015Y-28366484D01*
X10023873Y-28356960D02*
X10004825Y-28366484D01*
X10004825Y-28366484D02*
X9966730Y-28366484D01*
X9966730Y-28366484D02*
X9947682Y-28356960D01*
X9947682Y-28356960D02*
X9938158Y-28337912D01*
X9938158Y-28337912D02*
X9938158Y-28261722D01*
X9938158Y-28261722D02*
X9947682Y-28242674D01*
X9947682Y-28242674D02*
X9966730Y-28233150D01*
X9966730Y-28233150D02*
X10004825Y-28233150D01*
X10004825Y-28233150D02*
X10023873Y-28242674D01*
X10023873Y-28242674D02*
X10033396Y-28261722D01*
X10033396Y-28261722D02*
X10033396Y-28280769D01*
X10033396Y-28280769D02*
X9938158Y-28299817D01*
X10204825Y-28366484D02*
X10204825Y-28166484D01*
X10204825Y-28356960D02*
X10185777Y-28366484D01*
X10185777Y-28366484D02*
X10147682Y-28366484D01*
X10147682Y-28366484D02*
X10128635Y-28356960D01*
X10128635Y-28356960D02*
X10119111Y-28347436D01*
X10119111Y-28347436D02*
X10109587Y-28328388D01*
X10109587Y-28328388D02*
X10109587Y-28271246D01*
X10109587Y-28271246D02*
X10119111Y-28252198D01*
X10119111Y-28252198D02*
X10128635Y-28242674D01*
X10128635Y-28242674D02*
X10147682Y-28233150D01*
X10147682Y-28233150D02*
X10185777Y-28233150D01*
X10185777Y-28233150D02*
X10204825Y-28242674D01*
X10281016Y-28442674D02*
X10290539Y-28433150D01*
X10290539Y-28433150D02*
X10309587Y-28404579D01*
X10309587Y-28404579D02*
X10319111Y-28385531D01*
X10319111Y-28385531D02*
X10328635Y-28356960D01*
X10328635Y-28356960D02*
X10338158Y-28309341D01*
X10338158Y-28309341D02*
X10338158Y-28271246D01*
X10338158Y-28271246D02*
X10328635Y-28223627D01*
X10328635Y-28223627D02*
X10319111Y-28195055D01*
X10319111Y-28195055D02*
X10309587Y-28176008D01*
X10309587Y-28176008D02*
X10290539Y-28147436D01*
X10290539Y-28147436D02*
X10281016Y-28137912D01*
D14*
X3508159Y-28579659D02*
X3508159Y-28498341D01*
X3426841Y-28498341D01*
X3426841Y-28579659D01*
X3508159Y-28579659D01*
D11*
X3890539Y-28630484D02*
X3776253Y-28630484D01*
X3833396Y-28630484D02*
X3833396Y-28430484D01*
X3833396Y-28430484D02*
X3814348Y-28459055D01*
X3814348Y-28459055D02*
X3795301Y-28478103D01*
X3795301Y-28478103D02*
X3776253Y-28487627D01*
X3976253Y-28611436D02*
X3985777Y-28620960D01*
X3985777Y-28620960D02*
X3976253Y-28630484D01*
X3976253Y-28630484D02*
X3966729Y-28620960D01*
X3966729Y-28620960D02*
X3976253Y-28611436D01*
X3976253Y-28611436D02*
X3976253Y-28630484D01*
X4176253Y-28630484D02*
X4061967Y-28630484D01*
X4119110Y-28630484D02*
X4119110Y-28430484D01*
X4119110Y-28430484D02*
X4100062Y-28459055D01*
X4100062Y-28459055D02*
X4081015Y-28478103D01*
X4081015Y-28478103D02*
X4061967Y-28487627D01*
X4357205Y-28430484D02*
X4261967Y-28430484D01*
X4261967Y-28430484D02*
X4252444Y-28525722D01*
X4252444Y-28525722D02*
X4261967Y-28516198D01*
X4261967Y-28516198D02*
X4281015Y-28506674D01*
X4281015Y-28506674D02*
X4328634Y-28506674D01*
X4328634Y-28506674D02*
X4347682Y-28516198D01*
X4347682Y-28516198D02*
X4357205Y-28525722D01*
X4357205Y-28525722D02*
X4366729Y-28544769D01*
X4366729Y-28544769D02*
X4366729Y-28592388D01*
X4366729Y-28592388D02*
X4357205Y-28611436D01*
X4357205Y-28611436D02*
X4347682Y-28620960D01*
X4347682Y-28620960D02*
X4328634Y-28630484D01*
X4328634Y-28630484D02*
X4281015Y-28630484D01*
X4281015Y-28630484D02*
X4261967Y-28620960D01*
X4261967Y-28620960D02*
X4252444Y-28611436D01*
X4490539Y-28430484D02*
X4509586Y-28430484D01*
X4509586Y-28430484D02*
X4528634Y-28440008D01*
X4528634Y-28440008D02*
X4538158Y-28449531D01*
X4538158Y-28449531D02*
X4547682Y-28468579D01*
X4547682Y-28468579D02*
X4557205Y-28506674D01*
X4557205Y-28506674D02*
X4557205Y-28554293D01*
X4557205Y-28554293D02*
X4547682Y-28592388D01*
X4547682Y-28592388D02*
X4538158Y-28611436D01*
X4538158Y-28611436D02*
X4528634Y-28620960D01*
X4528634Y-28620960D02*
X4509586Y-28630484D01*
X4509586Y-28630484D02*
X4490539Y-28630484D01*
X4490539Y-28630484D02*
X4471491Y-28620960D01*
X4471491Y-28620960D02*
X4461967Y-28611436D01*
X4461967Y-28611436D02*
X4452444Y-28592388D01*
X4452444Y-28592388D02*
X4442920Y-28554293D01*
X4442920Y-28554293D02*
X4442920Y-28506674D01*
X4442920Y-28506674D02*
X4452444Y-28468579D01*
X4452444Y-28468579D02*
X4461967Y-28449531D01*
X4461967Y-28449531D02*
X4471491Y-28440008D01*
X4471491Y-28440008D02*
X4490539Y-28430484D01*
X4642920Y-28630484D02*
X4642920Y-28497150D01*
X4642920Y-28516198D02*
X4652444Y-28506674D01*
X4652444Y-28506674D02*
X4671491Y-28497150D01*
X4671491Y-28497150D02*
X4700063Y-28497150D01*
X4700063Y-28497150D02*
X4719110Y-28506674D01*
X4719110Y-28506674D02*
X4728634Y-28525722D01*
X4728634Y-28525722D02*
X4728634Y-28630484D01*
X4728634Y-28525722D02*
X4738158Y-28506674D01*
X4738158Y-28506674D02*
X4757205Y-28497150D01*
X4757205Y-28497150D02*
X4785777Y-28497150D01*
X4785777Y-28497150D02*
X4804825Y-28506674D01*
X4804825Y-28506674D02*
X4814348Y-28525722D01*
X4814348Y-28525722D02*
X4814348Y-28630484D01*
X4909586Y-28630484D02*
X4909586Y-28497150D01*
X4909586Y-28516198D02*
X4919110Y-28506674D01*
X4919110Y-28506674D02*
X4938158Y-28497150D01*
X4938158Y-28497150D02*
X4966729Y-28497150D01*
X4966729Y-28497150D02*
X4985777Y-28506674D01*
X4985777Y-28506674D02*
X4995301Y-28525722D01*
X4995301Y-28525722D02*
X4995301Y-28630484D01*
X4995301Y-28525722D02*
X5004825Y-28506674D01*
X5004825Y-28506674D02*
X5023872Y-28497150D01*
X5023872Y-28497150D02*
X5052444Y-28497150D01*
X5052444Y-28497150D02*
X5071491Y-28506674D01*
X5071491Y-28506674D02*
X5081015Y-28525722D01*
X5081015Y-28525722D02*
X5081015Y-28630484D01*
X5471491Y-28420960D02*
X5300063Y-28678103D01*
X5728634Y-28430484D02*
X5747682Y-28430484D01*
X5747682Y-28430484D02*
X5766729Y-28440008D01*
X5766729Y-28440008D02*
X5776253Y-28449531D01*
X5776253Y-28449531D02*
X5785777Y-28468579D01*
X5785777Y-28468579D02*
X5795301Y-28506674D01*
X5795301Y-28506674D02*
X5795301Y-28554293D01*
X5795301Y-28554293D02*
X5785777Y-28592388D01*
X5785777Y-28592388D02*
X5776253Y-28611436D01*
X5776253Y-28611436D02*
X5766729Y-28620960D01*
X5766729Y-28620960D02*
X5747682Y-28630484D01*
X5747682Y-28630484D02*
X5728634Y-28630484D01*
X5728634Y-28630484D02*
X5709586Y-28620960D01*
X5709586Y-28620960D02*
X5700063Y-28611436D01*
X5700063Y-28611436D02*
X5690539Y-28592388D01*
X5690539Y-28592388D02*
X5681015Y-28554293D01*
X5681015Y-28554293D02*
X5681015Y-28506674D01*
X5681015Y-28506674D02*
X5690539Y-28468579D01*
X5690539Y-28468579D02*
X5700063Y-28449531D01*
X5700063Y-28449531D02*
X5709586Y-28440008D01*
X5709586Y-28440008D02*
X5728634Y-28430484D01*
X5881015Y-28611436D02*
X5890539Y-28620960D01*
X5890539Y-28620960D02*
X5881015Y-28630484D01*
X5881015Y-28630484D02*
X5871491Y-28620960D01*
X5871491Y-28620960D02*
X5881015Y-28611436D01*
X5881015Y-28611436D02*
X5881015Y-28630484D01*
X6014348Y-28430484D02*
X6033396Y-28430484D01*
X6033396Y-28430484D02*
X6052444Y-28440008D01*
X6052444Y-28440008D02*
X6061967Y-28449531D01*
X6061967Y-28449531D02*
X6071491Y-28468579D01*
X6071491Y-28468579D02*
X6081015Y-28506674D01*
X6081015Y-28506674D02*
X6081015Y-28554293D01*
X6081015Y-28554293D02*
X6071491Y-28592388D01*
X6071491Y-28592388D02*
X6061967Y-28611436D01*
X6061967Y-28611436D02*
X6052444Y-28620960D01*
X6052444Y-28620960D02*
X6033396Y-28630484D01*
X6033396Y-28630484D02*
X6014348Y-28630484D01*
X6014348Y-28630484D02*
X5995301Y-28620960D01*
X5995301Y-28620960D02*
X5985777Y-28611436D01*
X5985777Y-28611436D02*
X5976253Y-28592388D01*
X5976253Y-28592388D02*
X5966729Y-28554293D01*
X5966729Y-28554293D02*
X5966729Y-28506674D01*
X5966729Y-28506674D02*
X5976253Y-28468579D01*
X5976253Y-28468579D02*
X5985777Y-28449531D01*
X5985777Y-28449531D02*
X5995301Y-28440008D01*
X5995301Y-28440008D02*
X6014348Y-28430484D01*
X6252444Y-28497150D02*
X6252444Y-28630484D01*
X6204825Y-28420960D02*
X6157206Y-28563817D01*
X6157206Y-28563817D02*
X6281015Y-28563817D01*
X6452444Y-28430484D02*
X6357206Y-28430484D01*
X6357206Y-28430484D02*
X6347682Y-28525722D01*
X6347682Y-28525722D02*
X6357206Y-28516198D01*
X6357206Y-28516198D02*
X6376253Y-28506674D01*
X6376253Y-28506674D02*
X6423872Y-28506674D01*
X6423872Y-28506674D02*
X6442920Y-28516198D01*
X6442920Y-28516198D02*
X6452444Y-28525722D01*
X6452444Y-28525722D02*
X6461967Y-28544769D01*
X6461967Y-28544769D02*
X6461967Y-28592388D01*
X6461967Y-28592388D02*
X6452444Y-28611436D01*
X6452444Y-28611436D02*
X6442920Y-28620960D01*
X6442920Y-28620960D02*
X6423872Y-28630484D01*
X6423872Y-28630484D02*
X6376253Y-28630484D01*
X6376253Y-28630484D02*
X6357206Y-28620960D01*
X6357206Y-28620960D02*
X6347682Y-28611436D01*
X6528634Y-28430484D02*
X6652444Y-28430484D01*
X6652444Y-28430484D02*
X6585777Y-28506674D01*
X6585777Y-28506674D02*
X6614348Y-28506674D01*
X6614348Y-28506674D02*
X6633396Y-28516198D01*
X6633396Y-28516198D02*
X6642920Y-28525722D01*
X6642920Y-28525722D02*
X6652444Y-28544769D01*
X6652444Y-28544769D02*
X6652444Y-28592388D01*
X6652444Y-28592388D02*
X6642920Y-28611436D01*
X6642920Y-28611436D02*
X6633396Y-28620960D01*
X6633396Y-28620960D02*
X6614348Y-28630484D01*
X6614348Y-28630484D02*
X6557206Y-28630484D01*
X6557206Y-28630484D02*
X6538158Y-28620960D01*
X6538158Y-28620960D02*
X6528634Y-28611436D01*
X6728634Y-28430484D02*
X6728634Y-28468579D01*
X6804825Y-28430484D02*
X6804825Y-28468579D01*
X7100063Y-28706674D02*
X7090539Y-28697150D01*
X7090539Y-28697150D02*
X7071491Y-28668579D01*
X7071491Y-28668579D02*
X7061968Y-28649531D01*
X7061968Y-28649531D02*
X7052444Y-28620960D01*
X7052444Y-28620960D02*
X7042920Y-28573341D01*
X7042920Y-28573341D02*
X7042920Y-28535246D01*
X7042920Y-28535246D02*
X7052444Y-28487627D01*
X7052444Y-28487627D02*
X7061968Y-28459055D01*
X7061968Y-28459055D02*
X7071491Y-28440008D01*
X7071491Y-28440008D02*
X7090539Y-28411436D01*
X7090539Y-28411436D02*
X7100063Y-28401912D01*
X7281015Y-28630484D02*
X7166729Y-28630484D01*
X7223872Y-28630484D02*
X7223872Y-28430484D01*
X7223872Y-28430484D02*
X7204825Y-28459055D01*
X7204825Y-28459055D02*
X7185777Y-28478103D01*
X7185777Y-28478103D02*
X7166729Y-28487627D01*
X7519110Y-28630484D02*
X7519110Y-28430484D01*
X7604825Y-28630484D02*
X7604825Y-28525722D01*
X7604825Y-28525722D02*
X7595301Y-28506674D01*
X7595301Y-28506674D02*
X7576253Y-28497150D01*
X7576253Y-28497150D02*
X7547682Y-28497150D01*
X7547682Y-28497150D02*
X7528634Y-28506674D01*
X7528634Y-28506674D02*
X7519110Y-28516198D01*
X7728634Y-28630484D02*
X7709587Y-28620960D01*
X7709587Y-28620960D02*
X7700063Y-28611436D01*
X7700063Y-28611436D02*
X7690539Y-28592388D01*
X7690539Y-28592388D02*
X7690539Y-28535246D01*
X7690539Y-28535246D02*
X7700063Y-28516198D01*
X7700063Y-28516198D02*
X7709587Y-28506674D01*
X7709587Y-28506674D02*
X7728634Y-28497150D01*
X7728634Y-28497150D02*
X7757206Y-28497150D01*
X7757206Y-28497150D02*
X7776253Y-28506674D01*
X7776253Y-28506674D02*
X7785777Y-28516198D01*
X7785777Y-28516198D02*
X7795301Y-28535246D01*
X7795301Y-28535246D02*
X7795301Y-28592388D01*
X7795301Y-28592388D02*
X7785777Y-28611436D01*
X7785777Y-28611436D02*
X7776253Y-28620960D01*
X7776253Y-28620960D02*
X7757206Y-28630484D01*
X7757206Y-28630484D02*
X7728634Y-28630484D01*
X7909587Y-28630484D02*
X7890539Y-28620960D01*
X7890539Y-28620960D02*
X7881015Y-28601912D01*
X7881015Y-28601912D02*
X7881015Y-28430484D01*
X8061968Y-28620960D02*
X8042920Y-28630484D01*
X8042920Y-28630484D02*
X8004825Y-28630484D01*
X8004825Y-28630484D02*
X7985777Y-28620960D01*
X7985777Y-28620960D02*
X7976253Y-28601912D01*
X7976253Y-28601912D02*
X7976253Y-28525722D01*
X7976253Y-28525722D02*
X7985777Y-28506674D01*
X7985777Y-28506674D02*
X8004825Y-28497150D01*
X8004825Y-28497150D02*
X8042920Y-28497150D01*
X8042920Y-28497150D02*
X8061968Y-28506674D01*
X8061968Y-28506674D02*
X8071491Y-28525722D01*
X8071491Y-28525722D02*
X8071491Y-28544769D01*
X8071491Y-28544769D02*
X7976253Y-28563817D01*
X8138158Y-28706674D02*
X8147682Y-28697150D01*
X8147682Y-28697150D02*
X8166730Y-28668579D01*
X8166730Y-28668579D02*
X8176253Y-28649531D01*
X8176253Y-28649531D02*
X8185777Y-28620960D01*
X8185777Y-28620960D02*
X8195301Y-28573341D01*
X8195301Y-28573341D02*
X8195301Y-28535246D01*
X8195301Y-28535246D02*
X8185777Y-28487627D01*
X8185777Y-28487627D02*
X8176253Y-28459055D01*
X8176253Y-28459055D02*
X8166730Y-28440008D01*
X8166730Y-28440008D02*
X8147682Y-28411436D01*
X8147682Y-28411436D02*
X8138158Y-28401912D01*
X8500063Y-28706674D02*
X8490539Y-28697150D01*
X8490539Y-28697150D02*
X8471492Y-28668579D01*
X8471492Y-28668579D02*
X8461968Y-28649531D01*
X8461968Y-28649531D02*
X8452444Y-28620960D01*
X8452444Y-28620960D02*
X8442920Y-28573341D01*
X8442920Y-28573341D02*
X8442920Y-28535246D01*
X8442920Y-28535246D02*
X8452444Y-28487627D01*
X8452444Y-28487627D02*
X8461968Y-28459055D01*
X8461968Y-28459055D02*
X8471492Y-28440008D01*
X8471492Y-28440008D02*
X8490539Y-28411436D01*
X8490539Y-28411436D02*
X8500063Y-28401912D01*
X8576253Y-28497150D02*
X8576253Y-28630484D01*
X8576253Y-28516198D02*
X8585777Y-28506674D01*
X8585777Y-28506674D02*
X8604825Y-28497150D01*
X8604825Y-28497150D02*
X8633396Y-28497150D01*
X8633396Y-28497150D02*
X8652444Y-28506674D01*
X8652444Y-28506674D02*
X8661968Y-28525722D01*
X8661968Y-28525722D02*
X8661968Y-28630484D01*
X8785777Y-28630484D02*
X8766730Y-28620960D01*
X8766730Y-28620960D02*
X8757206Y-28611436D01*
X8757206Y-28611436D02*
X8747682Y-28592388D01*
X8747682Y-28592388D02*
X8747682Y-28535246D01*
X8747682Y-28535246D02*
X8757206Y-28516198D01*
X8757206Y-28516198D02*
X8766730Y-28506674D01*
X8766730Y-28506674D02*
X8785777Y-28497150D01*
X8785777Y-28497150D02*
X8814349Y-28497150D01*
X8814349Y-28497150D02*
X8833396Y-28506674D01*
X8833396Y-28506674D02*
X8842920Y-28516198D01*
X8842920Y-28516198D02*
X8852444Y-28535246D01*
X8852444Y-28535246D02*
X8852444Y-28592388D01*
X8852444Y-28592388D02*
X8842920Y-28611436D01*
X8842920Y-28611436D02*
X8833396Y-28620960D01*
X8833396Y-28620960D02*
X8814349Y-28630484D01*
X8814349Y-28630484D02*
X8785777Y-28630484D01*
X8909587Y-28497150D02*
X8985777Y-28497150D01*
X8938158Y-28430484D02*
X8938158Y-28601912D01*
X8938158Y-28601912D02*
X8947682Y-28620960D01*
X8947682Y-28620960D02*
X8966730Y-28630484D01*
X8966730Y-28630484D02*
X8985777Y-28630484D01*
X9204825Y-28497150D02*
X9204825Y-28697150D01*
X9204825Y-28506674D02*
X9223873Y-28497150D01*
X9223873Y-28497150D02*
X9261968Y-28497150D01*
X9261968Y-28497150D02*
X9281015Y-28506674D01*
X9281015Y-28506674D02*
X9290539Y-28516198D01*
X9290539Y-28516198D02*
X9300063Y-28535246D01*
X9300063Y-28535246D02*
X9300063Y-28592388D01*
X9300063Y-28592388D02*
X9290539Y-28611436D01*
X9290539Y-28611436D02*
X9281015Y-28620960D01*
X9281015Y-28620960D02*
X9261968Y-28630484D01*
X9261968Y-28630484D02*
X9223873Y-28630484D01*
X9223873Y-28630484D02*
X9204825Y-28620960D01*
X9414349Y-28630484D02*
X9395301Y-28620960D01*
X9395301Y-28620960D02*
X9385777Y-28601912D01*
X9385777Y-28601912D02*
X9385777Y-28430484D01*
X9576254Y-28630484D02*
X9576254Y-28525722D01*
X9576254Y-28525722D02*
X9566730Y-28506674D01*
X9566730Y-28506674D02*
X9547682Y-28497150D01*
X9547682Y-28497150D02*
X9509587Y-28497150D01*
X9509587Y-28497150D02*
X9490539Y-28506674D01*
X9576254Y-28620960D02*
X9557206Y-28630484D01*
X9557206Y-28630484D02*
X9509587Y-28630484D01*
X9509587Y-28630484D02*
X9490539Y-28620960D01*
X9490539Y-28620960D02*
X9481015Y-28601912D01*
X9481015Y-28601912D02*
X9481015Y-28582865D01*
X9481015Y-28582865D02*
X9490539Y-28563817D01*
X9490539Y-28563817D02*
X9509587Y-28554293D01*
X9509587Y-28554293D02*
X9557206Y-28554293D01*
X9557206Y-28554293D02*
X9576254Y-28544769D01*
X9642920Y-28497150D02*
X9719111Y-28497150D01*
X9671492Y-28430484D02*
X9671492Y-28601912D01*
X9671492Y-28601912D02*
X9681015Y-28620960D01*
X9681015Y-28620960D02*
X9700063Y-28630484D01*
X9700063Y-28630484D02*
X9719111Y-28630484D01*
X9861968Y-28620960D02*
X9842920Y-28630484D01*
X9842920Y-28630484D02*
X9804825Y-28630484D01*
X9804825Y-28630484D02*
X9785777Y-28620960D01*
X9785777Y-28620960D02*
X9776254Y-28601912D01*
X9776254Y-28601912D02*
X9776254Y-28525722D01*
X9776254Y-28525722D02*
X9785777Y-28506674D01*
X9785777Y-28506674D02*
X9804825Y-28497150D01*
X9804825Y-28497150D02*
X9842920Y-28497150D01*
X9842920Y-28497150D02*
X9861968Y-28506674D01*
X9861968Y-28506674D02*
X9871492Y-28525722D01*
X9871492Y-28525722D02*
X9871492Y-28544769D01*
X9871492Y-28544769D02*
X9776254Y-28563817D01*
X10042920Y-28630484D02*
X10042920Y-28430484D01*
X10042920Y-28620960D02*
X10023873Y-28630484D01*
X10023873Y-28630484D02*
X9985777Y-28630484D01*
X9985777Y-28630484D02*
X9966730Y-28620960D01*
X9966730Y-28620960D02*
X9957206Y-28611436D01*
X9957206Y-28611436D02*
X9947682Y-28592388D01*
X9947682Y-28592388D02*
X9947682Y-28535246D01*
X9947682Y-28535246D02*
X9957206Y-28516198D01*
X9957206Y-28516198D02*
X9966730Y-28506674D01*
X9966730Y-28506674D02*
X9985777Y-28497150D01*
X9985777Y-28497150D02*
X10023873Y-28497150D01*
X10023873Y-28497150D02*
X10042920Y-28506674D01*
X10119111Y-28706674D02*
X10128635Y-28697150D01*
X10128635Y-28697150D02*
X10147682Y-28668579D01*
X10147682Y-28668579D02*
X10157206Y-28649531D01*
X10157206Y-28649531D02*
X10166730Y-28620960D01*
X10166730Y-28620960D02*
X10176254Y-28573341D01*
X10176254Y-28573341D02*
X10176254Y-28535246D01*
X10176254Y-28535246D02*
X10166730Y-28487627D01*
X10166730Y-28487627D02*
X10157206Y-28459055D01*
X10157206Y-28459055D02*
X10147682Y-28440008D01*
X10147682Y-28440008D02*
X10128635Y-28411436D01*
X10128635Y-28411436D02*
X10119111Y-28401912D01*
D15*
X3445000Y-28883000D02*
X3525000Y-28803000D01*
X3445000Y-28723000D01*
X3365000Y-28803000D01*
X3445000Y-28883000D01*
D11*
X3890539Y-28894484D02*
X3776253Y-28894484D01*
X3833396Y-28894484D02*
X3833396Y-28694484D01*
X3833396Y-28694484D02*
X3814348Y-28723055D01*
X3814348Y-28723055D02*
X3795301Y-28742103D01*
X3795301Y-28742103D02*
X3776253Y-28751627D01*
X3976253Y-28875436D02*
X3985777Y-28884960D01*
X3985777Y-28884960D02*
X3976253Y-28894484D01*
X3976253Y-28894484D02*
X3966729Y-28884960D01*
X3966729Y-28884960D02*
X3976253Y-28875436D01*
X3976253Y-28875436D02*
X3976253Y-28894484D01*
X4157205Y-28694484D02*
X4119110Y-28694484D01*
X4119110Y-28694484D02*
X4100062Y-28704008D01*
X4100062Y-28704008D02*
X4090539Y-28713531D01*
X4090539Y-28713531D02*
X4071491Y-28742103D01*
X4071491Y-28742103D02*
X4061967Y-28780198D01*
X4061967Y-28780198D02*
X4061967Y-28856388D01*
X4061967Y-28856388D02*
X4071491Y-28875436D01*
X4071491Y-28875436D02*
X4081015Y-28884960D01*
X4081015Y-28884960D02*
X4100062Y-28894484D01*
X4100062Y-28894484D02*
X4138158Y-28894484D01*
X4138158Y-28894484D02*
X4157205Y-28884960D01*
X4157205Y-28884960D02*
X4166729Y-28875436D01*
X4166729Y-28875436D02*
X4176253Y-28856388D01*
X4176253Y-28856388D02*
X4176253Y-28808769D01*
X4176253Y-28808769D02*
X4166729Y-28789722D01*
X4166729Y-28789722D02*
X4157205Y-28780198D01*
X4157205Y-28780198D02*
X4138158Y-28770674D01*
X4138158Y-28770674D02*
X4100062Y-28770674D01*
X4100062Y-28770674D02*
X4081015Y-28780198D01*
X4081015Y-28780198D02*
X4071491Y-28789722D01*
X4071491Y-28789722D02*
X4061967Y-28808769D01*
X4300063Y-28694484D02*
X4319110Y-28694484D01*
X4319110Y-28694484D02*
X4338158Y-28704008D01*
X4338158Y-28704008D02*
X4347682Y-28713531D01*
X4347682Y-28713531D02*
X4357205Y-28732579D01*
X4357205Y-28732579D02*
X4366729Y-28770674D01*
X4366729Y-28770674D02*
X4366729Y-28818293D01*
X4366729Y-28818293D02*
X4357205Y-28856388D01*
X4357205Y-28856388D02*
X4347682Y-28875436D01*
X4347682Y-28875436D02*
X4338158Y-28884960D01*
X4338158Y-28884960D02*
X4319110Y-28894484D01*
X4319110Y-28894484D02*
X4300063Y-28894484D01*
X4300063Y-28894484D02*
X4281015Y-28884960D01*
X4281015Y-28884960D02*
X4271491Y-28875436D01*
X4271491Y-28875436D02*
X4261967Y-28856388D01*
X4261967Y-28856388D02*
X4252444Y-28818293D01*
X4252444Y-28818293D02*
X4252444Y-28770674D01*
X4252444Y-28770674D02*
X4261967Y-28732579D01*
X4261967Y-28732579D02*
X4271491Y-28713531D01*
X4271491Y-28713531D02*
X4281015Y-28704008D01*
X4281015Y-28704008D02*
X4300063Y-28694484D01*
X4490539Y-28694484D02*
X4509586Y-28694484D01*
X4509586Y-28694484D02*
X4528634Y-28704008D01*
X4528634Y-28704008D02*
X4538158Y-28713531D01*
X4538158Y-28713531D02*
X4547682Y-28732579D01*
X4547682Y-28732579D02*
X4557205Y-28770674D01*
X4557205Y-28770674D02*
X4557205Y-28818293D01*
X4557205Y-28818293D02*
X4547682Y-28856388D01*
X4547682Y-28856388D02*
X4538158Y-28875436D01*
X4538158Y-28875436D02*
X4528634Y-28884960D01*
X4528634Y-28884960D02*
X4509586Y-28894484D01*
X4509586Y-28894484D02*
X4490539Y-28894484D01*
X4490539Y-28894484D02*
X4471491Y-28884960D01*
X4471491Y-28884960D02*
X4461967Y-28875436D01*
X4461967Y-28875436D02*
X4452444Y-28856388D01*
X4452444Y-28856388D02*
X4442920Y-28818293D01*
X4442920Y-28818293D02*
X4442920Y-28770674D01*
X4442920Y-28770674D02*
X4452444Y-28732579D01*
X4452444Y-28732579D02*
X4461967Y-28713531D01*
X4461967Y-28713531D02*
X4471491Y-28704008D01*
X4471491Y-28704008D02*
X4490539Y-28694484D01*
X4642920Y-28894484D02*
X4642920Y-28761150D01*
X4642920Y-28780198D02*
X4652444Y-28770674D01*
X4652444Y-28770674D02*
X4671491Y-28761150D01*
X4671491Y-28761150D02*
X4700063Y-28761150D01*
X4700063Y-28761150D02*
X4719110Y-28770674D01*
X4719110Y-28770674D02*
X4728634Y-28789722D01*
X4728634Y-28789722D02*
X4728634Y-28894484D01*
X4728634Y-28789722D02*
X4738158Y-28770674D01*
X4738158Y-28770674D02*
X4757205Y-28761150D01*
X4757205Y-28761150D02*
X4785777Y-28761150D01*
X4785777Y-28761150D02*
X4804825Y-28770674D01*
X4804825Y-28770674D02*
X4814348Y-28789722D01*
X4814348Y-28789722D02*
X4814348Y-28894484D01*
X4909586Y-28894484D02*
X4909586Y-28761150D01*
X4909586Y-28780198D02*
X4919110Y-28770674D01*
X4919110Y-28770674D02*
X4938158Y-28761150D01*
X4938158Y-28761150D02*
X4966729Y-28761150D01*
X4966729Y-28761150D02*
X4985777Y-28770674D01*
X4985777Y-28770674D02*
X4995301Y-28789722D01*
X4995301Y-28789722D02*
X4995301Y-28894484D01*
X4995301Y-28789722D02*
X5004825Y-28770674D01*
X5004825Y-28770674D02*
X5023872Y-28761150D01*
X5023872Y-28761150D02*
X5052444Y-28761150D01*
X5052444Y-28761150D02*
X5071491Y-28770674D01*
X5071491Y-28770674D02*
X5081015Y-28789722D01*
X5081015Y-28789722D02*
X5081015Y-28894484D01*
X5471491Y-28684960D02*
X5300063Y-28942103D01*
X5728634Y-28694484D02*
X5747682Y-28694484D01*
X5747682Y-28694484D02*
X5766729Y-28704008D01*
X5766729Y-28704008D02*
X5776253Y-28713531D01*
X5776253Y-28713531D02*
X5785777Y-28732579D01*
X5785777Y-28732579D02*
X5795301Y-28770674D01*
X5795301Y-28770674D02*
X5795301Y-28818293D01*
X5795301Y-28818293D02*
X5785777Y-28856388D01*
X5785777Y-28856388D02*
X5776253Y-28875436D01*
X5776253Y-28875436D02*
X5766729Y-28884960D01*
X5766729Y-28884960D02*
X5747682Y-28894484D01*
X5747682Y-28894484D02*
X5728634Y-28894484D01*
X5728634Y-28894484D02*
X5709586Y-28884960D01*
X5709586Y-28884960D02*
X5700063Y-28875436D01*
X5700063Y-28875436D02*
X5690539Y-28856388D01*
X5690539Y-28856388D02*
X5681015Y-28818293D01*
X5681015Y-28818293D02*
X5681015Y-28770674D01*
X5681015Y-28770674D02*
X5690539Y-28732579D01*
X5690539Y-28732579D02*
X5700063Y-28713531D01*
X5700063Y-28713531D02*
X5709586Y-28704008D01*
X5709586Y-28704008D02*
X5728634Y-28694484D01*
X5881015Y-28875436D02*
X5890539Y-28884960D01*
X5890539Y-28884960D02*
X5881015Y-28894484D01*
X5881015Y-28894484D02*
X5871491Y-28884960D01*
X5871491Y-28884960D02*
X5881015Y-28875436D01*
X5881015Y-28875436D02*
X5881015Y-28894484D01*
X6014348Y-28694484D02*
X6033396Y-28694484D01*
X6033396Y-28694484D02*
X6052444Y-28704008D01*
X6052444Y-28704008D02*
X6061967Y-28713531D01*
X6061967Y-28713531D02*
X6071491Y-28732579D01*
X6071491Y-28732579D02*
X6081015Y-28770674D01*
X6081015Y-28770674D02*
X6081015Y-28818293D01*
X6081015Y-28818293D02*
X6071491Y-28856388D01*
X6071491Y-28856388D02*
X6061967Y-28875436D01*
X6061967Y-28875436D02*
X6052444Y-28884960D01*
X6052444Y-28884960D02*
X6033396Y-28894484D01*
X6033396Y-28894484D02*
X6014348Y-28894484D01*
X6014348Y-28894484D02*
X5995301Y-28884960D01*
X5995301Y-28884960D02*
X5985777Y-28875436D01*
X5985777Y-28875436D02*
X5976253Y-28856388D01*
X5976253Y-28856388D02*
X5966729Y-28818293D01*
X5966729Y-28818293D02*
X5966729Y-28770674D01*
X5966729Y-28770674D02*
X5976253Y-28732579D01*
X5976253Y-28732579D02*
X5985777Y-28713531D01*
X5985777Y-28713531D02*
X5995301Y-28704008D01*
X5995301Y-28704008D02*
X6014348Y-28694484D01*
X6252444Y-28694484D02*
X6214348Y-28694484D01*
X6214348Y-28694484D02*
X6195301Y-28704008D01*
X6195301Y-28704008D02*
X6185777Y-28713531D01*
X6185777Y-28713531D02*
X6166729Y-28742103D01*
X6166729Y-28742103D02*
X6157206Y-28780198D01*
X6157206Y-28780198D02*
X6157206Y-28856388D01*
X6157206Y-28856388D02*
X6166729Y-28875436D01*
X6166729Y-28875436D02*
X6176253Y-28884960D01*
X6176253Y-28884960D02*
X6195301Y-28894484D01*
X6195301Y-28894484D02*
X6233396Y-28894484D01*
X6233396Y-28894484D02*
X6252444Y-28884960D01*
X6252444Y-28884960D02*
X6261967Y-28875436D01*
X6261967Y-28875436D02*
X6271491Y-28856388D01*
X6271491Y-28856388D02*
X6271491Y-28808769D01*
X6271491Y-28808769D02*
X6261967Y-28789722D01*
X6261967Y-28789722D02*
X6252444Y-28780198D01*
X6252444Y-28780198D02*
X6233396Y-28770674D01*
X6233396Y-28770674D02*
X6195301Y-28770674D01*
X6195301Y-28770674D02*
X6176253Y-28780198D01*
X6176253Y-28780198D02*
X6166729Y-28789722D01*
X6166729Y-28789722D02*
X6157206Y-28808769D01*
X6338158Y-28694484D02*
X6461967Y-28694484D01*
X6461967Y-28694484D02*
X6395301Y-28770674D01*
X6395301Y-28770674D02*
X6423872Y-28770674D01*
X6423872Y-28770674D02*
X6442920Y-28780198D01*
X6442920Y-28780198D02*
X6452444Y-28789722D01*
X6452444Y-28789722D02*
X6461967Y-28808769D01*
X6461967Y-28808769D02*
X6461967Y-28856388D01*
X6461967Y-28856388D02*
X6452444Y-28875436D01*
X6452444Y-28875436D02*
X6442920Y-28884960D01*
X6442920Y-28884960D02*
X6423872Y-28894484D01*
X6423872Y-28894484D02*
X6366729Y-28894484D01*
X6366729Y-28894484D02*
X6347682Y-28884960D01*
X6347682Y-28884960D02*
X6338158Y-28875436D01*
X6585777Y-28694484D02*
X6604825Y-28694484D01*
X6604825Y-28694484D02*
X6623872Y-28704008D01*
X6623872Y-28704008D02*
X6633396Y-28713531D01*
X6633396Y-28713531D02*
X6642920Y-28732579D01*
X6642920Y-28732579D02*
X6652444Y-28770674D01*
X6652444Y-28770674D02*
X6652444Y-28818293D01*
X6652444Y-28818293D02*
X6642920Y-28856388D01*
X6642920Y-28856388D02*
X6633396Y-28875436D01*
X6633396Y-28875436D02*
X6623872Y-28884960D01*
X6623872Y-28884960D02*
X6604825Y-28894484D01*
X6604825Y-28894484D02*
X6585777Y-28894484D01*
X6585777Y-28894484D02*
X6566729Y-28884960D01*
X6566729Y-28884960D02*
X6557206Y-28875436D01*
X6557206Y-28875436D02*
X6547682Y-28856388D01*
X6547682Y-28856388D02*
X6538158Y-28818293D01*
X6538158Y-28818293D02*
X6538158Y-28770674D01*
X6538158Y-28770674D02*
X6547682Y-28732579D01*
X6547682Y-28732579D02*
X6557206Y-28713531D01*
X6557206Y-28713531D02*
X6566729Y-28704008D01*
X6566729Y-28704008D02*
X6585777Y-28694484D01*
X6728634Y-28694484D02*
X6728634Y-28732579D01*
X6804825Y-28694484D02*
X6804825Y-28732579D01*
X7100063Y-28970674D02*
X7090539Y-28961150D01*
X7090539Y-28961150D02*
X7071491Y-28932579D01*
X7071491Y-28932579D02*
X7061968Y-28913531D01*
X7061968Y-28913531D02*
X7052444Y-28884960D01*
X7052444Y-28884960D02*
X7042920Y-28837341D01*
X7042920Y-28837341D02*
X7042920Y-28799246D01*
X7042920Y-28799246D02*
X7052444Y-28751627D01*
X7052444Y-28751627D02*
X7061968Y-28723055D01*
X7061968Y-28723055D02*
X7071491Y-28704008D01*
X7071491Y-28704008D02*
X7090539Y-28675436D01*
X7090539Y-28675436D02*
X7100063Y-28665912D01*
X7261968Y-28761150D02*
X7261968Y-28894484D01*
X7214348Y-28684960D02*
X7166729Y-28827817D01*
X7166729Y-28827817D02*
X7290539Y-28827817D01*
X7519110Y-28894484D02*
X7519110Y-28694484D01*
X7604825Y-28894484D02*
X7604825Y-28789722D01*
X7604825Y-28789722D02*
X7595301Y-28770674D01*
X7595301Y-28770674D02*
X7576253Y-28761150D01*
X7576253Y-28761150D02*
X7547682Y-28761150D01*
X7547682Y-28761150D02*
X7528634Y-28770674D01*
X7528634Y-28770674D02*
X7519110Y-28780198D01*
X7728634Y-28894484D02*
X7709587Y-28884960D01*
X7709587Y-28884960D02*
X7700063Y-28875436D01*
X7700063Y-28875436D02*
X7690539Y-28856388D01*
X7690539Y-28856388D02*
X7690539Y-28799246D01*
X7690539Y-28799246D02*
X7700063Y-28780198D01*
X7700063Y-28780198D02*
X7709587Y-28770674D01*
X7709587Y-28770674D02*
X7728634Y-28761150D01*
X7728634Y-28761150D02*
X7757206Y-28761150D01*
X7757206Y-28761150D02*
X7776253Y-28770674D01*
X7776253Y-28770674D02*
X7785777Y-28780198D01*
X7785777Y-28780198D02*
X7795301Y-28799246D01*
X7795301Y-28799246D02*
X7795301Y-28856388D01*
X7795301Y-28856388D02*
X7785777Y-28875436D01*
X7785777Y-28875436D02*
X7776253Y-28884960D01*
X7776253Y-28884960D02*
X7757206Y-28894484D01*
X7757206Y-28894484D02*
X7728634Y-28894484D01*
X7909587Y-28894484D02*
X7890539Y-28884960D01*
X7890539Y-28884960D02*
X7881015Y-28865912D01*
X7881015Y-28865912D02*
X7881015Y-28694484D01*
X8061968Y-28884960D02*
X8042920Y-28894484D01*
X8042920Y-28894484D02*
X8004825Y-28894484D01*
X8004825Y-28894484D02*
X7985777Y-28884960D01*
X7985777Y-28884960D02*
X7976253Y-28865912D01*
X7976253Y-28865912D02*
X7976253Y-28789722D01*
X7976253Y-28789722D02*
X7985777Y-28770674D01*
X7985777Y-28770674D02*
X8004825Y-28761150D01*
X8004825Y-28761150D02*
X8042920Y-28761150D01*
X8042920Y-28761150D02*
X8061968Y-28770674D01*
X8061968Y-28770674D02*
X8071491Y-28789722D01*
X8071491Y-28789722D02*
X8071491Y-28808769D01*
X8071491Y-28808769D02*
X7976253Y-28827817D01*
X8147682Y-28884960D02*
X8166730Y-28894484D01*
X8166730Y-28894484D02*
X8204825Y-28894484D01*
X8204825Y-28894484D02*
X8223872Y-28884960D01*
X8223872Y-28884960D02*
X8233396Y-28865912D01*
X8233396Y-28865912D02*
X8233396Y-28856388D01*
X8233396Y-28856388D02*
X8223872Y-28837341D01*
X8223872Y-28837341D02*
X8204825Y-28827817D01*
X8204825Y-28827817D02*
X8176253Y-28827817D01*
X8176253Y-28827817D02*
X8157206Y-28818293D01*
X8157206Y-28818293D02*
X8147682Y-28799246D01*
X8147682Y-28799246D02*
X8147682Y-28789722D01*
X8147682Y-28789722D02*
X8157206Y-28770674D01*
X8157206Y-28770674D02*
X8176253Y-28761150D01*
X8176253Y-28761150D02*
X8204825Y-28761150D01*
X8204825Y-28761150D02*
X8223872Y-28770674D01*
X8300063Y-28970674D02*
X8309587Y-28961150D01*
X8309587Y-28961150D02*
X8328634Y-28932579D01*
X8328634Y-28932579D02*
X8338158Y-28913531D01*
X8338158Y-28913531D02*
X8347682Y-28884960D01*
X8347682Y-28884960D02*
X8357206Y-28837341D01*
X8357206Y-28837341D02*
X8357206Y-28799246D01*
X8357206Y-28799246D02*
X8347682Y-28751627D01*
X8347682Y-28751627D02*
X8338158Y-28723055D01*
X8338158Y-28723055D02*
X8328634Y-28704008D01*
X8328634Y-28704008D02*
X8309587Y-28675436D01*
X8309587Y-28675436D02*
X8300063Y-28665912D01*
X8661968Y-28970674D02*
X8652444Y-28961150D01*
X8652444Y-28961150D02*
X8633396Y-28932579D01*
X8633396Y-28932579D02*
X8623873Y-28913531D01*
X8623873Y-28913531D02*
X8614349Y-28884960D01*
X8614349Y-28884960D02*
X8604825Y-28837341D01*
X8604825Y-28837341D02*
X8604825Y-28799246D01*
X8604825Y-28799246D02*
X8614349Y-28751627D01*
X8614349Y-28751627D02*
X8623873Y-28723055D01*
X8623873Y-28723055D02*
X8633396Y-28704008D01*
X8633396Y-28704008D02*
X8652444Y-28675436D01*
X8652444Y-28675436D02*
X8661968Y-28665912D01*
X8738158Y-28761150D02*
X8738158Y-28894484D01*
X8738158Y-28780198D02*
X8747682Y-28770674D01*
X8747682Y-28770674D02*
X8766730Y-28761150D01*
X8766730Y-28761150D02*
X8795301Y-28761150D01*
X8795301Y-28761150D02*
X8814349Y-28770674D01*
X8814349Y-28770674D02*
X8823873Y-28789722D01*
X8823873Y-28789722D02*
X8823873Y-28894484D01*
X8947682Y-28894484D02*
X8928634Y-28884960D01*
X8928634Y-28884960D02*
X8919111Y-28875436D01*
X8919111Y-28875436D02*
X8909587Y-28856388D01*
X8909587Y-28856388D02*
X8909587Y-28799246D01*
X8909587Y-28799246D02*
X8919111Y-28780198D01*
X8919111Y-28780198D02*
X8928634Y-28770674D01*
X8928634Y-28770674D02*
X8947682Y-28761150D01*
X8947682Y-28761150D02*
X8976254Y-28761150D01*
X8976254Y-28761150D02*
X8995301Y-28770674D01*
X8995301Y-28770674D02*
X9004825Y-28780198D01*
X9004825Y-28780198D02*
X9014349Y-28799246D01*
X9014349Y-28799246D02*
X9014349Y-28856388D01*
X9014349Y-28856388D02*
X9004825Y-28875436D01*
X9004825Y-28875436D02*
X8995301Y-28884960D01*
X8995301Y-28884960D02*
X8976254Y-28894484D01*
X8976254Y-28894484D02*
X8947682Y-28894484D01*
X9071492Y-28761150D02*
X9147682Y-28761150D01*
X9100063Y-28694484D02*
X9100063Y-28865912D01*
X9100063Y-28865912D02*
X9109587Y-28884960D01*
X9109587Y-28884960D02*
X9128634Y-28894484D01*
X9128634Y-28894484D02*
X9147682Y-28894484D01*
X9366730Y-28761150D02*
X9366730Y-28961150D01*
X9366730Y-28770674D02*
X9385777Y-28761150D01*
X9385777Y-28761150D02*
X9423873Y-28761150D01*
X9423873Y-28761150D02*
X9442920Y-28770674D01*
X9442920Y-28770674D02*
X9452444Y-28780198D01*
X9452444Y-28780198D02*
X9461968Y-28799246D01*
X9461968Y-28799246D02*
X9461968Y-28856388D01*
X9461968Y-28856388D02*
X9452444Y-28875436D01*
X9452444Y-28875436D02*
X9442920Y-28884960D01*
X9442920Y-28884960D02*
X9423873Y-28894484D01*
X9423873Y-28894484D02*
X9385777Y-28894484D01*
X9385777Y-28894484D02*
X9366730Y-28884960D01*
X9576254Y-28894484D02*
X9557206Y-28884960D01*
X9557206Y-28884960D02*
X9547682Y-28865912D01*
X9547682Y-28865912D02*
X9547682Y-28694484D01*
X9738158Y-28894484D02*
X9738158Y-28789722D01*
X9738158Y-28789722D02*
X9728635Y-28770674D01*
X9728635Y-28770674D02*
X9709587Y-28761150D01*
X9709587Y-28761150D02*
X9671492Y-28761150D01*
X9671492Y-28761150D02*
X9652444Y-28770674D01*
X9738158Y-28884960D02*
X9719111Y-28894484D01*
X9719111Y-28894484D02*
X9671492Y-28894484D01*
X9671492Y-28894484D02*
X9652444Y-28884960D01*
X9652444Y-28884960D02*
X9642920Y-28865912D01*
X9642920Y-28865912D02*
X9642920Y-28846865D01*
X9642920Y-28846865D02*
X9652444Y-28827817D01*
X9652444Y-28827817D02*
X9671492Y-28818293D01*
X9671492Y-28818293D02*
X9719111Y-28818293D01*
X9719111Y-28818293D02*
X9738158Y-28808769D01*
X9804825Y-28761150D02*
X9881015Y-28761150D01*
X9833396Y-28694484D02*
X9833396Y-28865912D01*
X9833396Y-28865912D02*
X9842920Y-28884960D01*
X9842920Y-28884960D02*
X9861968Y-28894484D01*
X9861968Y-28894484D02*
X9881015Y-28894484D01*
X10023873Y-28884960D02*
X10004825Y-28894484D01*
X10004825Y-28894484D02*
X9966730Y-28894484D01*
X9966730Y-28894484D02*
X9947682Y-28884960D01*
X9947682Y-28884960D02*
X9938158Y-28865912D01*
X9938158Y-28865912D02*
X9938158Y-28789722D01*
X9938158Y-28789722D02*
X9947682Y-28770674D01*
X9947682Y-28770674D02*
X9966730Y-28761150D01*
X9966730Y-28761150D02*
X10004825Y-28761150D01*
X10004825Y-28761150D02*
X10023873Y-28770674D01*
X10023873Y-28770674D02*
X10033396Y-28789722D01*
X10033396Y-28789722D02*
X10033396Y-28808769D01*
X10033396Y-28808769D02*
X9938158Y-28827817D01*
X10204825Y-28894484D02*
X10204825Y-28694484D01*
X10204825Y-28884960D02*
X10185777Y-28894484D01*
X10185777Y-28894484D02*
X10147682Y-28894484D01*
X10147682Y-28894484D02*
X10128635Y-28884960D01*
X10128635Y-28884960D02*
X10119111Y-28875436D01*
X10119111Y-28875436D02*
X10109587Y-28856388D01*
X10109587Y-28856388D02*
X10109587Y-28799246D01*
X10109587Y-28799246D02*
X10119111Y-28780198D01*
X10119111Y-28780198D02*
X10128635Y-28770674D01*
X10128635Y-28770674D02*
X10147682Y-28761150D01*
X10147682Y-28761150D02*
X10185777Y-28761150D01*
X10185777Y-28761150D02*
X10204825Y-28770674D01*
X10281016Y-28970674D02*
X10290539Y-28961150D01*
X10290539Y-28961150D02*
X10309587Y-28932579D01*
X10309587Y-28932579D02*
X10319111Y-28913531D01*
X10319111Y-28913531D02*
X10328635Y-28884960D01*
X10328635Y-28884960D02*
X10338158Y-28837341D01*
X10338158Y-28837341D02*
X10338158Y-28799246D01*
X10338158Y-28799246D02*
X10328635Y-28751627D01*
X10328635Y-28751627D02*
X10319111Y-28723055D01*
X10319111Y-28723055D02*
X10309587Y-28704008D01*
X10309587Y-28704008D02*
X10290539Y-28675436D01*
X10290539Y-28675436D02*
X10281016Y-28665912D01*
D16*
X3360000Y-29000500D02*
X3525000Y-29165500D01*
X3525000Y-29000500D02*
X3360000Y-29165500D01*
X3525000Y-29083000D02*
G75*
G03*
X3525000Y-29083000I-82500J0D01*
G01*
D11*
X3890539Y-29174484D02*
X3776253Y-29174484D01*
X3833396Y-29174484D02*
X3833396Y-28974484D01*
X3833396Y-28974484D02*
X3814348Y-29003055D01*
X3814348Y-29003055D02*
X3795301Y-29022103D01*
X3795301Y-29022103D02*
X3776253Y-29031627D01*
X3976253Y-29155436D02*
X3985777Y-29164960D01*
X3985777Y-29164960D02*
X3976253Y-29174484D01*
X3976253Y-29174484D02*
X3966729Y-29164960D01*
X3966729Y-29164960D02*
X3976253Y-29155436D01*
X3976253Y-29155436D02*
X3976253Y-29174484D01*
X4157205Y-28974484D02*
X4119110Y-28974484D01*
X4119110Y-28974484D02*
X4100062Y-28984008D01*
X4100062Y-28984008D02*
X4090539Y-28993531D01*
X4090539Y-28993531D02*
X4071491Y-29022103D01*
X4071491Y-29022103D02*
X4061967Y-29060198D01*
X4061967Y-29060198D02*
X4061967Y-29136388D01*
X4061967Y-29136388D02*
X4071491Y-29155436D01*
X4071491Y-29155436D02*
X4081015Y-29164960D01*
X4081015Y-29164960D02*
X4100062Y-29174484D01*
X4100062Y-29174484D02*
X4138158Y-29174484D01*
X4138158Y-29174484D02*
X4157205Y-29164960D01*
X4157205Y-29164960D02*
X4166729Y-29155436D01*
X4166729Y-29155436D02*
X4176253Y-29136388D01*
X4176253Y-29136388D02*
X4176253Y-29088769D01*
X4176253Y-29088769D02*
X4166729Y-29069722D01*
X4166729Y-29069722D02*
X4157205Y-29060198D01*
X4157205Y-29060198D02*
X4138158Y-29050674D01*
X4138158Y-29050674D02*
X4100062Y-29050674D01*
X4100062Y-29050674D02*
X4081015Y-29060198D01*
X4081015Y-29060198D02*
X4071491Y-29069722D01*
X4071491Y-29069722D02*
X4061967Y-29088769D01*
X4357205Y-28974484D02*
X4261967Y-28974484D01*
X4261967Y-28974484D02*
X4252444Y-29069722D01*
X4252444Y-29069722D02*
X4261967Y-29060198D01*
X4261967Y-29060198D02*
X4281015Y-29050674D01*
X4281015Y-29050674D02*
X4328634Y-29050674D01*
X4328634Y-29050674D02*
X4347682Y-29060198D01*
X4347682Y-29060198D02*
X4357205Y-29069722D01*
X4357205Y-29069722D02*
X4366729Y-29088769D01*
X4366729Y-29088769D02*
X4366729Y-29136388D01*
X4366729Y-29136388D02*
X4357205Y-29155436D01*
X4357205Y-29155436D02*
X4347682Y-29164960D01*
X4347682Y-29164960D02*
X4328634Y-29174484D01*
X4328634Y-29174484D02*
X4281015Y-29174484D01*
X4281015Y-29174484D02*
X4261967Y-29164960D01*
X4261967Y-29164960D02*
X4252444Y-29155436D01*
X4490539Y-28974484D02*
X4509586Y-28974484D01*
X4509586Y-28974484D02*
X4528634Y-28984008D01*
X4528634Y-28984008D02*
X4538158Y-28993531D01*
X4538158Y-28993531D02*
X4547682Y-29012579D01*
X4547682Y-29012579D02*
X4557205Y-29050674D01*
X4557205Y-29050674D02*
X4557205Y-29098293D01*
X4557205Y-29098293D02*
X4547682Y-29136388D01*
X4547682Y-29136388D02*
X4538158Y-29155436D01*
X4538158Y-29155436D02*
X4528634Y-29164960D01*
X4528634Y-29164960D02*
X4509586Y-29174484D01*
X4509586Y-29174484D02*
X4490539Y-29174484D01*
X4490539Y-29174484D02*
X4471491Y-29164960D01*
X4471491Y-29164960D02*
X4461967Y-29155436D01*
X4461967Y-29155436D02*
X4452444Y-29136388D01*
X4452444Y-29136388D02*
X4442920Y-29098293D01*
X4442920Y-29098293D02*
X4442920Y-29050674D01*
X4442920Y-29050674D02*
X4452444Y-29012579D01*
X4452444Y-29012579D02*
X4461967Y-28993531D01*
X4461967Y-28993531D02*
X4471491Y-28984008D01*
X4471491Y-28984008D02*
X4490539Y-28974484D01*
X4642920Y-29174484D02*
X4642920Y-29041150D01*
X4642920Y-29060198D02*
X4652444Y-29050674D01*
X4652444Y-29050674D02*
X4671491Y-29041150D01*
X4671491Y-29041150D02*
X4700063Y-29041150D01*
X4700063Y-29041150D02*
X4719110Y-29050674D01*
X4719110Y-29050674D02*
X4728634Y-29069722D01*
X4728634Y-29069722D02*
X4728634Y-29174484D01*
X4728634Y-29069722D02*
X4738158Y-29050674D01*
X4738158Y-29050674D02*
X4757205Y-29041150D01*
X4757205Y-29041150D02*
X4785777Y-29041150D01*
X4785777Y-29041150D02*
X4804825Y-29050674D01*
X4804825Y-29050674D02*
X4814348Y-29069722D01*
X4814348Y-29069722D02*
X4814348Y-29174484D01*
X4909586Y-29174484D02*
X4909586Y-29041150D01*
X4909586Y-29060198D02*
X4919110Y-29050674D01*
X4919110Y-29050674D02*
X4938158Y-29041150D01*
X4938158Y-29041150D02*
X4966729Y-29041150D01*
X4966729Y-29041150D02*
X4985777Y-29050674D01*
X4985777Y-29050674D02*
X4995301Y-29069722D01*
X4995301Y-29069722D02*
X4995301Y-29174484D01*
X4995301Y-29069722D02*
X5004825Y-29050674D01*
X5004825Y-29050674D02*
X5023872Y-29041150D01*
X5023872Y-29041150D02*
X5052444Y-29041150D01*
X5052444Y-29041150D02*
X5071491Y-29050674D01*
X5071491Y-29050674D02*
X5081015Y-29069722D01*
X5081015Y-29069722D02*
X5081015Y-29174484D01*
X5471491Y-28964960D02*
X5300063Y-29222103D01*
X5728634Y-28974484D02*
X5747682Y-28974484D01*
X5747682Y-28974484D02*
X5766729Y-28984008D01*
X5766729Y-28984008D02*
X5776253Y-28993531D01*
X5776253Y-28993531D02*
X5785777Y-29012579D01*
X5785777Y-29012579D02*
X5795301Y-29050674D01*
X5795301Y-29050674D02*
X5795301Y-29098293D01*
X5795301Y-29098293D02*
X5785777Y-29136388D01*
X5785777Y-29136388D02*
X5776253Y-29155436D01*
X5776253Y-29155436D02*
X5766729Y-29164960D01*
X5766729Y-29164960D02*
X5747682Y-29174484D01*
X5747682Y-29174484D02*
X5728634Y-29174484D01*
X5728634Y-29174484D02*
X5709586Y-29164960D01*
X5709586Y-29164960D02*
X5700063Y-29155436D01*
X5700063Y-29155436D02*
X5690539Y-29136388D01*
X5690539Y-29136388D02*
X5681015Y-29098293D01*
X5681015Y-29098293D02*
X5681015Y-29050674D01*
X5681015Y-29050674D02*
X5690539Y-29012579D01*
X5690539Y-29012579D02*
X5700063Y-28993531D01*
X5700063Y-28993531D02*
X5709586Y-28984008D01*
X5709586Y-28984008D02*
X5728634Y-28974484D01*
X5881015Y-29155436D02*
X5890539Y-29164960D01*
X5890539Y-29164960D02*
X5881015Y-29174484D01*
X5881015Y-29174484D02*
X5871491Y-29164960D01*
X5871491Y-29164960D02*
X5881015Y-29155436D01*
X5881015Y-29155436D02*
X5881015Y-29174484D01*
X6014348Y-28974484D02*
X6033396Y-28974484D01*
X6033396Y-28974484D02*
X6052444Y-28984008D01*
X6052444Y-28984008D02*
X6061967Y-28993531D01*
X6061967Y-28993531D02*
X6071491Y-29012579D01*
X6071491Y-29012579D02*
X6081015Y-29050674D01*
X6081015Y-29050674D02*
X6081015Y-29098293D01*
X6081015Y-29098293D02*
X6071491Y-29136388D01*
X6071491Y-29136388D02*
X6061967Y-29155436D01*
X6061967Y-29155436D02*
X6052444Y-29164960D01*
X6052444Y-29164960D02*
X6033396Y-29174484D01*
X6033396Y-29174484D02*
X6014348Y-29174484D01*
X6014348Y-29174484D02*
X5995301Y-29164960D01*
X5995301Y-29164960D02*
X5985777Y-29155436D01*
X5985777Y-29155436D02*
X5976253Y-29136388D01*
X5976253Y-29136388D02*
X5966729Y-29098293D01*
X5966729Y-29098293D02*
X5966729Y-29050674D01*
X5966729Y-29050674D02*
X5976253Y-29012579D01*
X5976253Y-29012579D02*
X5985777Y-28993531D01*
X5985777Y-28993531D02*
X5995301Y-28984008D01*
X5995301Y-28984008D02*
X6014348Y-28974484D01*
X6252444Y-28974484D02*
X6214348Y-28974484D01*
X6214348Y-28974484D02*
X6195301Y-28984008D01*
X6195301Y-28984008D02*
X6185777Y-28993531D01*
X6185777Y-28993531D02*
X6166729Y-29022103D01*
X6166729Y-29022103D02*
X6157206Y-29060198D01*
X6157206Y-29060198D02*
X6157206Y-29136388D01*
X6157206Y-29136388D02*
X6166729Y-29155436D01*
X6166729Y-29155436D02*
X6176253Y-29164960D01*
X6176253Y-29164960D02*
X6195301Y-29174484D01*
X6195301Y-29174484D02*
X6233396Y-29174484D01*
X6233396Y-29174484D02*
X6252444Y-29164960D01*
X6252444Y-29164960D02*
X6261967Y-29155436D01*
X6261967Y-29155436D02*
X6271491Y-29136388D01*
X6271491Y-29136388D02*
X6271491Y-29088769D01*
X6271491Y-29088769D02*
X6261967Y-29069722D01*
X6261967Y-29069722D02*
X6252444Y-29060198D01*
X6252444Y-29060198D02*
X6233396Y-29050674D01*
X6233396Y-29050674D02*
X6195301Y-29050674D01*
X6195301Y-29050674D02*
X6176253Y-29060198D01*
X6176253Y-29060198D02*
X6166729Y-29069722D01*
X6166729Y-29069722D02*
X6157206Y-29088769D01*
X6452444Y-28974484D02*
X6357206Y-28974484D01*
X6357206Y-28974484D02*
X6347682Y-29069722D01*
X6347682Y-29069722D02*
X6357206Y-29060198D01*
X6357206Y-29060198D02*
X6376253Y-29050674D01*
X6376253Y-29050674D02*
X6423872Y-29050674D01*
X6423872Y-29050674D02*
X6442920Y-29060198D01*
X6442920Y-29060198D02*
X6452444Y-29069722D01*
X6452444Y-29069722D02*
X6461967Y-29088769D01*
X6461967Y-29088769D02*
X6461967Y-29136388D01*
X6461967Y-29136388D02*
X6452444Y-29155436D01*
X6452444Y-29155436D02*
X6442920Y-29164960D01*
X6442920Y-29164960D02*
X6423872Y-29174484D01*
X6423872Y-29174484D02*
X6376253Y-29174484D01*
X6376253Y-29174484D02*
X6357206Y-29164960D01*
X6357206Y-29164960D02*
X6347682Y-29155436D01*
X6585777Y-28974484D02*
X6604825Y-28974484D01*
X6604825Y-28974484D02*
X6623872Y-28984008D01*
X6623872Y-28984008D02*
X6633396Y-28993531D01*
X6633396Y-28993531D02*
X6642920Y-29012579D01*
X6642920Y-29012579D02*
X6652444Y-29050674D01*
X6652444Y-29050674D02*
X6652444Y-29098293D01*
X6652444Y-29098293D02*
X6642920Y-29136388D01*
X6642920Y-29136388D02*
X6633396Y-29155436D01*
X6633396Y-29155436D02*
X6623872Y-29164960D01*
X6623872Y-29164960D02*
X6604825Y-29174484D01*
X6604825Y-29174484D02*
X6585777Y-29174484D01*
X6585777Y-29174484D02*
X6566729Y-29164960D01*
X6566729Y-29164960D02*
X6557206Y-29155436D01*
X6557206Y-29155436D02*
X6547682Y-29136388D01*
X6547682Y-29136388D02*
X6538158Y-29098293D01*
X6538158Y-29098293D02*
X6538158Y-29050674D01*
X6538158Y-29050674D02*
X6547682Y-29012579D01*
X6547682Y-29012579D02*
X6557206Y-28993531D01*
X6557206Y-28993531D02*
X6566729Y-28984008D01*
X6566729Y-28984008D02*
X6585777Y-28974484D01*
X6728634Y-28974484D02*
X6728634Y-29012579D01*
X6804825Y-28974484D02*
X6804825Y-29012579D01*
X7100063Y-29250674D02*
X7090539Y-29241150D01*
X7090539Y-29241150D02*
X7071491Y-29212579D01*
X7071491Y-29212579D02*
X7061968Y-29193531D01*
X7061968Y-29193531D02*
X7052444Y-29164960D01*
X7052444Y-29164960D02*
X7042920Y-29117341D01*
X7042920Y-29117341D02*
X7042920Y-29079246D01*
X7042920Y-29079246D02*
X7052444Y-29031627D01*
X7052444Y-29031627D02*
X7061968Y-29003055D01*
X7061968Y-29003055D02*
X7071491Y-28984008D01*
X7071491Y-28984008D02*
X7090539Y-28955436D01*
X7090539Y-28955436D02*
X7100063Y-28945912D01*
X7281015Y-29174484D02*
X7166729Y-29174484D01*
X7223872Y-29174484D02*
X7223872Y-28974484D01*
X7223872Y-28974484D02*
X7204825Y-29003055D01*
X7204825Y-29003055D02*
X7185777Y-29022103D01*
X7185777Y-29022103D02*
X7166729Y-29031627D01*
X7519110Y-29174484D02*
X7519110Y-28974484D01*
X7604825Y-29174484D02*
X7604825Y-29069722D01*
X7604825Y-29069722D02*
X7595301Y-29050674D01*
X7595301Y-29050674D02*
X7576253Y-29041150D01*
X7576253Y-29041150D02*
X7547682Y-29041150D01*
X7547682Y-29041150D02*
X7528634Y-29050674D01*
X7528634Y-29050674D02*
X7519110Y-29060198D01*
X7728634Y-29174484D02*
X7709587Y-29164960D01*
X7709587Y-29164960D02*
X7700063Y-29155436D01*
X7700063Y-29155436D02*
X7690539Y-29136388D01*
X7690539Y-29136388D02*
X7690539Y-29079246D01*
X7690539Y-29079246D02*
X7700063Y-29060198D01*
X7700063Y-29060198D02*
X7709587Y-29050674D01*
X7709587Y-29050674D02*
X7728634Y-29041150D01*
X7728634Y-29041150D02*
X7757206Y-29041150D01*
X7757206Y-29041150D02*
X7776253Y-29050674D01*
X7776253Y-29050674D02*
X7785777Y-29060198D01*
X7785777Y-29060198D02*
X7795301Y-29079246D01*
X7795301Y-29079246D02*
X7795301Y-29136388D01*
X7795301Y-29136388D02*
X7785777Y-29155436D01*
X7785777Y-29155436D02*
X7776253Y-29164960D01*
X7776253Y-29164960D02*
X7757206Y-29174484D01*
X7757206Y-29174484D02*
X7728634Y-29174484D01*
X7909587Y-29174484D02*
X7890539Y-29164960D01*
X7890539Y-29164960D02*
X7881015Y-29145912D01*
X7881015Y-29145912D02*
X7881015Y-28974484D01*
X8061968Y-29164960D02*
X8042920Y-29174484D01*
X8042920Y-29174484D02*
X8004825Y-29174484D01*
X8004825Y-29174484D02*
X7985777Y-29164960D01*
X7985777Y-29164960D02*
X7976253Y-29145912D01*
X7976253Y-29145912D02*
X7976253Y-29069722D01*
X7976253Y-29069722D02*
X7985777Y-29050674D01*
X7985777Y-29050674D02*
X8004825Y-29041150D01*
X8004825Y-29041150D02*
X8042920Y-29041150D01*
X8042920Y-29041150D02*
X8061968Y-29050674D01*
X8061968Y-29050674D02*
X8071491Y-29069722D01*
X8071491Y-29069722D02*
X8071491Y-29088769D01*
X8071491Y-29088769D02*
X7976253Y-29107817D01*
X8138158Y-29250674D02*
X8147682Y-29241150D01*
X8147682Y-29241150D02*
X8166730Y-29212579D01*
X8166730Y-29212579D02*
X8176253Y-29193531D01*
X8176253Y-29193531D02*
X8185777Y-29164960D01*
X8185777Y-29164960D02*
X8195301Y-29117341D01*
X8195301Y-29117341D02*
X8195301Y-29079246D01*
X8195301Y-29079246D02*
X8185777Y-29031627D01*
X8185777Y-29031627D02*
X8176253Y-29003055D01*
X8176253Y-29003055D02*
X8166730Y-28984008D01*
X8166730Y-28984008D02*
X8147682Y-28955436D01*
X8147682Y-28955436D02*
X8138158Y-28945912D01*
X8500063Y-29250674D02*
X8490539Y-29241150D01*
X8490539Y-29241150D02*
X8471492Y-29212579D01*
X8471492Y-29212579D02*
X8461968Y-29193531D01*
X8461968Y-29193531D02*
X8452444Y-29164960D01*
X8452444Y-29164960D02*
X8442920Y-29117341D01*
X8442920Y-29117341D02*
X8442920Y-29079246D01*
X8442920Y-29079246D02*
X8452444Y-29031627D01*
X8452444Y-29031627D02*
X8461968Y-29003055D01*
X8461968Y-29003055D02*
X8471492Y-28984008D01*
X8471492Y-28984008D02*
X8490539Y-28955436D01*
X8490539Y-28955436D02*
X8500063Y-28945912D01*
X8576253Y-29041150D02*
X8576253Y-29174484D01*
X8576253Y-29060198D02*
X8585777Y-29050674D01*
X8585777Y-29050674D02*
X8604825Y-29041150D01*
X8604825Y-29041150D02*
X8633396Y-29041150D01*
X8633396Y-29041150D02*
X8652444Y-29050674D01*
X8652444Y-29050674D02*
X8661968Y-29069722D01*
X8661968Y-29069722D02*
X8661968Y-29174484D01*
X8785777Y-29174484D02*
X8766730Y-29164960D01*
X8766730Y-29164960D02*
X8757206Y-29155436D01*
X8757206Y-29155436D02*
X8747682Y-29136388D01*
X8747682Y-29136388D02*
X8747682Y-29079246D01*
X8747682Y-29079246D02*
X8757206Y-29060198D01*
X8757206Y-29060198D02*
X8766730Y-29050674D01*
X8766730Y-29050674D02*
X8785777Y-29041150D01*
X8785777Y-29041150D02*
X8814349Y-29041150D01*
X8814349Y-29041150D02*
X8833396Y-29050674D01*
X8833396Y-29050674D02*
X8842920Y-29060198D01*
X8842920Y-29060198D02*
X8852444Y-29079246D01*
X8852444Y-29079246D02*
X8852444Y-29136388D01*
X8852444Y-29136388D02*
X8842920Y-29155436D01*
X8842920Y-29155436D02*
X8833396Y-29164960D01*
X8833396Y-29164960D02*
X8814349Y-29174484D01*
X8814349Y-29174484D02*
X8785777Y-29174484D01*
X8909587Y-29041150D02*
X8985777Y-29041150D01*
X8938158Y-28974484D02*
X8938158Y-29145912D01*
X8938158Y-29145912D02*
X8947682Y-29164960D01*
X8947682Y-29164960D02*
X8966730Y-29174484D01*
X8966730Y-29174484D02*
X8985777Y-29174484D01*
X9204825Y-29041150D02*
X9204825Y-29241150D01*
X9204825Y-29050674D02*
X9223873Y-29041150D01*
X9223873Y-29041150D02*
X9261968Y-29041150D01*
X9261968Y-29041150D02*
X9281015Y-29050674D01*
X9281015Y-29050674D02*
X9290539Y-29060198D01*
X9290539Y-29060198D02*
X9300063Y-29079246D01*
X9300063Y-29079246D02*
X9300063Y-29136388D01*
X9300063Y-29136388D02*
X9290539Y-29155436D01*
X9290539Y-29155436D02*
X9281015Y-29164960D01*
X9281015Y-29164960D02*
X9261968Y-29174484D01*
X9261968Y-29174484D02*
X9223873Y-29174484D01*
X9223873Y-29174484D02*
X9204825Y-29164960D01*
X9414349Y-29174484D02*
X9395301Y-29164960D01*
X9395301Y-29164960D02*
X9385777Y-29145912D01*
X9385777Y-29145912D02*
X9385777Y-28974484D01*
X9576254Y-29174484D02*
X9576254Y-29069722D01*
X9576254Y-29069722D02*
X9566730Y-29050674D01*
X9566730Y-29050674D02*
X9547682Y-29041150D01*
X9547682Y-29041150D02*
X9509587Y-29041150D01*
X9509587Y-29041150D02*
X9490539Y-29050674D01*
X9576254Y-29164960D02*
X9557206Y-29174484D01*
X9557206Y-29174484D02*
X9509587Y-29174484D01*
X9509587Y-29174484D02*
X9490539Y-29164960D01*
X9490539Y-29164960D02*
X9481015Y-29145912D01*
X9481015Y-29145912D02*
X9481015Y-29126865D01*
X9481015Y-29126865D02*
X9490539Y-29107817D01*
X9490539Y-29107817D02*
X9509587Y-29098293D01*
X9509587Y-29098293D02*
X9557206Y-29098293D01*
X9557206Y-29098293D02*
X9576254Y-29088769D01*
X9642920Y-29041150D02*
X9719111Y-29041150D01*
X9671492Y-28974484D02*
X9671492Y-29145912D01*
X9671492Y-29145912D02*
X9681015Y-29164960D01*
X9681015Y-29164960D02*
X9700063Y-29174484D01*
X9700063Y-29174484D02*
X9719111Y-29174484D01*
X9861968Y-29164960D02*
X9842920Y-29174484D01*
X9842920Y-29174484D02*
X9804825Y-29174484D01*
X9804825Y-29174484D02*
X9785777Y-29164960D01*
X9785777Y-29164960D02*
X9776254Y-29145912D01*
X9776254Y-29145912D02*
X9776254Y-29069722D01*
X9776254Y-29069722D02*
X9785777Y-29050674D01*
X9785777Y-29050674D02*
X9804825Y-29041150D01*
X9804825Y-29041150D02*
X9842920Y-29041150D01*
X9842920Y-29041150D02*
X9861968Y-29050674D01*
X9861968Y-29050674D02*
X9871492Y-29069722D01*
X9871492Y-29069722D02*
X9871492Y-29088769D01*
X9871492Y-29088769D02*
X9776254Y-29107817D01*
X10042920Y-29174484D02*
X10042920Y-28974484D01*
X10042920Y-29164960D02*
X10023873Y-29174484D01*
X10023873Y-29174484D02*
X9985777Y-29174484D01*
X9985777Y-29174484D02*
X9966730Y-29164960D01*
X9966730Y-29164960D02*
X9957206Y-29155436D01*
X9957206Y-29155436D02*
X9947682Y-29136388D01*
X9947682Y-29136388D02*
X9947682Y-29079246D01*
X9947682Y-29079246D02*
X9957206Y-29060198D01*
X9957206Y-29060198D02*
X9966730Y-29050674D01*
X9966730Y-29050674D02*
X9985777Y-29041150D01*
X9985777Y-29041150D02*
X10023873Y-29041150D01*
X10023873Y-29041150D02*
X10042920Y-29050674D01*
X10119111Y-29250674D02*
X10128635Y-29241150D01*
X10128635Y-29241150D02*
X10147682Y-29212579D01*
X10147682Y-29212579D02*
X10157206Y-29193531D01*
X10157206Y-29193531D02*
X10166730Y-29164960D01*
X10166730Y-29164960D02*
X10176254Y-29117341D01*
X10176254Y-29117341D02*
X10176254Y-29079246D01*
X10176254Y-29079246D02*
X10166730Y-29031627D01*
X10166730Y-29031627D02*
X10157206Y-29003055D01*
X10157206Y-29003055D02*
X10147682Y-28984008D01*
X10147682Y-28984008D02*
X10128635Y-28955436D01*
X10128635Y-28955436D02*
X10119111Y-28945912D01*
X3325000Y-29268000D02*
X3525000Y-29468000D01*
X3525000Y-29268000D02*
X3325000Y-29468000D01*
X3425000Y-29268000D02*
X3425000Y-29468000D01*
X3325000Y-29368000D02*
X3525000Y-29368000D01*
X3776253Y-29278531D02*
X3785777Y-29269008D01*
X3785777Y-29269008D02*
X3804824Y-29259484D01*
X3804824Y-29259484D02*
X3852443Y-29259484D01*
X3852443Y-29259484D02*
X3871491Y-29269008D01*
X3871491Y-29269008D02*
X3881015Y-29278531D01*
X3881015Y-29278531D02*
X3890539Y-29297579D01*
X3890539Y-29297579D02*
X3890539Y-29316627D01*
X3890539Y-29316627D02*
X3881015Y-29345198D01*
X3881015Y-29345198D02*
X3766729Y-29459484D01*
X3766729Y-29459484D02*
X3890539Y-29459484D01*
X3976253Y-29440436D02*
X3985777Y-29449960D01*
X3985777Y-29449960D02*
X3976253Y-29459484D01*
X3976253Y-29459484D02*
X3966729Y-29449960D01*
X3966729Y-29449960D02*
X3976253Y-29440436D01*
X3976253Y-29440436D02*
X3976253Y-29459484D01*
X4052443Y-29259484D02*
X4176253Y-29259484D01*
X4176253Y-29259484D02*
X4109586Y-29335674D01*
X4109586Y-29335674D02*
X4138158Y-29335674D01*
X4138158Y-29335674D02*
X4157205Y-29345198D01*
X4157205Y-29345198D02*
X4166729Y-29354722D01*
X4166729Y-29354722D02*
X4176253Y-29373769D01*
X4176253Y-29373769D02*
X4176253Y-29421388D01*
X4176253Y-29421388D02*
X4166729Y-29440436D01*
X4166729Y-29440436D02*
X4157205Y-29449960D01*
X4157205Y-29449960D02*
X4138158Y-29459484D01*
X4138158Y-29459484D02*
X4081015Y-29459484D01*
X4081015Y-29459484D02*
X4061967Y-29449960D01*
X4061967Y-29449960D02*
X4052443Y-29440436D01*
X4357205Y-29259484D02*
X4261967Y-29259484D01*
X4261967Y-29259484D02*
X4252444Y-29354722D01*
X4252444Y-29354722D02*
X4261967Y-29345198D01*
X4261967Y-29345198D02*
X4281015Y-29335674D01*
X4281015Y-29335674D02*
X4328634Y-29335674D01*
X4328634Y-29335674D02*
X4347682Y-29345198D01*
X4347682Y-29345198D02*
X4357205Y-29354722D01*
X4357205Y-29354722D02*
X4366729Y-29373769D01*
X4366729Y-29373769D02*
X4366729Y-29421388D01*
X4366729Y-29421388D02*
X4357205Y-29440436D01*
X4357205Y-29440436D02*
X4347682Y-29449960D01*
X4347682Y-29449960D02*
X4328634Y-29459484D01*
X4328634Y-29459484D02*
X4281015Y-29459484D01*
X4281015Y-29459484D02*
X4261967Y-29449960D01*
X4261967Y-29449960D02*
X4252444Y-29440436D01*
X4490539Y-29259484D02*
X4509586Y-29259484D01*
X4509586Y-29259484D02*
X4528634Y-29269008D01*
X4528634Y-29269008D02*
X4538158Y-29278531D01*
X4538158Y-29278531D02*
X4547682Y-29297579D01*
X4547682Y-29297579D02*
X4557205Y-29335674D01*
X4557205Y-29335674D02*
X4557205Y-29383293D01*
X4557205Y-29383293D02*
X4547682Y-29421388D01*
X4547682Y-29421388D02*
X4538158Y-29440436D01*
X4538158Y-29440436D02*
X4528634Y-29449960D01*
X4528634Y-29449960D02*
X4509586Y-29459484D01*
X4509586Y-29459484D02*
X4490539Y-29459484D01*
X4490539Y-29459484D02*
X4471491Y-29449960D01*
X4471491Y-29449960D02*
X4461967Y-29440436D01*
X4461967Y-29440436D02*
X4452444Y-29421388D01*
X4452444Y-29421388D02*
X4442920Y-29383293D01*
X4442920Y-29383293D02*
X4442920Y-29335674D01*
X4442920Y-29335674D02*
X4452444Y-29297579D01*
X4452444Y-29297579D02*
X4461967Y-29278531D01*
X4461967Y-29278531D02*
X4471491Y-29269008D01*
X4471491Y-29269008D02*
X4490539Y-29259484D01*
X4642920Y-29459484D02*
X4642920Y-29326150D01*
X4642920Y-29345198D02*
X4652444Y-29335674D01*
X4652444Y-29335674D02*
X4671491Y-29326150D01*
X4671491Y-29326150D02*
X4700063Y-29326150D01*
X4700063Y-29326150D02*
X4719110Y-29335674D01*
X4719110Y-29335674D02*
X4728634Y-29354722D01*
X4728634Y-29354722D02*
X4728634Y-29459484D01*
X4728634Y-29354722D02*
X4738158Y-29335674D01*
X4738158Y-29335674D02*
X4757205Y-29326150D01*
X4757205Y-29326150D02*
X4785777Y-29326150D01*
X4785777Y-29326150D02*
X4804825Y-29335674D01*
X4804825Y-29335674D02*
X4814348Y-29354722D01*
X4814348Y-29354722D02*
X4814348Y-29459484D01*
X4909586Y-29459484D02*
X4909586Y-29326150D01*
X4909586Y-29345198D02*
X4919110Y-29335674D01*
X4919110Y-29335674D02*
X4938158Y-29326150D01*
X4938158Y-29326150D02*
X4966729Y-29326150D01*
X4966729Y-29326150D02*
X4985777Y-29335674D01*
X4985777Y-29335674D02*
X4995301Y-29354722D01*
X4995301Y-29354722D02*
X4995301Y-29459484D01*
X4995301Y-29354722D02*
X5004825Y-29335674D01*
X5004825Y-29335674D02*
X5023872Y-29326150D01*
X5023872Y-29326150D02*
X5052444Y-29326150D01*
X5052444Y-29326150D02*
X5071491Y-29335674D01*
X5071491Y-29335674D02*
X5081015Y-29354722D01*
X5081015Y-29354722D02*
X5081015Y-29459484D01*
X5471491Y-29249960D02*
X5300063Y-29507103D01*
X5728634Y-29259484D02*
X5747682Y-29259484D01*
X5747682Y-29259484D02*
X5766729Y-29269008D01*
X5766729Y-29269008D02*
X5776253Y-29278531D01*
X5776253Y-29278531D02*
X5785777Y-29297579D01*
X5785777Y-29297579D02*
X5795301Y-29335674D01*
X5795301Y-29335674D02*
X5795301Y-29383293D01*
X5795301Y-29383293D02*
X5785777Y-29421388D01*
X5785777Y-29421388D02*
X5776253Y-29440436D01*
X5776253Y-29440436D02*
X5766729Y-29449960D01*
X5766729Y-29449960D02*
X5747682Y-29459484D01*
X5747682Y-29459484D02*
X5728634Y-29459484D01*
X5728634Y-29459484D02*
X5709586Y-29449960D01*
X5709586Y-29449960D02*
X5700063Y-29440436D01*
X5700063Y-29440436D02*
X5690539Y-29421388D01*
X5690539Y-29421388D02*
X5681015Y-29383293D01*
X5681015Y-29383293D02*
X5681015Y-29335674D01*
X5681015Y-29335674D02*
X5690539Y-29297579D01*
X5690539Y-29297579D02*
X5700063Y-29278531D01*
X5700063Y-29278531D02*
X5709586Y-29269008D01*
X5709586Y-29269008D02*
X5728634Y-29259484D01*
X5881015Y-29440436D02*
X5890539Y-29449960D01*
X5890539Y-29449960D02*
X5881015Y-29459484D01*
X5881015Y-29459484D02*
X5871491Y-29449960D01*
X5871491Y-29449960D02*
X5881015Y-29440436D01*
X5881015Y-29440436D02*
X5881015Y-29459484D01*
X6014348Y-29259484D02*
X6033396Y-29259484D01*
X6033396Y-29259484D02*
X6052444Y-29269008D01*
X6052444Y-29269008D02*
X6061967Y-29278531D01*
X6061967Y-29278531D02*
X6071491Y-29297579D01*
X6071491Y-29297579D02*
X6081015Y-29335674D01*
X6081015Y-29335674D02*
X6081015Y-29383293D01*
X6081015Y-29383293D02*
X6071491Y-29421388D01*
X6071491Y-29421388D02*
X6061967Y-29440436D01*
X6061967Y-29440436D02*
X6052444Y-29449960D01*
X6052444Y-29449960D02*
X6033396Y-29459484D01*
X6033396Y-29459484D02*
X6014348Y-29459484D01*
X6014348Y-29459484D02*
X5995301Y-29449960D01*
X5995301Y-29449960D02*
X5985777Y-29440436D01*
X5985777Y-29440436D02*
X5976253Y-29421388D01*
X5976253Y-29421388D02*
X5966729Y-29383293D01*
X5966729Y-29383293D02*
X5966729Y-29335674D01*
X5966729Y-29335674D02*
X5976253Y-29297579D01*
X5976253Y-29297579D02*
X5985777Y-29278531D01*
X5985777Y-29278531D02*
X5995301Y-29269008D01*
X5995301Y-29269008D02*
X6014348Y-29259484D01*
X6176253Y-29459484D02*
X6214348Y-29459484D01*
X6214348Y-29459484D02*
X6233396Y-29449960D01*
X6233396Y-29449960D02*
X6242920Y-29440436D01*
X6242920Y-29440436D02*
X6261967Y-29411865D01*
X6261967Y-29411865D02*
X6271491Y-29373769D01*
X6271491Y-29373769D02*
X6271491Y-29297579D01*
X6271491Y-29297579D02*
X6261967Y-29278531D01*
X6261967Y-29278531D02*
X6252444Y-29269008D01*
X6252444Y-29269008D02*
X6233396Y-29259484D01*
X6233396Y-29259484D02*
X6195301Y-29259484D01*
X6195301Y-29259484D02*
X6176253Y-29269008D01*
X6176253Y-29269008D02*
X6166729Y-29278531D01*
X6166729Y-29278531D02*
X6157206Y-29297579D01*
X6157206Y-29297579D02*
X6157206Y-29345198D01*
X6157206Y-29345198D02*
X6166729Y-29364246D01*
X6166729Y-29364246D02*
X6176253Y-29373769D01*
X6176253Y-29373769D02*
X6195301Y-29383293D01*
X6195301Y-29383293D02*
X6233396Y-29383293D01*
X6233396Y-29383293D02*
X6252444Y-29373769D01*
X6252444Y-29373769D02*
X6261967Y-29364246D01*
X6261967Y-29364246D02*
X6271491Y-29345198D01*
X6347682Y-29278531D02*
X6357206Y-29269008D01*
X6357206Y-29269008D02*
X6376253Y-29259484D01*
X6376253Y-29259484D02*
X6423872Y-29259484D01*
X6423872Y-29259484D02*
X6442920Y-29269008D01*
X6442920Y-29269008D02*
X6452444Y-29278531D01*
X6452444Y-29278531D02*
X6461967Y-29297579D01*
X6461967Y-29297579D02*
X6461967Y-29316627D01*
X6461967Y-29316627D02*
X6452444Y-29345198D01*
X6452444Y-29345198D02*
X6338158Y-29459484D01*
X6338158Y-29459484D02*
X6461967Y-29459484D01*
X6642920Y-29259484D02*
X6547682Y-29259484D01*
X6547682Y-29259484D02*
X6538158Y-29354722D01*
X6538158Y-29354722D02*
X6547682Y-29345198D01*
X6547682Y-29345198D02*
X6566729Y-29335674D01*
X6566729Y-29335674D02*
X6614348Y-29335674D01*
X6614348Y-29335674D02*
X6633396Y-29345198D01*
X6633396Y-29345198D02*
X6642920Y-29354722D01*
X6642920Y-29354722D02*
X6652444Y-29373769D01*
X6652444Y-29373769D02*
X6652444Y-29421388D01*
X6652444Y-29421388D02*
X6642920Y-29440436D01*
X6642920Y-29440436D02*
X6633396Y-29449960D01*
X6633396Y-29449960D02*
X6614348Y-29459484D01*
X6614348Y-29459484D02*
X6566729Y-29459484D01*
X6566729Y-29459484D02*
X6547682Y-29449960D01*
X6547682Y-29449960D02*
X6538158Y-29440436D01*
X6728634Y-29259484D02*
X6728634Y-29297579D01*
X6804825Y-29259484D02*
X6804825Y-29297579D01*
X7100063Y-29535674D02*
X7090539Y-29526150D01*
X7090539Y-29526150D02*
X7071491Y-29497579D01*
X7071491Y-29497579D02*
X7061968Y-29478531D01*
X7061968Y-29478531D02*
X7052444Y-29449960D01*
X7052444Y-29449960D02*
X7042920Y-29402341D01*
X7042920Y-29402341D02*
X7042920Y-29364246D01*
X7042920Y-29364246D02*
X7052444Y-29316627D01*
X7052444Y-29316627D02*
X7061968Y-29288055D01*
X7061968Y-29288055D02*
X7071491Y-29269008D01*
X7071491Y-29269008D02*
X7090539Y-29240436D01*
X7090539Y-29240436D02*
X7100063Y-29230912D01*
X7261968Y-29326150D02*
X7261968Y-29459484D01*
X7214348Y-29249960D02*
X7166729Y-29392817D01*
X7166729Y-29392817D02*
X7290539Y-29392817D01*
X7519110Y-29459484D02*
X7519110Y-29259484D01*
X7604825Y-29459484D02*
X7604825Y-29354722D01*
X7604825Y-29354722D02*
X7595301Y-29335674D01*
X7595301Y-29335674D02*
X7576253Y-29326150D01*
X7576253Y-29326150D02*
X7547682Y-29326150D01*
X7547682Y-29326150D02*
X7528634Y-29335674D01*
X7528634Y-29335674D02*
X7519110Y-29345198D01*
X7728634Y-29459484D02*
X7709587Y-29449960D01*
X7709587Y-29449960D02*
X7700063Y-29440436D01*
X7700063Y-29440436D02*
X7690539Y-29421388D01*
X7690539Y-29421388D02*
X7690539Y-29364246D01*
X7690539Y-29364246D02*
X7700063Y-29345198D01*
X7700063Y-29345198D02*
X7709587Y-29335674D01*
X7709587Y-29335674D02*
X7728634Y-29326150D01*
X7728634Y-29326150D02*
X7757206Y-29326150D01*
X7757206Y-29326150D02*
X7776253Y-29335674D01*
X7776253Y-29335674D02*
X7785777Y-29345198D01*
X7785777Y-29345198D02*
X7795301Y-29364246D01*
X7795301Y-29364246D02*
X7795301Y-29421388D01*
X7795301Y-29421388D02*
X7785777Y-29440436D01*
X7785777Y-29440436D02*
X7776253Y-29449960D01*
X7776253Y-29449960D02*
X7757206Y-29459484D01*
X7757206Y-29459484D02*
X7728634Y-29459484D01*
X7909587Y-29459484D02*
X7890539Y-29449960D01*
X7890539Y-29449960D02*
X7881015Y-29430912D01*
X7881015Y-29430912D02*
X7881015Y-29259484D01*
X8061968Y-29449960D02*
X8042920Y-29459484D01*
X8042920Y-29459484D02*
X8004825Y-29459484D01*
X8004825Y-29459484D02*
X7985777Y-29449960D01*
X7985777Y-29449960D02*
X7976253Y-29430912D01*
X7976253Y-29430912D02*
X7976253Y-29354722D01*
X7976253Y-29354722D02*
X7985777Y-29335674D01*
X7985777Y-29335674D02*
X8004825Y-29326150D01*
X8004825Y-29326150D02*
X8042920Y-29326150D01*
X8042920Y-29326150D02*
X8061968Y-29335674D01*
X8061968Y-29335674D02*
X8071491Y-29354722D01*
X8071491Y-29354722D02*
X8071491Y-29373769D01*
X8071491Y-29373769D02*
X7976253Y-29392817D01*
X8147682Y-29449960D02*
X8166730Y-29459484D01*
X8166730Y-29459484D02*
X8204825Y-29459484D01*
X8204825Y-29459484D02*
X8223872Y-29449960D01*
X8223872Y-29449960D02*
X8233396Y-29430912D01*
X8233396Y-29430912D02*
X8233396Y-29421388D01*
X8233396Y-29421388D02*
X8223872Y-29402341D01*
X8223872Y-29402341D02*
X8204825Y-29392817D01*
X8204825Y-29392817D02*
X8176253Y-29392817D01*
X8176253Y-29392817D02*
X8157206Y-29383293D01*
X8157206Y-29383293D02*
X8147682Y-29364246D01*
X8147682Y-29364246D02*
X8147682Y-29354722D01*
X8147682Y-29354722D02*
X8157206Y-29335674D01*
X8157206Y-29335674D02*
X8176253Y-29326150D01*
X8176253Y-29326150D02*
X8204825Y-29326150D01*
X8204825Y-29326150D02*
X8223872Y-29335674D01*
X8300063Y-29535674D02*
X8309587Y-29526150D01*
X8309587Y-29526150D02*
X8328634Y-29497579D01*
X8328634Y-29497579D02*
X8338158Y-29478531D01*
X8338158Y-29478531D02*
X8347682Y-29449960D01*
X8347682Y-29449960D02*
X8357206Y-29402341D01*
X8357206Y-29402341D02*
X8357206Y-29364246D01*
X8357206Y-29364246D02*
X8347682Y-29316627D01*
X8347682Y-29316627D02*
X8338158Y-29288055D01*
X8338158Y-29288055D02*
X8328634Y-29269008D01*
X8328634Y-29269008D02*
X8309587Y-29240436D01*
X8309587Y-29240436D02*
X8300063Y-29230912D01*
X8661968Y-29535674D02*
X8652444Y-29526150D01*
X8652444Y-29526150D02*
X8633396Y-29497579D01*
X8633396Y-29497579D02*
X8623873Y-29478531D01*
X8623873Y-29478531D02*
X8614349Y-29449960D01*
X8614349Y-29449960D02*
X8604825Y-29402341D01*
X8604825Y-29402341D02*
X8604825Y-29364246D01*
X8604825Y-29364246D02*
X8614349Y-29316627D01*
X8614349Y-29316627D02*
X8623873Y-29288055D01*
X8623873Y-29288055D02*
X8633396Y-29269008D01*
X8633396Y-29269008D02*
X8652444Y-29240436D01*
X8652444Y-29240436D02*
X8661968Y-29230912D01*
X8738158Y-29326150D02*
X8738158Y-29459484D01*
X8738158Y-29345198D02*
X8747682Y-29335674D01*
X8747682Y-29335674D02*
X8766730Y-29326150D01*
X8766730Y-29326150D02*
X8795301Y-29326150D01*
X8795301Y-29326150D02*
X8814349Y-29335674D01*
X8814349Y-29335674D02*
X8823873Y-29354722D01*
X8823873Y-29354722D02*
X8823873Y-29459484D01*
X8947682Y-29459484D02*
X8928634Y-29449960D01*
X8928634Y-29449960D02*
X8919111Y-29440436D01*
X8919111Y-29440436D02*
X8909587Y-29421388D01*
X8909587Y-29421388D02*
X8909587Y-29364246D01*
X8909587Y-29364246D02*
X8919111Y-29345198D01*
X8919111Y-29345198D02*
X8928634Y-29335674D01*
X8928634Y-29335674D02*
X8947682Y-29326150D01*
X8947682Y-29326150D02*
X8976254Y-29326150D01*
X8976254Y-29326150D02*
X8995301Y-29335674D01*
X8995301Y-29335674D02*
X9004825Y-29345198D01*
X9004825Y-29345198D02*
X9014349Y-29364246D01*
X9014349Y-29364246D02*
X9014349Y-29421388D01*
X9014349Y-29421388D02*
X9004825Y-29440436D01*
X9004825Y-29440436D02*
X8995301Y-29449960D01*
X8995301Y-29449960D02*
X8976254Y-29459484D01*
X8976254Y-29459484D02*
X8947682Y-29459484D01*
X9071492Y-29326150D02*
X9147682Y-29326150D01*
X9100063Y-29259484D02*
X9100063Y-29430912D01*
X9100063Y-29430912D02*
X9109587Y-29449960D01*
X9109587Y-29449960D02*
X9128634Y-29459484D01*
X9128634Y-29459484D02*
X9147682Y-29459484D01*
X9366730Y-29326150D02*
X9366730Y-29526150D01*
X9366730Y-29335674D02*
X9385777Y-29326150D01*
X9385777Y-29326150D02*
X9423873Y-29326150D01*
X9423873Y-29326150D02*
X9442920Y-29335674D01*
X9442920Y-29335674D02*
X9452444Y-29345198D01*
X9452444Y-29345198D02*
X9461968Y-29364246D01*
X9461968Y-29364246D02*
X9461968Y-29421388D01*
X9461968Y-29421388D02*
X9452444Y-29440436D01*
X9452444Y-29440436D02*
X9442920Y-29449960D01*
X9442920Y-29449960D02*
X9423873Y-29459484D01*
X9423873Y-29459484D02*
X9385777Y-29459484D01*
X9385777Y-29459484D02*
X9366730Y-29449960D01*
X9576254Y-29459484D02*
X9557206Y-29449960D01*
X9557206Y-29449960D02*
X9547682Y-29430912D01*
X9547682Y-29430912D02*
X9547682Y-29259484D01*
X9738158Y-29459484D02*
X9738158Y-29354722D01*
X9738158Y-29354722D02*
X9728635Y-29335674D01*
X9728635Y-29335674D02*
X9709587Y-29326150D01*
X9709587Y-29326150D02*
X9671492Y-29326150D01*
X9671492Y-29326150D02*
X9652444Y-29335674D01*
X9738158Y-29449960D02*
X9719111Y-29459484D01*
X9719111Y-29459484D02*
X9671492Y-29459484D01*
X9671492Y-29459484D02*
X9652444Y-29449960D01*
X9652444Y-29449960D02*
X9642920Y-29430912D01*
X9642920Y-29430912D02*
X9642920Y-29411865D01*
X9642920Y-29411865D02*
X9652444Y-29392817D01*
X9652444Y-29392817D02*
X9671492Y-29383293D01*
X9671492Y-29383293D02*
X9719111Y-29383293D01*
X9719111Y-29383293D02*
X9738158Y-29373769D01*
X9804825Y-29326150D02*
X9881015Y-29326150D01*
X9833396Y-29259484D02*
X9833396Y-29430912D01*
X9833396Y-29430912D02*
X9842920Y-29449960D01*
X9842920Y-29449960D02*
X9861968Y-29459484D01*
X9861968Y-29459484D02*
X9881015Y-29459484D01*
X10023873Y-29449960D02*
X10004825Y-29459484D01*
X10004825Y-29459484D02*
X9966730Y-29459484D01*
X9966730Y-29459484D02*
X9947682Y-29449960D01*
X9947682Y-29449960D02*
X9938158Y-29430912D01*
X9938158Y-29430912D02*
X9938158Y-29354722D01*
X9938158Y-29354722D02*
X9947682Y-29335674D01*
X9947682Y-29335674D02*
X9966730Y-29326150D01*
X9966730Y-29326150D02*
X10004825Y-29326150D01*
X10004825Y-29326150D02*
X10023873Y-29335674D01*
X10023873Y-29335674D02*
X10033396Y-29354722D01*
X10033396Y-29354722D02*
X10033396Y-29373769D01*
X10033396Y-29373769D02*
X9938158Y-29392817D01*
X10204825Y-29459484D02*
X10204825Y-29259484D01*
X10204825Y-29449960D02*
X10185777Y-29459484D01*
X10185777Y-29459484D02*
X10147682Y-29459484D01*
X10147682Y-29459484D02*
X10128635Y-29449960D01*
X10128635Y-29449960D02*
X10119111Y-29440436D01*
X10119111Y-29440436D02*
X10109587Y-29421388D01*
X10109587Y-29421388D02*
X10109587Y-29364246D01*
X10109587Y-29364246D02*
X10119111Y-29345198D01*
X10119111Y-29345198D02*
X10128635Y-29335674D01*
X10128635Y-29335674D02*
X10147682Y-29326150D01*
X10147682Y-29326150D02*
X10185777Y-29326150D01*
X10185777Y-29326150D02*
X10204825Y-29335674D01*
X10281016Y-29535674D02*
X10290539Y-29526150D01*
X10290539Y-29526150D02*
X10309587Y-29497579D01*
X10309587Y-29497579D02*
X10319111Y-29478531D01*
X10319111Y-29478531D02*
X10328635Y-29449960D01*
X10328635Y-29449960D02*
X10338158Y-29402341D01*
X10338158Y-29402341D02*
X10338158Y-29364246D01*
X10338158Y-29364246D02*
X10328635Y-29316627D01*
X10328635Y-29316627D02*
X10319111Y-29288055D01*
X10319111Y-29288055D02*
X10309587Y-29269008D01*
X10309587Y-29269008D02*
X10290539Y-29240436D01*
X10290539Y-29240436D02*
X10281016Y-29230912D01*
X3325000Y-29588000D02*
X3525000Y-29788000D01*
X3525000Y-29588000D02*
X3325000Y-29788000D01*
X3495711Y-29758711D02*
X3495711Y-29617289D01*
X3354289Y-29617289D01*
X3354289Y-29758711D01*
X3495711Y-29758711D01*
X3766729Y-29579484D02*
X3890539Y-29579484D01*
X3890539Y-29579484D02*
X3823872Y-29655674D01*
X3823872Y-29655674D02*
X3852443Y-29655674D01*
X3852443Y-29655674D02*
X3871491Y-29665198D01*
X3871491Y-29665198D02*
X3881015Y-29674722D01*
X3881015Y-29674722D02*
X3890539Y-29693769D01*
X3890539Y-29693769D02*
X3890539Y-29741388D01*
X3890539Y-29741388D02*
X3881015Y-29760436D01*
X3881015Y-29760436D02*
X3871491Y-29769960D01*
X3871491Y-29769960D02*
X3852443Y-29779484D01*
X3852443Y-29779484D02*
X3795301Y-29779484D01*
X3795301Y-29779484D02*
X3776253Y-29769960D01*
X3776253Y-29769960D02*
X3766729Y-29760436D01*
X3976253Y-29760436D02*
X3985777Y-29769960D01*
X3985777Y-29769960D02*
X3976253Y-29779484D01*
X3976253Y-29779484D02*
X3966729Y-29769960D01*
X3966729Y-29769960D02*
X3976253Y-29760436D01*
X3976253Y-29760436D02*
X3976253Y-29779484D01*
X4061967Y-29598531D02*
X4071491Y-29589008D01*
X4071491Y-29589008D02*
X4090539Y-29579484D01*
X4090539Y-29579484D02*
X4138158Y-29579484D01*
X4138158Y-29579484D02*
X4157205Y-29589008D01*
X4157205Y-29589008D02*
X4166729Y-29598531D01*
X4166729Y-29598531D02*
X4176253Y-29617579D01*
X4176253Y-29617579D02*
X4176253Y-29636627D01*
X4176253Y-29636627D02*
X4166729Y-29665198D01*
X4166729Y-29665198D02*
X4052443Y-29779484D01*
X4052443Y-29779484D02*
X4176253Y-29779484D01*
X4357205Y-29579484D02*
X4261967Y-29579484D01*
X4261967Y-29579484D02*
X4252444Y-29674722D01*
X4252444Y-29674722D02*
X4261967Y-29665198D01*
X4261967Y-29665198D02*
X4281015Y-29655674D01*
X4281015Y-29655674D02*
X4328634Y-29655674D01*
X4328634Y-29655674D02*
X4347682Y-29665198D01*
X4347682Y-29665198D02*
X4357205Y-29674722D01*
X4357205Y-29674722D02*
X4366729Y-29693769D01*
X4366729Y-29693769D02*
X4366729Y-29741388D01*
X4366729Y-29741388D02*
X4357205Y-29760436D01*
X4357205Y-29760436D02*
X4347682Y-29769960D01*
X4347682Y-29769960D02*
X4328634Y-29779484D01*
X4328634Y-29779484D02*
X4281015Y-29779484D01*
X4281015Y-29779484D02*
X4261967Y-29769960D01*
X4261967Y-29769960D02*
X4252444Y-29760436D01*
X4490539Y-29579484D02*
X4509586Y-29579484D01*
X4509586Y-29579484D02*
X4528634Y-29589008D01*
X4528634Y-29589008D02*
X4538158Y-29598531D01*
X4538158Y-29598531D02*
X4547682Y-29617579D01*
X4547682Y-29617579D02*
X4557205Y-29655674D01*
X4557205Y-29655674D02*
X4557205Y-29703293D01*
X4557205Y-29703293D02*
X4547682Y-29741388D01*
X4547682Y-29741388D02*
X4538158Y-29760436D01*
X4538158Y-29760436D02*
X4528634Y-29769960D01*
X4528634Y-29769960D02*
X4509586Y-29779484D01*
X4509586Y-29779484D02*
X4490539Y-29779484D01*
X4490539Y-29779484D02*
X4471491Y-29769960D01*
X4471491Y-29769960D02*
X4461967Y-29760436D01*
X4461967Y-29760436D02*
X4452444Y-29741388D01*
X4452444Y-29741388D02*
X4442920Y-29703293D01*
X4442920Y-29703293D02*
X4442920Y-29655674D01*
X4442920Y-29655674D02*
X4452444Y-29617579D01*
X4452444Y-29617579D02*
X4461967Y-29598531D01*
X4461967Y-29598531D02*
X4471491Y-29589008D01*
X4471491Y-29589008D02*
X4490539Y-29579484D01*
X4642920Y-29779484D02*
X4642920Y-29646150D01*
X4642920Y-29665198D02*
X4652444Y-29655674D01*
X4652444Y-29655674D02*
X4671491Y-29646150D01*
X4671491Y-29646150D02*
X4700063Y-29646150D01*
X4700063Y-29646150D02*
X4719110Y-29655674D01*
X4719110Y-29655674D02*
X4728634Y-29674722D01*
X4728634Y-29674722D02*
X4728634Y-29779484D01*
X4728634Y-29674722D02*
X4738158Y-29655674D01*
X4738158Y-29655674D02*
X4757205Y-29646150D01*
X4757205Y-29646150D02*
X4785777Y-29646150D01*
X4785777Y-29646150D02*
X4804825Y-29655674D01*
X4804825Y-29655674D02*
X4814348Y-29674722D01*
X4814348Y-29674722D02*
X4814348Y-29779484D01*
X4909586Y-29779484D02*
X4909586Y-29646150D01*
X4909586Y-29665198D02*
X4919110Y-29655674D01*
X4919110Y-29655674D02*
X4938158Y-29646150D01*
X4938158Y-29646150D02*
X4966729Y-29646150D01*
X4966729Y-29646150D02*
X4985777Y-29655674D01*
X4985777Y-29655674D02*
X4995301Y-29674722D01*
X4995301Y-29674722D02*
X4995301Y-29779484D01*
X4995301Y-29674722D02*
X5004825Y-29655674D01*
X5004825Y-29655674D02*
X5023872Y-29646150D01*
X5023872Y-29646150D02*
X5052444Y-29646150D01*
X5052444Y-29646150D02*
X5071491Y-29655674D01*
X5071491Y-29655674D02*
X5081015Y-29674722D01*
X5081015Y-29674722D02*
X5081015Y-29779484D01*
X5471491Y-29569960D02*
X5300063Y-29827103D01*
X5728634Y-29579484D02*
X5747682Y-29579484D01*
X5747682Y-29579484D02*
X5766729Y-29589008D01*
X5766729Y-29589008D02*
X5776253Y-29598531D01*
X5776253Y-29598531D02*
X5785777Y-29617579D01*
X5785777Y-29617579D02*
X5795301Y-29655674D01*
X5795301Y-29655674D02*
X5795301Y-29703293D01*
X5795301Y-29703293D02*
X5785777Y-29741388D01*
X5785777Y-29741388D02*
X5776253Y-29760436D01*
X5776253Y-29760436D02*
X5766729Y-29769960D01*
X5766729Y-29769960D02*
X5747682Y-29779484D01*
X5747682Y-29779484D02*
X5728634Y-29779484D01*
X5728634Y-29779484D02*
X5709586Y-29769960D01*
X5709586Y-29769960D02*
X5700063Y-29760436D01*
X5700063Y-29760436D02*
X5690539Y-29741388D01*
X5690539Y-29741388D02*
X5681015Y-29703293D01*
X5681015Y-29703293D02*
X5681015Y-29655674D01*
X5681015Y-29655674D02*
X5690539Y-29617579D01*
X5690539Y-29617579D02*
X5700063Y-29598531D01*
X5700063Y-29598531D02*
X5709586Y-29589008D01*
X5709586Y-29589008D02*
X5728634Y-29579484D01*
X5881015Y-29760436D02*
X5890539Y-29769960D01*
X5890539Y-29769960D02*
X5881015Y-29779484D01*
X5881015Y-29779484D02*
X5871491Y-29769960D01*
X5871491Y-29769960D02*
X5881015Y-29760436D01*
X5881015Y-29760436D02*
X5881015Y-29779484D01*
X6081015Y-29779484D02*
X5966729Y-29779484D01*
X6023872Y-29779484D02*
X6023872Y-29579484D01*
X6023872Y-29579484D02*
X6004825Y-29608055D01*
X6004825Y-29608055D02*
X5985777Y-29627103D01*
X5985777Y-29627103D02*
X5966729Y-29636627D01*
X6157206Y-29598531D02*
X6166729Y-29589008D01*
X6166729Y-29589008D02*
X6185777Y-29579484D01*
X6185777Y-29579484D02*
X6233396Y-29579484D01*
X6233396Y-29579484D02*
X6252444Y-29589008D01*
X6252444Y-29589008D02*
X6261967Y-29598531D01*
X6261967Y-29598531D02*
X6271491Y-29617579D01*
X6271491Y-29617579D02*
X6271491Y-29636627D01*
X6271491Y-29636627D02*
X6261967Y-29665198D01*
X6261967Y-29665198D02*
X6147682Y-29779484D01*
X6147682Y-29779484D02*
X6271491Y-29779484D01*
X6385777Y-29665198D02*
X6366729Y-29655674D01*
X6366729Y-29655674D02*
X6357206Y-29646150D01*
X6357206Y-29646150D02*
X6347682Y-29627103D01*
X6347682Y-29627103D02*
X6347682Y-29617579D01*
X6347682Y-29617579D02*
X6357206Y-29598531D01*
X6357206Y-29598531D02*
X6366729Y-29589008D01*
X6366729Y-29589008D02*
X6385777Y-29579484D01*
X6385777Y-29579484D02*
X6423872Y-29579484D01*
X6423872Y-29579484D02*
X6442920Y-29589008D01*
X6442920Y-29589008D02*
X6452444Y-29598531D01*
X6452444Y-29598531D02*
X6461967Y-29617579D01*
X6461967Y-29617579D02*
X6461967Y-29627103D01*
X6461967Y-29627103D02*
X6452444Y-29646150D01*
X6452444Y-29646150D02*
X6442920Y-29655674D01*
X6442920Y-29655674D02*
X6423872Y-29665198D01*
X6423872Y-29665198D02*
X6385777Y-29665198D01*
X6385777Y-29665198D02*
X6366729Y-29674722D01*
X6366729Y-29674722D02*
X6357206Y-29684246D01*
X6357206Y-29684246D02*
X6347682Y-29703293D01*
X6347682Y-29703293D02*
X6347682Y-29741388D01*
X6347682Y-29741388D02*
X6357206Y-29760436D01*
X6357206Y-29760436D02*
X6366729Y-29769960D01*
X6366729Y-29769960D02*
X6385777Y-29779484D01*
X6385777Y-29779484D02*
X6423872Y-29779484D01*
X6423872Y-29779484D02*
X6442920Y-29769960D01*
X6442920Y-29769960D02*
X6452444Y-29760436D01*
X6452444Y-29760436D02*
X6461967Y-29741388D01*
X6461967Y-29741388D02*
X6461967Y-29703293D01*
X6461967Y-29703293D02*
X6452444Y-29684246D01*
X6452444Y-29684246D02*
X6442920Y-29674722D01*
X6442920Y-29674722D02*
X6423872Y-29665198D01*
X6585777Y-29579484D02*
X6604825Y-29579484D01*
X6604825Y-29579484D02*
X6623872Y-29589008D01*
X6623872Y-29589008D02*
X6633396Y-29598531D01*
X6633396Y-29598531D02*
X6642920Y-29617579D01*
X6642920Y-29617579D02*
X6652444Y-29655674D01*
X6652444Y-29655674D02*
X6652444Y-29703293D01*
X6652444Y-29703293D02*
X6642920Y-29741388D01*
X6642920Y-29741388D02*
X6633396Y-29760436D01*
X6633396Y-29760436D02*
X6623872Y-29769960D01*
X6623872Y-29769960D02*
X6604825Y-29779484D01*
X6604825Y-29779484D02*
X6585777Y-29779484D01*
X6585777Y-29779484D02*
X6566729Y-29769960D01*
X6566729Y-29769960D02*
X6557206Y-29760436D01*
X6557206Y-29760436D02*
X6547682Y-29741388D01*
X6547682Y-29741388D02*
X6538158Y-29703293D01*
X6538158Y-29703293D02*
X6538158Y-29655674D01*
X6538158Y-29655674D02*
X6547682Y-29617579D01*
X6547682Y-29617579D02*
X6557206Y-29598531D01*
X6557206Y-29598531D02*
X6566729Y-29589008D01*
X6566729Y-29589008D02*
X6585777Y-29579484D01*
X6728634Y-29579484D02*
X6728634Y-29617579D01*
X6804825Y-29579484D02*
X6804825Y-29617579D01*
X7100063Y-29855674D02*
X7090539Y-29846150D01*
X7090539Y-29846150D02*
X7071491Y-29817579D01*
X7071491Y-29817579D02*
X7061968Y-29798531D01*
X7061968Y-29798531D02*
X7052444Y-29769960D01*
X7052444Y-29769960D02*
X7042920Y-29722341D01*
X7042920Y-29722341D02*
X7042920Y-29684246D01*
X7042920Y-29684246D02*
X7052444Y-29636627D01*
X7052444Y-29636627D02*
X7061968Y-29608055D01*
X7061968Y-29608055D02*
X7071491Y-29589008D01*
X7071491Y-29589008D02*
X7090539Y-29560436D01*
X7090539Y-29560436D02*
X7100063Y-29550912D01*
X7204825Y-29665198D02*
X7185777Y-29655674D01*
X7185777Y-29655674D02*
X7176253Y-29646150D01*
X7176253Y-29646150D02*
X7166729Y-29627103D01*
X7166729Y-29627103D02*
X7166729Y-29617579D01*
X7166729Y-29617579D02*
X7176253Y-29598531D01*
X7176253Y-29598531D02*
X7185777Y-29589008D01*
X7185777Y-29589008D02*
X7204825Y-29579484D01*
X7204825Y-29579484D02*
X7242920Y-29579484D01*
X7242920Y-29579484D02*
X7261968Y-29589008D01*
X7261968Y-29589008D02*
X7271491Y-29598531D01*
X7271491Y-29598531D02*
X7281015Y-29617579D01*
X7281015Y-29617579D02*
X7281015Y-29627103D01*
X7281015Y-29627103D02*
X7271491Y-29646150D01*
X7271491Y-29646150D02*
X7261968Y-29655674D01*
X7261968Y-29655674D02*
X7242920Y-29665198D01*
X7242920Y-29665198D02*
X7204825Y-29665198D01*
X7204825Y-29665198D02*
X7185777Y-29674722D01*
X7185777Y-29674722D02*
X7176253Y-29684246D01*
X7176253Y-29684246D02*
X7166729Y-29703293D01*
X7166729Y-29703293D02*
X7166729Y-29741388D01*
X7166729Y-29741388D02*
X7176253Y-29760436D01*
X7176253Y-29760436D02*
X7185777Y-29769960D01*
X7185777Y-29769960D02*
X7204825Y-29779484D01*
X7204825Y-29779484D02*
X7242920Y-29779484D01*
X7242920Y-29779484D02*
X7261968Y-29769960D01*
X7261968Y-29769960D02*
X7271491Y-29760436D01*
X7271491Y-29760436D02*
X7281015Y-29741388D01*
X7281015Y-29741388D02*
X7281015Y-29703293D01*
X7281015Y-29703293D02*
X7271491Y-29684246D01*
X7271491Y-29684246D02*
X7261968Y-29674722D01*
X7261968Y-29674722D02*
X7242920Y-29665198D01*
X7519110Y-29779484D02*
X7519110Y-29579484D01*
X7604825Y-29779484D02*
X7604825Y-29674722D01*
X7604825Y-29674722D02*
X7595301Y-29655674D01*
X7595301Y-29655674D02*
X7576253Y-29646150D01*
X7576253Y-29646150D02*
X7547682Y-29646150D01*
X7547682Y-29646150D02*
X7528634Y-29655674D01*
X7528634Y-29655674D02*
X7519110Y-29665198D01*
X7728634Y-29779484D02*
X7709587Y-29769960D01*
X7709587Y-29769960D02*
X7700063Y-29760436D01*
X7700063Y-29760436D02*
X7690539Y-29741388D01*
X7690539Y-29741388D02*
X7690539Y-29684246D01*
X7690539Y-29684246D02*
X7700063Y-29665198D01*
X7700063Y-29665198D02*
X7709587Y-29655674D01*
X7709587Y-29655674D02*
X7728634Y-29646150D01*
X7728634Y-29646150D02*
X7757206Y-29646150D01*
X7757206Y-29646150D02*
X7776253Y-29655674D01*
X7776253Y-29655674D02*
X7785777Y-29665198D01*
X7785777Y-29665198D02*
X7795301Y-29684246D01*
X7795301Y-29684246D02*
X7795301Y-29741388D01*
X7795301Y-29741388D02*
X7785777Y-29760436D01*
X7785777Y-29760436D02*
X7776253Y-29769960D01*
X7776253Y-29769960D02*
X7757206Y-29779484D01*
X7757206Y-29779484D02*
X7728634Y-29779484D01*
X7909587Y-29779484D02*
X7890539Y-29769960D01*
X7890539Y-29769960D02*
X7881015Y-29750912D01*
X7881015Y-29750912D02*
X7881015Y-29579484D01*
X8061968Y-29769960D02*
X8042920Y-29779484D01*
X8042920Y-29779484D02*
X8004825Y-29779484D01*
X8004825Y-29779484D02*
X7985777Y-29769960D01*
X7985777Y-29769960D02*
X7976253Y-29750912D01*
X7976253Y-29750912D02*
X7976253Y-29674722D01*
X7976253Y-29674722D02*
X7985777Y-29655674D01*
X7985777Y-29655674D02*
X8004825Y-29646150D01*
X8004825Y-29646150D02*
X8042920Y-29646150D01*
X8042920Y-29646150D02*
X8061968Y-29655674D01*
X8061968Y-29655674D02*
X8071491Y-29674722D01*
X8071491Y-29674722D02*
X8071491Y-29693769D01*
X8071491Y-29693769D02*
X7976253Y-29712817D01*
X8147682Y-29769960D02*
X8166730Y-29779484D01*
X8166730Y-29779484D02*
X8204825Y-29779484D01*
X8204825Y-29779484D02*
X8223872Y-29769960D01*
X8223872Y-29769960D02*
X8233396Y-29750912D01*
X8233396Y-29750912D02*
X8233396Y-29741388D01*
X8233396Y-29741388D02*
X8223872Y-29722341D01*
X8223872Y-29722341D02*
X8204825Y-29712817D01*
X8204825Y-29712817D02*
X8176253Y-29712817D01*
X8176253Y-29712817D02*
X8157206Y-29703293D01*
X8157206Y-29703293D02*
X8147682Y-29684246D01*
X8147682Y-29684246D02*
X8147682Y-29674722D01*
X8147682Y-29674722D02*
X8157206Y-29655674D01*
X8157206Y-29655674D02*
X8176253Y-29646150D01*
X8176253Y-29646150D02*
X8204825Y-29646150D01*
X8204825Y-29646150D02*
X8223872Y-29655674D01*
X8300063Y-29855674D02*
X8309587Y-29846150D01*
X8309587Y-29846150D02*
X8328634Y-29817579D01*
X8328634Y-29817579D02*
X8338158Y-29798531D01*
X8338158Y-29798531D02*
X8347682Y-29769960D01*
X8347682Y-29769960D02*
X8357206Y-29722341D01*
X8357206Y-29722341D02*
X8357206Y-29684246D01*
X8357206Y-29684246D02*
X8347682Y-29636627D01*
X8347682Y-29636627D02*
X8338158Y-29608055D01*
X8338158Y-29608055D02*
X8328634Y-29589008D01*
X8328634Y-29589008D02*
X8309587Y-29560436D01*
X8309587Y-29560436D02*
X8300063Y-29550912D01*
X8661968Y-29855674D02*
X8652444Y-29846150D01*
X8652444Y-29846150D02*
X8633396Y-29817579D01*
X8633396Y-29817579D02*
X8623873Y-29798531D01*
X8623873Y-29798531D02*
X8614349Y-29769960D01*
X8614349Y-29769960D02*
X8604825Y-29722341D01*
X8604825Y-29722341D02*
X8604825Y-29684246D01*
X8604825Y-29684246D02*
X8614349Y-29636627D01*
X8614349Y-29636627D02*
X8623873Y-29608055D01*
X8623873Y-29608055D02*
X8633396Y-29589008D01*
X8633396Y-29589008D02*
X8652444Y-29560436D01*
X8652444Y-29560436D02*
X8661968Y-29550912D01*
X8738158Y-29646150D02*
X8738158Y-29779484D01*
X8738158Y-29665198D02*
X8747682Y-29655674D01*
X8747682Y-29655674D02*
X8766730Y-29646150D01*
X8766730Y-29646150D02*
X8795301Y-29646150D01*
X8795301Y-29646150D02*
X8814349Y-29655674D01*
X8814349Y-29655674D02*
X8823873Y-29674722D01*
X8823873Y-29674722D02*
X8823873Y-29779484D01*
X8947682Y-29779484D02*
X8928634Y-29769960D01*
X8928634Y-29769960D02*
X8919111Y-29760436D01*
X8919111Y-29760436D02*
X8909587Y-29741388D01*
X8909587Y-29741388D02*
X8909587Y-29684246D01*
X8909587Y-29684246D02*
X8919111Y-29665198D01*
X8919111Y-29665198D02*
X8928634Y-29655674D01*
X8928634Y-29655674D02*
X8947682Y-29646150D01*
X8947682Y-29646150D02*
X8976254Y-29646150D01*
X8976254Y-29646150D02*
X8995301Y-29655674D01*
X8995301Y-29655674D02*
X9004825Y-29665198D01*
X9004825Y-29665198D02*
X9014349Y-29684246D01*
X9014349Y-29684246D02*
X9014349Y-29741388D01*
X9014349Y-29741388D02*
X9004825Y-29760436D01*
X9004825Y-29760436D02*
X8995301Y-29769960D01*
X8995301Y-29769960D02*
X8976254Y-29779484D01*
X8976254Y-29779484D02*
X8947682Y-29779484D01*
X9071492Y-29646150D02*
X9147682Y-29646150D01*
X9100063Y-29579484D02*
X9100063Y-29750912D01*
X9100063Y-29750912D02*
X9109587Y-29769960D01*
X9109587Y-29769960D02*
X9128634Y-29779484D01*
X9128634Y-29779484D02*
X9147682Y-29779484D01*
X9366730Y-29646150D02*
X9366730Y-29846150D01*
X9366730Y-29655674D02*
X9385777Y-29646150D01*
X9385777Y-29646150D02*
X9423873Y-29646150D01*
X9423873Y-29646150D02*
X9442920Y-29655674D01*
X9442920Y-29655674D02*
X9452444Y-29665198D01*
X9452444Y-29665198D02*
X9461968Y-29684246D01*
X9461968Y-29684246D02*
X9461968Y-29741388D01*
X9461968Y-29741388D02*
X9452444Y-29760436D01*
X9452444Y-29760436D02*
X9442920Y-29769960D01*
X9442920Y-29769960D02*
X9423873Y-29779484D01*
X9423873Y-29779484D02*
X9385777Y-29779484D01*
X9385777Y-29779484D02*
X9366730Y-29769960D01*
X9576254Y-29779484D02*
X9557206Y-29769960D01*
X9557206Y-29769960D02*
X9547682Y-29750912D01*
X9547682Y-29750912D02*
X9547682Y-29579484D01*
X9738158Y-29779484D02*
X9738158Y-29674722D01*
X9738158Y-29674722D02*
X9728635Y-29655674D01*
X9728635Y-29655674D02*
X9709587Y-29646150D01*
X9709587Y-29646150D02*
X9671492Y-29646150D01*
X9671492Y-29646150D02*
X9652444Y-29655674D01*
X9738158Y-29769960D02*
X9719111Y-29779484D01*
X9719111Y-29779484D02*
X9671492Y-29779484D01*
X9671492Y-29779484D02*
X9652444Y-29769960D01*
X9652444Y-29769960D02*
X9642920Y-29750912D01*
X9642920Y-29750912D02*
X9642920Y-29731865D01*
X9642920Y-29731865D02*
X9652444Y-29712817D01*
X9652444Y-29712817D02*
X9671492Y-29703293D01*
X9671492Y-29703293D02*
X9719111Y-29703293D01*
X9719111Y-29703293D02*
X9738158Y-29693769D01*
X9804825Y-29646150D02*
X9881015Y-29646150D01*
X9833396Y-29579484D02*
X9833396Y-29750912D01*
X9833396Y-29750912D02*
X9842920Y-29769960D01*
X9842920Y-29769960D02*
X9861968Y-29779484D01*
X9861968Y-29779484D02*
X9881015Y-29779484D01*
X10023873Y-29769960D02*
X10004825Y-29779484D01*
X10004825Y-29779484D02*
X9966730Y-29779484D01*
X9966730Y-29779484D02*
X9947682Y-29769960D01*
X9947682Y-29769960D02*
X9938158Y-29750912D01*
X9938158Y-29750912D02*
X9938158Y-29674722D01*
X9938158Y-29674722D02*
X9947682Y-29655674D01*
X9947682Y-29655674D02*
X9966730Y-29646150D01*
X9966730Y-29646150D02*
X10004825Y-29646150D01*
X10004825Y-29646150D02*
X10023873Y-29655674D01*
X10023873Y-29655674D02*
X10033396Y-29674722D01*
X10033396Y-29674722D02*
X10033396Y-29693769D01*
X10033396Y-29693769D02*
X9938158Y-29712817D01*
X10204825Y-29779484D02*
X10204825Y-29579484D01*
X10204825Y-29769960D02*
X10185777Y-29779484D01*
X10185777Y-29779484D02*
X10147682Y-29779484D01*
X10147682Y-29779484D02*
X10128635Y-29769960D01*
X10128635Y-29769960D02*
X10119111Y-29760436D01*
X10119111Y-29760436D02*
X10109587Y-29741388D01*
X10109587Y-29741388D02*
X10109587Y-29684246D01*
X10109587Y-29684246D02*
X10119111Y-29665198D01*
X10119111Y-29665198D02*
X10128635Y-29655674D01*
X10128635Y-29655674D02*
X10147682Y-29646150D01*
X10147682Y-29646150D02*
X10185777Y-29646150D01*
X10185777Y-29646150D02*
X10204825Y-29655674D01*
X10281016Y-29855674D02*
X10290539Y-29846150D01*
X10290539Y-29846150D02*
X10309587Y-29817579D01*
X10309587Y-29817579D02*
X10319111Y-29798531D01*
X10319111Y-29798531D02*
X10328635Y-29769960D01*
X10328635Y-29769960D02*
X10338158Y-29722341D01*
X10338158Y-29722341D02*
X10338158Y-29684246D01*
X10338158Y-29684246D02*
X10328635Y-29636627D01*
X10328635Y-29636627D02*
X10319111Y-29608055D01*
X10319111Y-29608055D02*
X10309587Y-29589008D01*
X10309587Y-29589008D02*
X10290539Y-29560436D01*
X10290539Y-29560436D02*
X10281016Y-29550912D01*
M02*
