G04 #@! TF.GenerationSoftware,KiCad,Pcbnew,7.0.8-7.0.8~ubuntu22.04.1*
G04 #@! TF.CreationDate,2023-11-07T14:02:31+02:00*
G04 #@! TF.ProjectId,Tangenta,54616e67-656e-4746-912e-6b696361645f,rev?*
G04 #@! TF.SameCoordinates,Original*
G04 #@! TF.FileFunction,Legend,Bot*
G04 #@! TF.FilePolarity,Positive*
%FSLAX46Y46*%
G04 Gerber Fmt 4.6, Leading zero omitted, Abs format (unit mm)*
G04 Created by KiCad (PCBNEW 7.0.8-7.0.8~ubuntu22.04.1) date 2023-11-07 14:02:31*
%MOMM*%
%LPD*%
G01*
G04 APERTURE LIST*
G04 Aperture macros list*
%AMRoundRect*
0 Rectangle with rounded corners*
0 $1 Rounding radius*
0 $2 $3 $4 $5 $6 $7 $8 $9 X,Y pos of 4 corners*
0 Add a 4 corners polygon primitive as box body*
4,1,4,$2,$3,$4,$5,$6,$7,$8,$9,$2,$3,0*
0 Add four circle primitives for the rounded corners*
1,1,$1+$1,$2,$3*
1,1,$1+$1,$4,$5*
1,1,$1+$1,$6,$7*
1,1,$1+$1,$8,$9*
0 Add four rect primitives between the rounded corners*
20,1,$1+$1,$2,$3,$4,$5,0*
20,1,$1+$1,$4,$5,$6,$7,0*
20,1,$1+$1,$6,$7,$8,$9,0*
20,1,$1+$1,$8,$9,$2,$3,0*%
G04 Aperture macros list end*
%ADD10C,0.150000*%
%ADD11C,0.120000*%
%ADD12R,1.700000X1.700000*%
%ADD13O,1.700000X1.700000*%
%ADD14C,1.600000*%
%ADD15C,1.000000*%
%ADD16C,1.100000*%
%ADD17C,0.900000*%
%ADD18C,8.000000*%
%ADD19C,2.350000*%
%ADD20R,1.200000X1.200000*%
%ADD21C,1.200000*%
%ADD22C,3.249987*%
%ADD23C,1.549403*%
%ADD24C,2.580645*%
%ADD25R,1.000000X1.000000*%
%ADD26O,1.000000X1.000000*%
%ADD27C,1.650000*%
%ADD28C,1.150000*%
%ADD29O,2.400000X1.100000*%
%ADD30O,1.500000X2.100000*%
%ADD31C,2.900000*%
%ADD32C,5.300000*%
%ADD33R,0.850000X0.850000*%
%ADD34O,0.850000X0.850000*%
%ADD35C,6.400000*%
%ADD36C,4.400000*%
%ADD37O,2.400000X1.500000*%
%ADD38C,0.649987*%
%ADD39O,2.100000X1.000000*%
%ADD40O,1.800000X1.000000*%
%ADD41R,1.730000X2.030000*%
%ADD42O,1.730000X2.030000*%
%ADD43C,1.295403*%
%ADD44C,2.400000*%
%ADD45C,1.650013*%
%ADD46C,1.524003*%
%ADD47O,3.300000X1.500000*%
%ADD48O,2.300000X1.500000*%
%ADD49C,1.800000*%
%ADD50R,2.030000X1.730000*%
%ADD51O,2.030000X1.730000*%
%ADD52RoundRect,0.200000X-0.200000X-0.275000X0.200000X-0.275000X0.200000X0.275000X-0.200000X0.275000X0*%
G04 APERTURE END LIST*
D10*
X38684152Y-158537474D02*
X37255580Y-158537474D01*
X38658752Y-157013474D02*
X37230180Y-157013474D01*
X38684152Y-154981474D02*
X37255580Y-154981474D01*
X36855400Y-151139760D02*
X36903019Y-151282617D01*
X36903019Y-151282617D02*
X36903019Y-151520712D01*
X36903019Y-151520712D02*
X36855400Y-151615950D01*
X36855400Y-151615950D02*
X36807780Y-151663569D01*
X36807780Y-151663569D02*
X36712542Y-151711188D01*
X36712542Y-151711188D02*
X36617304Y-151711188D01*
X36617304Y-151711188D02*
X36522066Y-151663569D01*
X36522066Y-151663569D02*
X36474447Y-151615950D01*
X36474447Y-151615950D02*
X36426828Y-151520712D01*
X36426828Y-151520712D02*
X36379209Y-151330236D01*
X36379209Y-151330236D02*
X36331590Y-151234998D01*
X36331590Y-151234998D02*
X36283971Y-151187379D01*
X36283971Y-151187379D02*
X36188733Y-151139760D01*
X36188733Y-151139760D02*
X36093495Y-151139760D01*
X36093495Y-151139760D02*
X35998257Y-151187379D01*
X35998257Y-151187379D02*
X35950638Y-151234998D01*
X35950638Y-151234998D02*
X35903019Y-151330236D01*
X35903019Y-151330236D02*
X35903019Y-151568331D01*
X35903019Y-151568331D02*
X35950638Y-151711188D01*
X36903019Y-152139760D02*
X35903019Y-152139760D01*
X36903019Y-152568331D02*
X36379209Y-152568331D01*
X36379209Y-152568331D02*
X36283971Y-152520712D01*
X36283971Y-152520712D02*
X36236352Y-152425474D01*
X36236352Y-152425474D02*
X36236352Y-152282617D01*
X36236352Y-152282617D02*
X36283971Y-152187379D01*
X36283971Y-152187379D02*
X36331590Y-152139760D01*
X36903019Y-153187379D02*
X36855400Y-153092141D01*
X36855400Y-153092141D02*
X36807780Y-153044522D01*
X36807780Y-153044522D02*
X36712542Y-152996903D01*
X36712542Y-152996903D02*
X36426828Y-152996903D01*
X36426828Y-152996903D02*
X36331590Y-153044522D01*
X36331590Y-153044522D02*
X36283971Y-153092141D01*
X36283971Y-153092141D02*
X36236352Y-153187379D01*
X36236352Y-153187379D02*
X36236352Y-153330236D01*
X36236352Y-153330236D02*
X36283971Y-153425474D01*
X36283971Y-153425474D02*
X36331590Y-153473093D01*
X36331590Y-153473093D02*
X36426828Y-153520712D01*
X36426828Y-153520712D02*
X36712542Y-153520712D01*
X36712542Y-153520712D02*
X36807780Y-153473093D01*
X36807780Y-153473093D02*
X36855400Y-153425474D01*
X36855400Y-153425474D02*
X36903019Y-153330236D01*
X36903019Y-153330236D02*
X36903019Y-153187379D01*
X36903019Y-153949284D02*
X36236352Y-153949284D01*
X36426828Y-153949284D02*
X36331590Y-153996903D01*
X36331590Y-153996903D02*
X36283971Y-154044522D01*
X36283971Y-154044522D02*
X36236352Y-154139760D01*
X36236352Y-154139760D02*
X36236352Y-154234998D01*
X36236352Y-154425475D02*
X36236352Y-154806427D01*
X35903019Y-154568332D02*
X36760161Y-154568332D01*
X36760161Y-154568332D02*
X36855400Y-154615951D01*
X36855400Y-154615951D02*
X36903019Y-154711189D01*
X36903019Y-154711189D02*
X36903019Y-154806427D01*
X36236352Y-155758809D02*
X36236352Y-156139761D01*
X36903019Y-155901666D02*
X36045876Y-155901666D01*
X36045876Y-155901666D02*
X35950638Y-155949285D01*
X35950638Y-155949285D02*
X35903019Y-156044523D01*
X35903019Y-156044523D02*
X35903019Y-156139761D01*
X36903019Y-156615952D02*
X36855400Y-156520714D01*
X36855400Y-156520714D02*
X36807780Y-156473095D01*
X36807780Y-156473095D02*
X36712542Y-156425476D01*
X36712542Y-156425476D02*
X36426828Y-156425476D01*
X36426828Y-156425476D02*
X36331590Y-156473095D01*
X36331590Y-156473095D02*
X36283971Y-156520714D01*
X36283971Y-156520714D02*
X36236352Y-156615952D01*
X36236352Y-156615952D02*
X36236352Y-156758809D01*
X36236352Y-156758809D02*
X36283971Y-156854047D01*
X36283971Y-156854047D02*
X36331590Y-156901666D01*
X36331590Y-156901666D02*
X36426828Y-156949285D01*
X36426828Y-156949285D02*
X36712542Y-156949285D01*
X36712542Y-156949285D02*
X36807780Y-156901666D01*
X36807780Y-156901666D02*
X36855400Y-156854047D01*
X36855400Y-156854047D02*
X36903019Y-156758809D01*
X36903019Y-156758809D02*
X36903019Y-156615952D01*
X36903019Y-157377857D02*
X36236352Y-157377857D01*
X36426828Y-157377857D02*
X36331590Y-157425476D01*
X36331590Y-157425476D02*
X36283971Y-157473095D01*
X36283971Y-157473095D02*
X36236352Y-157568333D01*
X36236352Y-157568333D02*
X36236352Y-157663571D01*
X36903019Y-159330238D02*
X36426828Y-158996905D01*
X36903019Y-158758810D02*
X35903019Y-158758810D01*
X35903019Y-158758810D02*
X35903019Y-159139762D01*
X35903019Y-159139762D02*
X35950638Y-159235000D01*
X35950638Y-159235000D02*
X35998257Y-159282619D01*
X35998257Y-159282619D02*
X36093495Y-159330238D01*
X36093495Y-159330238D02*
X36236352Y-159330238D01*
X36236352Y-159330238D02*
X36331590Y-159282619D01*
X36331590Y-159282619D02*
X36379209Y-159235000D01*
X36379209Y-159235000D02*
X36426828Y-159139762D01*
X36426828Y-159139762D02*
X36426828Y-158758810D01*
X36855400Y-159711191D02*
X36903019Y-159854048D01*
X36903019Y-159854048D02*
X36903019Y-160092143D01*
X36903019Y-160092143D02*
X36855400Y-160187381D01*
X36855400Y-160187381D02*
X36807780Y-160235000D01*
X36807780Y-160235000D02*
X36712542Y-160282619D01*
X36712542Y-160282619D02*
X36617304Y-160282619D01*
X36617304Y-160282619D02*
X36522066Y-160235000D01*
X36522066Y-160235000D02*
X36474447Y-160187381D01*
X36474447Y-160187381D02*
X36426828Y-160092143D01*
X36426828Y-160092143D02*
X36379209Y-159901667D01*
X36379209Y-159901667D02*
X36331590Y-159806429D01*
X36331590Y-159806429D02*
X36283971Y-159758810D01*
X36283971Y-159758810D02*
X36188733Y-159711191D01*
X36188733Y-159711191D02*
X36093495Y-159711191D01*
X36093495Y-159711191D02*
X35998257Y-159758810D01*
X35998257Y-159758810D02*
X35950638Y-159806429D01*
X35950638Y-159806429D02*
X35903019Y-159901667D01*
X35903019Y-159901667D02*
X35903019Y-160139762D01*
X35903019Y-160139762D02*
X35950638Y-160282619D01*
X36522066Y-160711191D02*
X36522066Y-161473096D01*
X36236352Y-162377857D02*
X36903019Y-162377857D01*
X35855400Y-162139762D02*
X36569685Y-161901667D01*
X36569685Y-161901667D02*
X36569685Y-162520714D01*
X36331590Y-163044524D02*
X36283971Y-162949286D01*
X36283971Y-162949286D02*
X36236352Y-162901667D01*
X36236352Y-162901667D02*
X36141114Y-162854048D01*
X36141114Y-162854048D02*
X36093495Y-162854048D01*
X36093495Y-162854048D02*
X35998257Y-162901667D01*
X35998257Y-162901667D02*
X35950638Y-162949286D01*
X35950638Y-162949286D02*
X35903019Y-163044524D01*
X35903019Y-163044524D02*
X35903019Y-163235000D01*
X35903019Y-163235000D02*
X35950638Y-163330238D01*
X35950638Y-163330238D02*
X35998257Y-163377857D01*
X35998257Y-163377857D02*
X36093495Y-163425476D01*
X36093495Y-163425476D02*
X36141114Y-163425476D01*
X36141114Y-163425476D02*
X36236352Y-163377857D01*
X36236352Y-163377857D02*
X36283971Y-163330238D01*
X36283971Y-163330238D02*
X36331590Y-163235000D01*
X36331590Y-163235000D02*
X36331590Y-163044524D01*
X36331590Y-163044524D02*
X36379209Y-162949286D01*
X36379209Y-162949286D02*
X36426828Y-162901667D01*
X36426828Y-162901667D02*
X36522066Y-162854048D01*
X36522066Y-162854048D02*
X36712542Y-162854048D01*
X36712542Y-162854048D02*
X36807780Y-162901667D01*
X36807780Y-162901667D02*
X36855400Y-162949286D01*
X36855400Y-162949286D02*
X36903019Y-163044524D01*
X36903019Y-163044524D02*
X36903019Y-163235000D01*
X36903019Y-163235000D02*
X36855400Y-163330238D01*
X36855400Y-163330238D02*
X36807780Y-163377857D01*
X36807780Y-163377857D02*
X36712542Y-163425476D01*
X36712542Y-163425476D02*
X36522066Y-163425476D01*
X36522066Y-163425476D02*
X36426828Y-163377857D01*
X36426828Y-163377857D02*
X36379209Y-163330238D01*
X36379209Y-163330238D02*
X36331590Y-163235000D01*
X35903019Y-164330238D02*
X35903019Y-163854048D01*
X35903019Y-163854048D02*
X36379209Y-163806429D01*
X36379209Y-163806429D02*
X36331590Y-163854048D01*
X36331590Y-163854048D02*
X36283971Y-163949286D01*
X36283971Y-163949286D02*
X36283971Y-164187381D01*
X36283971Y-164187381D02*
X36331590Y-164282619D01*
X36331590Y-164282619D02*
X36379209Y-164330238D01*
X36379209Y-164330238D02*
X36474447Y-164377857D01*
X36474447Y-164377857D02*
X36712542Y-164377857D01*
X36712542Y-164377857D02*
X36807780Y-164330238D01*
X36807780Y-164330238D02*
X36855400Y-164282619D01*
X36855400Y-164282619D02*
X36903019Y-164187381D01*
X36903019Y-164187381D02*
X36903019Y-163949286D01*
X36903019Y-163949286D02*
X36855400Y-163854048D01*
X36855400Y-163854048D02*
X36807780Y-163806429D01*
D11*
X39730142Y-156449500D02*
X40204658Y-156449500D01*
X39730142Y-157494500D02*
X40204658Y-157494500D01*
X39742342Y-154417500D02*
X40216858Y-154417500D01*
X39742342Y-155462500D02*
X40216858Y-155462500D01*
X39742342Y-157998900D02*
X40216858Y-157998900D01*
X39742342Y-159043900D02*
X40216858Y-159043900D01*
%LPC*%
D12*
X52552600Y-153116200D03*
D13*
X52552600Y-150576200D03*
D14*
X70637527Y-135814298D03*
X70637527Y-145414248D03*
D15*
X59863586Y-52333873D03*
X57863586Y-52333873D03*
X59863586Y-54333873D03*
X57863586Y-54333873D03*
D16*
X69453000Y-219653600D03*
D14*
X69453000Y-199653600D03*
D15*
X274143910Y-169541962D03*
X274143910Y-161541962D03*
D12*
X147218400Y-121666000D03*
D13*
X144678400Y-121666000D03*
X142138400Y-121666000D03*
X139598400Y-121666000D03*
X137058400Y-121666000D03*
D17*
X197400000Y-257050000D03*
X198278680Y-254928680D03*
X198278680Y-259171320D03*
X200400000Y-254050000D03*
D18*
X200400000Y-257050000D03*
D17*
X200400000Y-260050000D03*
X202521320Y-254928680D03*
X202521320Y-259171320D03*
X203400000Y-257050000D03*
D19*
X92400000Y-189344000D03*
X165550000Y-189344000D03*
D20*
X80750000Y-188094000D03*
D21*
X81750000Y-186094000D03*
X82750000Y-188094000D03*
X83750000Y-186094000D03*
X84750000Y-188094000D03*
X85750000Y-186094000D03*
X86750000Y-188094000D03*
X87750000Y-186094000D03*
X88750000Y-188094000D03*
X89750000Y-186094000D03*
X90750000Y-188094000D03*
X93750000Y-186094000D03*
X94750000Y-188094000D03*
X95750000Y-186094000D03*
X96750000Y-188094000D03*
X97750000Y-186094000D03*
X98750000Y-188094000D03*
X99750000Y-186094000D03*
X100750000Y-188094000D03*
X101750000Y-186094000D03*
X102750000Y-188094000D03*
X103750000Y-186094000D03*
X104750000Y-188094000D03*
X105750000Y-186094000D03*
X106750000Y-188094000D03*
X107750000Y-186094000D03*
X108750000Y-188094000D03*
X109750000Y-186094000D03*
X110750000Y-188094000D03*
X111750000Y-186094000D03*
X112750000Y-188094000D03*
X113750000Y-186094000D03*
X114750000Y-188094000D03*
X115750000Y-186094000D03*
X116750000Y-188094000D03*
X117750000Y-186094000D03*
X118750000Y-188094000D03*
X119750000Y-186094000D03*
X120750000Y-188094000D03*
X121750000Y-186094000D03*
X122750000Y-188094000D03*
X123750000Y-186094000D03*
X124750000Y-188094000D03*
X125750000Y-186094000D03*
X126750000Y-188094000D03*
X127750000Y-186094000D03*
X128750000Y-188094000D03*
X129750000Y-186094000D03*
X130750000Y-188094000D03*
X131750000Y-186094000D03*
X132750000Y-188094000D03*
X133750000Y-186094000D03*
X134750000Y-188094000D03*
X135750000Y-186094000D03*
X136750000Y-188094000D03*
X137750000Y-186094000D03*
X138750000Y-188094000D03*
X139750000Y-186094000D03*
X140750000Y-188094000D03*
X141750000Y-186094000D03*
X142750000Y-188094000D03*
X143750000Y-186094000D03*
X144750000Y-188094000D03*
X145750000Y-186094000D03*
X146750000Y-188094000D03*
X147750000Y-186094000D03*
X148750000Y-188094000D03*
X149750000Y-186094000D03*
X150750000Y-188094000D03*
X151750000Y-186094000D03*
X152750000Y-188094000D03*
X153750000Y-186094000D03*
X154750000Y-188094000D03*
X155750000Y-186094000D03*
X156750000Y-188094000D03*
X157750000Y-186094000D03*
X158750000Y-188094000D03*
X159750000Y-186094000D03*
X160750000Y-188094000D03*
X161750000Y-186094000D03*
X162750000Y-188094000D03*
X163750000Y-186094000D03*
X80750000Y-190594000D03*
X81750000Y-192594000D03*
X82750000Y-190594000D03*
X83750000Y-192594000D03*
X84750000Y-190594000D03*
X85750000Y-192594000D03*
X86750000Y-190594000D03*
X87750000Y-192594000D03*
X88750000Y-190594000D03*
X89750000Y-192594000D03*
X90750000Y-190594000D03*
X93750000Y-192594000D03*
X94750000Y-190594000D03*
X95750000Y-192594000D03*
X96750000Y-190594000D03*
X97750000Y-192594000D03*
X98750000Y-190594000D03*
X99750000Y-192594000D03*
X100750000Y-190594000D03*
X101750000Y-192594000D03*
X102750000Y-190594000D03*
X103750000Y-192594000D03*
X104750000Y-190594000D03*
X105750000Y-192594000D03*
X106750000Y-190594000D03*
X107750000Y-192594000D03*
X108750000Y-190594000D03*
X109750000Y-192594000D03*
X110750000Y-190594000D03*
X111750000Y-192594000D03*
X112750000Y-190594000D03*
X113750000Y-192594000D03*
X114750000Y-190594000D03*
X115750000Y-192594000D03*
X116750000Y-190594000D03*
X117750000Y-192594000D03*
X118750000Y-190594000D03*
X119750000Y-192594000D03*
X120750000Y-190594000D03*
X121750000Y-192594000D03*
X122750000Y-190594000D03*
X123750000Y-192594000D03*
X124750000Y-190594000D03*
X125750000Y-192594000D03*
X126750000Y-190594000D03*
X127750000Y-192594000D03*
X128750000Y-190594000D03*
X129750000Y-192594000D03*
X130750000Y-190594000D03*
X131750000Y-192594000D03*
X132750000Y-190594000D03*
X133750000Y-192594000D03*
X134750000Y-190594000D03*
X135750000Y-192594000D03*
X136750000Y-190594000D03*
X137750000Y-192594000D03*
X138750000Y-190594000D03*
X139750000Y-192594000D03*
X140750000Y-190594000D03*
X141750000Y-192594000D03*
X142750000Y-190594000D03*
X143750000Y-192594000D03*
X144750000Y-190594000D03*
X145750000Y-192594000D03*
X146750000Y-190594000D03*
X147750000Y-192594000D03*
X148750000Y-190594000D03*
X149750000Y-192594000D03*
X150750000Y-190594000D03*
X151750000Y-192594000D03*
X152750000Y-190594000D03*
X153750000Y-192594000D03*
X154750000Y-190594000D03*
X155750000Y-192594000D03*
X156750000Y-190594000D03*
X157750000Y-192594000D03*
X158750000Y-190594000D03*
X159750000Y-192594000D03*
X160750000Y-190594000D03*
X161750000Y-192594000D03*
X162750000Y-190594000D03*
X163750000Y-192594000D03*
D16*
X100066000Y-61562000D03*
D14*
X100066000Y-41562000D03*
D22*
X45533924Y-98405899D03*
X45533924Y-109835921D03*
D23*
X54423942Y-98401073D03*
X51883937Y-99671075D03*
X54423942Y-100941078D03*
X51883937Y-102211080D03*
X54423942Y-103481083D03*
X51883937Y-104751085D03*
X54423942Y-106021088D03*
X51883937Y-107291090D03*
X54423942Y-108561093D03*
X51883937Y-109831095D03*
X40634000Y-97496069D03*
X40634000Y-100036074D03*
X40634000Y-108206000D03*
X40634000Y-110746005D03*
D24*
X48583962Y-96375927D03*
X48583962Y-111865893D03*
D12*
X120142000Y-124226400D03*
D13*
X120142000Y-126766400D03*
D25*
X200853200Y-113390600D03*
D26*
X199583200Y-113390600D03*
X200853200Y-112120600D03*
X199583200Y-112120600D03*
X200853200Y-110850600D03*
X199583200Y-110850600D03*
D27*
X188173000Y-110554000D03*
D28*
X119373000Y-110554000D03*
D17*
X197400000Y-191010000D03*
X198278680Y-188888680D03*
X198278680Y-193131320D03*
X200400000Y-188010000D03*
D18*
X200400000Y-191010000D03*
D17*
X200400000Y-194010000D03*
X202521320Y-188888680D03*
X202521320Y-193131320D03*
X203400000Y-191010000D03*
D22*
X45533924Y-117201899D03*
X45533924Y-128631921D03*
D23*
X54423942Y-117197073D03*
X51883937Y-118467075D03*
X54423942Y-119737078D03*
X51883937Y-121007080D03*
X54423942Y-122277083D03*
X51883937Y-123547085D03*
X54423942Y-124817088D03*
X51883937Y-126087090D03*
X54423942Y-127357093D03*
X51883937Y-128627095D03*
X40634000Y-116292069D03*
X40634000Y-118832074D03*
X40634000Y-127002000D03*
X40634000Y-129542005D03*
D24*
X48583962Y-115171927D03*
X48583962Y-130661893D03*
D15*
X79364000Y-64523000D03*
X77464000Y-64523000D03*
X75564000Y-64523000D03*
X79364000Y-66423000D03*
X77464000Y-66423000D03*
X75564000Y-66423000D03*
X79364000Y-68323000D03*
X77464000Y-68323000D03*
X75564000Y-68323000D03*
D12*
X211201000Y-111353600D03*
D13*
X211201000Y-108813600D03*
X213741000Y-111353600D03*
X213741000Y-108813600D03*
X216281000Y-111353600D03*
X216281000Y-108813600D03*
X218821000Y-111353600D03*
X218821000Y-108813600D03*
X221361000Y-111353600D03*
X221361000Y-108813600D03*
D16*
X44328975Y-54479949D03*
X44328975Y-55880000D03*
X44328975Y-57280050D03*
X44328975Y-58680101D03*
D29*
X41729025Y-53880000D03*
D30*
X38729025Y-56580025D03*
D29*
X41729025Y-59280050D03*
D12*
X256407000Y-97919000D03*
D13*
X258947000Y-97919000D03*
X256407000Y-100459000D03*
X258947000Y-100459000D03*
D31*
X264400000Y-145520051D03*
X264400000Y-141319899D03*
X264400000Y-137120000D03*
X264400000Y-132919848D03*
X264400000Y-128719950D03*
X264400000Y-124520051D03*
X264400000Y-120319899D03*
X264400000Y-116120000D03*
X264400000Y-111919848D03*
X264400000Y-107719950D03*
X264400000Y-103520051D03*
X264400000Y-99319899D03*
X269900128Y-145520051D03*
X269900128Y-141319899D03*
X269900128Y-137120000D03*
X269900128Y-132919848D03*
X269900128Y-128719950D03*
X269900128Y-124520051D03*
X269900128Y-120319899D03*
X269900128Y-116120000D03*
X269900128Y-111919848D03*
X269900128Y-107719950D03*
X269900128Y-103520051D03*
X269900128Y-99319899D03*
D12*
X238099600Y-103761000D03*
D13*
X238099600Y-101221000D03*
X238099600Y-98681000D03*
D32*
X113780000Y-110560000D03*
D33*
X241154200Y-214630000D03*
D34*
X242154200Y-214630000D03*
X243154200Y-214630000D03*
X244154200Y-214630000D03*
X245154200Y-214630000D03*
X246154200Y-214630000D03*
D19*
X92400000Y-229984000D03*
X165550000Y-229984000D03*
D20*
X80750000Y-228734000D03*
D21*
X81750000Y-226734000D03*
X82750000Y-228734000D03*
X83750000Y-226734000D03*
X84750000Y-228734000D03*
X85750000Y-226734000D03*
X86750000Y-228734000D03*
X87750000Y-226734000D03*
X88750000Y-228734000D03*
X89750000Y-226734000D03*
X90750000Y-228734000D03*
X93750000Y-226734000D03*
X94750000Y-228734000D03*
X95750000Y-226734000D03*
X96750000Y-228734000D03*
X97750000Y-226734000D03*
X98750000Y-228734000D03*
X99750000Y-226734000D03*
X100750000Y-228734000D03*
X101750000Y-226734000D03*
X102750000Y-228734000D03*
X103750000Y-226734000D03*
X104750000Y-228734000D03*
X105750000Y-226734000D03*
X106750000Y-228734000D03*
X107750000Y-226734000D03*
X108750000Y-228734000D03*
X109750000Y-226734000D03*
X110750000Y-228734000D03*
X111750000Y-226734000D03*
X112750000Y-228734000D03*
X113750000Y-226734000D03*
X114750000Y-228734000D03*
X115750000Y-226734000D03*
X116750000Y-228734000D03*
X117750000Y-226734000D03*
X118750000Y-228734000D03*
X119750000Y-226734000D03*
X120750000Y-228734000D03*
X121750000Y-226734000D03*
X122750000Y-228734000D03*
X123750000Y-226734000D03*
X124750000Y-228734000D03*
X125750000Y-226734000D03*
X126750000Y-228734000D03*
X127750000Y-226734000D03*
X128750000Y-228734000D03*
X129750000Y-226734000D03*
X130750000Y-228734000D03*
X131750000Y-226734000D03*
X132750000Y-228734000D03*
X133750000Y-226734000D03*
X134750000Y-228734000D03*
X135750000Y-226734000D03*
X136750000Y-228734000D03*
X137750000Y-226734000D03*
X138750000Y-228734000D03*
X139750000Y-226734000D03*
X140750000Y-228734000D03*
X141750000Y-226734000D03*
X142750000Y-228734000D03*
X143750000Y-226734000D03*
X144750000Y-228734000D03*
X145750000Y-226734000D03*
X146750000Y-228734000D03*
X147750000Y-226734000D03*
X148750000Y-228734000D03*
X149750000Y-226734000D03*
X150750000Y-228734000D03*
X151750000Y-226734000D03*
X152750000Y-228734000D03*
X153750000Y-226734000D03*
X154750000Y-228734000D03*
X155750000Y-226734000D03*
X156750000Y-228734000D03*
X157750000Y-226734000D03*
X158750000Y-228734000D03*
X159750000Y-226734000D03*
X160750000Y-228734000D03*
X161750000Y-226734000D03*
X162750000Y-228734000D03*
X163750000Y-226734000D03*
X80750000Y-231234000D03*
X81750000Y-233234000D03*
X82750000Y-231234000D03*
X83750000Y-233234000D03*
X84750000Y-231234000D03*
X85750000Y-233234000D03*
X86750000Y-231234000D03*
X87750000Y-233234000D03*
X88750000Y-231234000D03*
X89750000Y-233234000D03*
X90750000Y-231234000D03*
X93750000Y-233234000D03*
X94750000Y-231234000D03*
X95750000Y-233234000D03*
X96750000Y-231234000D03*
X97750000Y-233234000D03*
X98750000Y-231234000D03*
X99750000Y-233234000D03*
X100750000Y-231234000D03*
X101750000Y-233234000D03*
X102750000Y-231234000D03*
X103750000Y-233234000D03*
X104750000Y-231234000D03*
X105750000Y-233234000D03*
X106750000Y-231234000D03*
X107750000Y-233234000D03*
X108750000Y-231234000D03*
X109750000Y-233234000D03*
X110750000Y-231234000D03*
X111750000Y-233234000D03*
X112750000Y-231234000D03*
X113750000Y-233234000D03*
X114750000Y-231234000D03*
X115750000Y-233234000D03*
X116750000Y-231234000D03*
X117750000Y-233234000D03*
X118750000Y-231234000D03*
X119750000Y-233234000D03*
X120750000Y-231234000D03*
X121750000Y-233234000D03*
X122750000Y-231234000D03*
X123750000Y-233234000D03*
X124750000Y-231234000D03*
X125750000Y-233234000D03*
X126750000Y-231234000D03*
X127750000Y-233234000D03*
X128750000Y-231234000D03*
X129750000Y-233234000D03*
X130750000Y-231234000D03*
X131750000Y-233234000D03*
X132750000Y-231234000D03*
X133750000Y-233234000D03*
X134750000Y-231234000D03*
X135750000Y-233234000D03*
X136750000Y-231234000D03*
X137750000Y-233234000D03*
X138750000Y-231234000D03*
X139750000Y-233234000D03*
X140750000Y-231234000D03*
X141750000Y-233234000D03*
X142750000Y-231234000D03*
X143750000Y-233234000D03*
X144750000Y-231234000D03*
X145750000Y-233234000D03*
X146750000Y-231234000D03*
X147750000Y-233234000D03*
X148750000Y-231234000D03*
X149750000Y-233234000D03*
X150750000Y-231234000D03*
X151750000Y-233234000D03*
X152750000Y-231234000D03*
X153750000Y-233234000D03*
X154750000Y-231234000D03*
X155750000Y-233234000D03*
X156750000Y-231234000D03*
X157750000Y-233234000D03*
X158750000Y-231234000D03*
X159750000Y-233234000D03*
X160750000Y-231234000D03*
X161750000Y-233234000D03*
X162750000Y-231234000D03*
X163750000Y-233234000D03*
D17*
X197400000Y-33530000D03*
X198278680Y-31408680D03*
X198278680Y-35651320D03*
X200400000Y-30530000D03*
D18*
X200400000Y-33530000D03*
D17*
X200400000Y-36530000D03*
X202521320Y-31408680D03*
X202521320Y-35651320D03*
X203400000Y-33530000D03*
D33*
X84815800Y-116814600D03*
D34*
X85815800Y-116814600D03*
X86815800Y-116814600D03*
X87815800Y-116814600D03*
X88815800Y-116814600D03*
X89815800Y-116814600D03*
X90815800Y-116814600D03*
X91815800Y-116814600D03*
D17*
X197400000Y-236730000D03*
X198278680Y-234608680D03*
X198278680Y-238851320D03*
X200400000Y-233730000D03*
D18*
X200400000Y-236730000D03*
D17*
X200400000Y-239730000D03*
X202521320Y-234608680D03*
X202521320Y-238851320D03*
X203400000Y-236730000D03*
D35*
X121180000Y-79560000D03*
D12*
X53208000Y-163601400D03*
D13*
X55748000Y-163601400D03*
D17*
X65320000Y-33530000D03*
X66198680Y-31408680D03*
X66198680Y-35651320D03*
X68320000Y-30530000D03*
D18*
X68320000Y-33530000D03*
D17*
X68320000Y-36530000D03*
X70441320Y-31408680D03*
X70441320Y-35651320D03*
X71320000Y-33530000D03*
D36*
X127706000Y-209619600D03*
D14*
X45935863Y-41838854D03*
X45935863Y-44338727D03*
X45935863Y-46338727D03*
X45935863Y-48838854D03*
X43735964Y-41838854D03*
X43735964Y-44338727D03*
X43735964Y-46338727D03*
X43735964Y-48838854D03*
D37*
X42186053Y-51738778D03*
X42186053Y-38938676D03*
D38*
X40855873Y-29866035D03*
X40866034Y-35665883D03*
D39*
X41356000Y-28445918D03*
D40*
X37205886Y-28445918D03*
D39*
X41356000Y-37086000D03*
D40*
X37205886Y-37086000D03*
D12*
X238111300Y-118389400D03*
D13*
X238111300Y-115849400D03*
X238111300Y-113309400D03*
D16*
X233959400Y-129693400D03*
D41*
X239039400Y-127533400D03*
D42*
X236499400Y-127533400D03*
X233959400Y-127533400D03*
X231419400Y-127533400D03*
D22*
X39744995Y-164800008D03*
X39744995Y-152200058D03*
D43*
X42285000Y-162070010D03*
X44064782Y-161049944D03*
X42285000Y-160030132D03*
X44064782Y-159010066D03*
X42285000Y-157990000D03*
X44064782Y-156969934D03*
X42285000Y-155950122D03*
X44064782Y-154930056D03*
D44*
X43174764Y-150449995D03*
X43174764Y-166550071D03*
D45*
X39778000Y-133479000D03*
X49778000Y-133479000D03*
X59778000Y-133479000D03*
D46*
X62577847Y-133479000D03*
X67277873Y-133479000D03*
X69778000Y-133479000D03*
X72277873Y-133479000D03*
X76877822Y-135808946D03*
X76877822Y-140609048D03*
X76877822Y-145409150D03*
D45*
X74778000Y-147728936D03*
D46*
X72277873Y-147728936D03*
X67277873Y-147728936D03*
D45*
X64778000Y-147728936D03*
D46*
X62577847Y-147728936D03*
D45*
X54778000Y-147728936D03*
X44778000Y-147728936D03*
X39778000Y-142059137D03*
X59778000Y-144559010D03*
X59778000Y-139158959D03*
D36*
X147706000Y-209619600D03*
D12*
X162407600Y-121666000D03*
D13*
X159867600Y-121666000D03*
X157327600Y-121666000D03*
X154787600Y-121666000D03*
X152247600Y-121666000D03*
D47*
X44967019Y-60835000D03*
D48*
X38967019Y-60835000D03*
D47*
X44967019Y-75335128D03*
D48*
X38967019Y-75335128D03*
D49*
X226611073Y-81102225D03*
X206611327Y-81102225D03*
D32*
X193780000Y-110560000D03*
D17*
X269790000Y-33530000D03*
X270668680Y-31408680D03*
X270668680Y-35651320D03*
X272790000Y-30530000D03*
D18*
X272790000Y-33530000D03*
D17*
X272790000Y-36530000D03*
X274911320Y-31408680D03*
X274911320Y-35651320D03*
X275790000Y-33530000D03*
X42460000Y-236730000D03*
X43338680Y-234608680D03*
X43338680Y-238851320D03*
X45460000Y-233730000D03*
D18*
X45460000Y-236730000D03*
D17*
X45460000Y-239730000D03*
X47581320Y-234608680D03*
X47581320Y-238851320D03*
X48460000Y-236730000D03*
D25*
X171805600Y-123063000D03*
D26*
X173075600Y-123063000D03*
X174345600Y-123063000D03*
X175615600Y-123063000D03*
X176885600Y-123063000D03*
X178155600Y-123063000D03*
X179425600Y-123063000D03*
X180695600Y-123063000D03*
X181965600Y-123063000D03*
D12*
X227609400Y-94921800D03*
D13*
X230149400Y-94921800D03*
X232689400Y-94921800D03*
D12*
X53208000Y-170484800D03*
D13*
X55748000Y-170484800D03*
D35*
X186380000Y-79560000D03*
D12*
X107213400Y-128549400D03*
D13*
X104673400Y-128549400D03*
X102133400Y-128549400D03*
X99593400Y-128549400D03*
X97053400Y-128549400D03*
X94513400Y-128549400D03*
D36*
X109706000Y-209619600D03*
D17*
X269790000Y-191010000D03*
X270668680Y-188888680D03*
X270668680Y-193131320D03*
X272790000Y-188010000D03*
D18*
X272790000Y-191010000D03*
D17*
X272790000Y-194010000D03*
X274911320Y-188888680D03*
X274911320Y-193131320D03*
X275790000Y-191010000D03*
X42460000Y-191010000D03*
X43338680Y-188888680D03*
X43338680Y-193131320D03*
X45460000Y-188010000D03*
D18*
X45460000Y-191010000D03*
D17*
X45460000Y-194010000D03*
X47581320Y-188888680D03*
X47581320Y-193131320D03*
X48460000Y-191010000D03*
D22*
X45533924Y-79609899D03*
X45533924Y-91039921D03*
D23*
X54423942Y-79605073D03*
X51883937Y-80875075D03*
X54423942Y-82145078D03*
X51883937Y-83415080D03*
X54423942Y-84685083D03*
X51883937Y-85955085D03*
X54423942Y-87225088D03*
X51883937Y-88495090D03*
X54423942Y-89765093D03*
X51883937Y-91035095D03*
X40634000Y-78700069D03*
X40634000Y-81240074D03*
X40634000Y-89410000D03*
X40634000Y-91950005D03*
D24*
X48583962Y-77579927D03*
X48583962Y-93069893D03*
D36*
X140320000Y-51564000D03*
D16*
X200178400Y-81407000D03*
D50*
X198018400Y-76327000D03*
D51*
X198018400Y-78867000D03*
X198018400Y-81407000D03*
X198018400Y-83947000D03*
D36*
X128320000Y-51564000D03*
D12*
X227621100Y-109575600D03*
D13*
X230161100Y-109575600D03*
X232701100Y-109575600D03*
D52*
X39142400Y-156972000D03*
X40792400Y-156972000D03*
X39154600Y-154940000D03*
X40804600Y-154940000D03*
X39154600Y-158521400D03*
X40804600Y-158521400D03*
%LPD*%
M02*
