M48
; DRILL file {KiCad 7.0.8-7.0.8~ubuntu22.04.1} date  7.11.2023 (вт) 10:11:46
; FORMAT={2:4/ absolute / inch / keep zeros}
; #@! TF.CreationDate,2023-11-07T10:11:46+02:00
; #@! TF.GenerationSoftware,Kicad,Pcbnew,7.0.8-7.0.8~ubuntu22.04.1
; #@! TF.FileFunction,Plated,1,4,PTH
FMAT,2
INCH
; #@! TA.AperFunction,Plated,PTH,ViaDrill
T1C0.0079
; #@! TA.AperFunction,Plated,PTH,ViaDrill
T2C0.0197
; #@! TA.AperFunction,Plated,PTH,ComponentDrill
T3C0.0197
; #@! TA.AperFunction,Plated,PTH,ComponentDrill
T4C0.0236
; #@! TA.AperFunction,Plated,PTH,ComponentDrill
T5C0.0256
; #@! TA.AperFunction,Plated,PTH,ComponentDrill
T6C0.0276
; #@! TA.AperFunction,Plated,PTH,ComponentDrill
T7C0.0315
; #@! TA.AperFunction,Plated,PTH,ComponentDrill
T8C0.0335
; #@! TA.AperFunction,Plated,PTH,ComponentDrill
T9C0.0354
; #@! TA.AperFunction,Plated,PTH,ComponentDrill
T10C0.0374
; #@! TA.AperFunction,Plated,PTH,ComponentDrill
T11C0.0394
; #@! TA.AperFunction,Plated,PTH,ComponentDrill
T12C0.0400
; #@! TA.AperFunction,Plated,PTH,ComponentDrill
T13C0.0402
; #@! TA.AperFunction,Plated,PTH,ComponentDrill
T14C0.0413
; #@! TA.AperFunction,Plated,PTH,ComponentDrill
T15C0.0433
; #@! TA.AperFunction,Plated,PTH,ComponentDrill
T16C0.0472
; #@! TA.AperFunction,Plated,PTH,ComponentDrill
T17C0.0480
; #@! TA.AperFunction,Plated,PTH,ComponentDrill
T18C0.0591
; #@! TA.AperFunction,Plated,PTH,ComponentDrill
T19C0.0630
; #@! TA.AperFunction,Plated,PTH,ComponentDrill
T20C0.0720
; #@! TA.AperFunction,Plated,PTH,ComponentDrill
T21C0.0866
; #@! TA.AperFunction,Plated,PTH,ComponentDrill
T22C0.1260
; #@! TA.AperFunction,Plated,PTH,ComponentDrill
T23C0.1575
%
G90
G05
T1
X015800Y-012400
X015800Y-013600
X015948Y-012801
X015950Y-013200
X017369Y-012137
X017563Y-012331
X017750Y-014000
X017900Y-013400
X018350Y-012200
X018550Y-015100
X018900Y-024900
X020953Y-020597
X021036Y-021969
X021147Y-020403
X021231Y-022164
X021640Y-076320
X021640Y-079920
X021990Y-076050
X021990Y-080110
X023332Y-019367
X023343Y-038783
X023537Y-038977
X023608Y-019367
X023800Y-033182
X023800Y-033458
X023960Y-081020
X025140Y-080032
X025140Y-080308
X025150Y-021300
X025583Y-045063
X025777Y-045257
X026000Y-081419
X026000Y-081694
X026790Y-054970
X026790Y-055280
X027900Y-028660
X027900Y-029060
X027900Y-029460
X028650Y-026400
X029350Y-024350
X029800Y-081300
X030000Y-028660
X030000Y-029060
X030000Y-029460
X030260Y-082460
X030600Y-082060
X030680Y-039660
X030950Y-024300
X030960Y-039712
X031180Y-036620
X031400Y-080560
X032050Y-024600
X032120Y-037760
X032210Y-080450
X032669Y-019481
X032750Y-036620
X032750Y-079910
X032800Y-028350
X032800Y-028650
X032870Y-052960
X032880Y-053250
X032950Y-025400
X032975Y-019175
X033150Y-025650
X033160Y-053250
X033300Y-077780
X033300Y-093800
X033300Y-095420
X033300Y-096910
X033380Y-037760
X033750Y-093800
X033750Y-095420
X033750Y-096910
X033760Y-077960
X034150Y-013300
X034250Y-043820
X034480Y-015680
X034487Y-044003
X035520Y-040620
X035530Y-040930
X035530Y-044820
X035530Y-045220
X035640Y-041310
X035640Y-041630
X036053Y-023097
X036247Y-022903
X036650Y-041940
X036790Y-039000
X036880Y-041690
X036910Y-039249
X037360Y-028330
X038975Y-020925
X038980Y-021380
X039004Y-035922
X039004Y-036198
X039800Y-017800
X039800Y-020500
X039800Y-020900
X040380Y-046150
X040380Y-046430
X040380Y-046940
X041400Y-018050
X042521Y-039109
X042521Y-039690
X042560Y-046940
X043540Y-038710
X043540Y-039110
X043540Y-039680
X043540Y-040090
X044110Y-051390
X045380Y-047270
X045380Y-047780
X045380Y-051490
X045790Y-046850
X045790Y-047370
X047460Y-051490
X047950Y-043870
X048200Y-043590
X048200Y-044120
X048440Y-043430
X048582Y-044127
X048742Y-038560
X048843Y-042737
X049018Y-038560
X049037Y-042543
X049540Y-051490
X049583Y-037487
X049777Y-037293
X050093Y-046107
X050263Y-042737
X050283Y-037327
X050287Y-045913
X050457Y-042543
X050477Y-037133
X051200Y-034150
X051200Y-034550
X051400Y-034350
X054940Y-040869
X055216Y-040869
X056353Y-036097
X056547Y-035903
X056900Y-027010
X057360Y-043283
X057360Y-043950
X057540Y-035880
X057640Y-043283
X057640Y-043950
X057702Y-027022
X057800Y-041050
X057840Y-035880
X057920Y-043283
X057920Y-043950
X058040Y-040850
X058200Y-043283
X058200Y-043950
X058330Y-040850
X058620Y-041060
X058620Y-041350
X059700Y-041350
X059710Y-042430
X059950Y-042630
X060230Y-042630
X060350Y-043440
X060350Y-043870
X060490Y-041350
X060630Y-042630
X060630Y-043440
X060630Y-043870
X060920Y-042630
X060920Y-043440
X060920Y-043870
X061200Y-042630
X061200Y-043440
X061200Y-043870
X062540Y-060120
X067430Y-046070
X067730Y-046070
X068030Y-046070
X068070Y-045620
X068420Y-046070
X068910Y-066160
X068910Y-067350
X069020Y-046070
X069360Y-046070
X069720Y-046070
X071220Y-046110
X071417Y-045900
X071780Y-045960
X071810Y-045640
X072210Y-041100
X072923Y-041030
X073270Y-041210
X073350Y-040850
X073760Y-041420
X073940Y-041910
X074200Y-041240
X076420Y-080032
X076420Y-080308
X077880Y-041780
X078250Y-042310
X079900Y-049000
X079900Y-049400
X079900Y-049690
X079900Y-049980
X079900Y-050270
X081420Y-043010
X081790Y-043010
X082000Y-044640
X082600Y-045410
X084163Y-087537
X084357Y-087343
X085220Y-066440
X086340Y-071320
X086460Y-062440
X086460Y-065010
X086460Y-065420
X086460Y-065870
X086460Y-066160
X086460Y-066440
X086460Y-066720
X086460Y-067170
X086460Y-067580
X086812Y-073580
X087088Y-073580
X087400Y-063380
X087480Y-091482
X087480Y-091758
X088022Y-076640
X088298Y-076640
X090000Y-062330
X090210Y-062520
X090430Y-062710
X090650Y-062900
X090890Y-063200
X091920Y-092062
X091920Y-092338
X091920Y-092692
X091920Y-092967
X092278Y-090013
X092278Y-090289
X092500Y-081100
X092750Y-081270
X093000Y-081100
X093250Y-081270
X093500Y-081100
X093750Y-081270
X094000Y-081100
X094120Y-087967
X094120Y-088243
X094170Y-089200
X094247Y-092593
X094250Y-091648
X094260Y-081270
X094360Y-094980
X094510Y-081100
X094800Y-097120
X095110Y-097320
X095320Y-088340
X095320Y-089290
X095320Y-089600
X095350Y-090540
X095440Y-089850
X095440Y-094980
X095550Y-092800
X095560Y-087950
X095600Y-093940
X095630Y-091490
X095630Y-092020
X095650Y-088360
X095910Y-093010
X095920Y-092720
X095950Y-088155
X095950Y-089290
X096240Y-080032
X096240Y-080308
X096350Y-087950
X096390Y-092350
X096670Y-092720
X096700Y-087950
X096880Y-093910
X097020Y-093010
X097040Y-085641
X097316Y-085641
X097340Y-092920
X097440Y-095090
X097440Y-095690
X097680Y-088350
X097960Y-088350
X098260Y-095400
X098420Y-088820
X098420Y-089150
X098470Y-095210
X098640Y-094990
X098750Y-092720
X098870Y-088820
X098870Y-089150
X099030Y-092930
X099060Y-082100
X099064Y-087920
X099379Y-092930
X099570Y-088350
X099570Y-090390
X099583Y-083172
X099690Y-092720
X099858Y-083172
X100030Y-087930
X100030Y-088340
X100030Y-089440
X100030Y-091810
X100230Y-088580
X100782Y-082450
X101058Y-082450
X101170Y-092760
X101197Y-088483
X101200Y-088200
X101200Y-088900
X101200Y-089180
X101200Y-089540
X101200Y-089900
X101204Y-090297
X101290Y-086830
X101340Y-091740
X101530Y-092870
X101530Y-093230
X102080Y-092860
X102080Y-093230
X102190Y-090510
X103660Y-090430
X103660Y-091020
X103660Y-091460
X103660Y-091900
X103660Y-092340
X103660Y-092780
X104310Y-096250
X104560Y-095570
T2
X014410Y-056980
X015310Y-056980
X016210Y-056980
X017000Y-025550
X017000Y-026600
X017000Y-027200
X017000Y-027800
X017000Y-028400
X017100Y-011310
X017100Y-014500
X017110Y-056980
X017500Y-012750
X017800Y-011300
X018300Y-068420
X018300Y-069000
X018630Y-061770
X018630Y-062530
X019100Y-013450
X019200Y-032760
X019200Y-068420
X019200Y-069000
X019300Y-025600
X019300Y-026150
X019350Y-014050
X019478Y-015241
X019500Y-021000
X019740Y-013740
X020550Y-015150
X020550Y-016250
X020850Y-021000
X020880Y-017520
X020880Y-018490
X021450Y-015400
X021600Y-019850
X021650Y-017100
X021700Y-018900
X021700Y-019350
X021750Y-012650
X021850Y-022700
X022340Y-080580
X022350Y-016400
X022350Y-022706
X022350Y-023350
X022460Y-037400
X022740Y-090540
X022750Y-015150
X022910Y-029770
X022910Y-036960
X022918Y-016001
X023360Y-030200
X023360Y-044990
X023400Y-018400
X023448Y-016001
X023550Y-022700
X023680Y-060820
X023680Y-062150
X023800Y-029100
X023830Y-044990
X024000Y-019350
X024080Y-069200
X024080Y-096700
X024098Y-023301
X024180Y-014170
X024180Y-015040
X024374Y-031400
X024580Y-081380
X024580Y-081860
X024580Y-082440
X024580Y-083020
X024580Y-083620
X024580Y-085200
X024580Y-085780
X024580Y-086600
X024600Y-077200
X024650Y-018600
X024800Y-022950
X025100Y-018300
X025140Y-056540
X025210Y-069200
X025210Y-096700
X025300Y-019550
X025350Y-029100
X025500Y-054020
X025500Y-056860
X025600Y-021650
X025740Y-090540
X025760Y-087240
X025850Y-031400
X025940Y-086040
X025960Y-079100
X025970Y-019570
X026050Y-028200
X026170Y-076560
X026180Y-017500
X026200Y-053620
X026520Y-025160
X026720Y-076570
X026820Y-031400
X026900Y-056540
X026900Y-057000
X026920Y-096700
X026950Y-069200
X027178Y-027993
X027240Y-020540
X027275Y-076565
X027350Y-055730
X027410Y-046340
X027480Y-081360
X027580Y-028180
X027860Y-055280
X027860Y-055730
X027900Y-017000
X027900Y-018250
X027920Y-046340
X028050Y-069200
X028070Y-096700
X028080Y-028180
X028300Y-023250
X028300Y-027540
X028370Y-055280
X028380Y-046340
X028498Y-025301
X028640Y-036750
X028650Y-028150
X028720Y-021920
X028730Y-040290
X028730Y-053860
X028730Y-054810
X028730Y-055750
X028730Y-056700
X028740Y-039506
X028798Y-024151
X028860Y-077200
X028890Y-046340
X029110Y-093090
X029420Y-053470
X029420Y-057100
X029570Y-040690
X029600Y-043460
X029660Y-014050
X029690Y-037540
X029710Y-036030
X029900Y-015010
X029925Y-093085
X030140Y-037540
X030140Y-043040
X030305Y-028175
X030450Y-015010
X030610Y-054710
X030700Y-042340
X030800Y-012800
X030800Y-094780
X030830Y-041620
X030860Y-055630
X030860Y-056830
X031040Y-042650
X031100Y-038020
X031107Y-028185
X031180Y-022121
X031240Y-039420
X031240Y-040367
X031240Y-041340
X031340Y-045630
X031500Y-014450
X031550Y-028200
X031590Y-053750
X031590Y-054920
X031620Y-094780
X031640Y-038360
X031640Y-039900
X031640Y-040840
X031640Y-041940
X031660Y-042650
X031660Y-057250
X031700Y-012450
X032040Y-042340
X032050Y-013250
X032050Y-013700
X032120Y-039420
X032120Y-040367
X032120Y-041340
X032160Y-021520
X032202Y-044627
X032430Y-055440
X032440Y-026280
X032450Y-051390
X032460Y-042340
X032550Y-014450
X032580Y-038020
X032600Y-027000
X032600Y-027900
X032840Y-042650
X032890Y-053750
X032900Y-038360
X033000Y-014450
X033050Y-041340
X033140Y-034210
X033150Y-035250
X033450Y-014840
X033560Y-041340
X033560Y-053140
X033570Y-030210
X033670Y-015960
X033800Y-070920
X033855Y-036015
X033860Y-014840
X033860Y-038360
X033860Y-052800
X033900Y-012650
X034030Y-029760
X034030Y-030210
X034300Y-024978
X034320Y-042640
X034360Y-058560
X034360Y-062820
X034400Y-021760
X034498Y-038018
X034500Y-026750
X034500Y-028300
X034600Y-024600
X034610Y-036020
X034610Y-036590
X034620Y-020780
X034640Y-041430
X034640Y-041940
X034710Y-045240
X034780Y-039100
X034780Y-040060
X034800Y-034190
X034880Y-060820
X034920Y-038360
X034930Y-013028
X034940Y-024940
X035000Y-026750
X035000Y-042340
X035050Y-020450
X035050Y-021150
X035200Y-044429
X035310Y-039580
X035320Y-042680
X035335Y-095130
X035335Y-096930
X035360Y-059940
X035360Y-060820
X035420Y-056390
X035420Y-057350
X035460Y-097970
X035570Y-043950
X035660Y-034160
X035660Y-034730
X035750Y-016850
X035750Y-021550
X035860Y-025950
X035870Y-057350
X035890Y-035630
X035960Y-070920
X036110Y-034160
X036110Y-034730
X036150Y-037520
X036190Y-026290
X036270Y-053140
X036270Y-053650
X036270Y-055900
X036320Y-057350
X036530Y-026630
X036560Y-034160
X036560Y-034730
X036600Y-018700
X036600Y-022650
X036600Y-023900
X036600Y-031450
X036600Y-032450
X036640Y-044820
X036640Y-045220
X036770Y-057350
X036850Y-047320
X036870Y-042520
X037050Y-031450
X037050Y-032450
X037120Y-043000
X037340Y-049560
X037494Y-031450
X037494Y-032450
X037680Y-042990
X037790Y-044280
X037800Y-043510
X037927Y-055870
X037950Y-019050
X037950Y-019650
X037950Y-020422
X037950Y-021100
X038000Y-022950
X038000Y-023400
X038000Y-023850
X038120Y-042530
X038320Y-041470
X038400Y-016650
X038490Y-015980
X038600Y-046750
X038620Y-040200
X038660Y-038420
X038700Y-025800
X038750Y-017050
X038750Y-056390
X038880Y-095550
X038880Y-096820
X038890Y-059690
X038890Y-062330
X039080Y-043330
X039210Y-058440
X039210Y-058950
X039260Y-041470
X039260Y-042670
X039390Y-047320
X039440Y-095550
X039440Y-096820
X039520Y-049560
X039540Y-077950
X039700Y-016950
X039830Y-057810
X039830Y-063570
X039930Y-045190
X040090Y-041560
X040150Y-026550
X040300Y-016300
X040340Y-038040
X040440Y-038760
X040440Y-093300
X040440Y-094140
X040440Y-094880
X040600Y-058440
X040600Y-061940
X040750Y-024330
X040750Y-025350
X040910Y-042700
X040950Y-017150
X040980Y-037450
X041040Y-059060
X041110Y-063250
X041180Y-038880
X041180Y-039880
X041210Y-047320
X041280Y-024330
X041300Y-016750
X041440Y-037450
X041440Y-037950
X041560Y-062820
X041700Y-049560
X041700Y-053590
X041700Y-054080
X041900Y-037450
X041900Y-037950
X042310Y-024940
X042600Y-040860
X042600Y-041640
X042810Y-024940
X043390Y-047320
X043880Y-049560
X044120Y-051840
X044610Y-054080
X044900Y-040860
X044900Y-041470
X045470Y-040860
X045470Y-041470
X046210Y-051840
X046270Y-040860
X046570Y-095550
X046700Y-054080
X046740Y-040860
X046740Y-041310
X046996Y-094250
X047050Y-047100
X047210Y-040860
X047420Y-093520
X047420Y-098350
X047570Y-045910
X047680Y-040860
X048150Y-040850
X048200Y-046300
X048290Y-051840
X048400Y-047580
X048450Y-039940
X048450Y-040390
X048780Y-054080
X048800Y-026550
X048880Y-039940
X048880Y-040390
X048880Y-094020
X048880Y-098650
X048960Y-041250
X049170Y-044022
X049250Y-026900
X049560Y-046700
X049650Y-093518
X049650Y-094518
X049760Y-044022
X050230Y-041210
X050350Y-044022
X050370Y-051840
X050860Y-054080
X050910Y-093518
X051060Y-045790
X051110Y-039290
X051110Y-039740
X051130Y-041210
X051430Y-095550
X051940Y-094260
X051940Y-095550
X052200Y-059530
X052200Y-063030
X052200Y-065180
X052200Y-068680
X052420Y-041210
X052420Y-042560
X052710Y-060030
X052710Y-061530
X052710Y-062530
X052710Y-065680
X052710Y-067180
X052710Y-068180
X052790Y-093520
X052790Y-098350
X052910Y-044022
X052950Y-038280
X052950Y-038850
X053240Y-054090
X053240Y-056710
X053240Y-057420
X053240Y-058040
X053400Y-038280
X053400Y-038850
X053800Y-041210
X053800Y-042560
X053850Y-038280
X053850Y-038850
X053900Y-044022
X054060Y-057310
X054060Y-058040
X054060Y-060030
X054060Y-061030
X054160Y-065680
X054160Y-066680
X054220Y-094020
X054220Y-098650
X054260Y-063530
X054590Y-058040
X054970Y-058610
X054970Y-064260
X054970Y-069620
X055020Y-093520
X055020Y-094020
X055080Y-044022
X055370Y-042570
X055460Y-041160
X055710Y-056190
X055710Y-057220
X055740Y-059030
X055740Y-062530
X055740Y-063530
X055740Y-064680
X055740Y-068180
X055740Y-069180
X055750Y-015250
X055750Y-016000
X055750Y-016750
X055750Y-017500
X055750Y-018250
X055750Y-019000
X055750Y-021750
X055960Y-042570
X055964Y-041300
X056100Y-025500
X056100Y-026000
X056260Y-044022
X056280Y-093520
X056280Y-094020
X056360Y-024240
X056360Y-024830
X056475Y-042565
X056480Y-041160
X056570Y-056710
X056670Y-059650
X056670Y-060650
X056670Y-065300
X056670Y-066300
X056800Y-095550
X057000Y-042700
X057300Y-024000
X057760Y-035270
X058100Y-044440
X058220Y-035270
X058250Y-033000
X058400Y-025500
X058400Y-026000
X058440Y-035670
X058650Y-032650
X058650Y-033350
X058870Y-044440
X058900Y-040810
X060109Y-059666
X060109Y-061564
X060110Y-065466
X060110Y-067370
X061020Y-044490
X061280Y-041200
X061770Y-044440
X061770Y-045780
X061870Y-041200
X061870Y-042560
X061920Y-023540
X062460Y-041200
X062460Y-042560
X062770Y-060520
X062770Y-062420
X062770Y-066326
X062770Y-068230
X062950Y-027800
X062950Y-044440
X062950Y-045780
X063050Y-019040
X063050Y-041200
X063050Y-042560
X063550Y-027950
X063640Y-041200
X063640Y-042560
X064130Y-044440
X064130Y-045780
X064230Y-018510
X064230Y-041200
X064230Y-042560
X065020Y-041200
X065020Y-042560
X065234Y-045750
X065260Y-018500
X065320Y-044440
X065610Y-041200
X065610Y-042560
X066200Y-041200
X066200Y-042560
X066648Y-016790
X066790Y-041200
X066790Y-042560
X067048Y-019590
X067090Y-044440
X067148Y-016790
X067380Y-041200
X067380Y-042560
X067748Y-016990
X067748Y-017590
X067748Y-018090
X067748Y-018590
X067830Y-044430
X068348Y-016790
X068670Y-040270
X068760Y-042560
X068848Y-016790
X069106Y-043600
X069490Y-018540
X069548Y-019490
X069550Y-043600
X069940Y-018540
X070000Y-043600
X070070Y-045870
X070220Y-042560
X070730Y-042560
X070870Y-045870
X071250Y-042560
X071400Y-020700
X071400Y-021780
X071410Y-044200
X071960Y-036360
X071960Y-040380
X072010Y-044200
X072390Y-021240
X072400Y-043098
X072700Y-042560
X072725Y-045758
X073180Y-036360
X073180Y-040110
X073270Y-042650
X073270Y-043100
X073920Y-023540
X074140Y-025520
X074850Y-026140
X075050Y-019040
X075500Y-025520
X076240Y-018510
X077260Y-018500
X077700Y-044748
X077820Y-037240
X078330Y-036810
X078360Y-033880
X078648Y-016790
X078740Y-041360
X079048Y-019590
X079148Y-016790
X079200Y-040380
X079257Y-038188
X079400Y-034190
X079668Y-031051
X079748Y-016990
X079748Y-017590
X079748Y-018090
X079748Y-018590
X079840Y-033530
X079840Y-034900
X080090Y-042400
X080090Y-051560
X080250Y-039490
X080260Y-097970
X080340Y-037560
X080348Y-016790
X080710Y-042400
X080710Y-051560
X080848Y-016790
X081150Y-039490
X081490Y-018540
X081548Y-019490
X081640Y-097970
X081870Y-037440
X081940Y-018540
X082280Y-035280
X082280Y-037440
X083030Y-037610
X083400Y-020700
X083400Y-021780
X084390Y-021240
X085920Y-023540
X086170Y-025520
X086850Y-026140
X087060Y-019040
X087530Y-025520
X088230Y-018520
X088280Y-038031
X088280Y-040081
X088280Y-041590
X088280Y-042450
X088280Y-045840
X088280Y-047980
X088285Y-043800
X089260Y-018500
X090610Y-047610
X090648Y-016790
X091048Y-019590
X091060Y-038440
X091060Y-040490
X091060Y-044210
X091060Y-046250
X091148Y-016790
X091208Y-093691
X091748Y-016990
X091748Y-017590
X091748Y-018090
X091748Y-018590
X092348Y-016790
X092600Y-037250
X092600Y-037730
X092848Y-016790
X092858Y-094031
X092870Y-093310
X093228Y-089551
X093228Y-090751
X093490Y-018540
X093520Y-086500
X093548Y-019490
X093800Y-094840
X093880Y-086100
X093880Y-086900
X093940Y-018540
X094300Y-096720
X094690Y-087700
X094750Y-093310
X094750Y-093890
X095230Y-066840
X095400Y-020700
X095400Y-021780
X095420Y-048970
X095420Y-049450
X095720Y-098960
X095750Y-066840
X095860Y-048970
X095860Y-049450
X096060Y-095470
X096300Y-048970
X096300Y-049450
X096390Y-021240
X096390Y-096170
X096390Y-096797
X096578Y-085641
X096761Y-098963
X097060Y-095860
X097068Y-089821
X097068Y-090471
X097068Y-091071
X097726Y-089821
X097726Y-090467
X097726Y-091071
X097750Y-097800
X097778Y-085641
X097830Y-085020
X097920Y-023540
X098120Y-097350
X098210Y-025520
X098368Y-089821
X098368Y-090471
X098368Y-091071
X098650Y-036000
X098698Y-050476
X098850Y-026120
X099030Y-085020
X099050Y-019040
X099120Y-084210
X099198Y-046251
X099198Y-095541
X099252Y-097109
X099480Y-025520
X099740Y-097109
X099748Y-042101
X099970Y-034820
X100030Y-094990
X100240Y-018500
X100240Y-097109
X100320Y-083420
X100320Y-084210
X100448Y-037451
X100520Y-093989
X100590Y-035350
X100850Y-095230
X101048Y-048551
X101048Y-052726
X101100Y-087300
X101198Y-043951
X101250Y-094818
X101260Y-018500
X101520Y-083440
X101698Y-059251
X101750Y-093990
X102150Y-062720
X102150Y-063270
X102198Y-042151
X102320Y-089220
X102320Y-090020
X102479Y-057427
X102598Y-054651
X102648Y-016790
X102700Y-087620
X102700Y-088040
X102980Y-066080
X103048Y-019590
X103148Y-016790
X103150Y-094990
X103402Y-088619
X103550Y-094590
X103748Y-016990
X103748Y-017590
X103748Y-018090
X103748Y-018590
X103780Y-085020
X103780Y-085510
X103802Y-089989
X103820Y-095580
X103840Y-093220
X103990Y-061480
X103990Y-062720
X103990Y-068430
X104010Y-036560
X104180Y-087140
X104220Y-066080
X104340Y-065210
X104348Y-016790
X104410Y-093220
X104410Y-093660
X104410Y-094100
X104788Y-061200
X104788Y-063270
X104820Y-092540
X104821Y-091671
X104848Y-016790
X104870Y-034820
X105250Y-085510
X105320Y-086140
X105490Y-018540
X105490Y-035360
X105548Y-019490
X105580Y-060310
X105580Y-061870
X105940Y-018540
X106260Y-061200
X106260Y-063270
X106480Y-083060
X107140Y-091350
X107400Y-020700
X107400Y-021780
X107400Y-084000
X107400Y-084500
X107400Y-085020
X107400Y-086950
X107680Y-089750
X107770Y-061200
X107770Y-062290
X107770Y-067310
X107820Y-090710
X108390Y-021240
T3
X022781Y-020604
X022781Y-021391
X023568Y-020604
X023568Y-021391
X029750Y-025403
X029750Y-026151
X029750Y-026899
X030498Y-025403
X030498Y-026151
X030498Y-026899
X031246Y-025403
X031246Y-026151
X031246Y-026899
X033392Y-045990
X033786Y-045990
X034179Y-045990
X034573Y-045990
X034967Y-045990
X035361Y-045990
X035754Y-045990
X036148Y-045990
X094943Y-084500
X095336Y-084500
X095730Y-084500
X096124Y-084500
X096517Y-084500
X096911Y-084500
T4
X016717Y-075201
X016717Y-093201
X017062Y-074366
X017062Y-076036
X017062Y-092366
X017062Y-094036
X017898Y-074020
X017898Y-076382
X017898Y-092020
X017898Y-094382
X018733Y-074366
X018733Y-076036
X018733Y-092366
X018733Y-094036
X019079Y-075201
X019079Y-093201
X025717Y-013201
X026062Y-012366
X026062Y-014036
X026898Y-012020
X026898Y-014382
X027733Y-012366
X027733Y-014036
X028079Y-013201
X077717Y-013201
X077717Y-075201
X077717Y-093201
X077717Y-101201
X078062Y-012366
X078062Y-014036
X078062Y-074366
X078062Y-076036
X078062Y-092366
X078062Y-094036
X078062Y-100366
X078062Y-102036
X078898Y-012020
X078898Y-014382
X078898Y-074020
X078898Y-076382
X078898Y-092020
X078898Y-094382
X078898Y-100020
X078898Y-102382
X079733Y-012366
X079733Y-014036
X079733Y-074366
X079733Y-076036
X079733Y-092366
X079733Y-094036
X079733Y-100366
X079733Y-102036
X080079Y-013201
X080079Y-075201
X080079Y-093201
X080079Y-101201
X106217Y-013201
X106217Y-075201
X106562Y-012366
X106562Y-014036
X106562Y-074366
X106562Y-076036
X107398Y-012020
X107398Y-014382
X107398Y-074020
X107398Y-076382
X108233Y-012366
X108233Y-014036
X108233Y-074366
X108233Y-076036
X108579Y-013201
X108579Y-075201
T5
X067640Y-048450
X068140Y-048450
X068640Y-048450
X069140Y-048450
X069640Y-048450
X070140Y-048450
X070640Y-048450
X071140Y-048450
X071640Y-048450
X078576Y-043642
X078576Y-044142
X078576Y-044642
X079076Y-043642
X079076Y-044142
X079076Y-044642
T6
X031791Y-074053
X031791Y-075037
X031791Y-090053
X031791Y-091037
X032185Y-073265
X032185Y-075824
X032185Y-089265
X032185Y-091824
X032579Y-074053
X032579Y-075037
X032579Y-090053
X032579Y-091037
X032972Y-073265
X032972Y-075824
X032972Y-089265
X032972Y-091824
X033366Y-074053
X033366Y-075037
X033366Y-090053
X033366Y-091037
X033760Y-073265
X033760Y-075824
X033760Y-089265
X033760Y-091824
X034154Y-074053
X034154Y-075037
X034154Y-090053
X034154Y-091037
X034547Y-073265
X034547Y-075824
X034547Y-089265
X034547Y-091824
X034941Y-074053
X034941Y-075037
X034941Y-090053
X034941Y-091037
X035335Y-073265
X035335Y-075824
X035335Y-089265
X035335Y-091824
X035728Y-074053
X035728Y-075037
X035728Y-090053
X035728Y-091037
X036909Y-073265
X036909Y-075824
X036909Y-089265
X036909Y-091824
X037303Y-074053
X037303Y-075037
X037303Y-090053
X037303Y-091037
X037697Y-073265
X037697Y-075824
X037697Y-089265
X037697Y-091824
X038091Y-074053
X038091Y-075037
X038091Y-090053
X038091Y-091037
X038484Y-073265
X038484Y-075824
X038484Y-089265
X038484Y-091824
X038878Y-074053
X038878Y-075037
X038878Y-090053
X038878Y-091037
X039272Y-073265
X039272Y-075824
X039272Y-089265
X039272Y-091824
X039665Y-074053
X039665Y-075037
X039665Y-090053
X039665Y-091037
X040059Y-073265
X040059Y-075824
X040059Y-089265
X040059Y-091824
X040453Y-074053
X040453Y-075037
X040453Y-090053
X040453Y-091037
X040846Y-073265
X040846Y-075824
X040846Y-089265
X040846Y-091824
X041240Y-074053
X041240Y-075037
X041240Y-090053
X041240Y-091037
X041634Y-073265
X041634Y-075824
X041634Y-089265
X041634Y-091824
X042028Y-074053
X042028Y-075037
X042028Y-090053
X042028Y-091037
X042421Y-073265
X042421Y-075824
X042421Y-089265
X042421Y-091824
X042815Y-074053
X042815Y-075037
X042815Y-090053
X042815Y-091037
X043209Y-073265
X043209Y-075824
X043209Y-089265
X043209Y-091824
X043602Y-074053
X043602Y-075037
X043602Y-090053
X043602Y-091037
X043996Y-073265
X043996Y-075824
X043996Y-089265
X043996Y-091824
X044390Y-074053
X044390Y-075037
X044390Y-090053
X044390Y-091037
X044783Y-073265
X044783Y-075824
X044783Y-089265
X044783Y-091824
X045177Y-074053
X045177Y-075037
X045177Y-090053
X045177Y-091037
X045571Y-073265
X045571Y-075824
X045571Y-089265
X045571Y-091824
X045965Y-074053
X045965Y-075037
X045965Y-090053
X045965Y-091037
X046358Y-073265
X046358Y-075824
X046358Y-089265
X046358Y-091824
X046752Y-074053
X046752Y-075037
X046752Y-090053
X046752Y-091037
X047146Y-073265
X047146Y-075824
X047146Y-089265
X047146Y-091824
X047539Y-074053
X047539Y-075037
X047539Y-090053
X047539Y-091037
X047933Y-073265
X047933Y-075824
X047933Y-089265
X047933Y-091824
X048327Y-074053
X048327Y-075037
X048327Y-090053
X048327Y-091037
X048720Y-073265
X048720Y-075824
X048720Y-089265
X048720Y-091824
X049114Y-074053
X049114Y-075037
X049114Y-090053
X049114Y-091037
X049508Y-073265
X049508Y-075824
X049508Y-089265
X049508Y-091824
X049902Y-074053
X049902Y-075037
X049902Y-090053
X049902Y-091037
X050295Y-073265
X050295Y-075824
X050295Y-089265
X050295Y-091824
X050689Y-074053
X050689Y-075037
X050689Y-090053
X050689Y-091037
X051083Y-073265
X051083Y-075824
X051083Y-089265
X051083Y-091824
X051476Y-074053
X051476Y-075037
X051476Y-090053
X051476Y-091037
X051870Y-073265
X051870Y-075824
X051870Y-089265
X051870Y-091824
X052264Y-074053
X052264Y-075037
X052264Y-090053
X052264Y-091037
X052657Y-073265
X052657Y-075824
X052657Y-089265
X052657Y-091824
X053051Y-074053
X053051Y-075037
X053051Y-090053
X053051Y-091037
X053445Y-073265
X053445Y-075824
X053445Y-089265
X053445Y-091824
X053839Y-074053
X053839Y-075037
X053839Y-090053
X053839Y-091037
X054232Y-073265
X054232Y-075824
X054232Y-089265
X054232Y-091824
X054626Y-074053
X054626Y-075037
X054626Y-090053
X054626Y-091037
X055020Y-073265
X055020Y-075824
X055020Y-089265
X055020Y-091824
X055413Y-074053
X055413Y-075037
X055413Y-090053
X055413Y-091037
X055807Y-073265
X055807Y-075824
X055807Y-089265
X055807Y-091824
X056201Y-074053
X056201Y-075037
X056201Y-090053
X056201Y-091037
X056594Y-073265
X056594Y-075824
X056594Y-089265
X056594Y-091824
X056988Y-074053
X056988Y-075037
X056988Y-090053
X056988Y-091037
X057382Y-073265
X057382Y-075824
X057382Y-089265
X057382Y-091824
X057776Y-074053
X057776Y-075037
X057776Y-090053
X057776Y-091037
X058169Y-073265
X058169Y-075824
X058169Y-089265
X058169Y-091824
X058563Y-074053
X058563Y-075037
X058563Y-090053
X058563Y-091037
X058957Y-073265
X058957Y-075824
X058957Y-089265
X058957Y-091824
X059350Y-074053
X059350Y-075037
X059350Y-090053
X059350Y-091037
X059744Y-073265
X059744Y-075824
X059744Y-089265
X059744Y-091824
X060138Y-074053
X060138Y-075037
X060138Y-090053
X060138Y-091037
X060531Y-073265
X060531Y-075824
X060531Y-089265
X060531Y-091824
X060925Y-074053
X060925Y-075037
X060925Y-090053
X060925Y-091037
X061319Y-073265
X061319Y-075824
X061319Y-089265
X061319Y-091824
X061713Y-074053
X061713Y-075037
X061713Y-090053
X061713Y-091037
X062106Y-073265
X062106Y-075824
X062106Y-089265
X062106Y-091824
X062500Y-074053
X062500Y-075037
X062500Y-090053
X062500Y-091037
X062894Y-073265
X062894Y-075824
X062894Y-089265
X062894Y-091824
X063287Y-074053
X063287Y-075037
X063287Y-090053
X063287Y-091037
X063681Y-073265
X063681Y-075824
X063681Y-089265
X063681Y-091824
X064075Y-074053
X064075Y-075037
X064075Y-090053
X064075Y-091037
X064469Y-073265
X064469Y-075824
X064469Y-089265
X064469Y-091824
T7
X017452Y-021449
X017452Y-022000
X017452Y-022551
X017452Y-023102
T8
X027472Y-052551
T9
X016648Y-061398
X016648Y-062201
X016648Y-063004
X016648Y-063807
X017348Y-060996
X017348Y-061799
X017348Y-062602
X017348Y-063405
T10
X024637Y-052551
X024637Y-058161
X026487Y-052551
X026487Y-058161
X028456Y-052551
X028456Y-058161
X030267Y-053468
X030267Y-055358
X030267Y-057248
T11
X017219Y-016472
X017219Y-017456
X017219Y-018244
X017219Y-019228
X018085Y-016472
X018085Y-017456
X018085Y-018244
X018085Y-019228
X020690Y-059282
X020690Y-060282
X020948Y-064410
X020948Y-067120
X021948Y-064410
X021948Y-067120
X037210Y-050610
X038210Y-050610
X039210Y-050610
X040210Y-050610
X041210Y-050610
X042210Y-050610
X047300Y-048908
X047300Y-049908
X053960Y-047900
X054960Y-047900
X055960Y-047900
X056960Y-047900
X057960Y-047900
X059940Y-047900
X060940Y-047900
X061940Y-047900
X062940Y-047900
X063940Y-047900
X083150Y-042840
X083150Y-043840
X084150Y-042840
X084150Y-043840
X085150Y-042840
X085150Y-043840
X086150Y-042840
X086150Y-043840
X087150Y-042840
X087150Y-043840
X089610Y-037371
X089615Y-043140
X090610Y-037371
X090615Y-043140
X091610Y-037371
X091615Y-043140
X093740Y-038851
X093740Y-039851
X093740Y-040851
X093745Y-044610
X093745Y-045610
X093745Y-046610
X100948Y-038551
X100948Y-039551
X101948Y-038551
X101948Y-039551
T12
X020427Y-031841
X020427Y-032841
X020427Y-033841
X020427Y-034841
X020427Y-035841
X020427Y-039241
X020427Y-040241
X020427Y-041241
X020427Y-042241
X020427Y-043241
X020427Y-046641
X020427Y-047641
X020427Y-048641
X020427Y-049641
X020427Y-050641
X021427Y-031341
X021427Y-032341
X021427Y-033341
X021427Y-034341
X021427Y-035341
X021427Y-038741
X021427Y-039741
X021427Y-040741
X021427Y-041741
X021427Y-042741
X021427Y-046141
X021427Y-047141
X021427Y-048141
X021427Y-049141
X021427Y-050141
T13
X077960Y-030050
X077960Y-031050
X077960Y-032050
X077960Y-033050
X091110Y-050210
X092110Y-050210
X093110Y-050210
X094110Y-050210
T14
X015661Y-052551
X015661Y-055929
X017629Y-058161
X019598Y-052551
X021566Y-058161
X023535Y-052551
X023535Y-054787
X023535Y-056913
X025503Y-058161
X029440Y-058161
T16
X081343Y-031930
X089217Y-031930
T17
X015998Y-030984
X015998Y-031984
X015998Y-035201
X015998Y-036201
X015998Y-038384
X015998Y-039384
X015998Y-042601
X015998Y-043601
X015998Y-045784
X015998Y-046784
X015998Y-050001
X015998Y-051001
T18
X104094Y-039102
X104094Y-040756
X104094Y-042409
X104094Y-044063
X104094Y-045717
X104094Y-047370
X104094Y-049024
X104094Y-050677
X104094Y-052331
X104094Y-053984
X104094Y-055638
X104094Y-057291
X106260Y-039102
X106260Y-040756
X106260Y-042409
X106260Y-044063
X106260Y-045717
X106260Y-047370
X106260Y-049024
X106260Y-050677
X106260Y-052331
X106260Y-053984
X106260Y-055638
X106260Y-057291
T19
X016998Y-059232
X016998Y-065571
T20
X019128Y-030543
X019128Y-036642
X019128Y-037943
X019128Y-044042
X019128Y-045343
X019128Y-051442
T21
X043191Y-082527
X050278Y-082527
X050520Y-020301
X055244Y-020301
X058152Y-082527
T22
X044795Y-043528
X047709Y-031323
X073378Y-031323
X076291Y-043528
T23
X017898Y-075201
X017898Y-093201
X026898Y-013201
X078898Y-013201
X078898Y-075201
X078898Y-093201
X078898Y-101201
X107398Y-013201
X107398Y-075201
T4
X014805Y-011199G85X014491Y-011199
G05
X014805Y-014601G85X014491Y-014601
G05
X016498Y-011199G85X016065Y-011199
G05
X016498Y-014601G85X016065Y-014601
G05
X016685Y-021213G85X016173Y-021213
G05
X016685Y-023339G85X016173Y-023339
G05
T9
X015499Y-023951G85X015184Y-023951
G05
X015499Y-029659G85X015184Y-029659
G05
X018058Y-023951G85X017349Y-023951
G05
X018058Y-029659G85X017349Y-029659
G05
T11
X015248Y-022157G85X015248Y-022394
G05
T15
X016786Y-015330G85X016432Y-015330
G05
X016786Y-020370G85X016432Y-020370
G05
T0
M30
