M48
; DRILL file {KiCad 7.0.8-7.0.8~ubuntu22.04.1} date  7.11.2023 (вт) 10:10:44
; FORMAT={-:-/ absolute / metric / decimal}
; #@! TF.CreationDate,2023-11-07T10:10:44+02:00
; #@! TF.GenerationSoftware,Kicad,Pcbnew,7.0.8-7.0.8~ubuntu22.04.1
; #@! TF.FileFunction,Plated,1,4,PTH
FMAT,2
METRIC
; #@! TA.AperFunction,Plated,PTH,ViaDrill
T1C0.200
; #@! TA.AperFunction,Plated,PTH,ViaDrill
T2C0.500
; #@! TA.AperFunction,Plated,PTH,ComponentDrill
T3C0.500
; #@! TA.AperFunction,Plated,PTH,ComponentDrill
T4C0.600
; #@! TA.AperFunction,Plated,PTH,ComponentDrill
T5C0.650
; #@! TA.AperFunction,Plated,PTH,ComponentDrill
T6C0.700
; #@! TA.AperFunction,Plated,PTH,ComponentDrill
T7C0.800
; #@! TA.AperFunction,Plated,PTH,ComponentDrill
T8C0.850
; #@! TA.AperFunction,Plated,PTH,ComponentDrill
T9C0.900
; #@! TA.AperFunction,Plated,PTH,ComponentDrill
T10C0.950
; #@! TA.AperFunction,Plated,PTH,ComponentDrill
T11C1.000
; #@! TA.AperFunction,Plated,PTH,ComponentDrill
T12C1.016
; #@! TA.AperFunction,Plated,PTH,ComponentDrill
T13C1.020
; #@! TA.AperFunction,Plated,PTH,ComponentDrill
T14C1.050
; #@! TA.AperFunction,Plated,PTH,ComponentDrill
T15C1.100
; #@! TA.AperFunction,Plated,PTH,ComponentDrill
T16C1.200
; #@! TA.AperFunction,Plated,PTH,ComponentDrill
T17C1.219
; #@! TA.AperFunction,Plated,PTH,ComponentDrill
T18C1.500
; #@! TA.AperFunction,Plated,PTH,ComponentDrill
T19C1.600
; #@! TA.AperFunction,Plated,PTH,ComponentDrill
T20C1.829
; #@! TA.AperFunction,Plated,PTH,ComponentDrill
T21C2.200
; #@! TA.AperFunction,Plated,PTH,ComponentDrill
T22C3.200
; #@! TA.AperFunction,Plated,PTH,ComponentDrill
T23C4.000
%
G90
G05
T1
X40.132Y-31.496
X40.132Y-34.544
X40.507Y-32.514
X40.513Y-33.528
X44.116Y-30.827
X44.611Y-31.322
X45.085Y-35.56
X45.466Y-34.036
X46.609Y-30.988
X47.117Y-38.354
X48.006Y-63.246
X53.22Y-52.317
X53.433Y-55.8
X53.714Y-51.823
X53.928Y-56.295
X54.966Y-193.853
X54.966Y-202.997
X55.855Y-193.167
X55.855Y-203.479
X59.264Y-49.191
X59.29Y-98.508
X59.785Y-99.003
X59.964Y-49.191
X60.452Y-84.283
X60.452Y-84.983
X60.858Y-205.791
X63.856Y-203.282
X63.856Y-203.982
X63.881Y-54.102
X64.98Y-114.459
X65.475Y-114.954
X66.04Y-206.804
X66.04Y-207.504
X68.047Y-139.624
X68.047Y-140.411
X70.866Y-72.796
X70.866Y-73.812
X70.866Y-74.828
X72.771Y-67.056
X74.549Y-61.849
X75.692Y-206.502
X76.2Y-72.796
X76.2Y-73.812
X76.2Y-74.828
X76.86Y-209.448
X77.724Y-208.432
X77.927Y-100.736
X78.613Y-61.722
X78.638Y-100.868
X79.197Y-93.015
X79.756Y-204.622
X81.407Y-62.484
X81.585Y-95.91
X81.813Y-204.343
X82.978Y-49.483
X83.185Y-93.015
X83.185Y-202.971
X83.312Y-72.009
X83.312Y-72.771
X83.49Y-134.518
X83.515Y-135.255
X83.693Y-64.516
X83.757Y-48.704
X84.201Y-65.151
X84.226Y-135.255
X84.582Y-197.561
X84.582Y-238.252
X84.582Y-242.367
X84.582Y-246.151
X84.785Y-95.91
X85.725Y-238.252
X85.725Y-242.367
X85.725Y-246.151
X85.75Y-198.018
X86.741Y-33.782
X86.995Y-111.303
X87.579Y-39.827
X87.598Y-111.766
X90.221Y-103.175
X90.246Y-103.962
X90.246Y-113.843
X90.246Y-114.859
X90.526Y-104.927
X90.526Y-105.74
X91.574Y-58.667
X92.068Y-58.173
X93.091Y-106.528
X93.447Y-99.06
X93.675Y-105.893
X93.751Y-99.693
X94.894Y-71.958
X98.996Y-53.149
X99.009Y-54.305
X99.07Y-91.242
X99.07Y-91.942
X101.092Y-45.212
X101.092Y-52.07
X101.092Y-53.086
X102.565Y-117.221
X102.565Y-117.932
X102.565Y-119.228
X105.156Y-45.847
X108.003Y-99.337
X108.003Y-100.813
X108.102Y-119.228
X110.592Y-98.323
X110.592Y-99.339
X110.592Y-100.787
X110.592Y-101.829
X112.039Y-130.531
X115.265Y-120.066
X115.265Y-121.361
X115.265Y-130.785
X116.307Y-118.999
X116.307Y-120.32
X120.548Y-130.785
X121.793Y-111.43
X122.428Y-110.719
X122.428Y-112.065
X123.038Y-110.312
X123.398Y-112.082
X123.805Y-97.942
X124.06Y-108.553
X124.505Y-97.942
X124.555Y-108.058
X125.832Y-130.785
X125.94Y-95.218
X126.435Y-94.723
X127.235Y-117.113
X127.667Y-108.553
X127.718Y-94.812
X127.73Y-116.618
X128.162Y-108.058
X128.213Y-94.317
X130.048Y-86.741
X130.048Y-87.757
X130.556Y-87.249
X139.548Y-103.808
X140.248Y-103.808
X143.136Y-91.687
X143.63Y-91.193
X144.526Y-68.605
X145.694Y-109.939
X145.694Y-111.633
X146.152Y-91.135
X146.406Y-109.939
X146.406Y-111.633
X146.562Y-68.635
X146.812Y-104.267
X146.914Y-91.135
X147.117Y-109.939
X147.117Y-111.633
X147.422Y-103.759
X147.828Y-109.939
X147.828Y-111.633
X148.158Y-103.759
X148.895Y-104.292
X148.895Y-105.029
X151.638Y-105.029
X151.663Y-107.772
X152.273Y-108.28
X152.984Y-108.28
X153.289Y-110.338
X153.289Y-111.43
X153.645Y-105.029
X154.0Y-108.28
X154.0Y-110.338
X154.0Y-111.43
X154.737Y-108.28
X154.737Y-110.338
X154.737Y-111.43
X155.448Y-108.28
X155.448Y-110.338
X155.448Y-111.43
X158.852Y-152.705
X171.272Y-117.018
X172.034Y-117.018
X172.796Y-117.018
X172.898Y-115.875
X173.787Y-117.018
X175.031Y-168.046
X175.031Y-171.069
X175.311Y-117.018
X176.174Y-117.018
X177.089Y-117.018
X180.898Y-117.119
X181.398Y-116.586
X182.321Y-116.738
X182.398Y-115.926
X183.413Y-104.394
X185.225Y-104.216
X186.106Y-104.673
X186.309Y-103.759
X187.35Y-105.206
X187.808Y-106.451
X188.468Y-104.75
X194.107Y-203.282
X194.107Y-203.982
X197.815Y-106.121
X198.755Y-107.467
X202.946Y-124.46
X202.946Y-125.476
X202.946Y-126.213
X202.946Y-126.949
X202.946Y-127.686
X206.807Y-109.245
X207.747Y-109.245
X208.28Y-113.386
X209.804Y-115.341
X213.773Y-222.345
X214.268Y-221.85
X216.459Y-168.758
X219.304Y-181.153
X219.608Y-158.598
X219.608Y-165.125
X219.608Y-166.167
X219.608Y-167.31
X219.608Y-168.046
X219.608Y-168.758
X219.608Y-169.469
X219.608Y-170.612
X219.608Y-171.653
X220.503Y-186.893
X221.203Y-186.893
X221.996Y-160.985
X222.199Y-232.365
X222.199Y-233.065
X223.576Y-194.666
X224.276Y-194.666
X228.6Y-158.318
X229.133Y-158.801
X229.692Y-159.283
X230.251Y-159.766
X230.861Y-160.528
X233.477Y-233.838
X233.477Y-234.538
X233.477Y-235.437
X233.477Y-236.137
X234.385Y-228.633
X234.385Y-229.333
X234.95Y-205.994
X235.585Y-206.426
X236.22Y-205.994
X236.855Y-206.426
X237.49Y-205.994
X238.125Y-206.426
X238.76Y-205.994
X239.065Y-223.437
X239.065Y-224.137
X239.192Y-226.568
X239.387Y-235.187
X239.395Y-232.787
X239.42Y-206.426
X239.674Y-241.249
X240.055Y-205.994
X240.792Y-246.685
X241.579Y-247.193
X242.113Y-224.384
X242.113Y-226.797
X242.113Y-227.584
X242.189Y-229.972
X242.418Y-228.219
X242.418Y-241.249
X242.697Y-235.712
X242.722Y-223.393
X242.824Y-238.608
X242.9Y-232.385
X242.9Y-233.731
X242.951Y-224.434
X243.611Y-236.245
X243.637Y-235.509
X243.713Y-223.914
X243.713Y-226.797
X244.45Y-203.282
X244.45Y-203.982
X244.729Y-223.393
X244.831Y-234.569
X245.542Y-235.509
X245.618Y-223.393
X246.075Y-238.531
X246.431Y-236.245
X246.482Y-217.528
X247.182Y-217.528
X247.244Y-236.017
X247.498Y-241.529
X247.498Y-243.053
X248.107Y-224.409
X248.818Y-224.409
X249.58Y-242.316
X249.987Y-225.603
X249.987Y-226.441
X250.114Y-241.833
X250.546Y-241.275
X250.825Y-235.509
X251.13Y-225.603
X251.13Y-226.441
X251.536Y-236.042
X251.612Y-208.534
X251.623Y-223.317
X252.423Y-236.042
X252.908Y-224.409
X252.908Y-229.591
X252.94Y-211.258
X253.213Y-235.509
X253.64Y-211.258
X254.076Y-223.342
X254.076Y-224.384
X254.076Y-227.178
X254.076Y-233.197
X254.584Y-224.993
X255.987Y-209.423
X256.687Y-209.423
X256.972Y-235.61
X257.042Y-224.747
X257.048Y-224.027
X257.048Y-225.806
X257.048Y-226.517
X257.048Y-227.432
X257.048Y-228.346
X257.058Y-229.354
X257.277Y-220.548
X257.404Y-233.02
X257.886Y-235.89
X257.886Y-236.804
X259.283Y-235.864
X259.283Y-236.804
X259.563Y-229.895
X263.296Y-229.692
X263.296Y-231.191
X263.296Y-232.308
X263.296Y-233.426
X263.296Y-234.544
X263.296Y-235.661
X264.947Y-244.475
X265.582Y-242.748
T2
X36.601Y-144.729
X38.887Y-144.729
X41.173Y-144.729
X43.18Y-64.897
X43.18Y-67.564
X43.18Y-69.088
X43.18Y-70.612
X43.18Y-72.136
X43.434Y-28.727
X43.434Y-36.83
X43.459Y-144.729
X44.45Y-32.385
X45.212Y-28.702
X46.482Y-173.787
X46.482Y-175.26
X47.32Y-156.896
X47.32Y-158.826
X48.514Y-34.163
X48.768Y-83.21
X48.768Y-173.787
X48.768Y-175.26
X49.022Y-65.024
X49.022Y-66.421
X49.149Y-35.687
X49.473Y-38.712
X49.53Y-53.34
X50.14Y-34.9
X52.197Y-38.481
X52.197Y-41.275
X52.959Y-53.34
X53.035Y-44.501
X53.035Y-46.965
X54.483Y-39.116
X54.864Y-50.419
X54.991Y-43.434
X55.118Y-48.006
X55.118Y-49.149
X55.245Y-32.131
X55.499Y-57.658
X56.744Y-204.673
X56.769Y-41.656
X56.769Y-57.674
X56.769Y-59.309
X57.048Y-94.996
X57.76Y-229.972
X57.785Y-38.481
X58.191Y-75.616
X58.191Y-93.878
X58.211Y-40.642
X59.334Y-76.708
X59.334Y-114.275
X59.436Y-46.736
X59.557Y-40.642
X59.817Y-57.658
X60.147Y-154.483
X60.147Y-157.861
X60.452Y-73.914
X60.528Y-114.275
X60.96Y-49.149
X61.163Y-175.768
X61.163Y-245.618
X61.208Y-59.184
X61.417Y-35.992
X61.417Y-38.202
X61.911Y-79.756
X62.433Y-206.705
X62.433Y-207.924
X62.433Y-209.398
X62.433Y-210.871
X62.433Y-212.395
X62.433Y-216.408
X62.433Y-217.881
X62.433Y-219.964
X62.484Y-196.088
X62.611Y-47.244
X62.992Y-58.293
X63.754Y-46.482
X63.856Y-143.612
X64.033Y-175.768
X64.033Y-245.618
X64.262Y-49.657
X64.389Y-73.914
X64.77Y-137.211
X64.77Y-144.424
X65.024Y-54.991
X65.38Y-229.972
X65.43Y-221.59
X65.659Y-79.756
X65.888Y-218.542
X65.938Y-200.914
X65.964Y-49.708
X66.167Y-71.628
X66.472Y-194.462
X66.497Y-44.45
X66.548Y-136.195
X67.361Y-63.906
X67.869Y-194.488
X68.123Y-79.756
X68.326Y-143.612
X68.326Y-144.78
X68.377Y-245.618
X68.453Y-175.768
X69.032Y-71.101
X69.19Y-52.172
X69.279Y-194.474
X69.469Y-141.554
X69.621Y-117.704
X69.799Y-206.654
X70.053Y-71.577
X70.764Y-140.411
X70.764Y-141.554
X70.866Y-43.18
X70.866Y-46.355
X70.917Y-117.704
X71.247Y-175.768
X71.298Y-245.618
X71.323Y-71.577
X71.882Y-59.055
X71.882Y-69.952
X72.06Y-140.411
X72.085Y-117.704
X72.384Y-64.264
X72.746Y-93.345
X72.771Y-71.501
X72.949Y-55.677
X72.974Y-102.337
X72.974Y-136.804
X72.974Y-139.217
X72.974Y-141.605
X72.974Y-144.018
X73.0Y-100.345
X73.146Y-61.343
X73.304Y-196.088
X73.381Y-117.704
X73.939Y-236.449
X74.727Y-135.814
X74.727Y-145.034
X75.108Y-103.353
X75.184Y-110.388
X75.336Y-35.687
X75.413Y-95.352
X75.463Y-91.516
X75.946Y-38.125
X76.01Y-236.436
X76.556Y-95.352
X76.556Y-109.322
X76.975Y-71.564
X77.343Y-38.125
X77.749Y-138.963
X77.978Y-107.544
X78.232Y-32.512
X78.232Y-240.741
X78.308Y-105.715
X78.384Y-141.3
X78.384Y-144.348
X78.842Y-108.331
X78.994Y-96.571
X79.011Y-71.59
X79.197Y-56.187
X79.35Y-100.127
X79.35Y-102.533
X79.35Y-105.004
X79.604Y-115.9
X80.01Y-36.703
X80.137Y-71.628
X80.239Y-136.525
X80.239Y-139.497
X80.315Y-240.741
X80.366Y-97.434
X80.366Y-101.346
X80.366Y-103.734
X80.366Y-106.528
X80.416Y-108.331
X80.416Y-145.415
X80.518Y-31.623
X81.382Y-107.544
X81.407Y-33.655
X81.407Y-34.798
X81.585Y-100.127
X81.585Y-102.533
X81.585Y-105.004
X81.686Y-54.661
X81.792Y-113.353
X82.372Y-140.818
X82.398Y-66.751
X82.423Y-130.531
X82.448Y-107.544
X82.677Y-36.703
X82.753Y-96.571
X82.804Y-68.58
X82.804Y-70.866
X83.414Y-108.331
X83.541Y-136.525
X83.566Y-97.434
X83.82Y-36.703
X83.947Y-105.004
X84.176Y-86.893
X84.201Y-89.535
X84.963Y-37.694
X85.242Y-105.004
X85.242Y-134.976
X85.268Y-76.733
X85.522Y-40.538
X85.852Y-180.137
X85.992Y-91.478
X86.004Y-37.694
X86.004Y-97.434
X86.004Y-134.112
X86.106Y-32.131
X86.436Y-75.59
X86.436Y-76.733
X87.122Y-63.444
X87.173Y-108.306
X87.274Y-148.742
X87.274Y-159.563
X87.376Y-55.27
X87.625Y-96.565
X87.63Y-67.945
X87.63Y-71.882
X87.884Y-62.484
X87.909Y-91.491
X87.909Y-92.939
X87.935Y-52.781
X87.986Y-105.232
X87.986Y-106.528
X88.163Y-114.91
X88.341Y-99.314
X88.341Y-101.752
X88.392Y-86.843
X88.595Y-154.483
X88.697Y-97.434
X88.722Y-33.092
X88.748Y-63.348
X88.9Y-67.945
X88.9Y-107.544
X89.027Y-51.943
X89.027Y-53.721
X89.408Y-112.85
X89.687Y-100.533
X89.713Y-108.407
X89.75Y-241.63
X89.75Y-246.202
X89.814Y-152.248
X89.814Y-154.483
X89.967Y-143.231
X89.967Y-145.669
X90.068Y-248.844
X90.348Y-111.633
X90.576Y-86.766
X90.576Y-88.214
X90.805Y-42.799
X90.805Y-54.737
X91.084Y-65.913
X91.11Y-145.669
X91.161Y-90.5
X91.338Y-180.137
X91.719Y-86.766
X91.719Y-88.214
X91.821Y-95.301
X91.923Y-66.777
X92.126Y-134.976
X92.126Y-136.271
X92.126Y-141.986
X92.253Y-145.669
X92.786Y-67.64
X92.862Y-86.766
X92.862Y-88.214
X92.964Y-47.498
X92.964Y-57.531
X92.964Y-60.706
X92.964Y-79.883
X92.964Y-82.423
X93.066Y-113.843
X93.066Y-114.859
X93.396Y-145.669
X93.599Y-120.193
X93.65Y-108.001
X94.107Y-79.883
X94.107Y-82.423
X94.285Y-109.22
X94.844Y-125.882
X95.234Y-79.883
X95.234Y-82.423
X95.707Y-109.195
X95.987Y-112.471
X96.012Y-110.515
X96.334Y-141.91
X96.393Y-48.387
X96.393Y-49.911
X96.393Y-51.873
X96.393Y-53.594
X96.52Y-58.293
X96.52Y-59.436
X96.52Y-60.579
X96.825Y-108.026
X97.333Y-105.334
X97.536Y-42.291
X97.765Y-40.589
X98.044Y-118.745
X98.095Y-102.108
X98.196Y-97.587
X98.298Y-65.532
X98.425Y-43.307
X98.425Y-143.231
X98.755Y-242.697
X98.755Y-245.923
X98.781Y-151.613
X98.781Y-158.318
X99.263Y-110.058
X99.593Y-148.438
X99.593Y-149.733
X99.72Y-105.334
X99.72Y-108.382
X100.051Y-120.193
X100.178Y-242.697
X100.178Y-245.923
X100.381Y-125.882
X100.432Y-197.993
X100.838Y-43.053
X101.168Y-146.837
X101.168Y-161.468
X101.422Y-114.783
X101.829Y-105.562
X101.981Y-67.437
X102.362Y-41.402
X102.464Y-96.622
X102.718Y-98.45
X102.718Y-236.982
X102.718Y-239.116
X102.718Y-240.995
X103.124Y-148.438
X103.124Y-157.328
X103.505Y-61.798
X103.505Y-64.389
X103.911Y-108.458
X104.013Y-43.561
X104.089Y-95.123
X104.242Y-150.012
X104.419Y-160.655
X104.597Y-98.755
X104.597Y-101.295
X104.673Y-120.193
X104.851Y-61.798
X104.902Y-42.545
X105.258Y-95.123
X105.258Y-96.393
X105.562Y-159.563
X105.918Y-125.882
X105.918Y-136.119
X105.918Y-137.363
X106.426Y-95.123
X106.426Y-96.393
X107.467Y-63.348
X108.204Y-103.784
X108.204Y-105.766
X108.737Y-63.348
X110.211Y-120.193
X111.455Y-125.882
X112.065Y-131.674
X113.309Y-137.363
X114.046Y-103.784
X114.046Y-105.334
X115.494Y-103.784
X115.494Y-105.334
X117.373Y-131.674
X117.526Y-103.784
X118.288Y-242.697
X118.618Y-137.363
X118.72Y-103.784
X118.72Y-104.927
X119.37Y-239.395
X119.507Y-119.634
X119.913Y-103.784
X120.447Y-237.541
X120.447Y-249.809
X120.828Y-116.611
X121.107Y-103.784
X122.301Y-103.759
X122.428Y-117.602
X122.657Y-131.674
X122.936Y-120.853
X123.063Y-101.448
X123.063Y-102.591
X123.901Y-137.363
X123.952Y-67.437
X124.155Y-101.448
X124.155Y-102.591
X124.155Y-238.811
X124.155Y-250.571
X124.358Y-104.775
X124.892Y-111.815
X125.095Y-68.326
X125.882Y-118.618
X126.111Y-237.536
X126.111Y-240.076
X126.39Y-111.815
X127.584Y-104.673
X127.889Y-111.815
X127.94Y-131.674
X129.184Y-137.363
X129.311Y-237.536
X129.692Y-116.307
X129.819Y-99.797
X129.819Y-100.94
X129.87Y-104.673
X130.632Y-242.697
X131.928Y-239.42
X131.928Y-242.697
X132.588Y-151.206
X132.588Y-160.096
X132.588Y-165.557
X132.588Y-174.447
X133.147Y-104.673
X133.147Y-108.102
X133.883Y-152.476
X133.883Y-156.286
X133.883Y-158.826
X133.883Y-166.827
X133.883Y-170.637
X133.883Y-173.177
X134.087Y-237.541
X134.087Y-249.809
X134.391Y-111.815
X134.493Y-97.231
X134.493Y-98.679
X135.23Y-137.389
X135.23Y-144.043
X135.23Y-145.847
X135.23Y-147.422
X135.636Y-97.231
X135.636Y-98.679
X136.652Y-104.673
X136.652Y-108.102
X136.779Y-97.231
X136.779Y-98.679
X136.906Y-111.815
X137.312Y-145.567
X137.312Y-147.422
X137.312Y-152.476
X137.312Y-155.016
X137.566Y-166.827
X137.566Y-169.367
X137.719Y-238.811
X137.719Y-250.571
X137.82Y-161.366
X138.659Y-147.422
X139.624Y-148.869
X139.624Y-163.22
X139.624Y-176.835
X139.751Y-237.541
X139.751Y-238.811
X139.903Y-111.815
X140.64Y-108.128
X140.868Y-104.546
X141.503Y-142.723
X141.503Y-145.339
X141.58Y-149.936
X141.58Y-158.826
X141.58Y-161.366
X141.58Y-164.287
X141.58Y-173.177
X141.58Y-175.717
X141.605Y-38.735
X141.605Y-40.64
X141.605Y-42.545
X141.605Y-44.45
X141.605Y-46.355
X141.605Y-48.26
X141.605Y-55.245
X142.138Y-108.128
X142.148Y-104.902
X142.494Y-64.77
X142.494Y-66.04
X142.9Y-111.815
X142.951Y-237.541
X142.951Y-238.811
X143.154Y-61.57
X143.154Y-63.068
X143.446Y-108.115
X143.459Y-104.546
X143.688Y-144.043
X143.942Y-151.511
X143.942Y-154.051
X143.942Y-165.862
X143.942Y-168.402
X144.272Y-242.697
X144.78Y-108.458
X145.542Y-60.96
X146.71Y-89.586
X147.574Y-112.878
X147.879Y-89.586
X147.955Y-83.82
X148.336Y-64.77
X148.336Y-66.04
X148.438Y-90.602
X148.971Y-82.931
X148.971Y-84.709
X149.53Y-112.878
X149.606Y-103.657
X152.677Y-151.552
X152.677Y-156.373
X152.679Y-166.284
X152.679Y-171.12
X154.991Y-113.005
X155.651Y-104.648
X156.896Y-112.878
X156.896Y-116.281
X157.15Y-104.648
X157.15Y-108.102
X157.277Y-59.792
X158.648Y-104.648
X158.648Y-108.102
X159.436Y-153.721
X159.436Y-158.547
X159.436Y-168.468
X159.436Y-173.304
X159.893Y-70.612
X159.893Y-112.878
X159.893Y-116.281
X160.147Y-48.362
X160.147Y-104.648
X160.147Y-108.102
X161.417Y-70.993
X161.646Y-104.648
X161.646Y-108.102
X162.89Y-112.878
X162.89Y-116.281
X163.144Y-47.015
X163.144Y-104.648
X163.144Y-108.102
X165.151Y-104.648
X165.151Y-108.102
X165.695Y-116.204
X165.76Y-46.99
X165.913Y-112.878
X166.649Y-104.648
X166.649Y-108.102
X168.148Y-104.648
X168.148Y-108.102
X169.285Y-42.647
X169.647Y-104.648
X169.647Y-108.102
X170.301Y-49.759
X170.409Y-112.878
X170.555Y-42.647
X171.145Y-104.648
X171.145Y-108.102
X172.079Y-43.155
X172.079Y-44.679
X172.079Y-45.949
X172.079Y-47.219
X172.288Y-112.852
X173.603Y-42.647
X174.422Y-102.286
X174.65Y-108.102
X174.873Y-42.647
X175.53Y-110.744
X176.505Y-47.092
X176.651Y-49.505
X176.657Y-110.744
X177.648Y-47.092
X177.8Y-110.744
X177.978Y-116.51
X178.359Y-108.102
X179.654Y-108.102
X180.01Y-116.51
X180.975Y-108.102
X181.356Y-52.578
X181.356Y-55.321
X181.381Y-112.268
X182.778Y-92.354
X182.778Y-102.565
X182.905Y-112.268
X183.871Y-53.95
X183.896Y-109.47
X184.658Y-108.102
X184.72Y-116.226
X185.877Y-92.354
X185.877Y-101.879
X186.106Y-108.331
X186.106Y-109.474
X187.757Y-59.792
X188.316Y-64.821
X190.119Y-66.396
X190.627Y-48.362
X191.77Y-64.821
X193.65Y-47.015
X196.24Y-46.99
X197.358Y-113.661
X197.663Y-94.59
X198.958Y-93.497
X199.034Y-86.055
X199.765Y-42.647
X200.0Y-105.054
X200.781Y-49.759
X201.035Y-42.647
X201.168Y-102.565
X201.314Y-96.998
X201.676Y-86.843
X202.356Y-78.869
X202.559Y-43.155
X202.559Y-44.679
X202.559Y-45.949
X202.559Y-47.219
X202.794Y-85.166
X202.794Y-88.646
X203.429Y-107.696
X203.429Y-130.962
X203.835Y-100.305
X203.86Y-248.844
X204.064Y-95.402
X204.083Y-42.647
X205.003Y-107.696
X205.003Y-130.962
X205.353Y-42.647
X206.121Y-100.305
X206.985Y-47.092
X207.131Y-49.505
X207.366Y-248.844
X207.95Y-95.098
X208.128Y-47.092
X208.991Y-89.611
X208.991Y-95.098
X210.896Y-95.529
X211.836Y-52.578
X211.836Y-55.321
X214.351Y-53.95
X218.237Y-59.792
X218.872Y-64.821
X220.599Y-66.396
X221.132Y-48.362
X222.326Y-64.821
X224.104Y-47.041
X224.231Y-96.598
X224.231Y-101.805
X224.231Y-105.639
X224.231Y-107.823
X224.231Y-116.434
X224.231Y-121.869
X224.243Y-111.252
X226.72Y-46.99
X230.149Y-120.929
X230.245Y-42.647
X231.261Y-49.759
X231.292Y-97.638
X231.292Y-102.845
X231.292Y-112.293
X231.292Y-117.475
X231.515Y-42.647
X231.667Y-237.975
X233.039Y-43.155
X233.039Y-44.679
X233.039Y-45.949
X233.039Y-47.219
X234.563Y-42.647
X235.204Y-94.615
X235.204Y-95.834
X235.833Y-42.647
X235.858Y-238.838
X235.89Y-237.007
X236.798Y-227.459
X236.798Y-230.507
X237.465Y-47.092
X237.541Y-219.71
X237.611Y-49.505
X238.252Y-240.894
X238.455Y-218.694
X238.455Y-220.726
X238.608Y-47.092
X239.522Y-245.669
X240.513Y-222.758
X240.665Y-237.007
X240.665Y-238.481
X241.884Y-169.774
X242.316Y-52.578
X242.316Y-55.321
X242.367Y-124.384
X242.367Y-125.603
X243.129Y-251.358
X243.205Y-169.774
X243.484Y-124.384
X243.484Y-125.603
X243.992Y-242.494
X244.602Y-124.384
X244.602Y-125.603
X244.831Y-53.95
X244.831Y-244.272
X244.831Y-245.863
X245.307Y-217.528
X245.772Y-251.367
X246.532Y-243.484
X246.552Y-228.145
X246.552Y-229.796
X246.552Y-231.32
X248.223Y-228.145
X248.223Y-229.787
X248.223Y-231.32
X248.285Y-248.412
X248.355Y-217.528
X248.488Y-215.951
X248.717Y-59.792
X249.225Y-247.269
X249.453Y-64.821
X249.854Y-228.145
X249.854Y-229.796
X249.854Y-231.32
X250.571Y-91.44
X250.692Y-128.208
X251.079Y-66.345
X251.536Y-215.951
X251.587Y-48.362
X251.765Y-213.893
X251.962Y-117.477
X251.962Y-242.674
X252.101Y-246.657
X252.679Y-64.821
X253.34Y-246.657
X253.359Y-106.936
X253.924Y-88.443
X254.076Y-241.275
X254.61Y-46.99
X254.61Y-246.657
X254.813Y-211.887
X254.813Y-213.893
X255.137Y-95.125
X255.321Y-238.732
X255.499Y-89.789
X256.159Y-241.884
X256.661Y-123.319
X256.661Y-133.923
X256.794Y-221.742
X257.042Y-111.635
X257.175Y-240.838
X257.2Y-46.99
X257.861Y-211.938
X258.312Y-150.497
X258.445Y-238.735
X259.461Y-159.309
X259.461Y-160.706
X259.582Y-107.063
X259.893Y-226.619
X259.893Y-228.651
X260.296Y-145.864
X260.598Y-138.813
X260.725Y-42.647
X260.858Y-222.555
X260.858Y-223.622
X261.569Y-167.843
X261.741Y-49.759
X261.995Y-42.647
X262.001Y-241.275
X262.64Y-225.093
X263.017Y-240.259
X263.519Y-43.155
X263.519Y-44.679
X263.519Y-45.949
X263.519Y-47.219
X263.601Y-215.951
X263.601Y-217.195
X263.658Y-228.573
X263.703Y-242.773
X263.754Y-236.779
X264.135Y-156.159
X264.135Y-159.309
X264.135Y-173.812
X264.185Y-92.862
X264.617Y-221.336
X264.719Y-167.843
X265.024Y-165.633
X265.043Y-42.647
X265.201Y-236.779
X265.201Y-237.896
X265.201Y-239.014
X266.161Y-155.448
X266.161Y-160.706
X266.243Y-235.052
X266.245Y-232.844
X266.313Y-42.647
X266.37Y-88.443
X267.335Y-217.195
X267.513Y-218.796
X267.945Y-47.092
X267.945Y-89.814
X268.091Y-49.505
X268.173Y-153.187
X268.173Y-157.15
X269.088Y-47.092
X269.9Y-155.448
X269.9Y-160.706
X270.459Y-210.972
X272.136Y-232.029
X272.796Y-52.578
X272.796Y-55.321
X272.796Y-213.36
X272.796Y-214.63
X272.796Y-215.951
X272.796Y-220.853
X273.507Y-227.965
X273.736Y-155.448
X273.736Y-158.217
X273.736Y-170.967
X273.863Y-230.403
X275.311Y-53.95
T3
X57.864Y-52.334
X57.864Y-54.334
X59.864Y-52.334
X59.864Y-54.334
X75.564Y-64.523
X75.564Y-66.423
X75.564Y-68.323
X77.464Y-64.523
X77.464Y-66.423
X77.464Y-68.323
X79.364Y-64.523
X79.364Y-66.423
X79.364Y-68.323
X84.816Y-116.815
X85.816Y-116.815
X86.816Y-116.815
X87.816Y-116.815
X88.816Y-116.815
X89.816Y-116.815
X90.816Y-116.815
X91.816Y-116.815
X241.154Y-214.63
X242.154Y-214.63
X243.154Y-214.63
X244.154Y-214.63
X245.154Y-214.63
X246.154Y-214.63
T4
X42.46Y-191.01
X42.46Y-236.73
X43.339Y-188.889
X43.339Y-193.131
X43.339Y-234.609
X43.339Y-238.851
X45.46Y-188.01
X45.46Y-194.01
X45.46Y-233.73
X45.46Y-239.73
X47.581Y-188.889
X47.581Y-193.131
X47.581Y-234.609
X47.581Y-238.851
X48.46Y-191.01
X48.46Y-236.73
X65.32Y-33.53
X66.199Y-31.409
X66.199Y-35.651
X68.32Y-30.53
X68.32Y-36.53
X70.441Y-31.409
X70.441Y-35.651
X71.32Y-33.53
X197.4Y-33.53
X197.4Y-191.01
X197.4Y-236.73
X197.4Y-257.05
X198.279Y-31.409
X198.279Y-35.651
X198.279Y-188.889
X198.279Y-193.131
X198.279Y-234.609
X198.279Y-238.851
X198.279Y-254.929
X198.279Y-259.171
X200.4Y-30.53
X200.4Y-36.53
X200.4Y-188.01
X200.4Y-194.01
X200.4Y-233.73
X200.4Y-239.73
X200.4Y-254.05
X200.4Y-260.05
X202.521Y-31.409
X202.521Y-35.651
X202.521Y-188.889
X202.521Y-193.131
X202.521Y-234.609
X202.521Y-238.851
X202.521Y-254.929
X202.521Y-259.171
X203.4Y-33.53
X203.4Y-191.01
X203.4Y-236.73
X203.4Y-257.05
X269.79Y-33.53
X269.79Y-191.01
X270.669Y-31.409
X270.669Y-35.651
X270.669Y-188.889
X270.669Y-193.131
X272.79Y-30.53
X272.79Y-36.53
X272.79Y-188.01
X272.79Y-194.01
X274.911Y-31.409
X274.911Y-35.651
X274.911Y-188.889
X274.911Y-193.131
X275.79Y-33.53
X275.79Y-191.01
T5
X171.806Y-123.063
X173.076Y-123.063
X174.346Y-123.063
X175.616Y-123.063
X176.886Y-123.063
X178.156Y-123.063
X179.426Y-123.063
X180.696Y-123.063
X181.966Y-123.063
X199.583Y-110.851
X199.583Y-112.121
X199.583Y-113.391
X200.853Y-110.851
X200.853Y-112.121
X200.853Y-113.391
T6
X80.75Y-188.094
X80.75Y-190.594
X80.75Y-228.734
X80.75Y-231.234
X81.75Y-186.094
X81.75Y-192.594
X81.75Y-226.734
X81.75Y-233.234
X82.75Y-188.094
X82.75Y-190.594
X82.75Y-228.734
X82.75Y-231.234
X83.75Y-186.094
X83.75Y-192.594
X83.75Y-226.734
X83.75Y-233.234
X84.75Y-188.094
X84.75Y-190.594
X84.75Y-228.734
X84.75Y-231.234
X85.75Y-186.094
X85.75Y-192.594
X85.75Y-226.734
X85.75Y-233.234
X86.75Y-188.094
X86.75Y-190.594
X86.75Y-228.734
X86.75Y-231.234
X87.75Y-186.094
X87.75Y-192.594
X87.75Y-226.734
X87.75Y-233.234
X88.75Y-188.094
X88.75Y-190.594
X88.75Y-228.734
X88.75Y-231.234
X89.75Y-186.094
X89.75Y-192.594
X89.75Y-226.734
X89.75Y-233.234
X90.75Y-188.094
X90.75Y-190.594
X90.75Y-228.734
X90.75Y-231.234
X93.75Y-186.094
X93.75Y-192.594
X93.75Y-226.734
X93.75Y-233.234
X94.75Y-188.094
X94.75Y-190.594
X94.75Y-228.734
X94.75Y-231.234
X95.75Y-186.094
X95.75Y-192.594
X95.75Y-226.734
X95.75Y-233.234
X96.75Y-188.094
X96.75Y-190.594
X96.75Y-228.734
X96.75Y-231.234
X97.75Y-186.094
X97.75Y-192.594
X97.75Y-226.734
X97.75Y-233.234
X98.75Y-188.094
X98.75Y-190.594
X98.75Y-228.734
X98.75Y-231.234
X99.75Y-186.094
X99.75Y-192.594
X99.75Y-226.734
X99.75Y-233.234
X100.75Y-188.094
X100.75Y-190.594
X100.75Y-228.734
X100.75Y-231.234
X101.75Y-186.094
X101.75Y-192.594
X101.75Y-226.734
X101.75Y-233.234
X102.75Y-188.094
X102.75Y-190.594
X102.75Y-228.734
X102.75Y-231.234
X103.75Y-186.094
X103.75Y-192.594
X103.75Y-226.734
X103.75Y-233.234
X104.75Y-188.094
X104.75Y-190.594
X104.75Y-228.734
X104.75Y-231.234
X105.75Y-186.094
X105.75Y-192.594
X105.75Y-226.734
X105.75Y-233.234
X106.75Y-188.094
X106.75Y-190.594
X106.75Y-228.734
X106.75Y-231.234
X107.75Y-186.094
X107.75Y-192.594
X107.75Y-226.734
X107.75Y-233.234
X108.75Y-188.094
X108.75Y-190.594
X108.75Y-228.734
X108.75Y-231.234
X109.75Y-186.094
X109.75Y-192.594
X109.75Y-226.734
X109.75Y-233.234
X110.75Y-188.094
X110.75Y-190.594
X110.75Y-228.734
X110.75Y-231.234
X111.75Y-186.094
X111.75Y-192.594
X111.75Y-226.734
X111.75Y-233.234
X112.75Y-188.094
X112.75Y-190.594
X112.75Y-228.734
X112.75Y-231.234
X113.75Y-186.094
X113.75Y-192.594
X113.75Y-226.734
X113.75Y-233.234
X114.75Y-188.094
X114.75Y-190.594
X114.75Y-228.734
X114.75Y-231.234
X115.75Y-186.094
X115.75Y-192.594
X115.75Y-226.734
X115.75Y-233.234
X116.75Y-188.094
X116.75Y-190.594
X116.75Y-228.734
X116.75Y-231.234
X117.75Y-186.094
X117.75Y-192.594
X117.75Y-226.734
X117.75Y-233.234
X118.75Y-188.094
X118.75Y-190.594
X118.75Y-228.734
X118.75Y-231.234
X119.75Y-186.094
X119.75Y-192.594
X119.75Y-226.734
X119.75Y-233.234
X120.75Y-188.094
X120.75Y-190.594
X120.75Y-228.734
X120.75Y-231.234
X121.75Y-186.094
X121.75Y-192.594
X121.75Y-226.734
X121.75Y-233.234
X122.75Y-188.094
X122.75Y-190.594
X122.75Y-228.734
X122.75Y-231.234
X123.75Y-186.094
X123.75Y-192.594
X123.75Y-226.734
X123.75Y-233.234
X124.75Y-188.094
X124.75Y-190.594
X124.75Y-228.734
X124.75Y-231.234
X125.75Y-186.094
X125.75Y-192.594
X125.75Y-226.734
X125.75Y-233.234
X126.75Y-188.094
X126.75Y-190.594
X126.75Y-228.734
X126.75Y-231.234
X127.75Y-186.094
X127.75Y-192.594
X127.75Y-226.734
X127.75Y-233.234
X128.75Y-188.094
X128.75Y-190.594
X128.75Y-228.734
X128.75Y-231.234
X129.75Y-186.094
X129.75Y-192.594
X129.75Y-226.734
X129.75Y-233.234
X130.75Y-188.094
X130.75Y-190.594
X130.75Y-228.734
X130.75Y-231.234
X131.75Y-186.094
X131.75Y-192.594
X131.75Y-226.734
X131.75Y-233.234
X132.75Y-188.094
X132.75Y-190.594
X132.75Y-228.734
X132.75Y-231.234
X133.75Y-186.094
X133.75Y-192.594
X133.75Y-226.734
X133.75Y-233.234
X134.75Y-188.094
X134.75Y-190.594
X134.75Y-228.734
X134.75Y-231.234
X135.75Y-186.094
X135.75Y-192.594
X135.75Y-226.734
X135.75Y-233.234
X136.75Y-188.094
X136.75Y-190.594
X136.75Y-228.734
X136.75Y-231.234
X137.75Y-186.094
X137.75Y-192.594
X137.75Y-226.734
X137.75Y-233.234
X138.75Y-188.094
X138.75Y-190.594
X138.75Y-228.734
X138.75Y-231.234
X139.75Y-186.094
X139.75Y-192.594
X139.75Y-226.734
X139.75Y-233.234
X140.75Y-188.094
X140.75Y-190.594
X140.75Y-228.734
X140.75Y-231.234
X141.75Y-186.094
X141.75Y-192.594
X141.75Y-226.734
X141.75Y-233.234
X142.75Y-188.094
X142.75Y-190.594
X142.75Y-228.734
X142.75Y-231.234
X143.75Y-186.094
X143.75Y-192.594
X143.75Y-226.734
X143.75Y-233.234
X144.75Y-188.094
X144.75Y-190.594
X144.75Y-228.734
X144.75Y-231.234
X145.75Y-186.094
X145.75Y-192.594
X145.75Y-226.734
X145.75Y-233.234
X146.75Y-188.094
X146.75Y-190.594
X146.75Y-228.734
X146.75Y-231.234
X147.75Y-186.094
X147.75Y-192.594
X147.75Y-226.734
X147.75Y-233.234
X148.75Y-188.094
X148.75Y-190.594
X148.75Y-228.734
X148.75Y-231.234
X149.75Y-186.094
X149.75Y-192.594
X149.75Y-226.734
X149.75Y-233.234
X150.75Y-188.094
X150.75Y-190.594
X150.75Y-228.734
X150.75Y-231.234
X151.75Y-186.094
X151.75Y-192.594
X151.75Y-226.734
X151.75Y-233.234
X152.75Y-188.094
X152.75Y-190.594
X152.75Y-228.734
X152.75Y-231.234
X153.75Y-186.094
X153.75Y-192.594
X153.75Y-226.734
X153.75Y-233.234
X154.75Y-188.094
X154.75Y-190.594
X154.75Y-228.734
X154.75Y-231.234
X155.75Y-186.094
X155.75Y-192.594
X155.75Y-226.734
X155.75Y-233.234
X156.75Y-188.094
X156.75Y-190.594
X156.75Y-228.734
X156.75Y-231.234
X157.75Y-186.094
X157.75Y-192.594
X157.75Y-226.734
X157.75Y-233.234
X158.75Y-188.094
X158.75Y-190.594
X158.75Y-228.734
X158.75Y-231.234
X159.75Y-186.094
X159.75Y-192.594
X159.75Y-226.734
X159.75Y-233.234
X160.75Y-188.094
X160.75Y-190.594
X160.75Y-228.734
X160.75Y-231.234
X161.75Y-186.094
X161.75Y-192.594
X161.75Y-226.734
X161.75Y-233.234
X162.75Y-188.094
X162.75Y-190.594
X162.75Y-228.734
X162.75Y-231.234
X163.75Y-186.094
X163.75Y-192.594
X163.75Y-226.734
X163.75Y-233.234
T7
X44.329Y-54.48
X44.329Y-55.88
X44.329Y-57.28
X44.329Y-58.68
T8
X69.778Y-133.479
T9
X42.285Y-155.95
X42.285Y-157.99
X42.285Y-160.03
X42.285Y-162.07
X44.065Y-154.93
X44.065Y-156.97
X44.065Y-159.01
X44.065Y-161.05
T10
X62.578Y-133.479
X62.578Y-147.729
X67.278Y-133.479
X67.278Y-147.729
X72.278Y-133.479
X72.278Y-147.729
X76.878Y-135.809
X76.878Y-140.609
X76.878Y-145.409
T11
X43.736Y-41.839
X43.736Y-44.339
X43.736Y-46.339
X43.736Y-48.839
X45.936Y-41.839
X45.936Y-44.339
X45.936Y-46.339
X45.936Y-48.839
X52.553Y-150.576
X52.553Y-153.116
X53.208Y-163.601
X53.208Y-170.485
X55.748Y-163.601
X55.748Y-170.485
X94.513Y-128.549
X97.053Y-128.549
X99.593Y-128.549
X102.133Y-128.549
X104.673Y-128.549
X107.213Y-128.549
X120.142Y-124.226
X120.142Y-126.766
X137.058Y-121.666
X139.598Y-121.666
X142.138Y-121.666
X144.678Y-121.666
X147.218Y-121.666
X152.248Y-121.666
X154.788Y-121.666
X157.328Y-121.666
X159.868Y-121.666
X162.408Y-121.666
X211.201Y-108.814
X211.201Y-111.354
X213.741Y-108.814
X213.741Y-111.354
X216.281Y-108.814
X216.281Y-111.354
X218.821Y-108.814
X218.821Y-111.354
X221.361Y-108.814
X221.361Y-111.354
X227.609Y-94.922
X227.621Y-109.576
X230.149Y-94.922
X230.161Y-109.576
X232.689Y-94.922
X232.701Y-109.576
X238.1Y-98.681
X238.1Y-101.221
X238.1Y-103.761
X238.111Y-113.309
X238.111Y-115.849
X238.111Y-118.389
X256.407Y-97.919
X256.407Y-100.459
X258.947Y-97.919
X258.947Y-100.459
T12
X51.884Y-80.875
X51.884Y-83.415
X51.884Y-85.955
X51.884Y-88.495
X51.884Y-91.035
X51.884Y-99.671
X51.884Y-102.211
X51.884Y-104.751
X51.884Y-107.291
X51.884Y-109.831
X51.884Y-118.467
X51.884Y-121.007
X51.884Y-123.547
X51.884Y-126.087
X51.884Y-128.627
X54.424Y-79.605
X54.424Y-82.145
X54.424Y-84.685
X54.424Y-87.225
X54.424Y-89.765
X54.424Y-98.401
X54.424Y-100.941
X54.424Y-103.481
X54.424Y-106.021
X54.424Y-108.561
X54.424Y-117.197
X54.424Y-119.737
X54.424Y-122.277
X54.424Y-124.817
X54.424Y-127.357
T13
X198.018Y-76.327
X198.018Y-78.867
X198.018Y-81.407
X198.018Y-83.947
X231.419Y-127.533
X233.959Y-127.533
X236.499Y-127.533
X239.039Y-127.533
T14
X39.778Y-133.479
X39.778Y-142.059
X44.778Y-147.729
X49.778Y-133.479
X54.778Y-147.729
X59.778Y-133.479
X59.778Y-139.159
X59.778Y-144.559
X64.778Y-147.729
X74.778Y-147.729
T16
X206.611Y-81.102
X226.611Y-81.102
T17
X40.634Y-78.7
X40.634Y-81.24
X40.634Y-89.41
X40.634Y-91.95
X40.634Y-97.496
X40.634Y-100.036
X40.634Y-108.206
X40.634Y-110.746
X40.634Y-116.292
X40.634Y-118.832
X40.634Y-127.002
X40.634Y-129.542
T18
X264.4Y-99.32
X264.4Y-103.52
X264.4Y-107.72
X264.4Y-111.92
X264.4Y-116.12
X264.4Y-120.32
X264.4Y-124.52
X264.4Y-128.72
X264.4Y-132.92
X264.4Y-137.12
X264.4Y-141.32
X264.4Y-145.52
X269.9Y-99.32
X269.9Y-103.52
X269.9Y-107.72
X269.9Y-111.92
X269.9Y-116.12
X269.9Y-120.32
X269.9Y-124.52
X269.9Y-128.72
X269.9Y-132.92
X269.9Y-137.12
X269.9Y-141.32
X269.9Y-145.52
T19
X43.175Y-150.45
X43.175Y-166.55
T20
X48.584Y-77.58
X48.584Y-93.07
X48.584Y-96.376
X48.584Y-111.866
X48.584Y-115.172
X48.584Y-130.662
T21
X109.706Y-209.62
X127.706Y-209.62
X128.32Y-51.564
X140.32Y-51.564
X147.706Y-209.62
T22
X113.78Y-110.56
X121.18Y-79.56
X186.38Y-79.56
X193.78Y-110.56
T23
X45.46Y-191.01
X45.46Y-236.73
X68.32Y-33.53
X200.4Y-33.53
X200.4Y-191.01
X200.4Y-236.73
X200.4Y-257.05
X272.79Y-33.53
X272.79Y-191.01
T4
X37.606Y-28.446G85X36.806Y-28.446
G05
X37.606Y-37.086G85X36.806Y-37.086
G05
X41.906Y-28.446G85X40.806Y-28.446
G05
X41.906Y-37.086G85X40.806Y-37.086
G05
X42.379Y-53.88G85X41.079Y-53.88
G05
X42.379Y-59.28G85X41.079Y-59.28
G05
T9
X39.367Y-60.835G85X38.567Y-60.835
G05
X39.367Y-75.335G85X38.567Y-75.335
G05
X45.867Y-60.835G85X44.067Y-60.835
G05
X45.867Y-75.335G85X44.067Y-75.335
G05
T11
X38.729Y-56.28G85X38.729Y-56.88
G05
T15
X42.636Y-38.939G85X41.736Y-38.939
G05
X42.636Y-51.739G85X41.736Y-51.739
G05
T0
M30
