M48
; DRILL file {KiCad 7.0.8-7.0.8~ubuntu22.04.1} date  7.11.2023 (вт) 10:11:46
; FORMAT={2:4/ absolute / inch / keep zeros}
; #@! TF.CreationDate,2023-11-07T10:11:46+02:00
; #@! TF.GenerationSoftware,Kicad,Pcbnew,7.0.8-7.0.8~ubuntu22.04.1
; #@! TF.FileFunction,NonPlated,1,4,NPTH
FMAT,2
INCH
; #@! TA.AperFunction,NonPlated,NPTH,ComponentDrill
T1C0.0256
; #@! TA.AperFunction,NonPlated,NPTH,ComponentDrill
T2C0.0394
; #@! TA.AperFunction,NonPlated,NPTH,ComponentDrill
T3C0.0433
; #@! TA.AperFunction,NonPlated,NPTH,ComponentDrill
T4C0.0453
; #@! TA.AperFunction,NonPlated,NPTH,ComponentDrill
T5C0.0630
; #@! TA.AperFunction,NonPlated,NPTH,ComponentDrill
T6C0.0650
; #@! TA.AperFunction,NonPlated,NPTH,ComponentDrill
T7C0.0925
; #@! TA.AperFunction,NonPlated,NPTH,ComponentDrill
T8C0.1280
%
G90
G05
T1
X016085Y-011758
X016089Y-014042
T2
X107931Y-063599
X107931Y-066749
T3
X027344Y-086478
X039396Y-024237
X078810Y-032050
X092110Y-051060
T4
X046997Y-043525
T5
X027344Y-078604
X027810Y-053470
X027810Y-057250
X039396Y-016363
T6
X074084Y-043525
T7
X036378Y-074545
X036378Y-090545
X065177Y-074545
X065177Y-090545
T8
X015648Y-059921
X015648Y-064882
X017927Y-031342
X017927Y-035842
X017927Y-038742
X017927Y-043242
X017927Y-046142
X017927Y-050642
T0
M30
