%TF.GenerationSoftware,KiCad,Pcbnew,7.0.8-7.0.8~ubuntu22.04.1*%
%TF.CreationDate,2023-11-07T10:09:24+02:00*%
%TF.ProjectId,Tangenta,54616e67-656e-4746-912e-6b696361645f,rev?*%
%TF.SameCoordinates,Original*%
%TF.FileFunction,Soldermask,Bot*%
%TF.FilePolarity,Negative*%
%FSLAX46Y46*%
G04 Gerber Fmt 4.6, Leading zero omitted, Abs format (unit mm)*
G04 Created by KiCad (PCBNEW 7.0.8-7.0.8~ubuntu22.04.1) date 2023-11-07 10:09:24*
%MOMM*%
%LPD*%
G01*
G04 APERTURE LIST*
G04 Aperture macros list*
%AMRoundRect*
0 Rectangle with rounded corners*
0 $1 Rounding radius*
0 $2 $3 $4 $5 $6 $7 $8 $9 X,Y pos of 4 corners*
0 Add a 4 corners polygon primitive as box body*
4,1,4,$2,$3,$4,$5,$6,$7,$8,$9,$2,$3,0*
0 Add four circle primitives for the rounded corners*
1,1,$1+$1,$2,$3*
1,1,$1+$1,$4,$5*
1,1,$1+$1,$6,$7*
1,1,$1+$1,$8,$9*
0 Add four rect primitives between the rounded corners*
20,1,$1+$1,$2,$3,$4,$5,0*
20,1,$1+$1,$4,$5,$6,$7,0*
20,1,$1+$1,$6,$7,$8,$9,0*
20,1,$1+$1,$8,$9,$2,$3,0*%
G04 Aperture macros list end*
%ADD10R,1.700000X1.700000*%
%ADD11O,1.700000X1.700000*%
%ADD12C,1.600000*%
%ADD13C,1.000000*%
%ADD14C,1.100000*%
%ADD15C,0.900000*%
%ADD16C,8.000000*%
%ADD17C,2.350000*%
%ADD18R,1.200000X1.200000*%
%ADD19C,1.200000*%
%ADD20C,3.249987*%
%ADD21C,1.549403*%
%ADD22C,2.580645*%
%ADD23R,1.000000X1.000000*%
%ADD24O,1.000000X1.000000*%
%ADD25C,1.650000*%
%ADD26C,1.150000*%
%ADD27O,2.400000X1.100000*%
%ADD28O,1.500000X2.100000*%
%ADD29C,2.900000*%
%ADD30C,5.300000*%
%ADD31R,0.850000X0.850000*%
%ADD32O,0.850000X0.850000*%
%ADD33C,6.400000*%
%ADD34C,4.400000*%
%ADD35O,2.400000X1.500000*%
%ADD36C,0.649987*%
%ADD37O,2.100000X1.000000*%
%ADD38O,1.800000X1.000000*%
%ADD39R,1.730000X2.030000*%
%ADD40O,1.730000X2.030000*%
%ADD41C,1.295403*%
%ADD42C,2.400000*%
%ADD43C,1.650013*%
%ADD44C,1.524003*%
%ADD45O,3.300000X1.500000*%
%ADD46O,2.300000X1.500000*%
%ADD47C,1.800000*%
%ADD48R,2.030000X1.730000*%
%ADD49O,2.030000X1.730000*%
%ADD50RoundRect,0.200000X-0.200000X-0.275000X0.200000X-0.275000X0.200000X0.275000X-0.200000X0.275000X0*%
G04 APERTURE END LIST*
D10*
X52552600Y-153116200D03*
D11*
X52552600Y-150576200D03*
D12*
X70637527Y-135814298D03*
X70637527Y-145414248D03*
D13*
X59863586Y-52333873D03*
X57863586Y-52333873D03*
X59863586Y-54333873D03*
X57863586Y-54333873D03*
D14*
X69453000Y-219653600D03*
D12*
X69453000Y-199653600D03*
D13*
X274143910Y-169541962D03*
X274143910Y-161541962D03*
D10*
X147218400Y-121666000D03*
D11*
X144678400Y-121666000D03*
X142138400Y-121666000D03*
X139598400Y-121666000D03*
X137058400Y-121666000D03*
D15*
X197400000Y-257050000D03*
X198278680Y-254928680D03*
X198278680Y-259171320D03*
X200400000Y-254050000D03*
D16*
X200400000Y-257050000D03*
D15*
X200400000Y-260050000D03*
X202521320Y-254928680D03*
X202521320Y-259171320D03*
X203400000Y-257050000D03*
D17*
X92400000Y-189344000D03*
X165550000Y-189344000D03*
D18*
X80750000Y-188094000D03*
D19*
X81750000Y-186094000D03*
X82750000Y-188094000D03*
X83750000Y-186094000D03*
X84750000Y-188094000D03*
X85750000Y-186094000D03*
X86750000Y-188094000D03*
X87750000Y-186094000D03*
X88750000Y-188094000D03*
X89750000Y-186094000D03*
X90750000Y-188094000D03*
X93750000Y-186094000D03*
X94750000Y-188094000D03*
X95750000Y-186094000D03*
X96750000Y-188094000D03*
X97750000Y-186094000D03*
X98750000Y-188094000D03*
X99750000Y-186094000D03*
X100750000Y-188094000D03*
X101750000Y-186094000D03*
X102750000Y-188094000D03*
X103750000Y-186094000D03*
X104750000Y-188094000D03*
X105750000Y-186094000D03*
X106750000Y-188094000D03*
X107750000Y-186094000D03*
X108750000Y-188094000D03*
X109750000Y-186094000D03*
X110750000Y-188094000D03*
X111750000Y-186094000D03*
X112750000Y-188094000D03*
X113750000Y-186094000D03*
X114750000Y-188094000D03*
X115750000Y-186094000D03*
X116750000Y-188094000D03*
X117750000Y-186094000D03*
X118750000Y-188094000D03*
X119750000Y-186094000D03*
X120750000Y-188094000D03*
X121750000Y-186094000D03*
X122750000Y-188094000D03*
X123750000Y-186094000D03*
X124750000Y-188094000D03*
X125750000Y-186094000D03*
X126750000Y-188094000D03*
X127750000Y-186094000D03*
X128750000Y-188094000D03*
X129750000Y-186094000D03*
X130750000Y-188094000D03*
X131750000Y-186094000D03*
X132750000Y-188094000D03*
X133750000Y-186094000D03*
X134750000Y-188094000D03*
X135750000Y-186094000D03*
X136750000Y-188094000D03*
X137750000Y-186094000D03*
X138750000Y-188094000D03*
X139750000Y-186094000D03*
X140750000Y-188094000D03*
X141750000Y-186094000D03*
X142750000Y-188094000D03*
X143750000Y-186094000D03*
X144750000Y-188094000D03*
X145750000Y-186094000D03*
X146750000Y-188094000D03*
X147750000Y-186094000D03*
X148750000Y-188094000D03*
X149750000Y-186094000D03*
X150750000Y-188094000D03*
X151750000Y-186094000D03*
X152750000Y-188094000D03*
X153750000Y-186094000D03*
X154750000Y-188094000D03*
X155750000Y-186094000D03*
X156750000Y-188094000D03*
X157750000Y-186094000D03*
X158750000Y-188094000D03*
X159750000Y-186094000D03*
X160750000Y-188094000D03*
X161750000Y-186094000D03*
X162750000Y-188094000D03*
X163750000Y-186094000D03*
X80750000Y-190594000D03*
X81750000Y-192594000D03*
X82750000Y-190594000D03*
X83750000Y-192594000D03*
X84750000Y-190594000D03*
X85750000Y-192594000D03*
X86750000Y-190594000D03*
X87750000Y-192594000D03*
X88750000Y-190594000D03*
X89750000Y-192594000D03*
X90750000Y-190594000D03*
X93750000Y-192594000D03*
X94750000Y-190594000D03*
X95750000Y-192594000D03*
X96750000Y-190594000D03*
X97750000Y-192594000D03*
X98750000Y-190594000D03*
X99750000Y-192594000D03*
X100750000Y-190594000D03*
X101750000Y-192594000D03*
X102750000Y-190594000D03*
X103750000Y-192594000D03*
X104750000Y-190594000D03*
X105750000Y-192594000D03*
X106750000Y-190594000D03*
X107750000Y-192594000D03*
X108750000Y-190594000D03*
X109750000Y-192594000D03*
X110750000Y-190594000D03*
X111750000Y-192594000D03*
X112750000Y-190594000D03*
X113750000Y-192594000D03*
X114750000Y-190594000D03*
X115750000Y-192594000D03*
X116750000Y-190594000D03*
X117750000Y-192594000D03*
X118750000Y-190594000D03*
X119750000Y-192594000D03*
X120750000Y-190594000D03*
X121750000Y-192594000D03*
X122750000Y-190594000D03*
X123750000Y-192594000D03*
X124750000Y-190594000D03*
X125750000Y-192594000D03*
X126750000Y-190594000D03*
X127750000Y-192594000D03*
X128750000Y-190594000D03*
X129750000Y-192594000D03*
X130750000Y-190594000D03*
X131750000Y-192594000D03*
X132750000Y-190594000D03*
X133750000Y-192594000D03*
X134750000Y-190594000D03*
X135750000Y-192594000D03*
X136750000Y-190594000D03*
X137750000Y-192594000D03*
X138750000Y-190594000D03*
X139750000Y-192594000D03*
X140750000Y-190594000D03*
X141750000Y-192594000D03*
X142750000Y-190594000D03*
X143750000Y-192594000D03*
X144750000Y-190594000D03*
X145750000Y-192594000D03*
X146750000Y-190594000D03*
X147750000Y-192594000D03*
X148750000Y-190594000D03*
X149750000Y-192594000D03*
X150750000Y-190594000D03*
X151750000Y-192594000D03*
X152750000Y-190594000D03*
X153750000Y-192594000D03*
X154750000Y-190594000D03*
X155750000Y-192594000D03*
X156750000Y-190594000D03*
X157750000Y-192594000D03*
X158750000Y-190594000D03*
X159750000Y-192594000D03*
X160750000Y-190594000D03*
X161750000Y-192594000D03*
X162750000Y-190594000D03*
X163750000Y-192594000D03*
D14*
X100066000Y-61562000D03*
D12*
X100066000Y-41562000D03*
D20*
X45533924Y-98405899D03*
X45533924Y-109835921D03*
D21*
X54423942Y-98401073D03*
X51883937Y-99671075D03*
X54423942Y-100941078D03*
X51883937Y-102211080D03*
X54423942Y-103481083D03*
X51883937Y-104751085D03*
X54423942Y-106021088D03*
X51883937Y-107291090D03*
X54423942Y-108561093D03*
X51883937Y-109831095D03*
X40634000Y-97496069D03*
X40634000Y-100036074D03*
X40634000Y-108206000D03*
X40634000Y-110746005D03*
D22*
X48583962Y-96375927D03*
X48583962Y-111865893D03*
D10*
X120142000Y-124226400D03*
D11*
X120142000Y-126766400D03*
D23*
X200853200Y-113390600D03*
D24*
X199583200Y-113390600D03*
X200853200Y-112120600D03*
X199583200Y-112120600D03*
X200853200Y-110850600D03*
X199583200Y-110850600D03*
D25*
X188173000Y-110554000D03*
D26*
X119373000Y-110554000D03*
D15*
X197400000Y-191010000D03*
X198278680Y-188888680D03*
X198278680Y-193131320D03*
X200400000Y-188010000D03*
D16*
X200400000Y-191010000D03*
D15*
X200400000Y-194010000D03*
X202521320Y-188888680D03*
X202521320Y-193131320D03*
X203400000Y-191010000D03*
D20*
X45533924Y-117201899D03*
X45533924Y-128631921D03*
D21*
X54423942Y-117197073D03*
X51883937Y-118467075D03*
X54423942Y-119737078D03*
X51883937Y-121007080D03*
X54423942Y-122277083D03*
X51883937Y-123547085D03*
X54423942Y-124817088D03*
X51883937Y-126087090D03*
X54423942Y-127357093D03*
X51883937Y-128627095D03*
X40634000Y-116292069D03*
X40634000Y-118832074D03*
X40634000Y-127002000D03*
X40634000Y-129542005D03*
D22*
X48583962Y-115171927D03*
X48583962Y-130661893D03*
D13*
X79364000Y-64523000D03*
X77464000Y-64523000D03*
X75564000Y-64523000D03*
X79364000Y-66423000D03*
X77464000Y-66423000D03*
X75564000Y-66423000D03*
X79364000Y-68323000D03*
X77464000Y-68323000D03*
X75564000Y-68323000D03*
D10*
X211201000Y-111353600D03*
D11*
X211201000Y-108813600D03*
X213741000Y-111353600D03*
X213741000Y-108813600D03*
X216281000Y-111353600D03*
X216281000Y-108813600D03*
X218821000Y-111353600D03*
X218821000Y-108813600D03*
X221361000Y-111353600D03*
X221361000Y-108813600D03*
D14*
X44328975Y-54479949D03*
X44328975Y-55880000D03*
X44328975Y-57280050D03*
X44328975Y-58680101D03*
D27*
X41729025Y-53880000D03*
D28*
X38729025Y-56580025D03*
D27*
X41729025Y-59280050D03*
D10*
X256407000Y-97919000D03*
D11*
X258947000Y-97919000D03*
X256407000Y-100459000D03*
X258947000Y-100459000D03*
D29*
X264400000Y-145520051D03*
X264400000Y-141319899D03*
X264400000Y-137120000D03*
X264400000Y-132919848D03*
X264400000Y-128719950D03*
X264400000Y-124520051D03*
X264400000Y-120319899D03*
X264400000Y-116120000D03*
X264400000Y-111919848D03*
X264400000Y-107719950D03*
X264400000Y-103520051D03*
X264400000Y-99319899D03*
X269900128Y-145520051D03*
X269900128Y-141319899D03*
X269900128Y-137120000D03*
X269900128Y-132919848D03*
X269900128Y-128719950D03*
X269900128Y-124520051D03*
X269900128Y-120319899D03*
X269900128Y-116120000D03*
X269900128Y-111919848D03*
X269900128Y-107719950D03*
X269900128Y-103520051D03*
X269900128Y-99319899D03*
D10*
X238099600Y-103761000D03*
D11*
X238099600Y-101221000D03*
X238099600Y-98681000D03*
D30*
X113780000Y-110560000D03*
D31*
X241154200Y-214630000D03*
D32*
X242154200Y-214630000D03*
X243154200Y-214630000D03*
X244154200Y-214630000D03*
X245154200Y-214630000D03*
X246154200Y-214630000D03*
D17*
X92400000Y-229984000D03*
X165550000Y-229984000D03*
D18*
X80750000Y-228734000D03*
D19*
X81750000Y-226734000D03*
X82750000Y-228734000D03*
X83750000Y-226734000D03*
X84750000Y-228734000D03*
X85750000Y-226734000D03*
X86750000Y-228734000D03*
X87750000Y-226734000D03*
X88750000Y-228734000D03*
X89750000Y-226734000D03*
X90750000Y-228734000D03*
X93750000Y-226734000D03*
X94750000Y-228734000D03*
X95750000Y-226734000D03*
X96750000Y-228734000D03*
X97750000Y-226734000D03*
X98750000Y-228734000D03*
X99750000Y-226734000D03*
X100750000Y-228734000D03*
X101750000Y-226734000D03*
X102750000Y-228734000D03*
X103750000Y-226734000D03*
X104750000Y-228734000D03*
X105750000Y-226734000D03*
X106750000Y-228734000D03*
X107750000Y-226734000D03*
X108750000Y-228734000D03*
X109750000Y-226734000D03*
X110750000Y-228734000D03*
X111750000Y-226734000D03*
X112750000Y-228734000D03*
X113750000Y-226734000D03*
X114750000Y-228734000D03*
X115750000Y-226734000D03*
X116750000Y-228734000D03*
X117750000Y-226734000D03*
X118750000Y-228734000D03*
X119750000Y-226734000D03*
X120750000Y-228734000D03*
X121750000Y-226734000D03*
X122750000Y-228734000D03*
X123750000Y-226734000D03*
X124750000Y-228734000D03*
X125750000Y-226734000D03*
X126750000Y-228734000D03*
X127750000Y-226734000D03*
X128750000Y-228734000D03*
X129750000Y-226734000D03*
X130750000Y-228734000D03*
X131750000Y-226734000D03*
X132750000Y-228734000D03*
X133750000Y-226734000D03*
X134750000Y-228734000D03*
X135750000Y-226734000D03*
X136750000Y-228734000D03*
X137750000Y-226734000D03*
X138750000Y-228734000D03*
X139750000Y-226734000D03*
X140750000Y-228734000D03*
X141750000Y-226734000D03*
X142750000Y-228734000D03*
X143750000Y-226734000D03*
X144750000Y-228734000D03*
X145750000Y-226734000D03*
X146750000Y-228734000D03*
X147750000Y-226734000D03*
X148750000Y-228734000D03*
X149750000Y-226734000D03*
X150750000Y-228734000D03*
X151750000Y-226734000D03*
X152750000Y-228734000D03*
X153750000Y-226734000D03*
X154750000Y-228734000D03*
X155750000Y-226734000D03*
X156750000Y-228734000D03*
X157750000Y-226734000D03*
X158750000Y-228734000D03*
X159750000Y-226734000D03*
X160750000Y-228734000D03*
X161750000Y-226734000D03*
X162750000Y-228734000D03*
X163750000Y-226734000D03*
X80750000Y-231234000D03*
X81750000Y-233234000D03*
X82750000Y-231234000D03*
X83750000Y-233234000D03*
X84750000Y-231234000D03*
X85750000Y-233234000D03*
X86750000Y-231234000D03*
X87750000Y-233234000D03*
X88750000Y-231234000D03*
X89750000Y-233234000D03*
X90750000Y-231234000D03*
X93750000Y-233234000D03*
X94750000Y-231234000D03*
X95750000Y-233234000D03*
X96750000Y-231234000D03*
X97750000Y-233234000D03*
X98750000Y-231234000D03*
X99750000Y-233234000D03*
X100750000Y-231234000D03*
X101750000Y-233234000D03*
X102750000Y-231234000D03*
X103750000Y-233234000D03*
X104750000Y-231234000D03*
X105750000Y-233234000D03*
X106750000Y-231234000D03*
X107750000Y-233234000D03*
X108750000Y-231234000D03*
X109750000Y-233234000D03*
X110750000Y-231234000D03*
X111750000Y-233234000D03*
X112750000Y-231234000D03*
X113750000Y-233234000D03*
X114750000Y-231234000D03*
X115750000Y-233234000D03*
X116750000Y-231234000D03*
X117750000Y-233234000D03*
X118750000Y-231234000D03*
X119750000Y-233234000D03*
X120750000Y-231234000D03*
X121750000Y-233234000D03*
X122750000Y-231234000D03*
X123750000Y-233234000D03*
X124750000Y-231234000D03*
X125750000Y-233234000D03*
X126750000Y-231234000D03*
X127750000Y-233234000D03*
X128750000Y-231234000D03*
X129750000Y-233234000D03*
X130750000Y-231234000D03*
X131750000Y-233234000D03*
X132750000Y-231234000D03*
X133750000Y-233234000D03*
X134750000Y-231234000D03*
X135750000Y-233234000D03*
X136750000Y-231234000D03*
X137750000Y-233234000D03*
X138750000Y-231234000D03*
X139750000Y-233234000D03*
X140750000Y-231234000D03*
X141750000Y-233234000D03*
X142750000Y-231234000D03*
X143750000Y-233234000D03*
X144750000Y-231234000D03*
X145750000Y-233234000D03*
X146750000Y-231234000D03*
X147750000Y-233234000D03*
X148750000Y-231234000D03*
X149750000Y-233234000D03*
X150750000Y-231234000D03*
X151750000Y-233234000D03*
X152750000Y-231234000D03*
X153750000Y-233234000D03*
X154750000Y-231234000D03*
X155750000Y-233234000D03*
X156750000Y-231234000D03*
X157750000Y-233234000D03*
X158750000Y-231234000D03*
X159750000Y-233234000D03*
X160750000Y-231234000D03*
X161750000Y-233234000D03*
X162750000Y-231234000D03*
X163750000Y-233234000D03*
D15*
X197400000Y-33530000D03*
X198278680Y-31408680D03*
X198278680Y-35651320D03*
X200400000Y-30530000D03*
D16*
X200400000Y-33530000D03*
D15*
X200400000Y-36530000D03*
X202521320Y-31408680D03*
X202521320Y-35651320D03*
X203400000Y-33530000D03*
D31*
X84815800Y-116814600D03*
D32*
X85815800Y-116814600D03*
X86815800Y-116814600D03*
X87815800Y-116814600D03*
X88815800Y-116814600D03*
X89815800Y-116814600D03*
X90815800Y-116814600D03*
X91815800Y-116814600D03*
D15*
X197400000Y-236730000D03*
X198278680Y-234608680D03*
X198278680Y-238851320D03*
X200400000Y-233730000D03*
D16*
X200400000Y-236730000D03*
D15*
X200400000Y-239730000D03*
X202521320Y-234608680D03*
X202521320Y-238851320D03*
X203400000Y-236730000D03*
D33*
X121180000Y-79560000D03*
D10*
X53208000Y-163601400D03*
D11*
X55748000Y-163601400D03*
D15*
X65320000Y-33530000D03*
X66198680Y-31408680D03*
X66198680Y-35651320D03*
X68320000Y-30530000D03*
D16*
X68320000Y-33530000D03*
D15*
X68320000Y-36530000D03*
X70441320Y-31408680D03*
X70441320Y-35651320D03*
X71320000Y-33530000D03*
D34*
X127706000Y-209619600D03*
D12*
X45935863Y-41838854D03*
X45935863Y-44338727D03*
X45935863Y-46338727D03*
X45935863Y-48838854D03*
X43735964Y-41838854D03*
X43735964Y-44338727D03*
X43735964Y-46338727D03*
X43735964Y-48838854D03*
D35*
X42186053Y-51738778D03*
X42186053Y-38938676D03*
D36*
X40855873Y-29866035D03*
X40866034Y-35665883D03*
D37*
X41356000Y-28445918D03*
D38*
X37205886Y-28445918D03*
D37*
X41356000Y-37086000D03*
D38*
X37205886Y-37086000D03*
D10*
X238111300Y-118389400D03*
D11*
X238111300Y-115849400D03*
X238111300Y-113309400D03*
D14*
X233959400Y-129693400D03*
D39*
X239039400Y-127533400D03*
D40*
X236499400Y-127533400D03*
X233959400Y-127533400D03*
X231419400Y-127533400D03*
D20*
X39744995Y-164800008D03*
X39744995Y-152200058D03*
D41*
X42285000Y-162070010D03*
X44064782Y-161049944D03*
X42285000Y-160030132D03*
X44064782Y-159010066D03*
X42285000Y-157990000D03*
X44064782Y-156969934D03*
X42285000Y-155950122D03*
X44064782Y-154930056D03*
D42*
X43174764Y-150449995D03*
X43174764Y-166550071D03*
D43*
X39778000Y-133479000D03*
X49778000Y-133479000D03*
X59778000Y-133479000D03*
D44*
X62577847Y-133479000D03*
X67277873Y-133479000D03*
X69778000Y-133479000D03*
X72277873Y-133479000D03*
X76877822Y-135808946D03*
X76877822Y-140609048D03*
X76877822Y-145409150D03*
D43*
X74778000Y-147728936D03*
D44*
X72277873Y-147728936D03*
X67277873Y-147728936D03*
D43*
X64778000Y-147728936D03*
D44*
X62577847Y-147728936D03*
D43*
X54778000Y-147728936D03*
X44778000Y-147728936D03*
X39778000Y-142059137D03*
X59778000Y-144559010D03*
X59778000Y-139158959D03*
D34*
X147706000Y-209619600D03*
D10*
X162407600Y-121666000D03*
D11*
X159867600Y-121666000D03*
X157327600Y-121666000D03*
X154787600Y-121666000D03*
X152247600Y-121666000D03*
D45*
X44967019Y-60835000D03*
D46*
X38967019Y-60835000D03*
D45*
X44967019Y-75335128D03*
D46*
X38967019Y-75335128D03*
D47*
X226611073Y-81102225D03*
X206611327Y-81102225D03*
D30*
X193780000Y-110560000D03*
D15*
X269790000Y-33530000D03*
X270668680Y-31408680D03*
X270668680Y-35651320D03*
X272790000Y-30530000D03*
D16*
X272790000Y-33530000D03*
D15*
X272790000Y-36530000D03*
X274911320Y-31408680D03*
X274911320Y-35651320D03*
X275790000Y-33530000D03*
X42460000Y-236730000D03*
X43338680Y-234608680D03*
X43338680Y-238851320D03*
X45460000Y-233730000D03*
D16*
X45460000Y-236730000D03*
D15*
X45460000Y-239730000D03*
X47581320Y-234608680D03*
X47581320Y-238851320D03*
X48460000Y-236730000D03*
D23*
X171805600Y-123063000D03*
D24*
X173075600Y-123063000D03*
X174345600Y-123063000D03*
X175615600Y-123063000D03*
X176885600Y-123063000D03*
X178155600Y-123063000D03*
X179425600Y-123063000D03*
X180695600Y-123063000D03*
X181965600Y-123063000D03*
D10*
X227609400Y-94921800D03*
D11*
X230149400Y-94921800D03*
X232689400Y-94921800D03*
D10*
X53208000Y-170484800D03*
D11*
X55748000Y-170484800D03*
D33*
X186380000Y-79560000D03*
D10*
X107213400Y-128549400D03*
D11*
X104673400Y-128549400D03*
X102133400Y-128549400D03*
X99593400Y-128549400D03*
X97053400Y-128549400D03*
X94513400Y-128549400D03*
D34*
X109706000Y-209619600D03*
D15*
X269790000Y-191010000D03*
X270668680Y-188888680D03*
X270668680Y-193131320D03*
X272790000Y-188010000D03*
D16*
X272790000Y-191010000D03*
D15*
X272790000Y-194010000D03*
X274911320Y-188888680D03*
X274911320Y-193131320D03*
X275790000Y-191010000D03*
X42460000Y-191010000D03*
X43338680Y-188888680D03*
X43338680Y-193131320D03*
X45460000Y-188010000D03*
D16*
X45460000Y-191010000D03*
D15*
X45460000Y-194010000D03*
X47581320Y-188888680D03*
X47581320Y-193131320D03*
X48460000Y-191010000D03*
D20*
X45533924Y-79609899D03*
X45533924Y-91039921D03*
D21*
X54423942Y-79605073D03*
X51883937Y-80875075D03*
X54423942Y-82145078D03*
X51883937Y-83415080D03*
X54423942Y-84685083D03*
X51883937Y-85955085D03*
X54423942Y-87225088D03*
X51883937Y-88495090D03*
X54423942Y-89765093D03*
X51883937Y-91035095D03*
X40634000Y-78700069D03*
X40634000Y-81240074D03*
X40634000Y-89410000D03*
X40634000Y-91950005D03*
D22*
X48583962Y-77579927D03*
X48583962Y-93069893D03*
D34*
X140320000Y-51564000D03*
D14*
X200178400Y-81407000D03*
D48*
X198018400Y-76327000D03*
D49*
X198018400Y-78867000D03*
X198018400Y-81407000D03*
X198018400Y-83947000D03*
D34*
X128320000Y-51564000D03*
D10*
X227621100Y-109575600D03*
D11*
X230161100Y-109575600D03*
X232701100Y-109575600D03*
D50*
X39142400Y-156972000D03*
X40792400Y-156972000D03*
X39154600Y-154940000D03*
X40804600Y-154940000D03*
X39154600Y-158521400D03*
X40804600Y-158521400D03*
M02*
